<svg xmlns="http://www.w3.org/2000/svg" viewBox="0 0 287 365"><defs><style>.cls-1{fill:#afb1b4;stroke:#010101;stroke-linecap:round;stroke-linejoin:round;opacity:0.36;}.cls-11,.cls-14,.cls-17,.cls-2,.cls-3,.cls-5,.cls-8{fill:#231f20;}.cls-3{font-size:16px;}.cls-17,.cls-3{font-family:QuadBlack-Heavy, Quad Black;font-weight:800;}.cls-4{letter-spacing:0.12em;}.cls-5{font-size:12px;}.cls-11,.cls-14,.cls-5,.cls-8{font-family:Archive-Regular, Archive;}.cls-6{letter-spacing:-0.04em;}.cls-7{letter-spacing:-0.06em;}.cls-17,.cls-8{font-size:10px;}.cls-9{letter-spacing:-0.06em;}.cls-10{letter-spacing:-0.04em;}.cls-11{font-size:8px;}.cls-12{letter-spacing:-0.05em;}.cls-13{letter-spacing:-0.04em;}.cls-14{font-size:9px;}.cls-15{letter-spacing:-0.04em;}.cls-16{letter-spacing:-0.05em;}.cls-18{letter-spacing:0.06em;}.cls-19{letter-spacing:0.11em;}.cls-20{letter-spacing:0em;}.cls-21{letter-spacing:0.11em;}.cls-22{letter-spacing:-0.03em;}.cls-23{letter-spacing:-0.02em;}.cls-24{letter-spacing:-0.01em;}.cls-25{fill:none;stroke:#231f20;stroke-miterlimit:10;}.cls-26{fill:#e6e7e8;}.cls-27{fill:#d1d3d4;}</style></defs><title>front_panel2</title><g id="Front_Panel_Edges" data-name="Front Panel Edges"><rect class="cls-1" x="0.5" y="0.5" width="286" height="364"/></g><g id="Labels"><path class="cls-2" d="M209.63,336.29l-.54-.54L208,336.81l.54.54a.92.92,0,0,0,.63.32.68.68,0,0,0,.53-.21.7.7,0,0,0,.23-.54A1,1,0,0,0,209.63,336.29Zm0,0-.54-.54L208,336.81l.54.54a.92.92,0,0,0,.63.32.68.68,0,0,0,.53-.21.7.7,0,0,0,.23-.54A1,1,0,0,0,209.63,336.29Zm5.81.94-14-14a4.79,4.79,0,0,0-6.77,0l-.18.18a4.79,4.79,0,0,0,0,6.77l14,14a4.79,4.79,0,0,0,6.77,0l.19-.18A4.8,4.8,0,0,0,215.44,337.23Zm-17.81-7.53a2.48,2.48,0,0,1-1.4-.79,2.79,2.79,0,0,1-.58-.85,2,2,0,0,1-.16-1,1.38,1.38,0,0,1,.42-.88.26.26,0,0,1,.16-.09.24.24,0,0,1,.16.1l.55.55a.4.4,0,0,1,.12.18c0,.05,0,.11-.07.18a.52.52,0,0,0-.13.34.65.65,0,0,0,.09.37,1.57,1.57,0,0,0,.28.37,1.11,1.11,0,0,0,.49.32.45.45,0,0,0,.45-.15.35.35,0,0,0,.08-.38,3.16,3.16,0,0,0-.31-.61c-.15-.24-.24-.39-.28-.47a4.29,4.29,0,0,1-.34-.81,1.42,1.42,0,0,1,0-.71,1.53,1.53,0,0,1,1.2-1.11,1.7,1.7,0,0,1,.88.12,3,3,0,0,1,.83.53,3.28,3.28,0,0,1,.6.85,1.93,1.93,0,0,1,.21.92,1.25,1.25,0,0,1-.38.81c-.07.07-.12.11-.16.1a.28.28,0,0,1-.17-.1l-.55-.56a.17.17,0,0,1-.06-.12.2.2,0,0,1,0-.11l0-.07a.84.84,0,0,0,0-.29.77.77,0,0,0-.1-.33,1.33,1.33,0,0,0-.23-.3,1,1,0,0,0-.42-.26.34.34,0,0,0-.4.09.45.45,0,0,0-.06.51,5.93,5.93,0,0,0,.4.81,1.61,1.61,0,0,1,.15.29,4.91,4.91,0,0,1,.32.69,1.44,1.44,0,0,1,.05.66,1.36,1.36,0,0,1-.42.72A1.42,1.42,0,0,1,197.63,329.7Zm2.5,2.87a.24.24,0,0,1-.16-.09l-.56-.56a.22.22,0,0,1-.09-.16.26.26,0,0,1,.09-.17l2.76-2.76-.87-.87a.2.2,0,0,1,0-.33l.47-.47a.27.27,0,0,1,.16-.08.24.24,0,0,1,.17.08l2.62,2.63a.26.26,0,0,1,.09.17.24.24,0,0,1-.09.16l-.47.47a.24.24,0,0,1-.16.08c-.05,0-.1,0-.17-.08l-.86-.87-2.76,2.76A.26.26,0,0,1,200.13,332.57Zm5.09,3.91-.46.46a.2.2,0,0,1-.33,0l-2.54-2.53c-.06-.07-.09-.12-.08-.17a.24.24,0,0,1,.08-.16l3.4-3.4a.33.33,0,0,1,.16-.09.26.26,0,0,1,.17.09l2.43,2.44a.26.26,0,0,1,.09.17.24.24,0,0,1-.09.16l-.47.47a.26.26,0,0,1-.16.09.24.24,0,0,1-.16-.09l-1.71-1.71-.62.62,1.52,1.51a.26.26,0,0,1,.09.17.38.38,0,0,1-.09.16l-.44.44a.2.2,0,0,1-.33,0l-1.52-1.51-.74.74,1.8,1.81a.2.2,0,0,1,0,.33Zm2.59,1.64-.54-.55-.94.94a.26.26,0,0,1-.17.09.24.24,0,0,1-.16-.09l-.56-.56a.22.22,0,0,1-.09-.16.26.26,0,0,1,.09-.17l3.39-3.39a.2.2,0,0,1,.33,0l1.28,1.27a2.24,2.24,0,0,1,.74,1.46,1.79,1.79,0,0,1-.57,1.34,1.71,1.71,0,0,1-1.35.56A2.24,2.24,0,0,1,207.81,338.12Zm6.42,3.15a.28.28,0,0,1-.17.1s-.09,0-.16-.1l-.55-.56a.17.17,0,0,1-.06-.12.2.2,0,0,1,0-.11.67.67,0,0,1,0-.07.84.84,0,0,0,.05-.29.77.77,0,0,0-.1-.33,1.33,1.33,0,0,0-.23-.3,1,1,0,0,0-.42-.27.35.35,0,0,0-.4.1.45.45,0,0,0-.06.51,5.7,5.7,0,0,0,.39.81,1.27,1.27,0,0,1,.16.29,4.91,4.91,0,0,1,.32.69,1.44,1.44,0,0,1,.05.66,1.36,1.36,0,0,1-.42.72,1.46,1.46,0,0,1-1.3.47,2.89,2.89,0,0,1-2-1.65,1.89,1.89,0,0,1-.16-1,1.38,1.38,0,0,1,.42-.87.26.26,0,0,1,.16-.09.24.24,0,0,1,.16.1l.55.54a.47.47,0,0,1,.12.19.21.21,0,0,1-.08.18.58.58,0,0,0-.12.34.67.67,0,0,0,.09.37,1.57,1.57,0,0,0,.28.37,1.11,1.11,0,0,0,.49.32.45.45,0,0,0,.45-.15.35.35,0,0,0,.08-.38,2.8,2.8,0,0,0-.32-.61c-.14-.24-.23-.39-.27-.47a4.4,4.4,0,0,1-.35-.81,1.42,1.42,0,0,1,0-.71,1.53,1.53,0,0,1,1.19-1.12,1.73,1.73,0,0,1,.89.13,3,3,0,0,1,.83.53,3.28,3.28,0,0,1,.6.85,1.79,1.79,0,0,1,.2.92A1.2,1.2,0,0,1,214.23,341.27ZM210,336.92a1,1,0,0,0-.33-.63l-.54-.54L208,336.81l.54.54a.92.92,0,0,0,.63.32.68.68,0,0,0,.53-.21A.7.7,0,0,0,210,336.92Z" transform="translate(-146.91 -101.54)"/><path class="cls-2" d="M234.12,333.72l.85.85.83-1.67Zm0,0,.85.85.83-1.67Zm11.55,4-14.46-14.46a4.86,4.86,0,0,0-6.86,0l-.1.1a4.86,4.86,0,0,0,0,6.86l14.46,14.46a4.86,4.86,0,0,0,6.86,0l.1-.1A4.86,4.86,0,0,0,245.67,337.69Zm-18.41-8.45a2.58,2.58,0,0,1-1.4-.79,2.89,2.89,0,0,1-.58-.86,2,2,0,0,1-.16-1,1.38,1.38,0,0,1,.42-.87c.07-.06.12-.1.16-.09a.22.22,0,0,1,.16.1l.55.54a.53.53,0,0,1,.13.19s0,.1-.08.18a.66.66,0,0,0-.13.33.69.69,0,0,0,.09.38,1.57,1.57,0,0,0,.28.37,1.23,1.23,0,0,0,.49.32.47.47,0,0,0,.45-.15.36.36,0,0,0,.09-.38,3.34,3.34,0,0,0-.32-.61c-.15-.24-.24-.39-.28-.47a4.29,4.29,0,0,1-.34-.81,1.58,1.58,0,0,1,0-.72,1.53,1.53,0,0,1,1.2-1.11,1.7,1.7,0,0,1,.88.13,2.85,2.85,0,0,1,.83.53,3.06,3.06,0,0,1,.6.85,1.8,1.8,0,0,1,.21.92,1.23,1.23,0,0,1-.38.81c-.07.07-.12.1-.16.1s-.09,0-.16-.1l-.56-.56a.17.17,0,0,1-.06-.12.35.35,0,0,1,0-.11l0-.07a.65.65,0,0,0,0-.29.75.75,0,0,0-.09-.33,2.26,2.26,0,0,0-.23-.31,1.14,1.14,0,0,0-.42-.26.38.38,0,0,0-.41.09.47.47,0,0,0-.05.52,5.7,5.7,0,0,0,.39.81,1.5,1.5,0,0,1,.16.29,6.4,6.4,0,0,1,.32.69,1.44,1.44,0,0,1,0,.66,1.41,1.41,0,0,1-.41.72A1.46,1.46,0,0,1,227.26,329.24Zm3,3.33a2.53,2.53,0,0,1-.84-.56,2.65,2.65,0,0,1-.57-.85,1.92,1.92,0,0,1-.15-1,1.56,1.56,0,0,1,.48-.94l1.34-1.34a1.57,1.57,0,0,1,.93-.47,2.06,2.06,0,0,1,1,.14,2.76,2.76,0,0,1,.85.57,2.62,2.62,0,0,1,.56.81,1.81,1.81,0,0,1,.17.9,1.43,1.43,0,0,1-.33.84c-.07.06-.13.1-.17.09a.24.24,0,0,1-.17-.1l-.55-.55a.16.16,0,0,1-.05-.11.25.25,0,0,1,0-.12.76.76,0,0,0,0-.11.77.77,0,0,0,0-.43,1.2,1.2,0,0,0-.29-.43,1,1,0,0,0-.61-.3.72.72,0,0,0-.59.24L230.16,330a.75.75,0,0,0-.25.59,1,1,0,0,0,.31.6,1.09,1.09,0,0,0,.5.31.56.56,0,0,0,.48-.1.58.58,0,0,1,.2-.11s.1,0,.15.06l.56.56a.19.19,0,0,1,.08.17.32.32,0,0,1-.1.19,1.38,1.38,0,0,1-.84.4A2,2,0,0,1,230.27,332.57Zm4.73,4.67c-.06.06-.13.05-.2,0l-.6-.59a.28.28,0,0,1-.1-.17.36.36,0,0,1,.06-.22l.29-.6-1.39-1.39-.61.29a.34.34,0,0,1-.21.06.28.28,0,0,1-.17-.1l-.59-.6c-.08-.07-.09-.14,0-.2a.26.26,0,0,1,.09-.05l4.64-2.13a.4.4,0,0,1,.22-.05.32.32,0,0,1,.19.1l.54.55a.26.26,0,0,1,.1.18.47.47,0,0,1,0,.22l-2.14,4.64A.41.41,0,0,1,235,337.24Zm3.24,3.09a.24.24,0,0,1-.16.09.26.26,0,0,1-.17-.09L235.56,338a.26.26,0,0,1-.09-.17.22.22,0,0,1,.09-.16l3.39-3.4a.21.21,0,0,1,.17-.08.24.24,0,0,1,.16.08l.56.57a.21.21,0,0,1,.09.16.24.24,0,0,1-.09.16l-2.76,2.77,1.63,1.63a.22.22,0,0,1,.08.16.27.27,0,0,1-.08.17Zm6.77,0-.47.47a.22.22,0,0,1-.16.09.24.24,0,0,1-.16-.09l-1.71-1.71-.62.62,1.52,1.52a.22.22,0,0,1,.08.16.24.24,0,0,1-.08.16L243,342a.24.24,0,0,1-.16.08c-.05,0-.1,0-.16-.08l-1.52-1.52-.75.75,1.81,1.8a.26.26,0,0,1,.09.17.38.38,0,0,1-.09.16l-.47.46a.22.22,0,0,1-.16.09.24.24,0,0,1-.16-.09l-2.54-2.53a.26.26,0,0,1-.09-.17.38.38,0,0,1,.09-.16l3.4-3.39a.22.22,0,0,1,.16-.09.24.24,0,0,1,.16.09L245,340a.28.28,0,0,1,.09.17A.22.22,0,0,1,245,340.31Zm-10-5.74.83-1.67-1.68.82Zm-.85-.85.85.85.83-1.67Zm0,0,.85.85.83-1.67Z" transform="translate(-146.91 -101.54)"/><path class="cls-2" d="M356.78,337.29l.85.85.82-1.68Zm0,0,.85.85.82-1.68Zm8,.4-14.46-14.46a4.85,4.85,0,0,0-6.85,0l-.1.1a4.84,4.84,0,0,0,0,6.86l14.45,14.46a4.86,4.86,0,0,0,6.86,0l.1-.1A4.86,4.86,0,0,0,364.75,337.69Zm-18.66-8.4a2.47,2.47,0,0,1-1.41-1.4,2,2,0,0,1-.15-1A1.56,1.56,0,0,1,345,326l1.33-1.34a1.56,1.56,0,0,1,.94-.48,1.92,1.92,0,0,1,1,.15,2.67,2.67,0,0,1,1.42,1.38,1.88,1.88,0,0,1,.17.9,1.47,1.47,0,0,1-.34.84c-.07.06-.12.1-.17.09a.31.31,0,0,1-.17-.11l-.54-.54a.15.15,0,0,1-.06-.11.27.27,0,0,1,0-.12,1,1,0,0,0,0-.11.78.78,0,0,0,0-.43,1.21,1.21,0,0,0-.3-.43.91.91,0,0,0-.6-.3.71.71,0,0,0-.59.24L346,326.76a.72.72,0,0,0-.24.58,1,1,0,0,0,.31.61,1.15,1.15,0,0,0,.49.31.59.59,0,0,0,.48-.1.69.69,0,0,1,.2-.11c.05,0,.1,0,.16.06l.56.55a.29.29,0,0,1,.08.18.32.32,0,0,1-.11.19,1.39,1.39,0,0,1-.84.4A2,2,0,0,1,346.09,329.29Zm4.26,4.06a.24.24,0,0,1-.16.09.26.26,0,0,1-.17-.09L347.67,331a.26.26,0,0,1-.09-.17.24.24,0,0,1,.09-.16l3.39-3.39a.26.26,0,0,1,.17-.09.22.22,0,0,1,.16.09l.56.56a.22.22,0,0,1,.09.16.24.24,0,0,1-.09.16l-2.76,2.77,1.63,1.63a.2.2,0,0,1,0,.33Zm3.31,3.56c-.05,0-.1,0-.16-.08L351,334.29a.24.24,0,0,1-.09-.17A.38.38,0,0,1,351,334l3.4-3.39a.22.22,0,0,1,.16-.09.28.28,0,0,1,.17.09l2.43,2.44a.24.24,0,0,1,.09.16.22.22,0,0,1-.09.16l-.47.47a.22.22,0,0,1-.16.09.24.24,0,0,1-.16-.09l-1.71-1.7-.62.61,1.52,1.52a.24.24,0,0,1,.08.17.27.27,0,0,1-.08.16l-.44.44a.4.4,0,0,1-.17.09.24.24,0,0,1-.16-.09l-1.52-1.52-.75.75,1.81,1.8a.26.26,0,0,1,.09.17.29.29,0,0,1-.09.16l-.47.47A.24.24,0,0,1,353.66,336.91Zm4,3.81a.14.14,0,0,1-.05.08c-.06.06-.12.06-.2,0l-.59-.59a.36.36,0,0,1-.11-.18.57.57,0,0,1,.06-.21l.29-.6-1.39-1.39-.6.29a.57.57,0,0,1-.21.06.36.36,0,0,1-.18-.11l-.59-.59c-.08-.08-.08-.14,0-.2a.16.16,0,0,1,.08-.06l4.65-2.13a.36.36,0,0,1,.22,0,.28.28,0,0,1,.18.1l.55.54a.32.32,0,0,1,.1.19.52.52,0,0,1-.05.22Zm6.27.64a1.94,1.94,0,0,1-.42.59,1.49,1.49,0,0,1-.63.39,1.84,1.84,0,0,1-.69.1,1.7,1.7,0,0,1-.59-.15l-.36,2a.21.21,0,0,1-.06.1.13.13,0,0,1-.1,0,.11.11,0,0,1-.1-.05l-.67-.66a.36.36,0,0,1-.12-.2.75.75,0,0,1,0-.26l.3-1.52a.44.44,0,0,1,.06-.16,1.23,1.23,0,0,1,.17-.19l.45-.45a.24.24,0,0,1,.16-.09.26.26,0,0,1,.17.09l.11.11a.76.76,0,0,0,.51.24.57.57,0,0,0,.49-.16.63.63,0,0,0,.2-.49.76.76,0,0,0-.24-.51l-.75-.75-2.76,2.76a.26.26,0,0,1-.17.09.38.38,0,0,1-.16-.09l-.56-.56a.27.27,0,0,1-.08-.16c0-.05,0-.1.08-.17l3.39-3.38a.24.24,0,0,1,.16-.09c.05,0,.1,0,.17.08l1.42,1.43a2.74,2.74,0,0,1,.6.77,1.57,1.57,0,0,1,.16.71A1.31,1.31,0,0,1,364,341.36Zm-6.34-3.22.82-1.68-1.67.83Z" transform="translate(-146.91 -101.54)"/><path class="cls-2" d="M275.43,337.69,261,323.23a4.85,4.85,0,0,0-6.85,0l-.1.1a4.86,4.86,0,0,0,0,6.86l14.46,14.46a4.85,4.85,0,0,0,6.85,0l.1-.1A4.86,4.86,0,0,0,275.43,337.69Zm-18.53-8.45a2.58,2.58,0,0,1-1.4-.79,2.72,2.72,0,0,1-.58-.86,2,2,0,0,1-.16-1,1.38,1.38,0,0,1,.42-.87c.07-.07.12-.1.16-.09a.24.24,0,0,1,.16.09l.55.55c.07.08.12.13.13.19s0,.1-.08.18a.58.58,0,0,0-.13.33.69.69,0,0,0,.09.38,1.8,1.8,0,0,0,.28.37,1.17,1.17,0,0,0,.49.32.47.47,0,0,0,.45-.15.34.34,0,0,0,.08-.38,3.16,3.16,0,0,0-.31-.61c-.15-.24-.24-.4-.28-.47a4.58,4.58,0,0,1-.34-.81,1.59,1.59,0,0,1,0-.72,1.53,1.53,0,0,1,1.2-1.11,1.71,1.71,0,0,1,.88.13,2.85,2.85,0,0,1,.83.53,3.12,3.12,0,0,1,.6.85,1.8,1.8,0,0,1,.21.92,1.23,1.23,0,0,1-.38.81c-.07.07-.12.1-.16.1a.29.29,0,0,1-.16-.1l-.56-.56a.17.17,0,0,1-.06-.12.2.2,0,0,1,0-.11l0-.07a.69.69,0,0,0-.05-.62,1.1,1.1,0,0,0-.64-.57.38.38,0,0,0-.41.09.45.45,0,0,0-.05.52,5.7,5.7,0,0,0,.39.81,2.4,2.4,0,0,1,.16.29,4.7,4.7,0,0,1,.31.69,1.32,1.32,0,0,1,.05.66,1.41,1.41,0,0,1-.41.72A1.5,1.5,0,0,1,256.9,329.24Zm4.33,4.7a.18.18,0,0,1-.13-.06l-.48-.48a.27.27,0,0,1-.08-.16.4.4,0,0,1,0-.15l1.24-2.37L259.44,332a.41.41,0,0,1-.16,0,.28.28,0,0,1-.15-.08l-.5-.5a.19.19,0,0,1-.06-.13.22.22,0,0,1,0-.14l2.39-4.49,0,0a.15.15,0,0,1,.23,0l.62.62c.07.08.11.15.1.21a.41.41,0,0,1-.06.2l-1.36,2.48,2.47-1.38a.38.38,0,0,1,.19-.06.23.23,0,0,1,.18.07l.4.4a.21.21,0,0,1,.07.17.6.6,0,0,1-.07.2L262.43,332l2.48-1.36a.3.3,0,0,1,.41,0l.6.6a.14.14,0,0,1,.05.11.22.22,0,0,1-.05.11l-.07,0-4.48,2.4A.35.35,0,0,1,261.23,333.94Zm4,2.84-.45.45a.24.24,0,0,1-.16.09.26.26,0,0,1-.17-.09l-1.6-1.6a.26.26,0,0,1-.09-.17.38.38,0,0,1,.09-.16l.45-.45a.27.27,0,0,1,.16-.08.21.21,0,0,1,.17.08l.35.36,2.16-2.16-.34-.35a.24.24,0,0,1-.09-.16.22.22,0,0,1,.09-.16l.46-.46a.22.22,0,0,1,.16-.09.26.26,0,0,1,.17.09l1.57,1.57a.26.26,0,0,1,.09.17.38.38,0,0,1-.09.16l-.46.46a.27.27,0,0,1-.16.08.21.21,0,0,1-.17-.08l-.34-.34-2.16,2.16.36.35a.21.21,0,0,1,.08.17A.24.24,0,0,1,265.23,336.78Zm3.14,4.29a.26.26,0,0,1-.17-.09l-.51-.51a.28.28,0,0,1-.1-.18,1.16,1.16,0,0,1,0-.27l.74-3.14-2,2a.26.26,0,0,1-.17.09.38.38,0,0,1-.16-.09l-.56-.56a.2.2,0,0,1,0-.33l3.39-3.39a.26.26,0,0,1,.17-.09.21.21,0,0,1,.16.09l.54.53a.26.26,0,0,1,.09.18,1,1,0,0,1,0,.26l-.74,3.14,2-2a.24.24,0,0,1,.17-.08.24.24,0,0,1,.16.08l.55.55a.24.24,0,0,1,.08.16.21.21,0,0,1-.08.17l-3.4,3.39A.24.24,0,0,1,268.37,341.07Zm6.41,1.2c-.07.07-.12.1-.16.1a.31.31,0,0,1-.17-.11l-.54-.54c-.06-.06-.09-.11-.08-.15a.16.16,0,0,1,.05-.11l.05-.1a.65.65,0,0,0,0-.46,1.22,1.22,0,0,0-.34-.53.83.83,0,0,0-.61-.28.86.86,0,0,0-.62.27l-1.14,1.13a.76.76,0,0,0-.24.59.94.94,0,0,0,.29.61,1,1,0,0,0,.61.31.8.8,0,0,0,.63-.29l-.51-.51a.2.2,0,0,1,0-.33l.44-.44a.27.27,0,0,1,.16-.08.21.21,0,0,1,.17.08l1.24,1.24a.21.21,0,0,1,.08.17.27.27,0,0,1-.08.16l-.82.82a1.49,1.49,0,0,1-.91.39,2,2,0,0,1-1-.18,2.81,2.81,0,0,1-.82-.55,2.91,2.91,0,0,1-.58-.85,1.88,1.88,0,0,1-.18-1,1.48,1.48,0,0,1,.46-.92l1.4-1.4a1.57,1.57,0,0,1,.93-.47,1.94,1.94,0,0,1,1,.15,2.68,2.68,0,0,1,1.43,1.43,2.13,2.13,0,0,1,.18,1A1.35,1.35,0,0,1,274.78,342.27Z" transform="translate(-146.91 -101.54)"/><path class="cls-2" d="M292.4,332.41l.74.74.72-1.46Zm0,0,.74.74.72-1.46Zm0,0,.74.74.72-1.46Zm11.29,8.64-.47-.48-.93.93.48.48a.84.84,0,0,0,.54.28.64.64,0,0,0,.47-.19.61.61,0,0,0,.2-.48A.86.86,0,0,0,303.69,341.05Zm0,0-.47-.48-.93.93.48.48a.84.84,0,0,0,.54.28.64.64,0,0,0,.47-.19.61.61,0,0,0,.2-.48A.86.86,0,0,0,303.69,341.05Zm-11.29-8.64.74.74.72-1.46Zm0,0,.74.74.72-1.46Zm11.29,8.64-.47-.48-.93.93.48.48a.84.84,0,0,0,.54.28.64.64,0,0,0,.47-.19.61.61,0,0,0,.2-.48A.86.86,0,0,0,303.69,341.05Zm3.17,3a.85.85,0,0,0-.53-.27.66.66,0,0,0-.52.22l-1,1a.64.64,0,0,0-.21.52.83.83,0,0,0,.26.53.9.9,0,0,0,.53.27.67.67,0,0,0,.53-.22l1-1a.64.64,0,0,0,.22-.52A.83.83,0,0,0,306.86,344.05Zm0,0a.85.85,0,0,0-.53-.27.66.66,0,0,0-.52.22l-1,1a.64.64,0,0,0-.21.52.83.83,0,0,0,.26.53.9.9,0,0,0,.53.27.67.67,0,0,0,.53-.22l1-1a.64.64,0,0,0,.22-.52A.83.83,0,0,0,306.86,344.05Zm-3.17-3-.47-.48-.93.93.48.48a.84.84,0,0,0,.54.28.64.64,0,0,0,.47-.19.61.61,0,0,0,.2-.48A.86.86,0,0,0,303.69,341.05Zm-11.29-8.64.74.74.72-1.46Zm23.19,15.67-24.82-24.82a4.92,4.92,0,1,0-6.95,7L308.64,355a4.91,4.91,0,0,0,6.95-6.95Zm-30-20.09a.29.29,0,0,1-.14-.08l-.49-.49a.21.21,0,0,1-.07-.14.18.18,0,0,1,.07-.15l2.42-2.41-.76-.77a.19.19,0,0,1-.08-.14.21.21,0,0,1,.08-.14l.41-.41a.21.21,0,0,1,.14-.08.19.19,0,0,1,.14.08l2.3,2.29a.28.28,0,0,1,.08.15.23.23,0,0,1-.08.14l-.41.41a.23.23,0,0,1-.14.08c-.05,0-.09,0-.15-.08l-.75-.76-2.42,2.42A.22.22,0,0,1,285.57,328Zm4.18,4.06a.18.18,0,0,1-.09,0,.14.14,0,0,1-.09,0l-.59-.58a.41.41,0,0,1-.1-.18.53.53,0,0,1,0-.22l.27-1.33a.24.24,0,0,1,.05-.14,1.33,1.33,0,0,1,.14-.17l.4-.39a.23.23,0,0,1,.14-.08.28.28,0,0,1,.15.08l.1.1a.73.73,0,0,0,.44.21.52.52,0,0,0,.43-.14.57.57,0,0,0,.17-.44.68.68,0,0,0-.21-.44l-.66-.66-2.41,2.42a.18.18,0,0,1-.15.07.21.21,0,0,1-.14-.07l-.49-.49a.21.21,0,0,1-.07-.14.19.19,0,0,1,.08-.14l3-3a.23.23,0,0,1,.14-.08.21.21,0,0,1,.14.07l1.25,1.25a2.94,2.94,0,0,1,.53.68,1.44,1.44,0,0,1,.14.62,1.2,1.2,0,0,1-.13.55,1.62,1.62,0,0,1-.36.52,1.5,1.5,0,0,1-1.16.42,1.13,1.13,0,0,1-.51-.13L289.8,332A.41.41,0,0,1,289.75,332.05Zm3.41,3.43c-.05,0-.11,0-.17,0l-.52-.52a.26.26,0,0,1-.1-.15.46.46,0,0,1,.06-.18l.25-.53-1.21-1.22-.53.26a.41.41,0,0,1-.19.05.42.42,0,0,1-.15-.09l-.52-.52c-.07-.07-.07-.13,0-.18l.07-.05,4.07-1.86a.36.36,0,0,1,.19,0,.29.29,0,0,1,.17.09l.47.47a.38.38,0,0,1,.09.16.54.54,0,0,1,0,.2l-1.87,4.06A.18.18,0,0,1,293.16,335.48Zm3,3.08a.18.18,0,0,1-.15-.07l-.45-.45a.24.24,0,0,1-.09-.16.84.84,0,0,1,0-.23l.64-2.75-1.72,1.72a.22.22,0,0,1-.15.08.23.23,0,0,1-.14-.08l-.49-.49a.21.21,0,0,1-.07-.14.23.23,0,0,1,.07-.15l3-3a.21.21,0,0,1,.15-.07.21.21,0,0,1,.14.07l.47.47a.28.28,0,0,1,.08.15,1.52,1.52,0,0,1,0,.24l-.64,2.74,1.71-1.72a.25.25,0,0,1,.15-.07.19.19,0,0,1,.14.07l.48.48a.21.21,0,0,1,.07.14s0,.09-.07.15l-3,3A.21.21,0,0,1,296.16,338.56Zm3,2.67a2.31,2.31,0,0,1-1.22-.69,2.76,2.76,0,0,1-.51-.75,1.77,1.77,0,0,1-.14-.87,1.2,1.2,0,0,1,.37-.76c.06-.06.1-.09.14-.09a.21.21,0,0,1,.14.09l.48.48a.35.35,0,0,1,.11.16s0,.09-.07.16a.51.51,0,0,0-.11.29.6.6,0,0,0,.08.33,1.41,1.41,0,0,0,.24.32,1.2,1.2,0,0,0,.43.29.41.41,0,0,0,.4-.14.31.31,0,0,0,.07-.33,2.81,2.81,0,0,0-.28-.54l-.24-.41a3.86,3.86,0,0,1-.3-.7,1.35,1.35,0,0,1,0-.63,1.24,1.24,0,0,1,.35-.61,1.16,1.16,0,0,1,.69-.36,1.42,1.42,0,0,1,.78.11,2.35,2.35,0,0,1,.72.47,2.67,2.67,0,0,1,.53.73,1.7,1.7,0,0,1,.18.81,1,1,0,0,1-.33.71.26.26,0,0,1-.14.09s-.08,0-.14-.09l-.49-.49a.12.12,0,0,1,0-.1.3.3,0,0,1,0-.1l0-.06a.67.67,0,0,0,.05-.26.83.83,0,0,0-.09-.28,1.35,1.35,0,0,0-.2-.27,1,1,0,0,0-.37-.23.32.32,0,0,0-.35.08c-.11.1-.12.25-.05.45a5.44,5.44,0,0,0,.34.71,1,1,0,0,1,.14.26,3.81,3.81,0,0,1,.28.6,1.19,1.19,0,0,1,0,.57,1.17,1.17,0,0,1-.36.63A1.29,1.29,0,0,1,299.13,341.23Zm3,1.41-.48-.47-.82.82a.23.23,0,0,1-.14.08.19.19,0,0,1-.14-.08l-.49-.49a.23.23,0,0,1-.08-.14.22.22,0,0,1,.08-.15l3-3a.21.21,0,0,1,.15-.07.21.21,0,0,1,.14.07l1.12,1.12a1.9,1.9,0,0,1,.64,1.27,1.71,1.71,0,0,1-1.67,1.67A2,2,0,0,1,302.1,342.64Zm2.79,4.63a2.29,2.29,0,0,1-.75-.5,2.46,2.46,0,0,1-.5-.75,1.62,1.62,0,0,1-.12-.87,1.28,1.28,0,0,1,.42-.82l1.17-1.17a1.28,1.28,0,0,1,.82-.42,1.67,1.67,0,0,1,.88.12,2.36,2.36,0,0,1,.74.5,2.29,2.29,0,0,1,.5.75,1.79,1.79,0,0,1,.13.88,1.36,1.36,0,0,1-.42.82L306.59,347a1.39,1.39,0,0,1-.82.42A1.79,1.79,0,0,1,304.89,347.27Zm3.54,3.25a2.54,2.54,0,0,1-1.73-1.44,1.72,1.72,0,0,1-.14-.86,1.21,1.21,0,0,1,.36-.77.22.22,0,0,1,.15-.08.26.26,0,0,1,.14.09l.48.47a.5.5,0,0,1,.11.16c0,.05,0,.1-.07.16a.5.5,0,0,0-.11.3.55.55,0,0,0,.07.32,1.59,1.59,0,0,0,.25.33,1,1,0,0,0,.43.28.38.38,0,0,0,.39-.13.33.33,0,0,0,.08-.34,4.12,4.12,0,0,0-.28-.53,3.41,3.41,0,0,1-.24-.41,3.64,3.64,0,0,1-.3-.71,1.19,1.19,0,0,1,0-.62,1.34,1.34,0,0,1,1-1,1.59,1.59,0,0,1,.77.11,2.75,2.75,0,0,1,.73.47,2.72,2.72,0,0,1,.53.74,1.7,1.7,0,0,1,.18.81,1.11,1.11,0,0,1-.34.71c-.06.06-.1.09-.14.08a.26.26,0,0,1-.14-.09l-.48-.48s-.06-.07-.05-.11a.18.18,0,0,1,0-.1l0-.06a.62.62,0,0,0,0-.25.71.71,0,0,0-.08-.29,1.39,1.39,0,0,0-.21-.27.84.84,0,0,0-.36-.22.32.32,0,0,0-.36.08.39.39,0,0,0-.05.44,4.17,4.17,0,0,0,.35.71,1.8,1.8,0,0,1,.14.26,3.37,3.37,0,0,1,.27.61,1.08,1.08,0,0,1,0,.57,1.14,1.14,0,0,1-.36.63A1.25,1.25,0,0,1,308.43,350.52Zm6.28.44-.41.41a.23.23,0,0,1-.14.08c-.05,0-.09,0-.15-.08l-1.49-1.49-.54.53,1.32,1.33a.19.19,0,0,1,.08.15.23.23,0,0,1-.08.14l-.38.38a.23.23,0,0,1-.14.08.19.19,0,0,1-.15-.08l-1.33-1.32-.65.65,1.58,1.58a.22.22,0,0,1,.08.15.23.23,0,0,1-.08.14l-.41.4a.21.21,0,0,1-.14.08.19.19,0,0,1-.14-.08l-2.22-2.21a.28.28,0,0,1-.08-.15.29.29,0,0,1,.08-.14l3-3a.23.23,0,0,1,.14-.08.22.22,0,0,1,.15.08l2.13,2.13c.05.06.08.1.08.15A.23.23,0,0,1,314.71,351Zm-7.58-6.38a.83.83,0,0,0-.27-.53.85.85,0,0,0-.53-.27.66.66,0,0,0-.52.22l-1,1a.64.64,0,0,0-.21.52.83.83,0,0,0,.26.53.9.9,0,0,0,.53.27.67.67,0,0,0,.53-.22l1-1A.64.64,0,0,0,307.13,344.58Zm-3.91-4-.93.93.48.48a.84.84,0,0,0,.54.28.64.64,0,0,0,.47-.19.61.61,0,0,0,.2-.48.86.86,0,0,0-.29-.54Zm-10.08-7.42.72-1.46-1.46.72Zm-.74-.74.74.74.72-1.46Zm11.29,8.64-.47-.48-.93.93.48.48a.84.84,0,0,0,.54.28.64.64,0,0,0,.47-.19.61.61,0,0,0,.2-.48A.86.86,0,0,0,303.69,341.05Zm3.17,3a.85.85,0,0,0-.53-.27.66.66,0,0,0-.52.22l-1,1a.64.64,0,0,0-.21.52.83.83,0,0,0,.26.53.9.9,0,0,0,.53.27.67.67,0,0,0,.53-.22l1-1a.64.64,0,0,0,.22-.52A.83.83,0,0,0,306.86,344.05Zm0,0a.85.85,0,0,0-.53-.27.66.66,0,0,0-.52.22l-1,1a.64.64,0,0,0-.21.52.83.83,0,0,0,.26.53.9.9,0,0,0,.53.27.67.67,0,0,0,.53-.22l1-1a.64.64,0,0,0,.22-.52A.83.83,0,0,0,306.86,344.05Zm-3.17-3-.47-.48-.93.93.48.48a.84.84,0,0,0,.54.28.64.64,0,0,0,.47-.19.61.61,0,0,0,.2-.48A.86.86,0,0,0,303.69,341.05Zm-11.29-8.64.74.74.72-1.46Zm0,0,.74.74.72-1.46Zm0,0,.74.74.72-1.46Zm0,0,.74.74.72-1.46Zm0,0,.74.74.72-1.46Z" transform="translate(-146.91 -101.54)"/><path class="cls-2" d="M319.82,330l.74.74.73-1.46Zm0,0,.74.74.73-1.46Zm0,0,.74.74.73-1.46Zm0,0,.74.74.73-1.46Zm0,0,.74.74.73-1.46Zm10.29,7.62-.76-.75-1.86,1.86.83.83c.26.25.49.28.71.06a.34.34,0,0,0,.12-.34.8.8,0,0,0-.23-.37l-.12-.12a.21.21,0,0,1-.07-.14.19.19,0,0,1,.07-.14l.38-.38a.29.29,0,0,1,.14-.08.22.22,0,0,1,.15.08l.06.07c.28.27.51.31.71.11a.34.34,0,0,0,.12-.32A1,1,0,0,0,330.11,337.6Zm0,0-.76-.75-1.86,1.86.83.83c.26.25.49.28.71.06a.34.34,0,0,0,.12-.34.8.8,0,0,0-.23-.37l-.12-.12a.21.21,0,0,1-.07-.14.19.19,0,0,1,.07-.14l.38-.38a.29.29,0,0,1,.14-.08.22.22,0,0,1,.15.08l.06.07c.28.27.51.31.71.11a.34.34,0,0,0,.12-.32A1,1,0,0,0,330.11,337.6ZM319.82,330l.74.74.73-1.46Zm0,0,.74.74.73-1.46Zm10.29,7.62-.76-.75-1.86,1.86.83.83c.26.25.49.28.71.06a.34.34,0,0,0,.12-.34.8.8,0,0,0-.23-.37l-.12-.12a.21.21,0,0,1-.07-.14.19.19,0,0,1,.07-.14l.38-.38a.29.29,0,0,1,.14-.08.22.22,0,0,1,.15.08l.06.07c.28.27.51.31.71.11a.34.34,0,0,0,.12-.32A1,1,0,0,0,330.11,337.6Zm4.73,7.4.74.74.72-1.47Zm0,0,.74.74.72-1.47Zm-4.73-7.4-.76-.75-1.86,1.86.83.83c.26.25.49.28.71.06a.34.34,0,0,0,.12-.34.8.8,0,0,0-.23-.37l-.12-.12a.21.21,0,0,1-.07-.14.19.19,0,0,1,.07-.14l.38-.38a.29.29,0,0,1,.14-.08.22.22,0,0,1,.15.08l.06.07c.28.27.51.31.71.11a.34.34,0,0,0,.12-.32A1,1,0,0,0,330.11,337.6ZM319.82,330l.74.74.73-1.46Zm25.55,18.09-24.82-24.81a4.92,4.92,0,0,0-7,6.95L338.41,355a4.92,4.92,0,0,0,7-7ZM316.45,329a2.33,2.33,0,0,1-.74-.49,2.54,2.54,0,0,1-.5-.74,1.67,1.67,0,0,1-.12-.88,1.31,1.31,0,0,1,.42-.82l1.16-1.17a1.44,1.44,0,0,1,.82-.42,1.77,1.77,0,0,1,.88.13,2.29,2.29,0,0,1,.75.5,2.53,2.53,0,0,1,.49.7,1.59,1.59,0,0,1,.15.79,1.23,1.23,0,0,1-.29.74c-.07.05-.11.08-.15.08a.25.25,0,0,1-.15-.09l-.48-.48a.14.14,0,0,1-.05-.1.26.26,0,0,1,0-.11l0-.09a.69.69,0,0,0,0-.38,1,1,0,0,0-.25-.37.93.93,0,0,0-.53-.27.66.66,0,0,0-.52.22l-1,1a.65.65,0,0,0-.21.51.78.78,0,0,0,.27.53,1,1,0,0,0,.43.27.46.46,0,0,0,.42-.09.85.85,0,0,1,.18-.1s.08,0,.13.06l.49.48c.05.06.08.11.07.16a.24.24,0,0,1-.09.16,1.24,1.24,0,0,1-.73.36A1.84,1.84,0,0,1,316.45,329Zm4.14,4.08c0,.06-.11.05-.18,0l-.52-.52a.2.2,0,0,1-.09-.15.3.3,0,0,1,.05-.18l.25-.53-1.21-1.22-.53.26a.41.41,0,0,1-.18.05.38.38,0,0,1-.16-.09l-.52-.52c-.06-.07-.07-.13,0-.18a.12.12,0,0,1,.08,0l4.06-1.87a.4.4,0,0,1,.2,0,.26.26,0,0,1,.16.09l.47.47a.24.24,0,0,1,.09.16.4.4,0,0,1,0,.2L320.63,333A.16.16,0,0,1,320.59,333.05Zm2.69,2.79a.23.23,0,0,1-.14-.08l-2.06-2.06a.22.22,0,0,1-.08-.15.23.23,0,0,1,.08-.14l3-3a.21.21,0,0,1,.14-.07.21.21,0,0,1,.15.07l.49.49a.21.21,0,0,1,.07.15.21.21,0,0,1-.07.14l-2.43,2.42,1.43,1.43a.23.23,0,0,1,.08.14.25.25,0,0,1-.08.14l-.41.41A.23.23,0,0,1,323.28,335.84Zm2.63,1.62-.39.39a.23.23,0,0,1-.14.08.19.19,0,0,1-.15-.08l-1.4-1.4a.23.23,0,0,1-.08-.14.25.25,0,0,1,.08-.14l.39-.39a.23.23,0,0,1,.14-.08.19.19,0,0,1,.15.08l.31.31,1.89-1.89-.3-.31a.23.23,0,0,1-.08-.14.21.21,0,0,1,.08-.14l.4-.4a.23.23,0,0,1,.14-.08.19.19,0,0,1,.15.08l1.37,1.37a.19.19,0,0,1,.08.15.23.23,0,0,1-.08.14l-.4.4a.21.21,0,0,1-.14.08.23.23,0,0,1-.14-.08l-.3-.3-1.89,1.89.31.32a.23.23,0,0,1,.08.14A.25.25,0,0,1,325.91,337.46Zm2.8,3.39a2,2,0,0,1-1.1-.62l-1.45-1.45a.19.19,0,0,1-.08-.15.23.23,0,0,1,.08-.14l3-3a.23.23,0,0,1,.14-.08.19.19,0,0,1,.15.08l1.38,1.38a2.18,2.18,0,0,1,.53.77,1.18,1.18,0,0,1,.05.71,1.16,1.16,0,0,1-.32.57,1.06,1.06,0,0,1-.6.35,1,1,0,0,1-.44,0,.84.84,0,0,1,.07.26,1.18,1.18,0,0,1,0,.44,1.15,1.15,0,0,1-.31.49A1.18,1.18,0,0,1,328.71,340.85Zm3.48,3.79s-.06,0-.09,0a.12.12,0,0,1-.09,0l-.59-.58a.41.41,0,0,1-.1-.18.8.8,0,0,1,0-.22l.27-1.33a.24.24,0,0,1,.05-.14,1.33,1.33,0,0,1,.14-.17l.4-.4a.26.26,0,0,1,.14-.07.19.19,0,0,1,.15.08l.1.09a.69.69,0,0,0,.44.22.51.51,0,0,0,.43-.15.55.55,0,0,0,.17-.43.59.59,0,0,0-.21-.44l-.65-.66-2.42,2.42a.21.21,0,0,1-.15.07.26.26,0,0,1-.14-.07l-.49-.49a.26.26,0,0,1-.07-.14.2.2,0,0,1,.08-.15l3-3a.23.23,0,0,1,.14-.08.21.21,0,0,1,.14.07l1.25,1.25a2.75,2.75,0,0,1,.53.68,1.44,1.44,0,0,1,.14.62,1.37,1.37,0,0,1-.12.55,1.84,1.84,0,0,1-.37.52,1.5,1.5,0,0,1-1.16.42,1.13,1.13,0,0,1-.51-.13l-.32,1.72A.41.41,0,0,1,332.19,344.64Zm3.42,3.43a.12.12,0,0,1-.18,0l-.52-.52a.25.25,0,0,1-.09-.15.33.33,0,0,1,.05-.19l.25-.53-1.21-1.21-.53.25a.45.45,0,0,1-.19.06.35.35,0,0,1-.15-.1l-.52-.52c-.06-.06-.07-.12,0-.17l.08-.05,4.06-1.87a.34.34,0,0,1,.19,0,.24.24,0,0,1,.17.09l.47.47a.33.33,0,0,1,.09.16.54.54,0,0,1,0,.2L335.65,348A.16.16,0,0,1,335.61,348.07Zm1.71,1.58a.19.19,0,0,1-.15.08.23.23,0,0,1-.14-.08l-.49-.49a.19.19,0,0,1-.07-.14s0-.09.07-.14l2.42-2.42-.77-.76a.21.21,0,0,1-.07-.15.21.21,0,0,1,.07-.14l.42-.41a.16.16,0,0,1,.28,0l2.3,2.3a.23.23,0,0,1,.08.14.32.32,0,0,1-.08.15l-.41.41a.21.21,0,0,1-.14.07.21.21,0,0,1-.15-.07l-.76-.76Zm6.78.85-.41.41a.21.21,0,0,1-.14.08.23.23,0,0,1-.14-.08l-1.5-1.49-.54.53,1.33,1.33a.22.22,0,0,1,.08.15.29.29,0,0,1-.08.14l-.39.38a.23.23,0,0,1-.14.08A.19.19,0,0,1,342,352l-1.33-1.32-.65.65,1.58,1.58a.21.21,0,0,1,.07.15.23.23,0,0,1-.08.14l-.4.4a.23.23,0,0,1-.14.08.19.19,0,0,1-.15-.08l-2.22-2.21c0-.06-.08-.1-.07-.15a.21.21,0,0,1,.07-.14l3-3a.23.23,0,0,1,.14-.08.22.22,0,0,1,.15.08l2.13,2.13a.2.2,0,0,1,.08.15A.23.23,0,0,1,344.1,350.5Zm-8.52-4.76.72-1.47-1.46.73Zm-5.34-7.45a.34.34,0,0,0,.12-.32,1,1,0,0,0-.25-.37l-.76-.75-1.86,1.86.83.83c.26.25.49.28.71.06a.34.34,0,0,0,.12-.34.8.8,0,0,0-.23-.37l-.12-.12a.21.21,0,0,1-.07-.14.19.19,0,0,1,.07-.14l.38-.38a.29.29,0,0,1,.14-.08.22.22,0,0,1,.15.08l.06.07C329.81,338.45,330,338.49,330.24,338.29Zm-9.68-7.57.73-1.46-1.47.72Zm-.74-.74.74.74.73-1.46Zm10.29,7.62-.76-.75-1.86,1.86.83.83c.26.25.49.28.71.06a.34.34,0,0,0,.12-.34.8.8,0,0,0-.23-.37l-.12-.12a.21.21,0,0,1-.07-.14.19.19,0,0,1,.07-.14l.38-.38a.29.29,0,0,1,.14-.08.22.22,0,0,1,.15.08l.06.07c.28.27.51.31.71.11a.34.34,0,0,0,.12-.32A1,1,0,0,0,330.11,337.6Zm4.73,7.4.74.74.72-1.47Zm0,0,.74.74.72-1.47Zm-4.73-7.4-.76-.75-1.86,1.86.83.83c.26.25.49.28.71.06a.34.34,0,0,0,.12-.34.8.8,0,0,0-.23-.37l-.12-.12a.21.21,0,0,1-.07-.14.19.19,0,0,1,.07-.14l.38-.38a.29.29,0,0,1,.14-.08.22.22,0,0,1,.15.08l.06.07c.28.27.51.31.71.11a.34.34,0,0,0,.12-.32A1,1,0,0,0,330.11,337.6ZM319.82,330l.74.74.73-1.46Zm0,0,.74.74.73-1.46Zm10.29,7.62-.76-.75-1.86,1.86.83.83c.26.25.49.28.71.06a.34.34,0,0,0,.12-.34.8.8,0,0,0-.23-.37l-.12-.12a.21.21,0,0,1-.07-.14.19.19,0,0,1,.07-.14l.38-.38a.29.29,0,0,1,.14-.08.22.22,0,0,1,.15.08l.06.07c.28.27.51.31.71.11a.34.34,0,0,0,.12-.32A1,1,0,0,0,330.11,337.6Zm0,0-.76-.75-1.86,1.86.83.83c.26.25.49.28.71.06a.34.34,0,0,0,.12-.34.8.8,0,0,0-.23-.37l-.12-.12a.21.21,0,0,1-.07-.14.19.19,0,0,1,.07-.14l.38-.38a.29.29,0,0,1,.14-.08.22.22,0,0,1,.15.08l.06.07c.28.27.51.31.71.11a.34.34,0,0,0,.12-.32A1,1,0,0,0,330.11,337.6ZM319.82,330l.74.74.73-1.46Zm0,0,.74.74.73-1.46Zm0,0,.74.74.73-1.46Z" transform="translate(-146.91 -101.54)"/><path class="cls-2" d="M181,337.26l-.54-.54-1.06,1,.54.55a1,1,0,0,0,.62.32.66.66,0,0,0,.54-.22.7.7,0,0,0,.23-.54A1,1,0,0,0,181,337.26Zm0,0-.54-.54-1.06,1,.54.55a1,1,0,0,0,.62.32.66.66,0,0,0,.54-.22.7.7,0,0,0,.23-.54A1,1,0,0,0,181,337.26Zm6.2,1.2L172,323.2a4.73,4.73,0,0,0-6.68,0l-.6.6a4.73,4.73,0,0,0,0,6.68l15.26,15.26a4.73,4.73,0,0,0,6.68,0l.6-.6A4.73,4.73,0,0,0,187.21,338.46Zm-20-9.26a.33.33,0,0,1-.16-.09l-.56-.56a.24.24,0,0,1-.09-.16.26.26,0,0,1,.09-.17l2.76-2.76-.87-.87a.26.26,0,0,1-.09-.17.24.24,0,0,1,.09-.16l.47-.47a.22.22,0,0,1,.16-.09.28.28,0,0,1,.17.09l2.62,2.62a.26.26,0,0,1,.09.17.22.22,0,0,1-.09.16l-.47.47a.24.24,0,0,1-.16.09.26.26,0,0,1-.17-.09l-.86-.86-2.76,2.76A.26.26,0,0,1,167.17,329.2Zm5.09,3.9-.47.46a.22.22,0,0,1-.16.09.24.24,0,0,1-.16-.09L168.93,331a.26.26,0,0,1-.09-.17.29.29,0,0,1,.09-.16l3.4-3.39a.22.22,0,0,1,.16-.09.24.24,0,0,1,.16.09l2.44,2.44a.24.24,0,0,1,.09.16.22.22,0,0,1-.09.16l-.47.47a.22.22,0,0,1-.16.09.26.26,0,0,1-.17-.09l-1.7-1.7-.62.61,1.52,1.52a.22.22,0,0,1,.08.17.27.27,0,0,1-.08.16l-.45.44a.33.33,0,0,1-.16.09.24.24,0,0,1-.16-.09l-1.52-1.52-.75.75,1.81,1.8a.21.21,0,0,1,.08.17A.27.27,0,0,1,172.26,333.1Zm3.55,4.74a.24.24,0,0,1-.16-.09l-.54-.54a.24.24,0,0,1-.09-.16.26.26,0,0,1,.09-.17L177,335l-1.56.43a.28.28,0,0,1-.28-.05l-.29-.28a.21.21,0,0,1-.05-.13.44.44,0,0,1,0-.15l.41-1.56-1.91,1.92a.26.26,0,0,1-.17.09.33.33,0,0,1-.16-.09l-.56-.56a.24.24,0,0,1-.09-.16.26.26,0,0,1,.09-.17l3.4-3.4a.22.22,0,0,1,.16-.09.26.26,0,0,1,.17.09l.56.56a.42.42,0,0,1,.11.19.41.41,0,0,1,0,.16.41.41,0,0,1,0,.1l-.61,2.17,2.17-.61.11,0a.29.29,0,0,1,.16,0,.33.33,0,0,1,.18.1l.54.54a.26.26,0,0,1,.09.17.24.24,0,0,1-.09.16l-3.4,3.4A.26.26,0,0,1,175.81,337.84Zm3.38,1.24-.55-.54-.93.94c-.07.06-.12.09-.17.08a.24.24,0,0,1-.16-.08l-.56-.56a.2.2,0,0,1,0-.33l3.39-3.4a.27.27,0,0,1,.16-.08.22.22,0,0,1,.17.09l1.27,1.27a2.17,2.17,0,0,1,.74,1.45,1.95,1.95,0,0,1-1.91,1.91A2.23,2.23,0,0,1,179.19,339.08Zm6.47,3.62L184.32,344a1.56,1.56,0,0,1-.93.48,2,2,0,0,1-1-.15,2.69,2.69,0,0,1-.86-.57,2.65,2.65,0,0,1-.57-.85,1.8,1.8,0,0,1-.14-1,1.58,1.58,0,0,1,.48-.94l1.34-1.33a1.56,1.56,0,0,1,.93-.48,1.85,1.85,0,0,1,1,.14,2.71,2.71,0,0,1,.84.57,2.62,2.62,0,0,1,.58.85,2,2,0,0,1,.15,1A1.56,1.56,0,0,1,185.66,342.7ZM184,340.38a.75.75,0,0,0-.59.25l-1.18,1.18a.73.73,0,0,0-.24.59.91.91,0,0,0,.3.61,1,1,0,0,0,.61.3.7.7,0,0,0,.59-.24l1.18-1.18a.71.71,0,0,0,.24-.59.89.89,0,0,0-.3-.61A1,1,0,0,0,184,340.38Zm-3.55-3.66-1.06,1,.54.55a1,1,0,0,0,.62.32.66.66,0,0,0,.54-.22.7.7,0,0,0,.23-.54,1,1,0,0,0-.33-.62Z" transform="translate(-146.91 -101.54)"/><path class="cls-2" d="M202.56,199.4H186a5.7,5.7,0,0,0-5.7,5.7v2.81a5.71,5.71,0,0,0,5.7,5.71h16.6a5.71,5.71,0,0,0,5.7-5.71V205.1A5.7,5.7,0,0,0,202.56,199.4Zm-15.76,9.29a2.51,2.51,0,0,1-1.54.43,2.76,2.76,0,0,1-1-.2,2,2,0,0,1-.82-.58,1.41,1.41,0,0,1-.32-.92.26.26,0,0,1,.05-.18.3.3,0,0,1,.19,0h.77a.41.41,0,0,1,.22,0,.22.22,0,0,1,.07.18.55.55,0,0,0,.15.33.68.68,0,0,0,.33.2,1.64,1.64,0,0,0,.46.07,1.15,1.15,0,0,0,.57-.12.45.45,0,0,0,.21-.43.35.35,0,0,0-.21-.33,3.19,3.19,0,0,0-.65-.2l-.53-.14a4,4,0,0,1-.81-.33,1.56,1.56,0,0,1-.54-.48,1.57,1.57,0,0,1,.06-1.63,1.8,1.8,0,0,1,.72-.54,2.69,2.69,0,0,1,1-.2,3.11,3.11,0,0,1,1,.16,2,2,0,0,1,.8.51,1.2,1.2,0,0,1,.31.85.26.26,0,0,1-.05.18s-.09,0-.18,0h-.79a.17.17,0,0,1-.13,0l-.06-.1s0-.07,0-.08a.89.89,0,0,0-.17-.24.86.86,0,0,0-.3-.16,1.65,1.65,0,0,0-.38-.05,1.13,1.13,0,0,0-.48.11.37.37,0,0,0-.23.35c0,.17.11.3.33.4a5.75,5.75,0,0,0,.85.3,1.46,1.46,0,0,1,.32.09,4.88,4.88,0,0,1,.71.27,1.34,1.34,0,0,1,.5.43,1.36,1.36,0,0,1,.21.8A1.44,1.44,0,0,1,186.8,208.69Zm5.82.08a.24.24,0,0,1-.06.18.3.3,0,0,1-.18.05h-.79a.2.2,0,0,1-.23-.23V207h-1.78v1.81a.22.22,0,0,1-.06.18.3.3,0,0,1-.18.05h-.79a.2.2,0,0,1-.23-.23V204a.22.22,0,0,1,.06-.18s.09,0,.17,0h.79a.3.3,0,0,1,.18,0,.25.25,0,0,1,.06.19v1.81h1.78V204a.22.22,0,0,1,.06-.18s.09,0,.17,0h.79a.24.24,0,0,1,.18,0,.22.22,0,0,1,.06.18Zm3.7,0a.2.2,0,0,1-.23.23h-2.27a.2.2,0,0,1-.23-.23v-.63a.3.3,0,0,1,0-.18.24.24,0,0,1,.18-.06h.51v-3.05h-.49a.23.23,0,0,1-.18-.06.26.26,0,0,1,0-.17V204a.3.3,0,0,1,0-.18.23.23,0,0,1,.18,0h2.22c.09,0,.15,0,.18,0a.24.24,0,0,1,.06.18v.65a.22.22,0,0,1-.06.17.22.22,0,0,1-.18.06h-.48v3.05h.51a.24.24,0,0,1,.18.06.3.3,0,0,1,0,.18Zm4.94-4.15a.24.24,0,0,1-.06.18.22.22,0,0,1-.18.06h-2.41v.93h2.08a.24.24,0,0,1,.18.06.26.26,0,0,1,0,.17v.64a.26.26,0,0,1,0,.17.24.24,0,0,1-.18.06h-2.08v1.87a.3.3,0,0,1-.05.2s-.09,0-.18,0h-.8a.2.2,0,0,1-.23-.23V204a.3.3,0,0,1,.05-.18.24.24,0,0,1,.18,0H201c.09,0,.15,0,.18,0a.24.24,0,0,1,.06.18Zm4.7,0a.3.3,0,0,1-.05.18.24.24,0,0,1-.18.05H204.5v3.91a.24.24,0,0,1-.05.18.3.3,0,0,1-.18.05h-.79a.19.19,0,0,1-.23-.23v-3.91H202c-.09,0-.15,0-.18-.05a.24.24,0,0,1-.06-.18V204a.24.24,0,0,1,.06-.18s.09,0,.18,0h3.71a.24.24,0,0,1,.18,0,.3.3,0,0,1,.05.18Z" transform="translate(-146.91 -101.54)"/><text class="cls-3" transform="translate(75.7 18.69)">SUPER S<tspan class="cls-4" x="76.48" y="0">I</tspan><tspan x="82.13" y="0">XTEEN</tspan></text><text class="cls-5" transform="translate(17.42 76.8)">d<tspan class="cls-6" x="7.8" y="0">a</tspan><tspan class="cls-7" x="15.16" y="0">t</tspan><tspan x="21.3" y="0">a</tspan></text><text class="cls-8" transform="translate(251.35 76.8)">PITCH</text><text class="cls-8" transform="translate(247.8 164.4)">OC<tspan class="cls-9" x="12.77" y="0">T</tspan><tspan class="cls-10" x="17.95" y="0">A</tspan><tspan x="24.1" y="0">VE</tspan></text><text class="cls-8" transform="translate(246.57 249.73)">LENGTH</text><text class="cls-8" transform="translate(259.58 337.35)">CV</text><text class="cls-11" transform="translate(89.31 107.58)">PL<tspan class="cls-12" x="9.68" y="0">A</tspan><tspan x="14.5" y="0">Y</tspan></text><text class="cls-11" transform="translate(154.75 107.58)">LOAD</text><text class="cls-11" transform="translate(212.31 107.58)">S<tspan class="cls-13" x="4.84" y="0">A</tspan><tspan x="9.76" y="0">VE</tspan></text><text class="cls-14" transform="translate(47.35 272.11)">RECORD</text><text class="cls-14" transform="translate(134.78 272.11)">REPE<tspan class="cls-15" x="22.93" y="0">A</tspan><tspan x="28.42" y="0">T</tspan></text><text class="cls-14" transform="translate(223.35 272.11)">GLIDE</text><text class="cls-11" transform="translate(181.81 331.76)">G<tspan class="cls-16" x="5.17" y="0">A</tspan><tspan x="10.05" y="0">TE</tspan></text><text class="cls-11" transform="translate(144.24 331.76)">PITCH</text><text class="cls-11" transform="translate(117.35 331.76)">CV</text><text class="cls-11" transform="translate(76.89 331.76)">CLOCK</text><text class="cls-11" transform="translate(41.5 331.76)">RESET</text><text class="cls-11" transform="translate(7.71 331.76)">CLOCK</text><text class="cls-11" transform="translate(18.98 129.06)">1</text><text class="cls-11" transform="translate(48.04 129.06)">2</text><text class="cls-11" transform="translate(77.64 129.06)">3</text><text class="cls-11" transform="translate(107.64 129.06)">4</text><text class="cls-11" transform="translate(137.15 129.06)">5</text><text class="cls-11" transform="translate(166.47 129.06)">6</text><text class="cls-11" transform="translate(195.35 129.06)">7</text><text class="cls-11" transform="translate(225.27 129.06)">8</text><text class="cls-17" transform="translate(77.64 355)">EXTRA<tspan class="cls-18" x="33.96" y="0">L</tspan><tspan class="cls-19" x="37.59" y="0">I</tspan><tspan class="cls-20" x="41.11" y="0">FE </tspan><tspan class="cls-21" x="56.79" y="0">I</tspan><tspan x="60.32" y="0">NSTRUMENTS</tspan></text><text class="cls-11" transform="translate(19.13 217.34)">9</text><text class="cls-11" transform="translate(46.33 217.34)"><tspan class="cls-22">1</tspan><tspan x="3.68" y="0">0</tspan></text><text class="cls-11" transform="translate(75.92 217.34)"><tspan class="cls-23">1</tspan><tspan x="3.77" y="0">1</tspan></text><text class="cls-11" transform="translate(105.93 217.34)">12</text><text class="cls-11" transform="translate(135.43 217.34)">13</text><text class="cls-11" transform="translate(164.76 217.34)">14</text><text class="cls-11" transform="translate(193.63 217.34)">15</text><text class="cls-11" transform="translate(223.56 217.34)"><tspan class="cls-24">1</tspan><tspan x="3.86" y="0">6</tspan></text><polygon class="cls-2" points="72.77 7.56 39.85 7.56 35.92 12.09 68.85 12.09 72.77 7.56"/><polygon class="cls-2" points="67.83 13.54 34.91 13.54 30.98 18.07 63.91 18.07 67.83 13.54"/><polygon class="cls-2" points="249.21 7.56 216.28 7.56 220.21 12.09 253.13 12.09 249.21 7.56"/><polygon class="cls-2" points="254.23 13.54 221.3 13.54 225.23 18.07 258.15 18.07 254.23 13.54"/><path class="cls-2" d="M403.62,377.27H364.36a3,3,0,0,0-3,3v3.1a3,3,0,0,0,3,3h39.26a3,3,0,0,0,3-3v-3.1A3,3,0,0,0,403.62,377.27ZM366,383.09a.93.93,0,0,0,.64.21,1,1,0,0,0,.65-.21.78.78,0,0,0,.23-.64h-.72a.21.21,0,0,1-.17-.06.24.24,0,0,1-.06-.18v-.62a.2.2,0,0,1,.23-.23h1.76a.19.19,0,0,1,.23.23v1.16a1.43,1.43,0,0,1-.37.92,2,2,0,0,1-.81.56,2.77,2.77,0,0,1-1,.18,2.91,2.91,0,0,1-1-.18,1.85,1.85,0,0,1-.82-.57,1.47,1.47,0,0,1-.33-1v-2a1.54,1.54,0,0,1,.33-1,2,2,0,0,1,.82-.6,2.71,2.71,0,0,1,1-.2,2.75,2.75,0,0,1,1,.2,2.18,2.18,0,0,1,.82.56,1.35,1.35,0,0,1,.32.89.31.31,0,0,1,0,.18.3.3,0,0,1-.19,0h-.78c-.08,0-.13,0-.15,0a.16.16,0,0,1-.05-.11.81.81,0,0,0,0-.11.71.71,0,0,0-.3-.35,1.22,1.22,0,0,0-.61-.14.82.82,0,0,0-.88.87v1.6A.77.77,0,0,0,366,383.09Zm5,1a.22.22,0,0,1-.06.18s-.09.05-.17.05h-.89a.24.24,0,0,1-.18-.05.26.26,0,0,1-.05-.18v-.89a.19.19,0,0,1,.23-.23h.89a.2.2,0,0,1,.23.23Zm7,0a.24.24,0,0,1-.06.18s-.09.05-.18.05h-3.32c-.09,0-.15,0-.18-.05a.24.24,0,0,1-.06-.18v-4.8a.24.24,0,0,1,.06-.18.3.3,0,0,1,.18-.05h.79a.2.2,0,0,1,.23.23v3.91h2.3a.22.22,0,0,1,.18.06.24.24,0,0,1,.06.18Zm4.91,0a.3.3,0,0,1,0,.18.24.24,0,0,1-.18.05h-3.59a.24.24,0,0,1-.18-.05.3.3,0,0,1,0-.18v-4.8a.2.2,0,0,1,.23-.23h3.45a.22.22,0,0,1,.18.06.25.25,0,0,1,.05.17v.67a.25.25,0,0,1-.05.17.22.22,0,0,1-.18.06h-2.41V381h2.14a.2.2,0,0,1,.23.23v.63a.2.2,0,0,1-.23.23h-2.14v1.05h2.55a.24.24,0,0,1,.18.06.3.3,0,0,1,0,.18Zm5.24,0a.3.3,0,0,1-.05.18.24.24,0,0,1-.18.05h-.73a.28.28,0,0,1-.2-.05,1.4,1.4,0,0,1-.16-.22l-1.7-2.74v2.78a.26.26,0,0,1-.05.18.24.24,0,0,1-.18.05h-.79a.24.24,0,0,1-.18-.05s-.05-.09-.05-.18v-4.8c0-.08,0-.14.05-.17a.22.22,0,0,1,.18-.06h.75a.28.28,0,0,1,.2.06,1.2,1.2,0,0,1,.16.21L387,382v-2.78a.24.24,0,0,1,0-.18.3.3,0,0,1,.18-.05H388a.26.26,0,0,1,.17.05.24.24,0,0,1,.06.18Zm2.53-1a1,1,0,0,0,.64.21,1,1,0,0,0,.66-.21.82.82,0,0,0,.23-.64h-.72a.24.24,0,0,1-.18-.06.3.3,0,0,1-.05-.18v-.62a.19.19,0,0,1,.23-.23h1.75a.26.26,0,0,1,.18.05.24.24,0,0,1,.06.18v1.16a1.49,1.49,0,0,1-.37.92,2,2,0,0,1-.81.56,2.83,2.83,0,0,1-1,.18,2.89,2.89,0,0,1-1-.18,1.85,1.85,0,0,1-.82-.57,1.47,1.47,0,0,1-.33-1v-2a1.54,1.54,0,0,1,.33-1,2,2,0,0,1,.82-.6,2.7,2.7,0,0,1,1-.2,2.76,2.76,0,0,1,1,.2,2.18,2.18,0,0,1,.82.56,1.35,1.35,0,0,1,.32.89.24.24,0,0,1,0,.18s-.09,0-.19,0h-.77c-.08,0-.13,0-.16,0a.37.37,0,0,1-.05-.11.31.31,0,0,0,0-.11.69.69,0,0,0-.31-.35,1.17,1.17,0,0,0-.61-.14.84.84,0,0,0-.88.87v1.6A.77.77,0,0,0,390.73,383.09Zm7.61-3.16a.25.25,0,0,1,0,.17.22.22,0,0,1-.18.06h-1.22v3.9a.22.22,0,0,1-.06.18.24.24,0,0,1-.18.05h-.79c-.08,0-.14,0-.17-.05a.22.22,0,0,1-.06-.18v-3.9H394.4a.22.22,0,0,1-.18-.06s-.05-.09-.05-.17v-.67c0-.08,0-.14.05-.17a.22.22,0,0,1,.18-.06h3.71a.22.22,0,0,1,.18.06.25.25,0,0,1,0,.17Zm5.1,4.13a.2.2,0,0,1-.23.23h-.8a.2.2,0,0,1-.23-.23v-1.81H400.4v1.81a.25.25,0,0,1-.06.19.27.27,0,0,1-.17,0h-.8a.2.2,0,0,1-.23-.23v-4.8a.24.24,0,0,1,.06-.18.26.26,0,0,1,.17-.05h.8a.26.26,0,0,1,.17.05.22.22,0,0,1,.06.18v1.81h1.78v-1.81a.24.24,0,0,1,.06-.18.26.26,0,0,1,.17-.05h.8a.26.26,0,0,1,.17.05.24.24,0,0,1,.06.18Z" transform="translate(-146.91 -101.54)"/><path class="cls-25" d="M213.17,447.3c.34.29,5,4.35,4,9.71a9.12,9.12,0,0,1-2,4.22" transform="translate(-146.91 -101.54)"/><path class="cls-2" d="M211.34,445.64l-1.33.48.49,1.34,1.33-.49Zm0,0-1.33.48.49,1.34,1.33-.49Zm5.45-1.4-2.4-1-2.42,1-1-2.46-2.38-1-1.08,2.54,1,2.37-2.36,1-1.08,2.55,2.38,1,2.44-1,.95,2.46,2.4,1,1.08-2.55-.87-2.14h0l-.09-.22,2.38-1Zm-6.72,4.12-1-2.66,2.66-1,1,2.67Zm-.06-2.24.49,1.34,1.33-.49-.49-1.33Z" transform="translate(-146.91 -101.54)"/><rect class="cls-26" x="105.2" y="11.83" width="2.35" height="2.35"/><rect class="cls-26" x="117.94" y="10.72" width="2.37" height="1.11"/><rect class="cls-27" x="194.94" y="10.72" width="2.37" height="1.11"/><rect class="cls-27" x="182.57" y="10.72" width="2.37" height="1.11"/><rect class="cls-26" x="117.94" y="13.72" width="5.37" height="1.11"/><polygon class="cls-26" points="87.36 12.65 81.99 12.65 80.88 11.54 86.25 11.54 87.36 12.65"/><polygon class="cls-26" points="151.25 12.65 145.88 12.65 144.77 11.54 150.14 11.54 151.25 12.65"/><polygon class="cls-26" points="82.18 14.68 76.81 14.68 75.7 13.56 81.07 13.56 82.18 14.68"/><polygon class="cls-26" points="145.96 14.83 140.59 14.83 139.47 13.72 144.84 13.72 145.96 14.83"/><rect class="cls-26" x="182.55" y="13.72" width="5.37" height="1.11"/><rect class="cls-26" x="194.94" y="13.72" width="5.37" height="1.11"/></g></svg>