<svg id="Cutouts" xmlns="http://www.w3.org/2000/svg" viewBox="0 0 263.65 356.07"><defs><style>.cls-1{fill:#39b54a;}.cls-2{fill:#f7941d;}.cls-3{fill:#662d91;}.cls-4{fill:#00aeef;}.cls-5{fill:#fff200;}.cls-6{fill:#ec008c;}.cls-7{fill:#ed1c24;}.cls-8{fill:#2e3192;}</style></defs><title>front_panel</title><circle class="cls-1" cx="253.73" cy="43.55" r="9.92"/><circle class="cls-1" cx="253.73" cy="130.48" r="9.92"/><circle class="cls-1" cx="253.73" cy="217.4" r="9.92"/><circle class="cls-1" cx="253.73" cy="304.33" r="9.92"/><circle class="cls-1" cx="21.13" cy="43.55" r="9.92"/><circle class="cls-2" cx="8.53" cy="307.17" r="8.5"/><circle class="cls-2" cx="42.55" cy="307.17" r="8.5"/><circle class="cls-2" cx="76.56" cy="307.17" r="8.5"/><circle class="cls-2" cx="110.58" cy="307.17" r="8.5"/><circle class="cls-2" cx="144.59" cy="307.17" r="8.5"/><circle class="cls-2" cx="178.61" cy="307.17" r="8.5"/><rect class="cls-3" x="68.62" y="26.54" width="106.58" height="53.86" rx="2.83"/><circle class="cls-4" cx="15.62" cy="265.38" r="13.46"/><circle class="cls-4" cx="106.66" cy="265.38" r="13.46"/><circle class="cls-5" cx="38.77" cy="131.25" r="4.25"/><circle class="cls-5" cx="9.21" cy="131.25" r="4.25"/><circle class="cls-5" cx="68.24" cy="131.25" r="4.25"/><circle class="cls-5" cx="97.77" cy="131.25" r="4.25"/><circle class="cls-5" cx="38.78" cy="175.18" r="4.25"/><circle class="cls-5" cx="9.22" cy="175.18" r="4.25"/><circle class="cls-5" cx="68.25" cy="175.18" r="4.25"/><circle class="cls-5" cx="97.77" cy="175.18" r="4.25"/><circle class="cls-5" cx="156.89" cy="131.25" r="4.25"/><circle class="cls-5" cx="127.33" cy="131.25" r="4.25"/><circle class="cls-5" cx="186.35" cy="131.25" r="4.25"/><circle class="cls-5" cx="215.88" cy="131.25" r="4.25"/><circle class="cls-5" cx="156.89" cy="175.18" r="4.25"/><circle class="cls-5" cx="127.33" cy="175.18" r="4.25"/><circle class="cls-5" cx="186.36" cy="175.18" r="4.25"/><circle class="cls-5" cx="215.89" cy="175.18" r="4.25"/><circle class="cls-6" cx="198.19" cy="263.49" r="7.09"/><circle class="cls-6" cx="201.4" cy="307.17" r="7.09"/><circle class="cls-7" cx="9.21" cy="151.83" r="9.21"/><circle class="cls-7" cx="38.77" cy="151.83" r="9.21"/><circle class="cls-7" cx="68.38" cy="151.83" r="9.21"/><circle class="cls-7" cx="97.94" cy="151.83" r="9.21"/><circle class="cls-7" cx="9.21" cy="100.95" r="9.21"/><circle class="cls-7" cx="131.13" cy="100.95" r="9.21"/><circle class="cls-7" cx="65.93" cy="100.95" r="9.21"/><circle class="cls-7" cx="187.75" cy="100.95" r="9.21"/><circle class="cls-7" cx="172.23" cy="263.94" r="9.21"/><circle class="cls-7" cx="9.26" cy="195.77" r="9.21"/><circle class="cls-7" cx="38.82" cy="195.77" r="9.21"/><circle class="cls-7" cx="68.43" cy="195.77" r="9.21"/><circle class="cls-7" cx="97.99" cy="195.77" r="9.21"/><circle class="cls-7" cx="127.38" cy="151.83" r="9.21"/><circle class="cls-7" cx="156.94" cy="151.83" r="9.21"/><circle class="cls-7" cx="186.55" cy="151.83" r="9.21"/><circle class="cls-7" cx="216.11" cy="151.83" r="9.21"/><circle class="cls-7" cx="127.43" cy="195.77" r="9.21"/><circle class="cls-7" cx="156.99" cy="195.77" r="9.21"/><circle class="cls-7" cx="186.6" cy="195.77" r="9.21"/><circle class="cls-7" cx="216.16" cy="195.77" r="9.21"/><rect class="cls-8" x="2.96" y="346.99" width="14.17" height="9.07" rx="4.54"/><rect class="cls-8" x="246.45" y="346.99" width="14.17" height="9.07" rx="4.54"/><rect class="cls-8" x="2.96" width="14.17" height="9.07" rx="4.54"/><rect class="cls-8" x="246.45" width="14.17" height="9.07" rx="4.54"/></svg>