M48
; DRILL file {KiCad (5.1.2)-1} date 7/24/2020 4:05:39 PM
; FORMAT={-:-/ absolute / metric / decimal}
; #@! TF.CreationDate,2020-07-24T16:05:39-07:00
; #@! TF.GenerationSoftware,Kicad,Pcbnew,(5.1.2)-1
; #@! TF.FileFunction,Plated,1,2,PTH
FMAT,2
METRIC
T1C0.400
T2C0.600
T3C0.800
T4C0.900
T5C1.000
T6C1.200
T7C3.200
%
G90
G05
T1
X75.0Y-64.6
X76.3Y-64.6
T2
X29.0Y-73.1
X31.0Y-73.1
T3
X81.1Y-69.1
X83.6Y-69.1
X27.071Y-95.415
X29.611Y-95.415
X32.151Y-95.415
X38.6Y-92.98
X38.6Y-100.6
X50.7Y-88.35
X53.2Y-88.35
X93.0Y-90.461
X93.0Y-100.621
X45.108Y-49.5
X47.648Y-49.5
X50.188Y-49.5
X72.58Y-76.9
X72.58Y-84.52
X75.12Y-76.9
X75.12Y-84.52
X77.66Y-76.9
X77.66Y-84.52
X80.2Y-76.9
X80.2Y-84.52
X28.275Y-68.6
X30.775Y-68.6
X58.0Y-88.35
X60.5Y-88.35
X48.714Y-92.98
X48.714Y-100.6
X72.1Y-69.1
X74.6Y-69.1
X74.0Y-92.98
X74.0Y-100.6
X61.108Y-49.5
X63.648Y-49.5
X66.188Y-49.5
X77.5Y-88.35
X80.0Y-88.35
X88.714Y-90.421
X88.714Y-100.581
X29.525Y-104.0
X29.525Y-106.5
X36.0Y-64.98
X36.0Y-72.6
X43.657Y-92.98
X43.657Y-100.6
X58.5Y-53.58
X58.5Y-61.2
X54.5Y-53.58
X54.5Y-61.2
X42.85Y-88.35
X45.35Y-88.35
X47.5Y-65.5
X50.0Y-65.5
X41.0Y-65.5
X43.5Y-65.5
X43.1Y-71.0
X48.0Y-71.0
X66.5Y-53.58
X66.5Y-61.2
X53.771Y-92.98
X53.771Y-100.6
X28.125Y-90.625
X30.625Y-90.625
X42.5Y-53.58
X42.5Y-61.2
X77.587Y-93.002
X80.087Y-93.002
X90.1Y-69.1
X92.6Y-69.1
X50.5Y-53.58
X50.5Y-61.2
X84.28Y-76.9
X84.28Y-84.52
X86.82Y-76.9
X86.82Y-84.52
X89.36Y-76.9
X89.36Y-84.52
X91.9Y-76.9
X91.9Y-84.52
X58.829Y-92.95
X58.829Y-100.57
X35.0Y-88.35
X37.5Y-88.35
X84.427Y-90.421
X84.427Y-100.581
X53.108Y-49.5
X55.648Y-49.5
X58.188Y-49.5
X37.108Y-49.5
X39.648Y-49.5
X42.188Y-49.5
X46.5Y-53.58
X46.5Y-61.2
X97.0Y-69.0
X99.5Y-69.0
X34.98Y-77.0
X34.98Y-84.62
X37.52Y-77.0
X37.52Y-84.62
X40.06Y-77.0
X40.06Y-84.62
X42.6Y-77.0
X42.6Y-84.62
X45.14Y-77.0
X45.14Y-84.62
X47.68Y-77.0
X47.68Y-84.62
X50.22Y-77.0
X50.22Y-84.62
X52.76Y-77.0
X52.76Y-84.62
X55.3Y-77.0
X55.3Y-84.62
X57.84Y-77.0
X57.84Y-84.62
X60.38Y-77.0
X60.38Y-84.62
X62.92Y-77.0
X62.92Y-84.62
X65.46Y-77.0
X65.46Y-84.62
X68.0Y-77.0
X68.0Y-84.62
X38.5Y-53.58
X38.5Y-61.2
X68.943Y-92.98
X68.943Y-100.6
X63.886Y-92.95
X63.886Y-100.57
X66.0Y-65.0
X66.0Y-72.62
X62.5Y-53.58
X62.5Y-61.2
T4
X60.5Y-64.88
X60.5Y-72.5
X55.5Y-64.88
X55.5Y-72.5
T5
X87.84Y-105.0
X87.84Y-107.54
X90.38Y-105.0
X90.38Y-107.54
X92.92Y-105.0
X92.92Y-107.54
X95.46Y-105.0
X95.46Y-107.54
X98.0Y-105.0
X98.0Y-107.54
X28.25Y-79.4
X28.25Y-81.94
X28.25Y-84.48
X30.79Y-79.4
X30.79Y-81.94
X30.79Y-84.48
X36.007Y-107.099
X38.547Y-107.099
X41.087Y-107.099
X43.627Y-107.099
X46.167Y-107.099
X48.707Y-107.099
X51.247Y-107.099
X53.787Y-107.099
X56.327Y-107.099
X58.867Y-107.099
X61.407Y-107.099
X63.947Y-107.099
X66.487Y-107.099
X69.027Y-107.099
X71.567Y-107.099
X74.107Y-107.099
X70.016Y-49.595
X72.556Y-49.595
X75.096Y-49.595
X77.636Y-49.595
X80.176Y-49.595
X82.716Y-49.595
X85.256Y-49.595
X87.796Y-49.595
X90.336Y-49.595
X92.876Y-49.595
X99.3Y-56.42
X99.3Y-58.96
X99.3Y-61.5
T6
X98.0Y-74.0
X98.0Y-84.16
X98.0Y-90.0
X98.0Y-100.16
T7
X69.258Y-88.952
T0
M30
