G04 #@! TF.GenerationSoftware,KiCad,Pcbnew,(5.0.0)*
G04 #@! TF.CreationDate,2019-04-04T01:40:39-07:00*
G04 #@! TF.ProjectId,kicad-cpu-board,6B696361642D6370752D626F6172642E,rev?*
G04 #@! TF.SameCoordinates,Original*
G04 #@! TF.FileFunction,Legend,Bot*
G04 #@! TF.FilePolarity,Positive*
%FSLAX46Y46*%
G04 Gerber Fmt 4.6, Leading zero omitted, Abs format (unit mm)*
G04 Created by KiCad (PCBNEW (5.0.0)) date 04/04/19 01:40:39*
%MOMM*%
%LPD*%
G01*
G04 APERTURE LIST*
%ADD10C,0.120000*%
%ADD11C,0.150000*%
G04 APERTURE END LIST*
D10*
G04 #@! TO.C,J102*
X68685993Y-48264547D02*
X68685993Y-49594547D01*
X70015993Y-48264547D02*
X68685993Y-48264547D01*
X71285993Y-48264547D02*
X71285993Y-50924547D01*
X71285993Y-50924547D02*
X94205993Y-50924547D01*
X71285993Y-48264547D02*
X94205993Y-48264547D01*
X94205993Y-48264547D02*
X94205993Y-50924547D01*
G04 #@! TO.C,J103*
X35185993Y-105764547D02*
X35185993Y-107094547D01*
X36515993Y-105764547D02*
X35185993Y-105764547D01*
X37785993Y-105764547D02*
X37785993Y-108424547D01*
X37785993Y-108424547D02*
X73405993Y-108424547D01*
X37785993Y-105764547D02*
X73405993Y-105764547D01*
X73405993Y-105764547D02*
X73405993Y-108424547D01*
G04 #@! TD*
G04 #@! TO.C,J102*
D11*
X66945376Y-48336559D02*
X67659662Y-48336559D01*
X67802519Y-48288940D01*
X67897757Y-48193702D01*
X67945376Y-48050845D01*
X67945376Y-47955607D01*
X67945376Y-49336559D02*
X67945376Y-48765131D01*
X67945376Y-49050845D02*
X66945376Y-49050845D01*
X67088234Y-48955607D01*
X67183472Y-48860369D01*
X67231091Y-48765131D01*
X66945376Y-49955607D02*
X66945376Y-50050845D01*
X66992996Y-50146083D01*
X67040615Y-50193702D01*
X67135853Y-50241321D01*
X67326329Y-50288940D01*
X67564424Y-50288940D01*
X67754900Y-50241321D01*
X67850138Y-50193702D01*
X67897757Y-50146083D01*
X67945376Y-50050845D01*
X67945376Y-49955607D01*
X67897757Y-49860369D01*
X67850138Y-49812750D01*
X67754900Y-49765131D01*
X67564424Y-49717512D01*
X67326329Y-49717512D01*
X67135853Y-49765131D01*
X67040615Y-49812750D01*
X66992996Y-49860369D01*
X66945376Y-49955607D01*
X67040615Y-50669893D02*
X66992996Y-50717512D01*
X66945376Y-50812750D01*
X66945376Y-51050845D01*
X66992996Y-51146083D01*
X67040615Y-51193702D01*
X67135853Y-51241321D01*
X67231091Y-51241321D01*
X67373948Y-51193702D01*
X67945376Y-50622274D01*
X67945376Y-51241321D01*
G04 #@! TO.C,J103*
X33638373Y-105808832D02*
X34352659Y-105808832D01*
X34495516Y-105761213D01*
X34590754Y-105665975D01*
X34638373Y-105523118D01*
X34638373Y-105427880D01*
X34638373Y-106808832D02*
X34638373Y-106237404D01*
X34638373Y-106523118D02*
X33638373Y-106523118D01*
X33781231Y-106427880D01*
X33876469Y-106332642D01*
X33924088Y-106237404D01*
X33638373Y-107427880D02*
X33638373Y-107523118D01*
X33685993Y-107618356D01*
X33733612Y-107665975D01*
X33828850Y-107713594D01*
X34019326Y-107761213D01*
X34257421Y-107761213D01*
X34447897Y-107713594D01*
X34543135Y-107665975D01*
X34590754Y-107618356D01*
X34638373Y-107523118D01*
X34638373Y-107427880D01*
X34590754Y-107332642D01*
X34543135Y-107285023D01*
X34447897Y-107237404D01*
X34257421Y-107189785D01*
X34019326Y-107189785D01*
X33828850Y-107237404D01*
X33733612Y-107285023D01*
X33685993Y-107332642D01*
X33638373Y-107427880D01*
X33638373Y-108094547D02*
X33638373Y-108713594D01*
X34019326Y-108380261D01*
X34019326Y-108523118D01*
X34066945Y-108618356D01*
X34114564Y-108665975D01*
X34209802Y-108713594D01*
X34447897Y-108713594D01*
X34543135Y-108665975D01*
X34590754Y-108618356D01*
X34638373Y-108523118D01*
X34638373Y-108237404D01*
X34590754Y-108142166D01*
X34543135Y-108094547D01*
G04 #@! TD*
M02*
