G04 #@! TF.GenerationSoftware,KiCad,Pcbnew,(5.1.2)-1*
G04 #@! TF.CreationDate,2019-12-10T17:53:54-08:00*
G04 #@! TF.ProjectId,kicad-cpu-board,6b696361-642d-4637-9075-2d626f617264,rev?*
G04 #@! TF.SameCoordinates,Original*
G04 #@! TF.FileFunction,Soldermask,Top*
G04 #@! TF.FilePolarity,Negative*
%FSLAX46Y46*%
G04 Gerber Fmt 4.6, Leading zero omitted, Abs format (unit mm)*
G04 Created by KiCad (PCBNEW (5.1.2)-1) date 2019-12-10 17:53:54*
%MOMM*%
%LPD*%
G04 APERTURE LIST*
%ADD10C,1.920000*%
%ADD11R,1.920000X1.920000*%
%ADD12C,2.000000*%
%ADD13O,2.000000X2.000000*%
%ADD14R,2.100000X2.100000*%
%ADD15O,2.100000X2.100000*%
%ADD16R,2.000000X2.000000*%
%ADD17C,1.600000*%
%ADD18R,1.600000X1.600000*%
%ADD19O,2.200000X2.200000*%
%ADD20R,2.200000X2.200000*%
%ADD21R,2.800000X2.800000*%
%ADD22O,2.800000X2.800000*%
%ADD23O,3.900000X3.900000*%
%ADD24R,1.000000X1.950000*%
%ADD25C,1.900000*%
G04 APERTURE END LIST*
D10*
X29611320Y-95415100D03*
X32151320Y-95415100D03*
D11*
X27071320Y-95415100D03*
D10*
X55647700Y-49500000D03*
X58187700Y-49500000D03*
D11*
X53107700Y-49500000D03*
D10*
X39647700Y-49500000D03*
X42187700Y-49500000D03*
D11*
X37107700Y-49500000D03*
D10*
X47647700Y-49500000D03*
X50187700Y-49500000D03*
D11*
X45107700Y-49500000D03*
D10*
X63647700Y-49500000D03*
X66187700Y-49500000D03*
D11*
X61107700Y-49500000D03*
D12*
X80086840Y-93002100D03*
X77586840Y-93002100D03*
X88713530Y-90421460D03*
D13*
X88713530Y-100581460D03*
D12*
X93000000Y-100621460D03*
D13*
X93000000Y-90461460D03*
D12*
X84427060Y-90421460D03*
D13*
X84427060Y-100581460D03*
D14*
X36007040Y-107099100D03*
D15*
X38547040Y-107099100D03*
X41087040Y-107099100D03*
X43627040Y-107099100D03*
X46167040Y-107099100D03*
X48707040Y-107099100D03*
X51247040Y-107099100D03*
X53787040Y-107099100D03*
X56327040Y-107099100D03*
X58867040Y-107099100D03*
X61407040Y-107099100D03*
X63947040Y-107099100D03*
X66487040Y-107099100D03*
X69027040Y-107099100D03*
X71567040Y-107099100D03*
X74107040Y-107099100D03*
D16*
X80200000Y-76900000D03*
D13*
X72580000Y-84520000D03*
X77660000Y-76900000D03*
X75120000Y-84520000D03*
X75120000Y-76900000D03*
X77660000Y-84520000D03*
X72580000Y-76900000D03*
X80200000Y-84520000D03*
D12*
X97000000Y-69000000D03*
X99500000Y-69000000D03*
X30625001Y-90625001D03*
X28125001Y-90625001D03*
D13*
X68000000Y-84620000D03*
X34980000Y-77000000D03*
X65460000Y-84620000D03*
X37520000Y-77000000D03*
X62920000Y-84620000D03*
X40060000Y-77000000D03*
X60380000Y-84620000D03*
X42600000Y-77000000D03*
X57840000Y-84620000D03*
X45140000Y-77000000D03*
X55300000Y-84620000D03*
X47680000Y-77000000D03*
X52760000Y-84620000D03*
X50220000Y-77000000D03*
X50220000Y-84620000D03*
X52760000Y-77000000D03*
X47680000Y-84620000D03*
X55300000Y-77000000D03*
X45140000Y-84620000D03*
X57840000Y-77000000D03*
X42600000Y-84620000D03*
X60380000Y-77000000D03*
X40060000Y-84620000D03*
X62920000Y-77000000D03*
X37520000Y-84620000D03*
X65460000Y-77000000D03*
X34980000Y-84620000D03*
D16*
X68000000Y-77000000D03*
D12*
X72100000Y-69100000D03*
D16*
X74600000Y-69100000D03*
D17*
X29000000Y-73100000D03*
D18*
X31000000Y-73100000D03*
D12*
X80000000Y-88350000D03*
X77500000Y-88350000D03*
X45350000Y-88350000D03*
X42850000Y-88350000D03*
X50000000Y-65500000D03*
X47500000Y-65500000D03*
X53200000Y-88350000D03*
X50700000Y-88350000D03*
X41000000Y-65500000D03*
X43500000Y-65500000D03*
D16*
X29525000Y-104000000D03*
D12*
X29525000Y-106500000D03*
X90100000Y-69100000D03*
D16*
X92600000Y-69100000D03*
X83600000Y-69100000D03*
D12*
X81100000Y-69100000D03*
X30775000Y-68600000D03*
X28275000Y-68600000D03*
X37500000Y-88350000D03*
X35000000Y-88350000D03*
X58000000Y-88350000D03*
X60500000Y-88350000D03*
D19*
X60500000Y-64880000D03*
D20*
X60500000Y-72500000D03*
X55500000Y-72500000D03*
D19*
X55500000Y-64880000D03*
D21*
X98000000Y-74000000D03*
D22*
X98000000Y-84160000D03*
X98000000Y-100160000D03*
D21*
X98000000Y-90000000D03*
D15*
X30790000Y-84480000D03*
X28250000Y-84480000D03*
X30790000Y-81940000D03*
X28250000Y-81940000D03*
X30790000Y-79400000D03*
D14*
X28250000Y-79400000D03*
D15*
X92875993Y-49594547D03*
X90335993Y-49594547D03*
X87795993Y-49594547D03*
X85255993Y-49594547D03*
X82715993Y-49594547D03*
X80175993Y-49594547D03*
X77635993Y-49594547D03*
X75095993Y-49594547D03*
X72555993Y-49594547D03*
D14*
X70015993Y-49594547D03*
D15*
X87840000Y-107540000D03*
X87840000Y-105000000D03*
X90380000Y-107540000D03*
X90380000Y-105000000D03*
X92920000Y-107540000D03*
X92920000Y-105000000D03*
X95460000Y-107540000D03*
X95460000Y-105000000D03*
X98000000Y-107540000D03*
D14*
X98000000Y-105000000D03*
D12*
X36000000Y-72600000D03*
D13*
X36000000Y-64980000D03*
D12*
X66000000Y-65000000D03*
D13*
X66000000Y-72620000D03*
D12*
X38600000Y-100600000D03*
D13*
X38600000Y-92980000D03*
X62500000Y-53580000D03*
D12*
X62500000Y-61200000D03*
D13*
X66500000Y-53580000D03*
D12*
X66500000Y-61200000D03*
X46500000Y-61200000D03*
D13*
X46500000Y-53580000D03*
X50500000Y-53580000D03*
D12*
X50500000Y-61200000D03*
D13*
X43657142Y-92980000D03*
D12*
X43657142Y-100600000D03*
D13*
X38500000Y-53580000D03*
D12*
X38500000Y-61200000D03*
X42500000Y-61200000D03*
D13*
X42500000Y-53580000D03*
X54500000Y-53580000D03*
D12*
X54500000Y-61200000D03*
X58500000Y-61200000D03*
D13*
X58500000Y-53580000D03*
X48714284Y-92980000D03*
D12*
X48714284Y-100600000D03*
X58828568Y-92950000D03*
D13*
X58828568Y-100570000D03*
X53771426Y-92980000D03*
D12*
X53771426Y-100600000D03*
X74000000Y-100600000D03*
D13*
X74000000Y-92980000D03*
X63885710Y-100570000D03*
D12*
X63885710Y-92950000D03*
X68942852Y-100600000D03*
D13*
X68942852Y-92980000D03*
D19*
X99300000Y-56420000D03*
X99300000Y-58960000D03*
D20*
X99300000Y-61500000D03*
D23*
X82640000Y-58960000D03*
D24*
X28595000Y-50800000D03*
X29865000Y-50800000D03*
X31135000Y-50800000D03*
X32405000Y-50800000D03*
X32405000Y-56200000D03*
X31135000Y-56200000D03*
X29865000Y-56200000D03*
X28595000Y-56200000D03*
D13*
X91900000Y-84520000D03*
X84280000Y-76900000D03*
X89360000Y-84520000D03*
X86820000Y-76900000D03*
X86820000Y-84520000D03*
X89360000Y-76900000D03*
X84280000Y-84520000D03*
D16*
X91900000Y-76900000D03*
D25*
X43100000Y-71000000D03*
X48000000Y-71000000D03*
M02*
