M48
; DRILL file {KiCad (5.1.2)-1} date 4/14/2021 7:23:18 PM
; FORMAT={2:4/ absolute / inch / suppress trailing zeros}
; #@! TF.CreationDate,2021-04-14T19:23:18-07:00
; #@! TF.GenerationSoftware,Kicad,Pcbnew,(5.1.2)-1
; #@! TF.FileFunction,Plated,1,2,PTH
FMAT,2
INCH,LZ
T1C0.0157
T2C0.0236
T3C0.0315
T4C0.0354
T5C0.0394
T6C0.0472
T7C0.1260
%
G90
G05
T1
X029528Y-025433
X030039Y-025433
T2
X011417Y-02878
X012205Y-02878
T3
X035472Y-027205
X036457Y-027205
X025152Y-036594
X025152Y-039594
X011073Y-035679
X012057Y-035679
X018307Y-021094
X018307Y-024094
X017759Y-019488
X018759Y-019488
X019759Y-019488
X01378Y-034783
X014764Y-034783
X021457Y-021094
X021457Y-024094
X024058Y-019488
X025058Y-019488
X026058Y-019488
X02117Y-036606
X02117Y-039606
X019882Y-021094
X019882Y-024094
X031929Y-027205
X032913Y-027205
X028386Y-027205
X02937Y-027205
X033239Y-035599
X033239Y-039599
X013772Y-030315
X013772Y-033315
X014772Y-030315
X014772Y-033315
X015772Y-030315
X015772Y-033315
X016772Y-030315
X016772Y-033315
X017772Y-030315
X017772Y-033315
X018772Y-030315
X018772Y-033315
X019772Y-030315
X019772Y-033315
X020772Y-030315
X020772Y-033315
X021772Y-030315
X021772Y-033315
X022772Y-030315
X022772Y-033315
X023772Y-030315
X023772Y-033315
X024772Y-030315
X024772Y-033315
X025772Y-030315
X025772Y-033315
X026772Y-030315
X026772Y-033315
X024606Y-021094
X024606Y-024094
X019961Y-034783
X020945Y-034783
X026181Y-021094
X026181Y-024094
X014609Y-019488
X015609Y-019488
X016609Y-019488
X01687Y-034783
X017854Y-034783
X025984Y-025591
X025984Y-028591
X023031Y-021094
X023031Y-024094
X030546Y-036615
X03153Y-036615
X016969Y-027953
X018898Y-027953
X015157Y-021094
X015157Y-024094
X030512Y-034783
X031496Y-034783
X018701Y-025787
X019685Y-025787
X023161Y-036594
X023161Y-039594
X022835Y-034783
X023819Y-034783
X033181Y-030276
X033181Y-033276
X034181Y-030276
X034181Y-033276
X035181Y-030276
X035181Y-033276
X036181Y-030276
X036181Y-033276
X016142Y-025787
X017126Y-025787
X015197Y-036606
X015197Y-039606
X011132Y-027008
X012116Y-027008
X029134Y-036606
X029134Y-039606
X010658Y-037565
X011658Y-037565
X012658Y-037565
X011624Y-040945
X011624Y-041929
X017188Y-036606
X017188Y-039606
X020909Y-019488
X021909Y-019488
X022909Y-019488
X016732Y-021094
X016732Y-024094
X034927Y-035599
X034927Y-039599
X027143Y-036606
X027143Y-039606
X036614Y-035615
X036614Y-039615
X014173Y-025583
X014173Y-028583
X028575Y-030276
X028575Y-033276
X029575Y-030276
X029575Y-033276
X030575Y-030276
X030575Y-033276
X031575Y-030276
X031575Y-033276
X038189Y-027165
X039173Y-027165
X019179Y-036606
X019179Y-039606
T4
X023819Y-025543
X023819Y-028543
X02185Y-025543
X02185Y-028543
T5
X039094Y-022213
X039094Y-023213
X039094Y-024213
X014176Y-042165
X015176Y-042165
X016176Y-042165
X017176Y-042165
X018176Y-042165
X019176Y-042165
X020176Y-042165
X021176Y-042165
X022176Y-042165
X023176Y-042165
X024176Y-042165
X025176Y-042165
X026176Y-042165
X027176Y-042165
X028176Y-042165
X029176Y-042165
X034583Y-041339
X034583Y-042339
X035583Y-041339
X035583Y-042339
X036583Y-041339
X036583Y-042339
X037583Y-041339
X037583Y-042339
X038583Y-041339
X038583Y-042339
X011122Y-03126
X011122Y-03226
X011122Y-03326
X012122Y-03126
X012122Y-03226
X012122Y-03326
X027565Y-019525
X028565Y-019525
X029565Y-019525
X030565Y-019525
X031565Y-019525
X032565Y-019525
X033565Y-019525
X034565Y-019525
X035565Y-019525
X036565Y-019525
T6
X038583Y-029134
X038583Y-033134
X038583Y-035433
X038583Y-039433
T7
X027267Y-03502
T0
M30
