M48
; DRILL file {KiCad (5.1.2)-1} date 12/10/2019 5:53:57 PM
; FORMAT={-:-/ absolute / inch / decimal}
; #@! TF.CreationDate,2019-12-10T17:53:57-08:00
; #@! TF.GenerationSoftware,Kicad,Pcbnew,(5.1.2)-1
; #@! TF.FileFunction,Plated,1,2,PTH
FMAT,2
INCH
T1C0.0157
T2C0.0236
T3C0.0315
T4C0.0354
T5C0.0394
T6C0.0472
T7C0.1260
%
G90
G05
T1
X2.9528Y-2.5433
X3.0039Y-2.5433
T2
X1.1417Y-2.878
X1.2205Y-2.878
T3
X1.7759Y-1.9488
X1.8759Y-1.9488
X1.9759Y-1.9488
X3.4927Y-3.5599
X3.4927Y-3.9599
X2.6181Y-2.1094
X2.6181Y-2.4094
X1.687Y-3.4783
X1.7854Y-3.4783
X2.5152Y-3.6594
X2.5152Y-3.9594
X1.5197Y-3.6606
X1.5197Y-3.9606
X2.4606Y-2.1094
X2.4606Y-2.4094
X3.0512Y-3.4783
X3.1496Y-3.4783
X3.0546Y-3.6615
X3.153Y-3.6615
X3.1929Y-2.7205
X3.2913Y-2.7205
X2.0909Y-1.9488
X2.1909Y-1.9488
X2.2909Y-1.9488
X2.3161Y-3.6594
X2.3161Y-3.9594
X3.8189Y-2.7165
X3.9173Y-2.7165
X2.9134Y-3.6606
X2.9134Y-3.9606
X1.1073Y-3.5679
X1.2057Y-3.5679
X2.1457Y-2.1094
X2.1457Y-2.4094
X2.8386Y-2.7205
X2.937Y-2.7205
X2.5984Y-2.5591
X2.5984Y-2.8591
X1.6142Y-2.5787
X1.7126Y-2.5787
X2.3031Y-2.1094
X2.3031Y-2.4094
X1.1132Y-2.7008
X1.2116Y-2.7008
X1.0658Y-3.7565
X1.1658Y-3.7565
X1.2658Y-3.7565
X1.8701Y-2.5787
X1.9685Y-2.5787
X1.4609Y-1.9488
X1.5609Y-1.9488
X1.6609Y-1.9488
X2.117Y-3.6606
X2.117Y-3.9606
X1.1624Y-4.0945
X1.1624Y-4.1929
X1.7188Y-3.6606
X1.7188Y-3.9606
X1.3772Y-3.0315
X1.3772Y-3.3315
X1.4772Y-3.0315
X1.4772Y-3.3315
X1.5772Y-3.0315
X1.5772Y-3.3315
X1.6772Y-3.0315
X1.6772Y-3.3315
X1.7772Y-3.0315
X1.7772Y-3.3315
X1.8772Y-3.0315
X1.8772Y-3.3315
X1.9772Y-3.0315
X1.9772Y-3.3315
X2.0772Y-3.0315
X2.0772Y-3.3315
X2.1772Y-3.0315
X2.1772Y-3.3315
X2.2772Y-3.0315
X2.2772Y-3.3315
X2.3772Y-3.0315
X2.3772Y-3.3315
X2.4772Y-3.0315
X2.4772Y-3.3315
X2.5772Y-3.0315
X2.5772Y-3.3315
X2.6772Y-3.0315
X2.6772Y-3.3315
X1.6969Y-2.7953
X1.8898Y-2.7953
X2.4058Y-1.9488
X2.5058Y-1.9488
X2.6058Y-1.9488
X1.9961Y-3.4783
X2.0945Y-3.4783
X2.7143Y-3.6606
X2.7143Y-3.9606
X1.9179Y-3.6606
X1.9179Y-3.9606
X3.5472Y-2.7205
X3.6457Y-2.7205
X1.6732Y-2.1094
X1.6732Y-2.4094
X2.2835Y-3.4783
X2.3819Y-3.4783
X3.3181Y-3.0276
X3.3181Y-3.3276
X3.4181Y-3.0276
X3.4181Y-3.3276
X3.5181Y-3.0276
X3.5181Y-3.3276
X3.6181Y-3.0276
X3.6181Y-3.3276
X1.4173Y-2.5583
X1.4173Y-2.8583
X1.378Y-3.4783
X1.4764Y-3.4783
X2.8575Y-3.0276
X2.8575Y-3.3276
X2.9575Y-3.0276
X2.9575Y-3.3276
X3.0575Y-3.0276
X3.0575Y-3.3276
X3.1575Y-3.0276
X3.1575Y-3.3276
X1.9882Y-2.1094
X1.9882Y-2.4094
X3.6614Y-3.5615
X3.6614Y-3.9615
X1.8307Y-2.1094
X1.8307Y-2.4094
X3.3239Y-3.5599
X3.3239Y-3.9599
X1.5157Y-2.1094
X1.5157Y-2.4094
T4
X2.185Y-2.5543
X2.185Y-2.8543
X2.3819Y-2.5543
X2.3819Y-2.8543
T5
X3.4583Y-4.1339
X3.4583Y-4.2339
X3.5583Y-4.1339
X3.5583Y-4.2339
X3.6583Y-4.1339
X3.6583Y-4.2339
X3.7583Y-4.1339
X3.7583Y-4.2339
X3.8583Y-4.1339
X3.8583Y-4.2339
X2.7565Y-1.9525
X2.8565Y-1.9525
X2.9565Y-1.9525
X3.0565Y-1.9525
X3.1565Y-1.9525
X3.2565Y-1.9525
X3.3565Y-1.9525
X3.4565Y-1.9525
X3.5565Y-1.9525
X3.6565Y-1.9525
X1.4176Y-4.2165
X1.5176Y-4.2165
X1.6176Y-4.2165
X1.7176Y-4.2165
X1.8176Y-4.2165
X1.9176Y-4.2165
X2.0176Y-4.2165
X2.1176Y-4.2165
X2.2176Y-4.2165
X2.3176Y-4.2165
X2.4176Y-4.2165
X2.5176Y-4.2165
X2.6176Y-4.2165
X2.7176Y-4.2165
X2.8176Y-4.2165
X2.9176Y-4.2165
X3.9094Y-2.2213
X3.9094Y-2.3213
X3.9094Y-2.4213
X1.1122Y-3.126
X1.1122Y-3.226
X1.1122Y-3.326
X1.2122Y-3.126
X1.2122Y-3.226
X1.2122Y-3.326
T6
X3.8583Y-2.9134
X3.8583Y-3.3134
X3.8583Y-3.5433
X3.8583Y-3.9433
T7
X2.7267Y-3.502
T0
M30
