M48
;DRILL file {KiCad (5.0.0)} date 04/04/19 01:40:44
;FORMAT={-:-/ absolute / inch / decimal}
FMAT,2
INCH,TZ
T1C0.0157
T2C0.0236
T3C0.0315
T4C0.0354
T5C0.0394
T6C0.0472
T7C0.1260
%
G90
G05
M72
T1
X2.9528Y-2.5433
X3.0039Y-2.5433
T2
X1.1417Y-2.878
X1.2205Y-2.878
X1.5354Y-1.9488
X1.5854Y-1.9488
X1.6354Y-1.9488
X2.1654Y-1.9488
X2.2154Y-1.9488
X2.2654Y-1.9488
X1.8504Y-1.9488
X1.9004Y-1.9488
X1.9504Y-1.9488
X2.4803Y-1.9488
X2.5303Y-1.9488
X2.5803Y-1.9488
X1.1024Y-3.7402
X1.1524Y-3.7402
X1.2024Y-3.7402
T3
X1.5197Y-3.6606
X1.5197Y-3.9606
X3.1929Y-2.7205
X3.2913Y-2.7205
X2.4606Y-2.1094
X2.4606Y-2.4094
X1.1624Y-4.0945
X1.1624Y-4.1929
X1.6732Y-2.1094
X1.6732Y-2.4094
X1.9961Y-3.4783
X2.0945Y-3.4783
X2.5152Y-3.6594
X2.5152Y-3.9594
X1.1073Y-3.5679
X1.2057Y-3.5679
X2.6181Y-2.1094
X2.6181Y-2.4094
X3.0512Y-3.4783
X3.1496Y-3.4783
X1.8307Y-2.1094
X1.8307Y-2.4094
X1.3772Y-3.0315
X1.3772Y-3.3315
X1.4772Y-3.0315
X1.4772Y-3.3315
X1.5772Y-3.0315
X1.5772Y-3.3315
X1.6772Y-3.0315
X1.6772Y-3.3315
X1.7772Y-3.0315
X1.7772Y-3.3315
X1.8772Y-3.0315
X1.8772Y-3.3315
X1.9772Y-3.0315
X1.9772Y-3.3315
X2.0772Y-3.0315
X2.0772Y-3.3315
X2.1772Y-3.0315
X2.1772Y-3.3315
X2.2772Y-3.0315
X2.2772Y-3.3315
X2.3772Y-3.0315
X2.3772Y-3.3315
X2.4772Y-3.0315
X2.4772Y-3.3315
X2.5772Y-3.0315
X2.5772Y-3.3315
X2.6772Y-3.0315
X2.6772Y-3.3315
X2.117Y-3.6606
X2.117Y-3.9606
X1.687Y-3.4783
X1.7854Y-3.4783
X2.5984Y-2.5591
X2.5984Y-2.8591
X2.8386Y-2.7205
X2.937Y-2.7205
X3.4646Y-3.6594
X3.4646Y-3.9594
X2.7143Y-3.6606
X2.7143Y-3.9606
X1.8701Y-2.5787
X1.9685Y-2.5787
X2.9134Y-3.6606
X2.9134Y-3.9606
X1.9179Y-3.6606
X1.9179Y-3.9606
X1.6969Y-2.7953
X1.8898Y-2.7953
X3.4252Y-3.4783
X3.5236Y-3.4783
X1.4173Y-2.5583
X1.4173Y-2.8583
X3.6614Y-3.6606
X3.6614Y-3.9606
X2.1457Y-2.1094
X2.1457Y-2.4094
X2.3031Y-2.1094
X2.3031Y-2.4094
X1.378Y-3.4783
X1.4764Y-3.4783
X3.2677Y-3.6594
X3.2677Y-3.9594
X1.7188Y-3.6606
X1.7188Y-3.9606
X1.6142Y-2.5787
X1.7126Y-2.5787
X1.5157Y-2.1094
X1.5157Y-2.4094
X1.1132Y-2.7008
X1.2116Y-2.7008
X2.8575Y-3.0276
X2.8575Y-3.3276
X2.9575Y-3.0276
X2.9575Y-3.3276
X3.0575Y-3.0276
X3.0575Y-3.3276
X3.1575Y-3.0276
X3.1575Y-3.3276
X2.2835Y-3.4783
X2.3819Y-3.4783
X2.3161Y-3.6594
X2.3161Y-3.9594
X3.8189Y-2.7165
X3.9173Y-2.7165
X1.9882Y-2.1094
X1.9882Y-2.4094
X3.5472Y-2.7205
X3.6457Y-2.7205
X3.3181Y-3.0276
X3.3181Y-3.3276
X3.4181Y-3.0276
X3.4181Y-3.3276
X3.5181Y-3.0276
X3.5181Y-3.3276
X3.6181Y-3.0276
X3.6181Y-3.3276
T4
X2.3819Y-2.5543
X2.3819Y-2.8543
X2.185Y-2.5543
X2.185Y-2.8543
T5
X2.7565Y-1.9525
X2.8565Y-1.9525
X2.9565Y-1.9525
X3.0565Y-1.9525
X3.1565Y-1.9525
X3.2565Y-1.9525
X3.3565Y-1.9525
X3.4565Y-1.9525
X3.5565Y-1.9525
X3.6565Y-1.9525
X3.9094Y-2.2213
X3.9094Y-2.3213
X3.9094Y-2.4213
X1.4376Y-4.2163
X1.5376Y-4.2163
X1.6376Y-4.2163
X1.7376Y-4.2163
X1.8376Y-4.2163
X1.9376Y-4.2163
X2.0376Y-4.2163
X2.1376Y-4.2163
X2.2376Y-4.2163
X2.3376Y-4.2163
X2.4376Y-4.2163
X2.5376Y-4.2163
X2.6376Y-4.2163
X2.7376Y-4.2163
X2.8376Y-4.2163
X1.1122Y-3.126
X1.1122Y-3.226
X1.1122Y-3.326
X1.2122Y-3.126
X1.2122Y-3.226
X1.2122Y-3.326
X3.4583Y-4.1339
X3.4583Y-4.2339
X3.5583Y-4.1339
X3.5583Y-4.2339
X3.6583Y-4.1339
X3.6583Y-4.2339
X3.7583Y-4.1339
X3.7583Y-4.2339
X3.8583Y-4.1339
X3.8583Y-4.2339
T6
X3.8583Y-3.5433
X3.8583Y-3.9433
X3.8583Y-2.9134
X3.8583Y-3.3134
T7
X2.7362Y-3.5059
T0
M30
