G04 #@! TF.GenerationSoftware,KiCad,Pcbnew,(5.1.2)-1*
G04 #@! TF.CreationDate,2021-04-14T19:23:14-07:00*
G04 #@! TF.ProjectId,kicad-cpu-board,6b696361-642d-4637-9075-2d626f617264,rev?*
G04 #@! TF.SameCoordinates,Original*
G04 #@! TF.FileFunction,Legend,Top*
G04 #@! TF.FilePolarity,Positive*
%FSLAX46Y46*%
G04 Gerber Fmt 4.6, Leading zero omitted, Abs format (unit mm)*
G04 Created by KiCad (PCBNEW (5.1.2)-1) date 2021-04-14 19:23:14*
%MOMM*%
%LPD*%
G04 APERTURE LIST*
%ADD10C,0.150000*%
%ADD11C,0.200000*%
%ADD12C,1.000000*%
%ADD13C,0.300000*%
%ADD14C,0.120000*%
G04 APERTURE END LIST*
D10*
X86487000Y-108966000D02*
X86487000Y-110744000D01*
X99314000Y-110744000D02*
X99330000Y-108870000D01*
X93980000Y-110744000D02*
X99314000Y-110744000D01*
X93980000Y-109855000D02*
X93980000Y-110744000D01*
X91567000Y-109855000D02*
X93980000Y-109855000D01*
X91567000Y-110744000D02*
X91567000Y-109855000D01*
X86487000Y-110744000D02*
X91567000Y-110744000D01*
D11*
X84328000Y-108331000D02*
X84328000Y-103331000D01*
D12*
X26970000Y-56434000D02*
G75*
G03X26970000Y-56434000I-300000J0D01*
G01*
X93264000Y-74930000D02*
G75*
G03X93264000Y-74930000I-300000J0D01*
G01*
X81580000Y-74676000D02*
G75*
G03X81580000Y-74676000I-300000J0D01*
G01*
X69388000Y-74930000D02*
G75*
G03X69388000Y-74930000I-300000J0D01*
G01*
D11*
X80324761Y-106282380D02*
X79991428Y-105806190D01*
X79753333Y-106282380D02*
X79753333Y-105282380D01*
X80134285Y-105282380D01*
X80229523Y-105330000D01*
X80277142Y-105377619D01*
X80324761Y-105472857D01*
X80324761Y-105615714D01*
X80277142Y-105710952D01*
X80229523Y-105758571D01*
X80134285Y-105806190D01*
X79753333Y-105806190D01*
X80753333Y-105758571D02*
X81086666Y-105758571D01*
X81229523Y-106282380D02*
X80753333Y-106282380D01*
X80753333Y-105282380D01*
X81229523Y-105282380D01*
X81658095Y-106282380D02*
X81658095Y-105282380D01*
X81896190Y-105282380D01*
X82039047Y-105330000D01*
X82134285Y-105425238D01*
X82181904Y-105520476D01*
X82229523Y-105710952D01*
X82229523Y-105853809D01*
X82181904Y-106044285D01*
X82134285Y-106139523D01*
X82039047Y-106234761D01*
X81896190Y-106282380D01*
X81658095Y-106282380D01*
X77515238Y-107934761D02*
X77658095Y-107982380D01*
X77896190Y-107982380D01*
X77991428Y-107934761D01*
X78039047Y-107887142D01*
X78086666Y-107791904D01*
X78086666Y-107696666D01*
X78039047Y-107601428D01*
X77991428Y-107553809D01*
X77896190Y-107506190D01*
X77705714Y-107458571D01*
X77610476Y-107410952D01*
X77562857Y-107363333D01*
X77515238Y-107268095D01*
X77515238Y-107172857D01*
X77562857Y-107077619D01*
X77610476Y-107030000D01*
X77705714Y-106982380D01*
X77943809Y-106982380D01*
X78086666Y-107030000D01*
X78372380Y-106982380D02*
X78943809Y-106982380D01*
X78658095Y-107982380D02*
X78658095Y-106982380D01*
X79848571Y-107982380D02*
X79515238Y-107506190D01*
X79277142Y-107982380D02*
X79277142Y-106982380D01*
X79658095Y-106982380D01*
X79753333Y-107030000D01*
X79800952Y-107077619D01*
X79848571Y-107172857D01*
X79848571Y-107315714D01*
X79800952Y-107410952D01*
X79753333Y-107458571D01*
X79658095Y-107506190D01*
X79277142Y-107506190D01*
X80277142Y-107982380D02*
X80277142Y-106982380D01*
X80753333Y-107982380D02*
X80753333Y-106982380D01*
X81134285Y-106982380D01*
X81229523Y-107030000D01*
X81277142Y-107077619D01*
X81324761Y-107172857D01*
X81324761Y-107315714D01*
X81277142Y-107410952D01*
X81229523Y-107458571D01*
X81134285Y-107506190D01*
X80753333Y-107506190D01*
X81753333Y-107458571D02*
X82086666Y-107458571D01*
X82229523Y-107982380D02*
X81753333Y-107982380D01*
X81753333Y-106982380D01*
X82229523Y-106982380D01*
D13*
X77240142Y-104374142D02*
X78383000Y-104374142D01*
X79883000Y-104945571D02*
X79025857Y-104945571D01*
X79454428Y-104945571D02*
X79454428Y-103445571D01*
X79311571Y-103659857D01*
X79168714Y-103802714D01*
X79025857Y-103874142D01*
X80454428Y-103588428D02*
X80525857Y-103517000D01*
X80668714Y-103445571D01*
X81025857Y-103445571D01*
X81168714Y-103517000D01*
X81240142Y-103588428D01*
X81311571Y-103731285D01*
X81311571Y-103874142D01*
X81240142Y-104088428D01*
X80383000Y-104945571D01*
X81311571Y-104945571D01*
X81740142Y-103445571D02*
X82240142Y-104945571D01*
X82740142Y-103445571D01*
X25471428Y-109992857D02*
X25971428Y-109992857D01*
X26185714Y-110778571D02*
X25471428Y-110778571D01*
X25471428Y-109278571D01*
X26185714Y-109278571D01*
X26685714Y-109278571D02*
X27685714Y-110778571D01*
X27685714Y-109278571D02*
X26685714Y-110778571D01*
X28042857Y-109278571D02*
X28900000Y-109278571D01*
X28471428Y-110778571D02*
X28471428Y-109278571D01*
X30257142Y-110778571D02*
X29757142Y-110064285D01*
X29400000Y-110778571D02*
X29400000Y-109278571D01*
X29971428Y-109278571D01*
X30114285Y-109350000D01*
X30185714Y-109421428D01*
X30257142Y-109564285D01*
X30257142Y-109778571D01*
X30185714Y-109921428D01*
X30114285Y-109992857D01*
X29971428Y-110064285D01*
X29400000Y-110064285D01*
X30828571Y-110350000D02*
X31542857Y-110350000D01*
X30685714Y-110778571D02*
X31185714Y-109278571D01*
X31685714Y-110778571D01*
X32900000Y-110778571D02*
X32185714Y-110778571D01*
X32185714Y-109278571D01*
X33400000Y-110778571D02*
X33400000Y-109278571D01*
X34614285Y-109992857D02*
X34114285Y-109992857D01*
X34114285Y-110778571D02*
X34114285Y-109278571D01*
X34828571Y-109278571D01*
X35400000Y-109992857D02*
X35900000Y-109992857D01*
X36114285Y-110778571D02*
X35400000Y-110778571D01*
X35400000Y-109278571D01*
X36114285Y-109278571D01*
X37900000Y-110778571D02*
X37900000Y-109278571D01*
X38614285Y-110778571D02*
X38614285Y-109278571D01*
X39471428Y-110778571D01*
X39471428Y-109278571D01*
X40114285Y-110707142D02*
X40328571Y-110778571D01*
X40685714Y-110778571D01*
X40828571Y-110707142D01*
X40900000Y-110635714D01*
X40971428Y-110492857D01*
X40971428Y-110350000D01*
X40900000Y-110207142D01*
X40828571Y-110135714D01*
X40685714Y-110064285D01*
X40400000Y-109992857D01*
X40257142Y-109921428D01*
X40185714Y-109850000D01*
X40114285Y-109707142D01*
X40114285Y-109564285D01*
X40185714Y-109421428D01*
X40257142Y-109350000D01*
X40400000Y-109278571D01*
X40757142Y-109278571D01*
X40971428Y-109350000D01*
X41400000Y-109278571D02*
X42257142Y-109278571D01*
X41828571Y-110778571D02*
X41828571Y-109278571D01*
X43614285Y-110778571D02*
X43114285Y-110064285D01*
X42757142Y-110778571D02*
X42757142Y-109278571D01*
X43328571Y-109278571D01*
X43471428Y-109350000D01*
X43542857Y-109421428D01*
X43614285Y-109564285D01*
X43614285Y-109778571D01*
X43542857Y-109921428D01*
X43471428Y-109992857D01*
X43328571Y-110064285D01*
X42757142Y-110064285D01*
X44257142Y-109278571D02*
X44257142Y-110492857D01*
X44328571Y-110635714D01*
X44400000Y-110707142D01*
X44542857Y-110778571D01*
X44828571Y-110778571D01*
X44971428Y-110707142D01*
X45042857Y-110635714D01*
X45114285Y-110492857D01*
X45114285Y-109278571D01*
X45828571Y-110778571D02*
X45828571Y-109278571D01*
X46328571Y-110350000D01*
X46828571Y-109278571D01*
X46828571Y-110778571D01*
X47542857Y-109992857D02*
X48042857Y-109992857D01*
X48257142Y-110778571D02*
X47542857Y-110778571D01*
X47542857Y-109278571D01*
X48257142Y-109278571D01*
X48900000Y-110778571D02*
X48900000Y-109278571D01*
X49757142Y-110778571D01*
X49757142Y-109278571D01*
X50257142Y-109278571D02*
X51114285Y-109278571D01*
X50685714Y-110778571D02*
X50685714Y-109278571D01*
X51542857Y-110707142D02*
X51757142Y-110778571D01*
X52114285Y-110778571D01*
X52257142Y-110707142D01*
X52328571Y-110635714D01*
X52400000Y-110492857D01*
X52400000Y-110350000D01*
X52328571Y-110207142D01*
X52257142Y-110135714D01*
X52114285Y-110064285D01*
X51828571Y-109992857D01*
X51685714Y-109921428D01*
X51614285Y-109850000D01*
X51542857Y-109707142D01*
X51542857Y-109564285D01*
X51614285Y-109421428D01*
X51685714Y-109350000D01*
X51828571Y-109278571D01*
X52185714Y-109278571D01*
X52400000Y-109350000D01*
X75327142Y-109660571D02*
X75684285Y-110660571D01*
X76041428Y-109660571D01*
X76541428Y-109303428D02*
X76612857Y-109232000D01*
X76755714Y-109160571D01*
X77112857Y-109160571D01*
X77255714Y-109232000D01*
X77327142Y-109303428D01*
X77398571Y-109446285D01*
X77398571Y-109589142D01*
X77327142Y-109803428D01*
X76470000Y-110660571D01*
X77398571Y-110660571D01*
X78041428Y-110517714D02*
X78112857Y-110589142D01*
X78041428Y-110660571D01*
X77970000Y-110589142D01*
X78041428Y-110517714D01*
X78041428Y-110660571D01*
X78612857Y-109160571D02*
X79541428Y-109160571D01*
X79041428Y-109732000D01*
X79255714Y-109732000D01*
X79398571Y-109803428D01*
X79470000Y-109874857D01*
X79541428Y-110017714D01*
X79541428Y-110374857D01*
X79470000Y-110517714D01*
X79398571Y-110589142D01*
X79255714Y-110660571D01*
X78827142Y-110660571D01*
X78684285Y-110589142D01*
X78612857Y-110517714D01*
X55797714Y-110707142D02*
X56012000Y-110778571D01*
X56369142Y-110778571D01*
X56512000Y-110707142D01*
X56583428Y-110635714D01*
X56654857Y-110492857D01*
X56654857Y-110350000D01*
X56583428Y-110207142D01*
X56512000Y-110135714D01*
X56369142Y-110064285D01*
X56083428Y-109992857D01*
X55940571Y-109921428D01*
X55869142Y-109850000D01*
X55797714Y-109707142D01*
X55797714Y-109564285D01*
X55869142Y-109421428D01*
X55940571Y-109350000D01*
X56083428Y-109278571D01*
X56440571Y-109278571D01*
X56654857Y-109350000D01*
X57297714Y-109278571D02*
X57297714Y-110492857D01*
X57369142Y-110635714D01*
X57440571Y-110707142D01*
X57583428Y-110778571D01*
X57869142Y-110778571D01*
X58012000Y-110707142D01*
X58083428Y-110635714D01*
X58154857Y-110492857D01*
X58154857Y-109278571D01*
X58869142Y-110778571D02*
X58869142Y-109278571D01*
X59440571Y-109278571D01*
X59583428Y-109350000D01*
X59654857Y-109421428D01*
X59726285Y-109564285D01*
X59726285Y-109778571D01*
X59654857Y-109921428D01*
X59583428Y-109992857D01*
X59440571Y-110064285D01*
X58869142Y-110064285D01*
X60369142Y-109992857D02*
X60869142Y-109992857D01*
X61083428Y-110778571D02*
X60369142Y-110778571D01*
X60369142Y-109278571D01*
X61083428Y-109278571D01*
X62583428Y-110778571D02*
X62083428Y-110064285D01*
X61726285Y-110778571D02*
X61726285Y-109278571D01*
X62297714Y-109278571D01*
X62440571Y-109350000D01*
X62512000Y-109421428D01*
X62583428Y-109564285D01*
X62583428Y-109778571D01*
X62512000Y-109921428D01*
X62440571Y-109992857D01*
X62297714Y-110064285D01*
X61726285Y-110064285D01*
X64297714Y-110707142D02*
X64512000Y-110778571D01*
X64869142Y-110778571D01*
X65012000Y-110707142D01*
X65083428Y-110635714D01*
X65154857Y-110492857D01*
X65154857Y-110350000D01*
X65083428Y-110207142D01*
X65012000Y-110135714D01*
X64869142Y-110064285D01*
X64583428Y-109992857D01*
X64440571Y-109921428D01*
X64369142Y-109850000D01*
X64297714Y-109707142D01*
X64297714Y-109564285D01*
X64369142Y-109421428D01*
X64440571Y-109350000D01*
X64583428Y-109278571D01*
X64940571Y-109278571D01*
X65154857Y-109350000D01*
X65797714Y-110778571D02*
X65797714Y-109278571D01*
X66369142Y-109278571D02*
X67369142Y-110778571D01*
X67369142Y-109278571D02*
X66369142Y-110778571D01*
X67726285Y-109278571D02*
X68583428Y-109278571D01*
X68154857Y-110778571D02*
X68154857Y-109278571D01*
X69083428Y-109992857D02*
X69583428Y-109992857D01*
X69797714Y-110778571D02*
X69083428Y-110778571D01*
X69083428Y-109278571D01*
X69797714Y-109278571D01*
X70440571Y-109992857D02*
X70940571Y-109992857D01*
X71154857Y-110778571D02*
X70440571Y-110778571D01*
X70440571Y-109278571D01*
X71154857Y-109278571D01*
X71797714Y-110778571D02*
X71797714Y-109278571D01*
X72654857Y-110778571D01*
X72654857Y-109278571D01*
D14*
X27811320Y-97265100D02*
X31411320Y-97265100D01*
X27287136Y-96537895D02*
G75*
G03X27811320Y-97265100I2324184J1122795D01*
G01*
X27254920Y-94316293D02*
G75*
G02X29611320Y-92815100I2356400J-1098807D01*
G01*
X31967720Y-94316293D02*
G75*
G03X29611320Y-92815100I-2356400J-1098807D01*
G01*
X31935504Y-96537895D02*
G75*
G02X31411320Y-97265100I-2324184J1122795D01*
G01*
X53847700Y-51350000D02*
X57447700Y-51350000D01*
X53323516Y-50622795D02*
G75*
G03X53847700Y-51350000I2324184J1122795D01*
G01*
X53291300Y-48401193D02*
G75*
G02X55647700Y-46900000I2356400J-1098807D01*
G01*
X58004100Y-48401193D02*
G75*
G03X55647700Y-46900000I-2356400J-1098807D01*
G01*
X57971884Y-50622795D02*
G75*
G02X57447700Y-51350000I-2324184J1122795D01*
G01*
X37847700Y-51350000D02*
X41447700Y-51350000D01*
X37323516Y-50622795D02*
G75*
G03X37847700Y-51350000I2324184J1122795D01*
G01*
X37291300Y-48401193D02*
G75*
G02X39647700Y-46900000I2356400J-1098807D01*
G01*
X42004100Y-48401193D02*
G75*
G03X39647700Y-46900000I-2356400J-1098807D01*
G01*
X41971884Y-50622795D02*
G75*
G02X41447700Y-51350000I-2324184J1122795D01*
G01*
X45847700Y-51350000D02*
X49447700Y-51350000D01*
X45323516Y-50622795D02*
G75*
G03X45847700Y-51350000I2324184J1122795D01*
G01*
X45291300Y-48401193D02*
G75*
G02X47647700Y-46900000I2356400J-1098807D01*
G01*
X50004100Y-48401193D02*
G75*
G03X47647700Y-46900000I-2356400J-1098807D01*
G01*
X49971884Y-50622795D02*
G75*
G02X49447700Y-51350000I-2324184J1122795D01*
G01*
X61847700Y-51350000D02*
X65447700Y-51350000D01*
X61323516Y-50622795D02*
G75*
G03X61847700Y-51350000I2324184J1122795D01*
G01*
X61291300Y-48401193D02*
G75*
G02X63647700Y-46900000I2356400J-1098807D01*
G01*
X66004100Y-48401193D02*
G75*
G03X63647700Y-46900000I-2356400J-1098807D01*
G01*
X65971884Y-50622795D02*
G75*
G02X65447700Y-51350000I-2324184J1122795D01*
G01*
X80396840Y-93998100D02*
X80396840Y-94062100D01*
X80396840Y-91942100D02*
X80396840Y-92006100D01*
X77276840Y-93998100D02*
X77276840Y-94062100D01*
X77276840Y-91942100D02*
X77276840Y-92006100D01*
X77276840Y-94062100D02*
X80396840Y-94062100D01*
X77276840Y-91942100D02*
X80396840Y-91942100D01*
X90123530Y-92141460D02*
X87303530Y-92141460D01*
X87303530Y-92141460D02*
X87303530Y-98861460D01*
X87303530Y-98861460D02*
X90123530Y-98861460D01*
X90123530Y-98861460D02*
X90123530Y-92141460D01*
X88713530Y-91401460D02*
X88713530Y-92141460D01*
X88713530Y-99601460D02*
X88713530Y-98861460D01*
X91590000Y-98901460D02*
X94410000Y-98901460D01*
X94410000Y-98901460D02*
X94410000Y-92181460D01*
X94410000Y-92181460D02*
X91590000Y-92181460D01*
X91590000Y-92181460D02*
X91590000Y-98901460D01*
X93000000Y-99641460D02*
X93000000Y-98901460D01*
X93000000Y-91441460D02*
X93000000Y-92181460D01*
X85837060Y-92141460D02*
X83017060Y-92141460D01*
X83017060Y-92141460D02*
X83017060Y-98861460D01*
X83017060Y-98861460D02*
X85837060Y-98861460D01*
X85837060Y-98861460D02*
X85837060Y-92141460D01*
X84427060Y-91401460D02*
X84427060Y-92141460D01*
X84427060Y-99601460D02*
X84427060Y-98861460D01*
X81530000Y-81710000D02*
G75*
G02X81530000Y-79710000I0J1000000D01*
G01*
X81530000Y-79710000D02*
X81530000Y-78060000D01*
X81530000Y-78060000D02*
X71250000Y-78060000D01*
X71250000Y-78060000D02*
X71250000Y-83360000D01*
X71250000Y-83360000D02*
X81530000Y-83360000D01*
X81530000Y-83360000D02*
X81530000Y-81710000D01*
X95690000Y-67690000D02*
X100810000Y-67690000D01*
X95690000Y-70310000D02*
X100810000Y-70310000D01*
X95690000Y-67690000D02*
X95690000Y-70310000D01*
X100810000Y-67690000D02*
X100810000Y-70310000D01*
X31935001Y-89315001D02*
X31935001Y-91935001D01*
X26815001Y-89315001D02*
X26815001Y-91935001D01*
X26815001Y-91935001D02*
X31935001Y-91935001D01*
X26815001Y-89315001D02*
X31935001Y-89315001D01*
X69330000Y-83460000D02*
X69330000Y-81810000D01*
X33650000Y-83460000D02*
X69330000Y-83460000D01*
X33650000Y-78160000D02*
X33650000Y-83460000D01*
X69330000Y-78160000D02*
X33650000Y-78160000D01*
X69330000Y-79810000D02*
X69330000Y-78160000D01*
X69330000Y-81810000D02*
G75*
G02X69330000Y-79810000I0J1000000D01*
G01*
X76200000Y-69750000D02*
X76200000Y-68450000D01*
X76800000Y-69100000D02*
X75600000Y-69100000D01*
X70149000Y-69568000D02*
X70149000Y-68632000D01*
X70189000Y-69776000D02*
X70189000Y-68424000D01*
X70229000Y-69934000D02*
X70229000Y-68266000D01*
X70269000Y-70066000D02*
X70269000Y-68134000D01*
X70309000Y-70181000D02*
X70309000Y-68019000D01*
X70349000Y-70284000D02*
X70349000Y-67916000D01*
X70389000Y-70378000D02*
X70389000Y-67822000D01*
X70429000Y-70464000D02*
X70429000Y-67736000D01*
X70469000Y-70545000D02*
X70469000Y-67655000D01*
X70509000Y-70620000D02*
X70509000Y-67580000D01*
X70549000Y-70691000D02*
X70549000Y-67509000D01*
X70589000Y-70758000D02*
X70589000Y-67442000D01*
X70629000Y-70821000D02*
X70629000Y-67379000D01*
X70669000Y-70881000D02*
X70669000Y-67319000D01*
X70709000Y-70939000D02*
X70709000Y-67261000D01*
X70749000Y-70994000D02*
X70749000Y-67206000D01*
X70789000Y-71046000D02*
X70789000Y-67154000D01*
X70829000Y-71097000D02*
X70829000Y-67103000D01*
X70869000Y-71145000D02*
X70869000Y-67055000D01*
X70909000Y-71192000D02*
X70909000Y-67008000D01*
X70949000Y-71237000D02*
X70949000Y-66963000D01*
X70989000Y-71280000D02*
X70989000Y-66920000D01*
X71029000Y-71322000D02*
X71029000Y-66878000D01*
X71069000Y-71362000D02*
X71069000Y-66838000D01*
X71109000Y-71401000D02*
X71109000Y-66799000D01*
X71149000Y-68120000D02*
X71149000Y-66761000D01*
X71149000Y-71439000D02*
X71149000Y-70080000D01*
X71189000Y-68120000D02*
X71189000Y-66725000D01*
X71189000Y-71475000D02*
X71189000Y-70080000D01*
X71229000Y-68120000D02*
X71229000Y-66689000D01*
X71229000Y-71511000D02*
X71229000Y-70080000D01*
X71269000Y-68120000D02*
X71269000Y-66655000D01*
X71269000Y-71545000D02*
X71269000Y-70080000D01*
X71309000Y-68120000D02*
X71309000Y-66622000D01*
X71309000Y-71578000D02*
X71309000Y-70080000D01*
X71349000Y-68120000D02*
X71349000Y-66590000D01*
X71349000Y-71610000D02*
X71349000Y-70080000D01*
X71389000Y-68120000D02*
X71389000Y-66560000D01*
X71389000Y-71640000D02*
X71389000Y-70080000D01*
X71429000Y-68120000D02*
X71429000Y-66530000D01*
X71429000Y-71670000D02*
X71429000Y-70080000D01*
X71469000Y-68120000D02*
X71469000Y-66501000D01*
X71469000Y-71699000D02*
X71469000Y-70080000D01*
X71509000Y-68120000D02*
X71509000Y-66473000D01*
X71509000Y-71727000D02*
X71509000Y-70080000D01*
X71549000Y-68120000D02*
X71549000Y-66446000D01*
X71549000Y-71754000D02*
X71549000Y-70080000D01*
X71589000Y-68120000D02*
X71589000Y-66419000D01*
X71589000Y-71781000D02*
X71589000Y-70080000D01*
X71629000Y-68120000D02*
X71629000Y-66394000D01*
X71629000Y-71806000D02*
X71629000Y-70080000D01*
X71669000Y-68120000D02*
X71669000Y-66369000D01*
X71669000Y-71831000D02*
X71669000Y-70080000D01*
X71709000Y-68120000D02*
X71709000Y-66345000D01*
X71709000Y-71855000D02*
X71709000Y-70080000D01*
X71749000Y-68120000D02*
X71749000Y-66322000D01*
X71749000Y-71878000D02*
X71749000Y-70080000D01*
X71789000Y-68120000D02*
X71789000Y-66300000D01*
X71789000Y-71900000D02*
X71789000Y-70080000D01*
X71829000Y-68120000D02*
X71829000Y-66278000D01*
X71829000Y-71922000D02*
X71829000Y-70080000D01*
X71869000Y-68120000D02*
X71869000Y-66257000D01*
X71869000Y-71943000D02*
X71869000Y-70080000D01*
X71909000Y-68120000D02*
X71909000Y-66237000D01*
X71909000Y-71963000D02*
X71909000Y-70080000D01*
X71949000Y-68120000D02*
X71949000Y-66218000D01*
X71949000Y-71982000D02*
X71949000Y-70080000D01*
X71989000Y-68120000D02*
X71989000Y-66199000D01*
X71989000Y-72001000D02*
X71989000Y-70080000D01*
X72029000Y-68120000D02*
X72029000Y-66181000D01*
X72029000Y-72019000D02*
X72029000Y-70080000D01*
X72069000Y-68120000D02*
X72069000Y-66163000D01*
X72069000Y-72037000D02*
X72069000Y-70080000D01*
X72109000Y-68120000D02*
X72109000Y-66146000D01*
X72109000Y-72054000D02*
X72109000Y-70080000D01*
X72149000Y-68120000D02*
X72149000Y-66130000D01*
X72149000Y-72070000D02*
X72149000Y-70080000D01*
X72189000Y-68120000D02*
X72189000Y-66114000D01*
X72189000Y-72086000D02*
X72189000Y-70080000D01*
X72229000Y-68120000D02*
X72229000Y-66099000D01*
X72229000Y-72101000D02*
X72229000Y-70080000D01*
X72269000Y-68120000D02*
X72269000Y-66085000D01*
X72269000Y-72115000D02*
X72269000Y-70080000D01*
X72309000Y-68120000D02*
X72309000Y-66071000D01*
X72309000Y-72129000D02*
X72309000Y-70080000D01*
X72349000Y-68120000D02*
X72349000Y-66058000D01*
X72349000Y-72142000D02*
X72349000Y-70080000D01*
X72389000Y-68120000D02*
X72389000Y-66045000D01*
X72389000Y-72155000D02*
X72389000Y-70080000D01*
X72429000Y-68120000D02*
X72429000Y-66033000D01*
X72429000Y-72167000D02*
X72429000Y-70080000D01*
X72469000Y-68120000D02*
X72469000Y-66021000D01*
X72469000Y-72179000D02*
X72469000Y-70080000D01*
X72509000Y-68120000D02*
X72509000Y-66010000D01*
X72509000Y-72190000D02*
X72509000Y-70080000D01*
X72549000Y-68120000D02*
X72549000Y-66000000D01*
X72549000Y-72200000D02*
X72549000Y-70080000D01*
X72589000Y-68120000D02*
X72589000Y-65990000D01*
X72589000Y-72210000D02*
X72589000Y-70080000D01*
X72629000Y-68120000D02*
X72629000Y-65981000D01*
X72629000Y-72219000D02*
X72629000Y-70080000D01*
X72670000Y-68120000D02*
X72670000Y-65972000D01*
X72670000Y-72228000D02*
X72670000Y-70080000D01*
X72710000Y-68120000D02*
X72710000Y-65963000D01*
X72710000Y-72237000D02*
X72710000Y-70080000D01*
X72750000Y-68120000D02*
X72750000Y-65956000D01*
X72750000Y-72244000D02*
X72750000Y-70080000D01*
X72790000Y-68120000D02*
X72790000Y-65948000D01*
X72790000Y-72252000D02*
X72790000Y-70080000D01*
X72830000Y-68120000D02*
X72830000Y-65942000D01*
X72830000Y-72258000D02*
X72830000Y-70080000D01*
X72870000Y-68120000D02*
X72870000Y-65935000D01*
X72870000Y-72265000D02*
X72870000Y-70080000D01*
X72910000Y-68120000D02*
X72910000Y-65930000D01*
X72910000Y-72270000D02*
X72910000Y-70080000D01*
X72950000Y-68120000D02*
X72950000Y-65924000D01*
X72950000Y-72276000D02*
X72950000Y-70080000D01*
X72990000Y-68120000D02*
X72990000Y-65920000D01*
X72990000Y-72280000D02*
X72990000Y-70080000D01*
X73030000Y-68120000D02*
X73030000Y-65915000D01*
X73030000Y-72285000D02*
X73030000Y-70080000D01*
X73070000Y-68120000D02*
X73070000Y-65912000D01*
X73070000Y-72288000D02*
X73070000Y-70080000D01*
X73110000Y-72292000D02*
X73110000Y-65908000D01*
X73150000Y-72294000D02*
X73150000Y-65906000D01*
X73190000Y-72297000D02*
X73190000Y-65903000D01*
X73230000Y-72298000D02*
X73230000Y-65902000D01*
X73270000Y-72300000D02*
X73270000Y-65900000D01*
X73310000Y-72300000D02*
X73310000Y-65900000D01*
X73350000Y-72300000D02*
X73350000Y-65900000D01*
X70332180Y-67920864D02*
G75*
G03X70332518Y-70280000I3017820J-1179136D01*
G01*
X70332180Y-67920864D02*
G75*
G02X76367482Y-67920000I3017820J-1179136D01*
G01*
X70332180Y-70279136D02*
G75*
G03X76367482Y-70280000I3017820J1179136D01*
G01*
X32250000Y-73550000D02*
X32250000Y-72650000D01*
X32700000Y-73100000D02*
X31800000Y-73100000D01*
X27919000Y-73265000D02*
X27919000Y-72935000D01*
X27959000Y-73515000D02*
X27959000Y-72685000D01*
X27999000Y-73667000D02*
X27999000Y-72533000D01*
X28039000Y-73786000D02*
X28039000Y-72414000D01*
X28079000Y-73886000D02*
X28079000Y-72314000D01*
X28119000Y-73974000D02*
X28119000Y-72226000D01*
X28159000Y-74052000D02*
X28159000Y-72148000D01*
X28199000Y-74123000D02*
X28199000Y-72077000D01*
X28239000Y-72320000D02*
X28239000Y-72012000D01*
X28239000Y-74188000D02*
X28239000Y-73880000D01*
X28279000Y-72320000D02*
X28279000Y-71952000D01*
X28279000Y-74248000D02*
X28279000Y-73880000D01*
X28319000Y-72320000D02*
X28319000Y-71896000D01*
X28319000Y-74304000D02*
X28319000Y-73880000D01*
X28359000Y-72320000D02*
X28359000Y-71844000D01*
X28359000Y-74356000D02*
X28359000Y-73880000D01*
X28399000Y-72320000D02*
X28399000Y-71795000D01*
X28399000Y-74405000D02*
X28399000Y-73880000D01*
X28439000Y-72320000D02*
X28439000Y-71749000D01*
X28439000Y-74451000D02*
X28439000Y-73880000D01*
X28479000Y-72320000D02*
X28479000Y-71705000D01*
X28479000Y-74495000D02*
X28479000Y-73880000D01*
X28519000Y-72320000D02*
X28519000Y-71664000D01*
X28519000Y-74536000D02*
X28519000Y-73880000D01*
X28559000Y-72320000D02*
X28559000Y-71625000D01*
X28559000Y-74575000D02*
X28559000Y-73880000D01*
X28599000Y-72320000D02*
X28599000Y-71588000D01*
X28599000Y-74612000D02*
X28599000Y-73880000D01*
X28639000Y-72320000D02*
X28639000Y-71553000D01*
X28639000Y-74647000D02*
X28639000Y-73880000D01*
X28679000Y-72320000D02*
X28679000Y-71519000D01*
X28679000Y-74681000D02*
X28679000Y-73880000D01*
X28719000Y-72320000D02*
X28719000Y-71487000D01*
X28719000Y-74713000D02*
X28719000Y-73880000D01*
X28759000Y-72320000D02*
X28759000Y-71457000D01*
X28759000Y-74743000D02*
X28759000Y-73880000D01*
X28799000Y-72320000D02*
X28799000Y-71428000D01*
X28799000Y-74772000D02*
X28799000Y-73880000D01*
X28839000Y-72320000D02*
X28839000Y-71401000D01*
X28839000Y-74799000D02*
X28839000Y-73880000D01*
X28879000Y-72320000D02*
X28879000Y-71375000D01*
X28879000Y-74825000D02*
X28879000Y-73880000D01*
X28919000Y-72320000D02*
X28919000Y-71350000D01*
X28919000Y-74850000D02*
X28919000Y-73880000D01*
X28959000Y-72320000D02*
X28959000Y-71327000D01*
X28959000Y-74873000D02*
X28959000Y-73880000D01*
X28999000Y-72320000D02*
X28999000Y-71304000D01*
X28999000Y-74896000D02*
X28999000Y-73880000D01*
X29039000Y-72320000D02*
X29039000Y-71283000D01*
X29039000Y-74917000D02*
X29039000Y-73880000D01*
X29079000Y-72320000D02*
X29079000Y-71263000D01*
X29079000Y-74937000D02*
X29079000Y-73880000D01*
X29119000Y-72320000D02*
X29119000Y-71244000D01*
X29119000Y-74956000D02*
X29119000Y-73880000D01*
X29159000Y-72320000D02*
X29159000Y-71226000D01*
X29159000Y-74974000D02*
X29159000Y-73880000D01*
X29199000Y-72320000D02*
X29199000Y-71209000D01*
X29199000Y-74991000D02*
X29199000Y-73880000D01*
X29239000Y-72320000D02*
X29239000Y-71193000D01*
X29239000Y-75007000D02*
X29239000Y-73880000D01*
X29279000Y-72320000D02*
X29279000Y-71177000D01*
X29279000Y-75023000D02*
X29279000Y-73880000D01*
X29320000Y-72320000D02*
X29320000Y-71163000D01*
X29320000Y-75037000D02*
X29320000Y-73880000D01*
X29360000Y-72320000D02*
X29360000Y-71150000D01*
X29360000Y-75050000D02*
X29360000Y-73880000D01*
X29400000Y-72320000D02*
X29400000Y-71137000D01*
X29400000Y-75063000D02*
X29400000Y-73880000D01*
X29440000Y-72320000D02*
X29440000Y-71126000D01*
X29440000Y-75074000D02*
X29440000Y-73880000D01*
X29480000Y-72320000D02*
X29480000Y-71115000D01*
X29480000Y-75085000D02*
X29480000Y-73880000D01*
X29520000Y-72320000D02*
X29520000Y-71105000D01*
X29520000Y-75095000D02*
X29520000Y-73880000D01*
X29560000Y-72320000D02*
X29560000Y-71096000D01*
X29560000Y-75104000D02*
X29560000Y-73880000D01*
X29600000Y-72320000D02*
X29600000Y-71088000D01*
X29600000Y-75112000D02*
X29600000Y-73880000D01*
X29640000Y-72320000D02*
X29640000Y-71081000D01*
X29640000Y-75119000D02*
X29640000Y-73880000D01*
X29680000Y-72320000D02*
X29680000Y-71074000D01*
X29680000Y-75126000D02*
X29680000Y-73880000D01*
X29720000Y-72320000D02*
X29720000Y-71068000D01*
X29720000Y-75132000D02*
X29720000Y-73880000D01*
X29760000Y-72320000D02*
X29760000Y-71063000D01*
X29760000Y-75137000D02*
X29760000Y-73880000D01*
X29800000Y-75141000D02*
X29800000Y-71059000D01*
X29840000Y-75144000D02*
X29840000Y-71056000D01*
X29880000Y-75147000D02*
X29880000Y-71053000D01*
X29920000Y-75149000D02*
X29920000Y-71051000D01*
X29960000Y-75150000D02*
X29960000Y-71050000D01*
X30000000Y-75150000D02*
X30000000Y-71050000D01*
X28153564Y-72120830D02*
G75*
G03X28154004Y-74080000I1846436J-979170D01*
G01*
X28153564Y-72120830D02*
G75*
G02X31845996Y-72120000I1846436J-979170D01*
G01*
X28153564Y-74079170D02*
G75*
G03X31845996Y-74080000I1846436J979170D01*
G01*
X81310000Y-89660000D02*
X76190000Y-89660000D01*
X81310000Y-87040000D02*
X76190000Y-87040000D01*
X81310000Y-89660000D02*
X81310000Y-87040000D01*
X76190000Y-89660000D02*
X76190000Y-87040000D01*
X46660000Y-87040000D02*
X46660000Y-89660000D01*
X41540000Y-87040000D02*
X41540000Y-89660000D01*
X41540000Y-89660000D02*
X46660000Y-89660000D01*
X41540000Y-87040000D02*
X46660000Y-87040000D01*
X50310000Y-66496000D02*
X50310000Y-66560000D01*
X50310000Y-64440000D02*
X50310000Y-64504000D01*
X47190000Y-66496000D02*
X47190000Y-66560000D01*
X47190000Y-64440000D02*
X47190000Y-64504000D01*
X47190000Y-66560000D02*
X50310000Y-66560000D01*
X47190000Y-64440000D02*
X50310000Y-64440000D01*
X54510000Y-89660000D02*
X49390000Y-89660000D01*
X54510000Y-87040000D02*
X49390000Y-87040000D01*
X54510000Y-89660000D02*
X54510000Y-87040000D01*
X49390000Y-89660000D02*
X49390000Y-87040000D01*
X40290000Y-64750000D02*
X40290000Y-64140000D01*
X40290000Y-66860000D02*
X40290000Y-66250000D01*
X44210000Y-64750000D02*
X44210000Y-64140000D01*
X44210000Y-66860000D02*
X44210000Y-66250000D01*
X44210000Y-64140000D02*
X40290000Y-64140000D01*
X44210000Y-66860000D02*
X40290000Y-66860000D01*
X30704136Y-108267820D02*
G75*
G03X30705000Y-102232518I-1179136J3017820D01*
G01*
X28345864Y-108267820D02*
G75*
G02X28345000Y-102232518I1179136J3017820D01*
G01*
X28345864Y-108267820D02*
G75*
G03X30705000Y-108267482I1179136J3017820D01*
G01*
X32725000Y-105250000D02*
X26325000Y-105250000D01*
X32725000Y-105290000D02*
X26325000Y-105290000D01*
X32725000Y-105330000D02*
X26325000Y-105330000D01*
X32723000Y-105370000D02*
X26327000Y-105370000D01*
X32722000Y-105410000D02*
X26328000Y-105410000D01*
X32719000Y-105450000D02*
X26331000Y-105450000D01*
X32717000Y-105490000D02*
X26333000Y-105490000D01*
X32713000Y-105530000D02*
X30505000Y-105530000D01*
X28545000Y-105530000D02*
X26337000Y-105530000D01*
X32710000Y-105570000D02*
X30505000Y-105570000D01*
X28545000Y-105570000D02*
X26340000Y-105570000D01*
X32705000Y-105610000D02*
X30505000Y-105610000D01*
X28545000Y-105610000D02*
X26345000Y-105610000D01*
X32701000Y-105650000D02*
X30505000Y-105650000D01*
X28545000Y-105650000D02*
X26349000Y-105650000D01*
X32695000Y-105690000D02*
X30505000Y-105690000D01*
X28545000Y-105690000D02*
X26355000Y-105690000D01*
X32690000Y-105730000D02*
X30505000Y-105730000D01*
X28545000Y-105730000D02*
X26360000Y-105730000D01*
X32683000Y-105770000D02*
X30505000Y-105770000D01*
X28545000Y-105770000D02*
X26367000Y-105770000D01*
X32677000Y-105810000D02*
X30505000Y-105810000D01*
X28545000Y-105810000D02*
X26373000Y-105810000D01*
X32669000Y-105850000D02*
X30505000Y-105850000D01*
X28545000Y-105850000D02*
X26381000Y-105850000D01*
X32662000Y-105890000D02*
X30505000Y-105890000D01*
X28545000Y-105890000D02*
X26388000Y-105890000D01*
X32653000Y-105930000D02*
X30505000Y-105930000D01*
X28545000Y-105930000D02*
X26397000Y-105930000D01*
X32644000Y-105971000D02*
X30505000Y-105971000D01*
X28545000Y-105971000D02*
X26406000Y-105971000D01*
X32635000Y-106011000D02*
X30505000Y-106011000D01*
X28545000Y-106011000D02*
X26415000Y-106011000D01*
X32625000Y-106051000D02*
X30505000Y-106051000D01*
X28545000Y-106051000D02*
X26425000Y-106051000D01*
X32615000Y-106091000D02*
X30505000Y-106091000D01*
X28545000Y-106091000D02*
X26435000Y-106091000D01*
X32604000Y-106131000D02*
X30505000Y-106131000D01*
X28545000Y-106131000D02*
X26446000Y-106131000D01*
X32592000Y-106171000D02*
X30505000Y-106171000D01*
X28545000Y-106171000D02*
X26458000Y-106171000D01*
X32580000Y-106211000D02*
X30505000Y-106211000D01*
X28545000Y-106211000D02*
X26470000Y-106211000D01*
X32567000Y-106251000D02*
X30505000Y-106251000D01*
X28545000Y-106251000D02*
X26483000Y-106251000D01*
X32554000Y-106291000D02*
X30505000Y-106291000D01*
X28545000Y-106291000D02*
X26496000Y-106291000D01*
X32540000Y-106331000D02*
X30505000Y-106331000D01*
X28545000Y-106331000D02*
X26510000Y-106331000D01*
X32526000Y-106371000D02*
X30505000Y-106371000D01*
X28545000Y-106371000D02*
X26524000Y-106371000D01*
X32511000Y-106411000D02*
X30505000Y-106411000D01*
X28545000Y-106411000D02*
X26539000Y-106411000D01*
X32495000Y-106451000D02*
X30505000Y-106451000D01*
X28545000Y-106451000D02*
X26555000Y-106451000D01*
X32479000Y-106491000D02*
X30505000Y-106491000D01*
X28545000Y-106491000D02*
X26571000Y-106491000D01*
X32462000Y-106531000D02*
X30505000Y-106531000D01*
X28545000Y-106531000D02*
X26588000Y-106531000D01*
X32444000Y-106571000D02*
X30505000Y-106571000D01*
X28545000Y-106571000D02*
X26606000Y-106571000D01*
X32426000Y-106611000D02*
X30505000Y-106611000D01*
X28545000Y-106611000D02*
X26624000Y-106611000D01*
X32407000Y-106651000D02*
X30505000Y-106651000D01*
X28545000Y-106651000D02*
X26643000Y-106651000D01*
X32388000Y-106691000D02*
X30505000Y-106691000D01*
X28545000Y-106691000D02*
X26662000Y-106691000D01*
X32368000Y-106731000D02*
X30505000Y-106731000D01*
X28545000Y-106731000D02*
X26682000Y-106731000D01*
X32347000Y-106771000D02*
X30505000Y-106771000D01*
X28545000Y-106771000D02*
X26703000Y-106771000D01*
X32325000Y-106811000D02*
X30505000Y-106811000D01*
X28545000Y-106811000D02*
X26725000Y-106811000D01*
X32303000Y-106851000D02*
X30505000Y-106851000D01*
X28545000Y-106851000D02*
X26747000Y-106851000D01*
X32280000Y-106891000D02*
X30505000Y-106891000D01*
X28545000Y-106891000D02*
X26770000Y-106891000D01*
X32256000Y-106931000D02*
X30505000Y-106931000D01*
X28545000Y-106931000D02*
X26794000Y-106931000D01*
X32231000Y-106971000D02*
X30505000Y-106971000D01*
X28545000Y-106971000D02*
X26819000Y-106971000D01*
X32206000Y-107011000D02*
X30505000Y-107011000D01*
X28545000Y-107011000D02*
X26844000Y-107011000D01*
X32179000Y-107051000D02*
X30505000Y-107051000D01*
X28545000Y-107051000D02*
X26871000Y-107051000D01*
X32152000Y-107091000D02*
X30505000Y-107091000D01*
X28545000Y-107091000D02*
X26898000Y-107091000D01*
X32124000Y-107131000D02*
X30505000Y-107131000D01*
X28545000Y-107131000D02*
X26926000Y-107131000D01*
X32095000Y-107171000D02*
X30505000Y-107171000D01*
X28545000Y-107171000D02*
X26955000Y-107171000D01*
X32065000Y-107211000D02*
X30505000Y-107211000D01*
X28545000Y-107211000D02*
X26985000Y-107211000D01*
X32035000Y-107251000D02*
X30505000Y-107251000D01*
X28545000Y-107251000D02*
X27015000Y-107251000D01*
X32003000Y-107291000D02*
X30505000Y-107291000D01*
X28545000Y-107291000D02*
X27047000Y-107291000D01*
X31970000Y-107331000D02*
X30505000Y-107331000D01*
X28545000Y-107331000D02*
X27080000Y-107331000D01*
X31936000Y-107371000D02*
X30505000Y-107371000D01*
X28545000Y-107371000D02*
X27114000Y-107371000D01*
X31900000Y-107411000D02*
X30505000Y-107411000D01*
X28545000Y-107411000D02*
X27150000Y-107411000D01*
X31864000Y-107451000D02*
X30505000Y-107451000D01*
X28545000Y-107451000D02*
X27186000Y-107451000D01*
X31826000Y-107491000D02*
X27224000Y-107491000D01*
X31787000Y-107531000D02*
X27263000Y-107531000D01*
X31747000Y-107571000D02*
X27303000Y-107571000D01*
X31705000Y-107611000D02*
X27345000Y-107611000D01*
X31662000Y-107651000D02*
X27388000Y-107651000D01*
X31617000Y-107691000D02*
X27433000Y-107691000D01*
X31570000Y-107731000D02*
X27480000Y-107731000D01*
X31522000Y-107771000D02*
X27528000Y-107771000D01*
X31471000Y-107811000D02*
X27579000Y-107811000D01*
X31419000Y-107851000D02*
X27631000Y-107851000D01*
X31364000Y-107891000D02*
X27686000Y-107891000D01*
X31306000Y-107931000D02*
X27744000Y-107931000D01*
X31246000Y-107971000D02*
X27804000Y-107971000D01*
X31183000Y-108011000D02*
X27867000Y-108011000D01*
X31116000Y-108051000D02*
X27934000Y-108051000D01*
X31045000Y-108091000D02*
X28005000Y-108091000D01*
X30970000Y-108131000D02*
X28080000Y-108131000D01*
X30889000Y-108171000D02*
X28161000Y-108171000D01*
X30803000Y-108211000D02*
X28247000Y-108211000D01*
X30709000Y-108251000D02*
X28341000Y-108251000D01*
X30606000Y-108291000D02*
X28444000Y-108291000D01*
X30491000Y-108331000D02*
X28559000Y-108331000D01*
X30359000Y-108371000D02*
X28691000Y-108371000D01*
X30201000Y-108411000D02*
X28849000Y-108411000D01*
X29993000Y-108451000D02*
X29057000Y-108451000D01*
X29525000Y-101800000D02*
X29525000Y-103000000D01*
X30175000Y-102400000D02*
X28875000Y-102400000D01*
X94200000Y-69750000D02*
X94200000Y-68450000D01*
X94800000Y-69100000D02*
X93600000Y-69100000D01*
X88149000Y-69568000D02*
X88149000Y-68632000D01*
X88189000Y-69776000D02*
X88189000Y-68424000D01*
X88229000Y-69934000D02*
X88229000Y-68266000D01*
X88269000Y-70066000D02*
X88269000Y-68134000D01*
X88309000Y-70181000D02*
X88309000Y-68019000D01*
X88349000Y-70284000D02*
X88349000Y-67916000D01*
X88389000Y-70378000D02*
X88389000Y-67822000D01*
X88429000Y-70464000D02*
X88429000Y-67736000D01*
X88469000Y-70545000D02*
X88469000Y-67655000D01*
X88509000Y-70620000D02*
X88509000Y-67580000D01*
X88549000Y-70691000D02*
X88549000Y-67509000D01*
X88589000Y-70758000D02*
X88589000Y-67442000D01*
X88629000Y-70821000D02*
X88629000Y-67379000D01*
X88669000Y-70881000D02*
X88669000Y-67319000D01*
X88709000Y-70939000D02*
X88709000Y-67261000D01*
X88749000Y-70994000D02*
X88749000Y-67206000D01*
X88789000Y-71046000D02*
X88789000Y-67154000D01*
X88829000Y-71097000D02*
X88829000Y-67103000D01*
X88869000Y-71145000D02*
X88869000Y-67055000D01*
X88909000Y-71192000D02*
X88909000Y-67008000D01*
X88949000Y-71237000D02*
X88949000Y-66963000D01*
X88989000Y-71280000D02*
X88989000Y-66920000D01*
X89029000Y-71322000D02*
X89029000Y-66878000D01*
X89069000Y-71362000D02*
X89069000Y-66838000D01*
X89109000Y-71401000D02*
X89109000Y-66799000D01*
X89149000Y-68120000D02*
X89149000Y-66761000D01*
X89149000Y-71439000D02*
X89149000Y-70080000D01*
X89189000Y-68120000D02*
X89189000Y-66725000D01*
X89189000Y-71475000D02*
X89189000Y-70080000D01*
X89229000Y-68120000D02*
X89229000Y-66689000D01*
X89229000Y-71511000D02*
X89229000Y-70080000D01*
X89269000Y-68120000D02*
X89269000Y-66655000D01*
X89269000Y-71545000D02*
X89269000Y-70080000D01*
X89309000Y-68120000D02*
X89309000Y-66622000D01*
X89309000Y-71578000D02*
X89309000Y-70080000D01*
X89349000Y-68120000D02*
X89349000Y-66590000D01*
X89349000Y-71610000D02*
X89349000Y-70080000D01*
X89389000Y-68120000D02*
X89389000Y-66560000D01*
X89389000Y-71640000D02*
X89389000Y-70080000D01*
X89429000Y-68120000D02*
X89429000Y-66530000D01*
X89429000Y-71670000D02*
X89429000Y-70080000D01*
X89469000Y-68120000D02*
X89469000Y-66501000D01*
X89469000Y-71699000D02*
X89469000Y-70080000D01*
X89509000Y-68120000D02*
X89509000Y-66473000D01*
X89509000Y-71727000D02*
X89509000Y-70080000D01*
X89549000Y-68120000D02*
X89549000Y-66446000D01*
X89549000Y-71754000D02*
X89549000Y-70080000D01*
X89589000Y-68120000D02*
X89589000Y-66419000D01*
X89589000Y-71781000D02*
X89589000Y-70080000D01*
X89629000Y-68120000D02*
X89629000Y-66394000D01*
X89629000Y-71806000D02*
X89629000Y-70080000D01*
X89669000Y-68120000D02*
X89669000Y-66369000D01*
X89669000Y-71831000D02*
X89669000Y-70080000D01*
X89709000Y-68120000D02*
X89709000Y-66345000D01*
X89709000Y-71855000D02*
X89709000Y-70080000D01*
X89749000Y-68120000D02*
X89749000Y-66322000D01*
X89749000Y-71878000D02*
X89749000Y-70080000D01*
X89789000Y-68120000D02*
X89789000Y-66300000D01*
X89789000Y-71900000D02*
X89789000Y-70080000D01*
X89829000Y-68120000D02*
X89829000Y-66278000D01*
X89829000Y-71922000D02*
X89829000Y-70080000D01*
X89869000Y-68120000D02*
X89869000Y-66257000D01*
X89869000Y-71943000D02*
X89869000Y-70080000D01*
X89909000Y-68120000D02*
X89909000Y-66237000D01*
X89909000Y-71963000D02*
X89909000Y-70080000D01*
X89949000Y-68120000D02*
X89949000Y-66218000D01*
X89949000Y-71982000D02*
X89949000Y-70080000D01*
X89989000Y-68120000D02*
X89989000Y-66199000D01*
X89989000Y-72001000D02*
X89989000Y-70080000D01*
X90029000Y-68120000D02*
X90029000Y-66181000D01*
X90029000Y-72019000D02*
X90029000Y-70080000D01*
X90069000Y-68120000D02*
X90069000Y-66163000D01*
X90069000Y-72037000D02*
X90069000Y-70080000D01*
X90109000Y-68120000D02*
X90109000Y-66146000D01*
X90109000Y-72054000D02*
X90109000Y-70080000D01*
X90149000Y-68120000D02*
X90149000Y-66130000D01*
X90149000Y-72070000D02*
X90149000Y-70080000D01*
X90189000Y-68120000D02*
X90189000Y-66114000D01*
X90189000Y-72086000D02*
X90189000Y-70080000D01*
X90229000Y-68120000D02*
X90229000Y-66099000D01*
X90229000Y-72101000D02*
X90229000Y-70080000D01*
X90269000Y-68120000D02*
X90269000Y-66085000D01*
X90269000Y-72115000D02*
X90269000Y-70080000D01*
X90309000Y-68120000D02*
X90309000Y-66071000D01*
X90309000Y-72129000D02*
X90309000Y-70080000D01*
X90349000Y-68120000D02*
X90349000Y-66058000D01*
X90349000Y-72142000D02*
X90349000Y-70080000D01*
X90389000Y-68120000D02*
X90389000Y-66045000D01*
X90389000Y-72155000D02*
X90389000Y-70080000D01*
X90429000Y-68120000D02*
X90429000Y-66033000D01*
X90429000Y-72167000D02*
X90429000Y-70080000D01*
X90469000Y-68120000D02*
X90469000Y-66021000D01*
X90469000Y-72179000D02*
X90469000Y-70080000D01*
X90509000Y-68120000D02*
X90509000Y-66010000D01*
X90509000Y-72190000D02*
X90509000Y-70080000D01*
X90549000Y-68120000D02*
X90549000Y-66000000D01*
X90549000Y-72200000D02*
X90549000Y-70080000D01*
X90589000Y-68120000D02*
X90589000Y-65990000D01*
X90589000Y-72210000D02*
X90589000Y-70080000D01*
X90629000Y-68120000D02*
X90629000Y-65981000D01*
X90629000Y-72219000D02*
X90629000Y-70080000D01*
X90670000Y-68120000D02*
X90670000Y-65972000D01*
X90670000Y-72228000D02*
X90670000Y-70080000D01*
X90710000Y-68120000D02*
X90710000Y-65963000D01*
X90710000Y-72237000D02*
X90710000Y-70080000D01*
X90750000Y-68120000D02*
X90750000Y-65956000D01*
X90750000Y-72244000D02*
X90750000Y-70080000D01*
X90790000Y-68120000D02*
X90790000Y-65948000D01*
X90790000Y-72252000D02*
X90790000Y-70080000D01*
X90830000Y-68120000D02*
X90830000Y-65942000D01*
X90830000Y-72258000D02*
X90830000Y-70080000D01*
X90870000Y-68120000D02*
X90870000Y-65935000D01*
X90870000Y-72265000D02*
X90870000Y-70080000D01*
X90910000Y-68120000D02*
X90910000Y-65930000D01*
X90910000Y-72270000D02*
X90910000Y-70080000D01*
X90950000Y-68120000D02*
X90950000Y-65924000D01*
X90950000Y-72276000D02*
X90950000Y-70080000D01*
X90990000Y-68120000D02*
X90990000Y-65920000D01*
X90990000Y-72280000D02*
X90990000Y-70080000D01*
X91030000Y-68120000D02*
X91030000Y-65915000D01*
X91030000Y-72285000D02*
X91030000Y-70080000D01*
X91070000Y-68120000D02*
X91070000Y-65912000D01*
X91070000Y-72288000D02*
X91070000Y-70080000D01*
X91110000Y-72292000D02*
X91110000Y-65908000D01*
X91150000Y-72294000D02*
X91150000Y-65906000D01*
X91190000Y-72297000D02*
X91190000Y-65903000D01*
X91230000Y-72298000D02*
X91230000Y-65902000D01*
X91270000Y-72300000D02*
X91270000Y-65900000D01*
X91310000Y-72300000D02*
X91310000Y-65900000D01*
X91350000Y-72300000D02*
X91350000Y-65900000D01*
X88332180Y-67920864D02*
G75*
G03X88332518Y-70280000I3017820J-1179136D01*
G01*
X88332180Y-67920864D02*
G75*
G02X94367482Y-67920000I3017820J-1179136D01*
G01*
X88332180Y-70279136D02*
G75*
G03X94367482Y-70280000I3017820J1179136D01*
G01*
X79332180Y-70279136D02*
G75*
G03X85367482Y-70280000I3017820J1179136D01*
G01*
X79332180Y-67920864D02*
G75*
G02X85367482Y-67920000I3017820J-1179136D01*
G01*
X79332180Y-67920864D02*
G75*
G03X79332518Y-70280000I3017820J-1179136D01*
G01*
X82350000Y-72300000D02*
X82350000Y-65900000D01*
X82310000Y-72300000D02*
X82310000Y-65900000D01*
X82270000Y-72300000D02*
X82270000Y-65900000D01*
X82230000Y-72298000D02*
X82230000Y-65902000D01*
X82190000Y-72297000D02*
X82190000Y-65903000D01*
X82150000Y-72294000D02*
X82150000Y-65906000D01*
X82110000Y-72292000D02*
X82110000Y-65908000D01*
X82070000Y-72288000D02*
X82070000Y-70080000D01*
X82070000Y-68120000D02*
X82070000Y-65912000D01*
X82030000Y-72285000D02*
X82030000Y-70080000D01*
X82030000Y-68120000D02*
X82030000Y-65915000D01*
X81990000Y-72280000D02*
X81990000Y-70080000D01*
X81990000Y-68120000D02*
X81990000Y-65920000D01*
X81950000Y-72276000D02*
X81950000Y-70080000D01*
X81950000Y-68120000D02*
X81950000Y-65924000D01*
X81910000Y-72270000D02*
X81910000Y-70080000D01*
X81910000Y-68120000D02*
X81910000Y-65930000D01*
X81870000Y-72265000D02*
X81870000Y-70080000D01*
X81870000Y-68120000D02*
X81870000Y-65935000D01*
X81830000Y-72258000D02*
X81830000Y-70080000D01*
X81830000Y-68120000D02*
X81830000Y-65942000D01*
X81790000Y-72252000D02*
X81790000Y-70080000D01*
X81790000Y-68120000D02*
X81790000Y-65948000D01*
X81750000Y-72244000D02*
X81750000Y-70080000D01*
X81750000Y-68120000D02*
X81750000Y-65956000D01*
X81710000Y-72237000D02*
X81710000Y-70080000D01*
X81710000Y-68120000D02*
X81710000Y-65963000D01*
X81670000Y-72228000D02*
X81670000Y-70080000D01*
X81670000Y-68120000D02*
X81670000Y-65972000D01*
X81629000Y-72219000D02*
X81629000Y-70080000D01*
X81629000Y-68120000D02*
X81629000Y-65981000D01*
X81589000Y-72210000D02*
X81589000Y-70080000D01*
X81589000Y-68120000D02*
X81589000Y-65990000D01*
X81549000Y-72200000D02*
X81549000Y-70080000D01*
X81549000Y-68120000D02*
X81549000Y-66000000D01*
X81509000Y-72190000D02*
X81509000Y-70080000D01*
X81509000Y-68120000D02*
X81509000Y-66010000D01*
X81469000Y-72179000D02*
X81469000Y-70080000D01*
X81469000Y-68120000D02*
X81469000Y-66021000D01*
X81429000Y-72167000D02*
X81429000Y-70080000D01*
X81429000Y-68120000D02*
X81429000Y-66033000D01*
X81389000Y-72155000D02*
X81389000Y-70080000D01*
X81389000Y-68120000D02*
X81389000Y-66045000D01*
X81349000Y-72142000D02*
X81349000Y-70080000D01*
X81349000Y-68120000D02*
X81349000Y-66058000D01*
X81309000Y-72129000D02*
X81309000Y-70080000D01*
X81309000Y-68120000D02*
X81309000Y-66071000D01*
X81269000Y-72115000D02*
X81269000Y-70080000D01*
X81269000Y-68120000D02*
X81269000Y-66085000D01*
X81229000Y-72101000D02*
X81229000Y-70080000D01*
X81229000Y-68120000D02*
X81229000Y-66099000D01*
X81189000Y-72086000D02*
X81189000Y-70080000D01*
X81189000Y-68120000D02*
X81189000Y-66114000D01*
X81149000Y-72070000D02*
X81149000Y-70080000D01*
X81149000Y-68120000D02*
X81149000Y-66130000D01*
X81109000Y-72054000D02*
X81109000Y-70080000D01*
X81109000Y-68120000D02*
X81109000Y-66146000D01*
X81069000Y-72037000D02*
X81069000Y-70080000D01*
X81069000Y-68120000D02*
X81069000Y-66163000D01*
X81029000Y-72019000D02*
X81029000Y-70080000D01*
X81029000Y-68120000D02*
X81029000Y-66181000D01*
X80989000Y-72001000D02*
X80989000Y-70080000D01*
X80989000Y-68120000D02*
X80989000Y-66199000D01*
X80949000Y-71982000D02*
X80949000Y-70080000D01*
X80949000Y-68120000D02*
X80949000Y-66218000D01*
X80909000Y-71963000D02*
X80909000Y-70080000D01*
X80909000Y-68120000D02*
X80909000Y-66237000D01*
X80869000Y-71943000D02*
X80869000Y-70080000D01*
X80869000Y-68120000D02*
X80869000Y-66257000D01*
X80829000Y-71922000D02*
X80829000Y-70080000D01*
X80829000Y-68120000D02*
X80829000Y-66278000D01*
X80789000Y-71900000D02*
X80789000Y-70080000D01*
X80789000Y-68120000D02*
X80789000Y-66300000D01*
X80749000Y-71878000D02*
X80749000Y-70080000D01*
X80749000Y-68120000D02*
X80749000Y-66322000D01*
X80709000Y-71855000D02*
X80709000Y-70080000D01*
X80709000Y-68120000D02*
X80709000Y-66345000D01*
X80669000Y-71831000D02*
X80669000Y-70080000D01*
X80669000Y-68120000D02*
X80669000Y-66369000D01*
X80629000Y-71806000D02*
X80629000Y-70080000D01*
X80629000Y-68120000D02*
X80629000Y-66394000D01*
X80589000Y-71781000D02*
X80589000Y-70080000D01*
X80589000Y-68120000D02*
X80589000Y-66419000D01*
X80549000Y-71754000D02*
X80549000Y-70080000D01*
X80549000Y-68120000D02*
X80549000Y-66446000D01*
X80509000Y-71727000D02*
X80509000Y-70080000D01*
X80509000Y-68120000D02*
X80509000Y-66473000D01*
X80469000Y-71699000D02*
X80469000Y-70080000D01*
X80469000Y-68120000D02*
X80469000Y-66501000D01*
X80429000Y-71670000D02*
X80429000Y-70080000D01*
X80429000Y-68120000D02*
X80429000Y-66530000D01*
X80389000Y-71640000D02*
X80389000Y-70080000D01*
X80389000Y-68120000D02*
X80389000Y-66560000D01*
X80349000Y-71610000D02*
X80349000Y-70080000D01*
X80349000Y-68120000D02*
X80349000Y-66590000D01*
X80309000Y-71578000D02*
X80309000Y-70080000D01*
X80309000Y-68120000D02*
X80309000Y-66622000D01*
X80269000Y-71545000D02*
X80269000Y-70080000D01*
X80269000Y-68120000D02*
X80269000Y-66655000D01*
X80229000Y-71511000D02*
X80229000Y-70080000D01*
X80229000Y-68120000D02*
X80229000Y-66689000D01*
X80189000Y-71475000D02*
X80189000Y-70080000D01*
X80189000Y-68120000D02*
X80189000Y-66725000D01*
X80149000Y-71439000D02*
X80149000Y-70080000D01*
X80149000Y-68120000D02*
X80149000Y-66761000D01*
X80109000Y-71401000D02*
X80109000Y-66799000D01*
X80069000Y-71362000D02*
X80069000Y-66838000D01*
X80029000Y-71322000D02*
X80029000Y-66878000D01*
X79989000Y-71280000D02*
X79989000Y-66920000D01*
X79949000Y-71237000D02*
X79949000Y-66963000D01*
X79909000Y-71192000D02*
X79909000Y-67008000D01*
X79869000Y-71145000D02*
X79869000Y-67055000D01*
X79829000Y-71097000D02*
X79829000Y-67103000D01*
X79789000Y-71046000D02*
X79789000Y-67154000D01*
X79749000Y-70994000D02*
X79749000Y-67206000D01*
X79709000Y-70939000D02*
X79709000Y-67261000D01*
X79669000Y-70881000D02*
X79669000Y-67319000D01*
X79629000Y-70821000D02*
X79629000Y-67379000D01*
X79589000Y-70758000D02*
X79589000Y-67442000D01*
X79549000Y-70691000D02*
X79549000Y-67509000D01*
X79509000Y-70620000D02*
X79509000Y-67580000D01*
X79469000Y-70545000D02*
X79469000Y-67655000D01*
X79429000Y-70464000D02*
X79429000Y-67736000D01*
X79389000Y-70378000D02*
X79389000Y-67822000D01*
X79349000Y-70284000D02*
X79349000Y-67916000D01*
X79309000Y-70181000D02*
X79309000Y-68019000D01*
X79269000Y-70066000D02*
X79269000Y-68134000D01*
X79229000Y-69934000D02*
X79229000Y-68266000D01*
X79189000Y-69776000D02*
X79189000Y-68424000D01*
X79149000Y-69568000D02*
X79149000Y-68632000D01*
X85800000Y-69100000D02*
X84600000Y-69100000D01*
X85200000Y-69750000D02*
X85200000Y-68450000D01*
X32085000Y-67290000D02*
X32085000Y-69910000D01*
X26965000Y-67290000D02*
X26965000Y-69910000D01*
X26965000Y-69910000D02*
X32085000Y-69910000D01*
X26965000Y-67290000D02*
X32085000Y-67290000D01*
X38810000Y-87040000D02*
X38810000Y-89660000D01*
X33690000Y-87040000D02*
X33690000Y-89660000D01*
X33690000Y-89660000D02*
X38810000Y-89660000D01*
X33690000Y-87040000D02*
X38810000Y-87040000D01*
X57690000Y-87290000D02*
X60810000Y-87290000D01*
X57690000Y-89410000D02*
X60810000Y-89410000D01*
X57690000Y-87290000D02*
X57690000Y-87354000D01*
X57690000Y-89346000D02*
X57690000Y-89410000D01*
X60810000Y-87290000D02*
X60810000Y-87354000D01*
X60810000Y-89346000D02*
X60810000Y-89410000D01*
X59090000Y-70510000D02*
X61910000Y-70510000D01*
X60500000Y-65960000D02*
X60500000Y-66030000D01*
X60500000Y-71420000D02*
X60500000Y-71350000D01*
X59090000Y-66030000D02*
X59090000Y-71350000D01*
X61910000Y-66030000D02*
X59090000Y-66030000D01*
X61910000Y-71350000D02*
X61910000Y-66030000D01*
X59090000Y-71350000D02*
X61910000Y-71350000D01*
X54090000Y-71350000D02*
X56910000Y-71350000D01*
X56910000Y-71350000D02*
X56910000Y-66030000D01*
X56910000Y-66030000D02*
X54090000Y-66030000D01*
X54090000Y-66030000D02*
X54090000Y-71350000D01*
X55500000Y-71420000D02*
X55500000Y-71350000D01*
X55500000Y-65960000D02*
X55500000Y-66030000D01*
X54090000Y-70510000D02*
X56910000Y-70510000D01*
X99380000Y-75220000D02*
X99860000Y-75220000D01*
X99860000Y-75220000D02*
X99860000Y-82940000D01*
X99860000Y-82940000D02*
X99380000Y-82940000D01*
X96620000Y-75220000D02*
X96140000Y-75220000D01*
X96140000Y-75220000D02*
X96140000Y-82940000D01*
X96140000Y-82940000D02*
X96620000Y-82940000D01*
X99860000Y-76420000D02*
X96140000Y-76420000D01*
X99860000Y-92420000D02*
X96140000Y-92420000D01*
X96140000Y-98940000D02*
X96620000Y-98940000D01*
X96140000Y-91220000D02*
X96140000Y-98940000D01*
X96620000Y-91220000D02*
X96140000Y-91220000D01*
X99860000Y-98940000D02*
X99380000Y-98940000D01*
X99860000Y-91220000D02*
X99860000Y-98940000D01*
X99380000Y-91220000D02*
X99860000Y-91220000D01*
X26920000Y-78070000D02*
X28250000Y-78070000D01*
X26920000Y-79400000D02*
X26920000Y-78070000D01*
X29520000Y-78070000D02*
X32120000Y-78070000D01*
X29520000Y-80670000D02*
X29520000Y-78070000D01*
X26920000Y-80670000D02*
X29520000Y-80670000D01*
X32120000Y-78070000D02*
X32120000Y-85810000D01*
X26920000Y-80670000D02*
X26920000Y-85810000D01*
X26920000Y-85810000D02*
X32120000Y-85810000D01*
X99330000Y-103670000D02*
X99330000Y-105000000D01*
X98000000Y-103670000D02*
X99330000Y-103670000D01*
X99330000Y-106270000D02*
X99330000Y-108870000D01*
X96730000Y-106270000D02*
X99330000Y-106270000D01*
X96730000Y-103670000D02*
X96730000Y-106270000D01*
X99330000Y-108870000D02*
X86510000Y-108870000D01*
X96730000Y-103670000D02*
X86510000Y-103670000D01*
X86510000Y-103670000D02*
X86510000Y-108870000D01*
X35020000Y-72000000D02*
X34690000Y-72000000D01*
X34690000Y-72000000D02*
X34690000Y-65580000D01*
X34690000Y-65580000D02*
X35020000Y-65580000D01*
X36980000Y-72000000D02*
X37310000Y-72000000D01*
X37310000Y-72000000D02*
X37310000Y-65580000D01*
X37310000Y-65580000D02*
X36980000Y-65580000D01*
X66980000Y-65600000D02*
X67310000Y-65600000D01*
X67310000Y-65600000D02*
X67310000Y-72020000D01*
X67310000Y-72020000D02*
X66980000Y-72020000D01*
X65020000Y-65600000D02*
X64690000Y-65600000D01*
X64690000Y-65600000D02*
X64690000Y-72020000D01*
X64690000Y-72020000D02*
X65020000Y-72020000D01*
X37620000Y-100000000D02*
X37290000Y-100000000D01*
X37290000Y-100000000D02*
X37290000Y-93580000D01*
X37290000Y-93580000D02*
X37620000Y-93580000D01*
X39580000Y-100000000D02*
X39910000Y-100000000D01*
X39910000Y-100000000D02*
X39910000Y-93580000D01*
X39910000Y-93580000D02*
X39580000Y-93580000D01*
X63810000Y-54180000D02*
X63480000Y-54180000D01*
X63810000Y-60600000D02*
X63810000Y-54180000D01*
X63480000Y-60600000D02*
X63810000Y-60600000D01*
X61190000Y-54180000D02*
X61520000Y-54180000D01*
X61190000Y-60600000D02*
X61190000Y-54180000D01*
X61520000Y-60600000D02*
X61190000Y-60600000D01*
X67810000Y-54180000D02*
X67480000Y-54180000D01*
X67810000Y-60600000D02*
X67810000Y-54180000D01*
X67480000Y-60600000D02*
X67810000Y-60600000D01*
X65190000Y-54180000D02*
X65520000Y-54180000D01*
X65190000Y-60600000D02*
X65190000Y-54180000D01*
X65520000Y-60600000D02*
X65190000Y-60600000D01*
X45520000Y-60600000D02*
X45190000Y-60600000D01*
X45190000Y-60600000D02*
X45190000Y-54180000D01*
X45190000Y-54180000D02*
X45520000Y-54180000D01*
X47480000Y-60600000D02*
X47810000Y-60600000D01*
X47810000Y-60600000D02*
X47810000Y-54180000D01*
X47810000Y-54180000D02*
X47480000Y-54180000D01*
X51810000Y-54180000D02*
X51480000Y-54180000D01*
X51810000Y-60600000D02*
X51810000Y-54180000D01*
X51480000Y-60600000D02*
X51810000Y-60600000D01*
X49190000Y-54180000D02*
X49520000Y-54180000D01*
X49190000Y-60600000D02*
X49190000Y-54180000D01*
X49520000Y-60600000D02*
X49190000Y-60600000D01*
X44967142Y-93580000D02*
X44637142Y-93580000D01*
X44967142Y-100000000D02*
X44967142Y-93580000D01*
X44637142Y-100000000D02*
X44967142Y-100000000D01*
X42347142Y-93580000D02*
X42677142Y-93580000D01*
X42347142Y-100000000D02*
X42347142Y-93580000D01*
X42677142Y-100000000D02*
X42347142Y-100000000D01*
X39810000Y-54180000D02*
X39480000Y-54180000D01*
X39810000Y-60600000D02*
X39810000Y-54180000D01*
X39480000Y-60600000D02*
X39810000Y-60600000D01*
X37190000Y-54180000D02*
X37520000Y-54180000D01*
X37190000Y-60600000D02*
X37190000Y-54180000D01*
X37520000Y-60600000D02*
X37190000Y-60600000D01*
X41520000Y-60600000D02*
X41190000Y-60600000D01*
X41190000Y-60600000D02*
X41190000Y-54180000D01*
X41190000Y-54180000D02*
X41520000Y-54180000D01*
X43480000Y-60600000D02*
X43810000Y-60600000D01*
X43810000Y-60600000D02*
X43810000Y-54180000D01*
X43810000Y-54180000D02*
X43480000Y-54180000D01*
X55810000Y-54180000D02*
X55480000Y-54180000D01*
X55810000Y-60600000D02*
X55810000Y-54180000D01*
X55480000Y-60600000D02*
X55810000Y-60600000D01*
X53190000Y-54180000D02*
X53520000Y-54180000D01*
X53190000Y-60600000D02*
X53190000Y-54180000D01*
X53520000Y-60600000D02*
X53190000Y-60600000D01*
X57520000Y-60600000D02*
X57190000Y-60600000D01*
X57190000Y-60600000D02*
X57190000Y-54180000D01*
X57190000Y-54180000D02*
X57520000Y-54180000D01*
X59480000Y-60600000D02*
X59810000Y-60600000D01*
X59810000Y-60600000D02*
X59810000Y-54180000D01*
X59810000Y-54180000D02*
X59480000Y-54180000D01*
X50024284Y-93580000D02*
X49694284Y-93580000D01*
X50024284Y-100000000D02*
X50024284Y-93580000D01*
X49694284Y-100000000D02*
X50024284Y-100000000D01*
X47404284Y-93580000D02*
X47734284Y-93580000D01*
X47404284Y-100000000D02*
X47404284Y-93580000D01*
X47734284Y-100000000D02*
X47404284Y-100000000D01*
X59808568Y-93550000D02*
X60138568Y-93550000D01*
X60138568Y-93550000D02*
X60138568Y-99970000D01*
X60138568Y-99970000D02*
X59808568Y-99970000D01*
X57848568Y-93550000D02*
X57518568Y-93550000D01*
X57518568Y-93550000D02*
X57518568Y-99970000D01*
X57518568Y-99970000D02*
X57848568Y-99970000D01*
X55081426Y-93580000D02*
X54751426Y-93580000D01*
X55081426Y-100000000D02*
X55081426Y-93580000D01*
X54751426Y-100000000D02*
X55081426Y-100000000D01*
X52461426Y-93580000D02*
X52791426Y-93580000D01*
X52461426Y-100000000D02*
X52461426Y-93580000D01*
X52791426Y-100000000D02*
X52461426Y-100000000D01*
X73020000Y-100000000D02*
X72690000Y-100000000D01*
X72690000Y-100000000D02*
X72690000Y-93580000D01*
X72690000Y-93580000D02*
X73020000Y-93580000D01*
X74980000Y-100000000D02*
X75310000Y-100000000D01*
X75310000Y-100000000D02*
X75310000Y-93580000D01*
X75310000Y-93580000D02*
X74980000Y-93580000D01*
X62575710Y-99970000D02*
X62905710Y-99970000D01*
X62575710Y-93550000D02*
X62575710Y-99970000D01*
X62905710Y-93550000D02*
X62575710Y-93550000D01*
X65195710Y-99970000D02*
X64865710Y-99970000D01*
X65195710Y-93550000D02*
X65195710Y-99970000D01*
X64865710Y-93550000D02*
X65195710Y-93550000D01*
X67962852Y-100000000D02*
X67632852Y-100000000D01*
X67632852Y-100000000D02*
X67632852Y-93580000D01*
X67632852Y-93580000D02*
X67962852Y-93580000D01*
X69922852Y-100000000D02*
X70252852Y-100000000D01*
X70252852Y-100000000D02*
X70252852Y-93580000D01*
X70252852Y-93580000D02*
X69922852Y-93580000D01*
X95610000Y-56420000D02*
X98234000Y-56420000D01*
X95610000Y-58960000D02*
X98234000Y-58960000D01*
X95610000Y-61500000D02*
X98250000Y-61500000D01*
X79720000Y-53840000D02*
X95610000Y-53840000D01*
X79720000Y-64080000D02*
X95610000Y-64080000D01*
X79720000Y-64080000D02*
X79720000Y-53840000D01*
X95610000Y-64080000D02*
X95610000Y-53840000D01*
D10*
X27975000Y-55575000D02*
X27975000Y-56975000D01*
X33075000Y-55575000D02*
X33075000Y-51425000D01*
X27925000Y-55575000D02*
X27925000Y-51425000D01*
X33075000Y-55575000D02*
X32930000Y-55575000D01*
X33075000Y-51425000D02*
X32930000Y-51425000D01*
X27925000Y-51425000D02*
X28070000Y-51425000D01*
X27925000Y-55575000D02*
X27975000Y-55575000D01*
D14*
X93230000Y-83360000D02*
X93230000Y-81710000D01*
X82950000Y-83360000D02*
X93230000Y-83360000D01*
X82950000Y-78060000D02*
X82950000Y-83360000D01*
X93230000Y-78060000D02*
X82950000Y-78060000D01*
X93230000Y-79710000D02*
X93230000Y-78060000D01*
X93230000Y-81710000D02*
G75*
G02X93230000Y-79710000I0J1000000D01*
G01*
X42425000Y-68475000D02*
G75*
G03X42425000Y-73525000I0J-2525000D01*
G01*
X48675000Y-68475000D02*
G75*
G02X48675000Y-73525000I0J-2525000D01*
G01*
X48675000Y-68475000D02*
X42425000Y-68475000D01*
X48675000Y-73525000D02*
X42425000Y-73525000D01*
D10*
X27495714Y-99020380D02*
X27495714Y-99829904D01*
X27543333Y-99925142D01*
X27590952Y-99972761D01*
X27686190Y-100020380D01*
X27876666Y-100020380D01*
X27971904Y-99972761D01*
X28019523Y-99925142D01*
X28067142Y-99829904D01*
X28067142Y-99020380D01*
X29067142Y-100020380D02*
X28495714Y-100020380D01*
X28781428Y-100020380D02*
X28781428Y-99020380D01*
X28686190Y-99163238D01*
X28590952Y-99258476D01*
X28495714Y-99306095D01*
X29686190Y-99020380D02*
X29781428Y-99020380D01*
X29876666Y-99068000D01*
X29924285Y-99115619D01*
X29971904Y-99210857D01*
X30019523Y-99401333D01*
X30019523Y-99639428D01*
X29971904Y-99829904D01*
X29924285Y-99925142D01*
X29876666Y-99972761D01*
X29781428Y-100020380D01*
X29686190Y-100020380D01*
X29590952Y-99972761D01*
X29543333Y-99925142D01*
X29495714Y-99829904D01*
X29448095Y-99639428D01*
X29448095Y-99401333D01*
X29495714Y-99210857D01*
X29543333Y-99115619D01*
X29590952Y-99068000D01*
X29686190Y-99020380D01*
X30400476Y-99115619D02*
X30448095Y-99068000D01*
X30543333Y-99020380D01*
X30781428Y-99020380D01*
X30876666Y-99068000D01*
X30924285Y-99115619D01*
X30971904Y-99210857D01*
X30971904Y-99306095D01*
X30924285Y-99448952D01*
X30352857Y-100020380D01*
X30971904Y-100020380D01*
X25706558Y-98657480D02*
X25230367Y-98657480D01*
X25230367Y-97657480D01*
X26039891Y-98657480D02*
X26039891Y-97657480D01*
X26420843Y-97657480D01*
X26516081Y-97705100D01*
X26563700Y-97752719D01*
X26611320Y-97847957D01*
X26611320Y-97990814D01*
X26563700Y-98086052D01*
X26516081Y-98133671D01*
X26420843Y-98181290D01*
X26039891Y-98181290D01*
X26992272Y-97752719D02*
X27039891Y-97705100D01*
X27135129Y-97657480D01*
X27373224Y-97657480D01*
X27468462Y-97705100D01*
X27516081Y-97752719D01*
X27563700Y-97847957D01*
X27563700Y-97943195D01*
X27516081Y-98086052D01*
X26944653Y-98657480D01*
X27563700Y-98657480D01*
X28039891Y-98657480D02*
X28230367Y-98657480D01*
X28325605Y-98609861D01*
X28373224Y-98562242D01*
X28468462Y-98419385D01*
X28516081Y-98228909D01*
X28516081Y-97847957D01*
X28468462Y-97752719D01*
X28420843Y-97705100D01*
X28325605Y-97657480D01*
X28135129Y-97657480D01*
X28039891Y-97705100D01*
X27992272Y-97752719D01*
X27944653Y-97847957D01*
X27944653Y-98086052D01*
X27992272Y-98181290D01*
X28039891Y-98228909D01*
X28135129Y-98276528D01*
X28325605Y-98276528D01*
X28420843Y-98228909D01*
X28468462Y-98181290D01*
X28516081Y-98086052D01*
X29420843Y-97657480D02*
X28944653Y-97657480D01*
X28897034Y-98133671D01*
X28944653Y-98086052D01*
X29039891Y-98038433D01*
X29277986Y-98038433D01*
X29373224Y-98086052D01*
X29420843Y-98133671D01*
X29468462Y-98228909D01*
X29468462Y-98467004D01*
X29420843Y-98562242D01*
X29373224Y-98609861D01*
X29277986Y-98657480D01*
X29039891Y-98657480D01*
X28944653Y-98609861D01*
X28897034Y-98562242D01*
X30087510Y-97657480D02*
X30182748Y-97657480D01*
X30277986Y-97705100D01*
X30325605Y-97752719D01*
X30373224Y-97847957D01*
X30420843Y-98038433D01*
X30420843Y-98276528D01*
X30373224Y-98467004D01*
X30325605Y-98562242D01*
X30277986Y-98609861D01*
X30182748Y-98657480D01*
X30087510Y-98657480D01*
X29992272Y-98609861D01*
X29944653Y-98562242D01*
X29897034Y-98467004D01*
X29849415Y-98276528D01*
X29849415Y-98038433D01*
X29897034Y-97847957D01*
X29944653Y-97752719D01*
X29992272Y-97705100D01*
X30087510Y-97657480D01*
X30849415Y-98276528D02*
X31611320Y-98276528D01*
X31992272Y-97657480D02*
X32611320Y-97657480D01*
X32277986Y-98038433D01*
X32420843Y-98038433D01*
X32516081Y-98086052D01*
X32563700Y-98133671D01*
X32611320Y-98228909D01*
X32611320Y-98467004D01*
X32563700Y-98562242D01*
X32516081Y-98609861D01*
X32420843Y-98657480D01*
X32135129Y-98657480D01*
X32039891Y-98609861D01*
X31992272Y-98562242D01*
X33039891Y-98562242D02*
X33087510Y-98609861D01*
X33039891Y-98657480D01*
X32992272Y-98609861D01*
X33039891Y-98562242D01*
X33039891Y-98657480D01*
X33420843Y-97657480D02*
X34039891Y-97657480D01*
X33706558Y-98038433D01*
X33849415Y-98038433D01*
X33944653Y-98086052D01*
X33992272Y-98133671D01*
X34039891Y-98228909D01*
X34039891Y-98467004D01*
X33992272Y-98562242D01*
X33944653Y-98609861D01*
X33849415Y-98657480D01*
X33563700Y-98657480D01*
X33468462Y-98609861D01*
X33420843Y-98562242D01*
X54600080Y-46487619D02*
X54504842Y-46440000D01*
X54409604Y-46344761D01*
X54266747Y-46201904D01*
X54171509Y-46154285D01*
X54076271Y-46154285D01*
X54123890Y-46392380D02*
X54028652Y-46344761D01*
X53933414Y-46249523D01*
X53885795Y-46059047D01*
X53885795Y-45725714D01*
X53933414Y-45535238D01*
X54028652Y-45440000D01*
X54123890Y-45392380D01*
X54314366Y-45392380D01*
X54409604Y-45440000D01*
X54504842Y-45535238D01*
X54552461Y-45725714D01*
X54552461Y-46059047D01*
X54504842Y-46249523D01*
X54409604Y-46344761D01*
X54314366Y-46392380D01*
X54123890Y-46392380D01*
X55504842Y-46392380D02*
X54933414Y-46392380D01*
X55219128Y-46392380D02*
X55219128Y-45392380D01*
X55123890Y-45535238D01*
X55028652Y-45630476D01*
X54933414Y-45678095D01*
X56123890Y-45392380D02*
X56219128Y-45392380D01*
X56314366Y-45440000D01*
X56361985Y-45487619D01*
X56409604Y-45582857D01*
X56457223Y-45773333D01*
X56457223Y-46011428D01*
X56409604Y-46201904D01*
X56361985Y-46297142D01*
X56314366Y-46344761D01*
X56219128Y-46392380D01*
X56123890Y-46392380D01*
X56028652Y-46344761D01*
X55981033Y-46297142D01*
X55933414Y-46201904D01*
X55885795Y-46011428D01*
X55885795Y-45773333D01*
X55933414Y-45582857D01*
X55981033Y-45487619D01*
X56028652Y-45440000D01*
X56123890Y-45392380D01*
X57314366Y-45725714D02*
X57314366Y-46392380D01*
X57076271Y-45344761D02*
X56838176Y-46059047D01*
X57457223Y-46059047D01*
X52933414Y-51617619D02*
X52981033Y-51570000D01*
X53076271Y-51522380D01*
X53314366Y-51522380D01*
X53409604Y-51570000D01*
X53457223Y-51617619D01*
X53504842Y-51712857D01*
X53504842Y-51808095D01*
X53457223Y-51950952D01*
X52885795Y-52522380D01*
X53504842Y-52522380D01*
X53933414Y-52522380D02*
X53933414Y-51522380D01*
X54504842Y-52522380D01*
X54504842Y-51522380D01*
X54885795Y-51522380D02*
X55552461Y-51522380D01*
X55123890Y-52522380D01*
X56123890Y-51522380D02*
X56219128Y-51522380D01*
X56314366Y-51570000D01*
X56361985Y-51617619D01*
X56409604Y-51712857D01*
X56457223Y-51903333D01*
X56457223Y-52141428D01*
X56409604Y-52331904D01*
X56361985Y-52427142D01*
X56314366Y-52474761D01*
X56219128Y-52522380D01*
X56123890Y-52522380D01*
X56028652Y-52474761D01*
X55981033Y-52427142D01*
X55933414Y-52331904D01*
X55885795Y-52141428D01*
X55885795Y-51903333D01*
X55933414Y-51712857D01*
X55981033Y-51617619D01*
X56028652Y-51570000D01*
X56123890Y-51522380D01*
X57076271Y-51522380D02*
X57171509Y-51522380D01*
X57266747Y-51570000D01*
X57314366Y-51617619D01*
X57361985Y-51712857D01*
X57409604Y-51903333D01*
X57409604Y-52141428D01*
X57361985Y-52331904D01*
X57314366Y-52427142D01*
X57266747Y-52474761D01*
X57171509Y-52522380D01*
X57076271Y-52522380D01*
X56981033Y-52474761D01*
X56933414Y-52427142D01*
X56885795Y-52331904D01*
X56838176Y-52141428D01*
X56838176Y-51903333D01*
X56885795Y-51712857D01*
X56933414Y-51617619D01*
X56981033Y-51570000D01*
X57076271Y-51522380D01*
X58028652Y-51522380D02*
X58123890Y-51522380D01*
X58219128Y-51570000D01*
X58266747Y-51617619D01*
X58314366Y-51712857D01*
X58361985Y-51903333D01*
X58361985Y-52141428D01*
X58314366Y-52331904D01*
X58266747Y-52427142D01*
X58219128Y-52474761D01*
X58123890Y-52522380D01*
X58028652Y-52522380D01*
X57933414Y-52474761D01*
X57885795Y-52427142D01*
X57838176Y-52331904D01*
X57790557Y-52141428D01*
X57790557Y-51903333D01*
X57838176Y-51712857D01*
X57885795Y-51617619D01*
X57933414Y-51570000D01*
X58028652Y-51522380D01*
X38600080Y-46487619D02*
X38504842Y-46440000D01*
X38409604Y-46344761D01*
X38266747Y-46201904D01*
X38171509Y-46154285D01*
X38076271Y-46154285D01*
X38123890Y-46392380D02*
X38028652Y-46344761D01*
X37933414Y-46249523D01*
X37885795Y-46059047D01*
X37885795Y-45725714D01*
X37933414Y-45535238D01*
X38028652Y-45440000D01*
X38123890Y-45392380D01*
X38314366Y-45392380D01*
X38409604Y-45440000D01*
X38504842Y-45535238D01*
X38552461Y-45725714D01*
X38552461Y-46059047D01*
X38504842Y-46249523D01*
X38409604Y-46344761D01*
X38314366Y-46392380D01*
X38123890Y-46392380D01*
X39504842Y-46392380D02*
X38933414Y-46392380D01*
X39219128Y-46392380D02*
X39219128Y-45392380D01*
X39123890Y-45535238D01*
X39028652Y-45630476D01*
X38933414Y-45678095D01*
X40123890Y-45392380D02*
X40219128Y-45392380D01*
X40314366Y-45440000D01*
X40361985Y-45487619D01*
X40409604Y-45582857D01*
X40457223Y-45773333D01*
X40457223Y-46011428D01*
X40409604Y-46201904D01*
X40361985Y-46297142D01*
X40314366Y-46344761D01*
X40219128Y-46392380D01*
X40123890Y-46392380D01*
X40028652Y-46344761D01*
X39981033Y-46297142D01*
X39933414Y-46201904D01*
X39885795Y-46011428D01*
X39885795Y-45773333D01*
X39933414Y-45582857D01*
X39981033Y-45487619D01*
X40028652Y-45440000D01*
X40123890Y-45392380D01*
X40790557Y-45392380D02*
X41409604Y-45392380D01*
X41076271Y-45773333D01*
X41219128Y-45773333D01*
X41314366Y-45820952D01*
X41361985Y-45868571D01*
X41409604Y-45963809D01*
X41409604Y-46201904D01*
X41361985Y-46297142D01*
X41314366Y-46344761D01*
X41219128Y-46392380D01*
X40933414Y-46392380D01*
X40838176Y-46344761D01*
X40790557Y-46297142D01*
X36933414Y-51617619D02*
X36981033Y-51570000D01*
X37076271Y-51522380D01*
X37314366Y-51522380D01*
X37409604Y-51570000D01*
X37457223Y-51617619D01*
X37504842Y-51712857D01*
X37504842Y-51808095D01*
X37457223Y-51950952D01*
X36885795Y-52522380D01*
X37504842Y-52522380D01*
X37933414Y-52522380D02*
X37933414Y-51522380D01*
X38504842Y-52522380D01*
X38504842Y-51522380D01*
X38885795Y-51522380D02*
X39552461Y-51522380D01*
X39123890Y-52522380D01*
X40123890Y-51522380D02*
X40219128Y-51522380D01*
X40314366Y-51570000D01*
X40361985Y-51617619D01*
X40409604Y-51712857D01*
X40457223Y-51903333D01*
X40457223Y-52141428D01*
X40409604Y-52331904D01*
X40361985Y-52427142D01*
X40314366Y-52474761D01*
X40219128Y-52522380D01*
X40123890Y-52522380D01*
X40028652Y-52474761D01*
X39981033Y-52427142D01*
X39933414Y-52331904D01*
X39885795Y-52141428D01*
X39885795Y-51903333D01*
X39933414Y-51712857D01*
X39981033Y-51617619D01*
X40028652Y-51570000D01*
X40123890Y-51522380D01*
X41076271Y-51522380D02*
X41171509Y-51522380D01*
X41266747Y-51570000D01*
X41314366Y-51617619D01*
X41361985Y-51712857D01*
X41409604Y-51903333D01*
X41409604Y-52141428D01*
X41361985Y-52331904D01*
X41314366Y-52427142D01*
X41266747Y-52474761D01*
X41171509Y-52522380D01*
X41076271Y-52522380D01*
X40981033Y-52474761D01*
X40933414Y-52427142D01*
X40885795Y-52331904D01*
X40838176Y-52141428D01*
X40838176Y-51903333D01*
X40885795Y-51712857D01*
X40933414Y-51617619D01*
X40981033Y-51570000D01*
X41076271Y-51522380D01*
X42028652Y-51522380D02*
X42123890Y-51522380D01*
X42219128Y-51570000D01*
X42266747Y-51617619D01*
X42314366Y-51712857D01*
X42361985Y-51903333D01*
X42361985Y-52141428D01*
X42314366Y-52331904D01*
X42266747Y-52427142D01*
X42219128Y-52474761D01*
X42123890Y-52522380D01*
X42028652Y-52522380D01*
X41933414Y-52474761D01*
X41885795Y-52427142D01*
X41838176Y-52331904D01*
X41790557Y-52141428D01*
X41790557Y-51903333D01*
X41838176Y-51712857D01*
X41885795Y-51617619D01*
X41933414Y-51570000D01*
X42028652Y-51522380D01*
X46600080Y-46487619D02*
X46504842Y-46440000D01*
X46409604Y-46344761D01*
X46266747Y-46201904D01*
X46171509Y-46154285D01*
X46076271Y-46154285D01*
X46123890Y-46392380D02*
X46028652Y-46344761D01*
X45933414Y-46249523D01*
X45885795Y-46059047D01*
X45885795Y-45725714D01*
X45933414Y-45535238D01*
X46028652Y-45440000D01*
X46123890Y-45392380D01*
X46314366Y-45392380D01*
X46409604Y-45440000D01*
X46504842Y-45535238D01*
X46552461Y-45725714D01*
X46552461Y-46059047D01*
X46504842Y-46249523D01*
X46409604Y-46344761D01*
X46314366Y-46392380D01*
X46123890Y-46392380D01*
X47504842Y-46392380D02*
X46933414Y-46392380D01*
X47219128Y-46392380D02*
X47219128Y-45392380D01*
X47123890Y-45535238D01*
X47028652Y-45630476D01*
X46933414Y-45678095D01*
X48123890Y-45392380D02*
X48219128Y-45392380D01*
X48314366Y-45440000D01*
X48361985Y-45487619D01*
X48409604Y-45582857D01*
X48457223Y-45773333D01*
X48457223Y-46011428D01*
X48409604Y-46201904D01*
X48361985Y-46297142D01*
X48314366Y-46344761D01*
X48219128Y-46392380D01*
X48123890Y-46392380D01*
X48028652Y-46344761D01*
X47981033Y-46297142D01*
X47933414Y-46201904D01*
X47885795Y-46011428D01*
X47885795Y-45773333D01*
X47933414Y-45582857D01*
X47981033Y-45487619D01*
X48028652Y-45440000D01*
X48123890Y-45392380D01*
X48838176Y-45487619D02*
X48885795Y-45440000D01*
X48981033Y-45392380D01*
X49219128Y-45392380D01*
X49314366Y-45440000D01*
X49361985Y-45487619D01*
X49409604Y-45582857D01*
X49409604Y-45678095D01*
X49361985Y-45820952D01*
X48790557Y-46392380D01*
X49409604Y-46392380D01*
X44933414Y-51617619D02*
X44981033Y-51570000D01*
X45076271Y-51522380D01*
X45314366Y-51522380D01*
X45409604Y-51570000D01*
X45457223Y-51617619D01*
X45504842Y-51712857D01*
X45504842Y-51808095D01*
X45457223Y-51950952D01*
X44885795Y-52522380D01*
X45504842Y-52522380D01*
X45933414Y-52522380D02*
X45933414Y-51522380D01*
X46504842Y-52522380D01*
X46504842Y-51522380D01*
X46885795Y-51522380D02*
X47552461Y-51522380D01*
X47123890Y-52522380D01*
X48123890Y-51522380D02*
X48219128Y-51522380D01*
X48314366Y-51570000D01*
X48361985Y-51617619D01*
X48409604Y-51712857D01*
X48457223Y-51903333D01*
X48457223Y-52141428D01*
X48409604Y-52331904D01*
X48361985Y-52427142D01*
X48314366Y-52474761D01*
X48219128Y-52522380D01*
X48123890Y-52522380D01*
X48028652Y-52474761D01*
X47981033Y-52427142D01*
X47933414Y-52331904D01*
X47885795Y-52141428D01*
X47885795Y-51903333D01*
X47933414Y-51712857D01*
X47981033Y-51617619D01*
X48028652Y-51570000D01*
X48123890Y-51522380D01*
X49076271Y-51522380D02*
X49171509Y-51522380D01*
X49266747Y-51570000D01*
X49314366Y-51617619D01*
X49361985Y-51712857D01*
X49409604Y-51903333D01*
X49409604Y-52141428D01*
X49361985Y-52331904D01*
X49314366Y-52427142D01*
X49266747Y-52474761D01*
X49171509Y-52522380D01*
X49076271Y-52522380D01*
X48981033Y-52474761D01*
X48933414Y-52427142D01*
X48885795Y-52331904D01*
X48838176Y-52141428D01*
X48838176Y-51903333D01*
X48885795Y-51712857D01*
X48933414Y-51617619D01*
X48981033Y-51570000D01*
X49076271Y-51522380D01*
X50028652Y-51522380D02*
X50123890Y-51522380D01*
X50219128Y-51570000D01*
X50266747Y-51617619D01*
X50314366Y-51712857D01*
X50361985Y-51903333D01*
X50361985Y-52141428D01*
X50314366Y-52331904D01*
X50266747Y-52427142D01*
X50219128Y-52474761D01*
X50123890Y-52522380D01*
X50028652Y-52522380D01*
X49933414Y-52474761D01*
X49885795Y-52427142D01*
X49838176Y-52331904D01*
X49790557Y-52141428D01*
X49790557Y-51903333D01*
X49838176Y-51712857D01*
X49885795Y-51617619D01*
X49933414Y-51570000D01*
X50028652Y-51522380D01*
X62600080Y-46487619D02*
X62504842Y-46440000D01*
X62409604Y-46344761D01*
X62266747Y-46201904D01*
X62171509Y-46154285D01*
X62076271Y-46154285D01*
X62123890Y-46392380D02*
X62028652Y-46344761D01*
X61933414Y-46249523D01*
X61885795Y-46059047D01*
X61885795Y-45725714D01*
X61933414Y-45535238D01*
X62028652Y-45440000D01*
X62123890Y-45392380D01*
X62314366Y-45392380D01*
X62409604Y-45440000D01*
X62504842Y-45535238D01*
X62552461Y-45725714D01*
X62552461Y-46059047D01*
X62504842Y-46249523D01*
X62409604Y-46344761D01*
X62314366Y-46392380D01*
X62123890Y-46392380D01*
X63504842Y-46392380D02*
X62933414Y-46392380D01*
X63219128Y-46392380D02*
X63219128Y-45392380D01*
X63123890Y-45535238D01*
X63028652Y-45630476D01*
X62933414Y-45678095D01*
X64123890Y-45392380D02*
X64219128Y-45392380D01*
X64314366Y-45440000D01*
X64361985Y-45487619D01*
X64409604Y-45582857D01*
X64457223Y-45773333D01*
X64457223Y-46011428D01*
X64409604Y-46201904D01*
X64361985Y-46297142D01*
X64314366Y-46344761D01*
X64219128Y-46392380D01*
X64123890Y-46392380D01*
X64028652Y-46344761D01*
X63981033Y-46297142D01*
X63933414Y-46201904D01*
X63885795Y-46011428D01*
X63885795Y-45773333D01*
X63933414Y-45582857D01*
X63981033Y-45487619D01*
X64028652Y-45440000D01*
X64123890Y-45392380D01*
X65409604Y-46392380D02*
X64838176Y-46392380D01*
X65123890Y-46392380D02*
X65123890Y-45392380D01*
X65028652Y-45535238D01*
X64933414Y-45630476D01*
X64838176Y-45678095D01*
X60933414Y-51617619D02*
X60981033Y-51570000D01*
X61076271Y-51522380D01*
X61314366Y-51522380D01*
X61409604Y-51570000D01*
X61457223Y-51617619D01*
X61504842Y-51712857D01*
X61504842Y-51808095D01*
X61457223Y-51950952D01*
X60885795Y-52522380D01*
X61504842Y-52522380D01*
X61933414Y-52522380D02*
X61933414Y-51522380D01*
X62504842Y-52522380D01*
X62504842Y-51522380D01*
X62885795Y-51522380D02*
X63552461Y-51522380D01*
X63123890Y-52522380D01*
X64123890Y-51522380D02*
X64219128Y-51522380D01*
X64314366Y-51570000D01*
X64361985Y-51617619D01*
X64409604Y-51712857D01*
X64457223Y-51903333D01*
X64457223Y-52141428D01*
X64409604Y-52331904D01*
X64361985Y-52427142D01*
X64314366Y-52474761D01*
X64219128Y-52522380D01*
X64123890Y-52522380D01*
X64028652Y-52474761D01*
X63981033Y-52427142D01*
X63933414Y-52331904D01*
X63885795Y-52141428D01*
X63885795Y-51903333D01*
X63933414Y-51712857D01*
X63981033Y-51617619D01*
X64028652Y-51570000D01*
X64123890Y-51522380D01*
X65076271Y-51522380D02*
X65171509Y-51522380D01*
X65266747Y-51570000D01*
X65314366Y-51617619D01*
X65361985Y-51712857D01*
X65409604Y-51903333D01*
X65409604Y-52141428D01*
X65361985Y-52331904D01*
X65314366Y-52427142D01*
X65266747Y-52474761D01*
X65171509Y-52522380D01*
X65076271Y-52522380D01*
X64981033Y-52474761D01*
X64933414Y-52427142D01*
X64885795Y-52331904D01*
X64838176Y-52141428D01*
X64838176Y-51903333D01*
X64885795Y-51712857D01*
X64933414Y-51617619D01*
X64981033Y-51570000D01*
X65076271Y-51522380D01*
X66028652Y-51522380D02*
X66123890Y-51522380D01*
X66219128Y-51570000D01*
X66266747Y-51617619D01*
X66314366Y-51712857D01*
X66361985Y-51903333D01*
X66361985Y-52141428D01*
X66314366Y-52331904D01*
X66266747Y-52427142D01*
X66219128Y-52474761D01*
X66123890Y-52522380D01*
X66028652Y-52522380D01*
X65933414Y-52474761D01*
X65885795Y-52427142D01*
X65838176Y-52331904D01*
X65790557Y-52141428D01*
X65790557Y-51903333D01*
X65838176Y-51712857D01*
X65885795Y-51617619D01*
X65933414Y-51570000D01*
X66028652Y-51522380D01*
X77620952Y-95353142D02*
X77573333Y-95400761D01*
X77430476Y-95448380D01*
X77335238Y-95448380D01*
X77192380Y-95400761D01*
X77097142Y-95305523D01*
X77049523Y-95210285D01*
X77001904Y-95019809D01*
X77001904Y-94876952D01*
X77049523Y-94686476D01*
X77097142Y-94591238D01*
X77192380Y-94496000D01*
X77335238Y-94448380D01*
X77430476Y-94448380D01*
X77573333Y-94496000D01*
X77620952Y-94543619D01*
X78573333Y-95448380D02*
X78001904Y-95448380D01*
X78287619Y-95448380D02*
X78287619Y-94448380D01*
X78192380Y-94591238D01*
X78097142Y-94686476D01*
X78001904Y-94734095D01*
X79525714Y-95448380D02*
X78954285Y-95448380D01*
X79240000Y-95448380D02*
X79240000Y-94448380D01*
X79144761Y-94591238D01*
X79049523Y-94686476D01*
X78954285Y-94734095D01*
X80382857Y-94781714D02*
X80382857Y-95448380D01*
X80144761Y-94400761D02*
X79906666Y-95115047D01*
X80525714Y-95115047D01*
X77240000Y-95813619D02*
X77287619Y-95766000D01*
X77382857Y-95718380D01*
X77620952Y-95718380D01*
X77716190Y-95766000D01*
X77763809Y-95813619D01*
X77811428Y-95908857D01*
X77811428Y-96004095D01*
X77763809Y-96146952D01*
X77192380Y-96718380D01*
X77811428Y-96718380D01*
X78192380Y-95813619D02*
X78240000Y-95766000D01*
X78335238Y-95718380D01*
X78573333Y-95718380D01*
X78668571Y-95766000D01*
X78716190Y-95813619D01*
X78763809Y-95908857D01*
X78763809Y-96004095D01*
X78716190Y-96146952D01*
X78144761Y-96718380D01*
X78763809Y-96718380D01*
X79192380Y-96051714D02*
X79192380Y-97051714D01*
X79192380Y-96099333D02*
X79287619Y-96051714D01*
X79478095Y-96051714D01*
X79573333Y-96099333D01*
X79620952Y-96146952D01*
X79668571Y-96242190D01*
X79668571Y-96527904D01*
X79620952Y-96623142D01*
X79573333Y-96670761D01*
X79478095Y-96718380D01*
X79287619Y-96718380D01*
X79192380Y-96670761D01*
X79954285Y-96051714D02*
X80335238Y-96051714D01*
X80097142Y-96718380D02*
X80097142Y-95861238D01*
X80144761Y-95766000D01*
X80240000Y-95718380D01*
X80335238Y-95718380D01*
X87320380Y-96877047D02*
X87320380Y-97353238D01*
X86320380Y-97353238D01*
X87320380Y-96019904D02*
X87320380Y-96591333D01*
X87320380Y-96305619D02*
X86320380Y-96305619D01*
X86463238Y-96400857D01*
X86558476Y-96496095D01*
X86606095Y-96591333D01*
X86320380Y-95400857D02*
X86320380Y-95305619D01*
X86368000Y-95210380D01*
X86415619Y-95162761D01*
X86510857Y-95115142D01*
X86701333Y-95067523D01*
X86939428Y-95067523D01*
X87129904Y-95115142D01*
X87225142Y-95162761D01*
X87272761Y-95210380D01*
X87320380Y-95305619D01*
X87320380Y-95400857D01*
X87272761Y-95496095D01*
X87225142Y-95543714D01*
X87129904Y-95591333D01*
X86939428Y-95638952D01*
X86701333Y-95638952D01*
X86510857Y-95591333D01*
X86415619Y-95543714D01*
X86368000Y-95496095D01*
X86320380Y-95400857D01*
X86320380Y-94734190D02*
X86320380Y-94115142D01*
X86701333Y-94448476D01*
X86701333Y-94305619D01*
X86748952Y-94210380D01*
X86796571Y-94162761D01*
X86891809Y-94115142D01*
X87129904Y-94115142D01*
X87225142Y-94162761D01*
X87272761Y-94210380D01*
X87320380Y-94305619D01*
X87320380Y-94591333D01*
X87272761Y-94686571D01*
X87225142Y-94734190D01*
X88193619Y-97718285D02*
X88146000Y-97670666D01*
X88098380Y-97575428D01*
X88098380Y-97337333D01*
X88146000Y-97242095D01*
X88193619Y-97194476D01*
X88288857Y-97146857D01*
X88384095Y-97146857D01*
X88526952Y-97194476D01*
X89098380Y-97765904D01*
X89098380Y-97146857D01*
X88193619Y-96765904D02*
X88146000Y-96718285D01*
X88098380Y-96623047D01*
X88098380Y-96384952D01*
X88146000Y-96289714D01*
X88193619Y-96242095D01*
X88288857Y-96194476D01*
X88384095Y-96194476D01*
X88526952Y-96242095D01*
X89098380Y-96813523D01*
X89098380Y-96194476D01*
X88098380Y-95575428D02*
X88098380Y-95480190D01*
X88146000Y-95384952D01*
X88193619Y-95337333D01*
X88288857Y-95289714D01*
X88479333Y-95242095D01*
X88717428Y-95242095D01*
X88907904Y-95289714D01*
X89003142Y-95337333D01*
X89050761Y-95384952D01*
X89098380Y-95480190D01*
X89098380Y-95575428D01*
X89050761Y-95670666D01*
X89003142Y-95718285D01*
X88907904Y-95765904D01*
X88717428Y-95813523D01*
X88479333Y-95813523D01*
X88288857Y-95765904D01*
X88193619Y-95718285D01*
X88146000Y-95670666D01*
X88098380Y-95575428D01*
X88431714Y-94384952D02*
X89098380Y-94384952D01*
X88431714Y-94813523D02*
X88955523Y-94813523D01*
X89050761Y-94765904D01*
X89098380Y-94670666D01*
X89098380Y-94527809D01*
X89050761Y-94432571D01*
X89003142Y-94384952D01*
X89098380Y-93908761D02*
X88098380Y-93908761D01*
X88574571Y-93908761D02*
X88574571Y-93337333D01*
X89098380Y-93337333D02*
X88098380Y-93337333D01*
X91384380Y-96877047D02*
X91384380Y-97353238D01*
X90384380Y-97353238D01*
X91384380Y-96019904D02*
X91384380Y-96591333D01*
X91384380Y-96305619D02*
X90384380Y-96305619D01*
X90527238Y-96400857D01*
X90622476Y-96496095D01*
X90670095Y-96591333D01*
X90384380Y-95400857D02*
X90384380Y-95305619D01*
X90432000Y-95210380D01*
X90479619Y-95162761D01*
X90574857Y-95115142D01*
X90765333Y-95067523D01*
X91003428Y-95067523D01*
X91193904Y-95115142D01*
X91289142Y-95162761D01*
X91336761Y-95210380D01*
X91384380Y-95305619D01*
X91384380Y-95400857D01*
X91336761Y-95496095D01*
X91289142Y-95543714D01*
X91193904Y-95591333D01*
X91003428Y-95638952D01*
X90765333Y-95638952D01*
X90574857Y-95591333D01*
X90479619Y-95543714D01*
X90432000Y-95496095D01*
X90384380Y-95400857D01*
X90479619Y-94686571D02*
X90432000Y-94638952D01*
X90384380Y-94543714D01*
X90384380Y-94305619D01*
X90432000Y-94210380D01*
X90479619Y-94162761D01*
X90574857Y-94115142D01*
X90670095Y-94115142D01*
X90812952Y-94162761D01*
X91384380Y-94734190D01*
X91384380Y-94115142D01*
X92765619Y-97718285D02*
X92718000Y-97670666D01*
X92670380Y-97575428D01*
X92670380Y-97337333D01*
X92718000Y-97242095D01*
X92765619Y-97194476D01*
X92860857Y-97146857D01*
X92956095Y-97146857D01*
X93098952Y-97194476D01*
X93670380Y-97765904D01*
X93670380Y-97146857D01*
X92765619Y-96765904D02*
X92718000Y-96718285D01*
X92670380Y-96623047D01*
X92670380Y-96384952D01*
X92718000Y-96289714D01*
X92765619Y-96242095D01*
X92860857Y-96194476D01*
X92956095Y-96194476D01*
X93098952Y-96242095D01*
X93670380Y-96813523D01*
X93670380Y-96194476D01*
X92670380Y-95575428D02*
X92670380Y-95480190D01*
X92718000Y-95384952D01*
X92765619Y-95337333D01*
X92860857Y-95289714D01*
X93051333Y-95242095D01*
X93289428Y-95242095D01*
X93479904Y-95289714D01*
X93575142Y-95337333D01*
X93622761Y-95384952D01*
X93670380Y-95480190D01*
X93670380Y-95575428D01*
X93622761Y-95670666D01*
X93575142Y-95718285D01*
X93479904Y-95765904D01*
X93289428Y-95813523D01*
X93051333Y-95813523D01*
X92860857Y-95765904D01*
X92765619Y-95718285D01*
X92718000Y-95670666D01*
X92670380Y-95575428D01*
X93003714Y-94384952D02*
X93670380Y-94384952D01*
X93003714Y-94813523D02*
X93527523Y-94813523D01*
X93622761Y-94765904D01*
X93670380Y-94670666D01*
X93670380Y-94527809D01*
X93622761Y-94432571D01*
X93575142Y-94384952D01*
X93670380Y-93908761D02*
X92670380Y-93908761D01*
X93146571Y-93908761D02*
X93146571Y-93337333D01*
X93670380Y-93337333D02*
X92670380Y-93337333D01*
X82748380Y-96620507D02*
X82748380Y-97096698D01*
X81748380Y-97096698D01*
X82748380Y-95763364D02*
X82748380Y-96334793D01*
X82748380Y-96049079D02*
X81748380Y-96049079D01*
X81891238Y-96144317D01*
X81986476Y-96239555D01*
X82034095Y-96334793D01*
X81748380Y-95144317D02*
X81748380Y-95049079D01*
X81796000Y-94953840D01*
X81843619Y-94906221D01*
X81938857Y-94858602D01*
X82129333Y-94810983D01*
X82367428Y-94810983D01*
X82557904Y-94858602D01*
X82653142Y-94906221D01*
X82700761Y-94953840D01*
X82748380Y-95049079D01*
X82748380Y-95144317D01*
X82700761Y-95239555D01*
X82653142Y-95287174D01*
X82557904Y-95334793D01*
X82367428Y-95382412D01*
X82129333Y-95382412D01*
X81938857Y-95334793D01*
X81843619Y-95287174D01*
X81796000Y-95239555D01*
X81748380Y-95144317D01*
X82748380Y-93858602D02*
X82748380Y-94430031D01*
X82748380Y-94144317D02*
X81748380Y-94144317D01*
X81891238Y-94239555D01*
X81986476Y-94334793D01*
X82034095Y-94430031D01*
X83875619Y-97715745D02*
X83828000Y-97668126D01*
X83780380Y-97572888D01*
X83780380Y-97334793D01*
X83828000Y-97239555D01*
X83875619Y-97191936D01*
X83970857Y-97144317D01*
X84066095Y-97144317D01*
X84208952Y-97191936D01*
X84780380Y-97763364D01*
X84780380Y-97144317D01*
X83875619Y-96763364D02*
X83828000Y-96715745D01*
X83780380Y-96620507D01*
X83780380Y-96382412D01*
X83828000Y-96287174D01*
X83875619Y-96239555D01*
X83970857Y-96191936D01*
X84066095Y-96191936D01*
X84208952Y-96239555D01*
X84780380Y-96810983D01*
X84780380Y-96191936D01*
X83780380Y-95572888D02*
X83780380Y-95477650D01*
X83828000Y-95382412D01*
X83875619Y-95334793D01*
X83970857Y-95287174D01*
X84161333Y-95239555D01*
X84399428Y-95239555D01*
X84589904Y-95287174D01*
X84685142Y-95334793D01*
X84732761Y-95382412D01*
X84780380Y-95477650D01*
X84780380Y-95572888D01*
X84732761Y-95668126D01*
X84685142Y-95715745D01*
X84589904Y-95763364D01*
X84399428Y-95810983D01*
X84161333Y-95810983D01*
X83970857Y-95763364D01*
X83875619Y-95715745D01*
X83828000Y-95668126D01*
X83780380Y-95572888D01*
X84113714Y-94382412D02*
X84780380Y-94382412D01*
X84113714Y-94810983D02*
X84637523Y-94810983D01*
X84732761Y-94763364D01*
X84780380Y-94668126D01*
X84780380Y-94525269D01*
X84732761Y-94430031D01*
X84685142Y-94382412D01*
X84780380Y-93906221D02*
X83780380Y-93906221D01*
X84256571Y-93906221D02*
X84256571Y-93334793D01*
X84780380Y-93334793D02*
X83780380Y-93334793D01*
X81652380Y-82514285D02*
X82461904Y-82514285D01*
X82557142Y-82466666D01*
X82604761Y-82419047D01*
X82652380Y-82323809D01*
X82652380Y-82133333D01*
X82604761Y-82038095D01*
X82557142Y-81990476D01*
X82461904Y-81942857D01*
X81652380Y-81942857D01*
X82652380Y-80942857D02*
X82652380Y-81514285D01*
X82652380Y-81228571D02*
X81652380Y-81228571D01*
X81795238Y-81323809D01*
X81890476Y-81419047D01*
X81938095Y-81514285D01*
X81652380Y-80323809D02*
X81652380Y-80228571D01*
X81700000Y-80133333D01*
X81747619Y-80085714D01*
X81842857Y-80038095D01*
X82033333Y-79990476D01*
X82271428Y-79990476D01*
X82461904Y-80038095D01*
X82557142Y-80085714D01*
X82604761Y-80133333D01*
X82652380Y-80228571D01*
X82652380Y-80323809D01*
X82604761Y-80419047D01*
X82557142Y-80466666D01*
X82461904Y-80514285D01*
X82271428Y-80561904D01*
X82033333Y-80561904D01*
X81842857Y-80514285D01*
X81747619Y-80466666D01*
X81700000Y-80419047D01*
X81652380Y-80323809D01*
X81652380Y-79133333D02*
X81652380Y-79323809D01*
X81700000Y-79419047D01*
X81747619Y-79466666D01*
X81890476Y-79561904D01*
X82080952Y-79609523D01*
X82461904Y-79609523D01*
X82557142Y-79561904D01*
X82604761Y-79514285D01*
X82652380Y-79419047D01*
X82652380Y-79228571D01*
X82604761Y-79133333D01*
X82557142Y-79085714D01*
X82461904Y-79038095D01*
X82223809Y-79038095D01*
X82128571Y-79085714D01*
X82080952Y-79133333D01*
X82033333Y-79228571D01*
X82033333Y-79419047D01*
X82080952Y-79514285D01*
X82128571Y-79561904D01*
X82223809Y-79609523D01*
X72961904Y-81224380D02*
X72961904Y-80224380D01*
X73295238Y-80938666D01*
X73628571Y-80224380D01*
X73628571Y-81224380D01*
X74676190Y-81129142D02*
X74628571Y-81176761D01*
X74485714Y-81224380D01*
X74390476Y-81224380D01*
X74247619Y-81176761D01*
X74152380Y-81081523D01*
X74104761Y-80986285D01*
X74057142Y-80795809D01*
X74057142Y-80652952D01*
X74104761Y-80462476D01*
X74152380Y-80367238D01*
X74247619Y-80272000D01*
X74390476Y-80224380D01*
X74485714Y-80224380D01*
X74628571Y-80272000D01*
X74676190Y-80319619D01*
X75104761Y-81224380D02*
X75104761Y-80224380D01*
X75485714Y-80224380D01*
X75580952Y-80272000D01*
X75628571Y-80319619D01*
X75676190Y-80414857D01*
X75676190Y-80557714D01*
X75628571Y-80652952D01*
X75580952Y-80700571D01*
X75485714Y-80748190D01*
X75104761Y-80748190D01*
X76533333Y-80557714D02*
X76533333Y-81224380D01*
X76295238Y-80176761D02*
X76057142Y-80891047D01*
X76676190Y-80891047D01*
X77200000Y-80652952D02*
X77104761Y-80605333D01*
X77057142Y-80557714D01*
X77009523Y-80462476D01*
X77009523Y-80414857D01*
X77057142Y-80319619D01*
X77104761Y-80272000D01*
X77200000Y-80224380D01*
X77390476Y-80224380D01*
X77485714Y-80272000D01*
X77533333Y-80319619D01*
X77580952Y-80414857D01*
X77580952Y-80462476D01*
X77533333Y-80557714D01*
X77485714Y-80605333D01*
X77390476Y-80652952D01*
X77200000Y-80652952D01*
X77104761Y-80700571D01*
X77057142Y-80748190D01*
X77009523Y-80843428D01*
X77009523Y-81033904D01*
X77057142Y-81129142D01*
X77104761Y-81176761D01*
X77200000Y-81224380D01*
X77390476Y-81224380D01*
X77485714Y-81176761D01*
X77533333Y-81129142D01*
X77580952Y-81033904D01*
X77580952Y-80843428D01*
X77533333Y-80748190D01*
X77485714Y-80700571D01*
X77390476Y-80652952D01*
X77961904Y-80319619D02*
X78009523Y-80272000D01*
X78104761Y-80224380D01*
X78342857Y-80224380D01*
X78438095Y-80272000D01*
X78485714Y-80319619D01*
X78533333Y-80414857D01*
X78533333Y-80510095D01*
X78485714Y-80652952D01*
X77914285Y-81224380D01*
X78533333Y-81224380D01*
X78914285Y-80319619D02*
X78961904Y-80272000D01*
X79057142Y-80224380D01*
X79295238Y-80224380D01*
X79390476Y-80272000D01*
X79438095Y-80319619D01*
X79485714Y-80414857D01*
X79485714Y-80510095D01*
X79438095Y-80652952D01*
X78866666Y-81224380D01*
X79485714Y-81224380D01*
X97130952Y-66797142D02*
X97083333Y-66844761D01*
X96940476Y-66892380D01*
X96845238Y-66892380D01*
X96702380Y-66844761D01*
X96607142Y-66749523D01*
X96559523Y-66654285D01*
X96511904Y-66463809D01*
X96511904Y-66320952D01*
X96559523Y-66130476D01*
X96607142Y-66035238D01*
X96702380Y-65940000D01*
X96845238Y-65892380D01*
X96940476Y-65892380D01*
X97083333Y-65940000D01*
X97130952Y-65987619D01*
X98083333Y-66892380D02*
X97511904Y-66892380D01*
X97797619Y-66892380D02*
X97797619Y-65892380D01*
X97702380Y-66035238D01*
X97607142Y-66130476D01*
X97511904Y-66178095D01*
X99035714Y-66892380D02*
X98464285Y-66892380D01*
X98750000Y-66892380D02*
X98750000Y-65892380D01*
X98654761Y-66035238D01*
X98559523Y-66130476D01*
X98464285Y-66178095D01*
X99940476Y-65892380D02*
X99464285Y-65892380D01*
X99416666Y-66368571D01*
X99464285Y-66320952D01*
X99559523Y-66273333D01*
X99797619Y-66273333D01*
X99892857Y-66320952D01*
X99940476Y-66368571D01*
X99988095Y-66463809D01*
X99988095Y-66701904D01*
X99940476Y-66797142D01*
X99892857Y-66844761D01*
X99797619Y-66892380D01*
X99559523Y-66892380D01*
X99464285Y-66844761D01*
X99416666Y-66797142D01*
X96702380Y-72012380D02*
X96130952Y-72012380D01*
X96416666Y-72012380D02*
X96416666Y-71012380D01*
X96321428Y-71155238D01*
X96226190Y-71250476D01*
X96130952Y-71298095D01*
X97321428Y-71012380D02*
X97416666Y-71012380D01*
X97511904Y-71060000D01*
X97559523Y-71107619D01*
X97607142Y-71202857D01*
X97654761Y-71393333D01*
X97654761Y-71631428D01*
X97607142Y-71821904D01*
X97559523Y-71917142D01*
X97511904Y-71964761D01*
X97416666Y-72012380D01*
X97321428Y-72012380D01*
X97226190Y-71964761D01*
X97178571Y-71917142D01*
X97130952Y-71821904D01*
X97083333Y-71631428D01*
X97083333Y-71393333D01*
X97130952Y-71202857D01*
X97178571Y-71107619D01*
X97226190Y-71060000D01*
X97321428Y-71012380D01*
X98273809Y-71012380D02*
X98369047Y-71012380D01*
X98464285Y-71060000D01*
X98511904Y-71107619D01*
X98559523Y-71202857D01*
X98607142Y-71393333D01*
X98607142Y-71631428D01*
X98559523Y-71821904D01*
X98511904Y-71917142D01*
X98464285Y-71964761D01*
X98369047Y-72012380D01*
X98273809Y-72012380D01*
X98178571Y-71964761D01*
X98130952Y-71917142D01*
X98083333Y-71821904D01*
X98035714Y-71631428D01*
X98035714Y-71393333D01*
X98083333Y-71202857D01*
X98130952Y-71107619D01*
X98178571Y-71060000D01*
X98273809Y-71012380D01*
X99035714Y-71345714D02*
X99035714Y-72012380D01*
X99035714Y-71440952D02*
X99083333Y-71393333D01*
X99178571Y-71345714D01*
X99321428Y-71345714D01*
X99416666Y-71393333D01*
X99464285Y-71488571D01*
X99464285Y-72012380D01*
X100273809Y-71488571D02*
X99940476Y-71488571D01*
X99940476Y-72012380D02*
X99940476Y-71012380D01*
X100416666Y-71012380D01*
X28344952Y-88749142D02*
X28297333Y-88796761D01*
X28154476Y-88844380D01*
X28059238Y-88844380D01*
X27916380Y-88796761D01*
X27821142Y-88701523D01*
X27773523Y-88606285D01*
X27725904Y-88415809D01*
X27725904Y-88272952D01*
X27773523Y-88082476D01*
X27821142Y-87987238D01*
X27916380Y-87892000D01*
X28059238Y-87844380D01*
X28154476Y-87844380D01*
X28297333Y-87892000D01*
X28344952Y-87939619D01*
X29297333Y-88844380D02*
X28725904Y-88844380D01*
X29011619Y-88844380D02*
X29011619Y-87844380D01*
X28916380Y-87987238D01*
X28821142Y-88082476D01*
X28725904Y-88130095D01*
X30249714Y-88844380D02*
X29678285Y-88844380D01*
X29964000Y-88844380D02*
X29964000Y-87844380D01*
X29868761Y-87987238D01*
X29773523Y-88082476D01*
X29678285Y-88130095D01*
X31106857Y-87844380D02*
X30916380Y-87844380D01*
X30821142Y-87892000D01*
X30773523Y-87939619D01*
X30678285Y-88082476D01*
X30630666Y-88272952D01*
X30630666Y-88653904D01*
X30678285Y-88749142D01*
X30725904Y-88796761D01*
X30821142Y-88844380D01*
X31011619Y-88844380D01*
X31106857Y-88796761D01*
X31154476Y-88749142D01*
X31202095Y-88653904D01*
X31202095Y-88415809D01*
X31154476Y-88320571D01*
X31106857Y-88272952D01*
X31011619Y-88225333D01*
X30821142Y-88225333D01*
X30725904Y-88272952D01*
X30678285Y-88320571D01*
X30630666Y-88415809D01*
X32234380Y-93162380D02*
X31662952Y-93162380D01*
X31948666Y-93162380D02*
X31948666Y-92162380D01*
X31853428Y-92305238D01*
X31758190Y-92400476D01*
X31662952Y-92448095D01*
X32853428Y-92162380D02*
X32948666Y-92162380D01*
X33043904Y-92210000D01*
X33091523Y-92257619D01*
X33139142Y-92352857D01*
X33186761Y-92543333D01*
X33186761Y-92781428D01*
X33139142Y-92971904D01*
X33091523Y-93067142D01*
X33043904Y-93114761D01*
X32948666Y-93162380D01*
X32853428Y-93162380D01*
X32758190Y-93114761D01*
X32710571Y-93067142D01*
X32662952Y-92971904D01*
X32615333Y-92781428D01*
X32615333Y-92543333D01*
X32662952Y-92352857D01*
X32710571Y-92257619D01*
X32758190Y-92210000D01*
X32853428Y-92162380D01*
X33805809Y-92162380D02*
X33901047Y-92162380D01*
X33996285Y-92210000D01*
X34043904Y-92257619D01*
X34091523Y-92352857D01*
X34139142Y-92543333D01*
X34139142Y-92781428D01*
X34091523Y-92971904D01*
X34043904Y-93067142D01*
X33996285Y-93114761D01*
X33901047Y-93162380D01*
X33805809Y-93162380D01*
X33710571Y-93114761D01*
X33662952Y-93067142D01*
X33615333Y-92971904D01*
X33567714Y-92781428D01*
X33567714Y-92543333D01*
X33615333Y-92352857D01*
X33662952Y-92257619D01*
X33710571Y-92210000D01*
X33805809Y-92162380D01*
X34567714Y-92495714D02*
X34567714Y-93162380D01*
X34567714Y-92590952D02*
X34615333Y-92543333D01*
X34710571Y-92495714D01*
X34853428Y-92495714D01*
X34948666Y-92543333D01*
X34996285Y-92638571D01*
X34996285Y-93162380D01*
X35805809Y-92638571D02*
X35472476Y-92638571D01*
X35472476Y-93162380D02*
X35472476Y-92162380D01*
X35948666Y-92162380D01*
X69782380Y-82524285D02*
X70591904Y-82524285D01*
X70687142Y-82476666D01*
X70734761Y-82429047D01*
X70782380Y-82333809D01*
X70782380Y-82143333D01*
X70734761Y-82048095D01*
X70687142Y-82000476D01*
X70591904Y-81952857D01*
X69782380Y-81952857D01*
X70782380Y-80952857D02*
X70782380Y-81524285D01*
X70782380Y-81238571D02*
X69782380Y-81238571D01*
X69925238Y-81333809D01*
X70020476Y-81429047D01*
X70068095Y-81524285D01*
X69782380Y-80333809D02*
X69782380Y-80238571D01*
X69830000Y-80143333D01*
X69877619Y-80095714D01*
X69972857Y-80048095D01*
X70163333Y-80000476D01*
X70401428Y-80000476D01*
X70591904Y-80048095D01*
X70687142Y-80095714D01*
X70734761Y-80143333D01*
X70782380Y-80238571D01*
X70782380Y-80333809D01*
X70734761Y-80429047D01*
X70687142Y-80476666D01*
X70591904Y-80524285D01*
X70401428Y-80571904D01*
X70163333Y-80571904D01*
X69972857Y-80524285D01*
X69877619Y-80476666D01*
X69830000Y-80429047D01*
X69782380Y-80333809D01*
X69782380Y-79667142D02*
X69782380Y-79048095D01*
X70163333Y-79381428D01*
X70163333Y-79238571D01*
X70210952Y-79143333D01*
X70258571Y-79095714D01*
X70353809Y-79048095D01*
X70591904Y-79048095D01*
X70687142Y-79095714D01*
X70734761Y-79143333D01*
X70782380Y-79238571D01*
X70782380Y-79524285D01*
X70734761Y-79619523D01*
X70687142Y-79667142D01*
X45871523Y-80938666D02*
X46347714Y-80938666D01*
X45776285Y-81224380D02*
X46109619Y-80224380D01*
X46442952Y-81224380D01*
X46633428Y-80224380D02*
X47204857Y-80224380D01*
X46919142Y-81224380D02*
X46919142Y-80224380D01*
X47538190Y-81224380D02*
X47538190Y-80557714D01*
X47538190Y-80652952D02*
X47585809Y-80605333D01*
X47681047Y-80557714D01*
X47823904Y-80557714D01*
X47919142Y-80605333D01*
X47966761Y-80700571D01*
X47966761Y-81224380D01*
X47966761Y-80700571D02*
X48014380Y-80605333D01*
X48109619Y-80557714D01*
X48252476Y-80557714D01*
X48347714Y-80605333D01*
X48395333Y-80700571D01*
X48395333Y-81224380D01*
X49252476Y-81176761D02*
X49157238Y-81224380D01*
X48966761Y-81224380D01*
X48871523Y-81176761D01*
X48823904Y-81081523D01*
X48823904Y-80700571D01*
X48871523Y-80605333D01*
X48966761Y-80557714D01*
X49157238Y-80557714D01*
X49252476Y-80605333D01*
X49300095Y-80700571D01*
X49300095Y-80795809D01*
X48823904Y-80891047D01*
X50157238Y-80557714D02*
X50157238Y-81367238D01*
X50109619Y-81462476D01*
X50062000Y-81510095D01*
X49966761Y-81557714D01*
X49823904Y-81557714D01*
X49728666Y-81510095D01*
X50157238Y-81176761D02*
X50062000Y-81224380D01*
X49871523Y-81224380D01*
X49776285Y-81176761D01*
X49728666Y-81129142D01*
X49681047Y-81033904D01*
X49681047Y-80748190D01*
X49728666Y-80652952D01*
X49776285Y-80605333D01*
X49871523Y-80557714D01*
X50062000Y-80557714D01*
X50157238Y-80605333D01*
X51062000Y-81224380D02*
X51062000Y-80700571D01*
X51014380Y-80605333D01*
X50919142Y-80557714D01*
X50728666Y-80557714D01*
X50633428Y-80605333D01*
X51062000Y-81176761D02*
X50966761Y-81224380D01*
X50728666Y-81224380D01*
X50633428Y-81176761D01*
X50585809Y-81081523D01*
X50585809Y-80986285D01*
X50633428Y-80891047D01*
X50728666Y-80843428D01*
X50966761Y-80843428D01*
X51062000Y-80795809D01*
X51442952Y-80224380D02*
X52062000Y-80224380D01*
X51728666Y-80605333D01*
X51871523Y-80605333D01*
X51966761Y-80652952D01*
X52014380Y-80700571D01*
X52062000Y-80795809D01*
X52062000Y-81033904D01*
X52014380Y-81129142D01*
X51966761Y-81176761D01*
X51871523Y-81224380D01*
X51585809Y-81224380D01*
X51490571Y-81176761D01*
X51442952Y-81129142D01*
X52442952Y-80319619D02*
X52490571Y-80272000D01*
X52585809Y-80224380D01*
X52823904Y-80224380D01*
X52919142Y-80272000D01*
X52966761Y-80319619D01*
X53014380Y-80414857D01*
X53014380Y-80510095D01*
X52966761Y-80652952D01*
X52395333Y-81224380D01*
X53014380Y-81224380D01*
X53585809Y-80652952D02*
X53490571Y-80605333D01*
X53442952Y-80557714D01*
X53395333Y-80462476D01*
X53395333Y-80414857D01*
X53442952Y-80319619D01*
X53490571Y-80272000D01*
X53585809Y-80224380D01*
X53776285Y-80224380D01*
X53871523Y-80272000D01*
X53919142Y-80319619D01*
X53966761Y-80414857D01*
X53966761Y-80462476D01*
X53919142Y-80557714D01*
X53871523Y-80605333D01*
X53776285Y-80652952D01*
X53585809Y-80652952D01*
X53490571Y-80700571D01*
X53442952Y-80748190D01*
X53395333Y-80843428D01*
X53395333Y-81033904D01*
X53442952Y-81129142D01*
X53490571Y-81176761D01*
X53585809Y-81224380D01*
X53776285Y-81224380D01*
X53871523Y-81176761D01*
X53919142Y-81129142D01*
X53966761Y-81033904D01*
X53966761Y-80843428D01*
X53919142Y-80748190D01*
X53871523Y-80700571D01*
X53776285Y-80652952D01*
X54395333Y-80843428D02*
X55157238Y-80843428D01*
X55633428Y-81224380D02*
X55633428Y-80224380D01*
X56014380Y-80224380D01*
X56109619Y-80272000D01*
X56157238Y-80319619D01*
X56204857Y-80414857D01*
X56204857Y-80557714D01*
X56157238Y-80652952D01*
X56109619Y-80700571D01*
X56014380Y-80748190D01*
X55633428Y-80748190D01*
X56633428Y-80224380D02*
X56633428Y-81033904D01*
X56681047Y-81129142D01*
X56728666Y-81176761D01*
X56823904Y-81224380D01*
X57014380Y-81224380D01*
X57109619Y-81176761D01*
X57157238Y-81129142D01*
X57204857Y-81033904D01*
X57204857Y-80224380D01*
X72230952Y-73917142D02*
X72183333Y-73964761D01*
X72040476Y-74012380D01*
X71945238Y-74012380D01*
X71802380Y-73964761D01*
X71707142Y-73869523D01*
X71659523Y-73774285D01*
X71611904Y-73583809D01*
X71611904Y-73440952D01*
X71659523Y-73250476D01*
X71707142Y-73155238D01*
X71802380Y-73060000D01*
X71945238Y-73012380D01*
X72040476Y-73012380D01*
X72183333Y-73060000D01*
X72230952Y-73107619D01*
X73183333Y-74012380D02*
X72611904Y-74012380D01*
X72897619Y-74012380D02*
X72897619Y-73012380D01*
X72802380Y-73155238D01*
X72707142Y-73250476D01*
X72611904Y-73298095D01*
X73802380Y-73012380D02*
X73897619Y-73012380D01*
X73992857Y-73060000D01*
X74040476Y-73107619D01*
X74088095Y-73202857D01*
X74135714Y-73393333D01*
X74135714Y-73631428D01*
X74088095Y-73821904D01*
X74040476Y-73917142D01*
X73992857Y-73964761D01*
X73897619Y-74012380D01*
X73802380Y-74012380D01*
X73707142Y-73964761D01*
X73659523Y-73917142D01*
X73611904Y-73821904D01*
X73564285Y-73631428D01*
X73564285Y-73393333D01*
X73611904Y-73202857D01*
X73659523Y-73107619D01*
X73707142Y-73060000D01*
X73802380Y-73012380D01*
X75088095Y-74012380D02*
X74516666Y-74012380D01*
X74802380Y-74012380D02*
X74802380Y-73012380D01*
X74707142Y-73155238D01*
X74611904Y-73250476D01*
X74516666Y-73298095D01*
X70969333Y-64555714D02*
X70969333Y-65222380D01*
X70731238Y-64174761D02*
X70493142Y-64889047D01*
X71112190Y-64889047D01*
X71397904Y-64222380D02*
X72064571Y-64222380D01*
X71636000Y-65222380D01*
X72874095Y-64555714D02*
X72874095Y-65222380D01*
X72445523Y-64555714D02*
X72445523Y-65079523D01*
X72493142Y-65174761D01*
X72588380Y-65222380D01*
X72731238Y-65222380D01*
X72826476Y-65174761D01*
X72874095Y-65127142D01*
X73683619Y-64698571D02*
X73350285Y-64698571D01*
X73350285Y-65222380D02*
X73350285Y-64222380D01*
X73826476Y-64222380D01*
X24788952Y-72493142D02*
X24741333Y-72540761D01*
X24598476Y-72588380D01*
X24503238Y-72588380D01*
X24360380Y-72540761D01*
X24265142Y-72445523D01*
X24217523Y-72350285D01*
X24169904Y-72159809D01*
X24169904Y-72016952D01*
X24217523Y-71826476D01*
X24265142Y-71731238D01*
X24360380Y-71636000D01*
X24503238Y-71588380D01*
X24598476Y-71588380D01*
X24741333Y-71636000D01*
X24788952Y-71683619D01*
X25741333Y-72588380D02*
X25169904Y-72588380D01*
X25455619Y-72588380D02*
X25455619Y-71588380D01*
X25360380Y-71731238D01*
X25265142Y-71826476D01*
X25169904Y-71874095D01*
X26360380Y-71588380D02*
X26455619Y-71588380D01*
X26550857Y-71636000D01*
X26598476Y-71683619D01*
X26646095Y-71778857D01*
X26693714Y-71969333D01*
X26693714Y-72207428D01*
X26646095Y-72397904D01*
X26598476Y-72493142D01*
X26550857Y-72540761D01*
X26455619Y-72588380D01*
X26360380Y-72588380D01*
X26265142Y-72540761D01*
X26217523Y-72493142D01*
X26169904Y-72397904D01*
X26122285Y-72207428D01*
X26122285Y-71969333D01*
X26169904Y-71778857D01*
X26217523Y-71683619D01*
X26265142Y-71636000D01*
X26360380Y-71588380D01*
X27074666Y-71683619D02*
X27122285Y-71636000D01*
X27217523Y-71588380D01*
X27455619Y-71588380D01*
X27550857Y-71636000D01*
X27598476Y-71683619D01*
X27646095Y-71778857D01*
X27646095Y-71874095D01*
X27598476Y-72016952D01*
X27027047Y-72588380D01*
X27646095Y-72588380D01*
X25820761Y-74620380D02*
X25249333Y-74620380D01*
X25535047Y-74620380D02*
X25535047Y-73620380D01*
X25439809Y-73763238D01*
X25344571Y-73858476D01*
X25249333Y-73906095D01*
X26677904Y-73953714D02*
X26677904Y-74620380D01*
X26249333Y-73953714D02*
X26249333Y-74477523D01*
X26296952Y-74572761D01*
X26392190Y-74620380D01*
X26535047Y-74620380D01*
X26630285Y-74572761D01*
X26677904Y-74525142D01*
X27487428Y-74096571D02*
X27154095Y-74096571D01*
X27154095Y-74620380D02*
X27154095Y-73620380D01*
X27630285Y-73620380D01*
X72794952Y-88749142D02*
X72747333Y-88796761D01*
X72604476Y-88844380D01*
X72509238Y-88844380D01*
X72366380Y-88796761D01*
X72271142Y-88701523D01*
X72223523Y-88606285D01*
X72175904Y-88415809D01*
X72175904Y-88272952D01*
X72223523Y-88082476D01*
X72271142Y-87987238D01*
X72366380Y-87892000D01*
X72509238Y-87844380D01*
X72604476Y-87844380D01*
X72747333Y-87892000D01*
X72794952Y-87939619D01*
X73747333Y-88844380D02*
X73175904Y-88844380D01*
X73461619Y-88844380D02*
X73461619Y-87844380D01*
X73366380Y-87987238D01*
X73271142Y-88082476D01*
X73175904Y-88130095D01*
X74366380Y-87844380D02*
X74461619Y-87844380D01*
X74556857Y-87892000D01*
X74604476Y-87939619D01*
X74652095Y-88034857D01*
X74699714Y-88225333D01*
X74699714Y-88463428D01*
X74652095Y-88653904D01*
X74604476Y-88749142D01*
X74556857Y-88796761D01*
X74461619Y-88844380D01*
X74366380Y-88844380D01*
X74271142Y-88796761D01*
X74223523Y-88749142D01*
X74175904Y-88653904D01*
X74128285Y-88463428D01*
X74128285Y-88225333D01*
X74175904Y-88034857D01*
X74223523Y-87939619D01*
X74271142Y-87892000D01*
X74366380Y-87844380D01*
X75033047Y-87844380D02*
X75652095Y-87844380D01*
X75318761Y-88225333D01*
X75461619Y-88225333D01*
X75556857Y-88272952D01*
X75604476Y-88320571D01*
X75652095Y-88415809D01*
X75652095Y-88653904D01*
X75604476Y-88749142D01*
X75556857Y-88796761D01*
X75461619Y-88844380D01*
X75175904Y-88844380D01*
X75080666Y-88796761D01*
X75033047Y-88749142D01*
X77446380Y-91130380D02*
X76874952Y-91130380D01*
X77160666Y-91130380D02*
X77160666Y-90130380D01*
X77065428Y-90273238D01*
X76970190Y-90368476D01*
X76874952Y-90416095D01*
X78065428Y-90130380D02*
X78160666Y-90130380D01*
X78255904Y-90178000D01*
X78303523Y-90225619D01*
X78351142Y-90320857D01*
X78398761Y-90511333D01*
X78398761Y-90749428D01*
X78351142Y-90939904D01*
X78303523Y-91035142D01*
X78255904Y-91082761D01*
X78160666Y-91130380D01*
X78065428Y-91130380D01*
X77970190Y-91082761D01*
X77922571Y-91035142D01*
X77874952Y-90939904D01*
X77827333Y-90749428D01*
X77827333Y-90511333D01*
X77874952Y-90320857D01*
X77922571Y-90225619D01*
X77970190Y-90178000D01*
X78065428Y-90130380D01*
X79017809Y-90130380D02*
X79113047Y-90130380D01*
X79208285Y-90178000D01*
X79255904Y-90225619D01*
X79303523Y-90320857D01*
X79351142Y-90511333D01*
X79351142Y-90749428D01*
X79303523Y-90939904D01*
X79255904Y-91035142D01*
X79208285Y-91082761D01*
X79113047Y-91130380D01*
X79017809Y-91130380D01*
X78922571Y-91082761D01*
X78874952Y-91035142D01*
X78827333Y-90939904D01*
X78779714Y-90749428D01*
X78779714Y-90511333D01*
X78827333Y-90320857D01*
X78874952Y-90225619D01*
X78922571Y-90178000D01*
X79017809Y-90130380D01*
X79779714Y-90463714D02*
X79779714Y-91130380D01*
X79779714Y-90558952D02*
X79827333Y-90511333D01*
X79922571Y-90463714D01*
X80065428Y-90463714D01*
X80160666Y-90511333D01*
X80208285Y-90606571D01*
X80208285Y-91130380D01*
X81017809Y-90606571D02*
X80684476Y-90606571D01*
X80684476Y-91130380D02*
X80684476Y-90130380D01*
X81160666Y-90130380D01*
X43076952Y-86717142D02*
X43029333Y-86764761D01*
X42886476Y-86812380D01*
X42791238Y-86812380D01*
X42648380Y-86764761D01*
X42553142Y-86669523D01*
X42505523Y-86574285D01*
X42457904Y-86383809D01*
X42457904Y-86240952D01*
X42505523Y-86050476D01*
X42553142Y-85955238D01*
X42648380Y-85860000D01*
X42791238Y-85812380D01*
X42886476Y-85812380D01*
X43029333Y-85860000D01*
X43076952Y-85907619D01*
X44029333Y-86812380D02*
X43457904Y-86812380D01*
X43743619Y-86812380D02*
X43743619Y-85812380D01*
X43648380Y-85955238D01*
X43553142Y-86050476D01*
X43457904Y-86098095D01*
X44648380Y-85812380D02*
X44743619Y-85812380D01*
X44838857Y-85860000D01*
X44886476Y-85907619D01*
X44934095Y-86002857D01*
X44981714Y-86193333D01*
X44981714Y-86431428D01*
X44934095Y-86621904D01*
X44886476Y-86717142D01*
X44838857Y-86764761D01*
X44743619Y-86812380D01*
X44648380Y-86812380D01*
X44553142Y-86764761D01*
X44505523Y-86717142D01*
X44457904Y-86621904D01*
X44410285Y-86431428D01*
X44410285Y-86193333D01*
X44457904Y-86002857D01*
X44505523Y-85907619D01*
X44553142Y-85860000D01*
X44648380Y-85812380D01*
X45838857Y-86145714D02*
X45838857Y-86812380D01*
X45600761Y-85764761D02*
X45362666Y-86479047D01*
X45981714Y-86479047D01*
X42648380Y-90876380D02*
X42076952Y-90876380D01*
X42362666Y-90876380D02*
X42362666Y-89876380D01*
X42267428Y-90019238D01*
X42172190Y-90114476D01*
X42076952Y-90162095D01*
X43267428Y-89876380D02*
X43362666Y-89876380D01*
X43457904Y-89924000D01*
X43505523Y-89971619D01*
X43553142Y-90066857D01*
X43600761Y-90257333D01*
X43600761Y-90495428D01*
X43553142Y-90685904D01*
X43505523Y-90781142D01*
X43457904Y-90828761D01*
X43362666Y-90876380D01*
X43267428Y-90876380D01*
X43172190Y-90828761D01*
X43124571Y-90781142D01*
X43076952Y-90685904D01*
X43029333Y-90495428D01*
X43029333Y-90257333D01*
X43076952Y-90066857D01*
X43124571Y-89971619D01*
X43172190Y-89924000D01*
X43267428Y-89876380D01*
X44219809Y-89876380D02*
X44315047Y-89876380D01*
X44410285Y-89924000D01*
X44457904Y-89971619D01*
X44505523Y-90066857D01*
X44553142Y-90257333D01*
X44553142Y-90495428D01*
X44505523Y-90685904D01*
X44457904Y-90781142D01*
X44410285Y-90828761D01*
X44315047Y-90876380D01*
X44219809Y-90876380D01*
X44124571Y-90828761D01*
X44076952Y-90781142D01*
X44029333Y-90685904D01*
X43981714Y-90495428D01*
X43981714Y-90257333D01*
X44029333Y-90066857D01*
X44076952Y-89971619D01*
X44124571Y-89924000D01*
X44219809Y-89876380D01*
X44981714Y-90209714D02*
X44981714Y-90876380D01*
X44981714Y-90304952D02*
X45029333Y-90257333D01*
X45124571Y-90209714D01*
X45267428Y-90209714D01*
X45362666Y-90257333D01*
X45410285Y-90352571D01*
X45410285Y-90876380D01*
X46219809Y-90352571D02*
X45886476Y-90352571D01*
X45886476Y-90876380D02*
X45886476Y-89876380D01*
X46362666Y-89876380D01*
X47630952Y-63547142D02*
X47583333Y-63594761D01*
X47440476Y-63642380D01*
X47345238Y-63642380D01*
X47202380Y-63594761D01*
X47107142Y-63499523D01*
X47059523Y-63404285D01*
X47011904Y-63213809D01*
X47011904Y-63070952D01*
X47059523Y-62880476D01*
X47107142Y-62785238D01*
X47202380Y-62690000D01*
X47345238Y-62642380D01*
X47440476Y-62642380D01*
X47583333Y-62690000D01*
X47630952Y-62737619D01*
X48583333Y-63642380D02*
X48011904Y-63642380D01*
X48297619Y-63642380D02*
X48297619Y-62642380D01*
X48202380Y-62785238D01*
X48107142Y-62880476D01*
X48011904Y-62928095D01*
X49202380Y-62642380D02*
X49297619Y-62642380D01*
X49392857Y-62690000D01*
X49440476Y-62737619D01*
X49488095Y-62832857D01*
X49535714Y-63023333D01*
X49535714Y-63261428D01*
X49488095Y-63451904D01*
X49440476Y-63547142D01*
X49392857Y-63594761D01*
X49297619Y-63642380D01*
X49202380Y-63642380D01*
X49107142Y-63594761D01*
X49059523Y-63547142D01*
X49011904Y-63451904D01*
X48964285Y-63261428D01*
X48964285Y-63023333D01*
X49011904Y-62832857D01*
X49059523Y-62737619D01*
X49107142Y-62690000D01*
X49202380Y-62642380D01*
X50440476Y-62642380D02*
X49964285Y-62642380D01*
X49916666Y-63118571D01*
X49964285Y-63070952D01*
X50059523Y-63023333D01*
X50297619Y-63023333D01*
X50392857Y-63070952D01*
X50440476Y-63118571D01*
X50488095Y-63213809D01*
X50488095Y-63451904D01*
X50440476Y-63547142D01*
X50392857Y-63594761D01*
X50297619Y-63642380D01*
X50059523Y-63642380D01*
X49964285Y-63594761D01*
X49916666Y-63547142D01*
X47268000Y-67111619D02*
X47315619Y-67064000D01*
X47410857Y-67016380D01*
X47648952Y-67016380D01*
X47744190Y-67064000D01*
X47791809Y-67111619D01*
X47839428Y-67206857D01*
X47839428Y-67302095D01*
X47791809Y-67444952D01*
X47220380Y-68016380D01*
X47839428Y-68016380D01*
X48220380Y-67111619D02*
X48268000Y-67064000D01*
X48363238Y-67016380D01*
X48601333Y-67016380D01*
X48696571Y-67064000D01*
X48744190Y-67111619D01*
X48791809Y-67206857D01*
X48791809Y-67302095D01*
X48744190Y-67444952D01*
X48172761Y-68016380D01*
X48791809Y-68016380D01*
X49220380Y-67349714D02*
X49220380Y-68349714D01*
X49220380Y-67397333D02*
X49315619Y-67349714D01*
X49506095Y-67349714D01*
X49601333Y-67397333D01*
X49648952Y-67444952D01*
X49696571Y-67540190D01*
X49696571Y-67825904D01*
X49648952Y-67921142D01*
X49601333Y-67968761D01*
X49506095Y-68016380D01*
X49315619Y-68016380D01*
X49220380Y-67968761D01*
X49982285Y-67349714D02*
X50363238Y-67349714D01*
X50125142Y-68016380D02*
X50125142Y-67159238D01*
X50172761Y-67064000D01*
X50268000Y-67016380D01*
X50363238Y-67016380D01*
X50950952Y-86717142D02*
X50903333Y-86764761D01*
X50760476Y-86812380D01*
X50665238Y-86812380D01*
X50522380Y-86764761D01*
X50427142Y-86669523D01*
X50379523Y-86574285D01*
X50331904Y-86383809D01*
X50331904Y-86240952D01*
X50379523Y-86050476D01*
X50427142Y-85955238D01*
X50522380Y-85860000D01*
X50665238Y-85812380D01*
X50760476Y-85812380D01*
X50903333Y-85860000D01*
X50950952Y-85907619D01*
X51903333Y-86812380D02*
X51331904Y-86812380D01*
X51617619Y-86812380D02*
X51617619Y-85812380D01*
X51522380Y-85955238D01*
X51427142Y-86050476D01*
X51331904Y-86098095D01*
X52522380Y-85812380D02*
X52617619Y-85812380D01*
X52712857Y-85860000D01*
X52760476Y-85907619D01*
X52808095Y-86002857D01*
X52855714Y-86193333D01*
X52855714Y-86431428D01*
X52808095Y-86621904D01*
X52760476Y-86717142D01*
X52712857Y-86764761D01*
X52617619Y-86812380D01*
X52522380Y-86812380D01*
X52427142Y-86764761D01*
X52379523Y-86717142D01*
X52331904Y-86621904D01*
X52284285Y-86431428D01*
X52284285Y-86193333D01*
X52331904Y-86002857D01*
X52379523Y-85907619D01*
X52427142Y-85860000D01*
X52522380Y-85812380D01*
X53712857Y-85812380D02*
X53522380Y-85812380D01*
X53427142Y-85860000D01*
X53379523Y-85907619D01*
X53284285Y-86050476D01*
X53236666Y-86240952D01*
X53236666Y-86621904D01*
X53284285Y-86717142D01*
X53331904Y-86764761D01*
X53427142Y-86812380D01*
X53617619Y-86812380D01*
X53712857Y-86764761D01*
X53760476Y-86717142D01*
X53808095Y-86621904D01*
X53808095Y-86383809D01*
X53760476Y-86288571D01*
X53712857Y-86240952D01*
X53617619Y-86193333D01*
X53427142Y-86193333D01*
X53331904Y-86240952D01*
X53284285Y-86288571D01*
X53236666Y-86383809D01*
X50522380Y-90876380D02*
X49950952Y-90876380D01*
X50236666Y-90876380D02*
X50236666Y-89876380D01*
X50141428Y-90019238D01*
X50046190Y-90114476D01*
X49950952Y-90162095D01*
X51141428Y-89876380D02*
X51236666Y-89876380D01*
X51331904Y-89924000D01*
X51379523Y-89971619D01*
X51427142Y-90066857D01*
X51474761Y-90257333D01*
X51474761Y-90495428D01*
X51427142Y-90685904D01*
X51379523Y-90781142D01*
X51331904Y-90828761D01*
X51236666Y-90876380D01*
X51141428Y-90876380D01*
X51046190Y-90828761D01*
X50998571Y-90781142D01*
X50950952Y-90685904D01*
X50903333Y-90495428D01*
X50903333Y-90257333D01*
X50950952Y-90066857D01*
X50998571Y-89971619D01*
X51046190Y-89924000D01*
X51141428Y-89876380D01*
X52093809Y-89876380D02*
X52189047Y-89876380D01*
X52284285Y-89924000D01*
X52331904Y-89971619D01*
X52379523Y-90066857D01*
X52427142Y-90257333D01*
X52427142Y-90495428D01*
X52379523Y-90685904D01*
X52331904Y-90781142D01*
X52284285Y-90828761D01*
X52189047Y-90876380D01*
X52093809Y-90876380D01*
X51998571Y-90828761D01*
X51950952Y-90781142D01*
X51903333Y-90685904D01*
X51855714Y-90495428D01*
X51855714Y-90257333D01*
X51903333Y-90066857D01*
X51950952Y-89971619D01*
X51998571Y-89924000D01*
X52093809Y-89876380D01*
X52855714Y-90209714D02*
X52855714Y-90876380D01*
X52855714Y-90304952D02*
X52903333Y-90257333D01*
X52998571Y-90209714D01*
X53141428Y-90209714D01*
X53236666Y-90257333D01*
X53284285Y-90352571D01*
X53284285Y-90876380D01*
X54093809Y-90352571D02*
X53760476Y-90352571D01*
X53760476Y-90876380D02*
X53760476Y-89876380D01*
X54236666Y-89876380D01*
X40980952Y-63657142D02*
X40933333Y-63704761D01*
X40790476Y-63752380D01*
X40695238Y-63752380D01*
X40552380Y-63704761D01*
X40457142Y-63609523D01*
X40409523Y-63514285D01*
X40361904Y-63323809D01*
X40361904Y-63180952D01*
X40409523Y-62990476D01*
X40457142Y-62895238D01*
X40552380Y-62800000D01*
X40695238Y-62752380D01*
X40790476Y-62752380D01*
X40933333Y-62800000D01*
X40980952Y-62847619D01*
X41933333Y-63752380D02*
X41361904Y-63752380D01*
X41647619Y-63752380D02*
X41647619Y-62752380D01*
X41552380Y-62895238D01*
X41457142Y-62990476D01*
X41361904Y-63038095D01*
X42552380Y-62752380D02*
X42647619Y-62752380D01*
X42742857Y-62800000D01*
X42790476Y-62847619D01*
X42838095Y-62942857D01*
X42885714Y-63133333D01*
X42885714Y-63371428D01*
X42838095Y-63561904D01*
X42790476Y-63657142D01*
X42742857Y-63704761D01*
X42647619Y-63752380D01*
X42552380Y-63752380D01*
X42457142Y-63704761D01*
X42409523Y-63657142D01*
X42361904Y-63561904D01*
X42314285Y-63371428D01*
X42314285Y-63133333D01*
X42361904Y-62942857D01*
X42409523Y-62847619D01*
X42457142Y-62800000D01*
X42552380Y-62752380D01*
X43219047Y-62752380D02*
X43885714Y-62752380D01*
X43457142Y-63752380D01*
X40750000Y-67111619D02*
X40797619Y-67064000D01*
X40892857Y-67016380D01*
X41130952Y-67016380D01*
X41226190Y-67064000D01*
X41273809Y-67111619D01*
X41321428Y-67206857D01*
X41321428Y-67302095D01*
X41273809Y-67444952D01*
X40702380Y-68016380D01*
X41321428Y-68016380D01*
X41702380Y-67111619D02*
X41750000Y-67064000D01*
X41845238Y-67016380D01*
X42083333Y-67016380D01*
X42178571Y-67064000D01*
X42226190Y-67111619D01*
X42273809Y-67206857D01*
X42273809Y-67302095D01*
X42226190Y-67444952D01*
X41654761Y-68016380D01*
X42273809Y-68016380D01*
X42702380Y-67349714D02*
X42702380Y-68349714D01*
X42702380Y-67397333D02*
X42797619Y-67349714D01*
X42988095Y-67349714D01*
X43083333Y-67397333D01*
X43130952Y-67444952D01*
X43178571Y-67540190D01*
X43178571Y-67825904D01*
X43130952Y-67921142D01*
X43083333Y-67968761D01*
X42988095Y-68016380D01*
X42797619Y-68016380D01*
X42702380Y-67968761D01*
X43464285Y-67349714D02*
X43845238Y-67349714D01*
X43607142Y-68016380D02*
X43607142Y-67159238D01*
X43654761Y-67064000D01*
X43750000Y-67016380D01*
X43845238Y-67016380D01*
X25249142Y-106529047D02*
X25296761Y-106576666D01*
X25344380Y-106719523D01*
X25344380Y-106814761D01*
X25296761Y-106957619D01*
X25201523Y-107052857D01*
X25106285Y-107100476D01*
X24915809Y-107148095D01*
X24772952Y-107148095D01*
X24582476Y-107100476D01*
X24487238Y-107052857D01*
X24392000Y-106957619D01*
X24344380Y-106814761D01*
X24344380Y-106719523D01*
X24392000Y-106576666D01*
X24439619Y-106529047D01*
X25344380Y-105576666D02*
X25344380Y-106148095D01*
X25344380Y-105862380D02*
X24344380Y-105862380D01*
X24487238Y-105957619D01*
X24582476Y-106052857D01*
X24630095Y-106148095D01*
X24344380Y-104957619D02*
X24344380Y-104862380D01*
X24392000Y-104767142D01*
X24439619Y-104719523D01*
X24534857Y-104671904D01*
X24725333Y-104624285D01*
X24963428Y-104624285D01*
X25153904Y-104671904D01*
X25249142Y-104719523D01*
X25296761Y-104767142D01*
X25344380Y-104862380D01*
X25344380Y-104957619D01*
X25296761Y-105052857D01*
X25249142Y-105100476D01*
X25153904Y-105148095D01*
X24963428Y-105195714D01*
X24725333Y-105195714D01*
X24534857Y-105148095D01*
X24439619Y-105100476D01*
X24392000Y-105052857D01*
X24344380Y-104957619D01*
X24772952Y-104052857D02*
X24725333Y-104148095D01*
X24677714Y-104195714D01*
X24582476Y-104243333D01*
X24534857Y-104243333D01*
X24439619Y-104195714D01*
X24392000Y-104148095D01*
X24344380Y-104052857D01*
X24344380Y-103862380D01*
X24392000Y-103767142D01*
X24439619Y-103719523D01*
X24534857Y-103671904D01*
X24582476Y-103671904D01*
X24677714Y-103719523D01*
X24725333Y-103767142D01*
X24772952Y-103862380D01*
X24772952Y-104052857D01*
X24820571Y-104148095D01*
X24868190Y-104195714D01*
X24963428Y-104243333D01*
X25153904Y-104243333D01*
X25249142Y-104195714D01*
X25296761Y-104148095D01*
X25344380Y-104052857D01*
X25344380Y-103862380D01*
X25296761Y-103767142D01*
X25249142Y-103719523D01*
X25153904Y-103671904D01*
X24963428Y-103671904D01*
X24868190Y-103719523D01*
X24820571Y-103767142D01*
X24772952Y-103862380D01*
X33313714Y-106322666D02*
X33980380Y-106322666D01*
X32932761Y-106560761D02*
X33647047Y-106798857D01*
X33647047Y-106179809D01*
X32980380Y-105894095D02*
X32980380Y-105227428D01*
X33980380Y-105656000D01*
X33313714Y-104417904D02*
X33980380Y-104417904D01*
X33313714Y-104846476D02*
X33837523Y-104846476D01*
X33932761Y-104798857D01*
X33980380Y-104703619D01*
X33980380Y-104560761D01*
X33932761Y-104465523D01*
X33885142Y-104417904D01*
X33456571Y-103608380D02*
X33456571Y-103941714D01*
X33980380Y-103941714D02*
X32980380Y-103941714D01*
X32980380Y-103465523D01*
X88796952Y-73917142D02*
X88749333Y-73964761D01*
X88606476Y-74012380D01*
X88511238Y-74012380D01*
X88368380Y-73964761D01*
X88273142Y-73869523D01*
X88225523Y-73774285D01*
X88177904Y-73583809D01*
X88177904Y-73440952D01*
X88225523Y-73250476D01*
X88273142Y-73155238D01*
X88368380Y-73060000D01*
X88511238Y-73012380D01*
X88606476Y-73012380D01*
X88749333Y-73060000D01*
X88796952Y-73107619D01*
X89749333Y-74012380D02*
X89177904Y-74012380D01*
X89463619Y-74012380D02*
X89463619Y-73012380D01*
X89368380Y-73155238D01*
X89273142Y-73250476D01*
X89177904Y-73298095D01*
X90368380Y-73012380D02*
X90463619Y-73012380D01*
X90558857Y-73060000D01*
X90606476Y-73107619D01*
X90654095Y-73202857D01*
X90701714Y-73393333D01*
X90701714Y-73631428D01*
X90654095Y-73821904D01*
X90606476Y-73917142D01*
X90558857Y-73964761D01*
X90463619Y-74012380D01*
X90368380Y-74012380D01*
X90273142Y-73964761D01*
X90225523Y-73917142D01*
X90177904Y-73821904D01*
X90130285Y-73631428D01*
X90130285Y-73393333D01*
X90177904Y-73202857D01*
X90225523Y-73107619D01*
X90273142Y-73060000D01*
X90368380Y-73012380D01*
X91177904Y-74012380D02*
X91368380Y-74012380D01*
X91463619Y-73964761D01*
X91511238Y-73917142D01*
X91606476Y-73774285D01*
X91654095Y-73583809D01*
X91654095Y-73202857D01*
X91606476Y-73107619D01*
X91558857Y-73060000D01*
X91463619Y-73012380D01*
X91273142Y-73012380D01*
X91177904Y-73060000D01*
X91130285Y-73107619D01*
X91082666Y-73202857D01*
X91082666Y-73440952D01*
X91130285Y-73536190D01*
X91177904Y-73583809D01*
X91273142Y-73631428D01*
X91463619Y-73631428D01*
X91558857Y-73583809D01*
X91606476Y-73536190D01*
X91654095Y-73440952D01*
X89162190Y-64476380D02*
X89781238Y-64476380D01*
X89447904Y-64857333D01*
X89590761Y-64857333D01*
X89686000Y-64904952D01*
X89733619Y-64952571D01*
X89781238Y-65047809D01*
X89781238Y-65285904D01*
X89733619Y-65381142D01*
X89686000Y-65428761D01*
X89590761Y-65476380D01*
X89305047Y-65476380D01*
X89209809Y-65428761D01*
X89162190Y-65381142D01*
X90114571Y-64476380D02*
X90733619Y-64476380D01*
X90400285Y-64857333D01*
X90543142Y-64857333D01*
X90638380Y-64904952D01*
X90686000Y-64952571D01*
X90733619Y-65047809D01*
X90733619Y-65285904D01*
X90686000Y-65381142D01*
X90638380Y-65428761D01*
X90543142Y-65476380D01*
X90257428Y-65476380D01*
X90162190Y-65428761D01*
X90114571Y-65381142D01*
X91352666Y-64476380D02*
X91447904Y-64476380D01*
X91543142Y-64524000D01*
X91590761Y-64571619D01*
X91638380Y-64666857D01*
X91686000Y-64857333D01*
X91686000Y-65095428D01*
X91638380Y-65285904D01*
X91590761Y-65381142D01*
X91543142Y-65428761D01*
X91447904Y-65476380D01*
X91352666Y-65476380D01*
X91257428Y-65428761D01*
X91209809Y-65381142D01*
X91162190Y-65285904D01*
X91114571Y-65095428D01*
X91114571Y-64857333D01*
X91162190Y-64666857D01*
X91209809Y-64571619D01*
X91257428Y-64524000D01*
X91352666Y-64476380D01*
X92543142Y-64809714D02*
X92543142Y-65476380D01*
X92114571Y-64809714D02*
X92114571Y-65333523D01*
X92162190Y-65428761D01*
X92257428Y-65476380D01*
X92400285Y-65476380D01*
X92495523Y-65428761D01*
X92543142Y-65381142D01*
X92876476Y-64809714D02*
X93257428Y-64809714D01*
X93019333Y-65476380D02*
X93019333Y-64619238D01*
X93066952Y-64524000D01*
X93162190Y-64476380D01*
X93257428Y-64476380D01*
X82700952Y-73763142D02*
X82653333Y-73810761D01*
X82510476Y-73858380D01*
X82415238Y-73858380D01*
X82272380Y-73810761D01*
X82177142Y-73715523D01*
X82129523Y-73620285D01*
X82081904Y-73429809D01*
X82081904Y-73286952D01*
X82129523Y-73096476D01*
X82177142Y-73001238D01*
X82272380Y-72906000D01*
X82415238Y-72858380D01*
X82510476Y-72858380D01*
X82653333Y-72906000D01*
X82700952Y-72953619D01*
X83653333Y-73858380D02*
X83081904Y-73858380D01*
X83367619Y-73858380D02*
X83367619Y-72858380D01*
X83272380Y-73001238D01*
X83177142Y-73096476D01*
X83081904Y-73144095D01*
X84605714Y-73858380D02*
X84034285Y-73858380D01*
X84320000Y-73858380D02*
X84320000Y-72858380D01*
X84224761Y-73001238D01*
X84129523Y-73096476D01*
X84034285Y-73144095D01*
X85224761Y-72858380D02*
X85320000Y-72858380D01*
X85415238Y-72906000D01*
X85462857Y-72953619D01*
X85510476Y-73048857D01*
X85558095Y-73239333D01*
X85558095Y-73477428D01*
X85510476Y-73667904D01*
X85462857Y-73763142D01*
X85415238Y-73810761D01*
X85320000Y-73858380D01*
X85224761Y-73858380D01*
X85129523Y-73810761D01*
X85081904Y-73763142D01*
X85034285Y-73667904D01*
X84986666Y-73477428D01*
X84986666Y-73239333D01*
X85034285Y-73048857D01*
X85081904Y-72953619D01*
X85129523Y-72906000D01*
X85224761Y-72858380D01*
X81183333Y-64809714D02*
X81183333Y-65476380D01*
X80945238Y-64428761D02*
X80707142Y-65143047D01*
X81326190Y-65143047D01*
X81611904Y-64476380D02*
X82278571Y-64476380D01*
X81850000Y-65476380D01*
X83088095Y-64809714D02*
X83088095Y-65476380D01*
X82659523Y-64809714D02*
X82659523Y-65333523D01*
X82707142Y-65428761D01*
X82802380Y-65476380D01*
X82945238Y-65476380D01*
X83040476Y-65428761D01*
X83088095Y-65381142D01*
X83897619Y-64952571D02*
X83564285Y-64952571D01*
X83564285Y-65476380D02*
X83564285Y-64476380D01*
X84040476Y-64476380D01*
X29868952Y-66651142D02*
X29821333Y-66698761D01*
X29678476Y-66746380D01*
X29583238Y-66746380D01*
X29440380Y-66698761D01*
X29345142Y-66603523D01*
X29297523Y-66508285D01*
X29249904Y-66317809D01*
X29249904Y-66174952D01*
X29297523Y-65984476D01*
X29345142Y-65889238D01*
X29440380Y-65794000D01*
X29583238Y-65746380D01*
X29678476Y-65746380D01*
X29821333Y-65794000D01*
X29868952Y-65841619D01*
X30821333Y-66746380D02*
X30249904Y-66746380D01*
X30535619Y-66746380D02*
X30535619Y-65746380D01*
X30440380Y-65889238D01*
X30345142Y-65984476D01*
X30249904Y-66032095D01*
X31773714Y-66746380D02*
X31202285Y-66746380D01*
X31488000Y-66746380D02*
X31488000Y-65746380D01*
X31392761Y-65889238D01*
X31297523Y-65984476D01*
X31202285Y-66032095D01*
X32726095Y-66746380D02*
X32154666Y-66746380D01*
X32440380Y-66746380D02*
X32440380Y-65746380D01*
X32345142Y-65889238D01*
X32249904Y-65984476D01*
X32154666Y-66032095D01*
X24614380Y-66746380D02*
X24042952Y-66746380D01*
X24328666Y-66746380D02*
X24328666Y-65746380D01*
X24233428Y-65889238D01*
X24138190Y-65984476D01*
X24042952Y-66032095D01*
X25233428Y-65746380D02*
X25328666Y-65746380D01*
X25423904Y-65794000D01*
X25471523Y-65841619D01*
X25519142Y-65936857D01*
X25566761Y-66127333D01*
X25566761Y-66365428D01*
X25519142Y-66555904D01*
X25471523Y-66651142D01*
X25423904Y-66698761D01*
X25328666Y-66746380D01*
X25233428Y-66746380D01*
X25138190Y-66698761D01*
X25090571Y-66651142D01*
X25042952Y-66555904D01*
X24995333Y-66365428D01*
X24995333Y-66127333D01*
X25042952Y-65936857D01*
X25090571Y-65841619D01*
X25138190Y-65794000D01*
X25233428Y-65746380D01*
X26185809Y-65746380D02*
X26281047Y-65746380D01*
X26376285Y-65794000D01*
X26423904Y-65841619D01*
X26471523Y-65936857D01*
X26519142Y-66127333D01*
X26519142Y-66365428D01*
X26471523Y-66555904D01*
X26423904Y-66651142D01*
X26376285Y-66698761D01*
X26281047Y-66746380D01*
X26185809Y-66746380D01*
X26090571Y-66698761D01*
X26042952Y-66651142D01*
X25995333Y-66555904D01*
X25947714Y-66365428D01*
X25947714Y-66127333D01*
X25995333Y-65936857D01*
X26042952Y-65841619D01*
X26090571Y-65794000D01*
X26185809Y-65746380D01*
X26947714Y-66079714D02*
X26947714Y-66746380D01*
X26947714Y-66174952D02*
X26995333Y-66127333D01*
X27090571Y-66079714D01*
X27233428Y-66079714D01*
X27328666Y-66127333D01*
X27376285Y-66222571D01*
X27376285Y-66746380D01*
X28185809Y-66222571D02*
X27852476Y-66222571D01*
X27852476Y-66746380D02*
X27852476Y-65746380D01*
X28328666Y-65746380D01*
X35202952Y-86717142D02*
X35155333Y-86764761D01*
X35012476Y-86812380D01*
X34917238Y-86812380D01*
X34774380Y-86764761D01*
X34679142Y-86669523D01*
X34631523Y-86574285D01*
X34583904Y-86383809D01*
X34583904Y-86240952D01*
X34631523Y-86050476D01*
X34679142Y-85955238D01*
X34774380Y-85860000D01*
X34917238Y-85812380D01*
X35012476Y-85812380D01*
X35155333Y-85860000D01*
X35202952Y-85907619D01*
X36155333Y-86812380D02*
X35583904Y-86812380D01*
X35869619Y-86812380D02*
X35869619Y-85812380D01*
X35774380Y-85955238D01*
X35679142Y-86050476D01*
X35583904Y-86098095D01*
X37107714Y-86812380D02*
X36536285Y-86812380D01*
X36822000Y-86812380D02*
X36822000Y-85812380D01*
X36726761Y-85955238D01*
X36631523Y-86050476D01*
X36536285Y-86098095D01*
X37488666Y-85907619D02*
X37536285Y-85860000D01*
X37631523Y-85812380D01*
X37869619Y-85812380D01*
X37964857Y-85860000D01*
X38012476Y-85907619D01*
X38060095Y-86002857D01*
X38060095Y-86098095D01*
X38012476Y-86240952D01*
X37441047Y-86812380D01*
X38060095Y-86812380D01*
X34774380Y-90876380D02*
X34202952Y-90876380D01*
X34488666Y-90876380D02*
X34488666Y-89876380D01*
X34393428Y-90019238D01*
X34298190Y-90114476D01*
X34202952Y-90162095D01*
X35393428Y-89876380D02*
X35488666Y-89876380D01*
X35583904Y-89924000D01*
X35631523Y-89971619D01*
X35679142Y-90066857D01*
X35726761Y-90257333D01*
X35726761Y-90495428D01*
X35679142Y-90685904D01*
X35631523Y-90781142D01*
X35583904Y-90828761D01*
X35488666Y-90876380D01*
X35393428Y-90876380D01*
X35298190Y-90828761D01*
X35250571Y-90781142D01*
X35202952Y-90685904D01*
X35155333Y-90495428D01*
X35155333Y-90257333D01*
X35202952Y-90066857D01*
X35250571Y-89971619D01*
X35298190Y-89924000D01*
X35393428Y-89876380D01*
X36345809Y-89876380D02*
X36441047Y-89876380D01*
X36536285Y-89924000D01*
X36583904Y-89971619D01*
X36631523Y-90066857D01*
X36679142Y-90257333D01*
X36679142Y-90495428D01*
X36631523Y-90685904D01*
X36583904Y-90781142D01*
X36536285Y-90828761D01*
X36441047Y-90876380D01*
X36345809Y-90876380D01*
X36250571Y-90828761D01*
X36202952Y-90781142D01*
X36155333Y-90685904D01*
X36107714Y-90495428D01*
X36107714Y-90257333D01*
X36155333Y-90066857D01*
X36202952Y-89971619D01*
X36250571Y-89924000D01*
X36345809Y-89876380D01*
X37107714Y-90209714D02*
X37107714Y-90876380D01*
X37107714Y-90304952D02*
X37155333Y-90257333D01*
X37250571Y-90209714D01*
X37393428Y-90209714D01*
X37488666Y-90257333D01*
X37536285Y-90352571D01*
X37536285Y-90876380D01*
X38345809Y-90352571D02*
X38012476Y-90352571D01*
X38012476Y-90876380D02*
X38012476Y-89876380D01*
X38488666Y-89876380D01*
X58316952Y-86971142D02*
X58269333Y-87018761D01*
X58126476Y-87066380D01*
X58031238Y-87066380D01*
X57888380Y-87018761D01*
X57793142Y-86923523D01*
X57745523Y-86828285D01*
X57697904Y-86637809D01*
X57697904Y-86494952D01*
X57745523Y-86304476D01*
X57793142Y-86209238D01*
X57888380Y-86114000D01*
X58031238Y-86066380D01*
X58126476Y-86066380D01*
X58269333Y-86114000D01*
X58316952Y-86161619D01*
X59269333Y-87066380D02*
X58697904Y-87066380D01*
X58983619Y-87066380D02*
X58983619Y-86066380D01*
X58888380Y-86209238D01*
X58793142Y-86304476D01*
X58697904Y-86352095D01*
X60221714Y-87066380D02*
X59650285Y-87066380D01*
X59936000Y-87066380D02*
X59936000Y-86066380D01*
X59840761Y-86209238D01*
X59745523Y-86304476D01*
X59650285Y-86352095D01*
X60555047Y-86066380D02*
X61174095Y-86066380D01*
X60840761Y-86447333D01*
X60983619Y-86447333D01*
X61078857Y-86494952D01*
X61126476Y-86542571D01*
X61174095Y-86637809D01*
X61174095Y-86875904D01*
X61126476Y-86971142D01*
X61078857Y-87018761D01*
X60983619Y-87066380D01*
X60697904Y-87066380D01*
X60602666Y-87018761D01*
X60555047Y-86971142D01*
X57936000Y-89971619D02*
X57983619Y-89924000D01*
X58078857Y-89876380D01*
X58316952Y-89876380D01*
X58412190Y-89924000D01*
X58459809Y-89971619D01*
X58507428Y-90066857D01*
X58507428Y-90162095D01*
X58459809Y-90304952D01*
X57888380Y-90876380D01*
X58507428Y-90876380D01*
X58888380Y-89971619D02*
X58936000Y-89924000D01*
X59031238Y-89876380D01*
X59269333Y-89876380D01*
X59364571Y-89924000D01*
X59412190Y-89971619D01*
X59459809Y-90066857D01*
X59459809Y-90162095D01*
X59412190Y-90304952D01*
X58840761Y-90876380D01*
X59459809Y-90876380D01*
X59888380Y-90209714D02*
X59888380Y-91209714D01*
X59888380Y-90257333D02*
X59983619Y-90209714D01*
X60174095Y-90209714D01*
X60269333Y-90257333D01*
X60316952Y-90304952D01*
X60364571Y-90400190D01*
X60364571Y-90685904D01*
X60316952Y-90781142D01*
X60269333Y-90828761D01*
X60174095Y-90876380D01*
X59983619Y-90876380D01*
X59888380Y-90828761D01*
X60650285Y-90209714D02*
X61031238Y-90209714D01*
X60793142Y-90876380D02*
X60793142Y-90019238D01*
X60840761Y-89924000D01*
X60936000Y-89876380D01*
X61031238Y-89876380D01*
X60904380Y-70016476D02*
X59904380Y-70016476D01*
X59904380Y-69778380D01*
X59952000Y-69635523D01*
X60047238Y-69540285D01*
X60142476Y-69492666D01*
X60332952Y-69445047D01*
X60475809Y-69445047D01*
X60666285Y-69492666D01*
X60761523Y-69540285D01*
X60856761Y-69635523D01*
X60904380Y-69778380D01*
X60904380Y-70016476D01*
X60904380Y-68492666D02*
X60904380Y-69064095D01*
X60904380Y-68778380D02*
X59904380Y-68778380D01*
X60047238Y-68873619D01*
X60142476Y-68968857D01*
X60190095Y-69064095D01*
X59904380Y-67873619D02*
X59904380Y-67778380D01*
X59952000Y-67683142D01*
X59999619Y-67635523D01*
X60094857Y-67587904D01*
X60285333Y-67540285D01*
X60523428Y-67540285D01*
X60713904Y-67587904D01*
X60809142Y-67635523D01*
X60856761Y-67683142D01*
X60904380Y-67778380D01*
X60904380Y-67873619D01*
X60856761Y-67968857D01*
X60809142Y-68016476D01*
X60713904Y-68064095D01*
X60523428Y-68111714D01*
X60285333Y-68111714D01*
X60094857Y-68064095D01*
X59999619Y-68016476D01*
X59952000Y-67968857D01*
X59904380Y-67873619D01*
X60904380Y-66587904D02*
X60904380Y-67159333D01*
X60904380Y-66873619D02*
X59904380Y-66873619D01*
X60047238Y-66968857D01*
X60142476Y-67064095D01*
X60190095Y-67159333D01*
X63362380Y-71261428D02*
X63362380Y-71832857D01*
X63362380Y-71547142D02*
X62362380Y-71547142D01*
X62505238Y-71642380D01*
X62600476Y-71737619D01*
X62648095Y-71832857D01*
X63362380Y-70832857D02*
X62362380Y-70832857D01*
X63362380Y-70261428D01*
X62362380Y-70261428D01*
X62695714Y-69356666D02*
X63362380Y-69356666D01*
X62314761Y-69594761D02*
X63029047Y-69832857D01*
X63029047Y-69213809D01*
X62362380Y-68928095D02*
X62362380Y-68261428D01*
X63362380Y-68690000D01*
X62362380Y-67975714D02*
X62362380Y-67356666D01*
X62743333Y-67690000D01*
X62743333Y-67547142D01*
X62790952Y-67451904D01*
X62838571Y-67404285D01*
X62933809Y-67356666D01*
X63171904Y-67356666D01*
X63267142Y-67404285D01*
X63314761Y-67451904D01*
X63362380Y-67547142D01*
X63362380Y-67832857D01*
X63314761Y-67928095D01*
X63267142Y-67975714D01*
X62362380Y-67023333D02*
X62362380Y-66404285D01*
X62743333Y-66737619D01*
X62743333Y-66594761D01*
X62790952Y-66499523D01*
X62838571Y-66451904D01*
X62933809Y-66404285D01*
X63171904Y-66404285D01*
X63267142Y-66451904D01*
X63314761Y-66499523D01*
X63362380Y-66594761D01*
X63362380Y-66880476D01*
X63314761Y-66975714D01*
X63267142Y-67023333D01*
X63076666Y-66023333D02*
X63076666Y-65547142D01*
X63362380Y-66118571D02*
X62362380Y-65785238D01*
X63362380Y-65451904D01*
X55824380Y-70380476D02*
X54824380Y-70380476D01*
X54824380Y-70142380D01*
X54872000Y-69999523D01*
X54967238Y-69904285D01*
X55062476Y-69856666D01*
X55252952Y-69809047D01*
X55395809Y-69809047D01*
X55586285Y-69856666D01*
X55681523Y-69904285D01*
X55776761Y-69999523D01*
X55824380Y-70142380D01*
X55824380Y-70380476D01*
X55824380Y-68856666D02*
X55824380Y-69428095D01*
X55824380Y-69142380D02*
X54824380Y-69142380D01*
X54967238Y-69237619D01*
X55062476Y-69332857D01*
X55110095Y-69428095D01*
X54824380Y-68237619D02*
X54824380Y-68142380D01*
X54872000Y-68047142D01*
X54919619Y-67999523D01*
X55014857Y-67951904D01*
X55205333Y-67904285D01*
X55443428Y-67904285D01*
X55633904Y-67951904D01*
X55729142Y-67999523D01*
X55776761Y-68047142D01*
X55824380Y-68142380D01*
X55824380Y-68237619D01*
X55776761Y-68332857D01*
X55729142Y-68380476D01*
X55633904Y-68428095D01*
X55443428Y-68475714D01*
X55205333Y-68475714D01*
X55014857Y-68428095D01*
X54919619Y-68380476D01*
X54872000Y-68332857D01*
X54824380Y-68237619D01*
X54919619Y-67523333D02*
X54872000Y-67475714D01*
X54824380Y-67380476D01*
X54824380Y-67142380D01*
X54872000Y-67047142D01*
X54919619Y-66999523D01*
X55014857Y-66951904D01*
X55110095Y-66951904D01*
X55252952Y-66999523D01*
X55824380Y-67570952D01*
X55824380Y-66951904D01*
X53792380Y-70389428D02*
X53792380Y-70960857D01*
X53792380Y-70675142D02*
X52792380Y-70675142D01*
X52935238Y-70770380D01*
X53030476Y-70865619D01*
X53078095Y-70960857D01*
X53792380Y-69960857D02*
X52792380Y-69960857D01*
X53792380Y-69389428D01*
X52792380Y-69389428D01*
X53125714Y-68484666D02*
X53792380Y-68484666D01*
X52744761Y-68722761D02*
X53459047Y-68960857D01*
X53459047Y-68341809D01*
X52792380Y-68056095D02*
X52792380Y-67389428D01*
X53792380Y-67818000D01*
X52792380Y-67103714D02*
X52792380Y-66484666D01*
X53173333Y-66818000D01*
X53173333Y-66675142D01*
X53220952Y-66579904D01*
X53268571Y-66532285D01*
X53363809Y-66484666D01*
X53601904Y-66484666D01*
X53697142Y-66532285D01*
X53744761Y-66579904D01*
X53792380Y-66675142D01*
X53792380Y-66960857D01*
X53744761Y-67056095D01*
X53697142Y-67103714D01*
X52792380Y-66151333D02*
X52792380Y-65532285D01*
X53173333Y-65865619D01*
X53173333Y-65722761D01*
X53220952Y-65627523D01*
X53268571Y-65579904D01*
X53363809Y-65532285D01*
X53601904Y-65532285D01*
X53697142Y-65579904D01*
X53744761Y-65627523D01*
X53792380Y-65722761D01*
X53792380Y-66008476D01*
X53744761Y-66103714D01*
X53697142Y-66151333D01*
X53506666Y-65151333D02*
X53506666Y-64675142D01*
X53792380Y-65246571D02*
X52792380Y-64913238D01*
X53792380Y-64579904D01*
X101312380Y-80770476D02*
X100312380Y-80770476D01*
X100312380Y-80532380D01*
X100360000Y-80389523D01*
X100455238Y-80294285D01*
X100550476Y-80246666D01*
X100740952Y-80199047D01*
X100883809Y-80199047D01*
X101074285Y-80246666D01*
X101169523Y-80294285D01*
X101264761Y-80389523D01*
X101312380Y-80532380D01*
X101312380Y-80770476D01*
X101312380Y-79246666D02*
X101312380Y-79818095D01*
X101312380Y-79532380D02*
X100312380Y-79532380D01*
X100455238Y-79627619D01*
X100550476Y-79722857D01*
X100598095Y-79818095D01*
X100312380Y-78627619D02*
X100312380Y-78532380D01*
X100360000Y-78437142D01*
X100407619Y-78389523D01*
X100502857Y-78341904D01*
X100693333Y-78294285D01*
X100931428Y-78294285D01*
X101121904Y-78341904D01*
X101217142Y-78389523D01*
X101264761Y-78437142D01*
X101312380Y-78532380D01*
X101312380Y-78627619D01*
X101264761Y-78722857D01*
X101217142Y-78770476D01*
X101121904Y-78818095D01*
X100931428Y-78865714D01*
X100693333Y-78865714D01*
X100502857Y-78818095D01*
X100407619Y-78770476D01*
X100360000Y-78722857D01*
X100312380Y-78627619D01*
X100312380Y-77960952D02*
X100312380Y-77341904D01*
X100693333Y-77675238D01*
X100693333Y-77532380D01*
X100740952Y-77437142D01*
X100788571Y-77389523D01*
X100883809Y-77341904D01*
X101121904Y-77341904D01*
X101217142Y-77389523D01*
X101264761Y-77437142D01*
X101312380Y-77532380D01*
X101312380Y-77818095D01*
X101264761Y-77913333D01*
X101217142Y-77960952D01*
X98496380Y-81644857D02*
X98496380Y-82216285D01*
X98496380Y-81930571D02*
X97496380Y-81930571D01*
X97639238Y-82025809D01*
X97734476Y-82121047D01*
X97782095Y-82216285D01*
X98496380Y-81216285D02*
X97496380Y-81216285D01*
X98496380Y-80644857D01*
X97496380Y-80644857D01*
X97829714Y-79740095D02*
X98496380Y-79740095D01*
X97448761Y-79978190D02*
X98163047Y-80216285D01*
X98163047Y-79597238D01*
X97496380Y-79025809D02*
X97496380Y-78930571D01*
X97544000Y-78835333D01*
X97591619Y-78787714D01*
X97686857Y-78740095D01*
X97877333Y-78692476D01*
X98115428Y-78692476D01*
X98305904Y-78740095D01*
X98401142Y-78787714D01*
X98448761Y-78835333D01*
X98496380Y-78930571D01*
X98496380Y-79025809D01*
X98448761Y-79121047D01*
X98401142Y-79168666D01*
X98305904Y-79216285D01*
X98115428Y-79263904D01*
X97877333Y-79263904D01*
X97686857Y-79216285D01*
X97591619Y-79168666D01*
X97544000Y-79121047D01*
X97496380Y-79025809D01*
X97496380Y-78073428D02*
X97496380Y-77978190D01*
X97544000Y-77882952D01*
X97591619Y-77835333D01*
X97686857Y-77787714D01*
X97877333Y-77740095D01*
X98115428Y-77740095D01*
X98305904Y-77787714D01*
X98401142Y-77835333D01*
X98448761Y-77882952D01*
X98496380Y-77978190D01*
X98496380Y-78073428D01*
X98448761Y-78168666D01*
X98401142Y-78216285D01*
X98305904Y-78263904D01*
X98115428Y-78311523D01*
X97877333Y-78311523D01*
X97686857Y-78263904D01*
X97591619Y-78216285D01*
X97544000Y-78168666D01*
X97496380Y-78073428D01*
X98496380Y-76787714D02*
X98496380Y-77359142D01*
X98496380Y-77073428D02*
X97496380Y-77073428D01*
X97639238Y-77168666D01*
X97734476Y-77263904D01*
X97782095Y-77359142D01*
X101036380Y-96770476D02*
X100036380Y-96770476D01*
X100036380Y-96532380D01*
X100084000Y-96389523D01*
X100179238Y-96294285D01*
X100274476Y-96246666D01*
X100464952Y-96199047D01*
X100607809Y-96199047D01*
X100798285Y-96246666D01*
X100893523Y-96294285D01*
X100988761Y-96389523D01*
X101036380Y-96532380D01*
X101036380Y-96770476D01*
X101036380Y-95246666D02*
X101036380Y-95818095D01*
X101036380Y-95532380D02*
X100036380Y-95532380D01*
X100179238Y-95627619D01*
X100274476Y-95722857D01*
X100322095Y-95818095D01*
X100036380Y-94627619D02*
X100036380Y-94532380D01*
X100084000Y-94437142D01*
X100131619Y-94389523D01*
X100226857Y-94341904D01*
X100417333Y-94294285D01*
X100655428Y-94294285D01*
X100845904Y-94341904D01*
X100941142Y-94389523D01*
X100988761Y-94437142D01*
X101036380Y-94532380D01*
X101036380Y-94627619D01*
X100988761Y-94722857D01*
X100941142Y-94770476D01*
X100845904Y-94818095D01*
X100655428Y-94865714D01*
X100417333Y-94865714D01*
X100226857Y-94818095D01*
X100131619Y-94770476D01*
X100084000Y-94722857D01*
X100036380Y-94627619D01*
X100369714Y-93437142D02*
X101036380Y-93437142D01*
X99988761Y-93675238D02*
X100703047Y-93913333D01*
X100703047Y-93294285D01*
X98496380Y-97646857D02*
X98496380Y-98218285D01*
X98496380Y-97932571D02*
X97496380Y-97932571D01*
X97639238Y-98027809D01*
X97734476Y-98123047D01*
X97782095Y-98218285D01*
X98496380Y-97218285D02*
X97496380Y-97218285D01*
X98496380Y-96646857D01*
X97496380Y-96646857D01*
X97829714Y-95742095D02*
X98496380Y-95742095D01*
X97448761Y-95980190D02*
X98163047Y-96218285D01*
X98163047Y-95599238D01*
X97496380Y-95027809D02*
X97496380Y-94932571D01*
X97544000Y-94837333D01*
X97591619Y-94789714D01*
X97686857Y-94742095D01*
X97877333Y-94694476D01*
X98115428Y-94694476D01*
X98305904Y-94742095D01*
X98401142Y-94789714D01*
X98448761Y-94837333D01*
X98496380Y-94932571D01*
X98496380Y-95027809D01*
X98448761Y-95123047D01*
X98401142Y-95170666D01*
X98305904Y-95218285D01*
X98115428Y-95265904D01*
X97877333Y-95265904D01*
X97686857Y-95218285D01*
X97591619Y-95170666D01*
X97544000Y-95123047D01*
X97496380Y-95027809D01*
X97496380Y-94075428D02*
X97496380Y-93980190D01*
X97544000Y-93884952D01*
X97591619Y-93837333D01*
X97686857Y-93789714D01*
X97877333Y-93742095D01*
X98115428Y-93742095D01*
X98305904Y-93789714D01*
X98401142Y-93837333D01*
X98448761Y-93884952D01*
X98496380Y-93980190D01*
X98496380Y-94075428D01*
X98448761Y-94170666D01*
X98401142Y-94218285D01*
X98305904Y-94265904D01*
X98115428Y-94313523D01*
X97877333Y-94313523D01*
X97686857Y-94265904D01*
X97591619Y-94218285D01*
X97544000Y-94170666D01*
X97496380Y-94075428D01*
X98496380Y-92789714D02*
X98496380Y-93361142D01*
X98496380Y-93075428D02*
X97496380Y-93075428D01*
X97639238Y-93170666D01*
X97734476Y-93265904D01*
X97782095Y-93361142D01*
X25360380Y-83327714D02*
X26074666Y-83327714D01*
X26217523Y-83375333D01*
X26312761Y-83470571D01*
X26360380Y-83613428D01*
X26360380Y-83708666D01*
X26360380Y-82327714D02*
X26360380Y-82899142D01*
X26360380Y-82613428D02*
X25360380Y-82613428D01*
X25503238Y-82708666D01*
X25598476Y-82803904D01*
X25646095Y-82899142D01*
X25360380Y-81708666D02*
X25360380Y-81613428D01*
X25408000Y-81518190D01*
X25455619Y-81470571D01*
X25550857Y-81422952D01*
X25741333Y-81375333D01*
X25979428Y-81375333D01*
X26169904Y-81422952D01*
X26265142Y-81470571D01*
X26312761Y-81518190D01*
X26360380Y-81613428D01*
X26360380Y-81708666D01*
X26312761Y-81803904D01*
X26265142Y-81851523D01*
X26169904Y-81899142D01*
X25979428Y-81946761D01*
X25741333Y-81946761D01*
X25550857Y-81899142D01*
X25455619Y-81851523D01*
X25408000Y-81803904D01*
X25360380Y-81708666D01*
X26360380Y-80422952D02*
X26360380Y-80994380D01*
X26360380Y-80708666D02*
X25360380Y-80708666D01*
X25503238Y-80803904D01*
X25598476Y-80899142D01*
X25646095Y-80994380D01*
X100752380Y-107585714D02*
X101466666Y-107585714D01*
X101609523Y-107633333D01*
X101704761Y-107728571D01*
X101752380Y-107871428D01*
X101752380Y-107966666D01*
X101752380Y-106585714D02*
X101752380Y-107157142D01*
X101752380Y-106871428D02*
X100752380Y-106871428D01*
X100895238Y-106966666D01*
X100990476Y-107061904D01*
X101038095Y-107157142D01*
X100752380Y-105966666D02*
X100752380Y-105871428D01*
X100800000Y-105776190D01*
X100847619Y-105728571D01*
X100942857Y-105680952D01*
X101133333Y-105633333D01*
X101371428Y-105633333D01*
X101561904Y-105680952D01*
X101657142Y-105728571D01*
X101704761Y-105776190D01*
X101752380Y-105871428D01*
X101752380Y-105966666D01*
X101704761Y-106061904D01*
X101657142Y-106109523D01*
X101561904Y-106157142D01*
X101371428Y-106204761D01*
X101133333Y-106204761D01*
X100942857Y-106157142D01*
X100847619Y-106109523D01*
X100800000Y-106061904D01*
X100752380Y-105966666D01*
X101085714Y-104776190D02*
X101752380Y-104776190D01*
X100704761Y-105014285D02*
X101419047Y-105252380D01*
X101419047Y-104633333D01*
X34142380Y-69909047D02*
X33666190Y-70242380D01*
X34142380Y-70480476D02*
X33142380Y-70480476D01*
X33142380Y-70099523D01*
X33190000Y-70004285D01*
X33237619Y-69956666D01*
X33332857Y-69909047D01*
X33475714Y-69909047D01*
X33570952Y-69956666D01*
X33618571Y-70004285D01*
X33666190Y-70099523D01*
X33666190Y-70480476D01*
X34142380Y-68956666D02*
X34142380Y-69528095D01*
X34142380Y-69242380D02*
X33142380Y-69242380D01*
X33285238Y-69337619D01*
X33380476Y-69432857D01*
X33428095Y-69528095D01*
X33142380Y-68337619D02*
X33142380Y-68242380D01*
X33190000Y-68147142D01*
X33237619Y-68099523D01*
X33332857Y-68051904D01*
X33523333Y-68004285D01*
X33761428Y-68004285D01*
X33951904Y-68051904D01*
X34047142Y-68099523D01*
X34094761Y-68147142D01*
X34142380Y-68242380D01*
X34142380Y-68337619D01*
X34094761Y-68432857D01*
X34047142Y-68480476D01*
X33951904Y-68528095D01*
X33761428Y-68575714D01*
X33523333Y-68575714D01*
X33332857Y-68528095D01*
X33237619Y-68480476D01*
X33190000Y-68432857D01*
X33142380Y-68337619D01*
X34142380Y-67051904D02*
X34142380Y-67623333D01*
X34142380Y-67337619D02*
X33142380Y-67337619D01*
X33285238Y-67432857D01*
X33380476Y-67528095D01*
X33428095Y-67623333D01*
X36520380Y-69075714D02*
X36520380Y-69647142D01*
X36520380Y-69361428D02*
X35520380Y-69361428D01*
X35663238Y-69456666D01*
X35758476Y-69551904D01*
X35806095Y-69647142D01*
X36520380Y-68647142D02*
X35520380Y-68647142D01*
X36234666Y-68313809D01*
X35520380Y-67980476D01*
X36520380Y-67980476D01*
X69032380Y-70207047D02*
X68556190Y-70540380D01*
X69032380Y-70778476D02*
X68032380Y-70778476D01*
X68032380Y-70397523D01*
X68080000Y-70302285D01*
X68127619Y-70254666D01*
X68222857Y-70207047D01*
X68365714Y-70207047D01*
X68460952Y-70254666D01*
X68508571Y-70302285D01*
X68556190Y-70397523D01*
X68556190Y-70778476D01*
X69032380Y-69254666D02*
X69032380Y-69826095D01*
X69032380Y-69540380D02*
X68032380Y-69540380D01*
X68175238Y-69635619D01*
X68270476Y-69730857D01*
X68318095Y-69826095D01*
X68032380Y-68635619D02*
X68032380Y-68540380D01*
X68080000Y-68445142D01*
X68127619Y-68397523D01*
X68222857Y-68349904D01*
X68413333Y-68302285D01*
X68651428Y-68302285D01*
X68841904Y-68349904D01*
X68937142Y-68397523D01*
X68984761Y-68445142D01*
X69032380Y-68540380D01*
X69032380Y-68635619D01*
X68984761Y-68730857D01*
X68937142Y-68778476D01*
X68841904Y-68826095D01*
X68651428Y-68873714D01*
X68413333Y-68873714D01*
X68222857Y-68826095D01*
X68127619Y-68778476D01*
X68080000Y-68730857D01*
X68032380Y-68635619D01*
X68127619Y-67921333D02*
X68080000Y-67873714D01*
X68032380Y-67778476D01*
X68032380Y-67540380D01*
X68080000Y-67445142D01*
X68127619Y-67397523D01*
X68222857Y-67349904D01*
X68318095Y-67349904D01*
X68460952Y-67397523D01*
X69032380Y-67968952D01*
X69032380Y-67349904D01*
X66492380Y-69683238D02*
X66492380Y-70254666D01*
X66492380Y-69968952D02*
X65492380Y-69968952D01*
X65635238Y-70064190D01*
X65730476Y-70159428D01*
X65778095Y-70254666D01*
X65492380Y-69064190D02*
X65492380Y-68968952D01*
X65540000Y-68873714D01*
X65587619Y-68826095D01*
X65682857Y-68778476D01*
X65873333Y-68730857D01*
X66111428Y-68730857D01*
X66301904Y-68778476D01*
X66397142Y-68826095D01*
X66444761Y-68873714D01*
X66492380Y-68968952D01*
X66492380Y-69064190D01*
X66444761Y-69159428D01*
X66397142Y-69207047D01*
X66301904Y-69254666D01*
X66111428Y-69302285D01*
X65873333Y-69302285D01*
X65682857Y-69254666D01*
X65587619Y-69207047D01*
X65540000Y-69159428D01*
X65492380Y-69064190D01*
X66492380Y-68302285D02*
X65492380Y-68302285D01*
X66111428Y-68207047D02*
X66492380Y-67921333D01*
X65825714Y-67921333D02*
X66206666Y-68302285D01*
X36742380Y-97909047D02*
X36266190Y-98242380D01*
X36742380Y-98480476D02*
X35742380Y-98480476D01*
X35742380Y-98099523D01*
X35790000Y-98004285D01*
X35837619Y-97956666D01*
X35932857Y-97909047D01*
X36075714Y-97909047D01*
X36170952Y-97956666D01*
X36218571Y-98004285D01*
X36266190Y-98099523D01*
X36266190Y-98480476D01*
X36742380Y-96956666D02*
X36742380Y-97528095D01*
X36742380Y-97242380D02*
X35742380Y-97242380D01*
X35885238Y-97337619D01*
X35980476Y-97432857D01*
X36028095Y-97528095D01*
X35742380Y-96337619D02*
X35742380Y-96242380D01*
X35790000Y-96147142D01*
X35837619Y-96099523D01*
X35932857Y-96051904D01*
X36123333Y-96004285D01*
X36361428Y-96004285D01*
X36551904Y-96051904D01*
X36647142Y-96099523D01*
X36694761Y-96147142D01*
X36742380Y-96242380D01*
X36742380Y-96337619D01*
X36694761Y-96432857D01*
X36647142Y-96480476D01*
X36551904Y-96528095D01*
X36361428Y-96575714D01*
X36123333Y-96575714D01*
X35932857Y-96528095D01*
X35837619Y-96480476D01*
X35790000Y-96432857D01*
X35742380Y-96337619D01*
X35742380Y-95670952D02*
X35742380Y-95051904D01*
X36123333Y-95385238D01*
X36123333Y-95242380D01*
X36170952Y-95147142D01*
X36218571Y-95099523D01*
X36313809Y-95051904D01*
X36551904Y-95051904D01*
X36647142Y-95099523D01*
X36694761Y-95147142D01*
X36742380Y-95242380D01*
X36742380Y-95528095D01*
X36694761Y-95623333D01*
X36647142Y-95670952D01*
X39060380Y-96893047D02*
X39060380Y-97464476D01*
X39060380Y-97178761D02*
X38060380Y-97178761D01*
X38203238Y-97274000D01*
X38298476Y-97369238D01*
X38346095Y-97464476D01*
X39060380Y-96464476D02*
X38060380Y-96464476D01*
X38679428Y-96369238D02*
X39060380Y-96083523D01*
X38393714Y-96083523D02*
X38774666Y-96464476D01*
X61158380Y-58519047D02*
X60682190Y-58852380D01*
X61158380Y-59090476D02*
X60158380Y-59090476D01*
X60158380Y-58709523D01*
X60206000Y-58614285D01*
X60253619Y-58566666D01*
X60348857Y-58519047D01*
X60491714Y-58519047D01*
X60586952Y-58566666D01*
X60634571Y-58614285D01*
X60682190Y-58709523D01*
X60682190Y-59090476D01*
X61158380Y-57566666D02*
X61158380Y-58138095D01*
X61158380Y-57852380D02*
X60158380Y-57852380D01*
X60301238Y-57947619D01*
X60396476Y-58042857D01*
X60444095Y-58138095D01*
X60158380Y-56947619D02*
X60158380Y-56852380D01*
X60206000Y-56757142D01*
X60253619Y-56709523D01*
X60348857Y-56661904D01*
X60539333Y-56614285D01*
X60777428Y-56614285D01*
X60967904Y-56661904D01*
X61063142Y-56709523D01*
X61110761Y-56757142D01*
X61158380Y-56852380D01*
X61158380Y-56947619D01*
X61110761Y-57042857D01*
X61063142Y-57090476D01*
X60967904Y-57138095D01*
X60777428Y-57185714D01*
X60539333Y-57185714D01*
X60348857Y-57138095D01*
X60253619Y-57090476D01*
X60206000Y-57042857D01*
X60158380Y-56947619D01*
X60491714Y-55757142D02*
X61158380Y-55757142D01*
X60110761Y-55995238D02*
X60825047Y-56233333D01*
X60825047Y-55614285D01*
X62936380Y-57604285D02*
X62936380Y-58175714D01*
X62936380Y-57890000D02*
X61936380Y-57890000D01*
X62079238Y-57985238D01*
X62174476Y-58080476D01*
X62222095Y-58175714D01*
X62936380Y-57175714D02*
X61936380Y-57175714D01*
X62936380Y-56604285D02*
X62364952Y-57032857D01*
X61936380Y-56604285D02*
X62507809Y-57175714D01*
X65222380Y-58419047D02*
X64746190Y-58752380D01*
X65222380Y-58990476D02*
X64222380Y-58990476D01*
X64222380Y-58609523D01*
X64270000Y-58514285D01*
X64317619Y-58466666D01*
X64412857Y-58419047D01*
X64555714Y-58419047D01*
X64650952Y-58466666D01*
X64698571Y-58514285D01*
X64746190Y-58609523D01*
X64746190Y-58990476D01*
X65222380Y-57466666D02*
X65222380Y-58038095D01*
X65222380Y-57752380D02*
X64222380Y-57752380D01*
X64365238Y-57847619D01*
X64460476Y-57942857D01*
X64508095Y-58038095D01*
X64222380Y-56847619D02*
X64222380Y-56752380D01*
X64270000Y-56657142D01*
X64317619Y-56609523D01*
X64412857Y-56561904D01*
X64603333Y-56514285D01*
X64841428Y-56514285D01*
X65031904Y-56561904D01*
X65127142Y-56609523D01*
X65174761Y-56657142D01*
X65222380Y-56752380D01*
X65222380Y-56847619D01*
X65174761Y-56942857D01*
X65127142Y-56990476D01*
X65031904Y-57038095D01*
X64841428Y-57085714D01*
X64603333Y-57085714D01*
X64412857Y-57038095D01*
X64317619Y-56990476D01*
X64270000Y-56942857D01*
X64222380Y-56847619D01*
X64222380Y-55609523D02*
X64222380Y-56085714D01*
X64698571Y-56133333D01*
X64650952Y-56085714D01*
X64603333Y-55990476D01*
X64603333Y-55752380D01*
X64650952Y-55657142D01*
X64698571Y-55609523D01*
X64793809Y-55561904D01*
X65031904Y-55561904D01*
X65127142Y-55609523D01*
X65174761Y-55657142D01*
X65222380Y-55752380D01*
X65222380Y-55990476D01*
X65174761Y-56085714D01*
X65127142Y-56133333D01*
X67000380Y-57604285D02*
X67000380Y-58175714D01*
X67000380Y-57890000D02*
X66000380Y-57890000D01*
X66143238Y-57985238D01*
X66238476Y-58080476D01*
X66286095Y-58175714D01*
X67000380Y-57175714D02*
X66000380Y-57175714D01*
X67000380Y-56604285D02*
X66428952Y-57032857D01*
X66000380Y-56604285D02*
X66571809Y-57175714D01*
X45156380Y-58509047D02*
X44680190Y-58842380D01*
X45156380Y-59080476D02*
X44156380Y-59080476D01*
X44156380Y-58699523D01*
X44204000Y-58604285D01*
X44251619Y-58556666D01*
X44346857Y-58509047D01*
X44489714Y-58509047D01*
X44584952Y-58556666D01*
X44632571Y-58604285D01*
X44680190Y-58699523D01*
X44680190Y-59080476D01*
X45156380Y-57556666D02*
X45156380Y-58128095D01*
X45156380Y-57842380D02*
X44156380Y-57842380D01*
X44299238Y-57937619D01*
X44394476Y-58032857D01*
X44442095Y-58128095D01*
X44156380Y-56937619D02*
X44156380Y-56842380D01*
X44204000Y-56747142D01*
X44251619Y-56699523D01*
X44346857Y-56651904D01*
X44537333Y-56604285D01*
X44775428Y-56604285D01*
X44965904Y-56651904D01*
X45061142Y-56699523D01*
X45108761Y-56747142D01*
X45156380Y-56842380D01*
X45156380Y-56937619D01*
X45108761Y-57032857D01*
X45061142Y-57080476D01*
X44965904Y-57128095D01*
X44775428Y-57175714D01*
X44537333Y-57175714D01*
X44346857Y-57128095D01*
X44251619Y-57080476D01*
X44204000Y-57032857D01*
X44156380Y-56937619D01*
X44156380Y-55747142D02*
X44156380Y-55937619D01*
X44204000Y-56032857D01*
X44251619Y-56080476D01*
X44394476Y-56175714D01*
X44584952Y-56223333D01*
X44965904Y-56223333D01*
X45061142Y-56175714D01*
X45108761Y-56128095D01*
X45156380Y-56032857D01*
X45156380Y-55842380D01*
X45108761Y-55747142D01*
X45061142Y-55699523D01*
X44965904Y-55651904D01*
X44727809Y-55651904D01*
X44632571Y-55699523D01*
X44584952Y-55747142D01*
X44537333Y-55842380D01*
X44537333Y-56032857D01*
X44584952Y-56128095D01*
X44632571Y-56175714D01*
X44727809Y-56223333D01*
X47188380Y-57604285D02*
X47188380Y-58175714D01*
X47188380Y-57890000D02*
X46188380Y-57890000D01*
X46331238Y-57985238D01*
X46426476Y-58080476D01*
X46474095Y-58175714D01*
X47188380Y-57175714D02*
X46188380Y-57175714D01*
X47188380Y-56604285D02*
X46616952Y-57032857D01*
X46188380Y-56604285D02*
X46759809Y-57175714D01*
X48966380Y-58269047D02*
X48490190Y-58602380D01*
X48966380Y-58840476D02*
X47966380Y-58840476D01*
X47966380Y-58459523D01*
X48014000Y-58364285D01*
X48061619Y-58316666D01*
X48156857Y-58269047D01*
X48299714Y-58269047D01*
X48394952Y-58316666D01*
X48442571Y-58364285D01*
X48490190Y-58459523D01*
X48490190Y-58840476D01*
X48966380Y-57316666D02*
X48966380Y-57888095D01*
X48966380Y-57602380D02*
X47966380Y-57602380D01*
X48109238Y-57697619D01*
X48204476Y-57792857D01*
X48252095Y-57888095D01*
X47966380Y-56697619D02*
X47966380Y-56602380D01*
X48014000Y-56507142D01*
X48061619Y-56459523D01*
X48156857Y-56411904D01*
X48347333Y-56364285D01*
X48585428Y-56364285D01*
X48775904Y-56411904D01*
X48871142Y-56459523D01*
X48918761Y-56507142D01*
X48966380Y-56602380D01*
X48966380Y-56697619D01*
X48918761Y-56792857D01*
X48871142Y-56840476D01*
X48775904Y-56888095D01*
X48585428Y-56935714D01*
X48347333Y-56935714D01*
X48156857Y-56888095D01*
X48061619Y-56840476D01*
X48014000Y-56792857D01*
X47966380Y-56697619D01*
X47966380Y-56030952D02*
X47966380Y-55364285D01*
X48966380Y-55792857D01*
X50998380Y-57364285D02*
X50998380Y-57935714D01*
X50998380Y-57650000D02*
X49998380Y-57650000D01*
X50141238Y-57745238D01*
X50236476Y-57840476D01*
X50284095Y-57935714D01*
X50998380Y-56935714D02*
X49998380Y-56935714D01*
X50998380Y-56364285D02*
X50426952Y-56792857D01*
X49998380Y-56364285D02*
X50569809Y-56935714D01*
X41799522Y-97909047D02*
X41323332Y-98242380D01*
X41799522Y-98480476D02*
X40799522Y-98480476D01*
X40799522Y-98099523D01*
X40847142Y-98004285D01*
X40894761Y-97956666D01*
X40989999Y-97909047D01*
X41132856Y-97909047D01*
X41228094Y-97956666D01*
X41275713Y-98004285D01*
X41323332Y-98099523D01*
X41323332Y-98480476D01*
X41799522Y-96956666D02*
X41799522Y-97528095D01*
X41799522Y-97242380D02*
X40799522Y-97242380D01*
X40942380Y-97337619D01*
X41037618Y-97432857D01*
X41085237Y-97528095D01*
X40799522Y-96337619D02*
X40799522Y-96242380D01*
X40847142Y-96147142D01*
X40894761Y-96099523D01*
X40989999Y-96051904D01*
X41180475Y-96004285D01*
X41418570Y-96004285D01*
X41609046Y-96051904D01*
X41704284Y-96099523D01*
X41751903Y-96147142D01*
X41799522Y-96242380D01*
X41799522Y-96337619D01*
X41751903Y-96432857D01*
X41704284Y-96480476D01*
X41609046Y-96528095D01*
X41418570Y-96575714D01*
X41180475Y-96575714D01*
X40989999Y-96528095D01*
X40894761Y-96480476D01*
X40847142Y-96432857D01*
X40799522Y-96337619D01*
X41228094Y-95432857D02*
X41180475Y-95528095D01*
X41132856Y-95575714D01*
X41037618Y-95623333D01*
X40989999Y-95623333D01*
X40894761Y-95575714D01*
X40847142Y-95528095D01*
X40799522Y-95432857D01*
X40799522Y-95242380D01*
X40847142Y-95147142D01*
X40894761Y-95099523D01*
X40989999Y-95051904D01*
X41037618Y-95051904D01*
X41132856Y-95099523D01*
X41180475Y-95147142D01*
X41228094Y-95242380D01*
X41228094Y-95432857D01*
X41275713Y-95528095D01*
X41323332Y-95575714D01*
X41418570Y-95623333D01*
X41609046Y-95623333D01*
X41704284Y-95575714D01*
X41751903Y-95528095D01*
X41799522Y-95432857D01*
X41799522Y-95242380D01*
X41751903Y-95147142D01*
X41704284Y-95099523D01*
X41609046Y-95051904D01*
X41418570Y-95051904D01*
X41323332Y-95099523D01*
X41275713Y-95147142D01*
X41228094Y-95242380D01*
X44140380Y-96893047D02*
X44140380Y-97464476D01*
X44140380Y-97178761D02*
X43140380Y-97178761D01*
X43283238Y-97274000D01*
X43378476Y-97369238D01*
X43426095Y-97464476D01*
X44140380Y-96464476D02*
X43140380Y-96464476D01*
X43759428Y-96369238D02*
X44140380Y-96083523D01*
X43473714Y-96083523D02*
X43854666Y-96464476D01*
X36774380Y-58777047D02*
X36298190Y-59110380D01*
X36774380Y-59348476D02*
X35774380Y-59348476D01*
X35774380Y-58967523D01*
X35822000Y-58872285D01*
X35869619Y-58824666D01*
X35964857Y-58777047D01*
X36107714Y-58777047D01*
X36202952Y-58824666D01*
X36250571Y-58872285D01*
X36298190Y-58967523D01*
X36298190Y-59348476D01*
X36774380Y-57824666D02*
X36774380Y-58396095D01*
X36774380Y-58110380D02*
X35774380Y-58110380D01*
X35917238Y-58205619D01*
X36012476Y-58300857D01*
X36060095Y-58396095D01*
X35774380Y-57205619D02*
X35774380Y-57110380D01*
X35822000Y-57015142D01*
X35869619Y-56967523D01*
X35964857Y-56919904D01*
X36155333Y-56872285D01*
X36393428Y-56872285D01*
X36583904Y-56919904D01*
X36679142Y-56967523D01*
X36726761Y-57015142D01*
X36774380Y-57110380D01*
X36774380Y-57205619D01*
X36726761Y-57300857D01*
X36679142Y-57348476D01*
X36583904Y-57396095D01*
X36393428Y-57443714D01*
X36155333Y-57443714D01*
X35964857Y-57396095D01*
X35869619Y-57348476D01*
X35822000Y-57300857D01*
X35774380Y-57205619D01*
X36774380Y-56396095D02*
X36774380Y-56205619D01*
X36726761Y-56110380D01*
X36679142Y-56062761D01*
X36536285Y-55967523D01*
X36345809Y-55919904D01*
X35964857Y-55919904D01*
X35869619Y-55967523D01*
X35822000Y-56015142D01*
X35774380Y-56110380D01*
X35774380Y-56300857D01*
X35822000Y-56396095D01*
X35869619Y-56443714D01*
X35964857Y-56491333D01*
X36202952Y-56491333D01*
X36298190Y-56443714D01*
X36345809Y-56396095D01*
X36393428Y-56300857D01*
X36393428Y-56110380D01*
X36345809Y-56015142D01*
X36298190Y-55967523D01*
X36202952Y-55919904D01*
X39060380Y-57618285D02*
X39060380Y-58189714D01*
X39060380Y-57904000D02*
X38060380Y-57904000D01*
X38203238Y-57999238D01*
X38298476Y-58094476D01*
X38346095Y-58189714D01*
X39060380Y-57189714D02*
X38060380Y-57189714D01*
X39060380Y-56618285D02*
X38488952Y-57046857D01*
X38060380Y-56618285D02*
X38631809Y-57189714D01*
X41092380Y-58509047D02*
X40616190Y-58842380D01*
X41092380Y-59080476D02*
X40092380Y-59080476D01*
X40092380Y-58699523D01*
X40140000Y-58604285D01*
X40187619Y-58556666D01*
X40282857Y-58509047D01*
X40425714Y-58509047D01*
X40520952Y-58556666D01*
X40568571Y-58604285D01*
X40616190Y-58699523D01*
X40616190Y-59080476D01*
X41092380Y-57556666D02*
X41092380Y-58128095D01*
X41092380Y-57842380D02*
X40092380Y-57842380D01*
X40235238Y-57937619D01*
X40330476Y-58032857D01*
X40378095Y-58128095D01*
X41092380Y-56604285D02*
X41092380Y-57175714D01*
X41092380Y-56890000D02*
X40092380Y-56890000D01*
X40235238Y-56985238D01*
X40330476Y-57080476D01*
X40378095Y-57175714D01*
X40092380Y-55985238D02*
X40092380Y-55890000D01*
X40140000Y-55794761D01*
X40187619Y-55747142D01*
X40282857Y-55699523D01*
X40473333Y-55651904D01*
X40711428Y-55651904D01*
X40901904Y-55699523D01*
X40997142Y-55747142D01*
X41044761Y-55794761D01*
X41092380Y-55890000D01*
X41092380Y-55985238D01*
X41044761Y-56080476D01*
X40997142Y-56128095D01*
X40901904Y-56175714D01*
X40711428Y-56223333D01*
X40473333Y-56223333D01*
X40282857Y-56175714D01*
X40187619Y-56128095D01*
X40140000Y-56080476D01*
X40092380Y-55985238D01*
X42870380Y-57604285D02*
X42870380Y-58175714D01*
X42870380Y-57890000D02*
X41870380Y-57890000D01*
X42013238Y-57985238D01*
X42108476Y-58080476D01*
X42156095Y-58175714D01*
X42870380Y-57175714D02*
X41870380Y-57175714D01*
X42870380Y-56604285D02*
X42298952Y-57032857D01*
X41870380Y-56604285D02*
X42441809Y-57175714D01*
X53030380Y-58419047D02*
X52554190Y-58752380D01*
X53030380Y-58990476D02*
X52030380Y-58990476D01*
X52030380Y-58609523D01*
X52078000Y-58514285D01*
X52125619Y-58466666D01*
X52220857Y-58419047D01*
X52363714Y-58419047D01*
X52458952Y-58466666D01*
X52506571Y-58514285D01*
X52554190Y-58609523D01*
X52554190Y-58990476D01*
X53030380Y-57466666D02*
X53030380Y-58038095D01*
X53030380Y-57752380D02*
X52030380Y-57752380D01*
X52173238Y-57847619D01*
X52268476Y-57942857D01*
X52316095Y-58038095D01*
X53030380Y-56514285D02*
X53030380Y-57085714D01*
X53030380Y-56800000D02*
X52030380Y-56800000D01*
X52173238Y-56895238D01*
X52268476Y-56990476D01*
X52316095Y-57085714D01*
X53030380Y-55561904D02*
X53030380Y-56133333D01*
X53030380Y-55847619D02*
X52030380Y-55847619D01*
X52173238Y-55942857D01*
X52268476Y-56038095D01*
X52316095Y-56133333D01*
X55062380Y-57604285D02*
X55062380Y-58175714D01*
X55062380Y-57890000D02*
X54062380Y-57890000D01*
X54205238Y-57985238D01*
X54300476Y-58080476D01*
X54348095Y-58175714D01*
X55062380Y-57175714D02*
X54062380Y-57175714D01*
X55062380Y-56604285D02*
X54490952Y-57032857D01*
X54062380Y-56604285D02*
X54633809Y-57175714D01*
X57094380Y-58509047D02*
X56618190Y-58842380D01*
X57094380Y-59080476D02*
X56094380Y-59080476D01*
X56094380Y-58699523D01*
X56142000Y-58604285D01*
X56189619Y-58556666D01*
X56284857Y-58509047D01*
X56427714Y-58509047D01*
X56522952Y-58556666D01*
X56570571Y-58604285D01*
X56618190Y-58699523D01*
X56618190Y-59080476D01*
X57094380Y-57556666D02*
X57094380Y-58128095D01*
X57094380Y-57842380D02*
X56094380Y-57842380D01*
X56237238Y-57937619D01*
X56332476Y-58032857D01*
X56380095Y-58128095D01*
X57094380Y-56604285D02*
X57094380Y-57175714D01*
X57094380Y-56890000D02*
X56094380Y-56890000D01*
X56237238Y-56985238D01*
X56332476Y-57080476D01*
X56380095Y-57175714D01*
X56189619Y-56223333D02*
X56142000Y-56175714D01*
X56094380Y-56080476D01*
X56094380Y-55842380D01*
X56142000Y-55747142D01*
X56189619Y-55699523D01*
X56284857Y-55651904D01*
X56380095Y-55651904D01*
X56522952Y-55699523D01*
X57094380Y-56270952D01*
X57094380Y-55651904D01*
X59126380Y-57604285D02*
X59126380Y-58175714D01*
X59126380Y-57890000D02*
X58126380Y-57890000D01*
X58269238Y-57985238D01*
X58364476Y-58080476D01*
X58412095Y-58175714D01*
X59126380Y-57175714D02*
X58126380Y-57175714D01*
X59126380Y-56604285D02*
X58554952Y-57032857D01*
X58126380Y-56604285D02*
X58697809Y-57175714D01*
X46856664Y-97909047D02*
X46380474Y-98242380D01*
X46856664Y-98480476D02*
X45856664Y-98480476D01*
X45856664Y-98099523D01*
X45904284Y-98004285D01*
X45951903Y-97956666D01*
X46047141Y-97909047D01*
X46189998Y-97909047D01*
X46285236Y-97956666D01*
X46332855Y-98004285D01*
X46380474Y-98099523D01*
X46380474Y-98480476D01*
X46856664Y-96956666D02*
X46856664Y-97528095D01*
X46856664Y-97242380D02*
X45856664Y-97242380D01*
X45999522Y-97337619D01*
X46094760Y-97432857D01*
X46142379Y-97528095D01*
X46856664Y-96004285D02*
X46856664Y-96575714D01*
X46856664Y-96290000D02*
X45856664Y-96290000D01*
X45999522Y-96385238D01*
X46094760Y-96480476D01*
X46142379Y-96575714D01*
X45856664Y-95670952D02*
X45856664Y-95051904D01*
X46237617Y-95385238D01*
X46237617Y-95242380D01*
X46285236Y-95147142D01*
X46332855Y-95099523D01*
X46428093Y-95051904D01*
X46666188Y-95051904D01*
X46761426Y-95099523D01*
X46809045Y-95147142D01*
X46856664Y-95242380D01*
X46856664Y-95528095D01*
X46809045Y-95623333D01*
X46761426Y-95670952D01*
X49220380Y-96893047D02*
X49220380Y-97464476D01*
X49220380Y-97178761D02*
X48220380Y-97178761D01*
X48363238Y-97274000D01*
X48458476Y-97369238D01*
X48506095Y-97464476D01*
X49220380Y-96464476D02*
X48220380Y-96464476D01*
X48839428Y-96369238D02*
X49220380Y-96083523D01*
X48553714Y-96083523D02*
X48934666Y-96464476D01*
X56952380Y-98019047D02*
X56476190Y-98352380D01*
X56952380Y-98590476D02*
X55952380Y-98590476D01*
X55952380Y-98209523D01*
X56000000Y-98114285D01*
X56047619Y-98066666D01*
X56142857Y-98019047D01*
X56285714Y-98019047D01*
X56380952Y-98066666D01*
X56428571Y-98114285D01*
X56476190Y-98209523D01*
X56476190Y-98590476D01*
X56952380Y-97066666D02*
X56952380Y-97638095D01*
X56952380Y-97352380D02*
X55952380Y-97352380D01*
X56095238Y-97447619D01*
X56190476Y-97542857D01*
X56238095Y-97638095D01*
X56952380Y-96114285D02*
X56952380Y-96685714D01*
X56952380Y-96400000D02*
X55952380Y-96400000D01*
X56095238Y-96495238D01*
X56190476Y-96590476D01*
X56238095Y-96685714D01*
X56285714Y-95257142D02*
X56952380Y-95257142D01*
X55904761Y-95495238D02*
X56619047Y-95733333D01*
X56619047Y-95114285D01*
X59380380Y-97355238D02*
X59380380Y-97926666D01*
X59380380Y-97640952D02*
X58380380Y-97640952D01*
X58523238Y-97736190D01*
X58618476Y-97831428D01*
X58666095Y-97926666D01*
X58380380Y-96736190D02*
X58380380Y-96640952D01*
X58428000Y-96545714D01*
X58475619Y-96498095D01*
X58570857Y-96450476D01*
X58761333Y-96402857D01*
X58999428Y-96402857D01*
X59189904Y-96450476D01*
X59285142Y-96498095D01*
X59332761Y-96545714D01*
X59380380Y-96640952D01*
X59380380Y-96736190D01*
X59332761Y-96831428D01*
X59285142Y-96879047D01*
X59189904Y-96926666D01*
X58999428Y-96974285D01*
X58761333Y-96974285D01*
X58570857Y-96926666D01*
X58475619Y-96879047D01*
X58428000Y-96831428D01*
X58380380Y-96736190D01*
X59380380Y-95974285D02*
X58380380Y-95974285D01*
X58999428Y-95879047D02*
X59380380Y-95593333D01*
X58713714Y-95593333D02*
X59094666Y-95974285D01*
X51913806Y-97909047D02*
X51437616Y-98242380D01*
X51913806Y-98480476D02*
X50913806Y-98480476D01*
X50913806Y-98099523D01*
X50961426Y-98004285D01*
X51009045Y-97956666D01*
X51104283Y-97909047D01*
X51247140Y-97909047D01*
X51342378Y-97956666D01*
X51389997Y-98004285D01*
X51437616Y-98099523D01*
X51437616Y-98480476D01*
X51913806Y-96956666D02*
X51913806Y-97528095D01*
X51913806Y-97242380D02*
X50913806Y-97242380D01*
X51056664Y-97337619D01*
X51151902Y-97432857D01*
X51199521Y-97528095D01*
X51913806Y-96004285D02*
X51913806Y-96575714D01*
X51913806Y-96290000D02*
X50913806Y-96290000D01*
X51056664Y-96385238D01*
X51151902Y-96480476D01*
X51199521Y-96575714D01*
X50913806Y-95099523D02*
X50913806Y-95575714D01*
X51389997Y-95623333D01*
X51342378Y-95575714D01*
X51294759Y-95480476D01*
X51294759Y-95242380D01*
X51342378Y-95147142D01*
X51389997Y-95099523D01*
X51485235Y-95051904D01*
X51723330Y-95051904D01*
X51818568Y-95099523D01*
X51866187Y-95147142D01*
X51913806Y-95242380D01*
X51913806Y-95480476D01*
X51866187Y-95575714D01*
X51818568Y-95623333D01*
X54300380Y-97385238D02*
X54300380Y-97956666D01*
X54300380Y-97670952D02*
X53300380Y-97670952D01*
X53443238Y-97766190D01*
X53538476Y-97861428D01*
X53586095Y-97956666D01*
X53300380Y-96766190D02*
X53300380Y-96670952D01*
X53348000Y-96575714D01*
X53395619Y-96528095D01*
X53490857Y-96480476D01*
X53681333Y-96432857D01*
X53919428Y-96432857D01*
X54109904Y-96480476D01*
X54205142Y-96528095D01*
X54252761Y-96575714D01*
X54300380Y-96670952D01*
X54300380Y-96766190D01*
X54252761Y-96861428D01*
X54205142Y-96909047D01*
X54109904Y-96956666D01*
X53919428Y-97004285D01*
X53681333Y-97004285D01*
X53490857Y-96956666D01*
X53395619Y-96909047D01*
X53348000Y-96861428D01*
X53300380Y-96766190D01*
X54300380Y-96004285D02*
X53300380Y-96004285D01*
X53919428Y-95909047D02*
X54300380Y-95623333D01*
X53633714Y-95623333D02*
X54014666Y-96004285D01*
X72142380Y-97909047D02*
X71666190Y-98242380D01*
X72142380Y-98480476D02*
X71142380Y-98480476D01*
X71142380Y-98099523D01*
X71190000Y-98004285D01*
X71237619Y-97956666D01*
X71332857Y-97909047D01*
X71475714Y-97909047D01*
X71570952Y-97956666D01*
X71618571Y-98004285D01*
X71666190Y-98099523D01*
X71666190Y-98480476D01*
X72142380Y-96956666D02*
X72142380Y-97528095D01*
X72142380Y-97242380D02*
X71142380Y-97242380D01*
X71285238Y-97337619D01*
X71380476Y-97432857D01*
X71428095Y-97528095D01*
X72142380Y-96004285D02*
X72142380Y-96575714D01*
X72142380Y-96290000D02*
X71142380Y-96290000D01*
X71285238Y-96385238D01*
X71380476Y-96480476D01*
X71428095Y-96575714D01*
X71142380Y-95147142D02*
X71142380Y-95337619D01*
X71190000Y-95432857D01*
X71237619Y-95480476D01*
X71380476Y-95575714D01*
X71570952Y-95623333D01*
X71951904Y-95623333D01*
X72047142Y-95575714D01*
X72094761Y-95528095D01*
X72142380Y-95432857D01*
X72142380Y-95242380D01*
X72094761Y-95147142D01*
X72047142Y-95099523D01*
X71951904Y-95051904D01*
X71713809Y-95051904D01*
X71618571Y-95099523D01*
X71570952Y-95147142D01*
X71523333Y-95242380D01*
X71523333Y-95432857D01*
X71570952Y-95528095D01*
X71618571Y-95575714D01*
X71713809Y-95623333D01*
X74620380Y-96893047D02*
X74620380Y-97464476D01*
X74620380Y-97178761D02*
X73620380Y-97178761D01*
X73763238Y-97274000D01*
X73858476Y-97369238D01*
X73906095Y-97464476D01*
X74620380Y-96464476D02*
X73620380Y-96464476D01*
X74239428Y-96369238D02*
X74620380Y-96083523D01*
X73953714Y-96083523D02*
X74334666Y-96464476D01*
X62052380Y-97819047D02*
X61576190Y-98152380D01*
X62052380Y-98390476D02*
X61052380Y-98390476D01*
X61052380Y-98009523D01*
X61100000Y-97914285D01*
X61147619Y-97866666D01*
X61242857Y-97819047D01*
X61385714Y-97819047D01*
X61480952Y-97866666D01*
X61528571Y-97914285D01*
X61576190Y-98009523D01*
X61576190Y-98390476D01*
X62052380Y-96866666D02*
X62052380Y-97438095D01*
X62052380Y-97152380D02*
X61052380Y-97152380D01*
X61195238Y-97247619D01*
X61290476Y-97342857D01*
X61338095Y-97438095D01*
X62052380Y-95914285D02*
X62052380Y-96485714D01*
X62052380Y-96200000D02*
X61052380Y-96200000D01*
X61195238Y-96295238D01*
X61290476Y-96390476D01*
X61338095Y-96485714D01*
X61052380Y-95580952D02*
X61052380Y-94914285D01*
X62052380Y-95342857D01*
X64460380Y-97369238D02*
X64460380Y-97940666D01*
X64460380Y-97654952D02*
X63460380Y-97654952D01*
X63603238Y-97750190D01*
X63698476Y-97845428D01*
X63746095Y-97940666D01*
X63460380Y-96750190D02*
X63460380Y-96654952D01*
X63508000Y-96559714D01*
X63555619Y-96512095D01*
X63650857Y-96464476D01*
X63841333Y-96416857D01*
X64079428Y-96416857D01*
X64269904Y-96464476D01*
X64365142Y-96512095D01*
X64412761Y-96559714D01*
X64460380Y-96654952D01*
X64460380Y-96750190D01*
X64412761Y-96845428D01*
X64365142Y-96893047D01*
X64269904Y-96940666D01*
X64079428Y-96988285D01*
X63841333Y-96988285D01*
X63650857Y-96940666D01*
X63555619Y-96893047D01*
X63508000Y-96845428D01*
X63460380Y-96750190D01*
X64460380Y-95988285D02*
X63460380Y-95988285D01*
X64079428Y-95893047D02*
X64460380Y-95607333D01*
X63793714Y-95607333D02*
X64174666Y-95988285D01*
X67085232Y-97909047D02*
X66609042Y-98242380D01*
X67085232Y-98480476D02*
X66085232Y-98480476D01*
X66085232Y-98099523D01*
X66132852Y-98004285D01*
X66180471Y-97956666D01*
X66275709Y-97909047D01*
X66418566Y-97909047D01*
X66513804Y-97956666D01*
X66561423Y-98004285D01*
X66609042Y-98099523D01*
X66609042Y-98480476D01*
X67085232Y-96956666D02*
X67085232Y-97528095D01*
X67085232Y-97242380D02*
X66085232Y-97242380D01*
X66228090Y-97337619D01*
X66323328Y-97432857D01*
X66370947Y-97528095D01*
X67085232Y-96004285D02*
X67085232Y-96575714D01*
X67085232Y-96290000D02*
X66085232Y-96290000D01*
X66228090Y-96385238D01*
X66323328Y-96480476D01*
X66370947Y-96575714D01*
X66513804Y-95432857D02*
X66466185Y-95528095D01*
X66418566Y-95575714D01*
X66323328Y-95623333D01*
X66275709Y-95623333D01*
X66180471Y-95575714D01*
X66132852Y-95528095D01*
X66085232Y-95432857D01*
X66085232Y-95242380D01*
X66132852Y-95147142D01*
X66180471Y-95099523D01*
X66275709Y-95051904D01*
X66323328Y-95051904D01*
X66418566Y-95099523D01*
X66466185Y-95147142D01*
X66513804Y-95242380D01*
X66513804Y-95432857D01*
X66561423Y-95528095D01*
X66609042Y-95575714D01*
X66704280Y-95623333D01*
X66894756Y-95623333D01*
X66989994Y-95575714D01*
X67037613Y-95528095D01*
X67085232Y-95432857D01*
X67085232Y-95242380D01*
X67037613Y-95147142D01*
X66989994Y-95099523D01*
X66894756Y-95051904D01*
X66704280Y-95051904D01*
X66609042Y-95099523D01*
X66561423Y-95147142D01*
X66513804Y-95242380D01*
X69540380Y-97369238D02*
X69540380Y-97940666D01*
X69540380Y-97654952D02*
X68540380Y-97654952D01*
X68683238Y-97750190D01*
X68778476Y-97845428D01*
X68826095Y-97940666D01*
X68540380Y-96750190D02*
X68540380Y-96654952D01*
X68588000Y-96559714D01*
X68635619Y-96512095D01*
X68730857Y-96464476D01*
X68921333Y-96416857D01*
X69159428Y-96416857D01*
X69349904Y-96464476D01*
X69445142Y-96512095D01*
X69492761Y-96559714D01*
X69540380Y-96654952D01*
X69540380Y-96750190D01*
X69492761Y-96845428D01*
X69445142Y-96893047D01*
X69349904Y-96940666D01*
X69159428Y-96988285D01*
X68921333Y-96988285D01*
X68730857Y-96940666D01*
X68635619Y-96893047D01*
X68588000Y-96845428D01*
X68540380Y-96750190D01*
X69540380Y-95988285D02*
X68540380Y-95988285D01*
X69159428Y-95893047D02*
X69540380Y-95607333D01*
X68873714Y-95607333D02*
X69254666Y-95988285D01*
X78192380Y-57340285D02*
X79001904Y-57340285D01*
X79097142Y-57292666D01*
X79144761Y-57245047D01*
X79192380Y-57149809D01*
X79192380Y-56959333D01*
X79144761Y-56864095D01*
X79097142Y-56816476D01*
X79001904Y-56768857D01*
X78192380Y-56768857D01*
X79192380Y-55768857D02*
X79192380Y-56340285D01*
X79192380Y-56054571D02*
X78192380Y-56054571D01*
X78335238Y-56149809D01*
X78430476Y-56245047D01*
X78478095Y-56340285D01*
X78192380Y-55149809D02*
X78192380Y-55054571D01*
X78240000Y-54959333D01*
X78287619Y-54911714D01*
X78382857Y-54864095D01*
X78573333Y-54816476D01*
X78811428Y-54816476D01*
X79001904Y-54864095D01*
X79097142Y-54911714D01*
X79144761Y-54959333D01*
X79192380Y-55054571D01*
X79192380Y-55149809D01*
X79144761Y-55245047D01*
X79097142Y-55292666D01*
X79001904Y-55340285D01*
X78811428Y-55387904D01*
X78573333Y-55387904D01*
X78382857Y-55340285D01*
X78287619Y-55292666D01*
X78240000Y-55245047D01*
X78192380Y-55149809D01*
X79192380Y-53864095D02*
X79192380Y-54435523D01*
X79192380Y-54149809D02*
X78192380Y-54149809D01*
X78335238Y-54245047D01*
X78430476Y-54340285D01*
X78478095Y-54435523D01*
X79192380Y-63571238D02*
X79192380Y-64047428D01*
X78192380Y-64047428D01*
X78192380Y-63333142D02*
X78192380Y-62666476D01*
X79192380Y-63095047D01*
X78620952Y-62142666D02*
X78573333Y-62237904D01*
X78525714Y-62285523D01*
X78430476Y-62333142D01*
X78382857Y-62333142D01*
X78287619Y-62285523D01*
X78240000Y-62237904D01*
X78192380Y-62142666D01*
X78192380Y-61952190D01*
X78240000Y-61856952D01*
X78287619Y-61809333D01*
X78382857Y-61761714D01*
X78430476Y-61761714D01*
X78525714Y-61809333D01*
X78573333Y-61856952D01*
X78620952Y-61952190D01*
X78620952Y-62142666D01*
X78668571Y-62237904D01*
X78716190Y-62285523D01*
X78811428Y-62333142D01*
X79001904Y-62333142D01*
X79097142Y-62285523D01*
X79144761Y-62237904D01*
X79192380Y-62142666D01*
X79192380Y-61952190D01*
X79144761Y-61856952D01*
X79097142Y-61809333D01*
X79001904Y-61761714D01*
X78811428Y-61761714D01*
X78716190Y-61809333D01*
X78668571Y-61856952D01*
X78620952Y-61952190D01*
X78192380Y-61142666D02*
X78192380Y-61047428D01*
X78240000Y-60952190D01*
X78287619Y-60904571D01*
X78382857Y-60856952D01*
X78573333Y-60809333D01*
X78811428Y-60809333D01*
X79001904Y-60856952D01*
X79097142Y-60904571D01*
X79144761Y-60952190D01*
X79192380Y-61047428D01*
X79192380Y-61142666D01*
X79144761Y-61237904D01*
X79097142Y-61285523D01*
X79001904Y-61333142D01*
X78811428Y-61380761D01*
X78573333Y-61380761D01*
X78382857Y-61333142D01*
X78287619Y-61285523D01*
X78240000Y-61237904D01*
X78192380Y-61142666D01*
X78192380Y-59904571D02*
X78192380Y-60380761D01*
X78668571Y-60428380D01*
X78620952Y-60380761D01*
X78573333Y-60285523D01*
X78573333Y-60047428D01*
X78620952Y-59952190D01*
X78668571Y-59904571D01*
X78763809Y-59856952D01*
X79001904Y-59856952D01*
X79097142Y-59904571D01*
X79144761Y-59952190D01*
X79192380Y-60047428D01*
X79192380Y-60285523D01*
X79144761Y-60380761D01*
X79097142Y-60428380D01*
X34758380Y-55214285D02*
X35567904Y-55214285D01*
X35663142Y-55166666D01*
X35710761Y-55119047D01*
X35758380Y-55023809D01*
X35758380Y-54833333D01*
X35710761Y-54738095D01*
X35663142Y-54690476D01*
X35567904Y-54642857D01*
X34758380Y-54642857D01*
X35758380Y-53642857D02*
X35758380Y-54214285D01*
X35758380Y-53928571D02*
X34758380Y-53928571D01*
X34901238Y-54023809D01*
X34996476Y-54119047D01*
X35044095Y-54214285D01*
X34758380Y-53023809D02*
X34758380Y-52928571D01*
X34806000Y-52833333D01*
X34853619Y-52785714D01*
X34948857Y-52738095D01*
X35139333Y-52690476D01*
X35377428Y-52690476D01*
X35567904Y-52738095D01*
X35663142Y-52785714D01*
X35710761Y-52833333D01*
X35758380Y-52928571D01*
X35758380Y-53023809D01*
X35710761Y-53119047D01*
X35663142Y-53166666D01*
X35567904Y-53214285D01*
X35377428Y-53261904D01*
X35139333Y-53261904D01*
X34948857Y-53214285D01*
X34853619Y-53166666D01*
X34806000Y-53119047D01*
X34758380Y-53023809D01*
X35091714Y-51833333D02*
X35758380Y-51833333D01*
X34710761Y-52071428D02*
X35425047Y-52309523D01*
X35425047Y-51690476D01*
X33452380Y-58285714D02*
X34452380Y-58047619D01*
X33738095Y-57857142D01*
X34452380Y-57666666D01*
X33452380Y-57428571D01*
X33547619Y-57095238D02*
X33500000Y-57047619D01*
X33452380Y-56952380D01*
X33452380Y-56714285D01*
X33500000Y-56619047D01*
X33547619Y-56571428D01*
X33642857Y-56523809D01*
X33738095Y-56523809D01*
X33880952Y-56571428D01*
X34452380Y-57142857D01*
X34452380Y-56523809D01*
X33452380Y-55619047D02*
X33452380Y-56095238D01*
X33928571Y-56142857D01*
X33880952Y-56095238D01*
X33833333Y-56000000D01*
X33833333Y-55761904D01*
X33880952Y-55666666D01*
X33928571Y-55619047D01*
X34023809Y-55571428D01*
X34261904Y-55571428D01*
X34357142Y-55619047D01*
X34404761Y-55666666D01*
X34452380Y-55761904D01*
X34452380Y-56000000D01*
X34404761Y-56095238D01*
X34357142Y-56142857D01*
X34547619Y-54476190D02*
X34500000Y-54571428D01*
X34404761Y-54666666D01*
X34261904Y-54809523D01*
X34214285Y-54904761D01*
X34214285Y-55000000D01*
X34452380Y-54952380D02*
X34404761Y-55047619D01*
X34309523Y-55142857D01*
X34119047Y-55190476D01*
X33785714Y-55190476D01*
X33595238Y-55142857D01*
X33500000Y-55047619D01*
X33452380Y-54952380D01*
X33452380Y-54761904D01*
X33500000Y-54666666D01*
X33595238Y-54571428D01*
X33785714Y-54523809D01*
X34119047Y-54523809D01*
X34309523Y-54571428D01*
X34404761Y-54666666D01*
X34452380Y-54761904D01*
X34452380Y-54952380D01*
X33880952Y-53952380D02*
X33833333Y-54047619D01*
X33785714Y-54095238D01*
X33690476Y-54142857D01*
X33642857Y-54142857D01*
X33547619Y-54095238D01*
X33500000Y-54047619D01*
X33452380Y-53952380D01*
X33452380Y-53761904D01*
X33500000Y-53666666D01*
X33547619Y-53619047D01*
X33642857Y-53571428D01*
X33690476Y-53571428D01*
X33785714Y-53619047D01*
X33833333Y-53666666D01*
X33880952Y-53761904D01*
X33880952Y-53952380D01*
X33928571Y-54047619D01*
X33976190Y-54095238D01*
X34071428Y-54142857D01*
X34261904Y-54142857D01*
X34357142Y-54095238D01*
X34404761Y-54047619D01*
X34452380Y-53952380D01*
X34452380Y-53761904D01*
X34404761Y-53666666D01*
X34357142Y-53619047D01*
X34261904Y-53571428D01*
X34071428Y-53571428D01*
X33976190Y-53619047D01*
X33928571Y-53666666D01*
X33880952Y-53761904D01*
X33452380Y-52952380D02*
X33452380Y-52857142D01*
X33500000Y-52761904D01*
X33547619Y-52714285D01*
X33642857Y-52666666D01*
X33833333Y-52619047D01*
X34071428Y-52619047D01*
X34261904Y-52666666D01*
X34357142Y-52714285D01*
X34404761Y-52761904D01*
X34452380Y-52857142D01*
X34452380Y-52952380D01*
X34404761Y-53047619D01*
X34357142Y-53095238D01*
X34261904Y-53142857D01*
X34071428Y-53190476D01*
X33833333Y-53190476D01*
X33642857Y-53142857D01*
X33547619Y-53095238D01*
X33500000Y-53047619D01*
X33452380Y-52952380D01*
X34452380Y-52190476D02*
X33452380Y-52190476D01*
X33452380Y-51952380D01*
X33500000Y-51809523D01*
X33595238Y-51714285D01*
X33690476Y-51666666D01*
X33880952Y-51619047D01*
X34023809Y-51619047D01*
X34214285Y-51666666D01*
X34309523Y-51714285D01*
X34404761Y-51809523D01*
X34452380Y-51952380D01*
X34452380Y-52190476D01*
X33452380Y-51333333D02*
X34452380Y-51000000D01*
X33452380Y-50666666D01*
X34404761Y-50380952D02*
X34452380Y-50238095D01*
X34452380Y-50000000D01*
X34404761Y-49904761D01*
X34357142Y-49857142D01*
X34261904Y-49809523D01*
X34166666Y-49809523D01*
X34071428Y-49857142D01*
X34023809Y-49904761D01*
X33976190Y-50000000D01*
X33928571Y-50190476D01*
X33880952Y-50285714D01*
X33833333Y-50333333D01*
X33738095Y-50380952D01*
X33642857Y-50380952D01*
X33547619Y-50333333D01*
X33500000Y-50285714D01*
X33452380Y-50190476D01*
X33452380Y-49952380D01*
X33500000Y-49809523D01*
X34452380Y-49380952D02*
X33452380Y-49380952D01*
X34452380Y-48809523D01*
X33452380Y-48809523D01*
X93682380Y-82424285D02*
X94491904Y-82424285D01*
X94587142Y-82376666D01*
X94634761Y-82329047D01*
X94682380Y-82233809D01*
X94682380Y-82043333D01*
X94634761Y-81948095D01*
X94587142Y-81900476D01*
X94491904Y-81852857D01*
X93682380Y-81852857D01*
X94682380Y-80852857D02*
X94682380Y-81424285D01*
X94682380Y-81138571D02*
X93682380Y-81138571D01*
X93825238Y-81233809D01*
X93920476Y-81329047D01*
X93968095Y-81424285D01*
X93682380Y-80233809D02*
X93682380Y-80138571D01*
X93730000Y-80043333D01*
X93777619Y-79995714D01*
X93872857Y-79948095D01*
X94063333Y-79900476D01*
X94301428Y-79900476D01*
X94491904Y-79948095D01*
X94587142Y-79995714D01*
X94634761Y-80043333D01*
X94682380Y-80138571D01*
X94682380Y-80233809D01*
X94634761Y-80329047D01*
X94587142Y-80376666D01*
X94491904Y-80424285D01*
X94301428Y-80471904D01*
X94063333Y-80471904D01*
X93872857Y-80424285D01*
X93777619Y-80376666D01*
X93730000Y-80329047D01*
X93682380Y-80233809D01*
X93682380Y-78995714D02*
X93682380Y-79471904D01*
X94158571Y-79519523D01*
X94110952Y-79471904D01*
X94063333Y-79376666D01*
X94063333Y-79138571D01*
X94110952Y-79043333D01*
X94158571Y-78995714D01*
X94253809Y-78948095D01*
X94491904Y-78948095D01*
X94587142Y-78995714D01*
X94634761Y-79043333D01*
X94682380Y-79138571D01*
X94682380Y-79376666D01*
X94634761Y-79471904D01*
X94587142Y-79519523D01*
X85764952Y-80224380D02*
X86336380Y-80224380D01*
X86050666Y-81224380D02*
X86050666Y-80224380D01*
X87145904Y-81224380D02*
X86669714Y-81224380D01*
X86669714Y-80224380D01*
X87669714Y-80224380D02*
X87764952Y-80224380D01*
X87860190Y-80272000D01*
X87907809Y-80319619D01*
X87955428Y-80414857D01*
X88003047Y-80605333D01*
X88003047Y-80843428D01*
X87955428Y-81033904D01*
X87907809Y-81129142D01*
X87860190Y-81176761D01*
X87764952Y-81224380D01*
X87669714Y-81224380D01*
X87574476Y-81176761D01*
X87526857Y-81129142D01*
X87479238Y-81033904D01*
X87431619Y-80843428D01*
X87431619Y-80605333D01*
X87479238Y-80414857D01*
X87526857Y-80319619D01*
X87574476Y-80272000D01*
X87669714Y-80224380D01*
X88336380Y-80224380D02*
X89003047Y-80224380D01*
X88574476Y-81224380D01*
X89336380Y-80319619D02*
X89384000Y-80272000D01*
X89479238Y-80224380D01*
X89717333Y-80224380D01*
X89812571Y-80272000D01*
X89860190Y-80319619D01*
X89907809Y-80414857D01*
X89907809Y-80510095D01*
X89860190Y-80652952D01*
X89288761Y-81224380D01*
X89907809Y-81224380D01*
X44121428Y-74501190D02*
X44121428Y-74977380D01*
X43788095Y-73977380D02*
X44121428Y-74501190D01*
X44454761Y-73977380D01*
X45311904Y-74977380D02*
X44740476Y-74977380D01*
X45026190Y-74977380D02*
X45026190Y-73977380D01*
X44930952Y-74120238D01*
X44835714Y-74215476D01*
X44740476Y-74263095D01*
X45930952Y-73977380D02*
X46026190Y-73977380D01*
X46121428Y-74025000D01*
X46169047Y-74072619D01*
X46216666Y-74167857D01*
X46264285Y-74358333D01*
X46264285Y-74596428D01*
X46216666Y-74786904D01*
X46169047Y-74882142D01*
X46121428Y-74929761D01*
X46026190Y-74977380D01*
X45930952Y-74977380D01*
X45835714Y-74929761D01*
X45788095Y-74882142D01*
X45740476Y-74786904D01*
X45692857Y-74596428D01*
X45692857Y-74358333D01*
X45740476Y-74167857D01*
X45788095Y-74072619D01*
X45835714Y-74025000D01*
X45930952Y-73977380D01*
X47216666Y-74977380D02*
X46645238Y-74977380D01*
X46930952Y-74977380D02*
X46930952Y-73977380D01*
X46835714Y-74120238D01*
X46740476Y-74215476D01*
X46645238Y-74263095D01*
X43680285Y-70048380D02*
X43108857Y-70048380D01*
X43394571Y-70048380D02*
X43394571Y-69048380D01*
X43299333Y-69191238D01*
X43204095Y-69286476D01*
X43108857Y-69334095D01*
X44537428Y-69048380D02*
X44346952Y-69048380D01*
X44251714Y-69096000D01*
X44204095Y-69143619D01*
X44108857Y-69286476D01*
X44061238Y-69476952D01*
X44061238Y-69857904D01*
X44108857Y-69953142D01*
X44156476Y-70000761D01*
X44251714Y-70048380D01*
X44442190Y-70048380D01*
X44537428Y-70000761D01*
X44585047Y-69953142D01*
X44632666Y-69857904D01*
X44632666Y-69619809D01*
X44585047Y-69524571D01*
X44537428Y-69476952D01*
X44442190Y-69429333D01*
X44251714Y-69429333D01*
X44156476Y-69476952D01*
X44108857Y-69524571D01*
X44061238Y-69619809D01*
X45061238Y-70048380D02*
X45061238Y-69381714D01*
X45061238Y-69476952D02*
X45108857Y-69429333D01*
X45204095Y-69381714D01*
X45346952Y-69381714D01*
X45442190Y-69429333D01*
X45489809Y-69524571D01*
X45489809Y-70048380D01*
X45489809Y-69524571D02*
X45537428Y-69429333D01*
X45632666Y-69381714D01*
X45775523Y-69381714D01*
X45870761Y-69429333D01*
X45918380Y-69524571D01*
X45918380Y-70048380D01*
X46394571Y-70048380D02*
X46394571Y-69048380D01*
X46394571Y-69524571D02*
X46966000Y-69524571D01*
X46966000Y-70048380D02*
X46966000Y-69048380D01*
X47346952Y-69381714D02*
X47870761Y-69381714D01*
X47346952Y-70048380D01*
X47870761Y-70048380D01*
M02*
