G04 #@! TF.GenerationSoftware,KiCad,Pcbnew,(5.1.2)-1*
G04 #@! TF.CreationDate,2019-12-10T17:53:54-08:00*
G04 #@! TF.ProjectId,kicad-cpu-board,6b696361-642d-4637-9075-2d626f617264,rev?*
G04 #@! TF.SameCoordinates,Original*
G04 #@! TF.FileFunction,Legend,Top*
G04 #@! TF.FilePolarity,Positive*
%FSLAX46Y46*%
G04 Gerber Fmt 4.6, Leading zero omitted, Abs format (unit mm)*
G04 Created by KiCad (PCBNEW (5.1.2)-1) date 2019-12-10 17:53:54*
%MOMM*%
%LPD*%
G04 APERTURE LIST*
%ADD10C,0.200000*%
%ADD11C,0.300000*%
%ADD12C,0.120000*%
%ADD13C,0.150000*%
G04 APERTURE END LIST*
D10*
X85500000Y-108500000D02*
X85500000Y-103500000D01*
X76928571Y-106952380D02*
X76595238Y-106476190D01*
X76357142Y-106952380D02*
X76357142Y-105952380D01*
X76738095Y-105952380D01*
X76833333Y-106000000D01*
X76880952Y-106047619D01*
X76928571Y-106142857D01*
X76928571Y-106285714D01*
X76880952Y-106380952D01*
X76833333Y-106428571D01*
X76738095Y-106476190D01*
X76357142Y-106476190D01*
X77357142Y-106428571D02*
X77690476Y-106428571D01*
X77833333Y-106952380D02*
X77357142Y-106952380D01*
X77357142Y-105952380D01*
X77833333Y-105952380D01*
X78261904Y-106952380D02*
X78261904Y-105952380D01*
X78500000Y-105952380D01*
X78642857Y-106000000D01*
X78738095Y-106095238D01*
X78785714Y-106190476D01*
X78833333Y-106380952D01*
X78833333Y-106523809D01*
X78785714Y-106714285D01*
X78738095Y-106809523D01*
X78642857Y-106904761D01*
X78500000Y-106952380D01*
X78261904Y-106952380D01*
X79976190Y-106904761D02*
X80119047Y-106952380D01*
X80357142Y-106952380D01*
X80452380Y-106904761D01*
X80500000Y-106857142D01*
X80547619Y-106761904D01*
X80547619Y-106666666D01*
X80500000Y-106571428D01*
X80452380Y-106523809D01*
X80357142Y-106476190D01*
X80166666Y-106428571D01*
X80071428Y-106380952D01*
X80023809Y-106333333D01*
X79976190Y-106238095D01*
X79976190Y-106142857D01*
X80023809Y-106047619D01*
X80071428Y-106000000D01*
X80166666Y-105952380D01*
X80404761Y-105952380D01*
X80547619Y-106000000D01*
X80833333Y-105952380D02*
X81404761Y-105952380D01*
X81119047Y-106952380D02*
X81119047Y-105952380D01*
X82309523Y-106952380D02*
X81976190Y-106476190D01*
X81738095Y-106952380D02*
X81738095Y-105952380D01*
X82119047Y-105952380D01*
X82214285Y-106000000D01*
X82261904Y-106047619D01*
X82309523Y-106142857D01*
X82309523Y-106285714D01*
X82261904Y-106380952D01*
X82214285Y-106428571D01*
X82119047Y-106476190D01*
X81738095Y-106476190D01*
X82738095Y-106952380D02*
X82738095Y-105952380D01*
X83214285Y-106952380D02*
X83214285Y-105952380D01*
X83595238Y-105952380D01*
X83690476Y-106000000D01*
X83738095Y-106047619D01*
X83785714Y-106142857D01*
X83785714Y-106285714D01*
X83738095Y-106380952D01*
X83690476Y-106428571D01*
X83595238Y-106476190D01*
X83214285Y-106476190D01*
X84214285Y-106428571D02*
X84547619Y-106428571D01*
X84690476Y-106952380D02*
X84214285Y-106952380D01*
X84214285Y-105952380D01*
X84690476Y-105952380D01*
D11*
X79357142Y-104607142D02*
X80500000Y-104607142D01*
X82000000Y-105178571D02*
X81142857Y-105178571D01*
X81571428Y-105178571D02*
X81571428Y-103678571D01*
X81428571Y-103892857D01*
X81285714Y-104035714D01*
X81142857Y-104107142D01*
X82571428Y-103821428D02*
X82642857Y-103750000D01*
X82785714Y-103678571D01*
X83142857Y-103678571D01*
X83285714Y-103750000D01*
X83357142Y-103821428D01*
X83428571Y-103964285D01*
X83428571Y-104107142D01*
X83357142Y-104321428D01*
X82500000Y-105178571D01*
X83428571Y-105178571D01*
X83857142Y-103678571D02*
X84357142Y-105178571D01*
X84857142Y-103678571D01*
X21221428Y-72000000D02*
X21221428Y-71714285D01*
X21150000Y-71571428D01*
X21078571Y-71500000D01*
X20864285Y-71357142D01*
X20578571Y-71285714D01*
X20007142Y-71285714D01*
X19864285Y-71357142D01*
X19792857Y-71428571D01*
X19721428Y-71571428D01*
X19721428Y-71857142D01*
X19792857Y-72000000D01*
X19864285Y-72071428D01*
X20007142Y-72142857D01*
X20364285Y-72142857D01*
X20507142Y-72071428D01*
X20578571Y-72000000D01*
X20650000Y-71857142D01*
X20650000Y-71571428D01*
X20578571Y-71428571D01*
X20507142Y-71357142D01*
X20364285Y-71285714D01*
X19721428Y-72857142D02*
X19721428Y-73142857D01*
X19792857Y-73285714D01*
X19864285Y-73357142D01*
X20078571Y-73500000D01*
X20364285Y-73571428D01*
X20935714Y-73571428D01*
X21078571Y-73500000D01*
X21150000Y-73428571D01*
X21221428Y-73285714D01*
X21221428Y-73000000D01*
X21150000Y-72857142D01*
X21078571Y-72785714D01*
X20935714Y-72714285D01*
X20578571Y-72714285D01*
X20435714Y-72785714D01*
X20364285Y-72857142D01*
X20292857Y-73000000D01*
X20292857Y-73285714D01*
X20364285Y-73428571D01*
X20435714Y-73500000D01*
X20578571Y-73571428D01*
X19864285Y-74214285D02*
X19792857Y-74285714D01*
X19721428Y-74214285D01*
X19792857Y-74142857D01*
X19864285Y-74214285D01*
X19721428Y-74214285D01*
X21221428Y-75214285D02*
X21221428Y-75357142D01*
X21150000Y-75500000D01*
X21078571Y-75571428D01*
X20935714Y-75642857D01*
X20650000Y-75714285D01*
X20292857Y-75714285D01*
X20007142Y-75642857D01*
X19864285Y-75571428D01*
X19792857Y-75500000D01*
X19721428Y-75357142D01*
X19721428Y-75214285D01*
X19792857Y-75071428D01*
X19864285Y-75000000D01*
X20007142Y-74928571D01*
X20292857Y-74857142D01*
X20650000Y-74857142D01*
X20935714Y-74928571D01*
X21078571Y-75000000D01*
X21150000Y-75071428D01*
X21221428Y-75214285D01*
X21221428Y-76642857D02*
X21221428Y-76785714D01*
X21150000Y-76928571D01*
X21078571Y-77000000D01*
X20935714Y-77071428D01*
X20650000Y-77142857D01*
X20292857Y-77142857D01*
X20007142Y-77071428D01*
X19864285Y-77000000D01*
X19792857Y-76928571D01*
X19721428Y-76785714D01*
X19721428Y-76642857D01*
X19792857Y-76500000D01*
X19864285Y-76428571D01*
X20007142Y-76357142D01*
X20292857Y-76285714D01*
X20650000Y-76285714D01*
X20935714Y-76357142D01*
X21078571Y-76428571D01*
X21150000Y-76500000D01*
X21221428Y-76642857D01*
X21221428Y-78071428D02*
X21221428Y-78214285D01*
X21150000Y-78357142D01*
X21078571Y-78428571D01*
X20935714Y-78500000D01*
X20650000Y-78571428D01*
X20292857Y-78571428D01*
X20007142Y-78500000D01*
X19864285Y-78428571D01*
X19792857Y-78357142D01*
X19721428Y-78214285D01*
X19721428Y-78071428D01*
X19792857Y-77928571D01*
X19864285Y-77857142D01*
X20007142Y-77785714D01*
X20292857Y-77714285D01*
X20650000Y-77714285D01*
X20935714Y-77785714D01*
X21078571Y-77857142D01*
X21150000Y-77928571D01*
X21221428Y-78071428D01*
X19721428Y-80357142D02*
X20721428Y-80357142D01*
X20578571Y-80357142D02*
X20650000Y-80428571D01*
X20721428Y-80571428D01*
X20721428Y-80785714D01*
X20650000Y-80928571D01*
X20507142Y-81000000D01*
X19721428Y-81000000D01*
X20507142Y-81000000D02*
X20650000Y-81071428D01*
X20721428Y-81214285D01*
X20721428Y-81428571D01*
X20650000Y-81571428D01*
X20507142Y-81642857D01*
X19721428Y-81642857D01*
X19721428Y-82357142D02*
X20721428Y-82357142D01*
X20578571Y-82357142D02*
X20650000Y-82428571D01*
X20721428Y-82571428D01*
X20721428Y-82785714D01*
X20650000Y-82928571D01*
X20507142Y-83000000D01*
X19721428Y-83000000D01*
X20507142Y-83000000D02*
X20650000Y-83071428D01*
X20721428Y-83214285D01*
X20721428Y-83428571D01*
X20650000Y-83571428D01*
X20507142Y-83642857D01*
X19721428Y-83642857D01*
X22500000Y-43000000D02*
X22500000Y-112000000D01*
X24000000Y-43000000D02*
X21913579Y-43000000D01*
X24000000Y-112000000D02*
X21913579Y-112000000D01*
X22500000Y-112000000D02*
X21913579Y-110873496D01*
X22500000Y-112000000D02*
X23086421Y-110873496D01*
X22500000Y-43000000D02*
X21913579Y-44126504D01*
X22500000Y-43000000D02*
X23086421Y-44126504D01*
X56964285Y-37078571D02*
X57964285Y-37078571D01*
X57321428Y-38578571D01*
X58750000Y-37721428D02*
X58607142Y-37650000D01*
X58535714Y-37578571D01*
X58464285Y-37435714D01*
X58464285Y-37364285D01*
X58535714Y-37221428D01*
X58607142Y-37150000D01*
X58750000Y-37078571D01*
X59035714Y-37078571D01*
X59178571Y-37150000D01*
X59250000Y-37221428D01*
X59321428Y-37364285D01*
X59321428Y-37435714D01*
X59250000Y-37578571D01*
X59178571Y-37650000D01*
X59035714Y-37721428D01*
X58750000Y-37721428D01*
X58607142Y-37792857D01*
X58535714Y-37864285D01*
X58464285Y-38007142D01*
X58464285Y-38292857D01*
X58535714Y-38435714D01*
X58607142Y-38507142D01*
X58750000Y-38578571D01*
X59035714Y-38578571D01*
X59178571Y-38507142D01*
X59250000Y-38435714D01*
X59321428Y-38292857D01*
X59321428Y-38007142D01*
X59250000Y-37864285D01*
X59178571Y-37792857D01*
X59035714Y-37721428D01*
X59964285Y-38435714D02*
X60035714Y-38507142D01*
X59964285Y-38578571D01*
X59892857Y-38507142D01*
X59964285Y-38435714D01*
X59964285Y-38578571D01*
X61392857Y-37078571D02*
X60678571Y-37078571D01*
X60607142Y-37792857D01*
X60678571Y-37721428D01*
X60821428Y-37650000D01*
X61178571Y-37650000D01*
X61321428Y-37721428D01*
X61392857Y-37792857D01*
X61464285Y-37935714D01*
X61464285Y-38292857D01*
X61392857Y-38435714D01*
X61321428Y-38507142D01*
X61178571Y-38578571D01*
X60821428Y-38578571D01*
X60678571Y-38507142D01*
X60607142Y-38435714D01*
X62392857Y-37078571D02*
X62535714Y-37078571D01*
X62678571Y-37150000D01*
X62750000Y-37221428D01*
X62821428Y-37364285D01*
X62892857Y-37650000D01*
X62892857Y-38007142D01*
X62821428Y-38292857D01*
X62750000Y-38435714D01*
X62678571Y-38507142D01*
X62535714Y-38578571D01*
X62392857Y-38578571D01*
X62250000Y-38507142D01*
X62178571Y-38435714D01*
X62107142Y-38292857D01*
X62035714Y-38007142D01*
X62035714Y-37650000D01*
X62107142Y-37364285D01*
X62178571Y-37221428D01*
X62250000Y-37150000D01*
X62392857Y-37078571D01*
X63821428Y-37078571D02*
X63964285Y-37078571D01*
X64107142Y-37150000D01*
X64178571Y-37221428D01*
X64250000Y-37364285D01*
X64321428Y-37650000D01*
X64321428Y-38007142D01*
X64250000Y-38292857D01*
X64178571Y-38435714D01*
X64107142Y-38507142D01*
X63964285Y-38578571D01*
X63821428Y-38578571D01*
X63678571Y-38507142D01*
X63607142Y-38435714D01*
X63535714Y-38292857D01*
X63464285Y-38007142D01*
X63464285Y-37650000D01*
X63535714Y-37364285D01*
X63607142Y-37221428D01*
X63678571Y-37150000D01*
X63821428Y-37078571D01*
X66107142Y-38578571D02*
X66107142Y-37578571D01*
X66107142Y-37721428D02*
X66178571Y-37650000D01*
X66321428Y-37578571D01*
X66535714Y-37578571D01*
X66678571Y-37650000D01*
X66750000Y-37792857D01*
X66750000Y-38578571D01*
X66750000Y-37792857D02*
X66821428Y-37650000D01*
X66964285Y-37578571D01*
X67178571Y-37578571D01*
X67321428Y-37650000D01*
X67392857Y-37792857D01*
X67392857Y-38578571D01*
X68107142Y-38578571D02*
X68107142Y-37578571D01*
X68107142Y-37721428D02*
X68178571Y-37650000D01*
X68321428Y-37578571D01*
X68535714Y-37578571D01*
X68678571Y-37650000D01*
X68750000Y-37792857D01*
X68750000Y-38578571D01*
X68750000Y-37792857D02*
X68821428Y-37650000D01*
X68964285Y-37578571D01*
X69178571Y-37578571D01*
X69321428Y-37650000D01*
X69392857Y-37792857D01*
X69392857Y-38578571D01*
X24000000Y-40000000D02*
X102500000Y-40000000D01*
X24000000Y-43000000D02*
X24000000Y-39413579D01*
X102500000Y-43000000D02*
X102500000Y-39413579D01*
X102500000Y-40000000D02*
X101373496Y-40586421D01*
X102500000Y-40000000D02*
X101373496Y-39413579D01*
X24000000Y-40000000D02*
X25126504Y-40586421D01*
X24000000Y-40000000D02*
X25126504Y-39413579D01*
X25471428Y-109992857D02*
X25971428Y-109992857D01*
X26185714Y-110778571D02*
X25471428Y-110778571D01*
X25471428Y-109278571D01*
X26185714Y-109278571D01*
X26685714Y-109278571D02*
X27685714Y-110778571D01*
X27685714Y-109278571D02*
X26685714Y-110778571D01*
X28042857Y-109278571D02*
X28900000Y-109278571D01*
X28471428Y-110778571D02*
X28471428Y-109278571D01*
X30257142Y-110778571D02*
X29757142Y-110064285D01*
X29400000Y-110778571D02*
X29400000Y-109278571D01*
X29971428Y-109278571D01*
X30114285Y-109350000D01*
X30185714Y-109421428D01*
X30257142Y-109564285D01*
X30257142Y-109778571D01*
X30185714Y-109921428D01*
X30114285Y-109992857D01*
X29971428Y-110064285D01*
X29400000Y-110064285D01*
X30828571Y-110350000D02*
X31542857Y-110350000D01*
X30685714Y-110778571D02*
X31185714Y-109278571D01*
X31685714Y-110778571D01*
X32900000Y-110778571D02*
X32185714Y-110778571D01*
X32185714Y-109278571D01*
X33400000Y-110778571D02*
X33400000Y-109278571D01*
X34614285Y-109992857D02*
X34114285Y-109992857D01*
X34114285Y-110778571D02*
X34114285Y-109278571D01*
X34828571Y-109278571D01*
X35400000Y-109992857D02*
X35900000Y-109992857D01*
X36114285Y-110778571D02*
X35400000Y-110778571D01*
X35400000Y-109278571D01*
X36114285Y-109278571D01*
X37900000Y-110778571D02*
X37900000Y-109278571D01*
X38614285Y-110778571D02*
X38614285Y-109278571D01*
X39471428Y-110778571D01*
X39471428Y-109278571D01*
X40114285Y-110707142D02*
X40328571Y-110778571D01*
X40685714Y-110778571D01*
X40828571Y-110707142D01*
X40900000Y-110635714D01*
X40971428Y-110492857D01*
X40971428Y-110350000D01*
X40900000Y-110207142D01*
X40828571Y-110135714D01*
X40685714Y-110064285D01*
X40400000Y-109992857D01*
X40257142Y-109921428D01*
X40185714Y-109850000D01*
X40114285Y-109707142D01*
X40114285Y-109564285D01*
X40185714Y-109421428D01*
X40257142Y-109350000D01*
X40400000Y-109278571D01*
X40757142Y-109278571D01*
X40971428Y-109350000D01*
X41400000Y-109278571D02*
X42257142Y-109278571D01*
X41828571Y-110778571D02*
X41828571Y-109278571D01*
X43614285Y-110778571D02*
X43114285Y-110064285D01*
X42757142Y-110778571D02*
X42757142Y-109278571D01*
X43328571Y-109278571D01*
X43471428Y-109350000D01*
X43542857Y-109421428D01*
X43614285Y-109564285D01*
X43614285Y-109778571D01*
X43542857Y-109921428D01*
X43471428Y-109992857D01*
X43328571Y-110064285D01*
X42757142Y-110064285D01*
X44257142Y-109278571D02*
X44257142Y-110492857D01*
X44328571Y-110635714D01*
X44400000Y-110707142D01*
X44542857Y-110778571D01*
X44828571Y-110778571D01*
X44971428Y-110707142D01*
X45042857Y-110635714D01*
X45114285Y-110492857D01*
X45114285Y-109278571D01*
X45828571Y-110778571D02*
X45828571Y-109278571D01*
X46328571Y-110350000D01*
X46828571Y-109278571D01*
X46828571Y-110778571D01*
X47542857Y-109992857D02*
X48042857Y-109992857D01*
X48257142Y-110778571D02*
X47542857Y-110778571D01*
X47542857Y-109278571D01*
X48257142Y-109278571D01*
X48900000Y-110778571D02*
X48900000Y-109278571D01*
X49757142Y-110778571D01*
X49757142Y-109278571D01*
X50257142Y-109278571D02*
X51114285Y-109278571D01*
X50685714Y-110778571D02*
X50685714Y-109278571D01*
X51542857Y-110707142D02*
X51757142Y-110778571D01*
X52114285Y-110778571D01*
X52257142Y-110707142D01*
X52328571Y-110635714D01*
X52400000Y-110492857D01*
X52400000Y-110350000D01*
X52328571Y-110207142D01*
X52257142Y-110135714D01*
X52114285Y-110064285D01*
X51828571Y-109992857D01*
X51685714Y-109921428D01*
X51614285Y-109850000D01*
X51542857Y-109707142D01*
X51542857Y-109564285D01*
X51614285Y-109421428D01*
X51685714Y-109350000D01*
X51828571Y-109278571D01*
X52185714Y-109278571D01*
X52400000Y-109350000D01*
X97357142Y-109678571D02*
X97714285Y-110678571D01*
X98071428Y-109678571D01*
X98571428Y-109321428D02*
X98642857Y-109250000D01*
X98785714Y-109178571D01*
X99142857Y-109178571D01*
X99285714Y-109250000D01*
X99357142Y-109321428D01*
X99428571Y-109464285D01*
X99428571Y-109607142D01*
X99357142Y-109821428D01*
X98500000Y-110678571D01*
X99428571Y-110678571D01*
X100071428Y-110535714D02*
X100142857Y-110607142D01*
X100071428Y-110678571D01*
X100000000Y-110607142D01*
X100071428Y-110535714D01*
X100071428Y-110678571D01*
X101071428Y-109178571D02*
X101214285Y-109178571D01*
X101357142Y-109250000D01*
X101428571Y-109321428D01*
X101500000Y-109464285D01*
X101571428Y-109750000D01*
X101571428Y-110107142D01*
X101500000Y-110392857D01*
X101428571Y-110535714D01*
X101357142Y-110607142D01*
X101214285Y-110678571D01*
X101071428Y-110678571D01*
X100928571Y-110607142D01*
X100857142Y-110535714D01*
X100785714Y-110392857D01*
X100714285Y-110107142D01*
X100714285Y-109750000D01*
X100785714Y-109464285D01*
X100857142Y-109321428D01*
X100928571Y-109250000D01*
X101071428Y-109178571D01*
X65257142Y-110707142D02*
X65471428Y-110778571D01*
X65828571Y-110778571D01*
X65971428Y-110707142D01*
X66042857Y-110635714D01*
X66114285Y-110492857D01*
X66114285Y-110350000D01*
X66042857Y-110207142D01*
X65971428Y-110135714D01*
X65828571Y-110064285D01*
X65542857Y-109992857D01*
X65399999Y-109921428D01*
X65328571Y-109850000D01*
X65257142Y-109707142D01*
X65257142Y-109564285D01*
X65328571Y-109421428D01*
X65399999Y-109350000D01*
X65542857Y-109278571D01*
X65899999Y-109278571D01*
X66114285Y-109350000D01*
X66757142Y-109278571D02*
X66757142Y-110492857D01*
X66828571Y-110635714D01*
X66899999Y-110707142D01*
X67042857Y-110778571D01*
X67328571Y-110778571D01*
X67471428Y-110707142D01*
X67542857Y-110635714D01*
X67614285Y-110492857D01*
X67614285Y-109278571D01*
X68328571Y-110778571D02*
X68328571Y-109278571D01*
X68900000Y-109278571D01*
X69042857Y-109350000D01*
X69114285Y-109421428D01*
X69185714Y-109564285D01*
X69185714Y-109778571D01*
X69114285Y-109921428D01*
X69042857Y-109992857D01*
X68900000Y-110064285D01*
X68328571Y-110064285D01*
X69828571Y-109992857D02*
X70328571Y-109992857D01*
X70542857Y-110778571D02*
X69828571Y-110778571D01*
X69828571Y-109278571D01*
X70542857Y-109278571D01*
X72042857Y-110778571D02*
X71542857Y-110064285D01*
X71185714Y-110778571D02*
X71185714Y-109278571D01*
X71757142Y-109278571D01*
X71900000Y-109350000D01*
X71971428Y-109421428D01*
X72042857Y-109564285D01*
X72042857Y-109778571D01*
X71971428Y-109921428D01*
X71900000Y-109992857D01*
X71757142Y-110064285D01*
X71185714Y-110064285D01*
X73757142Y-110707142D02*
X73971428Y-110778571D01*
X74328571Y-110778571D01*
X74471428Y-110707142D01*
X74542857Y-110635714D01*
X74614285Y-110492857D01*
X74614285Y-110350000D01*
X74542857Y-110207142D01*
X74471428Y-110135714D01*
X74328571Y-110064285D01*
X74042857Y-109992857D01*
X73900000Y-109921428D01*
X73828571Y-109850000D01*
X73757142Y-109707142D01*
X73757142Y-109564285D01*
X73828571Y-109421428D01*
X73900000Y-109350000D01*
X74042857Y-109278571D01*
X74400000Y-109278571D01*
X74614285Y-109350000D01*
X75257142Y-110778571D02*
X75257142Y-109278571D01*
X75828571Y-109278571D02*
X76828571Y-110778571D01*
X76828571Y-109278571D02*
X75828571Y-110778571D01*
X77185714Y-109278571D02*
X78042857Y-109278571D01*
X77614285Y-110778571D02*
X77614285Y-109278571D01*
X78542857Y-109992857D02*
X79042857Y-109992857D01*
X79257142Y-110778571D02*
X78542857Y-110778571D01*
X78542857Y-109278571D01*
X79257142Y-109278571D01*
X79900000Y-109992857D02*
X80400000Y-109992857D01*
X80614285Y-110778571D02*
X79900000Y-110778571D01*
X79900000Y-109278571D01*
X80614285Y-109278571D01*
X81257142Y-110778571D02*
X81257142Y-109278571D01*
X82114285Y-110778571D01*
X82114285Y-109278571D01*
X83900000Y-110707142D02*
X84114285Y-110778571D01*
X84471428Y-110778571D01*
X84614285Y-110707142D01*
X84685714Y-110635714D01*
X84757142Y-110492857D01*
X84757142Y-110350000D01*
X84685714Y-110207142D01*
X84614285Y-110135714D01*
X84471428Y-110064285D01*
X84185714Y-109992857D01*
X84042857Y-109921428D01*
X83971428Y-109850000D01*
X83900000Y-109707142D01*
X83900000Y-109564285D01*
X83971428Y-109421428D01*
X84042857Y-109350000D01*
X84185714Y-109278571D01*
X84542857Y-109278571D01*
X84757142Y-109350000D01*
X85400000Y-109992857D02*
X85900000Y-109992857D01*
X86114285Y-110778571D02*
X85400000Y-110778571D01*
X85400000Y-109278571D01*
X86114285Y-109278571D01*
X87757142Y-110921428D02*
X87614285Y-110850000D01*
X87471428Y-110707142D01*
X87257142Y-110492857D01*
X87114285Y-110421428D01*
X86971428Y-110421428D01*
X87042857Y-110778571D02*
X86900000Y-110707142D01*
X86757142Y-110564285D01*
X86685714Y-110278571D01*
X86685714Y-109778571D01*
X86757142Y-109492857D01*
X86900000Y-109350000D01*
X87042857Y-109278571D01*
X87328571Y-109278571D01*
X87471428Y-109350000D01*
X87614285Y-109492857D01*
X87685714Y-109778571D01*
X87685714Y-110278571D01*
X87614285Y-110564285D01*
X87471428Y-110707142D01*
X87328571Y-110778571D01*
X87042857Y-110778571D01*
X88328571Y-109278571D02*
X88328571Y-110492857D01*
X88400000Y-110635714D01*
X88471428Y-110707142D01*
X88614285Y-110778571D01*
X88900000Y-110778571D01*
X89042857Y-110707142D01*
X89114285Y-110635714D01*
X89185714Y-110492857D01*
X89185714Y-109278571D01*
X89900000Y-109992857D02*
X90400000Y-109992857D01*
X90614285Y-110778571D02*
X89900000Y-110778571D01*
X89900000Y-109278571D01*
X90614285Y-109278571D01*
X91257142Y-110778571D02*
X91257142Y-109278571D01*
X92114285Y-110778571D01*
X92114285Y-109278571D01*
X93685714Y-110635714D02*
X93614285Y-110707142D01*
X93400000Y-110778571D01*
X93257142Y-110778571D01*
X93042857Y-110707142D01*
X92900000Y-110564285D01*
X92828571Y-110421428D01*
X92757142Y-110135714D01*
X92757142Y-109921428D01*
X92828571Y-109635714D01*
X92900000Y-109492857D01*
X93042857Y-109350000D01*
X93257142Y-109278571D01*
X93400000Y-109278571D01*
X93614285Y-109350000D01*
X93685714Y-109421428D01*
X94328571Y-109992857D02*
X94828571Y-109992857D01*
X95042857Y-110778571D02*
X94328571Y-110778571D01*
X94328571Y-109278571D01*
X95042857Y-109278571D01*
X96542857Y-110778571D02*
X96042857Y-110064285D01*
X95685714Y-110778571D02*
X95685714Y-109278571D01*
X96257142Y-109278571D01*
X96400000Y-109350000D01*
X96471428Y-109421428D01*
X96542857Y-109564285D01*
X96542857Y-109778571D01*
X96471428Y-109921428D01*
X96400000Y-109992857D01*
X96257142Y-110064285D01*
X95685714Y-110064285D01*
D12*
X27811320Y-97265100D02*
X31411320Y-97265100D01*
X27287136Y-96537895D02*
G75*
G03X27811320Y-97265100I2324184J1122795D01*
G01*
X27254920Y-94316293D02*
G75*
G02X29611320Y-92815100I2356400J-1098807D01*
G01*
X31967720Y-94316293D02*
G75*
G03X29611320Y-92815100I-2356400J-1098807D01*
G01*
X31935504Y-96537895D02*
G75*
G02X31411320Y-97265100I-2324184J1122795D01*
G01*
X53847700Y-51350000D02*
X57447700Y-51350000D01*
X53323516Y-50622795D02*
G75*
G03X53847700Y-51350000I2324184J1122795D01*
G01*
X53291300Y-48401193D02*
G75*
G02X55647700Y-46900000I2356400J-1098807D01*
G01*
X58004100Y-48401193D02*
G75*
G03X55647700Y-46900000I-2356400J-1098807D01*
G01*
X57971884Y-50622795D02*
G75*
G02X57447700Y-51350000I-2324184J1122795D01*
G01*
X37847700Y-51350000D02*
X41447700Y-51350000D01*
X37323516Y-50622795D02*
G75*
G03X37847700Y-51350000I2324184J1122795D01*
G01*
X37291300Y-48401193D02*
G75*
G02X39647700Y-46900000I2356400J-1098807D01*
G01*
X42004100Y-48401193D02*
G75*
G03X39647700Y-46900000I-2356400J-1098807D01*
G01*
X41971884Y-50622795D02*
G75*
G02X41447700Y-51350000I-2324184J1122795D01*
G01*
X45847700Y-51350000D02*
X49447700Y-51350000D01*
X45323516Y-50622795D02*
G75*
G03X45847700Y-51350000I2324184J1122795D01*
G01*
X45291300Y-48401193D02*
G75*
G02X47647700Y-46900000I2356400J-1098807D01*
G01*
X50004100Y-48401193D02*
G75*
G03X47647700Y-46900000I-2356400J-1098807D01*
G01*
X49971884Y-50622795D02*
G75*
G02X49447700Y-51350000I-2324184J1122795D01*
G01*
X61847700Y-51350000D02*
X65447700Y-51350000D01*
X61323516Y-50622795D02*
G75*
G03X61847700Y-51350000I2324184J1122795D01*
G01*
X61291300Y-48401193D02*
G75*
G02X63647700Y-46900000I2356400J-1098807D01*
G01*
X66004100Y-48401193D02*
G75*
G03X63647700Y-46900000I-2356400J-1098807D01*
G01*
X65971884Y-50622795D02*
G75*
G02X65447700Y-51350000I-2324184J1122795D01*
G01*
X80396840Y-93998100D02*
X80396840Y-94062100D01*
X80396840Y-91942100D02*
X80396840Y-92006100D01*
X77276840Y-93998100D02*
X77276840Y-94062100D01*
X77276840Y-91942100D02*
X77276840Y-92006100D01*
X77276840Y-94062100D02*
X80396840Y-94062100D01*
X77276840Y-91942100D02*
X80396840Y-91942100D01*
X90123530Y-92141460D02*
X87303530Y-92141460D01*
X87303530Y-92141460D02*
X87303530Y-98861460D01*
X87303530Y-98861460D02*
X90123530Y-98861460D01*
X90123530Y-98861460D02*
X90123530Y-92141460D01*
X88713530Y-91401460D02*
X88713530Y-92141460D01*
X88713530Y-99601460D02*
X88713530Y-98861460D01*
X91590000Y-98901460D02*
X94410000Y-98901460D01*
X94410000Y-98901460D02*
X94410000Y-92181460D01*
X94410000Y-92181460D02*
X91590000Y-92181460D01*
X91590000Y-92181460D02*
X91590000Y-98901460D01*
X93000000Y-99641460D02*
X93000000Y-98901460D01*
X93000000Y-91441460D02*
X93000000Y-92181460D01*
X85837060Y-92141460D02*
X83017060Y-92141460D01*
X83017060Y-92141460D02*
X83017060Y-98861460D01*
X83017060Y-98861460D02*
X85837060Y-98861460D01*
X85837060Y-98861460D02*
X85837060Y-92141460D01*
X84427060Y-91401460D02*
X84427060Y-92141460D01*
X84427060Y-99601460D02*
X84427060Y-98861460D01*
X81530000Y-81710000D02*
G75*
G02X81530000Y-79710000I0J1000000D01*
G01*
X81530000Y-79710000D02*
X81530000Y-78060000D01*
X81530000Y-78060000D02*
X71250000Y-78060000D01*
X71250000Y-78060000D02*
X71250000Y-83360000D01*
X71250000Y-83360000D02*
X81530000Y-83360000D01*
X81530000Y-83360000D02*
X81530000Y-81710000D01*
X95690000Y-67690000D02*
X100810000Y-67690000D01*
X95690000Y-70310000D02*
X100810000Y-70310000D01*
X95690000Y-67690000D02*
X95690000Y-70310000D01*
X100810000Y-67690000D02*
X100810000Y-70310000D01*
X31935001Y-89315001D02*
X31935001Y-91935001D01*
X26815001Y-89315001D02*
X26815001Y-91935001D01*
X26815001Y-91935001D02*
X31935001Y-91935001D01*
X26815001Y-89315001D02*
X31935001Y-89315001D01*
X69330000Y-83460000D02*
X69330000Y-81810000D01*
X33650000Y-83460000D02*
X69330000Y-83460000D01*
X33650000Y-78160000D02*
X33650000Y-83460000D01*
X69330000Y-78160000D02*
X33650000Y-78160000D01*
X69330000Y-79810000D02*
X69330000Y-78160000D01*
X69330000Y-81810000D02*
G75*
G02X69330000Y-79810000I0J1000000D01*
G01*
X76200000Y-69750000D02*
X76200000Y-68450000D01*
X76800000Y-69100000D02*
X75600000Y-69100000D01*
X70149000Y-69568000D02*
X70149000Y-68632000D01*
X70189000Y-69776000D02*
X70189000Y-68424000D01*
X70229000Y-69934000D02*
X70229000Y-68266000D01*
X70269000Y-70066000D02*
X70269000Y-68134000D01*
X70309000Y-70181000D02*
X70309000Y-68019000D01*
X70349000Y-70284000D02*
X70349000Y-67916000D01*
X70389000Y-70378000D02*
X70389000Y-67822000D01*
X70429000Y-70464000D02*
X70429000Y-67736000D01*
X70469000Y-70545000D02*
X70469000Y-67655000D01*
X70509000Y-70620000D02*
X70509000Y-67580000D01*
X70549000Y-70691000D02*
X70549000Y-67509000D01*
X70589000Y-70758000D02*
X70589000Y-67442000D01*
X70629000Y-70821000D02*
X70629000Y-67379000D01*
X70669000Y-70881000D02*
X70669000Y-67319000D01*
X70709000Y-70939000D02*
X70709000Y-67261000D01*
X70749000Y-70994000D02*
X70749000Y-67206000D01*
X70789000Y-71046000D02*
X70789000Y-67154000D01*
X70829000Y-71097000D02*
X70829000Y-67103000D01*
X70869000Y-71145000D02*
X70869000Y-67055000D01*
X70909000Y-71192000D02*
X70909000Y-67008000D01*
X70949000Y-71237000D02*
X70949000Y-66963000D01*
X70989000Y-71280000D02*
X70989000Y-66920000D01*
X71029000Y-71322000D02*
X71029000Y-66878000D01*
X71069000Y-71362000D02*
X71069000Y-66838000D01*
X71109000Y-71401000D02*
X71109000Y-66799000D01*
X71149000Y-68120000D02*
X71149000Y-66761000D01*
X71149000Y-71439000D02*
X71149000Y-70080000D01*
X71189000Y-68120000D02*
X71189000Y-66725000D01*
X71189000Y-71475000D02*
X71189000Y-70080000D01*
X71229000Y-68120000D02*
X71229000Y-66689000D01*
X71229000Y-71511000D02*
X71229000Y-70080000D01*
X71269000Y-68120000D02*
X71269000Y-66655000D01*
X71269000Y-71545000D02*
X71269000Y-70080000D01*
X71309000Y-68120000D02*
X71309000Y-66622000D01*
X71309000Y-71578000D02*
X71309000Y-70080000D01*
X71349000Y-68120000D02*
X71349000Y-66590000D01*
X71349000Y-71610000D02*
X71349000Y-70080000D01*
X71389000Y-68120000D02*
X71389000Y-66560000D01*
X71389000Y-71640000D02*
X71389000Y-70080000D01*
X71429000Y-68120000D02*
X71429000Y-66530000D01*
X71429000Y-71670000D02*
X71429000Y-70080000D01*
X71469000Y-68120000D02*
X71469000Y-66501000D01*
X71469000Y-71699000D02*
X71469000Y-70080000D01*
X71509000Y-68120000D02*
X71509000Y-66473000D01*
X71509000Y-71727000D02*
X71509000Y-70080000D01*
X71549000Y-68120000D02*
X71549000Y-66446000D01*
X71549000Y-71754000D02*
X71549000Y-70080000D01*
X71589000Y-68120000D02*
X71589000Y-66419000D01*
X71589000Y-71781000D02*
X71589000Y-70080000D01*
X71629000Y-68120000D02*
X71629000Y-66394000D01*
X71629000Y-71806000D02*
X71629000Y-70080000D01*
X71669000Y-68120000D02*
X71669000Y-66369000D01*
X71669000Y-71831000D02*
X71669000Y-70080000D01*
X71709000Y-68120000D02*
X71709000Y-66345000D01*
X71709000Y-71855000D02*
X71709000Y-70080000D01*
X71749000Y-68120000D02*
X71749000Y-66322000D01*
X71749000Y-71878000D02*
X71749000Y-70080000D01*
X71789000Y-68120000D02*
X71789000Y-66300000D01*
X71789000Y-71900000D02*
X71789000Y-70080000D01*
X71829000Y-68120000D02*
X71829000Y-66278000D01*
X71829000Y-71922000D02*
X71829000Y-70080000D01*
X71869000Y-68120000D02*
X71869000Y-66257000D01*
X71869000Y-71943000D02*
X71869000Y-70080000D01*
X71909000Y-68120000D02*
X71909000Y-66237000D01*
X71909000Y-71963000D02*
X71909000Y-70080000D01*
X71949000Y-68120000D02*
X71949000Y-66218000D01*
X71949000Y-71982000D02*
X71949000Y-70080000D01*
X71989000Y-68120000D02*
X71989000Y-66199000D01*
X71989000Y-72001000D02*
X71989000Y-70080000D01*
X72029000Y-68120000D02*
X72029000Y-66181000D01*
X72029000Y-72019000D02*
X72029000Y-70080000D01*
X72069000Y-68120000D02*
X72069000Y-66163000D01*
X72069000Y-72037000D02*
X72069000Y-70080000D01*
X72109000Y-68120000D02*
X72109000Y-66146000D01*
X72109000Y-72054000D02*
X72109000Y-70080000D01*
X72149000Y-68120000D02*
X72149000Y-66130000D01*
X72149000Y-72070000D02*
X72149000Y-70080000D01*
X72189000Y-68120000D02*
X72189000Y-66114000D01*
X72189000Y-72086000D02*
X72189000Y-70080000D01*
X72229000Y-68120000D02*
X72229000Y-66099000D01*
X72229000Y-72101000D02*
X72229000Y-70080000D01*
X72269000Y-68120000D02*
X72269000Y-66085000D01*
X72269000Y-72115000D02*
X72269000Y-70080000D01*
X72309000Y-68120000D02*
X72309000Y-66071000D01*
X72309000Y-72129000D02*
X72309000Y-70080000D01*
X72349000Y-68120000D02*
X72349000Y-66058000D01*
X72349000Y-72142000D02*
X72349000Y-70080000D01*
X72389000Y-68120000D02*
X72389000Y-66045000D01*
X72389000Y-72155000D02*
X72389000Y-70080000D01*
X72429000Y-68120000D02*
X72429000Y-66033000D01*
X72429000Y-72167000D02*
X72429000Y-70080000D01*
X72469000Y-68120000D02*
X72469000Y-66021000D01*
X72469000Y-72179000D02*
X72469000Y-70080000D01*
X72509000Y-68120000D02*
X72509000Y-66010000D01*
X72509000Y-72190000D02*
X72509000Y-70080000D01*
X72549000Y-68120000D02*
X72549000Y-66000000D01*
X72549000Y-72200000D02*
X72549000Y-70080000D01*
X72589000Y-68120000D02*
X72589000Y-65990000D01*
X72589000Y-72210000D02*
X72589000Y-70080000D01*
X72629000Y-68120000D02*
X72629000Y-65981000D01*
X72629000Y-72219000D02*
X72629000Y-70080000D01*
X72670000Y-68120000D02*
X72670000Y-65972000D01*
X72670000Y-72228000D02*
X72670000Y-70080000D01*
X72710000Y-68120000D02*
X72710000Y-65963000D01*
X72710000Y-72237000D02*
X72710000Y-70080000D01*
X72750000Y-68120000D02*
X72750000Y-65956000D01*
X72750000Y-72244000D02*
X72750000Y-70080000D01*
X72790000Y-68120000D02*
X72790000Y-65948000D01*
X72790000Y-72252000D02*
X72790000Y-70080000D01*
X72830000Y-68120000D02*
X72830000Y-65942000D01*
X72830000Y-72258000D02*
X72830000Y-70080000D01*
X72870000Y-68120000D02*
X72870000Y-65935000D01*
X72870000Y-72265000D02*
X72870000Y-70080000D01*
X72910000Y-68120000D02*
X72910000Y-65930000D01*
X72910000Y-72270000D02*
X72910000Y-70080000D01*
X72950000Y-68120000D02*
X72950000Y-65924000D01*
X72950000Y-72276000D02*
X72950000Y-70080000D01*
X72990000Y-68120000D02*
X72990000Y-65920000D01*
X72990000Y-72280000D02*
X72990000Y-70080000D01*
X73030000Y-68120000D02*
X73030000Y-65915000D01*
X73030000Y-72285000D02*
X73030000Y-70080000D01*
X73070000Y-68120000D02*
X73070000Y-65912000D01*
X73070000Y-72288000D02*
X73070000Y-70080000D01*
X73110000Y-72292000D02*
X73110000Y-65908000D01*
X73150000Y-72294000D02*
X73150000Y-65906000D01*
X73190000Y-72297000D02*
X73190000Y-65903000D01*
X73230000Y-72298000D02*
X73230000Y-65902000D01*
X73270000Y-72300000D02*
X73270000Y-65900000D01*
X73310000Y-72300000D02*
X73310000Y-65900000D01*
X73350000Y-72300000D02*
X73350000Y-65900000D01*
X70332180Y-67920864D02*
G75*
G03X70332518Y-70280000I3017820J-1179136D01*
G01*
X70332180Y-67920864D02*
G75*
G02X76367482Y-67920000I3017820J-1179136D01*
G01*
X70332180Y-70279136D02*
G75*
G03X76367482Y-70280000I3017820J1179136D01*
G01*
X32250000Y-73550000D02*
X32250000Y-72650000D01*
X32700000Y-73100000D02*
X31800000Y-73100000D01*
X27919000Y-73265000D02*
X27919000Y-72935000D01*
X27959000Y-73515000D02*
X27959000Y-72685000D01*
X27999000Y-73667000D02*
X27999000Y-72533000D01*
X28039000Y-73786000D02*
X28039000Y-72414000D01*
X28079000Y-73886000D02*
X28079000Y-72314000D01*
X28119000Y-73974000D02*
X28119000Y-72226000D01*
X28159000Y-74052000D02*
X28159000Y-72148000D01*
X28199000Y-74123000D02*
X28199000Y-72077000D01*
X28239000Y-72320000D02*
X28239000Y-72012000D01*
X28239000Y-74188000D02*
X28239000Y-73880000D01*
X28279000Y-72320000D02*
X28279000Y-71952000D01*
X28279000Y-74248000D02*
X28279000Y-73880000D01*
X28319000Y-72320000D02*
X28319000Y-71896000D01*
X28319000Y-74304000D02*
X28319000Y-73880000D01*
X28359000Y-72320000D02*
X28359000Y-71844000D01*
X28359000Y-74356000D02*
X28359000Y-73880000D01*
X28399000Y-72320000D02*
X28399000Y-71795000D01*
X28399000Y-74405000D02*
X28399000Y-73880000D01*
X28439000Y-72320000D02*
X28439000Y-71749000D01*
X28439000Y-74451000D02*
X28439000Y-73880000D01*
X28479000Y-72320000D02*
X28479000Y-71705000D01*
X28479000Y-74495000D02*
X28479000Y-73880000D01*
X28519000Y-72320000D02*
X28519000Y-71664000D01*
X28519000Y-74536000D02*
X28519000Y-73880000D01*
X28559000Y-72320000D02*
X28559000Y-71625000D01*
X28559000Y-74575000D02*
X28559000Y-73880000D01*
X28599000Y-72320000D02*
X28599000Y-71588000D01*
X28599000Y-74612000D02*
X28599000Y-73880000D01*
X28639000Y-72320000D02*
X28639000Y-71553000D01*
X28639000Y-74647000D02*
X28639000Y-73880000D01*
X28679000Y-72320000D02*
X28679000Y-71519000D01*
X28679000Y-74681000D02*
X28679000Y-73880000D01*
X28719000Y-72320000D02*
X28719000Y-71487000D01*
X28719000Y-74713000D02*
X28719000Y-73880000D01*
X28759000Y-72320000D02*
X28759000Y-71457000D01*
X28759000Y-74743000D02*
X28759000Y-73880000D01*
X28799000Y-72320000D02*
X28799000Y-71428000D01*
X28799000Y-74772000D02*
X28799000Y-73880000D01*
X28839000Y-72320000D02*
X28839000Y-71401000D01*
X28839000Y-74799000D02*
X28839000Y-73880000D01*
X28879000Y-72320000D02*
X28879000Y-71375000D01*
X28879000Y-74825000D02*
X28879000Y-73880000D01*
X28919000Y-72320000D02*
X28919000Y-71350000D01*
X28919000Y-74850000D02*
X28919000Y-73880000D01*
X28959000Y-72320000D02*
X28959000Y-71327000D01*
X28959000Y-74873000D02*
X28959000Y-73880000D01*
X28999000Y-72320000D02*
X28999000Y-71304000D01*
X28999000Y-74896000D02*
X28999000Y-73880000D01*
X29039000Y-72320000D02*
X29039000Y-71283000D01*
X29039000Y-74917000D02*
X29039000Y-73880000D01*
X29079000Y-72320000D02*
X29079000Y-71263000D01*
X29079000Y-74937000D02*
X29079000Y-73880000D01*
X29119000Y-72320000D02*
X29119000Y-71244000D01*
X29119000Y-74956000D02*
X29119000Y-73880000D01*
X29159000Y-72320000D02*
X29159000Y-71226000D01*
X29159000Y-74974000D02*
X29159000Y-73880000D01*
X29199000Y-72320000D02*
X29199000Y-71209000D01*
X29199000Y-74991000D02*
X29199000Y-73880000D01*
X29239000Y-72320000D02*
X29239000Y-71193000D01*
X29239000Y-75007000D02*
X29239000Y-73880000D01*
X29279000Y-72320000D02*
X29279000Y-71177000D01*
X29279000Y-75023000D02*
X29279000Y-73880000D01*
X29320000Y-72320000D02*
X29320000Y-71163000D01*
X29320000Y-75037000D02*
X29320000Y-73880000D01*
X29360000Y-72320000D02*
X29360000Y-71150000D01*
X29360000Y-75050000D02*
X29360000Y-73880000D01*
X29400000Y-72320000D02*
X29400000Y-71137000D01*
X29400000Y-75063000D02*
X29400000Y-73880000D01*
X29440000Y-72320000D02*
X29440000Y-71126000D01*
X29440000Y-75074000D02*
X29440000Y-73880000D01*
X29480000Y-72320000D02*
X29480000Y-71115000D01*
X29480000Y-75085000D02*
X29480000Y-73880000D01*
X29520000Y-72320000D02*
X29520000Y-71105000D01*
X29520000Y-75095000D02*
X29520000Y-73880000D01*
X29560000Y-72320000D02*
X29560000Y-71096000D01*
X29560000Y-75104000D02*
X29560000Y-73880000D01*
X29600000Y-72320000D02*
X29600000Y-71088000D01*
X29600000Y-75112000D02*
X29600000Y-73880000D01*
X29640000Y-72320000D02*
X29640000Y-71081000D01*
X29640000Y-75119000D02*
X29640000Y-73880000D01*
X29680000Y-72320000D02*
X29680000Y-71074000D01*
X29680000Y-75126000D02*
X29680000Y-73880000D01*
X29720000Y-72320000D02*
X29720000Y-71068000D01*
X29720000Y-75132000D02*
X29720000Y-73880000D01*
X29760000Y-72320000D02*
X29760000Y-71063000D01*
X29760000Y-75137000D02*
X29760000Y-73880000D01*
X29800000Y-75141000D02*
X29800000Y-71059000D01*
X29840000Y-75144000D02*
X29840000Y-71056000D01*
X29880000Y-75147000D02*
X29880000Y-71053000D01*
X29920000Y-75149000D02*
X29920000Y-71051000D01*
X29960000Y-75150000D02*
X29960000Y-71050000D01*
X30000000Y-75150000D02*
X30000000Y-71050000D01*
X28153564Y-72120830D02*
G75*
G03X28154004Y-74080000I1846436J-979170D01*
G01*
X28153564Y-72120830D02*
G75*
G02X31845996Y-72120000I1846436J-979170D01*
G01*
X28153564Y-74079170D02*
G75*
G03X31845996Y-74080000I1846436J979170D01*
G01*
X81310000Y-89660000D02*
X76190000Y-89660000D01*
X81310000Y-87040000D02*
X76190000Y-87040000D01*
X81310000Y-89660000D02*
X81310000Y-87040000D01*
X76190000Y-89660000D02*
X76190000Y-87040000D01*
X46660000Y-87040000D02*
X46660000Y-89660000D01*
X41540000Y-87040000D02*
X41540000Y-89660000D01*
X41540000Y-89660000D02*
X46660000Y-89660000D01*
X41540000Y-87040000D02*
X46660000Y-87040000D01*
X50310000Y-66496000D02*
X50310000Y-66560000D01*
X50310000Y-64440000D02*
X50310000Y-64504000D01*
X47190000Y-66496000D02*
X47190000Y-66560000D01*
X47190000Y-64440000D02*
X47190000Y-64504000D01*
X47190000Y-66560000D02*
X50310000Y-66560000D01*
X47190000Y-64440000D02*
X50310000Y-64440000D01*
X54510000Y-89660000D02*
X49390000Y-89660000D01*
X54510000Y-87040000D02*
X49390000Y-87040000D01*
X54510000Y-89660000D02*
X54510000Y-87040000D01*
X49390000Y-89660000D02*
X49390000Y-87040000D01*
X40290000Y-64750000D02*
X40290000Y-64140000D01*
X40290000Y-66860000D02*
X40290000Y-66250000D01*
X44210000Y-64750000D02*
X44210000Y-64140000D01*
X44210000Y-66860000D02*
X44210000Y-66250000D01*
X44210000Y-64140000D02*
X40290000Y-64140000D01*
X44210000Y-66860000D02*
X40290000Y-66860000D01*
X30704136Y-108267820D02*
G75*
G03X30705000Y-102232518I-1179136J3017820D01*
G01*
X28345864Y-108267820D02*
G75*
G02X28345000Y-102232518I1179136J3017820D01*
G01*
X28345864Y-108267820D02*
G75*
G03X30705000Y-108267482I1179136J3017820D01*
G01*
X32725000Y-105250000D02*
X26325000Y-105250000D01*
X32725000Y-105290000D02*
X26325000Y-105290000D01*
X32725000Y-105330000D02*
X26325000Y-105330000D01*
X32723000Y-105370000D02*
X26327000Y-105370000D01*
X32722000Y-105410000D02*
X26328000Y-105410000D01*
X32719000Y-105450000D02*
X26331000Y-105450000D01*
X32717000Y-105490000D02*
X26333000Y-105490000D01*
X32713000Y-105530000D02*
X30505000Y-105530000D01*
X28545000Y-105530000D02*
X26337000Y-105530000D01*
X32710000Y-105570000D02*
X30505000Y-105570000D01*
X28545000Y-105570000D02*
X26340000Y-105570000D01*
X32705000Y-105610000D02*
X30505000Y-105610000D01*
X28545000Y-105610000D02*
X26345000Y-105610000D01*
X32701000Y-105650000D02*
X30505000Y-105650000D01*
X28545000Y-105650000D02*
X26349000Y-105650000D01*
X32695000Y-105690000D02*
X30505000Y-105690000D01*
X28545000Y-105690000D02*
X26355000Y-105690000D01*
X32690000Y-105730000D02*
X30505000Y-105730000D01*
X28545000Y-105730000D02*
X26360000Y-105730000D01*
X32683000Y-105770000D02*
X30505000Y-105770000D01*
X28545000Y-105770000D02*
X26367000Y-105770000D01*
X32677000Y-105810000D02*
X30505000Y-105810000D01*
X28545000Y-105810000D02*
X26373000Y-105810000D01*
X32669000Y-105850000D02*
X30505000Y-105850000D01*
X28545000Y-105850000D02*
X26381000Y-105850000D01*
X32662000Y-105890000D02*
X30505000Y-105890000D01*
X28545000Y-105890000D02*
X26388000Y-105890000D01*
X32653000Y-105930000D02*
X30505000Y-105930000D01*
X28545000Y-105930000D02*
X26397000Y-105930000D01*
X32644000Y-105971000D02*
X30505000Y-105971000D01*
X28545000Y-105971000D02*
X26406000Y-105971000D01*
X32635000Y-106011000D02*
X30505000Y-106011000D01*
X28545000Y-106011000D02*
X26415000Y-106011000D01*
X32625000Y-106051000D02*
X30505000Y-106051000D01*
X28545000Y-106051000D02*
X26425000Y-106051000D01*
X32615000Y-106091000D02*
X30505000Y-106091000D01*
X28545000Y-106091000D02*
X26435000Y-106091000D01*
X32604000Y-106131000D02*
X30505000Y-106131000D01*
X28545000Y-106131000D02*
X26446000Y-106131000D01*
X32592000Y-106171000D02*
X30505000Y-106171000D01*
X28545000Y-106171000D02*
X26458000Y-106171000D01*
X32580000Y-106211000D02*
X30505000Y-106211000D01*
X28545000Y-106211000D02*
X26470000Y-106211000D01*
X32567000Y-106251000D02*
X30505000Y-106251000D01*
X28545000Y-106251000D02*
X26483000Y-106251000D01*
X32554000Y-106291000D02*
X30505000Y-106291000D01*
X28545000Y-106291000D02*
X26496000Y-106291000D01*
X32540000Y-106331000D02*
X30505000Y-106331000D01*
X28545000Y-106331000D02*
X26510000Y-106331000D01*
X32526000Y-106371000D02*
X30505000Y-106371000D01*
X28545000Y-106371000D02*
X26524000Y-106371000D01*
X32511000Y-106411000D02*
X30505000Y-106411000D01*
X28545000Y-106411000D02*
X26539000Y-106411000D01*
X32495000Y-106451000D02*
X30505000Y-106451000D01*
X28545000Y-106451000D02*
X26555000Y-106451000D01*
X32479000Y-106491000D02*
X30505000Y-106491000D01*
X28545000Y-106491000D02*
X26571000Y-106491000D01*
X32462000Y-106531000D02*
X30505000Y-106531000D01*
X28545000Y-106531000D02*
X26588000Y-106531000D01*
X32444000Y-106571000D02*
X30505000Y-106571000D01*
X28545000Y-106571000D02*
X26606000Y-106571000D01*
X32426000Y-106611000D02*
X30505000Y-106611000D01*
X28545000Y-106611000D02*
X26624000Y-106611000D01*
X32407000Y-106651000D02*
X30505000Y-106651000D01*
X28545000Y-106651000D02*
X26643000Y-106651000D01*
X32388000Y-106691000D02*
X30505000Y-106691000D01*
X28545000Y-106691000D02*
X26662000Y-106691000D01*
X32368000Y-106731000D02*
X30505000Y-106731000D01*
X28545000Y-106731000D02*
X26682000Y-106731000D01*
X32347000Y-106771000D02*
X30505000Y-106771000D01*
X28545000Y-106771000D02*
X26703000Y-106771000D01*
X32325000Y-106811000D02*
X30505000Y-106811000D01*
X28545000Y-106811000D02*
X26725000Y-106811000D01*
X32303000Y-106851000D02*
X30505000Y-106851000D01*
X28545000Y-106851000D02*
X26747000Y-106851000D01*
X32280000Y-106891000D02*
X30505000Y-106891000D01*
X28545000Y-106891000D02*
X26770000Y-106891000D01*
X32256000Y-106931000D02*
X30505000Y-106931000D01*
X28545000Y-106931000D02*
X26794000Y-106931000D01*
X32231000Y-106971000D02*
X30505000Y-106971000D01*
X28545000Y-106971000D02*
X26819000Y-106971000D01*
X32206000Y-107011000D02*
X30505000Y-107011000D01*
X28545000Y-107011000D02*
X26844000Y-107011000D01*
X32179000Y-107051000D02*
X30505000Y-107051000D01*
X28545000Y-107051000D02*
X26871000Y-107051000D01*
X32152000Y-107091000D02*
X30505000Y-107091000D01*
X28545000Y-107091000D02*
X26898000Y-107091000D01*
X32124000Y-107131000D02*
X30505000Y-107131000D01*
X28545000Y-107131000D02*
X26926000Y-107131000D01*
X32095000Y-107171000D02*
X30505000Y-107171000D01*
X28545000Y-107171000D02*
X26955000Y-107171000D01*
X32065000Y-107211000D02*
X30505000Y-107211000D01*
X28545000Y-107211000D02*
X26985000Y-107211000D01*
X32035000Y-107251000D02*
X30505000Y-107251000D01*
X28545000Y-107251000D02*
X27015000Y-107251000D01*
X32003000Y-107291000D02*
X30505000Y-107291000D01*
X28545000Y-107291000D02*
X27047000Y-107291000D01*
X31970000Y-107331000D02*
X30505000Y-107331000D01*
X28545000Y-107331000D02*
X27080000Y-107331000D01*
X31936000Y-107371000D02*
X30505000Y-107371000D01*
X28545000Y-107371000D02*
X27114000Y-107371000D01*
X31900000Y-107411000D02*
X30505000Y-107411000D01*
X28545000Y-107411000D02*
X27150000Y-107411000D01*
X31864000Y-107451000D02*
X30505000Y-107451000D01*
X28545000Y-107451000D02*
X27186000Y-107451000D01*
X31826000Y-107491000D02*
X27224000Y-107491000D01*
X31787000Y-107531000D02*
X27263000Y-107531000D01*
X31747000Y-107571000D02*
X27303000Y-107571000D01*
X31705000Y-107611000D02*
X27345000Y-107611000D01*
X31662000Y-107651000D02*
X27388000Y-107651000D01*
X31617000Y-107691000D02*
X27433000Y-107691000D01*
X31570000Y-107731000D02*
X27480000Y-107731000D01*
X31522000Y-107771000D02*
X27528000Y-107771000D01*
X31471000Y-107811000D02*
X27579000Y-107811000D01*
X31419000Y-107851000D02*
X27631000Y-107851000D01*
X31364000Y-107891000D02*
X27686000Y-107891000D01*
X31306000Y-107931000D02*
X27744000Y-107931000D01*
X31246000Y-107971000D02*
X27804000Y-107971000D01*
X31183000Y-108011000D02*
X27867000Y-108011000D01*
X31116000Y-108051000D02*
X27934000Y-108051000D01*
X31045000Y-108091000D02*
X28005000Y-108091000D01*
X30970000Y-108131000D02*
X28080000Y-108131000D01*
X30889000Y-108171000D02*
X28161000Y-108171000D01*
X30803000Y-108211000D02*
X28247000Y-108211000D01*
X30709000Y-108251000D02*
X28341000Y-108251000D01*
X30606000Y-108291000D02*
X28444000Y-108291000D01*
X30491000Y-108331000D02*
X28559000Y-108331000D01*
X30359000Y-108371000D02*
X28691000Y-108371000D01*
X30201000Y-108411000D02*
X28849000Y-108411000D01*
X29993000Y-108451000D02*
X29057000Y-108451000D01*
X29525000Y-101800000D02*
X29525000Y-103000000D01*
X30175000Y-102400000D02*
X28875000Y-102400000D01*
X94200000Y-69750000D02*
X94200000Y-68450000D01*
X94800000Y-69100000D02*
X93600000Y-69100000D01*
X88149000Y-69568000D02*
X88149000Y-68632000D01*
X88189000Y-69776000D02*
X88189000Y-68424000D01*
X88229000Y-69934000D02*
X88229000Y-68266000D01*
X88269000Y-70066000D02*
X88269000Y-68134000D01*
X88309000Y-70181000D02*
X88309000Y-68019000D01*
X88349000Y-70284000D02*
X88349000Y-67916000D01*
X88389000Y-70378000D02*
X88389000Y-67822000D01*
X88429000Y-70464000D02*
X88429000Y-67736000D01*
X88469000Y-70545000D02*
X88469000Y-67655000D01*
X88509000Y-70620000D02*
X88509000Y-67580000D01*
X88549000Y-70691000D02*
X88549000Y-67509000D01*
X88589000Y-70758000D02*
X88589000Y-67442000D01*
X88629000Y-70821000D02*
X88629000Y-67379000D01*
X88669000Y-70881000D02*
X88669000Y-67319000D01*
X88709000Y-70939000D02*
X88709000Y-67261000D01*
X88749000Y-70994000D02*
X88749000Y-67206000D01*
X88789000Y-71046000D02*
X88789000Y-67154000D01*
X88829000Y-71097000D02*
X88829000Y-67103000D01*
X88869000Y-71145000D02*
X88869000Y-67055000D01*
X88909000Y-71192000D02*
X88909000Y-67008000D01*
X88949000Y-71237000D02*
X88949000Y-66963000D01*
X88989000Y-71280000D02*
X88989000Y-66920000D01*
X89029000Y-71322000D02*
X89029000Y-66878000D01*
X89069000Y-71362000D02*
X89069000Y-66838000D01*
X89109000Y-71401000D02*
X89109000Y-66799000D01*
X89149000Y-68120000D02*
X89149000Y-66761000D01*
X89149000Y-71439000D02*
X89149000Y-70080000D01*
X89189000Y-68120000D02*
X89189000Y-66725000D01*
X89189000Y-71475000D02*
X89189000Y-70080000D01*
X89229000Y-68120000D02*
X89229000Y-66689000D01*
X89229000Y-71511000D02*
X89229000Y-70080000D01*
X89269000Y-68120000D02*
X89269000Y-66655000D01*
X89269000Y-71545000D02*
X89269000Y-70080000D01*
X89309000Y-68120000D02*
X89309000Y-66622000D01*
X89309000Y-71578000D02*
X89309000Y-70080000D01*
X89349000Y-68120000D02*
X89349000Y-66590000D01*
X89349000Y-71610000D02*
X89349000Y-70080000D01*
X89389000Y-68120000D02*
X89389000Y-66560000D01*
X89389000Y-71640000D02*
X89389000Y-70080000D01*
X89429000Y-68120000D02*
X89429000Y-66530000D01*
X89429000Y-71670000D02*
X89429000Y-70080000D01*
X89469000Y-68120000D02*
X89469000Y-66501000D01*
X89469000Y-71699000D02*
X89469000Y-70080000D01*
X89509000Y-68120000D02*
X89509000Y-66473000D01*
X89509000Y-71727000D02*
X89509000Y-70080000D01*
X89549000Y-68120000D02*
X89549000Y-66446000D01*
X89549000Y-71754000D02*
X89549000Y-70080000D01*
X89589000Y-68120000D02*
X89589000Y-66419000D01*
X89589000Y-71781000D02*
X89589000Y-70080000D01*
X89629000Y-68120000D02*
X89629000Y-66394000D01*
X89629000Y-71806000D02*
X89629000Y-70080000D01*
X89669000Y-68120000D02*
X89669000Y-66369000D01*
X89669000Y-71831000D02*
X89669000Y-70080000D01*
X89709000Y-68120000D02*
X89709000Y-66345000D01*
X89709000Y-71855000D02*
X89709000Y-70080000D01*
X89749000Y-68120000D02*
X89749000Y-66322000D01*
X89749000Y-71878000D02*
X89749000Y-70080000D01*
X89789000Y-68120000D02*
X89789000Y-66300000D01*
X89789000Y-71900000D02*
X89789000Y-70080000D01*
X89829000Y-68120000D02*
X89829000Y-66278000D01*
X89829000Y-71922000D02*
X89829000Y-70080000D01*
X89869000Y-68120000D02*
X89869000Y-66257000D01*
X89869000Y-71943000D02*
X89869000Y-70080000D01*
X89909000Y-68120000D02*
X89909000Y-66237000D01*
X89909000Y-71963000D02*
X89909000Y-70080000D01*
X89949000Y-68120000D02*
X89949000Y-66218000D01*
X89949000Y-71982000D02*
X89949000Y-70080000D01*
X89989000Y-68120000D02*
X89989000Y-66199000D01*
X89989000Y-72001000D02*
X89989000Y-70080000D01*
X90029000Y-68120000D02*
X90029000Y-66181000D01*
X90029000Y-72019000D02*
X90029000Y-70080000D01*
X90069000Y-68120000D02*
X90069000Y-66163000D01*
X90069000Y-72037000D02*
X90069000Y-70080000D01*
X90109000Y-68120000D02*
X90109000Y-66146000D01*
X90109000Y-72054000D02*
X90109000Y-70080000D01*
X90149000Y-68120000D02*
X90149000Y-66130000D01*
X90149000Y-72070000D02*
X90149000Y-70080000D01*
X90189000Y-68120000D02*
X90189000Y-66114000D01*
X90189000Y-72086000D02*
X90189000Y-70080000D01*
X90229000Y-68120000D02*
X90229000Y-66099000D01*
X90229000Y-72101000D02*
X90229000Y-70080000D01*
X90269000Y-68120000D02*
X90269000Y-66085000D01*
X90269000Y-72115000D02*
X90269000Y-70080000D01*
X90309000Y-68120000D02*
X90309000Y-66071000D01*
X90309000Y-72129000D02*
X90309000Y-70080000D01*
X90349000Y-68120000D02*
X90349000Y-66058000D01*
X90349000Y-72142000D02*
X90349000Y-70080000D01*
X90389000Y-68120000D02*
X90389000Y-66045000D01*
X90389000Y-72155000D02*
X90389000Y-70080000D01*
X90429000Y-68120000D02*
X90429000Y-66033000D01*
X90429000Y-72167000D02*
X90429000Y-70080000D01*
X90469000Y-68120000D02*
X90469000Y-66021000D01*
X90469000Y-72179000D02*
X90469000Y-70080000D01*
X90509000Y-68120000D02*
X90509000Y-66010000D01*
X90509000Y-72190000D02*
X90509000Y-70080000D01*
X90549000Y-68120000D02*
X90549000Y-66000000D01*
X90549000Y-72200000D02*
X90549000Y-70080000D01*
X90589000Y-68120000D02*
X90589000Y-65990000D01*
X90589000Y-72210000D02*
X90589000Y-70080000D01*
X90629000Y-68120000D02*
X90629000Y-65981000D01*
X90629000Y-72219000D02*
X90629000Y-70080000D01*
X90670000Y-68120000D02*
X90670000Y-65972000D01*
X90670000Y-72228000D02*
X90670000Y-70080000D01*
X90710000Y-68120000D02*
X90710000Y-65963000D01*
X90710000Y-72237000D02*
X90710000Y-70080000D01*
X90750000Y-68120000D02*
X90750000Y-65956000D01*
X90750000Y-72244000D02*
X90750000Y-70080000D01*
X90790000Y-68120000D02*
X90790000Y-65948000D01*
X90790000Y-72252000D02*
X90790000Y-70080000D01*
X90830000Y-68120000D02*
X90830000Y-65942000D01*
X90830000Y-72258000D02*
X90830000Y-70080000D01*
X90870000Y-68120000D02*
X90870000Y-65935000D01*
X90870000Y-72265000D02*
X90870000Y-70080000D01*
X90910000Y-68120000D02*
X90910000Y-65930000D01*
X90910000Y-72270000D02*
X90910000Y-70080000D01*
X90950000Y-68120000D02*
X90950000Y-65924000D01*
X90950000Y-72276000D02*
X90950000Y-70080000D01*
X90990000Y-68120000D02*
X90990000Y-65920000D01*
X90990000Y-72280000D02*
X90990000Y-70080000D01*
X91030000Y-68120000D02*
X91030000Y-65915000D01*
X91030000Y-72285000D02*
X91030000Y-70080000D01*
X91070000Y-68120000D02*
X91070000Y-65912000D01*
X91070000Y-72288000D02*
X91070000Y-70080000D01*
X91110000Y-72292000D02*
X91110000Y-65908000D01*
X91150000Y-72294000D02*
X91150000Y-65906000D01*
X91190000Y-72297000D02*
X91190000Y-65903000D01*
X91230000Y-72298000D02*
X91230000Y-65902000D01*
X91270000Y-72300000D02*
X91270000Y-65900000D01*
X91310000Y-72300000D02*
X91310000Y-65900000D01*
X91350000Y-72300000D02*
X91350000Y-65900000D01*
X88332180Y-67920864D02*
G75*
G03X88332518Y-70280000I3017820J-1179136D01*
G01*
X88332180Y-67920864D02*
G75*
G02X94367482Y-67920000I3017820J-1179136D01*
G01*
X88332180Y-70279136D02*
G75*
G03X94367482Y-70280000I3017820J1179136D01*
G01*
X79332180Y-70279136D02*
G75*
G03X85367482Y-70280000I3017820J1179136D01*
G01*
X79332180Y-67920864D02*
G75*
G02X85367482Y-67920000I3017820J-1179136D01*
G01*
X79332180Y-67920864D02*
G75*
G03X79332518Y-70280000I3017820J-1179136D01*
G01*
X82350000Y-72300000D02*
X82350000Y-65900000D01*
X82310000Y-72300000D02*
X82310000Y-65900000D01*
X82270000Y-72300000D02*
X82270000Y-65900000D01*
X82230000Y-72298000D02*
X82230000Y-65902000D01*
X82190000Y-72297000D02*
X82190000Y-65903000D01*
X82150000Y-72294000D02*
X82150000Y-65906000D01*
X82110000Y-72292000D02*
X82110000Y-65908000D01*
X82070000Y-72288000D02*
X82070000Y-70080000D01*
X82070000Y-68120000D02*
X82070000Y-65912000D01*
X82030000Y-72285000D02*
X82030000Y-70080000D01*
X82030000Y-68120000D02*
X82030000Y-65915000D01*
X81990000Y-72280000D02*
X81990000Y-70080000D01*
X81990000Y-68120000D02*
X81990000Y-65920000D01*
X81950000Y-72276000D02*
X81950000Y-70080000D01*
X81950000Y-68120000D02*
X81950000Y-65924000D01*
X81910000Y-72270000D02*
X81910000Y-70080000D01*
X81910000Y-68120000D02*
X81910000Y-65930000D01*
X81870000Y-72265000D02*
X81870000Y-70080000D01*
X81870000Y-68120000D02*
X81870000Y-65935000D01*
X81830000Y-72258000D02*
X81830000Y-70080000D01*
X81830000Y-68120000D02*
X81830000Y-65942000D01*
X81790000Y-72252000D02*
X81790000Y-70080000D01*
X81790000Y-68120000D02*
X81790000Y-65948000D01*
X81750000Y-72244000D02*
X81750000Y-70080000D01*
X81750000Y-68120000D02*
X81750000Y-65956000D01*
X81710000Y-72237000D02*
X81710000Y-70080000D01*
X81710000Y-68120000D02*
X81710000Y-65963000D01*
X81670000Y-72228000D02*
X81670000Y-70080000D01*
X81670000Y-68120000D02*
X81670000Y-65972000D01*
X81629000Y-72219000D02*
X81629000Y-70080000D01*
X81629000Y-68120000D02*
X81629000Y-65981000D01*
X81589000Y-72210000D02*
X81589000Y-70080000D01*
X81589000Y-68120000D02*
X81589000Y-65990000D01*
X81549000Y-72200000D02*
X81549000Y-70080000D01*
X81549000Y-68120000D02*
X81549000Y-66000000D01*
X81509000Y-72190000D02*
X81509000Y-70080000D01*
X81509000Y-68120000D02*
X81509000Y-66010000D01*
X81469000Y-72179000D02*
X81469000Y-70080000D01*
X81469000Y-68120000D02*
X81469000Y-66021000D01*
X81429000Y-72167000D02*
X81429000Y-70080000D01*
X81429000Y-68120000D02*
X81429000Y-66033000D01*
X81389000Y-72155000D02*
X81389000Y-70080000D01*
X81389000Y-68120000D02*
X81389000Y-66045000D01*
X81349000Y-72142000D02*
X81349000Y-70080000D01*
X81349000Y-68120000D02*
X81349000Y-66058000D01*
X81309000Y-72129000D02*
X81309000Y-70080000D01*
X81309000Y-68120000D02*
X81309000Y-66071000D01*
X81269000Y-72115000D02*
X81269000Y-70080000D01*
X81269000Y-68120000D02*
X81269000Y-66085000D01*
X81229000Y-72101000D02*
X81229000Y-70080000D01*
X81229000Y-68120000D02*
X81229000Y-66099000D01*
X81189000Y-72086000D02*
X81189000Y-70080000D01*
X81189000Y-68120000D02*
X81189000Y-66114000D01*
X81149000Y-72070000D02*
X81149000Y-70080000D01*
X81149000Y-68120000D02*
X81149000Y-66130000D01*
X81109000Y-72054000D02*
X81109000Y-70080000D01*
X81109000Y-68120000D02*
X81109000Y-66146000D01*
X81069000Y-72037000D02*
X81069000Y-70080000D01*
X81069000Y-68120000D02*
X81069000Y-66163000D01*
X81029000Y-72019000D02*
X81029000Y-70080000D01*
X81029000Y-68120000D02*
X81029000Y-66181000D01*
X80989000Y-72001000D02*
X80989000Y-70080000D01*
X80989000Y-68120000D02*
X80989000Y-66199000D01*
X80949000Y-71982000D02*
X80949000Y-70080000D01*
X80949000Y-68120000D02*
X80949000Y-66218000D01*
X80909000Y-71963000D02*
X80909000Y-70080000D01*
X80909000Y-68120000D02*
X80909000Y-66237000D01*
X80869000Y-71943000D02*
X80869000Y-70080000D01*
X80869000Y-68120000D02*
X80869000Y-66257000D01*
X80829000Y-71922000D02*
X80829000Y-70080000D01*
X80829000Y-68120000D02*
X80829000Y-66278000D01*
X80789000Y-71900000D02*
X80789000Y-70080000D01*
X80789000Y-68120000D02*
X80789000Y-66300000D01*
X80749000Y-71878000D02*
X80749000Y-70080000D01*
X80749000Y-68120000D02*
X80749000Y-66322000D01*
X80709000Y-71855000D02*
X80709000Y-70080000D01*
X80709000Y-68120000D02*
X80709000Y-66345000D01*
X80669000Y-71831000D02*
X80669000Y-70080000D01*
X80669000Y-68120000D02*
X80669000Y-66369000D01*
X80629000Y-71806000D02*
X80629000Y-70080000D01*
X80629000Y-68120000D02*
X80629000Y-66394000D01*
X80589000Y-71781000D02*
X80589000Y-70080000D01*
X80589000Y-68120000D02*
X80589000Y-66419000D01*
X80549000Y-71754000D02*
X80549000Y-70080000D01*
X80549000Y-68120000D02*
X80549000Y-66446000D01*
X80509000Y-71727000D02*
X80509000Y-70080000D01*
X80509000Y-68120000D02*
X80509000Y-66473000D01*
X80469000Y-71699000D02*
X80469000Y-70080000D01*
X80469000Y-68120000D02*
X80469000Y-66501000D01*
X80429000Y-71670000D02*
X80429000Y-70080000D01*
X80429000Y-68120000D02*
X80429000Y-66530000D01*
X80389000Y-71640000D02*
X80389000Y-70080000D01*
X80389000Y-68120000D02*
X80389000Y-66560000D01*
X80349000Y-71610000D02*
X80349000Y-70080000D01*
X80349000Y-68120000D02*
X80349000Y-66590000D01*
X80309000Y-71578000D02*
X80309000Y-70080000D01*
X80309000Y-68120000D02*
X80309000Y-66622000D01*
X80269000Y-71545000D02*
X80269000Y-70080000D01*
X80269000Y-68120000D02*
X80269000Y-66655000D01*
X80229000Y-71511000D02*
X80229000Y-70080000D01*
X80229000Y-68120000D02*
X80229000Y-66689000D01*
X80189000Y-71475000D02*
X80189000Y-70080000D01*
X80189000Y-68120000D02*
X80189000Y-66725000D01*
X80149000Y-71439000D02*
X80149000Y-70080000D01*
X80149000Y-68120000D02*
X80149000Y-66761000D01*
X80109000Y-71401000D02*
X80109000Y-66799000D01*
X80069000Y-71362000D02*
X80069000Y-66838000D01*
X80029000Y-71322000D02*
X80029000Y-66878000D01*
X79989000Y-71280000D02*
X79989000Y-66920000D01*
X79949000Y-71237000D02*
X79949000Y-66963000D01*
X79909000Y-71192000D02*
X79909000Y-67008000D01*
X79869000Y-71145000D02*
X79869000Y-67055000D01*
X79829000Y-71097000D02*
X79829000Y-67103000D01*
X79789000Y-71046000D02*
X79789000Y-67154000D01*
X79749000Y-70994000D02*
X79749000Y-67206000D01*
X79709000Y-70939000D02*
X79709000Y-67261000D01*
X79669000Y-70881000D02*
X79669000Y-67319000D01*
X79629000Y-70821000D02*
X79629000Y-67379000D01*
X79589000Y-70758000D02*
X79589000Y-67442000D01*
X79549000Y-70691000D02*
X79549000Y-67509000D01*
X79509000Y-70620000D02*
X79509000Y-67580000D01*
X79469000Y-70545000D02*
X79469000Y-67655000D01*
X79429000Y-70464000D02*
X79429000Y-67736000D01*
X79389000Y-70378000D02*
X79389000Y-67822000D01*
X79349000Y-70284000D02*
X79349000Y-67916000D01*
X79309000Y-70181000D02*
X79309000Y-68019000D01*
X79269000Y-70066000D02*
X79269000Y-68134000D01*
X79229000Y-69934000D02*
X79229000Y-68266000D01*
X79189000Y-69776000D02*
X79189000Y-68424000D01*
X79149000Y-69568000D02*
X79149000Y-68632000D01*
X85800000Y-69100000D02*
X84600000Y-69100000D01*
X85200000Y-69750000D02*
X85200000Y-68450000D01*
X32085000Y-67290000D02*
X32085000Y-69910000D01*
X26965000Y-67290000D02*
X26965000Y-69910000D01*
X26965000Y-69910000D02*
X32085000Y-69910000D01*
X26965000Y-67290000D02*
X32085000Y-67290000D01*
X38810000Y-87040000D02*
X38810000Y-89660000D01*
X33690000Y-87040000D02*
X33690000Y-89660000D01*
X33690000Y-89660000D02*
X38810000Y-89660000D01*
X33690000Y-87040000D02*
X38810000Y-87040000D01*
X57690000Y-87290000D02*
X60810000Y-87290000D01*
X57690000Y-89410000D02*
X60810000Y-89410000D01*
X57690000Y-87290000D02*
X57690000Y-87354000D01*
X57690000Y-89346000D02*
X57690000Y-89410000D01*
X60810000Y-87290000D02*
X60810000Y-87354000D01*
X60810000Y-89346000D02*
X60810000Y-89410000D01*
X59090000Y-70510000D02*
X61910000Y-70510000D01*
X60500000Y-65960000D02*
X60500000Y-66030000D01*
X60500000Y-71420000D02*
X60500000Y-71350000D01*
X59090000Y-66030000D02*
X59090000Y-71350000D01*
X61910000Y-66030000D02*
X59090000Y-66030000D01*
X61910000Y-71350000D02*
X61910000Y-66030000D01*
X59090000Y-71350000D02*
X61910000Y-71350000D01*
X54090000Y-71350000D02*
X56910000Y-71350000D01*
X56910000Y-71350000D02*
X56910000Y-66030000D01*
X56910000Y-66030000D02*
X54090000Y-66030000D01*
X54090000Y-66030000D02*
X54090000Y-71350000D01*
X55500000Y-71420000D02*
X55500000Y-71350000D01*
X55500000Y-65960000D02*
X55500000Y-66030000D01*
X54090000Y-70510000D02*
X56910000Y-70510000D01*
X99380000Y-75220000D02*
X99860000Y-75220000D01*
X99860000Y-75220000D02*
X99860000Y-82940000D01*
X99860000Y-82940000D02*
X99380000Y-82940000D01*
X96620000Y-75220000D02*
X96140000Y-75220000D01*
X96140000Y-75220000D02*
X96140000Y-82940000D01*
X96140000Y-82940000D02*
X96620000Y-82940000D01*
X99860000Y-76420000D02*
X96140000Y-76420000D01*
X99860000Y-92420000D02*
X96140000Y-92420000D01*
X96140000Y-98940000D02*
X96620000Y-98940000D01*
X96140000Y-91220000D02*
X96140000Y-98940000D01*
X96620000Y-91220000D02*
X96140000Y-91220000D01*
X99860000Y-98940000D02*
X99380000Y-98940000D01*
X99860000Y-91220000D02*
X99860000Y-98940000D01*
X99380000Y-91220000D02*
X99860000Y-91220000D01*
X26920000Y-78070000D02*
X28250000Y-78070000D01*
X26920000Y-79400000D02*
X26920000Y-78070000D01*
X29520000Y-78070000D02*
X32120000Y-78070000D01*
X29520000Y-80670000D02*
X29520000Y-78070000D01*
X26920000Y-80670000D02*
X29520000Y-80670000D01*
X32120000Y-78070000D02*
X32120000Y-85810000D01*
X26920000Y-80670000D02*
X26920000Y-85810000D01*
X26920000Y-85810000D02*
X32120000Y-85810000D01*
X99330000Y-103670000D02*
X99330000Y-105000000D01*
X98000000Y-103670000D02*
X99330000Y-103670000D01*
X99330000Y-106270000D02*
X99330000Y-108870000D01*
X96730000Y-106270000D02*
X99330000Y-106270000D01*
X96730000Y-103670000D02*
X96730000Y-106270000D01*
X99330000Y-108870000D02*
X86510000Y-108870000D01*
X96730000Y-103670000D02*
X86510000Y-103670000D01*
X86510000Y-103670000D02*
X86510000Y-108870000D01*
X35020000Y-72000000D02*
X34690000Y-72000000D01*
X34690000Y-72000000D02*
X34690000Y-65580000D01*
X34690000Y-65580000D02*
X35020000Y-65580000D01*
X36980000Y-72000000D02*
X37310000Y-72000000D01*
X37310000Y-72000000D02*
X37310000Y-65580000D01*
X37310000Y-65580000D02*
X36980000Y-65580000D01*
X66980000Y-65600000D02*
X67310000Y-65600000D01*
X67310000Y-65600000D02*
X67310000Y-72020000D01*
X67310000Y-72020000D02*
X66980000Y-72020000D01*
X65020000Y-65600000D02*
X64690000Y-65600000D01*
X64690000Y-65600000D02*
X64690000Y-72020000D01*
X64690000Y-72020000D02*
X65020000Y-72020000D01*
X37620000Y-100000000D02*
X37290000Y-100000000D01*
X37290000Y-100000000D02*
X37290000Y-93580000D01*
X37290000Y-93580000D02*
X37620000Y-93580000D01*
X39580000Y-100000000D02*
X39910000Y-100000000D01*
X39910000Y-100000000D02*
X39910000Y-93580000D01*
X39910000Y-93580000D02*
X39580000Y-93580000D01*
X63810000Y-54180000D02*
X63480000Y-54180000D01*
X63810000Y-60600000D02*
X63810000Y-54180000D01*
X63480000Y-60600000D02*
X63810000Y-60600000D01*
X61190000Y-54180000D02*
X61520000Y-54180000D01*
X61190000Y-60600000D02*
X61190000Y-54180000D01*
X61520000Y-60600000D02*
X61190000Y-60600000D01*
X67810000Y-54180000D02*
X67480000Y-54180000D01*
X67810000Y-60600000D02*
X67810000Y-54180000D01*
X67480000Y-60600000D02*
X67810000Y-60600000D01*
X65190000Y-54180000D02*
X65520000Y-54180000D01*
X65190000Y-60600000D02*
X65190000Y-54180000D01*
X65520000Y-60600000D02*
X65190000Y-60600000D01*
X45520000Y-60600000D02*
X45190000Y-60600000D01*
X45190000Y-60600000D02*
X45190000Y-54180000D01*
X45190000Y-54180000D02*
X45520000Y-54180000D01*
X47480000Y-60600000D02*
X47810000Y-60600000D01*
X47810000Y-60600000D02*
X47810000Y-54180000D01*
X47810000Y-54180000D02*
X47480000Y-54180000D01*
X51810000Y-54180000D02*
X51480000Y-54180000D01*
X51810000Y-60600000D02*
X51810000Y-54180000D01*
X51480000Y-60600000D02*
X51810000Y-60600000D01*
X49190000Y-54180000D02*
X49520000Y-54180000D01*
X49190000Y-60600000D02*
X49190000Y-54180000D01*
X49520000Y-60600000D02*
X49190000Y-60600000D01*
X44967142Y-93580000D02*
X44637142Y-93580000D01*
X44967142Y-100000000D02*
X44967142Y-93580000D01*
X44637142Y-100000000D02*
X44967142Y-100000000D01*
X42347142Y-93580000D02*
X42677142Y-93580000D01*
X42347142Y-100000000D02*
X42347142Y-93580000D01*
X42677142Y-100000000D02*
X42347142Y-100000000D01*
X39810000Y-54180000D02*
X39480000Y-54180000D01*
X39810000Y-60600000D02*
X39810000Y-54180000D01*
X39480000Y-60600000D02*
X39810000Y-60600000D01*
X37190000Y-54180000D02*
X37520000Y-54180000D01*
X37190000Y-60600000D02*
X37190000Y-54180000D01*
X37520000Y-60600000D02*
X37190000Y-60600000D01*
X41520000Y-60600000D02*
X41190000Y-60600000D01*
X41190000Y-60600000D02*
X41190000Y-54180000D01*
X41190000Y-54180000D02*
X41520000Y-54180000D01*
X43480000Y-60600000D02*
X43810000Y-60600000D01*
X43810000Y-60600000D02*
X43810000Y-54180000D01*
X43810000Y-54180000D02*
X43480000Y-54180000D01*
X55810000Y-54180000D02*
X55480000Y-54180000D01*
X55810000Y-60600000D02*
X55810000Y-54180000D01*
X55480000Y-60600000D02*
X55810000Y-60600000D01*
X53190000Y-54180000D02*
X53520000Y-54180000D01*
X53190000Y-60600000D02*
X53190000Y-54180000D01*
X53520000Y-60600000D02*
X53190000Y-60600000D01*
X57520000Y-60600000D02*
X57190000Y-60600000D01*
X57190000Y-60600000D02*
X57190000Y-54180000D01*
X57190000Y-54180000D02*
X57520000Y-54180000D01*
X59480000Y-60600000D02*
X59810000Y-60600000D01*
X59810000Y-60600000D02*
X59810000Y-54180000D01*
X59810000Y-54180000D02*
X59480000Y-54180000D01*
X50024284Y-93580000D02*
X49694284Y-93580000D01*
X50024284Y-100000000D02*
X50024284Y-93580000D01*
X49694284Y-100000000D02*
X50024284Y-100000000D01*
X47404284Y-93580000D02*
X47734284Y-93580000D01*
X47404284Y-100000000D02*
X47404284Y-93580000D01*
X47734284Y-100000000D02*
X47404284Y-100000000D01*
X59808568Y-93550000D02*
X60138568Y-93550000D01*
X60138568Y-93550000D02*
X60138568Y-99970000D01*
X60138568Y-99970000D02*
X59808568Y-99970000D01*
X57848568Y-93550000D02*
X57518568Y-93550000D01*
X57518568Y-93550000D02*
X57518568Y-99970000D01*
X57518568Y-99970000D02*
X57848568Y-99970000D01*
X55081426Y-93580000D02*
X54751426Y-93580000D01*
X55081426Y-100000000D02*
X55081426Y-93580000D01*
X54751426Y-100000000D02*
X55081426Y-100000000D01*
X52461426Y-93580000D02*
X52791426Y-93580000D01*
X52461426Y-100000000D02*
X52461426Y-93580000D01*
X52791426Y-100000000D02*
X52461426Y-100000000D01*
X73020000Y-100000000D02*
X72690000Y-100000000D01*
X72690000Y-100000000D02*
X72690000Y-93580000D01*
X72690000Y-93580000D02*
X73020000Y-93580000D01*
X74980000Y-100000000D02*
X75310000Y-100000000D01*
X75310000Y-100000000D02*
X75310000Y-93580000D01*
X75310000Y-93580000D02*
X74980000Y-93580000D01*
X62575710Y-99970000D02*
X62905710Y-99970000D01*
X62575710Y-93550000D02*
X62575710Y-99970000D01*
X62905710Y-93550000D02*
X62575710Y-93550000D01*
X65195710Y-99970000D02*
X64865710Y-99970000D01*
X65195710Y-93550000D02*
X65195710Y-99970000D01*
X64865710Y-93550000D02*
X65195710Y-93550000D01*
X67962852Y-100000000D02*
X67632852Y-100000000D01*
X67632852Y-100000000D02*
X67632852Y-93580000D01*
X67632852Y-93580000D02*
X67962852Y-93580000D01*
X69922852Y-100000000D02*
X70252852Y-100000000D01*
X70252852Y-100000000D02*
X70252852Y-93580000D01*
X70252852Y-93580000D02*
X69922852Y-93580000D01*
X95610000Y-56420000D02*
X98234000Y-56420000D01*
X95610000Y-58960000D02*
X98234000Y-58960000D01*
X95610000Y-61500000D02*
X98250000Y-61500000D01*
X79720000Y-53840000D02*
X95610000Y-53840000D01*
X79720000Y-64080000D02*
X95610000Y-64080000D01*
X79720000Y-64080000D02*
X79720000Y-53840000D01*
X95610000Y-64080000D02*
X95610000Y-53840000D01*
D13*
X27975000Y-55575000D02*
X27975000Y-56975000D01*
X33075000Y-55575000D02*
X33075000Y-51425000D01*
X27925000Y-55575000D02*
X27925000Y-51425000D01*
X33075000Y-55575000D02*
X32930000Y-55575000D01*
X33075000Y-51425000D02*
X32930000Y-51425000D01*
X27925000Y-51425000D02*
X28070000Y-51425000D01*
X27925000Y-55575000D02*
X27975000Y-55575000D01*
D12*
X93230000Y-83360000D02*
X93230000Y-81710000D01*
X82950000Y-83360000D02*
X93230000Y-83360000D01*
X82950000Y-78060000D02*
X82950000Y-83360000D01*
X93230000Y-78060000D02*
X82950000Y-78060000D01*
X93230000Y-79710000D02*
X93230000Y-78060000D01*
X93230000Y-81710000D02*
G75*
G02X93230000Y-79710000I0J1000000D01*
G01*
X42425000Y-68475000D02*
G75*
G03X42425000Y-73525000I0J-2525000D01*
G01*
X48675000Y-68475000D02*
G75*
G02X48675000Y-73525000I0J-2525000D01*
G01*
X48675000Y-68475000D02*
X42425000Y-68475000D01*
X48675000Y-73525000D02*
X42425000Y-73525000D01*
D13*
X27897034Y-91307480D02*
X27897034Y-92117004D01*
X27944653Y-92212242D01*
X27992272Y-92259861D01*
X28087510Y-92307480D01*
X28277986Y-92307480D01*
X28373224Y-92259861D01*
X28420843Y-92212242D01*
X28468462Y-92117004D01*
X28468462Y-91307480D01*
X29468462Y-92307480D02*
X28897034Y-92307480D01*
X29182748Y-92307480D02*
X29182748Y-91307480D01*
X29087510Y-91450338D01*
X28992272Y-91545576D01*
X28897034Y-91593195D01*
X30087510Y-91307480D02*
X30182748Y-91307480D01*
X30277986Y-91355100D01*
X30325605Y-91402719D01*
X30373224Y-91497957D01*
X30420843Y-91688433D01*
X30420843Y-91926528D01*
X30373224Y-92117004D01*
X30325605Y-92212242D01*
X30277986Y-92259861D01*
X30182748Y-92307480D01*
X30087510Y-92307480D01*
X29992272Y-92259861D01*
X29944653Y-92212242D01*
X29897034Y-92117004D01*
X29849415Y-91926528D01*
X29849415Y-91688433D01*
X29897034Y-91497957D01*
X29944653Y-91402719D01*
X29992272Y-91355100D01*
X30087510Y-91307480D01*
X30801796Y-91402719D02*
X30849415Y-91355100D01*
X30944653Y-91307480D01*
X31182748Y-91307480D01*
X31277986Y-91355100D01*
X31325605Y-91402719D01*
X31373224Y-91497957D01*
X31373224Y-91593195D01*
X31325605Y-91736052D01*
X30754177Y-92307480D01*
X31373224Y-92307480D01*
X54600080Y-46487619D02*
X54504842Y-46440000D01*
X54409604Y-46344761D01*
X54266747Y-46201904D01*
X54171509Y-46154285D01*
X54076271Y-46154285D01*
X54123890Y-46392380D02*
X54028652Y-46344761D01*
X53933414Y-46249523D01*
X53885795Y-46059047D01*
X53885795Y-45725714D01*
X53933414Y-45535238D01*
X54028652Y-45440000D01*
X54123890Y-45392380D01*
X54314366Y-45392380D01*
X54409604Y-45440000D01*
X54504842Y-45535238D01*
X54552461Y-45725714D01*
X54552461Y-46059047D01*
X54504842Y-46249523D01*
X54409604Y-46344761D01*
X54314366Y-46392380D01*
X54123890Y-46392380D01*
X55504842Y-46392380D02*
X54933414Y-46392380D01*
X55219128Y-46392380D02*
X55219128Y-45392380D01*
X55123890Y-45535238D01*
X55028652Y-45630476D01*
X54933414Y-45678095D01*
X56123890Y-45392380D02*
X56219128Y-45392380D01*
X56314366Y-45440000D01*
X56361985Y-45487619D01*
X56409604Y-45582857D01*
X56457223Y-45773333D01*
X56457223Y-46011428D01*
X56409604Y-46201904D01*
X56361985Y-46297142D01*
X56314366Y-46344761D01*
X56219128Y-46392380D01*
X56123890Y-46392380D01*
X56028652Y-46344761D01*
X55981033Y-46297142D01*
X55933414Y-46201904D01*
X55885795Y-46011428D01*
X55885795Y-45773333D01*
X55933414Y-45582857D01*
X55981033Y-45487619D01*
X56028652Y-45440000D01*
X56123890Y-45392380D01*
X57314366Y-45725714D02*
X57314366Y-46392380D01*
X57076271Y-45344761D02*
X56838176Y-46059047D01*
X57457223Y-46059047D01*
X38600080Y-46487619D02*
X38504842Y-46440000D01*
X38409604Y-46344761D01*
X38266747Y-46201904D01*
X38171509Y-46154285D01*
X38076271Y-46154285D01*
X38123890Y-46392380D02*
X38028652Y-46344761D01*
X37933414Y-46249523D01*
X37885795Y-46059047D01*
X37885795Y-45725714D01*
X37933414Y-45535238D01*
X38028652Y-45440000D01*
X38123890Y-45392380D01*
X38314366Y-45392380D01*
X38409604Y-45440000D01*
X38504842Y-45535238D01*
X38552461Y-45725714D01*
X38552461Y-46059047D01*
X38504842Y-46249523D01*
X38409604Y-46344761D01*
X38314366Y-46392380D01*
X38123890Y-46392380D01*
X39504842Y-46392380D02*
X38933414Y-46392380D01*
X39219128Y-46392380D02*
X39219128Y-45392380D01*
X39123890Y-45535238D01*
X39028652Y-45630476D01*
X38933414Y-45678095D01*
X40123890Y-45392380D02*
X40219128Y-45392380D01*
X40314366Y-45440000D01*
X40361985Y-45487619D01*
X40409604Y-45582857D01*
X40457223Y-45773333D01*
X40457223Y-46011428D01*
X40409604Y-46201904D01*
X40361985Y-46297142D01*
X40314366Y-46344761D01*
X40219128Y-46392380D01*
X40123890Y-46392380D01*
X40028652Y-46344761D01*
X39981033Y-46297142D01*
X39933414Y-46201904D01*
X39885795Y-46011428D01*
X39885795Y-45773333D01*
X39933414Y-45582857D01*
X39981033Y-45487619D01*
X40028652Y-45440000D01*
X40123890Y-45392380D01*
X40790557Y-45392380D02*
X41409604Y-45392380D01*
X41076271Y-45773333D01*
X41219128Y-45773333D01*
X41314366Y-45820952D01*
X41361985Y-45868571D01*
X41409604Y-45963809D01*
X41409604Y-46201904D01*
X41361985Y-46297142D01*
X41314366Y-46344761D01*
X41219128Y-46392380D01*
X40933414Y-46392380D01*
X40838176Y-46344761D01*
X40790557Y-46297142D01*
X46600080Y-46487619D02*
X46504842Y-46440000D01*
X46409604Y-46344761D01*
X46266747Y-46201904D01*
X46171509Y-46154285D01*
X46076271Y-46154285D01*
X46123890Y-46392380D02*
X46028652Y-46344761D01*
X45933414Y-46249523D01*
X45885795Y-46059047D01*
X45885795Y-45725714D01*
X45933414Y-45535238D01*
X46028652Y-45440000D01*
X46123890Y-45392380D01*
X46314366Y-45392380D01*
X46409604Y-45440000D01*
X46504842Y-45535238D01*
X46552461Y-45725714D01*
X46552461Y-46059047D01*
X46504842Y-46249523D01*
X46409604Y-46344761D01*
X46314366Y-46392380D01*
X46123890Y-46392380D01*
X47504842Y-46392380D02*
X46933414Y-46392380D01*
X47219128Y-46392380D02*
X47219128Y-45392380D01*
X47123890Y-45535238D01*
X47028652Y-45630476D01*
X46933414Y-45678095D01*
X48123890Y-45392380D02*
X48219128Y-45392380D01*
X48314366Y-45440000D01*
X48361985Y-45487619D01*
X48409604Y-45582857D01*
X48457223Y-45773333D01*
X48457223Y-46011428D01*
X48409604Y-46201904D01*
X48361985Y-46297142D01*
X48314366Y-46344761D01*
X48219128Y-46392380D01*
X48123890Y-46392380D01*
X48028652Y-46344761D01*
X47981033Y-46297142D01*
X47933414Y-46201904D01*
X47885795Y-46011428D01*
X47885795Y-45773333D01*
X47933414Y-45582857D01*
X47981033Y-45487619D01*
X48028652Y-45440000D01*
X48123890Y-45392380D01*
X48838176Y-45487619D02*
X48885795Y-45440000D01*
X48981033Y-45392380D01*
X49219128Y-45392380D01*
X49314366Y-45440000D01*
X49361985Y-45487619D01*
X49409604Y-45582857D01*
X49409604Y-45678095D01*
X49361985Y-45820952D01*
X48790557Y-46392380D01*
X49409604Y-46392380D01*
X62600080Y-46487619D02*
X62504842Y-46440000D01*
X62409604Y-46344761D01*
X62266747Y-46201904D01*
X62171509Y-46154285D01*
X62076271Y-46154285D01*
X62123890Y-46392380D02*
X62028652Y-46344761D01*
X61933414Y-46249523D01*
X61885795Y-46059047D01*
X61885795Y-45725714D01*
X61933414Y-45535238D01*
X62028652Y-45440000D01*
X62123890Y-45392380D01*
X62314366Y-45392380D01*
X62409604Y-45440000D01*
X62504842Y-45535238D01*
X62552461Y-45725714D01*
X62552461Y-46059047D01*
X62504842Y-46249523D01*
X62409604Y-46344761D01*
X62314366Y-46392380D01*
X62123890Y-46392380D01*
X63504842Y-46392380D02*
X62933414Y-46392380D01*
X63219128Y-46392380D02*
X63219128Y-45392380D01*
X63123890Y-45535238D01*
X63028652Y-45630476D01*
X62933414Y-45678095D01*
X64123890Y-45392380D02*
X64219128Y-45392380D01*
X64314366Y-45440000D01*
X64361985Y-45487619D01*
X64409604Y-45582857D01*
X64457223Y-45773333D01*
X64457223Y-46011428D01*
X64409604Y-46201904D01*
X64361985Y-46297142D01*
X64314366Y-46344761D01*
X64219128Y-46392380D01*
X64123890Y-46392380D01*
X64028652Y-46344761D01*
X63981033Y-46297142D01*
X63933414Y-46201904D01*
X63885795Y-46011428D01*
X63885795Y-45773333D01*
X63933414Y-45582857D01*
X63981033Y-45487619D01*
X64028652Y-45440000D01*
X64123890Y-45392380D01*
X65409604Y-46392380D02*
X64838176Y-46392380D01*
X65123890Y-46392380D02*
X65123890Y-45392380D01*
X65028652Y-45535238D01*
X64933414Y-45630476D01*
X64838176Y-45678095D01*
X77717792Y-91049242D02*
X77670173Y-91096861D01*
X77527316Y-91144480D01*
X77432078Y-91144480D01*
X77289220Y-91096861D01*
X77193982Y-91001623D01*
X77146363Y-90906385D01*
X77098744Y-90715909D01*
X77098744Y-90573052D01*
X77146363Y-90382576D01*
X77193982Y-90287338D01*
X77289220Y-90192100D01*
X77432078Y-90144480D01*
X77527316Y-90144480D01*
X77670173Y-90192100D01*
X77717792Y-90239719D01*
X78670173Y-91144480D02*
X78098744Y-91144480D01*
X78384459Y-91144480D02*
X78384459Y-90144480D01*
X78289220Y-90287338D01*
X78193982Y-90382576D01*
X78098744Y-90430195D01*
X79622554Y-91144480D02*
X79051125Y-91144480D01*
X79336840Y-91144480D02*
X79336840Y-90144480D01*
X79241601Y-90287338D01*
X79146363Y-90382576D01*
X79051125Y-90430195D01*
X80479697Y-90477814D02*
X80479697Y-91144480D01*
X80241601Y-90096861D02*
X80003506Y-90811147D01*
X80622554Y-90811147D01*
X91575910Y-96620507D02*
X91575910Y-97096698D01*
X90575910Y-97096698D01*
X91575910Y-95763364D02*
X91575910Y-96334793D01*
X91575910Y-96049079D02*
X90575910Y-96049079D01*
X90718768Y-96144317D01*
X90814006Y-96239555D01*
X90861625Y-96334793D01*
X90575910Y-95144317D02*
X90575910Y-95049079D01*
X90623530Y-94953840D01*
X90671149Y-94906221D01*
X90766387Y-94858602D01*
X90956863Y-94810983D01*
X91194958Y-94810983D01*
X91385434Y-94858602D01*
X91480672Y-94906221D01*
X91528291Y-94953840D01*
X91575910Y-95049079D01*
X91575910Y-95144317D01*
X91528291Y-95239555D01*
X91480672Y-95287174D01*
X91385434Y-95334793D01*
X91194958Y-95382412D01*
X90956863Y-95382412D01*
X90766387Y-95334793D01*
X90671149Y-95287174D01*
X90623530Y-95239555D01*
X90575910Y-95144317D01*
X90575910Y-94477650D02*
X90575910Y-93858602D01*
X90956863Y-94191936D01*
X90956863Y-94049079D01*
X91004482Y-93953840D01*
X91052101Y-93906221D01*
X91147339Y-93858602D01*
X91385434Y-93858602D01*
X91480672Y-93906221D01*
X91528291Y-93953840D01*
X91575910Y-94049079D01*
X91575910Y-94334793D01*
X91528291Y-94430031D01*
X91480672Y-94477650D01*
X91042380Y-96660507D02*
X91042380Y-97136698D01*
X90042380Y-97136698D01*
X91042380Y-95803364D02*
X91042380Y-96374793D01*
X91042380Y-96089079D02*
X90042380Y-96089079D01*
X90185238Y-96184317D01*
X90280476Y-96279555D01*
X90328095Y-96374793D01*
X90042380Y-95184317D02*
X90042380Y-95089079D01*
X90090000Y-94993840D01*
X90137619Y-94946221D01*
X90232857Y-94898602D01*
X90423333Y-94850983D01*
X90661428Y-94850983D01*
X90851904Y-94898602D01*
X90947142Y-94946221D01*
X90994761Y-94993840D01*
X91042380Y-95089079D01*
X91042380Y-95184317D01*
X90994761Y-95279555D01*
X90947142Y-95327174D01*
X90851904Y-95374793D01*
X90661428Y-95422412D01*
X90423333Y-95422412D01*
X90232857Y-95374793D01*
X90137619Y-95327174D01*
X90090000Y-95279555D01*
X90042380Y-95184317D01*
X90137619Y-94470031D02*
X90090000Y-94422412D01*
X90042380Y-94327174D01*
X90042380Y-94089079D01*
X90090000Y-93993840D01*
X90137619Y-93946221D01*
X90232857Y-93898602D01*
X90328095Y-93898602D01*
X90470952Y-93946221D01*
X91042380Y-94517650D01*
X91042380Y-93898602D01*
X87289440Y-96620507D02*
X87289440Y-97096698D01*
X86289440Y-97096698D01*
X87289440Y-95763364D02*
X87289440Y-96334793D01*
X87289440Y-96049079D02*
X86289440Y-96049079D01*
X86432298Y-96144317D01*
X86527536Y-96239555D01*
X86575155Y-96334793D01*
X86289440Y-95144317D02*
X86289440Y-95049079D01*
X86337060Y-94953840D01*
X86384679Y-94906221D01*
X86479917Y-94858602D01*
X86670393Y-94810983D01*
X86908488Y-94810983D01*
X87098964Y-94858602D01*
X87194202Y-94906221D01*
X87241821Y-94953840D01*
X87289440Y-95049079D01*
X87289440Y-95144317D01*
X87241821Y-95239555D01*
X87194202Y-95287174D01*
X87098964Y-95334793D01*
X86908488Y-95382412D01*
X86670393Y-95382412D01*
X86479917Y-95334793D01*
X86384679Y-95287174D01*
X86337060Y-95239555D01*
X86289440Y-95144317D01*
X87289440Y-93858602D02*
X87289440Y-94430031D01*
X87289440Y-94144317D02*
X86289440Y-94144317D01*
X86432298Y-94239555D01*
X86527536Y-94334793D01*
X86575155Y-94430031D01*
X81652380Y-82514285D02*
X82461904Y-82514285D01*
X82557142Y-82466666D01*
X82604761Y-82419047D01*
X82652380Y-82323809D01*
X82652380Y-82133333D01*
X82604761Y-82038095D01*
X82557142Y-81990476D01*
X82461904Y-81942857D01*
X81652380Y-81942857D01*
X82652380Y-80942857D02*
X82652380Y-81514285D01*
X82652380Y-81228571D02*
X81652380Y-81228571D01*
X81795238Y-81323809D01*
X81890476Y-81419047D01*
X81938095Y-81514285D01*
X81652380Y-80323809D02*
X81652380Y-80228571D01*
X81700000Y-80133333D01*
X81747619Y-80085714D01*
X81842857Y-80038095D01*
X82033333Y-79990476D01*
X82271428Y-79990476D01*
X82461904Y-80038095D01*
X82557142Y-80085714D01*
X82604761Y-80133333D01*
X82652380Y-80228571D01*
X82652380Y-80323809D01*
X82604761Y-80419047D01*
X82557142Y-80466666D01*
X82461904Y-80514285D01*
X82271428Y-80561904D01*
X82033333Y-80561904D01*
X81842857Y-80514285D01*
X81747619Y-80466666D01*
X81700000Y-80419047D01*
X81652380Y-80323809D01*
X81652380Y-79133333D02*
X81652380Y-79323809D01*
X81700000Y-79419047D01*
X81747619Y-79466666D01*
X81890476Y-79561904D01*
X82080952Y-79609523D01*
X82461904Y-79609523D01*
X82557142Y-79561904D01*
X82604761Y-79514285D01*
X82652380Y-79419047D01*
X82652380Y-79228571D01*
X82604761Y-79133333D01*
X82557142Y-79085714D01*
X82461904Y-79038095D01*
X82223809Y-79038095D01*
X82128571Y-79085714D01*
X82080952Y-79133333D01*
X82033333Y-79228571D01*
X82033333Y-79419047D01*
X82080952Y-79514285D01*
X82128571Y-79561904D01*
X82223809Y-79609523D01*
X97130952Y-66797142D02*
X97083333Y-66844761D01*
X96940476Y-66892380D01*
X96845238Y-66892380D01*
X96702380Y-66844761D01*
X96607142Y-66749523D01*
X96559523Y-66654285D01*
X96511904Y-66463809D01*
X96511904Y-66320952D01*
X96559523Y-66130476D01*
X96607142Y-66035238D01*
X96702380Y-65940000D01*
X96845238Y-65892380D01*
X96940476Y-65892380D01*
X97083333Y-65940000D01*
X97130952Y-65987619D01*
X98083333Y-66892380D02*
X97511904Y-66892380D01*
X97797619Y-66892380D02*
X97797619Y-65892380D01*
X97702380Y-66035238D01*
X97607142Y-66130476D01*
X97511904Y-66178095D01*
X99035714Y-66892380D02*
X98464285Y-66892380D01*
X98750000Y-66892380D02*
X98750000Y-65892380D01*
X98654761Y-66035238D01*
X98559523Y-66130476D01*
X98464285Y-66178095D01*
X99940476Y-65892380D02*
X99464285Y-65892380D01*
X99416666Y-66368571D01*
X99464285Y-66320952D01*
X99559523Y-66273333D01*
X99797619Y-66273333D01*
X99892857Y-66320952D01*
X99940476Y-66368571D01*
X99988095Y-66463809D01*
X99988095Y-66701904D01*
X99940476Y-66797142D01*
X99892857Y-66844761D01*
X99797619Y-66892380D01*
X99559523Y-66892380D01*
X99464285Y-66844761D01*
X99416666Y-66797142D01*
X28255953Y-88422143D02*
X28208334Y-88469762D01*
X28065477Y-88517381D01*
X27970239Y-88517381D01*
X27827381Y-88469762D01*
X27732143Y-88374524D01*
X27684524Y-88279286D01*
X27636905Y-88088810D01*
X27636905Y-87945953D01*
X27684524Y-87755477D01*
X27732143Y-87660239D01*
X27827381Y-87565001D01*
X27970239Y-87517381D01*
X28065477Y-87517381D01*
X28208334Y-87565001D01*
X28255953Y-87612620D01*
X29208334Y-88517381D02*
X28636905Y-88517381D01*
X28922620Y-88517381D02*
X28922620Y-87517381D01*
X28827381Y-87660239D01*
X28732143Y-87755477D01*
X28636905Y-87803096D01*
X30160715Y-88517381D02*
X29589286Y-88517381D01*
X29875001Y-88517381D02*
X29875001Y-87517381D01*
X29779762Y-87660239D01*
X29684524Y-87755477D01*
X29589286Y-87803096D01*
X31017858Y-87517381D02*
X30827381Y-87517381D01*
X30732143Y-87565001D01*
X30684524Y-87612620D01*
X30589286Y-87755477D01*
X30541667Y-87945953D01*
X30541667Y-88326905D01*
X30589286Y-88422143D01*
X30636905Y-88469762D01*
X30732143Y-88517381D01*
X30922620Y-88517381D01*
X31017858Y-88469762D01*
X31065477Y-88422143D01*
X31113096Y-88326905D01*
X31113096Y-88088810D01*
X31065477Y-87993572D01*
X31017858Y-87945953D01*
X30922620Y-87898334D01*
X30732143Y-87898334D01*
X30636905Y-87945953D01*
X30589286Y-87993572D01*
X30541667Y-88088810D01*
X69782380Y-82524285D02*
X70591904Y-82524285D01*
X70687142Y-82476666D01*
X70734761Y-82429047D01*
X70782380Y-82333809D01*
X70782380Y-82143333D01*
X70734761Y-82048095D01*
X70687142Y-82000476D01*
X70591904Y-81952857D01*
X69782380Y-81952857D01*
X70782380Y-80952857D02*
X70782380Y-81524285D01*
X70782380Y-81238571D02*
X69782380Y-81238571D01*
X69925238Y-81333809D01*
X70020476Y-81429047D01*
X70068095Y-81524285D01*
X69782380Y-80333809D02*
X69782380Y-80238571D01*
X69830000Y-80143333D01*
X69877619Y-80095714D01*
X69972857Y-80048095D01*
X70163333Y-80000476D01*
X70401428Y-80000476D01*
X70591904Y-80048095D01*
X70687142Y-80095714D01*
X70734761Y-80143333D01*
X70782380Y-80238571D01*
X70782380Y-80333809D01*
X70734761Y-80429047D01*
X70687142Y-80476666D01*
X70591904Y-80524285D01*
X70401428Y-80571904D01*
X70163333Y-80571904D01*
X69972857Y-80524285D01*
X69877619Y-80476666D01*
X69830000Y-80429047D01*
X69782380Y-80333809D01*
X69782380Y-79667142D02*
X69782380Y-79048095D01*
X70163333Y-79381428D01*
X70163333Y-79238571D01*
X70210952Y-79143333D01*
X70258571Y-79095714D01*
X70353809Y-79048095D01*
X70591904Y-79048095D01*
X70687142Y-79095714D01*
X70734761Y-79143333D01*
X70782380Y-79238571D01*
X70782380Y-79524285D01*
X70734761Y-79619523D01*
X70687142Y-79667142D01*
X72230952Y-73917142D02*
X72183333Y-73964761D01*
X72040476Y-74012380D01*
X71945238Y-74012380D01*
X71802380Y-73964761D01*
X71707142Y-73869523D01*
X71659523Y-73774285D01*
X71611904Y-73583809D01*
X71611904Y-73440952D01*
X71659523Y-73250476D01*
X71707142Y-73155238D01*
X71802380Y-73060000D01*
X71945238Y-73012380D01*
X72040476Y-73012380D01*
X72183333Y-73060000D01*
X72230952Y-73107619D01*
X73183333Y-74012380D02*
X72611904Y-74012380D01*
X72897619Y-74012380D02*
X72897619Y-73012380D01*
X72802380Y-73155238D01*
X72707142Y-73250476D01*
X72611904Y-73298095D01*
X73802380Y-73012380D02*
X73897619Y-73012380D01*
X73992857Y-73060000D01*
X74040476Y-73107619D01*
X74088095Y-73202857D01*
X74135714Y-73393333D01*
X74135714Y-73631428D01*
X74088095Y-73821904D01*
X74040476Y-73917142D01*
X73992857Y-73964761D01*
X73897619Y-74012380D01*
X73802380Y-74012380D01*
X73707142Y-73964761D01*
X73659523Y-73917142D01*
X73611904Y-73821904D01*
X73564285Y-73631428D01*
X73564285Y-73393333D01*
X73611904Y-73202857D01*
X73659523Y-73107619D01*
X73707142Y-73060000D01*
X73802380Y-73012380D01*
X75088095Y-74012380D02*
X74516666Y-74012380D01*
X74802380Y-74012380D02*
X74802380Y-73012380D01*
X74707142Y-73155238D01*
X74611904Y-73250476D01*
X74516666Y-73298095D01*
X28880952Y-76767142D02*
X28833333Y-76814761D01*
X28690476Y-76862380D01*
X28595238Y-76862380D01*
X28452380Y-76814761D01*
X28357142Y-76719523D01*
X28309523Y-76624285D01*
X28261904Y-76433809D01*
X28261904Y-76290952D01*
X28309523Y-76100476D01*
X28357142Y-76005238D01*
X28452380Y-75910000D01*
X28595238Y-75862380D01*
X28690476Y-75862380D01*
X28833333Y-75910000D01*
X28880952Y-75957619D01*
X29833333Y-76862380D02*
X29261904Y-76862380D01*
X29547619Y-76862380D02*
X29547619Y-75862380D01*
X29452380Y-76005238D01*
X29357142Y-76100476D01*
X29261904Y-76148095D01*
X30452380Y-75862380D02*
X30547619Y-75862380D01*
X30642857Y-75910000D01*
X30690476Y-75957619D01*
X30738095Y-76052857D01*
X30785714Y-76243333D01*
X30785714Y-76481428D01*
X30738095Y-76671904D01*
X30690476Y-76767142D01*
X30642857Y-76814761D01*
X30547619Y-76862380D01*
X30452380Y-76862380D01*
X30357142Y-76814761D01*
X30309523Y-76767142D01*
X30261904Y-76671904D01*
X30214285Y-76481428D01*
X30214285Y-76243333D01*
X30261904Y-76052857D01*
X30309523Y-75957619D01*
X30357142Y-75910000D01*
X30452380Y-75862380D01*
X31166666Y-75957619D02*
X31214285Y-75910000D01*
X31309523Y-75862380D01*
X31547619Y-75862380D01*
X31642857Y-75910000D01*
X31690476Y-75957619D01*
X31738095Y-76052857D01*
X31738095Y-76148095D01*
X31690476Y-76290952D01*
X31119047Y-76862380D01*
X31738095Y-76862380D01*
X77630952Y-91267142D02*
X77583333Y-91314761D01*
X77440476Y-91362380D01*
X77345238Y-91362380D01*
X77202380Y-91314761D01*
X77107142Y-91219523D01*
X77059523Y-91124285D01*
X77011904Y-90933809D01*
X77011904Y-90790952D01*
X77059523Y-90600476D01*
X77107142Y-90505238D01*
X77202380Y-90410000D01*
X77345238Y-90362380D01*
X77440476Y-90362380D01*
X77583333Y-90410000D01*
X77630952Y-90457619D01*
X78583333Y-91362380D02*
X78011904Y-91362380D01*
X78297619Y-91362380D02*
X78297619Y-90362380D01*
X78202380Y-90505238D01*
X78107142Y-90600476D01*
X78011904Y-90648095D01*
X79202380Y-90362380D02*
X79297619Y-90362380D01*
X79392857Y-90410000D01*
X79440476Y-90457619D01*
X79488095Y-90552857D01*
X79535714Y-90743333D01*
X79535714Y-90981428D01*
X79488095Y-91171904D01*
X79440476Y-91267142D01*
X79392857Y-91314761D01*
X79297619Y-91362380D01*
X79202380Y-91362380D01*
X79107142Y-91314761D01*
X79059523Y-91267142D01*
X79011904Y-91171904D01*
X78964285Y-90981428D01*
X78964285Y-90743333D01*
X79011904Y-90552857D01*
X79059523Y-90457619D01*
X79107142Y-90410000D01*
X79202380Y-90362380D01*
X79869047Y-90362380D02*
X80488095Y-90362380D01*
X80154761Y-90743333D01*
X80297619Y-90743333D01*
X80392857Y-90790952D01*
X80440476Y-90838571D01*
X80488095Y-90933809D01*
X80488095Y-91171904D01*
X80440476Y-91267142D01*
X80392857Y-91314761D01*
X80297619Y-91362380D01*
X80011904Y-91362380D01*
X79916666Y-91314761D01*
X79869047Y-91267142D01*
X43080952Y-91057142D02*
X43033333Y-91104761D01*
X42890476Y-91152380D01*
X42795238Y-91152380D01*
X42652380Y-91104761D01*
X42557142Y-91009523D01*
X42509523Y-90914285D01*
X42461904Y-90723809D01*
X42461904Y-90580952D01*
X42509523Y-90390476D01*
X42557142Y-90295238D01*
X42652380Y-90200000D01*
X42795238Y-90152380D01*
X42890476Y-90152380D01*
X43033333Y-90200000D01*
X43080952Y-90247619D01*
X44033333Y-91152380D02*
X43461904Y-91152380D01*
X43747619Y-91152380D02*
X43747619Y-90152380D01*
X43652380Y-90295238D01*
X43557142Y-90390476D01*
X43461904Y-90438095D01*
X44652380Y-90152380D02*
X44747619Y-90152380D01*
X44842857Y-90200000D01*
X44890476Y-90247619D01*
X44938095Y-90342857D01*
X44985714Y-90533333D01*
X44985714Y-90771428D01*
X44938095Y-90961904D01*
X44890476Y-91057142D01*
X44842857Y-91104761D01*
X44747619Y-91152380D01*
X44652380Y-91152380D01*
X44557142Y-91104761D01*
X44509523Y-91057142D01*
X44461904Y-90961904D01*
X44414285Y-90771428D01*
X44414285Y-90533333D01*
X44461904Y-90342857D01*
X44509523Y-90247619D01*
X44557142Y-90200000D01*
X44652380Y-90152380D01*
X45842857Y-90485714D02*
X45842857Y-91152380D01*
X45604761Y-90104761D02*
X45366666Y-90819047D01*
X45985714Y-90819047D01*
X47630952Y-63547142D02*
X47583333Y-63594761D01*
X47440476Y-63642380D01*
X47345238Y-63642380D01*
X47202380Y-63594761D01*
X47107142Y-63499523D01*
X47059523Y-63404285D01*
X47011904Y-63213809D01*
X47011904Y-63070952D01*
X47059523Y-62880476D01*
X47107142Y-62785238D01*
X47202380Y-62690000D01*
X47345238Y-62642380D01*
X47440476Y-62642380D01*
X47583333Y-62690000D01*
X47630952Y-62737619D01*
X48583333Y-63642380D02*
X48011904Y-63642380D01*
X48297619Y-63642380D02*
X48297619Y-62642380D01*
X48202380Y-62785238D01*
X48107142Y-62880476D01*
X48011904Y-62928095D01*
X49202380Y-62642380D02*
X49297619Y-62642380D01*
X49392857Y-62690000D01*
X49440476Y-62737619D01*
X49488095Y-62832857D01*
X49535714Y-63023333D01*
X49535714Y-63261428D01*
X49488095Y-63451904D01*
X49440476Y-63547142D01*
X49392857Y-63594761D01*
X49297619Y-63642380D01*
X49202380Y-63642380D01*
X49107142Y-63594761D01*
X49059523Y-63547142D01*
X49011904Y-63451904D01*
X48964285Y-63261428D01*
X48964285Y-63023333D01*
X49011904Y-62832857D01*
X49059523Y-62737619D01*
X49107142Y-62690000D01*
X49202380Y-62642380D01*
X50440476Y-62642380D02*
X49964285Y-62642380D01*
X49916666Y-63118571D01*
X49964285Y-63070952D01*
X50059523Y-63023333D01*
X50297619Y-63023333D01*
X50392857Y-63070952D01*
X50440476Y-63118571D01*
X50488095Y-63213809D01*
X50488095Y-63451904D01*
X50440476Y-63547142D01*
X50392857Y-63594761D01*
X50297619Y-63642380D01*
X50059523Y-63642380D01*
X49964285Y-63594761D01*
X49916666Y-63547142D01*
X50680952Y-90957142D02*
X50633333Y-91004761D01*
X50490476Y-91052380D01*
X50395238Y-91052380D01*
X50252380Y-91004761D01*
X50157142Y-90909523D01*
X50109523Y-90814285D01*
X50061904Y-90623809D01*
X50061904Y-90480952D01*
X50109523Y-90290476D01*
X50157142Y-90195238D01*
X50252380Y-90100000D01*
X50395238Y-90052380D01*
X50490476Y-90052380D01*
X50633333Y-90100000D01*
X50680952Y-90147619D01*
X51633333Y-91052380D02*
X51061904Y-91052380D01*
X51347619Y-91052380D02*
X51347619Y-90052380D01*
X51252380Y-90195238D01*
X51157142Y-90290476D01*
X51061904Y-90338095D01*
X52252380Y-90052380D02*
X52347619Y-90052380D01*
X52442857Y-90100000D01*
X52490476Y-90147619D01*
X52538095Y-90242857D01*
X52585714Y-90433333D01*
X52585714Y-90671428D01*
X52538095Y-90861904D01*
X52490476Y-90957142D01*
X52442857Y-91004761D01*
X52347619Y-91052380D01*
X52252380Y-91052380D01*
X52157142Y-91004761D01*
X52109523Y-90957142D01*
X52061904Y-90861904D01*
X52014285Y-90671428D01*
X52014285Y-90433333D01*
X52061904Y-90242857D01*
X52109523Y-90147619D01*
X52157142Y-90100000D01*
X52252380Y-90052380D01*
X53442857Y-90052380D02*
X53252380Y-90052380D01*
X53157142Y-90100000D01*
X53109523Y-90147619D01*
X53014285Y-90290476D01*
X52966666Y-90480952D01*
X52966666Y-90861904D01*
X53014285Y-90957142D01*
X53061904Y-91004761D01*
X53157142Y-91052380D01*
X53347619Y-91052380D01*
X53442857Y-91004761D01*
X53490476Y-90957142D01*
X53538095Y-90861904D01*
X53538095Y-90623809D01*
X53490476Y-90528571D01*
X53442857Y-90480952D01*
X53347619Y-90433333D01*
X53157142Y-90433333D01*
X53061904Y-90480952D01*
X53014285Y-90528571D01*
X52966666Y-90623809D01*
X40980952Y-63657142D02*
X40933333Y-63704761D01*
X40790476Y-63752380D01*
X40695238Y-63752380D01*
X40552380Y-63704761D01*
X40457142Y-63609523D01*
X40409523Y-63514285D01*
X40361904Y-63323809D01*
X40361904Y-63180952D01*
X40409523Y-62990476D01*
X40457142Y-62895238D01*
X40552380Y-62800000D01*
X40695238Y-62752380D01*
X40790476Y-62752380D01*
X40933333Y-62800000D01*
X40980952Y-62847619D01*
X41933333Y-63752380D02*
X41361904Y-63752380D01*
X41647619Y-63752380D02*
X41647619Y-62752380D01*
X41552380Y-62895238D01*
X41457142Y-62990476D01*
X41361904Y-63038095D01*
X42552380Y-62752380D02*
X42647619Y-62752380D01*
X42742857Y-62800000D01*
X42790476Y-62847619D01*
X42838095Y-62942857D01*
X42885714Y-63133333D01*
X42885714Y-63371428D01*
X42838095Y-63561904D01*
X42790476Y-63657142D01*
X42742857Y-63704761D01*
X42647619Y-63752380D01*
X42552380Y-63752380D01*
X42457142Y-63704761D01*
X42409523Y-63657142D01*
X42361904Y-63561904D01*
X42314285Y-63371428D01*
X42314285Y-63133333D01*
X42361904Y-62942857D01*
X42409523Y-62847619D01*
X42457142Y-62800000D01*
X42552380Y-62752380D01*
X43219047Y-62752380D02*
X43885714Y-62752380D01*
X43457142Y-63752380D01*
X28080952Y-101257142D02*
X28033333Y-101304761D01*
X27890476Y-101352380D01*
X27795238Y-101352380D01*
X27652380Y-101304761D01*
X27557142Y-101209523D01*
X27509523Y-101114285D01*
X27461904Y-100923809D01*
X27461904Y-100780952D01*
X27509523Y-100590476D01*
X27557142Y-100495238D01*
X27652380Y-100400000D01*
X27795238Y-100352380D01*
X27890476Y-100352380D01*
X28033333Y-100400000D01*
X28080952Y-100447619D01*
X29033333Y-101352380D02*
X28461904Y-101352380D01*
X28747619Y-101352380D02*
X28747619Y-100352380D01*
X28652380Y-100495238D01*
X28557142Y-100590476D01*
X28461904Y-100638095D01*
X29652380Y-100352380D02*
X29747619Y-100352380D01*
X29842857Y-100400000D01*
X29890476Y-100447619D01*
X29938095Y-100542857D01*
X29985714Y-100733333D01*
X29985714Y-100971428D01*
X29938095Y-101161904D01*
X29890476Y-101257142D01*
X29842857Y-101304761D01*
X29747619Y-101352380D01*
X29652380Y-101352380D01*
X29557142Y-101304761D01*
X29509523Y-101257142D01*
X29461904Y-101161904D01*
X29414285Y-100971428D01*
X29414285Y-100733333D01*
X29461904Y-100542857D01*
X29509523Y-100447619D01*
X29557142Y-100400000D01*
X29652380Y-100352380D01*
X30557142Y-100780952D02*
X30461904Y-100733333D01*
X30414285Y-100685714D01*
X30366666Y-100590476D01*
X30366666Y-100542857D01*
X30414285Y-100447619D01*
X30461904Y-100400000D01*
X30557142Y-100352380D01*
X30747619Y-100352380D01*
X30842857Y-100400000D01*
X30890476Y-100447619D01*
X30938095Y-100542857D01*
X30938095Y-100590476D01*
X30890476Y-100685714D01*
X30842857Y-100733333D01*
X30747619Y-100780952D01*
X30557142Y-100780952D01*
X30461904Y-100828571D01*
X30414285Y-100876190D01*
X30366666Y-100971428D01*
X30366666Y-101161904D01*
X30414285Y-101257142D01*
X30461904Y-101304761D01*
X30557142Y-101352380D01*
X30747619Y-101352380D01*
X30842857Y-101304761D01*
X30890476Y-101257142D01*
X30938095Y-101161904D01*
X30938095Y-100971428D01*
X30890476Y-100876190D01*
X30842857Y-100828571D01*
X30747619Y-100780952D01*
X90230952Y-73917142D02*
X90183333Y-73964761D01*
X90040476Y-74012380D01*
X89945238Y-74012380D01*
X89802380Y-73964761D01*
X89707142Y-73869523D01*
X89659523Y-73774285D01*
X89611904Y-73583809D01*
X89611904Y-73440952D01*
X89659523Y-73250476D01*
X89707142Y-73155238D01*
X89802380Y-73060000D01*
X89945238Y-73012380D01*
X90040476Y-73012380D01*
X90183333Y-73060000D01*
X90230952Y-73107619D01*
X91183333Y-74012380D02*
X90611904Y-74012380D01*
X90897619Y-74012380D02*
X90897619Y-73012380D01*
X90802380Y-73155238D01*
X90707142Y-73250476D01*
X90611904Y-73298095D01*
X91802380Y-73012380D02*
X91897619Y-73012380D01*
X91992857Y-73060000D01*
X92040476Y-73107619D01*
X92088095Y-73202857D01*
X92135714Y-73393333D01*
X92135714Y-73631428D01*
X92088095Y-73821904D01*
X92040476Y-73917142D01*
X91992857Y-73964761D01*
X91897619Y-74012380D01*
X91802380Y-74012380D01*
X91707142Y-73964761D01*
X91659523Y-73917142D01*
X91611904Y-73821904D01*
X91564285Y-73631428D01*
X91564285Y-73393333D01*
X91611904Y-73202857D01*
X91659523Y-73107619D01*
X91707142Y-73060000D01*
X91802380Y-73012380D01*
X92611904Y-74012380D02*
X92802380Y-74012380D01*
X92897619Y-73964761D01*
X92945238Y-73917142D01*
X93040476Y-73774285D01*
X93088095Y-73583809D01*
X93088095Y-73202857D01*
X93040476Y-73107619D01*
X92992857Y-73060000D01*
X92897619Y-73012380D01*
X92707142Y-73012380D01*
X92611904Y-73060000D01*
X92564285Y-73107619D01*
X92516666Y-73202857D01*
X92516666Y-73440952D01*
X92564285Y-73536190D01*
X92611904Y-73583809D01*
X92707142Y-73631428D01*
X92897619Y-73631428D01*
X92992857Y-73583809D01*
X93040476Y-73536190D01*
X93088095Y-73440952D01*
X81230952Y-73917142D02*
X81183333Y-73964761D01*
X81040476Y-74012380D01*
X80945238Y-74012380D01*
X80802380Y-73964761D01*
X80707142Y-73869523D01*
X80659523Y-73774285D01*
X80611904Y-73583809D01*
X80611904Y-73440952D01*
X80659523Y-73250476D01*
X80707142Y-73155238D01*
X80802380Y-73060000D01*
X80945238Y-73012380D01*
X81040476Y-73012380D01*
X81183333Y-73060000D01*
X81230952Y-73107619D01*
X82183333Y-74012380D02*
X81611904Y-74012380D01*
X81897619Y-74012380D02*
X81897619Y-73012380D01*
X81802380Y-73155238D01*
X81707142Y-73250476D01*
X81611904Y-73298095D01*
X83135714Y-74012380D02*
X82564285Y-74012380D01*
X82850000Y-74012380D02*
X82850000Y-73012380D01*
X82754761Y-73155238D01*
X82659523Y-73250476D01*
X82564285Y-73298095D01*
X83754761Y-73012380D02*
X83850000Y-73012380D01*
X83945238Y-73060000D01*
X83992857Y-73107619D01*
X84040476Y-73202857D01*
X84088095Y-73393333D01*
X84088095Y-73631428D01*
X84040476Y-73821904D01*
X83992857Y-73917142D01*
X83945238Y-73964761D01*
X83850000Y-74012380D01*
X83754761Y-74012380D01*
X83659523Y-73964761D01*
X83611904Y-73917142D01*
X83564285Y-73821904D01*
X83516666Y-73631428D01*
X83516666Y-73393333D01*
X83564285Y-73202857D01*
X83611904Y-73107619D01*
X83659523Y-73060000D01*
X83754761Y-73012380D01*
X28405952Y-66397142D02*
X28358333Y-66444761D01*
X28215476Y-66492380D01*
X28120238Y-66492380D01*
X27977380Y-66444761D01*
X27882142Y-66349523D01*
X27834523Y-66254285D01*
X27786904Y-66063809D01*
X27786904Y-65920952D01*
X27834523Y-65730476D01*
X27882142Y-65635238D01*
X27977380Y-65540000D01*
X28120238Y-65492380D01*
X28215476Y-65492380D01*
X28358333Y-65540000D01*
X28405952Y-65587619D01*
X29358333Y-66492380D02*
X28786904Y-66492380D01*
X29072619Y-66492380D02*
X29072619Y-65492380D01*
X28977380Y-65635238D01*
X28882142Y-65730476D01*
X28786904Y-65778095D01*
X30310714Y-66492380D02*
X29739285Y-66492380D01*
X30025000Y-66492380D02*
X30025000Y-65492380D01*
X29929761Y-65635238D01*
X29834523Y-65730476D01*
X29739285Y-65778095D01*
X31263095Y-66492380D02*
X30691666Y-66492380D01*
X30977380Y-66492380D02*
X30977380Y-65492380D01*
X30882142Y-65635238D01*
X30786904Y-65730476D01*
X30691666Y-65778095D01*
X35280952Y-91057142D02*
X35233333Y-91104761D01*
X35090476Y-91152380D01*
X34995238Y-91152380D01*
X34852380Y-91104761D01*
X34757142Y-91009523D01*
X34709523Y-90914285D01*
X34661904Y-90723809D01*
X34661904Y-90580952D01*
X34709523Y-90390476D01*
X34757142Y-90295238D01*
X34852380Y-90200000D01*
X34995238Y-90152380D01*
X35090476Y-90152380D01*
X35233333Y-90200000D01*
X35280952Y-90247619D01*
X36233333Y-91152380D02*
X35661904Y-91152380D01*
X35947619Y-91152380D02*
X35947619Y-90152380D01*
X35852380Y-90295238D01*
X35757142Y-90390476D01*
X35661904Y-90438095D01*
X37185714Y-91152380D02*
X36614285Y-91152380D01*
X36900000Y-91152380D02*
X36900000Y-90152380D01*
X36804761Y-90295238D01*
X36709523Y-90390476D01*
X36614285Y-90438095D01*
X37566666Y-90247619D02*
X37614285Y-90200000D01*
X37709523Y-90152380D01*
X37947619Y-90152380D01*
X38042857Y-90200000D01*
X38090476Y-90247619D01*
X38138095Y-90342857D01*
X38138095Y-90438095D01*
X38090476Y-90580952D01*
X37519047Y-91152380D01*
X38138095Y-91152380D01*
X57880952Y-91157142D02*
X57833333Y-91204761D01*
X57690476Y-91252380D01*
X57595238Y-91252380D01*
X57452380Y-91204761D01*
X57357142Y-91109523D01*
X57309523Y-91014285D01*
X57261904Y-90823809D01*
X57261904Y-90680952D01*
X57309523Y-90490476D01*
X57357142Y-90395238D01*
X57452380Y-90300000D01*
X57595238Y-90252380D01*
X57690476Y-90252380D01*
X57833333Y-90300000D01*
X57880952Y-90347619D01*
X58833333Y-91252380D02*
X58261904Y-91252380D01*
X58547619Y-91252380D02*
X58547619Y-90252380D01*
X58452380Y-90395238D01*
X58357142Y-90490476D01*
X58261904Y-90538095D01*
X59785714Y-91252380D02*
X59214285Y-91252380D01*
X59500000Y-91252380D02*
X59500000Y-90252380D01*
X59404761Y-90395238D01*
X59309523Y-90490476D01*
X59214285Y-90538095D01*
X60119047Y-90252380D02*
X60738095Y-90252380D01*
X60404761Y-90633333D01*
X60547619Y-90633333D01*
X60642857Y-90680952D01*
X60690476Y-90728571D01*
X60738095Y-90823809D01*
X60738095Y-91061904D01*
X60690476Y-91157142D01*
X60642857Y-91204761D01*
X60547619Y-91252380D01*
X60261904Y-91252380D01*
X60166666Y-91204761D01*
X60119047Y-91157142D01*
X58542380Y-70380476D02*
X57542380Y-70380476D01*
X57542380Y-70142380D01*
X57590000Y-69999523D01*
X57685238Y-69904285D01*
X57780476Y-69856666D01*
X57970952Y-69809047D01*
X58113809Y-69809047D01*
X58304285Y-69856666D01*
X58399523Y-69904285D01*
X58494761Y-69999523D01*
X58542380Y-70142380D01*
X58542380Y-70380476D01*
X58542380Y-68856666D02*
X58542380Y-69428095D01*
X58542380Y-69142380D02*
X57542380Y-69142380D01*
X57685238Y-69237619D01*
X57780476Y-69332857D01*
X57828095Y-69428095D01*
X57542380Y-68237619D02*
X57542380Y-68142380D01*
X57590000Y-68047142D01*
X57637619Y-67999523D01*
X57732857Y-67951904D01*
X57923333Y-67904285D01*
X58161428Y-67904285D01*
X58351904Y-67951904D01*
X58447142Y-67999523D01*
X58494761Y-68047142D01*
X58542380Y-68142380D01*
X58542380Y-68237619D01*
X58494761Y-68332857D01*
X58447142Y-68380476D01*
X58351904Y-68428095D01*
X58161428Y-68475714D01*
X57923333Y-68475714D01*
X57732857Y-68428095D01*
X57637619Y-68380476D01*
X57590000Y-68332857D01*
X57542380Y-68237619D01*
X58542380Y-66951904D02*
X58542380Y-67523333D01*
X58542380Y-67237619D02*
X57542380Y-67237619D01*
X57685238Y-67332857D01*
X57780476Y-67428095D01*
X57828095Y-67523333D01*
X53542380Y-70380476D02*
X52542380Y-70380476D01*
X52542380Y-70142380D01*
X52590000Y-69999523D01*
X52685238Y-69904285D01*
X52780476Y-69856666D01*
X52970952Y-69809047D01*
X53113809Y-69809047D01*
X53304285Y-69856666D01*
X53399523Y-69904285D01*
X53494761Y-69999523D01*
X53542380Y-70142380D01*
X53542380Y-70380476D01*
X53542380Y-68856666D02*
X53542380Y-69428095D01*
X53542380Y-69142380D02*
X52542380Y-69142380D01*
X52685238Y-69237619D01*
X52780476Y-69332857D01*
X52828095Y-69428095D01*
X52542380Y-68237619D02*
X52542380Y-68142380D01*
X52590000Y-68047142D01*
X52637619Y-67999523D01*
X52732857Y-67951904D01*
X52923333Y-67904285D01*
X53161428Y-67904285D01*
X53351904Y-67951904D01*
X53447142Y-67999523D01*
X53494761Y-68047142D01*
X53542380Y-68142380D01*
X53542380Y-68237619D01*
X53494761Y-68332857D01*
X53447142Y-68380476D01*
X53351904Y-68428095D01*
X53161428Y-68475714D01*
X52923333Y-68475714D01*
X52732857Y-68428095D01*
X52637619Y-68380476D01*
X52590000Y-68332857D01*
X52542380Y-68237619D01*
X52637619Y-67523333D02*
X52590000Y-67475714D01*
X52542380Y-67380476D01*
X52542380Y-67142380D01*
X52590000Y-67047142D01*
X52637619Y-66999523D01*
X52732857Y-66951904D01*
X52828095Y-66951904D01*
X52970952Y-66999523D01*
X53542380Y-67570952D01*
X53542380Y-66951904D01*
X101312380Y-80770476D02*
X100312380Y-80770476D01*
X100312380Y-80532380D01*
X100360000Y-80389523D01*
X100455238Y-80294285D01*
X100550476Y-80246666D01*
X100740952Y-80199047D01*
X100883809Y-80199047D01*
X101074285Y-80246666D01*
X101169523Y-80294285D01*
X101264761Y-80389523D01*
X101312380Y-80532380D01*
X101312380Y-80770476D01*
X101312380Y-79246666D02*
X101312380Y-79818095D01*
X101312380Y-79532380D02*
X100312380Y-79532380D01*
X100455238Y-79627619D01*
X100550476Y-79722857D01*
X100598095Y-79818095D01*
X100312380Y-78627619D02*
X100312380Y-78532380D01*
X100360000Y-78437142D01*
X100407619Y-78389523D01*
X100502857Y-78341904D01*
X100693333Y-78294285D01*
X100931428Y-78294285D01*
X101121904Y-78341904D01*
X101217142Y-78389523D01*
X101264761Y-78437142D01*
X101312380Y-78532380D01*
X101312380Y-78627619D01*
X101264761Y-78722857D01*
X101217142Y-78770476D01*
X101121904Y-78818095D01*
X100931428Y-78865714D01*
X100693333Y-78865714D01*
X100502857Y-78818095D01*
X100407619Y-78770476D01*
X100360000Y-78722857D01*
X100312380Y-78627619D01*
X100312380Y-77960952D02*
X100312380Y-77341904D01*
X100693333Y-77675238D01*
X100693333Y-77532380D01*
X100740952Y-77437142D01*
X100788571Y-77389523D01*
X100883809Y-77341904D01*
X101121904Y-77341904D01*
X101217142Y-77389523D01*
X101264761Y-77437142D01*
X101312380Y-77532380D01*
X101312380Y-77818095D01*
X101264761Y-77913333D01*
X101217142Y-77960952D01*
X101052380Y-96770476D02*
X100052380Y-96770476D01*
X100052380Y-96532380D01*
X100100000Y-96389523D01*
X100195238Y-96294285D01*
X100290476Y-96246666D01*
X100480952Y-96199047D01*
X100623809Y-96199047D01*
X100814285Y-96246666D01*
X100909523Y-96294285D01*
X101004761Y-96389523D01*
X101052380Y-96532380D01*
X101052380Y-96770476D01*
X101052380Y-95246666D02*
X101052380Y-95818095D01*
X101052380Y-95532380D02*
X100052380Y-95532380D01*
X100195238Y-95627619D01*
X100290476Y-95722857D01*
X100338095Y-95818095D01*
X100052380Y-94627619D02*
X100052380Y-94532380D01*
X100100000Y-94437142D01*
X100147619Y-94389523D01*
X100242857Y-94341904D01*
X100433333Y-94294285D01*
X100671428Y-94294285D01*
X100861904Y-94341904D01*
X100957142Y-94389523D01*
X101004761Y-94437142D01*
X101052380Y-94532380D01*
X101052380Y-94627619D01*
X101004761Y-94722857D01*
X100957142Y-94770476D01*
X100861904Y-94818095D01*
X100671428Y-94865714D01*
X100433333Y-94865714D01*
X100242857Y-94818095D01*
X100147619Y-94770476D01*
X100100000Y-94722857D01*
X100052380Y-94627619D01*
X100385714Y-93437142D02*
X101052380Y-93437142D01*
X100004761Y-93675238D02*
X100719047Y-93913333D01*
X100719047Y-93294285D01*
X28314285Y-86352380D02*
X28314285Y-87066666D01*
X28266666Y-87209523D01*
X28171428Y-87304761D01*
X28028571Y-87352380D01*
X27933333Y-87352380D01*
X29314285Y-87352380D02*
X28742857Y-87352380D01*
X29028571Y-87352380D02*
X29028571Y-86352380D01*
X28933333Y-86495238D01*
X28838095Y-86590476D01*
X28742857Y-86638095D01*
X29933333Y-86352380D02*
X30028571Y-86352380D01*
X30123809Y-86400000D01*
X30171428Y-86447619D01*
X30219047Y-86542857D01*
X30266666Y-86733333D01*
X30266666Y-86971428D01*
X30219047Y-87161904D01*
X30171428Y-87257142D01*
X30123809Y-87304761D01*
X30028571Y-87352380D01*
X29933333Y-87352380D01*
X29838095Y-87304761D01*
X29790476Y-87257142D01*
X29742857Y-87161904D01*
X29695238Y-86971428D01*
X29695238Y-86733333D01*
X29742857Y-86542857D01*
X29790476Y-86447619D01*
X29838095Y-86400000D01*
X29933333Y-86352380D01*
X31219047Y-87352380D02*
X30647619Y-87352380D01*
X30933333Y-87352380D02*
X30933333Y-86352380D01*
X30838095Y-86495238D01*
X30742857Y-86590476D01*
X30647619Y-86638095D01*
X100752380Y-107585714D02*
X101466666Y-107585714D01*
X101609523Y-107633333D01*
X101704761Y-107728571D01*
X101752380Y-107871428D01*
X101752380Y-107966666D01*
X101752380Y-106585714D02*
X101752380Y-107157142D01*
X101752380Y-106871428D02*
X100752380Y-106871428D01*
X100895238Y-106966666D01*
X100990476Y-107061904D01*
X101038095Y-107157142D01*
X100752380Y-105966666D02*
X100752380Y-105871428D01*
X100800000Y-105776190D01*
X100847619Y-105728571D01*
X100942857Y-105680952D01*
X101133333Y-105633333D01*
X101371428Y-105633333D01*
X101561904Y-105680952D01*
X101657142Y-105728571D01*
X101704761Y-105776190D01*
X101752380Y-105871428D01*
X101752380Y-105966666D01*
X101704761Y-106061904D01*
X101657142Y-106109523D01*
X101561904Y-106157142D01*
X101371428Y-106204761D01*
X101133333Y-106204761D01*
X100942857Y-106157142D01*
X100847619Y-106109523D01*
X100800000Y-106061904D01*
X100752380Y-105966666D01*
X101085714Y-104776190D02*
X101752380Y-104776190D01*
X100704761Y-105014285D02*
X101419047Y-105252380D01*
X101419047Y-104633333D01*
X34142380Y-69909047D02*
X33666190Y-70242380D01*
X34142380Y-70480476D02*
X33142380Y-70480476D01*
X33142380Y-70099523D01*
X33190000Y-70004285D01*
X33237619Y-69956666D01*
X33332857Y-69909047D01*
X33475714Y-69909047D01*
X33570952Y-69956666D01*
X33618571Y-70004285D01*
X33666190Y-70099523D01*
X33666190Y-70480476D01*
X34142380Y-68956666D02*
X34142380Y-69528095D01*
X34142380Y-69242380D02*
X33142380Y-69242380D01*
X33285238Y-69337619D01*
X33380476Y-69432857D01*
X33428095Y-69528095D01*
X33142380Y-68337619D02*
X33142380Y-68242380D01*
X33190000Y-68147142D01*
X33237619Y-68099523D01*
X33332857Y-68051904D01*
X33523333Y-68004285D01*
X33761428Y-68004285D01*
X33951904Y-68051904D01*
X34047142Y-68099523D01*
X34094761Y-68147142D01*
X34142380Y-68242380D01*
X34142380Y-68337619D01*
X34094761Y-68432857D01*
X34047142Y-68480476D01*
X33951904Y-68528095D01*
X33761428Y-68575714D01*
X33523333Y-68575714D01*
X33332857Y-68528095D01*
X33237619Y-68480476D01*
X33190000Y-68432857D01*
X33142380Y-68337619D01*
X34142380Y-67051904D02*
X34142380Y-67623333D01*
X34142380Y-67337619D02*
X33142380Y-67337619D01*
X33285238Y-67432857D01*
X33380476Y-67528095D01*
X33428095Y-67623333D01*
X64152380Y-69719047D02*
X63676190Y-70052380D01*
X64152380Y-70290476D02*
X63152380Y-70290476D01*
X63152380Y-69909523D01*
X63200000Y-69814285D01*
X63247619Y-69766666D01*
X63342857Y-69719047D01*
X63485714Y-69719047D01*
X63580952Y-69766666D01*
X63628571Y-69814285D01*
X63676190Y-69909523D01*
X63676190Y-70290476D01*
X64152380Y-68766666D02*
X64152380Y-69338095D01*
X64152380Y-69052380D02*
X63152380Y-69052380D01*
X63295238Y-69147619D01*
X63390476Y-69242857D01*
X63438095Y-69338095D01*
X63152380Y-68147619D02*
X63152380Y-68052380D01*
X63200000Y-67957142D01*
X63247619Y-67909523D01*
X63342857Y-67861904D01*
X63533333Y-67814285D01*
X63771428Y-67814285D01*
X63961904Y-67861904D01*
X64057142Y-67909523D01*
X64104761Y-67957142D01*
X64152380Y-68052380D01*
X64152380Y-68147619D01*
X64104761Y-68242857D01*
X64057142Y-68290476D01*
X63961904Y-68338095D01*
X63771428Y-68385714D01*
X63533333Y-68385714D01*
X63342857Y-68338095D01*
X63247619Y-68290476D01*
X63200000Y-68242857D01*
X63152380Y-68147619D01*
X63247619Y-67433333D02*
X63200000Y-67385714D01*
X63152380Y-67290476D01*
X63152380Y-67052380D01*
X63200000Y-66957142D01*
X63247619Y-66909523D01*
X63342857Y-66861904D01*
X63438095Y-66861904D01*
X63580952Y-66909523D01*
X64152380Y-67480952D01*
X64152380Y-66861904D01*
X36742380Y-97909047D02*
X36266190Y-98242380D01*
X36742380Y-98480476D02*
X35742380Y-98480476D01*
X35742380Y-98099523D01*
X35790000Y-98004285D01*
X35837619Y-97956666D01*
X35932857Y-97909047D01*
X36075714Y-97909047D01*
X36170952Y-97956666D01*
X36218571Y-98004285D01*
X36266190Y-98099523D01*
X36266190Y-98480476D01*
X36742380Y-96956666D02*
X36742380Y-97528095D01*
X36742380Y-97242380D02*
X35742380Y-97242380D01*
X35885238Y-97337619D01*
X35980476Y-97432857D01*
X36028095Y-97528095D01*
X35742380Y-96337619D02*
X35742380Y-96242380D01*
X35790000Y-96147142D01*
X35837619Y-96099523D01*
X35932857Y-96051904D01*
X36123333Y-96004285D01*
X36361428Y-96004285D01*
X36551904Y-96051904D01*
X36647142Y-96099523D01*
X36694761Y-96147142D01*
X36742380Y-96242380D01*
X36742380Y-96337619D01*
X36694761Y-96432857D01*
X36647142Y-96480476D01*
X36551904Y-96528095D01*
X36361428Y-96575714D01*
X36123333Y-96575714D01*
X35932857Y-96528095D01*
X35837619Y-96480476D01*
X35790000Y-96432857D01*
X35742380Y-96337619D01*
X35742380Y-95670952D02*
X35742380Y-95051904D01*
X36123333Y-95385238D01*
X36123333Y-95242380D01*
X36170952Y-95147142D01*
X36218571Y-95099523D01*
X36313809Y-95051904D01*
X36551904Y-95051904D01*
X36647142Y-95099523D01*
X36694761Y-95147142D01*
X36742380Y-95242380D01*
X36742380Y-95528095D01*
X36694761Y-95623333D01*
X36647142Y-95670952D01*
X63052380Y-58519047D02*
X62576190Y-58852380D01*
X63052380Y-59090476D02*
X62052380Y-59090476D01*
X62052380Y-58709523D01*
X62100000Y-58614285D01*
X62147619Y-58566666D01*
X62242857Y-58519047D01*
X62385714Y-58519047D01*
X62480952Y-58566666D01*
X62528571Y-58614285D01*
X62576190Y-58709523D01*
X62576190Y-59090476D01*
X63052380Y-57566666D02*
X63052380Y-58138095D01*
X63052380Y-57852380D02*
X62052380Y-57852380D01*
X62195238Y-57947619D01*
X62290476Y-58042857D01*
X62338095Y-58138095D01*
X62052380Y-56947619D02*
X62052380Y-56852380D01*
X62100000Y-56757142D01*
X62147619Y-56709523D01*
X62242857Y-56661904D01*
X62433333Y-56614285D01*
X62671428Y-56614285D01*
X62861904Y-56661904D01*
X62957142Y-56709523D01*
X63004761Y-56757142D01*
X63052380Y-56852380D01*
X63052380Y-56947619D01*
X63004761Y-57042857D01*
X62957142Y-57090476D01*
X62861904Y-57138095D01*
X62671428Y-57185714D01*
X62433333Y-57185714D01*
X62242857Y-57138095D01*
X62147619Y-57090476D01*
X62100000Y-57042857D01*
X62052380Y-56947619D01*
X62385714Y-55757142D02*
X63052380Y-55757142D01*
X62004761Y-55995238D02*
X62719047Y-56233333D01*
X62719047Y-55614285D01*
X67152380Y-58419047D02*
X66676190Y-58752380D01*
X67152380Y-58990476D02*
X66152380Y-58990476D01*
X66152380Y-58609523D01*
X66200000Y-58514285D01*
X66247619Y-58466666D01*
X66342857Y-58419047D01*
X66485714Y-58419047D01*
X66580952Y-58466666D01*
X66628571Y-58514285D01*
X66676190Y-58609523D01*
X66676190Y-58990476D01*
X67152380Y-57466666D02*
X67152380Y-58038095D01*
X67152380Y-57752380D02*
X66152380Y-57752380D01*
X66295238Y-57847619D01*
X66390476Y-57942857D01*
X66438095Y-58038095D01*
X66152380Y-56847619D02*
X66152380Y-56752380D01*
X66200000Y-56657142D01*
X66247619Y-56609523D01*
X66342857Y-56561904D01*
X66533333Y-56514285D01*
X66771428Y-56514285D01*
X66961904Y-56561904D01*
X67057142Y-56609523D01*
X67104761Y-56657142D01*
X67152380Y-56752380D01*
X67152380Y-56847619D01*
X67104761Y-56942857D01*
X67057142Y-56990476D01*
X66961904Y-57038095D01*
X66771428Y-57085714D01*
X66533333Y-57085714D01*
X66342857Y-57038095D01*
X66247619Y-56990476D01*
X66200000Y-56942857D01*
X66152380Y-56847619D01*
X66152380Y-55609523D02*
X66152380Y-56085714D01*
X66628571Y-56133333D01*
X66580952Y-56085714D01*
X66533333Y-55990476D01*
X66533333Y-55752380D01*
X66580952Y-55657142D01*
X66628571Y-55609523D01*
X66723809Y-55561904D01*
X66961904Y-55561904D01*
X67057142Y-55609523D01*
X67104761Y-55657142D01*
X67152380Y-55752380D01*
X67152380Y-55990476D01*
X67104761Y-56085714D01*
X67057142Y-56133333D01*
X46852380Y-58509047D02*
X46376190Y-58842380D01*
X46852380Y-59080476D02*
X45852380Y-59080476D01*
X45852380Y-58699523D01*
X45900000Y-58604285D01*
X45947619Y-58556666D01*
X46042857Y-58509047D01*
X46185714Y-58509047D01*
X46280952Y-58556666D01*
X46328571Y-58604285D01*
X46376190Y-58699523D01*
X46376190Y-59080476D01*
X46852380Y-57556666D02*
X46852380Y-58128095D01*
X46852380Y-57842380D02*
X45852380Y-57842380D01*
X45995238Y-57937619D01*
X46090476Y-58032857D01*
X46138095Y-58128095D01*
X45852380Y-56937619D02*
X45852380Y-56842380D01*
X45900000Y-56747142D01*
X45947619Y-56699523D01*
X46042857Y-56651904D01*
X46233333Y-56604285D01*
X46471428Y-56604285D01*
X46661904Y-56651904D01*
X46757142Y-56699523D01*
X46804761Y-56747142D01*
X46852380Y-56842380D01*
X46852380Y-56937619D01*
X46804761Y-57032857D01*
X46757142Y-57080476D01*
X46661904Y-57128095D01*
X46471428Y-57175714D01*
X46233333Y-57175714D01*
X46042857Y-57128095D01*
X45947619Y-57080476D01*
X45900000Y-57032857D01*
X45852380Y-56937619D01*
X45852380Y-55747142D02*
X45852380Y-55937619D01*
X45900000Y-56032857D01*
X45947619Y-56080476D01*
X46090476Y-56175714D01*
X46280952Y-56223333D01*
X46661904Y-56223333D01*
X46757142Y-56175714D01*
X46804761Y-56128095D01*
X46852380Y-56032857D01*
X46852380Y-55842380D01*
X46804761Y-55747142D01*
X46757142Y-55699523D01*
X46661904Y-55651904D01*
X46423809Y-55651904D01*
X46328571Y-55699523D01*
X46280952Y-55747142D01*
X46233333Y-55842380D01*
X46233333Y-56032857D01*
X46280952Y-56128095D01*
X46328571Y-56175714D01*
X46423809Y-56223333D01*
X50952380Y-58519047D02*
X50476190Y-58852380D01*
X50952380Y-59090476D02*
X49952380Y-59090476D01*
X49952380Y-58709523D01*
X50000000Y-58614285D01*
X50047619Y-58566666D01*
X50142857Y-58519047D01*
X50285714Y-58519047D01*
X50380952Y-58566666D01*
X50428571Y-58614285D01*
X50476190Y-58709523D01*
X50476190Y-59090476D01*
X50952380Y-57566666D02*
X50952380Y-58138095D01*
X50952380Y-57852380D02*
X49952380Y-57852380D01*
X50095238Y-57947619D01*
X50190476Y-58042857D01*
X50238095Y-58138095D01*
X49952380Y-56947619D02*
X49952380Y-56852380D01*
X50000000Y-56757142D01*
X50047619Y-56709523D01*
X50142857Y-56661904D01*
X50333333Y-56614285D01*
X50571428Y-56614285D01*
X50761904Y-56661904D01*
X50857142Y-56709523D01*
X50904761Y-56757142D01*
X50952380Y-56852380D01*
X50952380Y-56947619D01*
X50904761Y-57042857D01*
X50857142Y-57090476D01*
X50761904Y-57138095D01*
X50571428Y-57185714D01*
X50333333Y-57185714D01*
X50142857Y-57138095D01*
X50047619Y-57090476D01*
X50000000Y-57042857D01*
X49952380Y-56947619D01*
X49952380Y-56280952D02*
X49952380Y-55614285D01*
X50952380Y-56042857D01*
X41799522Y-97909047D02*
X41323332Y-98242380D01*
X41799522Y-98480476D02*
X40799522Y-98480476D01*
X40799522Y-98099523D01*
X40847142Y-98004285D01*
X40894761Y-97956666D01*
X40989999Y-97909047D01*
X41132856Y-97909047D01*
X41228094Y-97956666D01*
X41275713Y-98004285D01*
X41323332Y-98099523D01*
X41323332Y-98480476D01*
X41799522Y-96956666D02*
X41799522Y-97528095D01*
X41799522Y-97242380D02*
X40799522Y-97242380D01*
X40942380Y-97337619D01*
X41037618Y-97432857D01*
X41085237Y-97528095D01*
X40799522Y-96337619D02*
X40799522Y-96242380D01*
X40847142Y-96147142D01*
X40894761Y-96099523D01*
X40989999Y-96051904D01*
X41180475Y-96004285D01*
X41418570Y-96004285D01*
X41609046Y-96051904D01*
X41704284Y-96099523D01*
X41751903Y-96147142D01*
X41799522Y-96242380D01*
X41799522Y-96337619D01*
X41751903Y-96432857D01*
X41704284Y-96480476D01*
X41609046Y-96528095D01*
X41418570Y-96575714D01*
X41180475Y-96575714D01*
X40989999Y-96528095D01*
X40894761Y-96480476D01*
X40847142Y-96432857D01*
X40799522Y-96337619D01*
X41228094Y-95432857D02*
X41180475Y-95528095D01*
X41132856Y-95575714D01*
X41037618Y-95623333D01*
X40989999Y-95623333D01*
X40894761Y-95575714D01*
X40847142Y-95528095D01*
X40799522Y-95432857D01*
X40799522Y-95242380D01*
X40847142Y-95147142D01*
X40894761Y-95099523D01*
X40989999Y-95051904D01*
X41037618Y-95051904D01*
X41132856Y-95099523D01*
X41180475Y-95147142D01*
X41228094Y-95242380D01*
X41228094Y-95432857D01*
X41275713Y-95528095D01*
X41323332Y-95575714D01*
X41418570Y-95623333D01*
X41609046Y-95623333D01*
X41704284Y-95575714D01*
X41751903Y-95528095D01*
X41799522Y-95432857D01*
X41799522Y-95242380D01*
X41751903Y-95147142D01*
X41704284Y-95099523D01*
X41609046Y-95051904D01*
X41418570Y-95051904D01*
X41323332Y-95099523D01*
X41275713Y-95147142D01*
X41228094Y-95242380D01*
X38652380Y-58509047D02*
X38176190Y-58842380D01*
X38652380Y-59080476D02*
X37652380Y-59080476D01*
X37652380Y-58699523D01*
X37700000Y-58604285D01*
X37747619Y-58556666D01*
X37842857Y-58509047D01*
X37985714Y-58509047D01*
X38080952Y-58556666D01*
X38128571Y-58604285D01*
X38176190Y-58699523D01*
X38176190Y-59080476D01*
X38652380Y-57556666D02*
X38652380Y-58128095D01*
X38652380Y-57842380D02*
X37652380Y-57842380D01*
X37795238Y-57937619D01*
X37890476Y-58032857D01*
X37938095Y-58128095D01*
X37652380Y-56937619D02*
X37652380Y-56842380D01*
X37700000Y-56747142D01*
X37747619Y-56699523D01*
X37842857Y-56651904D01*
X38033333Y-56604285D01*
X38271428Y-56604285D01*
X38461904Y-56651904D01*
X38557142Y-56699523D01*
X38604761Y-56747142D01*
X38652380Y-56842380D01*
X38652380Y-56937619D01*
X38604761Y-57032857D01*
X38557142Y-57080476D01*
X38461904Y-57128095D01*
X38271428Y-57175714D01*
X38033333Y-57175714D01*
X37842857Y-57128095D01*
X37747619Y-57080476D01*
X37700000Y-57032857D01*
X37652380Y-56937619D01*
X38652380Y-56128095D02*
X38652380Y-55937619D01*
X38604761Y-55842380D01*
X38557142Y-55794761D01*
X38414285Y-55699523D01*
X38223809Y-55651904D01*
X37842857Y-55651904D01*
X37747619Y-55699523D01*
X37700000Y-55747142D01*
X37652380Y-55842380D01*
X37652380Y-56032857D01*
X37700000Y-56128095D01*
X37747619Y-56175714D01*
X37842857Y-56223333D01*
X38080952Y-56223333D01*
X38176190Y-56175714D01*
X38223809Y-56128095D01*
X38271428Y-56032857D01*
X38271428Y-55842380D01*
X38223809Y-55747142D01*
X38176190Y-55699523D01*
X38080952Y-55651904D01*
X42752380Y-58509047D02*
X42276190Y-58842380D01*
X42752380Y-59080476D02*
X41752380Y-59080476D01*
X41752380Y-58699523D01*
X41800000Y-58604285D01*
X41847619Y-58556666D01*
X41942857Y-58509047D01*
X42085714Y-58509047D01*
X42180952Y-58556666D01*
X42228571Y-58604285D01*
X42276190Y-58699523D01*
X42276190Y-59080476D01*
X42752380Y-57556666D02*
X42752380Y-58128095D01*
X42752380Y-57842380D02*
X41752380Y-57842380D01*
X41895238Y-57937619D01*
X41990476Y-58032857D01*
X42038095Y-58128095D01*
X42752380Y-56604285D02*
X42752380Y-57175714D01*
X42752380Y-56890000D02*
X41752380Y-56890000D01*
X41895238Y-56985238D01*
X41990476Y-57080476D01*
X42038095Y-57175714D01*
X41752380Y-55985238D02*
X41752380Y-55890000D01*
X41800000Y-55794761D01*
X41847619Y-55747142D01*
X41942857Y-55699523D01*
X42133333Y-55651904D01*
X42371428Y-55651904D01*
X42561904Y-55699523D01*
X42657142Y-55747142D01*
X42704761Y-55794761D01*
X42752380Y-55890000D01*
X42752380Y-55985238D01*
X42704761Y-56080476D01*
X42657142Y-56128095D01*
X42561904Y-56175714D01*
X42371428Y-56223333D01*
X42133333Y-56223333D01*
X41942857Y-56175714D01*
X41847619Y-56128095D01*
X41800000Y-56080476D01*
X41752380Y-55985238D01*
X54752380Y-58419047D02*
X54276190Y-58752380D01*
X54752380Y-58990476D02*
X53752380Y-58990476D01*
X53752380Y-58609523D01*
X53800000Y-58514285D01*
X53847619Y-58466666D01*
X53942857Y-58419047D01*
X54085714Y-58419047D01*
X54180952Y-58466666D01*
X54228571Y-58514285D01*
X54276190Y-58609523D01*
X54276190Y-58990476D01*
X54752380Y-57466666D02*
X54752380Y-58038095D01*
X54752380Y-57752380D02*
X53752380Y-57752380D01*
X53895238Y-57847619D01*
X53990476Y-57942857D01*
X54038095Y-58038095D01*
X54752380Y-56514285D02*
X54752380Y-57085714D01*
X54752380Y-56800000D02*
X53752380Y-56800000D01*
X53895238Y-56895238D01*
X53990476Y-56990476D01*
X54038095Y-57085714D01*
X54752380Y-55561904D02*
X54752380Y-56133333D01*
X54752380Y-55847619D02*
X53752380Y-55847619D01*
X53895238Y-55942857D01*
X53990476Y-56038095D01*
X54038095Y-56133333D01*
X58852380Y-58509047D02*
X58376190Y-58842380D01*
X58852380Y-59080476D02*
X57852380Y-59080476D01*
X57852380Y-58699523D01*
X57900000Y-58604285D01*
X57947619Y-58556666D01*
X58042857Y-58509047D01*
X58185714Y-58509047D01*
X58280952Y-58556666D01*
X58328571Y-58604285D01*
X58376190Y-58699523D01*
X58376190Y-59080476D01*
X58852380Y-57556666D02*
X58852380Y-58128095D01*
X58852380Y-57842380D02*
X57852380Y-57842380D01*
X57995238Y-57937619D01*
X58090476Y-58032857D01*
X58138095Y-58128095D01*
X58852380Y-56604285D02*
X58852380Y-57175714D01*
X58852380Y-56890000D02*
X57852380Y-56890000D01*
X57995238Y-56985238D01*
X58090476Y-57080476D01*
X58138095Y-57175714D01*
X57947619Y-56223333D02*
X57900000Y-56175714D01*
X57852380Y-56080476D01*
X57852380Y-55842380D01*
X57900000Y-55747142D01*
X57947619Y-55699523D01*
X58042857Y-55651904D01*
X58138095Y-55651904D01*
X58280952Y-55699523D01*
X58852380Y-56270952D01*
X58852380Y-55651904D01*
X46856664Y-97909047D02*
X46380474Y-98242380D01*
X46856664Y-98480476D02*
X45856664Y-98480476D01*
X45856664Y-98099523D01*
X45904284Y-98004285D01*
X45951903Y-97956666D01*
X46047141Y-97909047D01*
X46189998Y-97909047D01*
X46285236Y-97956666D01*
X46332855Y-98004285D01*
X46380474Y-98099523D01*
X46380474Y-98480476D01*
X46856664Y-96956666D02*
X46856664Y-97528095D01*
X46856664Y-97242380D02*
X45856664Y-97242380D01*
X45999522Y-97337619D01*
X46094760Y-97432857D01*
X46142379Y-97528095D01*
X46856664Y-96004285D02*
X46856664Y-96575714D01*
X46856664Y-96290000D02*
X45856664Y-96290000D01*
X45999522Y-96385238D01*
X46094760Y-96480476D01*
X46142379Y-96575714D01*
X45856664Y-95670952D02*
X45856664Y-95051904D01*
X46237617Y-95385238D01*
X46237617Y-95242380D01*
X46285236Y-95147142D01*
X46332855Y-95099523D01*
X46428093Y-95051904D01*
X46666188Y-95051904D01*
X46761426Y-95099523D01*
X46809045Y-95147142D01*
X46856664Y-95242380D01*
X46856664Y-95528095D01*
X46809045Y-95623333D01*
X46761426Y-95670952D01*
X56952380Y-98019047D02*
X56476190Y-98352380D01*
X56952380Y-98590476D02*
X55952380Y-98590476D01*
X55952380Y-98209523D01*
X56000000Y-98114285D01*
X56047619Y-98066666D01*
X56142857Y-98019047D01*
X56285714Y-98019047D01*
X56380952Y-98066666D01*
X56428571Y-98114285D01*
X56476190Y-98209523D01*
X56476190Y-98590476D01*
X56952380Y-97066666D02*
X56952380Y-97638095D01*
X56952380Y-97352380D02*
X55952380Y-97352380D01*
X56095238Y-97447619D01*
X56190476Y-97542857D01*
X56238095Y-97638095D01*
X56952380Y-96114285D02*
X56952380Y-96685714D01*
X56952380Y-96400000D02*
X55952380Y-96400000D01*
X56095238Y-96495238D01*
X56190476Y-96590476D01*
X56238095Y-96685714D01*
X56285714Y-95257142D02*
X56952380Y-95257142D01*
X55904761Y-95495238D02*
X56619047Y-95733333D01*
X56619047Y-95114285D01*
X51913806Y-97909047D02*
X51437616Y-98242380D01*
X51913806Y-98480476D02*
X50913806Y-98480476D01*
X50913806Y-98099523D01*
X50961426Y-98004285D01*
X51009045Y-97956666D01*
X51104283Y-97909047D01*
X51247140Y-97909047D01*
X51342378Y-97956666D01*
X51389997Y-98004285D01*
X51437616Y-98099523D01*
X51437616Y-98480476D01*
X51913806Y-96956666D02*
X51913806Y-97528095D01*
X51913806Y-97242380D02*
X50913806Y-97242380D01*
X51056664Y-97337619D01*
X51151902Y-97432857D01*
X51199521Y-97528095D01*
X51913806Y-96004285D02*
X51913806Y-96575714D01*
X51913806Y-96290000D02*
X50913806Y-96290000D01*
X51056664Y-96385238D01*
X51151902Y-96480476D01*
X51199521Y-96575714D01*
X50913806Y-95099523D02*
X50913806Y-95575714D01*
X51389997Y-95623333D01*
X51342378Y-95575714D01*
X51294759Y-95480476D01*
X51294759Y-95242380D01*
X51342378Y-95147142D01*
X51389997Y-95099523D01*
X51485235Y-95051904D01*
X51723330Y-95051904D01*
X51818568Y-95099523D01*
X51866187Y-95147142D01*
X51913806Y-95242380D01*
X51913806Y-95480476D01*
X51866187Y-95575714D01*
X51818568Y-95623333D01*
X72142380Y-97909047D02*
X71666190Y-98242380D01*
X72142380Y-98480476D02*
X71142380Y-98480476D01*
X71142380Y-98099523D01*
X71190000Y-98004285D01*
X71237619Y-97956666D01*
X71332857Y-97909047D01*
X71475714Y-97909047D01*
X71570952Y-97956666D01*
X71618571Y-98004285D01*
X71666190Y-98099523D01*
X71666190Y-98480476D01*
X72142380Y-96956666D02*
X72142380Y-97528095D01*
X72142380Y-97242380D02*
X71142380Y-97242380D01*
X71285238Y-97337619D01*
X71380476Y-97432857D01*
X71428095Y-97528095D01*
X72142380Y-96004285D02*
X72142380Y-96575714D01*
X72142380Y-96290000D02*
X71142380Y-96290000D01*
X71285238Y-96385238D01*
X71380476Y-96480476D01*
X71428095Y-96575714D01*
X71142380Y-95147142D02*
X71142380Y-95337619D01*
X71190000Y-95432857D01*
X71237619Y-95480476D01*
X71380476Y-95575714D01*
X71570952Y-95623333D01*
X71951904Y-95623333D01*
X72047142Y-95575714D01*
X72094761Y-95528095D01*
X72142380Y-95432857D01*
X72142380Y-95242380D01*
X72094761Y-95147142D01*
X72047142Y-95099523D01*
X71951904Y-95051904D01*
X71713809Y-95051904D01*
X71618571Y-95099523D01*
X71570952Y-95147142D01*
X71523333Y-95242380D01*
X71523333Y-95432857D01*
X71570952Y-95528095D01*
X71618571Y-95575714D01*
X71713809Y-95623333D01*
X62052380Y-97819047D02*
X61576190Y-98152380D01*
X62052380Y-98390476D02*
X61052380Y-98390476D01*
X61052380Y-98009523D01*
X61100000Y-97914285D01*
X61147619Y-97866666D01*
X61242857Y-97819047D01*
X61385714Y-97819047D01*
X61480952Y-97866666D01*
X61528571Y-97914285D01*
X61576190Y-98009523D01*
X61576190Y-98390476D01*
X62052380Y-96866666D02*
X62052380Y-97438095D01*
X62052380Y-97152380D02*
X61052380Y-97152380D01*
X61195238Y-97247619D01*
X61290476Y-97342857D01*
X61338095Y-97438095D01*
X62052380Y-95914285D02*
X62052380Y-96485714D01*
X62052380Y-96200000D02*
X61052380Y-96200000D01*
X61195238Y-96295238D01*
X61290476Y-96390476D01*
X61338095Y-96485714D01*
X61052380Y-95580952D02*
X61052380Y-94914285D01*
X62052380Y-95342857D01*
X67085232Y-97909047D02*
X66609042Y-98242380D01*
X67085232Y-98480476D02*
X66085232Y-98480476D01*
X66085232Y-98099523D01*
X66132852Y-98004285D01*
X66180471Y-97956666D01*
X66275709Y-97909047D01*
X66418566Y-97909047D01*
X66513804Y-97956666D01*
X66561423Y-98004285D01*
X66609042Y-98099523D01*
X66609042Y-98480476D01*
X67085232Y-96956666D02*
X67085232Y-97528095D01*
X67085232Y-97242380D02*
X66085232Y-97242380D01*
X66228090Y-97337619D01*
X66323328Y-97432857D01*
X66370947Y-97528095D01*
X67085232Y-96004285D02*
X67085232Y-96575714D01*
X67085232Y-96290000D02*
X66085232Y-96290000D01*
X66228090Y-96385238D01*
X66323328Y-96480476D01*
X66370947Y-96575714D01*
X66513804Y-95432857D02*
X66466185Y-95528095D01*
X66418566Y-95575714D01*
X66323328Y-95623333D01*
X66275709Y-95623333D01*
X66180471Y-95575714D01*
X66132852Y-95528095D01*
X66085232Y-95432857D01*
X66085232Y-95242380D01*
X66132852Y-95147142D01*
X66180471Y-95099523D01*
X66275709Y-95051904D01*
X66323328Y-95051904D01*
X66418566Y-95099523D01*
X66466185Y-95147142D01*
X66513804Y-95242380D01*
X66513804Y-95432857D01*
X66561423Y-95528095D01*
X66609042Y-95575714D01*
X66704280Y-95623333D01*
X66894756Y-95623333D01*
X66989994Y-95575714D01*
X67037613Y-95528095D01*
X67085232Y-95432857D01*
X67085232Y-95242380D01*
X67037613Y-95147142D01*
X66989994Y-95099523D01*
X66894756Y-95051904D01*
X66704280Y-95051904D01*
X66609042Y-95099523D01*
X66561423Y-95147142D01*
X66513804Y-95242380D01*
X78172380Y-60674285D02*
X78981904Y-60674285D01*
X79077142Y-60626666D01*
X79124761Y-60579047D01*
X79172380Y-60483809D01*
X79172380Y-60293333D01*
X79124761Y-60198095D01*
X79077142Y-60150476D01*
X78981904Y-60102857D01*
X78172380Y-60102857D01*
X79172380Y-59102857D02*
X79172380Y-59674285D01*
X79172380Y-59388571D02*
X78172380Y-59388571D01*
X78315238Y-59483809D01*
X78410476Y-59579047D01*
X78458095Y-59674285D01*
X78172380Y-58483809D02*
X78172380Y-58388571D01*
X78220000Y-58293333D01*
X78267619Y-58245714D01*
X78362857Y-58198095D01*
X78553333Y-58150476D01*
X78791428Y-58150476D01*
X78981904Y-58198095D01*
X79077142Y-58245714D01*
X79124761Y-58293333D01*
X79172380Y-58388571D01*
X79172380Y-58483809D01*
X79124761Y-58579047D01*
X79077142Y-58626666D01*
X78981904Y-58674285D01*
X78791428Y-58721904D01*
X78553333Y-58721904D01*
X78362857Y-58674285D01*
X78267619Y-58626666D01*
X78220000Y-58579047D01*
X78172380Y-58483809D01*
X79172380Y-57198095D02*
X79172380Y-57769523D01*
X79172380Y-57483809D02*
X78172380Y-57483809D01*
X78315238Y-57579047D01*
X78410476Y-57674285D01*
X78458095Y-57769523D01*
X33652380Y-55214285D02*
X34461904Y-55214285D01*
X34557142Y-55166666D01*
X34604761Y-55119047D01*
X34652380Y-55023809D01*
X34652380Y-54833333D01*
X34604761Y-54738095D01*
X34557142Y-54690476D01*
X34461904Y-54642857D01*
X33652380Y-54642857D01*
X34652380Y-53642857D02*
X34652380Y-54214285D01*
X34652380Y-53928571D02*
X33652380Y-53928571D01*
X33795238Y-54023809D01*
X33890476Y-54119047D01*
X33938095Y-54214285D01*
X33652380Y-53023809D02*
X33652380Y-52928571D01*
X33700000Y-52833333D01*
X33747619Y-52785714D01*
X33842857Y-52738095D01*
X34033333Y-52690476D01*
X34271428Y-52690476D01*
X34461904Y-52738095D01*
X34557142Y-52785714D01*
X34604761Y-52833333D01*
X34652380Y-52928571D01*
X34652380Y-53023809D01*
X34604761Y-53119047D01*
X34557142Y-53166666D01*
X34461904Y-53214285D01*
X34271428Y-53261904D01*
X34033333Y-53261904D01*
X33842857Y-53214285D01*
X33747619Y-53166666D01*
X33700000Y-53119047D01*
X33652380Y-53023809D01*
X33985714Y-51833333D02*
X34652380Y-51833333D01*
X33604761Y-52071428D02*
X34319047Y-52309523D01*
X34319047Y-51690476D01*
X93682380Y-82424285D02*
X94491904Y-82424285D01*
X94587142Y-82376666D01*
X94634761Y-82329047D01*
X94682380Y-82233809D01*
X94682380Y-82043333D01*
X94634761Y-81948095D01*
X94587142Y-81900476D01*
X94491904Y-81852857D01*
X93682380Y-81852857D01*
X94682380Y-80852857D02*
X94682380Y-81424285D01*
X94682380Y-81138571D02*
X93682380Y-81138571D01*
X93825238Y-81233809D01*
X93920476Y-81329047D01*
X93968095Y-81424285D01*
X93682380Y-80233809D02*
X93682380Y-80138571D01*
X93730000Y-80043333D01*
X93777619Y-79995714D01*
X93872857Y-79948095D01*
X94063333Y-79900476D01*
X94301428Y-79900476D01*
X94491904Y-79948095D01*
X94587142Y-79995714D01*
X94634761Y-80043333D01*
X94682380Y-80138571D01*
X94682380Y-80233809D01*
X94634761Y-80329047D01*
X94587142Y-80376666D01*
X94491904Y-80424285D01*
X94301428Y-80471904D01*
X94063333Y-80471904D01*
X93872857Y-80424285D01*
X93777619Y-80376666D01*
X93730000Y-80329047D01*
X93682380Y-80233809D01*
X93682380Y-78995714D02*
X93682380Y-79471904D01*
X94158571Y-79519523D01*
X94110952Y-79471904D01*
X94063333Y-79376666D01*
X94063333Y-79138571D01*
X94110952Y-79043333D01*
X94158571Y-78995714D01*
X94253809Y-78948095D01*
X94491904Y-78948095D01*
X94587142Y-78995714D01*
X94634761Y-79043333D01*
X94682380Y-79138571D01*
X94682380Y-79376666D01*
X94634761Y-79471904D01*
X94587142Y-79519523D01*
X44121428Y-74501190D02*
X44121428Y-74977380D01*
X43788095Y-73977380D02*
X44121428Y-74501190D01*
X44454761Y-73977380D01*
X45311904Y-74977380D02*
X44740476Y-74977380D01*
X45026190Y-74977380D02*
X45026190Y-73977380D01*
X44930952Y-74120238D01*
X44835714Y-74215476D01*
X44740476Y-74263095D01*
X45930952Y-73977380D02*
X46026190Y-73977380D01*
X46121428Y-74025000D01*
X46169047Y-74072619D01*
X46216666Y-74167857D01*
X46264285Y-74358333D01*
X46264285Y-74596428D01*
X46216666Y-74786904D01*
X46169047Y-74882142D01*
X46121428Y-74929761D01*
X46026190Y-74977380D01*
X45930952Y-74977380D01*
X45835714Y-74929761D01*
X45788095Y-74882142D01*
X45740476Y-74786904D01*
X45692857Y-74596428D01*
X45692857Y-74358333D01*
X45740476Y-74167857D01*
X45788095Y-74072619D01*
X45835714Y-74025000D01*
X45930952Y-73977380D01*
X47216666Y-74977380D02*
X46645238Y-74977380D01*
X46930952Y-74977380D02*
X46930952Y-73977380D01*
X46835714Y-74120238D01*
X46740476Y-74215476D01*
X46645238Y-74263095D01*
M02*
