G04 #@! TF.GenerationSoftware,KiCad,Pcbnew,(5.0.0)*
G04 #@! TF.CreationDate,2019-04-04T01:40:39-07:00*
G04 #@! TF.ProjectId,kicad-cpu-board,6B696361642D6370752D626F6172642E,rev?*
G04 #@! TF.SameCoordinates,Original*
G04 #@! TF.FileFunction,Copper,L2,Bot,Signal*
G04 #@! TF.FilePolarity,Positive*
%FSLAX46Y46*%
G04 Gerber Fmt 4.6, Leading zero omitted, Abs format (unit mm)*
G04 Created by KiCad (PCBNEW (5.0.0)) date 04/04/19 01:40:39*
%MOMM*%
%LPD*%
G01*
G04 APERTURE LIST*
G04 #@! TA.AperFunction,ComponentPad*
%ADD10R,1.600000X1.600000*%
G04 #@! TD*
G04 #@! TA.AperFunction,ComponentPad*
%ADD11O,1.600000X1.600000*%
G04 #@! TD*
G04 #@! TA.AperFunction,ComponentPad*
%ADD12C,1.600000*%
G04 #@! TD*
G04 #@! TA.AperFunction,ComponentPad*
%ADD13C,1.200000*%
G04 #@! TD*
G04 #@! TA.AperFunction,ComponentPad*
%ADD14R,1.200000X1.200000*%
G04 #@! TD*
G04 #@! TA.AperFunction,ComponentPad*
%ADD15O,1.800000X1.800000*%
G04 #@! TD*
G04 #@! TA.AperFunction,ComponentPad*
%ADD16R,1.800000X1.800000*%
G04 #@! TD*
G04 #@! TA.AperFunction,ComponentPad*
%ADD17R,2.400000X2.400000*%
G04 #@! TD*
G04 #@! TA.AperFunction,ComponentPad*
%ADD18O,2.400000X2.400000*%
G04 #@! TD*
G04 #@! TA.AperFunction,ComponentPad*
%ADD19O,1.700000X1.700000*%
G04 #@! TD*
G04 #@! TA.AperFunction,ComponentPad*
%ADD20R,1.700000X1.700000*%
G04 #@! TD*
G04 #@! TA.AperFunction,ComponentPad*
%ADD21O,0.900000X1.500000*%
G04 #@! TD*
G04 #@! TA.AperFunction,ComponentPad*
%ADD22R,0.900000X1.500000*%
G04 #@! TD*
G04 #@! TA.AperFunction,ComponentPad*
%ADD23C,1.500000*%
G04 #@! TD*
G04 #@! TA.AperFunction,ViaPad*
%ADD24C,4.000000*%
G04 #@! TD*
G04 #@! TA.AperFunction,ViaPad*
%ADD25C,0.800000*%
G04 #@! TD*
G04 #@! TA.AperFunction,Conductor*
%ADD26C,0.250000*%
G04 #@! TD*
G04 #@! TA.AperFunction,Conductor*
%ADD27C,0.400000*%
G04 #@! TD*
G04 #@! TA.AperFunction,Conductor*
%ADD28C,0.800000*%
G04 #@! TD*
G04 #@! TA.AperFunction,Conductor*
%ADD29C,0.254000*%
G04 #@! TD*
G04 APERTURE END LIST*
D10*
G04 #@! TO.P,U106,1*
G04 #@! TO.N,+5V*
X80200000Y-76900000D03*
D11*
G04 #@! TO.P,U106,5*
G04 #@! TO.N,GND*
X72580000Y-84520000D03*
G04 #@! TO.P,U106,2*
G04 #@! TO.N,CS3*
X77660000Y-76900000D03*
G04 #@! TO.P,U106,6*
G04 #@! TO.N,Net-(U105-Pad5)*
X75120000Y-84520000D03*
G04 #@! TO.P,U106,3*
G04 #@! TO.N,SCK*
X75120000Y-76900000D03*
G04 #@! TO.P,U106,7*
G04 #@! TO.N,GND*
X77660000Y-84520000D03*
G04 #@! TO.P,U106,4*
G04 #@! TO.N,MOSI*
X72580000Y-76900000D03*
G04 #@! TO.P,U106,8*
G04 #@! TO.N,Net-(U105-Pad3)*
X80200000Y-84520000D03*
G04 #@! TD*
D12*
G04 #@! TO.P,C115,1*
G04 #@! TO.N,+12V*
X97000000Y-69000000D03*
G04 #@! TO.P,C115,2*
G04 #@! TO.N,GND*
X99500000Y-69000000D03*
G04 #@! TD*
G04 #@! TO.P,C116,2*
G04 #@! TO.N,GND*
X30625001Y-90625001D03*
G04 #@! TO.P,C116,1*
G04 #@! TO.N,+12V*
X28125001Y-90625001D03*
G04 #@! TD*
D11*
G04 #@! TO.P,U103,28*
G04 #@! TO.N,ENC2*
X68000000Y-84620000D03*
G04 #@! TO.P,U103,14*
G04 #@! TO.N,CS2*
X34980000Y-77000000D03*
G04 #@! TO.P,U103,27*
G04 #@! TO.N,ENC1*
X65460000Y-84620000D03*
G04 #@! TO.P,U103,13*
G04 #@! TO.N,DIG3*
X37520000Y-77000000D03*
G04 #@! TO.P,U103,26*
G04 #@! TO.N,AD4*
X62920000Y-84620000D03*
G04 #@! TO.P,U103,12*
G04 #@! TO.N,DIG2*
X40060000Y-77000000D03*
G04 #@! TO.P,U103,25*
G04 #@! TO.N,AD3*
X60380000Y-84620000D03*
G04 #@! TO.P,U103,11*
G04 #@! TO.N,DIG1*
X42600000Y-77000000D03*
G04 #@! TO.P,U103,24*
G04 #@! TO.N,AD2*
X57840000Y-84620000D03*
G04 #@! TO.P,U103,10*
G04 #@! TO.N,Net-(C107-Pad2)*
X45140000Y-77000000D03*
G04 #@! TO.P,U103,23*
G04 #@! TO.N,AD1*
X55300000Y-84620000D03*
G04 #@! TO.P,U103,9*
G04 #@! TO.N,Net-(C105-Pad2)*
X47680000Y-77000000D03*
G04 #@! TO.P,U103,22*
G04 #@! TO.N,GND*
X52760000Y-84620000D03*
G04 #@! TO.P,U103,8*
X50220000Y-77000000D03*
G04 #@! TO.P,U103,21*
G04 #@! TO.N,Net-(C106-Pad1)*
X50220000Y-84620000D03*
G04 #@! TO.P,U103,7*
G04 #@! TO.N,+5V*
X52760000Y-77000000D03*
G04 #@! TO.P,U103,20*
G04 #@! TO.N,Net-(C104-Pad1)*
X47680000Y-84620000D03*
G04 #@! TO.P,U103,6*
G04 #@! TO.N,ResetIn*
X55300000Y-77000000D03*
G04 #@! TO.P,U103,19*
G04 #@! TO.N,SCK*
X45140000Y-84620000D03*
G04 #@! TO.P,U103,5*
G04 #@! TO.N,ClockIn*
X57840000Y-77000000D03*
G04 #@! TO.P,U103,18*
G04 #@! TO.N,MISO*
X42600000Y-84620000D03*
G04 #@! TO.P,U103,4*
G04 #@! TO.N,Net-(D102-Pad1)*
X60380000Y-77000000D03*
G04 #@! TO.P,U103,17*
G04 #@! TO.N,MOSI*
X40060000Y-84620000D03*
G04 #@! TO.P,U103,3*
G04 #@! TO.N,CS3*
X62920000Y-77000000D03*
G04 #@! TO.P,U103,16*
G04 #@! TO.N,CS0*
X37520000Y-84620000D03*
G04 #@! TO.P,U103,2*
G04 #@! TO.N,Net-(D101-Pad1)*
X65460000Y-77000000D03*
G04 #@! TO.P,U103,15*
G04 #@! TO.N,CS1*
X34980000Y-84620000D03*
D10*
G04 #@! TO.P,U103,1*
G04 #@! TO.N,RESET*
X68000000Y-77000000D03*
G04 #@! TD*
D12*
G04 #@! TO.P,C101,2*
G04 #@! TO.N,GND*
X72100000Y-69100000D03*
D10*
G04 #@! TO.P,C101,1*
G04 #@! TO.N,+5V*
X74600000Y-69100000D03*
G04 #@! TD*
D13*
G04 #@! TO.P,C102,2*
G04 #@! TO.N,GND*
X29000000Y-73100000D03*
D14*
G04 #@! TO.P,C102,1*
G04 #@! TO.N,+5V*
X31000000Y-73100000D03*
G04 #@! TD*
D12*
G04 #@! TO.P,C103,1*
G04 #@! TO.N,+5V*
X80000000Y-88350000D03*
G04 #@! TO.P,C103,2*
G04 #@! TO.N,GND*
X77500000Y-88350000D03*
G04 #@! TD*
G04 #@! TO.P,C104,2*
G04 #@! TO.N,GND*
X45350000Y-88350000D03*
G04 #@! TO.P,C104,1*
G04 #@! TO.N,Net-(C104-Pad1)*
X42850000Y-88350000D03*
G04 #@! TD*
G04 #@! TO.P,C105,2*
G04 #@! TO.N,Net-(C105-Pad2)*
X50000000Y-65500000D03*
G04 #@! TO.P,C105,1*
G04 #@! TO.N,GND*
X47500000Y-65500000D03*
G04 #@! TD*
G04 #@! TO.P,C106,1*
G04 #@! TO.N,Net-(C106-Pad1)*
X53200000Y-88350000D03*
G04 #@! TO.P,C106,2*
G04 #@! TO.N,GND*
X50700000Y-88350000D03*
G04 #@! TD*
G04 #@! TO.P,C107,2*
G04 #@! TO.N,Net-(C107-Pad2)*
X41000000Y-65500000D03*
G04 #@! TO.P,C107,1*
G04 #@! TO.N,GND*
X43500000Y-65500000D03*
G04 #@! TD*
D10*
G04 #@! TO.P,C108,1*
G04 #@! TO.N,+3V3*
X29525000Y-104000000D03*
D12*
G04 #@! TO.P,C108,2*
G04 #@! TO.N,GND*
X29525000Y-106500000D03*
G04 #@! TD*
G04 #@! TO.P,C109,2*
G04 #@! TO.N,GND*
X90100000Y-69100000D03*
D10*
G04 #@! TO.P,C109,1*
G04 #@! TO.N,+12V*
X92600000Y-69100000D03*
G04 #@! TD*
G04 #@! TO.P,C110,1*
G04 #@! TO.N,GND*
X83600000Y-69100000D03*
D12*
G04 #@! TO.P,C110,2*
G04 #@! TO.N,-12VA*
X81100000Y-69100000D03*
G04 #@! TD*
G04 #@! TO.P,C111,2*
G04 #@! TO.N,+3V3*
X30775000Y-68600000D03*
G04 #@! TO.P,C111,1*
G04 #@! TO.N,GND*
X28275000Y-68600000D03*
G04 #@! TD*
G04 #@! TO.P,C112,2*
G04 #@! TO.N,GND*
X37500000Y-88350000D03*
G04 #@! TO.P,C112,1*
G04 #@! TO.N,+5V*
X35000000Y-88350000D03*
G04 #@! TD*
G04 #@! TO.P,C113,1*
G04 #@! TO.N,Net-(C113-Pad1)*
X58000000Y-88350000D03*
G04 #@! TO.P,C113,2*
G04 #@! TO.N,Net-(C113-Pad2)*
X60500000Y-88350000D03*
G04 #@! TD*
G04 #@! TO.P,C114,2*
G04 #@! TO.N,Net-(C114-Pad2)*
X87000000Y-88350000D03*
G04 #@! TO.P,C114,1*
G04 #@! TO.N,Net-(C114-Pad1)*
X89500000Y-88350000D03*
G04 #@! TD*
D15*
G04 #@! TO.P,D101,2*
G04 #@! TO.N,GND*
X60500000Y-64880000D03*
D16*
G04 #@! TO.P,D101,1*
G04 #@! TO.N,Net-(D101-Pad1)*
X60500000Y-72500000D03*
G04 #@! TD*
G04 #@! TO.P,D102,1*
G04 #@! TO.N,Net-(D102-Pad1)*
X55500000Y-72500000D03*
D15*
G04 #@! TO.P,D102,2*
G04 #@! TO.N,GND*
X55500000Y-64880000D03*
G04 #@! TD*
D17*
G04 #@! TO.P,D103,1*
G04 #@! TO.N,Net-(D103-Pad1)*
X98000000Y-74000000D03*
D18*
G04 #@! TO.P,D103,2*
G04 #@! TO.N,Net-(D103-Pad2)*
X98000000Y-84160000D03*
G04 #@! TD*
G04 #@! TO.P,D104,2*
G04 #@! TO.N,Net-(D104-Pad2)*
X98000000Y-100160000D03*
D17*
G04 #@! TO.P,D104,1*
G04 #@! TO.N,Net-(D104-Pad1)*
X98000000Y-90000000D03*
G04 #@! TD*
D19*
G04 #@! TO.P,J101,6*
G04 #@! TO.N,GND*
X30790000Y-84480000D03*
G04 #@! TO.P,J101,5*
G04 #@! TO.N,RESET*
X28250000Y-84480000D03*
G04 #@! TO.P,J101,4*
G04 #@! TO.N,MOSI*
X30790000Y-81940000D03*
G04 #@! TO.P,J101,3*
G04 #@! TO.N,SCK*
X28250000Y-81940000D03*
G04 #@! TO.P,J101,2*
G04 #@! TO.N,+5V*
X30790000Y-79400000D03*
D20*
G04 #@! TO.P,J101,1*
G04 #@! TO.N,MISO*
X28250000Y-79400000D03*
G04 #@! TD*
D19*
G04 #@! TO.P,J102,10*
G04 #@! TO.N,ENC1*
X92875993Y-49594547D03*
G04 #@! TO.P,J102,9*
G04 #@! TO.N,ENC2*
X90335993Y-49594547D03*
G04 #@! TO.P,J102,8*
G04 #@! TO.N,GND*
X87795993Y-49594547D03*
G04 #@! TO.P,J102,7*
X85255993Y-49594547D03*
G04 #@! TO.P,J102,6*
G04 #@! TO.N,DIG3*
X82715993Y-49594547D03*
G04 #@! TO.P,J102,5*
G04 #@! TO.N,DIG2*
X80175993Y-49594547D03*
G04 #@! TO.P,J102,4*
G04 #@! TO.N,DIG1*
X77635993Y-49594547D03*
G04 #@! TO.P,J102,3*
G04 #@! TO.N,CS1*
X75095993Y-49594547D03*
G04 #@! TO.P,J102,2*
G04 #@! TO.N,SCK*
X72555993Y-49594547D03*
D20*
G04 #@! TO.P,J102,1*
G04 #@! TO.N,+5V*
X70015993Y-49594547D03*
G04 #@! TD*
D19*
G04 #@! TO.P,J103,15*
G04 #@! TO.N,CS0*
X72075993Y-107094547D03*
G04 #@! TO.P,J103,14*
G04 #@! TO.N,MISO*
X69535993Y-107094547D03*
G04 #@! TO.P,J103,13*
G04 #@! TO.N,MOSI*
X66995993Y-107094547D03*
G04 #@! TO.P,J103,12*
G04 #@! TO.N,SCK*
X64455993Y-107094547D03*
G04 #@! TO.P,J103,11*
G04 #@! TO.N,CS1*
X61915993Y-107094547D03*
G04 #@! TO.P,J103,10*
G04 #@! TO.N,ClockIn*
X59375993Y-107094547D03*
G04 #@! TO.P,J103,9*
G04 #@! TO.N,ResetIn*
X56835993Y-107094547D03*
G04 #@! TO.P,J103,8*
G04 #@! TO.N,CV*
X54295993Y-107094547D03*
G04 #@! TO.P,J103,7*
G04 #@! TO.N,Pitch*
X51755993Y-107094547D03*
G04 #@! TO.P,J103,6*
G04 #@! TO.N,ClockOut*
X49215993Y-107094547D03*
G04 #@! TO.P,J103,5*
G04 #@! TO.N,Gate*
X46675993Y-107094547D03*
G04 #@! TO.P,J103,4*
G04 #@! TO.N,AD4*
X44135993Y-107094547D03*
G04 #@! TO.P,J103,3*
G04 #@! TO.N,AD3*
X41595993Y-107094547D03*
G04 #@! TO.P,J103,2*
G04 #@! TO.N,AD2*
X39055993Y-107094547D03*
D20*
G04 #@! TO.P,J103,1*
G04 #@! TO.N,AD1*
X36515993Y-107094547D03*
G04 #@! TD*
D19*
G04 #@! TO.P,J104,10*
G04 #@! TO.N,Net-(D104-Pad1)*
X87840000Y-107540000D03*
G04 #@! TO.P,J104,9*
X87840000Y-105000000D03*
G04 #@! TO.P,J104,8*
G04 #@! TO.N,GND*
X90380000Y-107540000D03*
G04 #@! TO.P,J104,7*
X90380000Y-105000000D03*
G04 #@! TO.P,J104,6*
X92920000Y-107540000D03*
G04 #@! TO.P,J104,5*
X92920000Y-105000000D03*
G04 #@! TO.P,J104,4*
X95460000Y-107540000D03*
G04 #@! TO.P,J104,3*
X95460000Y-105000000D03*
G04 #@! TO.P,J104,2*
G04 #@! TO.N,Net-(D103-Pad2)*
X98000000Y-107540000D03*
D20*
G04 #@! TO.P,J104,1*
X98000000Y-105000000D03*
G04 #@! TD*
D11*
G04 #@! TO.P,L101,2*
G04 #@! TO.N,+5V*
X83000000Y-100570000D03*
D12*
G04 #@! TO.P,L101,1*
G04 #@! TO.N,Net-(C104-Pad1)*
X83000000Y-92950000D03*
G04 #@! TD*
D11*
G04 #@! TO.P,L102,2*
G04 #@! TO.N,Net-(D103-Pad1)*
X93000000Y-92980000D03*
D12*
G04 #@! TO.P,L102,1*
G04 #@! TO.N,+12V*
X93000000Y-100600000D03*
G04 #@! TD*
G04 #@! TO.P,L103,1*
G04 #@! TO.N,-12VA*
X88000000Y-92950000D03*
D11*
G04 #@! TO.P,L103,2*
G04 #@! TO.N,Net-(D104-Pad2)*
X88000000Y-100570000D03*
G04 #@! TD*
D21*
G04 #@! TO.P,Q101,2*
G04 #@! TO.N,+3V3*
X64270000Y-49500000D03*
G04 #@! TO.P,Q101,3*
G04 #@! TO.N,MISO*
X65540000Y-49500000D03*
D22*
G04 #@! TO.P,Q101,1*
G04 #@! TO.N,Net-(Q101-Pad1)*
X63000000Y-49500000D03*
G04 #@! TD*
D21*
G04 #@! TO.P,Q102,2*
G04 #@! TO.N,+3V3*
X48270000Y-49500000D03*
G04 #@! TO.P,Q102,3*
G04 #@! TO.N,MOSI*
X49540000Y-49500000D03*
D22*
G04 #@! TO.P,Q102,1*
G04 #@! TO.N,Net-(Q102-Pad1)*
X47000000Y-49500000D03*
G04 #@! TD*
G04 #@! TO.P,Q103,1*
G04 #@! TO.N,Net-(Q103-Pad1)*
X39000000Y-49500000D03*
D21*
G04 #@! TO.P,Q103,3*
G04 #@! TO.N,CS2*
X41540000Y-49500000D03*
G04 #@! TO.P,Q103,2*
G04 #@! TO.N,+3V3*
X40270000Y-49500000D03*
G04 #@! TD*
D22*
G04 #@! TO.P,Q104,1*
G04 #@! TO.N,Net-(Q104-Pad1)*
X55000000Y-49500000D03*
D21*
G04 #@! TO.P,Q104,3*
G04 #@! TO.N,SCK*
X57540000Y-49500000D03*
G04 #@! TO.P,Q104,2*
G04 #@! TO.N,+3V3*
X56270000Y-49500000D03*
G04 #@! TD*
D12*
G04 #@! TO.P,R101,1*
G04 #@! TO.N,Net-(C107-Pad2)*
X36000000Y-72600000D03*
D11*
G04 #@! TO.P,R101,2*
G04 #@! TO.N,Net-(C105-Pad2)*
X36000000Y-64980000D03*
G04 #@! TD*
D12*
G04 #@! TO.P,R102,1*
G04 #@! TO.N,+5V*
X66000000Y-65000000D03*
D11*
G04 #@! TO.P,R102,2*
G04 #@! TO.N,RESET*
X66000000Y-72620000D03*
G04 #@! TD*
D12*
G04 #@! TO.P,R103,1*
G04 #@! TO.N,Gate*
X38600000Y-100600000D03*
D11*
G04 #@! TO.P,R103,2*
G04 #@! TO.N,Net-(D101-Pad1)*
X38600000Y-92980000D03*
G04 #@! TD*
G04 #@! TO.P,R104,2*
G04 #@! TO.N,Net-(Q101-Pad1)*
X62500000Y-53580000D03*
D12*
G04 #@! TO.P,R104,1*
G04 #@! TO.N,+3V3*
X62500000Y-61200000D03*
G04 #@! TD*
D11*
G04 #@! TO.P,R105,2*
G04 #@! TO.N,MISO*
X66500000Y-53580000D03*
D12*
G04 #@! TO.P,R105,1*
G04 #@! TO.N,+5V*
X66500000Y-61200000D03*
G04 #@! TD*
G04 #@! TO.P,R106,1*
G04 #@! TO.N,+3V3*
X46500000Y-61200000D03*
D11*
G04 #@! TO.P,R106,2*
G04 #@! TO.N,Net-(Q102-Pad1)*
X46500000Y-53580000D03*
G04 #@! TD*
G04 #@! TO.P,R107,2*
G04 #@! TO.N,MOSI*
X50500000Y-53580000D03*
D12*
G04 #@! TO.P,R107,1*
G04 #@! TO.N,+5V*
X50500000Y-61200000D03*
G04 #@! TD*
D11*
G04 #@! TO.P,R108,2*
G04 #@! TO.N,Net-(D102-Pad1)*
X43657142Y-92980000D03*
D12*
G04 #@! TO.P,R108,1*
G04 #@! TO.N,ClockOut*
X43657142Y-100600000D03*
G04 #@! TD*
D11*
G04 #@! TO.P,R109,2*
G04 #@! TO.N,Net-(Q103-Pad1)*
X38500000Y-53580000D03*
D12*
G04 #@! TO.P,R109,1*
G04 #@! TO.N,+3V3*
X38500000Y-61200000D03*
G04 #@! TD*
G04 #@! TO.P,R110,1*
G04 #@! TO.N,+5V*
X42500000Y-61200000D03*
D11*
G04 #@! TO.P,R110,2*
G04 #@! TO.N,CS2*
X42500000Y-53580000D03*
G04 #@! TD*
G04 #@! TO.P,R111,2*
G04 #@! TO.N,Net-(Q104-Pad1)*
X54500000Y-53580000D03*
D12*
G04 #@! TO.P,R111,1*
G04 #@! TO.N,+3V3*
X54500000Y-61200000D03*
G04 #@! TD*
G04 #@! TO.P,R112,1*
G04 #@! TO.N,+5V*
X58500000Y-61200000D03*
D11*
G04 #@! TO.P,R112,2*
G04 #@! TO.N,SCK*
X58500000Y-53580000D03*
G04 #@! TD*
G04 #@! TO.P,R113,2*
G04 #@! TO.N,Net-(C113-Pad1)*
X48714284Y-92980000D03*
D12*
G04 #@! TO.P,R113,1*
G04 #@! TO.N,Pitch*
X48714284Y-100600000D03*
G04 #@! TD*
G04 #@! TO.P,R114,1*
G04 #@! TO.N,Net-(C113-Pad2)*
X58828568Y-92950000D03*
D11*
G04 #@! TO.P,R114,2*
G04 #@! TO.N,GND*
X58828568Y-100570000D03*
G04 #@! TD*
G04 #@! TO.P,R115,2*
G04 #@! TO.N,Net-(C113-Pad2)*
X53771426Y-92980000D03*
D12*
G04 #@! TO.P,R115,1*
G04 #@! TO.N,Pitch*
X53771426Y-100600000D03*
G04 #@! TD*
G04 #@! TO.P,R116,1*
G04 #@! TO.N,CV*
X74000000Y-100600000D03*
D11*
G04 #@! TO.P,R116,2*
G04 #@! TO.N,Net-(C114-Pad1)*
X74000000Y-92980000D03*
G04 #@! TD*
G04 #@! TO.P,R117,2*
G04 #@! TO.N,GND*
X63885710Y-100570000D03*
D12*
G04 #@! TO.P,R117,1*
G04 #@! TO.N,Net-(C114-Pad2)*
X63885710Y-92950000D03*
G04 #@! TD*
G04 #@! TO.P,R118,1*
G04 #@! TO.N,CV*
X68942852Y-100600000D03*
D11*
G04 #@! TO.P,R118,2*
G04 #@! TO.N,Net-(C114-Pad2)*
X68942852Y-92980000D03*
G04 #@! TD*
D15*
G04 #@! TO.P,U101,3*
G04 #@! TO.N,+5V*
X99300000Y-56420000D03*
G04 #@! TO.P,U101,2*
G04 #@! TO.N,GND*
X99300000Y-58960000D03*
D16*
G04 #@! TO.P,U101,1*
G04 #@! TO.N,+12V*
X99300000Y-61500000D03*
G04 #@! TD*
D22*
G04 #@! TO.P,U102,1*
G04 #@! TO.N,+3V3*
X28000000Y-95000000D03*
D21*
G04 #@! TO.P,U102,3*
G04 #@! TO.N,+12V*
X30540000Y-95000000D03*
G04 #@! TO.P,U102,2*
G04 #@! TO.N,GND*
X29270000Y-95000000D03*
G04 #@! TD*
D11*
G04 #@! TO.P,U105,8*
G04 #@! TO.N,+12V*
X91900000Y-84520000D03*
G04 #@! TO.P,U105,4*
G04 #@! TO.N,-12VA*
X84280000Y-76900000D03*
G04 #@! TO.P,U105,7*
G04 #@! TO.N,Net-(C114-Pad1)*
X89360000Y-84520000D03*
G04 #@! TO.P,U105,3*
G04 #@! TO.N,Net-(U105-Pad3)*
X86820000Y-76900000D03*
G04 #@! TO.P,U105,6*
G04 #@! TO.N,Net-(C114-Pad2)*
X86820000Y-84520000D03*
G04 #@! TO.P,U105,2*
G04 #@! TO.N,Net-(C113-Pad2)*
X89360000Y-76900000D03*
G04 #@! TO.P,U105,5*
G04 #@! TO.N,Net-(U105-Pad5)*
X84280000Y-84520000D03*
D10*
G04 #@! TO.P,U105,1*
G04 #@! TO.N,Net-(C113-Pad1)*
X91900000Y-76900000D03*
G04 #@! TD*
D23*
G04 #@! TO.P,Y101,2*
G04 #@! TO.N,Net-(C107-Pad2)*
X43100000Y-71000000D03*
G04 #@! TO.P,Y101,1*
G04 #@! TO.N,Net-(C105-Pad2)*
X48000000Y-71000000D03*
G04 #@! TD*
D24*
G04 #@! TO.N,GND*
X69500000Y-89050000D03*
D25*
G04 #@! TO.N,ENC1*
X75000000Y-64600000D03*
G04 #@! TO.N,ENC2*
X76300000Y-64600000D03*
G04 #@! TD*
D26*
G04 #@! TO.N,GND*
X28332500Y-68657500D02*
X28275000Y-68600000D01*
D27*
G04 #@! TO.N,+5V*
X30600000Y-73100000D02*
X30332500Y-73100000D01*
X52760000Y-77000000D02*
X49260000Y-80500000D01*
X31890000Y-80500000D02*
X30790000Y-79400000D01*
X49260000Y-80500000D02*
X31890000Y-80500000D01*
D28*
X96922272Y-47922272D02*
X73372998Y-47922272D01*
X101000000Y-52000000D02*
X96922272Y-47922272D01*
X101000000Y-54720000D02*
X101000000Y-52000000D01*
X99300000Y-56420000D02*
X101000000Y-54720000D01*
X70038268Y-47922272D02*
X71500000Y-47922272D01*
X70015993Y-47944547D02*
X70038268Y-47922272D01*
X70015993Y-49594547D02*
X70015993Y-47944547D01*
X73372998Y-47922272D02*
X71500000Y-47922272D01*
X71500000Y-47922272D02*
X71377728Y-47922272D01*
D26*
G04 #@! TO.N,Net-(C104-Pad1)*
X81844999Y-94105001D02*
X83000000Y-92950000D01*
X56465011Y-89950009D02*
X64247859Y-89950009D01*
X54174999Y-84369997D02*
X54174999Y-87659997D01*
X53300001Y-83494999D02*
X54174999Y-84369997D01*
X48554998Y-84620000D02*
X49679999Y-83494999D01*
X68402851Y-94105001D02*
X81844999Y-94105001D01*
X47680000Y-84620000D02*
X48554998Y-84620000D01*
X54174999Y-87659997D02*
X56465011Y-89950009D01*
X64247859Y-89950009D02*
X68402851Y-94105001D01*
X49679999Y-83494999D02*
X53300001Y-83494999D01*
G04 #@! TO.N,Net-(C105-Pad2)*
X48000000Y-76680000D02*
X47680000Y-77000000D01*
X48000000Y-71000000D02*
X48000000Y-76680000D01*
G04 #@! TO.N,Net-(C107-Pad2)*
X43100000Y-74960000D02*
X45140000Y-77000000D01*
X43100000Y-71000000D02*
X43100000Y-74960000D01*
G04 #@! TO.N,Net-(C113-Pad1)*
X58000000Y-88350000D02*
X59125001Y-89475001D01*
X65024991Y-86450010D02*
X62000000Y-89475001D01*
X87850000Y-82000000D02*
X73434998Y-82000000D01*
X68984987Y-86450010D02*
X65024991Y-86450010D01*
X91900000Y-77950000D02*
X87850000Y-82000000D01*
X73434998Y-82000000D02*
X68984987Y-86450010D01*
X91900000Y-76900000D02*
X91900000Y-77950000D01*
X59125001Y-89475001D02*
X62000000Y-89475001D01*
G04 #@! TO.N,Net-(C113-Pad2)*
X73248597Y-81549991D02*
X69728576Y-85070011D01*
X69728576Y-85070011D02*
X69566399Y-85070011D01*
X84710010Y-81549990D02*
X73248597Y-81549991D01*
X89360000Y-76900000D02*
X84710010Y-81549990D01*
X62850000Y-86000000D02*
X61299999Y-87550001D01*
X61299999Y-87550001D02*
X60500000Y-88350000D01*
X68798587Y-86000000D02*
X62850000Y-86000000D01*
X69728576Y-85070011D02*
X68798587Y-86000000D01*
G04 #@! TO.N,Net-(C114-Pad2)*
X87000000Y-88350000D02*
X85000000Y-90350000D01*
X71572852Y-90350000D02*
X68942852Y-92980000D01*
X85000000Y-90350000D02*
X71572852Y-90350000D01*
G04 #@! TO.N,Net-(C114-Pad1)*
X74799999Y-92180001D02*
X74000000Y-92980000D01*
X75155001Y-91824999D02*
X74799999Y-92180001D01*
X86025001Y-91824999D02*
X75155001Y-91824999D01*
X89500000Y-88350000D02*
X86025001Y-91824999D01*
G04 #@! TO.N,RESET*
X29099999Y-83630001D02*
X28250000Y-84480000D01*
X29614999Y-83115001D02*
X29099999Y-83630001D01*
X32324036Y-82144966D02*
X31354001Y-83115001D01*
X31354001Y-83115001D02*
X29614999Y-83115001D01*
X48934399Y-81694955D02*
X48484388Y-82144966D01*
X54045601Y-81694955D02*
X48934399Y-81694955D01*
X54495611Y-82144966D02*
X54045601Y-81694955D01*
X48484388Y-82144966D02*
X32324036Y-82144966D01*
X61505001Y-80439965D02*
X59800000Y-82144966D01*
X61505001Y-76749997D02*
X61505001Y-80439965D01*
X64834999Y-73419999D02*
X61505001Y-76749997D01*
X65200001Y-73419999D02*
X64834999Y-73419999D01*
X66000000Y-72620000D02*
X65200001Y-73419999D01*
X59800000Y-82144966D02*
X54495611Y-82144966D01*
G04 #@! TO.N,MOSI*
X49540000Y-52620000D02*
X50500000Y-53580000D01*
X49540000Y-49500000D02*
X49540000Y-52620000D01*
X29514999Y-80664999D02*
X29514999Y-78014999D01*
X30790000Y-81940000D02*
X29514999Y-80664999D01*
X49540000Y-49200000D02*
X45840000Y-45500000D01*
X49540000Y-49500000D02*
X49540000Y-49200000D01*
X45840000Y-45500000D02*
X28500000Y-45500000D01*
X27500000Y-46500000D02*
X27500000Y-67073587D01*
X28500000Y-45500000D02*
X27500000Y-46500000D01*
X27500000Y-67073587D02*
X26699988Y-67873599D01*
X26699988Y-67873599D02*
X26699988Y-75199988D01*
X26699988Y-75199988D02*
X29514999Y-78014999D01*
X72580000Y-76900000D02*
X67335034Y-82144966D01*
X67335034Y-82144966D02*
X66900799Y-82144966D01*
X66900799Y-82144966D02*
X66450789Y-82594977D01*
X49120799Y-82144966D02*
X48670789Y-82594977D01*
X53859201Y-82144966D02*
X49120799Y-82144966D01*
X54309211Y-82594977D02*
X53859201Y-82144966D01*
X40859999Y-83820001D02*
X40060000Y-84620000D01*
X48670789Y-82594977D02*
X42085023Y-82594977D01*
X42085023Y-82594977D02*
X40859999Y-83820001D01*
X66450789Y-82594977D02*
X54309211Y-82594977D01*
D27*
G04 #@! TO.N,SCK*
X57540000Y-52620000D02*
X58500000Y-53580000D01*
X57540000Y-49500000D02*
X57540000Y-52620000D01*
D26*
X48857188Y-83044988D02*
X46715012Y-83044988D01*
X66637188Y-83044988D02*
X54122811Y-83044988D01*
X69425023Y-82594977D02*
X67087199Y-82594977D01*
X46715012Y-83044988D02*
X45939999Y-83820001D01*
X53672801Y-82594977D02*
X49307199Y-82594977D01*
X67087199Y-82594977D02*
X66637188Y-83044988D01*
X75120000Y-76900000D02*
X69425023Y-82594977D01*
X45939999Y-83820001D02*
X45140000Y-84620000D01*
X49307199Y-82594977D02*
X48857188Y-83044988D01*
X54122811Y-83044988D02*
X53672801Y-82594977D01*
D27*
G04 #@! TO.N,MISO*
X65540000Y-52620000D02*
X66500000Y-53580000D01*
X65540000Y-49500000D02*
X65540000Y-52620000D01*
D26*
X28000000Y-44500000D02*
X60840000Y-44500000D01*
X28250000Y-79400000D02*
X27150000Y-79400000D01*
X65540000Y-49200000D02*
X65540000Y-49500000D01*
X26249977Y-78499977D02*
X26249977Y-67687199D01*
X60840000Y-44500000D02*
X65540000Y-49200000D01*
X27000000Y-66937177D02*
X27000000Y-45500000D01*
X27000000Y-45500000D02*
X28000000Y-44500000D01*
X27150000Y-79400000D02*
X26249977Y-78499977D01*
X26249977Y-67687199D02*
X27000000Y-66937177D01*
X70710994Y-105919546D02*
X69535993Y-107094547D01*
X73000000Y-105919546D02*
X70710994Y-105919546D01*
X73919546Y-106839092D02*
X73000000Y-105919546D01*
X73919546Y-108080454D02*
X73919546Y-106839092D01*
X71500000Y-110500000D02*
X73000000Y-109000000D01*
X73000000Y-109000000D02*
X73919546Y-108080454D01*
X27150000Y-79400000D02*
X25374990Y-81175010D01*
X25374990Y-81175010D02*
X25374990Y-108500000D01*
X25374990Y-108500000D02*
X27374990Y-110500000D01*
X27374990Y-110500000D02*
X71500000Y-110500000D01*
G04 #@! TO.N,ENC1*
X65460000Y-84620000D02*
X66334998Y-84620000D01*
X66334998Y-84620000D02*
X67459999Y-83494999D01*
X67459999Y-83494999D02*
X70030767Y-83494999D01*
X79317007Y-80049991D02*
X82049989Y-77317009D01*
X73475775Y-80049991D02*
X79317007Y-80049991D01*
X70030767Y-83494999D02*
X73475775Y-80049991D01*
X77549989Y-71884987D02*
X77549989Y-71500000D01*
X82049989Y-76384987D02*
X77549989Y-71884987D01*
X82049989Y-77317009D02*
X82049989Y-76384987D01*
X77549989Y-67715674D02*
X77549989Y-68200000D01*
X75000000Y-65165685D02*
X77549989Y-67715674D01*
X75000000Y-64600000D02*
X75000000Y-65165685D01*
X77549989Y-71500000D02*
X77549989Y-68200000D01*
X77549989Y-68200000D02*
X77549989Y-68049989D01*
G04 #@! TO.N,ENC2*
X69542176Y-84620000D02*
X73662176Y-80500000D01*
X68000000Y-84620000D02*
X69542176Y-84620000D01*
X79601413Y-80500000D02*
X73662176Y-80500000D01*
X82500000Y-77601413D02*
X79601413Y-80500000D01*
X82500000Y-76198587D02*
X82500000Y-76500000D01*
X78000000Y-71698587D02*
X82500000Y-76198587D01*
X82500000Y-76500000D02*
X82500000Y-77601413D01*
X78000000Y-67813002D02*
X78000000Y-71698587D01*
X78000000Y-67813002D02*
X78000000Y-66300000D01*
X78000000Y-66300000D02*
X76300000Y-64600000D01*
G04 #@! TO.N,CS0*
X27049989Y-108186401D02*
X28363589Y-109500000D01*
X27224999Y-98138590D02*
X27049989Y-98313600D01*
X27500000Y-92500000D02*
X27224999Y-92775001D01*
X32663002Y-92500000D02*
X27500000Y-92500000D01*
X36394999Y-83494999D02*
X34439999Y-83494999D01*
X36225001Y-88938001D02*
X32663002Y-92500000D01*
X37520000Y-84620000D02*
X36394999Y-83494999D01*
X27049989Y-98313600D02*
X27049989Y-108186401D01*
X34439999Y-83494999D02*
X33500000Y-84434998D01*
X33500000Y-84434998D02*
X33500000Y-85036998D01*
X27224999Y-92775001D02*
X27224999Y-98138590D01*
X36225001Y-87761999D02*
X36225001Y-88938001D01*
X33500000Y-85036998D02*
X36225001Y-87761999D01*
X68500000Y-109000000D02*
X68000000Y-109500000D01*
X70170540Y-109000000D02*
X68500000Y-109000000D01*
X72075993Y-107094547D02*
X70170540Y-109000000D01*
X28363589Y-109500000D02*
X68000000Y-109500000D01*
D27*
G04 #@! TO.N,Net-(Q101-Pad1)*
X63000000Y-53080000D02*
X62500000Y-53580000D01*
X63000000Y-49500000D02*
X63000000Y-53080000D01*
D26*
G04 #@! TO.N,Net-(Q102-Pad1)*
X47000000Y-53080000D02*
X46500000Y-53580000D01*
X47000000Y-49500000D02*
X47000000Y-53080000D01*
G04 #@! TO.N,Net-(Q103-Pad1)*
X39000000Y-53080000D02*
X38500000Y-53580000D01*
X39000000Y-49500000D02*
X39000000Y-53080000D01*
G04 #@! TO.N,CS2*
X41540000Y-52620000D02*
X42500000Y-53580000D01*
X41540000Y-49500000D02*
X41540000Y-52620000D01*
X33848630Y-77000000D02*
X34980000Y-77000000D01*
X31530998Y-77000000D02*
X31700000Y-77000000D01*
X31700000Y-77000000D02*
X33848630Y-77000000D01*
X41700001Y-54379999D02*
X42500000Y-53580000D01*
X40829999Y-54379999D02*
X41700001Y-54379999D01*
X27149999Y-68059999D02*
X40829999Y-54379999D01*
X27149999Y-74849999D02*
X27149999Y-68059999D01*
X31700000Y-77000000D02*
X29300000Y-77000000D01*
X29300000Y-77000000D02*
X27149999Y-74849999D01*
D27*
G04 #@! TO.N,Net-(Q104-Pad1)*
X55000000Y-53080000D02*
X54500000Y-53580000D01*
X55000000Y-49500000D02*
X55000000Y-53080000D01*
D26*
G04 #@! TO.N,Net-(U105-Pad3)*
X93025001Y-77960001D02*
X88485002Y-82500000D01*
X93025001Y-75839999D02*
X93025001Y-77960001D01*
X92960001Y-75774999D02*
X93025001Y-75839999D01*
X86820000Y-76900000D02*
X87945001Y-75774999D01*
X87945001Y-75774999D02*
X92960001Y-75774999D01*
X82220000Y-82500000D02*
X80200000Y-84520000D01*
X88485002Y-82500000D02*
X82220000Y-82500000D01*
G04 #@! TO.N,Net-(U105-Pad5)*
X75919999Y-83720001D02*
X75120000Y-84520000D01*
X78200001Y-83394999D02*
X76245001Y-83394999D01*
X79074999Y-84269997D02*
X78200001Y-83394999D01*
X79074999Y-85060001D02*
X79074999Y-84269997D01*
X79659999Y-85645001D02*
X79074999Y-85060001D01*
X82023629Y-85645001D02*
X79659999Y-85645001D01*
X76245001Y-83394999D02*
X75919999Y-83720001D01*
X83148630Y-84520000D02*
X82023629Y-85645001D01*
X84280000Y-84520000D02*
X83148630Y-84520000D01*
G04 #@! TO.N,CS3*
X76534999Y-75774999D02*
X77341795Y-76581795D01*
X72039999Y-75774999D02*
X76534999Y-75774999D01*
X69689997Y-78125001D02*
X72039999Y-75774999D01*
X64045001Y-78125001D02*
X69689997Y-78125001D01*
X62920000Y-77000000D02*
X64045001Y-78125001D01*
G04 #@! TD*
D29*
G04 #@! TO.N,GND*
G36*
X101373000Y-50909289D02*
X97726209Y-47262499D01*
X97668465Y-47176079D01*
X97326109Y-46947324D01*
X97024207Y-46887272D01*
X97024206Y-46887272D01*
X96922272Y-46866996D01*
X96820338Y-46887272D01*
X70140202Y-46887272D01*
X70038268Y-46866996D01*
X69936334Y-46887272D01*
X69936333Y-46887272D01*
X69634431Y-46947324D01*
X69292075Y-47176079D01*
X69283152Y-47189433D01*
X69269801Y-47198354D01*
X69212059Y-47284771D01*
X69041045Y-47540711D01*
X68960717Y-47944547D01*
X68980994Y-48046486D01*
X68980994Y-48133905D01*
X68918228Y-48146390D01*
X68708184Y-48286738D01*
X68567836Y-48496782D01*
X68518553Y-48744547D01*
X68518553Y-50444547D01*
X68567836Y-50692312D01*
X68708184Y-50902356D01*
X68918228Y-51042704D01*
X69165993Y-51091987D01*
X70865993Y-51091987D01*
X71113758Y-51042704D01*
X71323802Y-50902356D01*
X71464150Y-50692312D01*
X71473177Y-50646928D01*
X71485368Y-50665172D01*
X71976575Y-50993386D01*
X72409737Y-51079547D01*
X72702249Y-51079547D01*
X73135411Y-50993386D01*
X73626618Y-50665172D01*
X73825993Y-50366786D01*
X74025368Y-50665172D01*
X74516575Y-50993386D01*
X74949737Y-51079547D01*
X75242249Y-51079547D01*
X75675411Y-50993386D01*
X76166618Y-50665172D01*
X76365993Y-50366786D01*
X76565368Y-50665172D01*
X77056575Y-50993386D01*
X77489737Y-51079547D01*
X77782249Y-51079547D01*
X78215411Y-50993386D01*
X78706618Y-50665172D01*
X78905993Y-50366786D01*
X79105368Y-50665172D01*
X79596575Y-50993386D01*
X80029737Y-51079547D01*
X80322249Y-51079547D01*
X80755411Y-50993386D01*
X81246618Y-50665172D01*
X81445993Y-50366786D01*
X81645368Y-50665172D01*
X82136575Y-50993386D01*
X82569737Y-51079547D01*
X82862249Y-51079547D01*
X83295411Y-50993386D01*
X83786618Y-50665172D01*
X83999836Y-50346069D01*
X84060810Y-50475905D01*
X84489069Y-50866192D01*
X84899103Y-51036023D01*
X85128993Y-50914702D01*
X85128993Y-49721547D01*
X85382993Y-49721547D01*
X85382993Y-50914702D01*
X85612883Y-51036023D01*
X86022917Y-50866192D01*
X86451176Y-50475905D01*
X86525993Y-50316593D01*
X86600810Y-50475905D01*
X87029069Y-50866192D01*
X87439103Y-51036023D01*
X87668993Y-50914702D01*
X87668993Y-49721547D01*
X85382993Y-49721547D01*
X85128993Y-49721547D01*
X85108993Y-49721547D01*
X85108993Y-49467547D01*
X85128993Y-49467547D01*
X85128993Y-49447547D01*
X85382993Y-49447547D01*
X85382993Y-49467547D01*
X87668993Y-49467547D01*
X87668993Y-49447547D01*
X87922993Y-49447547D01*
X87922993Y-49467547D01*
X87942993Y-49467547D01*
X87942993Y-49721547D01*
X87922993Y-49721547D01*
X87922993Y-50914702D01*
X88152883Y-51036023D01*
X88562917Y-50866192D01*
X88991176Y-50475905D01*
X89052150Y-50346069D01*
X89265368Y-50665172D01*
X89756575Y-50993386D01*
X90189737Y-51079547D01*
X90482249Y-51079547D01*
X90915411Y-50993386D01*
X91406618Y-50665172D01*
X91605993Y-50366786D01*
X91805368Y-50665172D01*
X92296575Y-50993386D01*
X92729737Y-51079547D01*
X93022249Y-51079547D01*
X93455411Y-50993386D01*
X93946618Y-50665172D01*
X94274832Y-50173965D01*
X94390085Y-49594547D01*
X94274832Y-49015129D01*
X94236173Y-48957272D01*
X96493562Y-48957272D01*
X99965001Y-52428712D01*
X99965000Y-54291289D01*
X99371290Y-54885000D01*
X99148818Y-54885000D01*
X98701073Y-54974062D01*
X98193327Y-55313327D01*
X97854062Y-55821073D01*
X97734928Y-56420000D01*
X97854062Y-57018927D01*
X98193327Y-57526673D01*
X98449174Y-57697624D01*
X98062034Y-58052424D01*
X97808954Y-58595258D01*
X97929003Y-58833000D01*
X99173000Y-58833000D01*
X99173000Y-58813000D01*
X99427000Y-58813000D01*
X99427000Y-58833000D01*
X100670997Y-58833000D01*
X100791046Y-58595258D01*
X100537966Y-58052424D01*
X100150826Y-57697624D01*
X100406673Y-57526673D01*
X100745938Y-57018927D01*
X100865072Y-56420000D01*
X100848255Y-56335455D01*
X101373000Y-55810711D01*
X101373000Y-110873000D01*
X72201801Y-110873000D01*
X73590329Y-109484474D01*
X73590333Y-109484469D01*
X74404022Y-108670781D01*
X74467475Y-108628383D01*
X74509873Y-108564930D01*
X74509875Y-108564928D01*
X74613614Y-108409671D01*
X74635450Y-108376991D01*
X74679546Y-108155306D01*
X74679546Y-108155302D01*
X74694434Y-108080455D01*
X74679546Y-108005608D01*
X74679546Y-106913938D01*
X74694434Y-106839091D01*
X74679546Y-106764244D01*
X74679546Y-106764240D01*
X74635450Y-106542555D01*
X74542884Y-106404020D01*
X74509875Y-106354618D01*
X74509873Y-106354616D01*
X74467475Y-106291163D01*
X74404021Y-106248765D01*
X73590331Y-105435075D01*
X73547929Y-105371617D01*
X73296537Y-105203642D01*
X73074852Y-105159546D01*
X73074847Y-105159546D01*
X73000000Y-105144658D01*
X72925153Y-105159546D01*
X70785840Y-105159546D01*
X70710993Y-105144658D01*
X70636146Y-105159546D01*
X70636142Y-105159546D01*
X70414457Y-105203642D01*
X70414455Y-105203643D01*
X70414456Y-105203643D01*
X70226520Y-105329217D01*
X70226518Y-105329219D01*
X70163065Y-105371617D01*
X70120667Y-105435070D01*
X69902400Y-105653338D01*
X69682249Y-105609547D01*
X69389737Y-105609547D01*
X68956575Y-105695708D01*
X68465368Y-106023922D01*
X68265993Y-106322308D01*
X68066618Y-106023922D01*
X67575411Y-105695708D01*
X67142249Y-105609547D01*
X66849737Y-105609547D01*
X66416575Y-105695708D01*
X65925368Y-106023922D01*
X65725993Y-106322308D01*
X65526618Y-106023922D01*
X65035411Y-105695708D01*
X64602249Y-105609547D01*
X64309737Y-105609547D01*
X63876575Y-105695708D01*
X63385368Y-106023922D01*
X63185993Y-106322308D01*
X62986618Y-106023922D01*
X62495411Y-105695708D01*
X62062249Y-105609547D01*
X61769737Y-105609547D01*
X61336575Y-105695708D01*
X60845368Y-106023922D01*
X60645993Y-106322308D01*
X60446618Y-106023922D01*
X59955411Y-105695708D01*
X59522249Y-105609547D01*
X59229737Y-105609547D01*
X58796575Y-105695708D01*
X58305368Y-106023922D01*
X58105993Y-106322308D01*
X57906618Y-106023922D01*
X57415411Y-105695708D01*
X56982249Y-105609547D01*
X56689737Y-105609547D01*
X56256575Y-105695708D01*
X55765368Y-106023922D01*
X55565993Y-106322308D01*
X55366618Y-106023922D01*
X54875411Y-105695708D01*
X54442249Y-105609547D01*
X54149737Y-105609547D01*
X53716575Y-105695708D01*
X53225368Y-106023922D01*
X53025993Y-106322308D01*
X52826618Y-106023922D01*
X52335411Y-105695708D01*
X51902249Y-105609547D01*
X51609737Y-105609547D01*
X51176575Y-105695708D01*
X50685368Y-106023922D01*
X50485993Y-106322308D01*
X50286618Y-106023922D01*
X49795411Y-105695708D01*
X49362249Y-105609547D01*
X49069737Y-105609547D01*
X48636575Y-105695708D01*
X48145368Y-106023922D01*
X47945993Y-106322308D01*
X47746618Y-106023922D01*
X47255411Y-105695708D01*
X46822249Y-105609547D01*
X46529737Y-105609547D01*
X46096575Y-105695708D01*
X45605368Y-106023922D01*
X45405993Y-106322308D01*
X45206618Y-106023922D01*
X44715411Y-105695708D01*
X44282249Y-105609547D01*
X43989737Y-105609547D01*
X43556575Y-105695708D01*
X43065368Y-106023922D01*
X42865993Y-106322308D01*
X42666618Y-106023922D01*
X42175411Y-105695708D01*
X41742249Y-105609547D01*
X41449737Y-105609547D01*
X41016575Y-105695708D01*
X40525368Y-106023922D01*
X40325993Y-106322308D01*
X40126618Y-106023922D01*
X39635411Y-105695708D01*
X39202249Y-105609547D01*
X38909737Y-105609547D01*
X38476575Y-105695708D01*
X37985368Y-106023922D01*
X37973177Y-106042166D01*
X37964150Y-105996782D01*
X37823802Y-105786738D01*
X37613758Y-105646390D01*
X37365993Y-105597107D01*
X35665993Y-105597107D01*
X35418228Y-105646390D01*
X35208184Y-105786738D01*
X35067836Y-105996782D01*
X35018553Y-106244547D01*
X35018553Y-107944547D01*
X35067836Y-108192312D01*
X35208184Y-108402356D01*
X35418228Y-108542704D01*
X35665993Y-108591987D01*
X37365993Y-108591987D01*
X37613758Y-108542704D01*
X37823802Y-108402356D01*
X37964150Y-108192312D01*
X37973177Y-108146928D01*
X37985368Y-108165172D01*
X38476575Y-108493386D01*
X38909737Y-108579547D01*
X39202249Y-108579547D01*
X39635411Y-108493386D01*
X40126618Y-108165172D01*
X40325993Y-107866786D01*
X40525368Y-108165172D01*
X41016575Y-108493386D01*
X41449737Y-108579547D01*
X41742249Y-108579547D01*
X42175411Y-108493386D01*
X42666618Y-108165172D01*
X42865993Y-107866786D01*
X43065368Y-108165172D01*
X43556575Y-108493386D01*
X43989737Y-108579547D01*
X44282249Y-108579547D01*
X44715411Y-108493386D01*
X45206618Y-108165172D01*
X45405993Y-107866786D01*
X45605368Y-108165172D01*
X46096575Y-108493386D01*
X46529737Y-108579547D01*
X46822249Y-108579547D01*
X47255411Y-108493386D01*
X47746618Y-108165172D01*
X47945993Y-107866786D01*
X48145368Y-108165172D01*
X48636575Y-108493386D01*
X49069737Y-108579547D01*
X49362249Y-108579547D01*
X49795411Y-108493386D01*
X50286618Y-108165172D01*
X50485993Y-107866786D01*
X50685368Y-108165172D01*
X51176575Y-108493386D01*
X51609737Y-108579547D01*
X51902249Y-108579547D01*
X52335411Y-108493386D01*
X52826618Y-108165172D01*
X53025993Y-107866786D01*
X53225368Y-108165172D01*
X53716575Y-108493386D01*
X54149737Y-108579547D01*
X54442249Y-108579547D01*
X54875411Y-108493386D01*
X55366618Y-108165172D01*
X55565993Y-107866786D01*
X55765368Y-108165172D01*
X56256575Y-108493386D01*
X56689737Y-108579547D01*
X56982249Y-108579547D01*
X57415411Y-108493386D01*
X57906618Y-108165172D01*
X58105993Y-107866786D01*
X58305368Y-108165172D01*
X58796575Y-108493386D01*
X59229737Y-108579547D01*
X59522249Y-108579547D01*
X59955411Y-108493386D01*
X60446618Y-108165172D01*
X60645993Y-107866786D01*
X60845368Y-108165172D01*
X61336575Y-108493386D01*
X61769737Y-108579547D01*
X62062249Y-108579547D01*
X62495411Y-108493386D01*
X62986618Y-108165172D01*
X63185993Y-107866786D01*
X63385368Y-108165172D01*
X63876575Y-108493386D01*
X64309737Y-108579547D01*
X64602249Y-108579547D01*
X65035411Y-108493386D01*
X65526618Y-108165172D01*
X65725993Y-107866786D01*
X65925368Y-108165172D01*
X66416575Y-108493386D01*
X66849737Y-108579547D01*
X67142249Y-108579547D01*
X67575411Y-108493386D01*
X68066618Y-108165172D01*
X68265993Y-107866786D01*
X68465368Y-108165172D01*
X68577356Y-108240000D01*
X68574848Y-108240000D01*
X68500000Y-108225112D01*
X68425152Y-108240000D01*
X68425148Y-108240000D01*
X68251605Y-108274520D01*
X68203462Y-108284096D01*
X68026475Y-108402356D01*
X67952071Y-108452071D01*
X67909671Y-108515528D01*
X67685199Y-108740000D01*
X28678391Y-108740000D01*
X27809989Y-107871599D01*
X27809989Y-107507745D01*
X28696861Y-107507745D01*
X28770995Y-107753864D01*
X29308223Y-107946965D01*
X29878454Y-107919778D01*
X30279005Y-107753864D01*
X30353139Y-107507745D01*
X29525000Y-106679605D01*
X28696861Y-107507745D01*
X27809989Y-107507745D01*
X27809989Y-106283223D01*
X28078035Y-106283223D01*
X28105222Y-106853454D01*
X28271136Y-107254005D01*
X28517255Y-107328139D01*
X29345395Y-106500000D01*
X29704605Y-106500000D01*
X30532745Y-107328139D01*
X30778864Y-107254005D01*
X30971965Y-106716777D01*
X30944778Y-106146546D01*
X30778864Y-105745995D01*
X30532745Y-105671861D01*
X29704605Y-106500000D01*
X29345395Y-106500000D01*
X28517255Y-105671861D01*
X28271136Y-105745995D01*
X28078035Y-106283223D01*
X27809989Y-106283223D01*
X27809989Y-103200000D01*
X28077560Y-103200000D01*
X28077560Y-104800000D01*
X28126843Y-105047765D01*
X28267191Y-105257809D01*
X28477235Y-105398157D01*
X28711187Y-105444693D01*
X28696861Y-105492255D01*
X29525000Y-106320395D01*
X30353139Y-105492255D01*
X30338813Y-105444693D01*
X30572765Y-105398157D01*
X30782809Y-105257809D01*
X30923157Y-105047765D01*
X30932657Y-105000000D01*
X86325908Y-105000000D01*
X86441161Y-105579418D01*
X86769375Y-106070625D01*
X87067761Y-106270000D01*
X86769375Y-106469375D01*
X86441161Y-106960582D01*
X86325908Y-107540000D01*
X86441161Y-108119418D01*
X86769375Y-108610625D01*
X87260582Y-108938839D01*
X87693744Y-109025000D01*
X87986256Y-109025000D01*
X88419418Y-108938839D01*
X88910625Y-108610625D01*
X89123843Y-108291522D01*
X89184817Y-108421358D01*
X89613076Y-108811645D01*
X90023110Y-108981476D01*
X90253000Y-108860155D01*
X90253000Y-107667000D01*
X90507000Y-107667000D01*
X90507000Y-108860155D01*
X90736890Y-108981476D01*
X91146924Y-108811645D01*
X91575183Y-108421358D01*
X91650000Y-108262046D01*
X91724817Y-108421358D01*
X92153076Y-108811645D01*
X92563110Y-108981476D01*
X92793000Y-108860155D01*
X92793000Y-107667000D01*
X93047000Y-107667000D01*
X93047000Y-108860155D01*
X93276890Y-108981476D01*
X93686924Y-108811645D01*
X94115183Y-108421358D01*
X94190000Y-108262046D01*
X94264817Y-108421358D01*
X94693076Y-108811645D01*
X95103110Y-108981476D01*
X95333000Y-108860155D01*
X95333000Y-107667000D01*
X93047000Y-107667000D01*
X92793000Y-107667000D01*
X90507000Y-107667000D01*
X90253000Y-107667000D01*
X90233000Y-107667000D01*
X90233000Y-107413000D01*
X90253000Y-107413000D01*
X90253000Y-105127000D01*
X90507000Y-105127000D01*
X90507000Y-107413000D01*
X92793000Y-107413000D01*
X92793000Y-105127000D01*
X93047000Y-105127000D01*
X93047000Y-107413000D01*
X95333000Y-107413000D01*
X95333000Y-105127000D01*
X93047000Y-105127000D01*
X92793000Y-105127000D01*
X90507000Y-105127000D01*
X90253000Y-105127000D01*
X90233000Y-105127000D01*
X90233000Y-104873000D01*
X90253000Y-104873000D01*
X90253000Y-103679845D01*
X90507000Y-103679845D01*
X90507000Y-104873000D01*
X92793000Y-104873000D01*
X92793000Y-103679845D01*
X93047000Y-103679845D01*
X93047000Y-104873000D01*
X95333000Y-104873000D01*
X95333000Y-103679845D01*
X95587000Y-103679845D01*
X95587000Y-104873000D01*
X95607000Y-104873000D01*
X95607000Y-105127000D01*
X95587000Y-105127000D01*
X95587000Y-107413000D01*
X95607000Y-107413000D01*
X95607000Y-107667000D01*
X95587000Y-107667000D01*
X95587000Y-108860155D01*
X95816890Y-108981476D01*
X96226924Y-108811645D01*
X96655183Y-108421358D01*
X96716157Y-108291522D01*
X96929375Y-108610625D01*
X97420582Y-108938839D01*
X97853744Y-109025000D01*
X98146256Y-109025000D01*
X98579418Y-108938839D01*
X99070625Y-108610625D01*
X99398839Y-108119418D01*
X99514092Y-107540000D01*
X99398839Y-106960582D01*
X99070625Y-106469375D01*
X99052381Y-106457184D01*
X99097765Y-106448157D01*
X99307809Y-106307809D01*
X99448157Y-106097765D01*
X99497440Y-105850000D01*
X99497440Y-104150000D01*
X99448157Y-103902235D01*
X99307809Y-103692191D01*
X99097765Y-103551843D01*
X98850000Y-103502560D01*
X97150000Y-103502560D01*
X96902235Y-103551843D01*
X96692191Y-103692191D01*
X96551843Y-103902235D01*
X96531261Y-104005708D01*
X96226924Y-103728355D01*
X95816890Y-103558524D01*
X95587000Y-103679845D01*
X95333000Y-103679845D01*
X95103110Y-103558524D01*
X94693076Y-103728355D01*
X94264817Y-104118642D01*
X94190000Y-104277954D01*
X94115183Y-104118642D01*
X93686924Y-103728355D01*
X93276890Y-103558524D01*
X93047000Y-103679845D01*
X92793000Y-103679845D01*
X92563110Y-103558524D01*
X92153076Y-103728355D01*
X91724817Y-104118642D01*
X91650000Y-104277954D01*
X91575183Y-104118642D01*
X91146924Y-103728355D01*
X90736890Y-103558524D01*
X90507000Y-103679845D01*
X90253000Y-103679845D01*
X90023110Y-103558524D01*
X89613076Y-103728355D01*
X89184817Y-104118642D01*
X89123843Y-104248478D01*
X88910625Y-103929375D01*
X88419418Y-103601161D01*
X87986256Y-103515000D01*
X87693744Y-103515000D01*
X87260582Y-103601161D01*
X86769375Y-103929375D01*
X86441161Y-104420582D01*
X86325908Y-105000000D01*
X30932657Y-105000000D01*
X30972440Y-104800000D01*
X30972440Y-103200000D01*
X30923157Y-102952235D01*
X30782809Y-102742191D01*
X30572765Y-102601843D01*
X30325000Y-102552560D01*
X28725000Y-102552560D01*
X28477235Y-102601843D01*
X28267191Y-102742191D01*
X28126843Y-102952235D01*
X28077560Y-103200000D01*
X27809989Y-103200000D01*
X27809989Y-100314561D01*
X37165000Y-100314561D01*
X37165000Y-100885439D01*
X37383466Y-101412862D01*
X37787138Y-101816534D01*
X38314561Y-102035000D01*
X38885439Y-102035000D01*
X39412862Y-101816534D01*
X39816534Y-101412862D01*
X40035000Y-100885439D01*
X40035000Y-100314561D01*
X42222142Y-100314561D01*
X42222142Y-100885439D01*
X42440608Y-101412862D01*
X42844280Y-101816534D01*
X43371703Y-102035000D01*
X43942581Y-102035000D01*
X44470004Y-101816534D01*
X44873676Y-101412862D01*
X45092142Y-100885439D01*
X45092142Y-100314561D01*
X47279284Y-100314561D01*
X47279284Y-100885439D01*
X47497750Y-101412862D01*
X47901422Y-101816534D01*
X48428845Y-102035000D01*
X48999723Y-102035000D01*
X49527146Y-101816534D01*
X49930818Y-101412862D01*
X50149284Y-100885439D01*
X50149284Y-100314561D01*
X52336426Y-100314561D01*
X52336426Y-100885439D01*
X52554892Y-101412862D01*
X52958564Y-101816534D01*
X53485987Y-102035000D01*
X54056865Y-102035000D01*
X54584288Y-101816534D01*
X54987960Y-101412862D01*
X55192507Y-100919041D01*
X57436654Y-100919041D01*
X57676179Y-101425134D01*
X58091145Y-101801041D01*
X58479529Y-101961904D01*
X58701568Y-101839915D01*
X58701568Y-100697000D01*
X58955568Y-100697000D01*
X58955568Y-101839915D01*
X59177607Y-101961904D01*
X59565991Y-101801041D01*
X59980957Y-101425134D01*
X60220482Y-100919041D01*
X62493796Y-100919041D01*
X62733321Y-101425134D01*
X63148287Y-101801041D01*
X63536671Y-101961904D01*
X63758710Y-101839915D01*
X63758710Y-100697000D01*
X64012710Y-100697000D01*
X64012710Y-101839915D01*
X64234749Y-101961904D01*
X64623133Y-101801041D01*
X65038099Y-101425134D01*
X65277624Y-100919041D01*
X65156339Y-100697000D01*
X64012710Y-100697000D01*
X63758710Y-100697000D01*
X62615081Y-100697000D01*
X62493796Y-100919041D01*
X60220482Y-100919041D01*
X60099197Y-100697000D01*
X58955568Y-100697000D01*
X58701568Y-100697000D01*
X57557939Y-100697000D01*
X57436654Y-100919041D01*
X55192507Y-100919041D01*
X55206426Y-100885439D01*
X55206426Y-100314561D01*
X55167655Y-100220959D01*
X57436654Y-100220959D01*
X57557939Y-100443000D01*
X58701568Y-100443000D01*
X58701568Y-99300085D01*
X58955568Y-99300085D01*
X58955568Y-100443000D01*
X60099197Y-100443000D01*
X60220482Y-100220959D01*
X62493796Y-100220959D01*
X62615081Y-100443000D01*
X63758710Y-100443000D01*
X63758710Y-99300085D01*
X64012710Y-99300085D01*
X64012710Y-100443000D01*
X65156339Y-100443000D01*
X65226495Y-100314561D01*
X67507852Y-100314561D01*
X67507852Y-100885439D01*
X67726318Y-101412862D01*
X68129990Y-101816534D01*
X68657413Y-102035000D01*
X69228291Y-102035000D01*
X69755714Y-101816534D01*
X70159386Y-101412862D01*
X70377852Y-100885439D01*
X70377852Y-100314561D01*
X72565000Y-100314561D01*
X72565000Y-100885439D01*
X72783466Y-101412862D01*
X73187138Y-101816534D01*
X73714561Y-102035000D01*
X74285439Y-102035000D01*
X74812862Y-101816534D01*
X75216534Y-101412862D01*
X75435000Y-100885439D01*
X75435000Y-100570000D01*
X81536887Y-100570000D01*
X81648260Y-101129909D01*
X81965423Y-101604577D01*
X82440091Y-101921740D01*
X82858667Y-102005000D01*
X83141333Y-102005000D01*
X83559909Y-101921740D01*
X84034577Y-101604577D01*
X84351740Y-101129909D01*
X84463113Y-100570000D01*
X86536887Y-100570000D01*
X86648260Y-101129909D01*
X86965423Y-101604577D01*
X87440091Y-101921740D01*
X87858667Y-102005000D01*
X88141333Y-102005000D01*
X88559909Y-101921740D01*
X89034577Y-101604577D01*
X89351740Y-101129909D01*
X89463113Y-100570000D01*
X89412303Y-100314561D01*
X91565000Y-100314561D01*
X91565000Y-100885439D01*
X91783466Y-101412862D01*
X92187138Y-101816534D01*
X92714561Y-102035000D01*
X93285439Y-102035000D01*
X93812862Y-101816534D01*
X94216534Y-101412862D01*
X94435000Y-100885439D01*
X94435000Y-100314561D01*
X94370979Y-100160000D01*
X96129051Y-100160000D01*
X96271469Y-100875981D01*
X96677039Y-101482961D01*
X97284019Y-101888531D01*
X97819273Y-101995000D01*
X98180727Y-101995000D01*
X98715981Y-101888531D01*
X99322961Y-101482961D01*
X99728531Y-100875981D01*
X99870949Y-100160000D01*
X99728531Y-99444019D01*
X99322961Y-98837039D01*
X98715981Y-98431469D01*
X98180727Y-98325000D01*
X97819273Y-98325000D01*
X97284019Y-98431469D01*
X96677039Y-98837039D01*
X96271469Y-99444019D01*
X96129051Y-100160000D01*
X94370979Y-100160000D01*
X94216534Y-99787138D01*
X93812862Y-99383466D01*
X93285439Y-99165000D01*
X92714561Y-99165000D01*
X92187138Y-99383466D01*
X91783466Y-99787138D01*
X91565000Y-100314561D01*
X89412303Y-100314561D01*
X89351740Y-100010091D01*
X89034577Y-99535423D01*
X88559909Y-99218260D01*
X88141333Y-99135000D01*
X87858667Y-99135000D01*
X87440091Y-99218260D01*
X86965423Y-99535423D01*
X86648260Y-100010091D01*
X86536887Y-100570000D01*
X84463113Y-100570000D01*
X84351740Y-100010091D01*
X84034577Y-99535423D01*
X83559909Y-99218260D01*
X83141333Y-99135000D01*
X82858667Y-99135000D01*
X82440091Y-99218260D01*
X81965423Y-99535423D01*
X81648260Y-100010091D01*
X81536887Y-100570000D01*
X75435000Y-100570000D01*
X75435000Y-100314561D01*
X75216534Y-99787138D01*
X74812862Y-99383466D01*
X74285439Y-99165000D01*
X73714561Y-99165000D01*
X73187138Y-99383466D01*
X72783466Y-99787138D01*
X72565000Y-100314561D01*
X70377852Y-100314561D01*
X70159386Y-99787138D01*
X69755714Y-99383466D01*
X69228291Y-99165000D01*
X68657413Y-99165000D01*
X68129990Y-99383466D01*
X67726318Y-99787138D01*
X67507852Y-100314561D01*
X65226495Y-100314561D01*
X65277624Y-100220959D01*
X65038099Y-99714866D01*
X64623133Y-99338959D01*
X64234749Y-99178096D01*
X64012710Y-99300085D01*
X63758710Y-99300085D01*
X63536671Y-99178096D01*
X63148287Y-99338959D01*
X62733321Y-99714866D01*
X62493796Y-100220959D01*
X60220482Y-100220959D01*
X59980957Y-99714866D01*
X59565991Y-99338959D01*
X59177607Y-99178096D01*
X58955568Y-99300085D01*
X58701568Y-99300085D01*
X58479529Y-99178096D01*
X58091145Y-99338959D01*
X57676179Y-99714866D01*
X57436654Y-100220959D01*
X55167655Y-100220959D01*
X54987960Y-99787138D01*
X54584288Y-99383466D01*
X54056865Y-99165000D01*
X53485987Y-99165000D01*
X52958564Y-99383466D01*
X52554892Y-99787138D01*
X52336426Y-100314561D01*
X50149284Y-100314561D01*
X49930818Y-99787138D01*
X49527146Y-99383466D01*
X48999723Y-99165000D01*
X48428845Y-99165000D01*
X47901422Y-99383466D01*
X47497750Y-99787138D01*
X47279284Y-100314561D01*
X45092142Y-100314561D01*
X44873676Y-99787138D01*
X44470004Y-99383466D01*
X43942581Y-99165000D01*
X43371703Y-99165000D01*
X42844280Y-99383466D01*
X42440608Y-99787138D01*
X42222142Y-100314561D01*
X40035000Y-100314561D01*
X39816534Y-99787138D01*
X39412862Y-99383466D01*
X38885439Y-99165000D01*
X38314561Y-99165000D01*
X37787138Y-99383466D01*
X37383466Y-99787138D01*
X37165000Y-100314561D01*
X27809989Y-100314561D01*
X27809989Y-98631053D01*
X27940903Y-98435127D01*
X27984999Y-98213442D01*
X27984999Y-98213438D01*
X27999887Y-98138590D01*
X27984999Y-98063742D01*
X27984999Y-96397440D01*
X28450000Y-96397440D01*
X28697765Y-96348157D01*
X28818548Y-96267452D01*
X28975999Y-96344408D01*
X29143000Y-96217502D01*
X29143000Y-95127000D01*
X29123000Y-95127000D01*
X29123000Y-94873000D01*
X29143000Y-94873000D01*
X29143000Y-93782498D01*
X29397000Y-93782498D01*
X29397000Y-94873000D01*
X29417000Y-94873000D01*
X29417000Y-95127000D01*
X29397000Y-95127000D01*
X29397000Y-96217502D01*
X29564001Y-96344408D01*
X29902507Y-96178959D01*
X30116654Y-96322047D01*
X30540000Y-96406256D01*
X30963345Y-96322047D01*
X31322241Y-96082241D01*
X31562047Y-95723346D01*
X31625000Y-95406861D01*
X31625000Y-94593140D01*
X31562047Y-94276655D01*
X31322241Y-93917759D01*
X30963346Y-93677953D01*
X30540000Y-93593744D01*
X30116655Y-93677953D01*
X29902508Y-93821042D01*
X29564001Y-93655592D01*
X29397000Y-93782498D01*
X29143000Y-93782498D01*
X28975999Y-93655592D01*
X28818548Y-93732548D01*
X28697765Y-93651843D01*
X28450000Y-93602560D01*
X27984999Y-93602560D01*
X27984999Y-93260000D01*
X32588155Y-93260000D01*
X32663002Y-93274888D01*
X32737849Y-93260000D01*
X32737854Y-93260000D01*
X32959539Y-93215904D01*
X33210931Y-93047929D01*
X33253333Y-92984470D01*
X33257803Y-92980000D01*
X37136887Y-92980000D01*
X37248260Y-93539909D01*
X37565423Y-94014577D01*
X38040091Y-94331740D01*
X38458667Y-94415000D01*
X38741333Y-94415000D01*
X39159909Y-94331740D01*
X39634577Y-94014577D01*
X39951740Y-93539909D01*
X40063113Y-92980000D01*
X42194029Y-92980000D01*
X42305402Y-93539909D01*
X42622565Y-94014577D01*
X43097233Y-94331740D01*
X43515809Y-94415000D01*
X43798475Y-94415000D01*
X44217051Y-94331740D01*
X44691719Y-94014577D01*
X45008882Y-93539909D01*
X45120255Y-92980000D01*
X47251171Y-92980000D01*
X47362544Y-93539909D01*
X47679707Y-94014577D01*
X48154375Y-94331740D01*
X48572951Y-94415000D01*
X48855617Y-94415000D01*
X49274193Y-94331740D01*
X49748861Y-94014577D01*
X50066024Y-93539909D01*
X50177397Y-92980000D01*
X52308313Y-92980000D01*
X52419686Y-93539909D01*
X52736849Y-94014577D01*
X53211517Y-94331740D01*
X53630093Y-94415000D01*
X53912759Y-94415000D01*
X54331335Y-94331740D01*
X54806003Y-94014577D01*
X55123166Y-93539909D01*
X55234539Y-92980000D01*
X55171795Y-92664561D01*
X57393568Y-92664561D01*
X57393568Y-93235439D01*
X57612034Y-93762862D01*
X58015706Y-94166534D01*
X58543129Y-94385000D01*
X59114007Y-94385000D01*
X59641430Y-94166534D01*
X60045102Y-93762862D01*
X60263568Y-93235439D01*
X60263568Y-92664561D01*
X62450710Y-92664561D01*
X62450710Y-93235439D01*
X62669176Y-93762862D01*
X63072848Y-94166534D01*
X63600271Y-94385000D01*
X64171149Y-94385000D01*
X64698572Y-94166534D01*
X65102244Y-93762862D01*
X65320710Y-93235439D01*
X65320710Y-92664561D01*
X65102244Y-92137138D01*
X64698572Y-91733466D01*
X64171149Y-91515000D01*
X63600271Y-91515000D01*
X63072848Y-91733466D01*
X62669176Y-92137138D01*
X62450710Y-92664561D01*
X60263568Y-92664561D01*
X60045102Y-92137138D01*
X59641430Y-91733466D01*
X59114007Y-91515000D01*
X58543129Y-91515000D01*
X58015706Y-91733466D01*
X57612034Y-92137138D01*
X57393568Y-92664561D01*
X55171795Y-92664561D01*
X55123166Y-92420091D01*
X54806003Y-91945423D01*
X54331335Y-91628260D01*
X53912759Y-91545000D01*
X53630093Y-91545000D01*
X53211517Y-91628260D01*
X52736849Y-91945423D01*
X52419686Y-92420091D01*
X52308313Y-92980000D01*
X50177397Y-92980000D01*
X50066024Y-92420091D01*
X49748861Y-91945423D01*
X49274193Y-91628260D01*
X48855617Y-91545000D01*
X48572951Y-91545000D01*
X48154375Y-91628260D01*
X47679707Y-91945423D01*
X47362544Y-92420091D01*
X47251171Y-92980000D01*
X45120255Y-92980000D01*
X45008882Y-92420091D01*
X44691719Y-91945423D01*
X44217051Y-91628260D01*
X43798475Y-91545000D01*
X43515809Y-91545000D01*
X43097233Y-91628260D01*
X42622565Y-91945423D01*
X42305402Y-92420091D01*
X42194029Y-92980000D01*
X40063113Y-92980000D01*
X39951740Y-92420091D01*
X39634577Y-91945423D01*
X39159909Y-91628260D01*
X38741333Y-91545000D01*
X38458667Y-91545000D01*
X38040091Y-91628260D01*
X37565423Y-91945423D01*
X37248260Y-92420091D01*
X37136887Y-92980000D01*
X33257803Y-92980000D01*
X36709477Y-89528328D01*
X36720936Y-89520671D01*
X36745995Y-89603864D01*
X37283223Y-89796965D01*
X37853454Y-89769778D01*
X38254005Y-89603864D01*
X38328139Y-89357745D01*
X37500000Y-88529605D01*
X37485858Y-88543748D01*
X37306253Y-88364143D01*
X37320395Y-88350000D01*
X37679605Y-88350000D01*
X38507745Y-89178139D01*
X38753864Y-89104005D01*
X38946965Y-88566777D01*
X38923021Y-88064561D01*
X41415000Y-88064561D01*
X41415000Y-88635439D01*
X41633466Y-89162862D01*
X42037138Y-89566534D01*
X42564561Y-89785000D01*
X43135439Y-89785000D01*
X43662862Y-89566534D01*
X43871651Y-89357745D01*
X44521861Y-89357745D01*
X44595995Y-89603864D01*
X45133223Y-89796965D01*
X45703454Y-89769778D01*
X46104005Y-89603864D01*
X46178139Y-89357745D01*
X49871861Y-89357745D01*
X49945995Y-89603864D01*
X50483223Y-89796965D01*
X51053454Y-89769778D01*
X51454005Y-89603864D01*
X51528139Y-89357745D01*
X50700000Y-88529605D01*
X49871861Y-89357745D01*
X46178139Y-89357745D01*
X45350000Y-88529605D01*
X44521861Y-89357745D01*
X43871651Y-89357745D01*
X44066534Y-89162862D01*
X44093525Y-89097701D01*
X44096136Y-89104005D01*
X44342255Y-89178139D01*
X45170395Y-88350000D01*
X45529605Y-88350000D01*
X46357745Y-89178139D01*
X46603864Y-89104005D01*
X46796965Y-88566777D01*
X46776295Y-88133223D01*
X49253035Y-88133223D01*
X49280222Y-88703454D01*
X49446136Y-89104005D01*
X49692255Y-89178139D01*
X50520395Y-88350000D01*
X49692255Y-87521861D01*
X49446136Y-87595995D01*
X49253035Y-88133223D01*
X46776295Y-88133223D01*
X46769778Y-87996546D01*
X46603864Y-87595995D01*
X46357745Y-87521861D01*
X45529605Y-88350000D01*
X45170395Y-88350000D01*
X44342255Y-87521861D01*
X44096136Y-87595995D01*
X44093710Y-87602746D01*
X44066534Y-87537138D01*
X43871651Y-87342255D01*
X44521861Y-87342255D01*
X45350000Y-88170395D01*
X46178139Y-87342255D01*
X49871861Y-87342255D01*
X50700000Y-88170395D01*
X51528139Y-87342255D01*
X51454005Y-87096136D01*
X50916777Y-86903035D01*
X50346546Y-86930222D01*
X49945995Y-87096136D01*
X49871861Y-87342255D01*
X46178139Y-87342255D01*
X46104005Y-87096136D01*
X45566777Y-86903035D01*
X44996546Y-86930222D01*
X44595995Y-87096136D01*
X44521861Y-87342255D01*
X43871651Y-87342255D01*
X43662862Y-87133466D01*
X43135439Y-86915000D01*
X42564561Y-86915000D01*
X42037138Y-87133466D01*
X41633466Y-87537138D01*
X41415000Y-88064561D01*
X38923021Y-88064561D01*
X38919778Y-87996546D01*
X38753864Y-87595995D01*
X38507745Y-87521861D01*
X37679605Y-88350000D01*
X37320395Y-88350000D01*
X37306253Y-88335858D01*
X37485858Y-88156252D01*
X37500000Y-88170395D01*
X38328139Y-87342255D01*
X38254005Y-87096136D01*
X37716777Y-86903035D01*
X37146546Y-86930222D01*
X36745995Y-87096136D01*
X36720936Y-87179329D01*
X36709477Y-87171672D01*
X35514582Y-85976778D01*
X35539909Y-85971740D01*
X36014577Y-85654577D01*
X36250000Y-85302242D01*
X36485423Y-85654577D01*
X36960091Y-85971740D01*
X37378667Y-86055000D01*
X37661333Y-86055000D01*
X38079909Y-85971740D01*
X38554577Y-85654577D01*
X38790000Y-85302242D01*
X39025423Y-85654577D01*
X39500091Y-85971740D01*
X39918667Y-86055000D01*
X40201333Y-86055000D01*
X40619909Y-85971740D01*
X41094577Y-85654577D01*
X41330000Y-85302242D01*
X41565423Y-85654577D01*
X42040091Y-85971740D01*
X42458667Y-86055000D01*
X42741333Y-86055000D01*
X43159909Y-85971740D01*
X43634577Y-85654577D01*
X43870000Y-85302242D01*
X44105423Y-85654577D01*
X44580091Y-85971740D01*
X44998667Y-86055000D01*
X45281333Y-86055000D01*
X45699909Y-85971740D01*
X46174577Y-85654577D01*
X46410000Y-85302242D01*
X46645423Y-85654577D01*
X47120091Y-85971740D01*
X47538667Y-86055000D01*
X47821333Y-86055000D01*
X48239909Y-85971740D01*
X48714577Y-85654577D01*
X48950000Y-85302242D01*
X49185423Y-85654577D01*
X49660091Y-85971740D01*
X50078667Y-86055000D01*
X50361333Y-86055000D01*
X50779909Y-85971740D01*
X51254577Y-85654577D01*
X51510947Y-85270892D01*
X51607611Y-85475134D01*
X52022577Y-85851041D01*
X52410961Y-86011904D01*
X52633000Y-85889915D01*
X52633000Y-84747000D01*
X52613000Y-84747000D01*
X52613000Y-84493000D01*
X52633000Y-84493000D01*
X52633000Y-84473000D01*
X52887000Y-84473000D01*
X52887000Y-84493000D01*
X52907000Y-84493000D01*
X52907000Y-84747000D01*
X52887000Y-84747000D01*
X52887000Y-85889915D01*
X53109039Y-86011904D01*
X53414999Y-85885180D01*
X53415000Y-86915000D01*
X52914561Y-86915000D01*
X52387138Y-87133466D01*
X51983466Y-87537138D01*
X51956475Y-87602299D01*
X51953864Y-87595995D01*
X51707745Y-87521861D01*
X50879605Y-88350000D01*
X51707745Y-89178139D01*
X51953864Y-89104005D01*
X51956290Y-89097254D01*
X51983466Y-89162862D01*
X52387138Y-89566534D01*
X52914561Y-89785000D01*
X53485439Y-89785000D01*
X54012862Y-89566534D01*
X54416534Y-89162862D01*
X54471167Y-89030966D01*
X55874681Y-90434481D01*
X55917082Y-90497938D01*
X56168474Y-90665913D01*
X56390159Y-90710009D01*
X56390163Y-90710009D01*
X56465010Y-90724897D01*
X56539857Y-90710009D01*
X63933058Y-90710009D01*
X67812522Y-94589474D01*
X67854922Y-94652930D01*
X68106314Y-94820905D01*
X68327999Y-94865001D01*
X68328003Y-94865001D01*
X68402850Y-94879889D01*
X68477697Y-94865001D01*
X81770152Y-94865001D01*
X81844999Y-94879889D01*
X81919846Y-94865001D01*
X81919851Y-94865001D01*
X82141536Y-94820905D01*
X82392928Y-94652930D01*
X82435330Y-94589471D01*
X82661698Y-94363103D01*
X82714561Y-94385000D01*
X83285439Y-94385000D01*
X83812862Y-94166534D01*
X84216534Y-93762862D01*
X84435000Y-93235439D01*
X84435000Y-92664561D01*
X84402044Y-92584999D01*
X85950154Y-92584999D01*
X86025001Y-92599887D01*
X86099848Y-92584999D01*
X86099853Y-92584999D01*
X86321538Y-92540903D01*
X86572930Y-92372928D01*
X86615332Y-92309469D01*
X86780498Y-92144303D01*
X86565000Y-92664561D01*
X86565000Y-93235439D01*
X86783466Y-93762862D01*
X87187138Y-94166534D01*
X87714561Y-94385000D01*
X88285439Y-94385000D01*
X88812862Y-94166534D01*
X89216534Y-93762862D01*
X89435000Y-93235439D01*
X89435000Y-92980000D01*
X91536887Y-92980000D01*
X91648260Y-93539909D01*
X91965423Y-94014577D01*
X92440091Y-94331740D01*
X92858667Y-94415000D01*
X93141333Y-94415000D01*
X93559909Y-94331740D01*
X94034577Y-94014577D01*
X94351740Y-93539909D01*
X94463113Y-92980000D01*
X94351740Y-92420091D01*
X94034577Y-91945423D01*
X93559909Y-91628260D01*
X93141333Y-91545000D01*
X92858667Y-91545000D01*
X92440091Y-91628260D01*
X91965423Y-91945423D01*
X91648260Y-92420091D01*
X91536887Y-92980000D01*
X89435000Y-92980000D01*
X89435000Y-92664561D01*
X89216534Y-92137138D01*
X88812862Y-91733466D01*
X88285439Y-91515000D01*
X87714561Y-91515000D01*
X87194303Y-91730498D01*
X89161698Y-89763104D01*
X89214561Y-89785000D01*
X89785439Y-89785000D01*
X90312862Y-89566534D01*
X90716534Y-89162862D01*
X90866836Y-88800000D01*
X96152560Y-88800000D01*
X96152560Y-91200000D01*
X96201843Y-91447765D01*
X96342191Y-91657809D01*
X96552235Y-91798157D01*
X96800000Y-91847440D01*
X99200000Y-91847440D01*
X99447765Y-91798157D01*
X99657809Y-91657809D01*
X99798157Y-91447765D01*
X99847440Y-91200000D01*
X99847440Y-88800000D01*
X99798157Y-88552235D01*
X99657809Y-88342191D01*
X99447765Y-88201843D01*
X99200000Y-88152560D01*
X96800000Y-88152560D01*
X96552235Y-88201843D01*
X96342191Y-88342191D01*
X96201843Y-88552235D01*
X96152560Y-88800000D01*
X90866836Y-88800000D01*
X90935000Y-88635439D01*
X90935000Y-88064561D01*
X90716534Y-87537138D01*
X90312862Y-87133466D01*
X89785439Y-86915000D01*
X89214561Y-86915000D01*
X88687138Y-87133466D01*
X88283466Y-87537138D01*
X88250000Y-87617932D01*
X88216534Y-87537138D01*
X87812862Y-87133466D01*
X87285439Y-86915000D01*
X86714561Y-86915000D01*
X86187138Y-87133466D01*
X85783466Y-87537138D01*
X85565000Y-88064561D01*
X85565000Y-88635439D01*
X85586897Y-88688302D01*
X84685199Y-89590000D01*
X80756210Y-89590000D01*
X80812862Y-89566534D01*
X81216534Y-89162862D01*
X81435000Y-88635439D01*
X81435000Y-88064561D01*
X81216534Y-87537138D01*
X80812862Y-87133466D01*
X80285439Y-86915000D01*
X79714561Y-86915000D01*
X79187138Y-87133466D01*
X78783466Y-87537138D01*
X78756475Y-87602299D01*
X78753864Y-87595995D01*
X78507745Y-87521861D01*
X77679605Y-88350000D01*
X78507745Y-89178139D01*
X78753864Y-89104005D01*
X78756290Y-89097254D01*
X78783466Y-89162862D01*
X79187138Y-89566534D01*
X79243790Y-89590000D01*
X78258181Y-89590000D01*
X78328139Y-89357745D01*
X77500000Y-88529605D01*
X76671861Y-89357745D01*
X76741819Y-89590000D01*
X71647700Y-89590000D01*
X71572852Y-89575112D01*
X71498004Y-89590000D01*
X71498000Y-89590000D01*
X71324457Y-89624520D01*
X71276314Y-89634096D01*
X71089270Y-89759076D01*
X71024923Y-89802071D01*
X70982523Y-89865527D01*
X69266738Y-91581312D01*
X69084185Y-91545000D01*
X68801519Y-91545000D01*
X68382943Y-91628260D01*
X67908275Y-91945423D01*
X67671874Y-92299222D01*
X64838190Y-89465539D01*
X64795788Y-89402080D01*
X64544396Y-89234105D01*
X64322711Y-89190009D01*
X64322706Y-89190009D01*
X64247859Y-89175121D01*
X64173012Y-89190009D01*
X63359794Y-89190009D01*
X64416580Y-88133223D01*
X76053035Y-88133223D01*
X76080222Y-88703454D01*
X76246136Y-89104005D01*
X76492255Y-89178139D01*
X77320395Y-88350000D01*
X76492255Y-87521861D01*
X76246136Y-87595995D01*
X76053035Y-88133223D01*
X64416580Y-88133223D01*
X65207548Y-87342255D01*
X76671861Y-87342255D01*
X77500000Y-88170395D01*
X78328139Y-87342255D01*
X78254005Y-87096136D01*
X77716777Y-86903035D01*
X77146546Y-86930222D01*
X76745995Y-87096136D01*
X76671861Y-87342255D01*
X65207548Y-87342255D01*
X65339794Y-87210010D01*
X68910140Y-87210010D01*
X68984987Y-87224898D01*
X69059834Y-87210010D01*
X69059839Y-87210010D01*
X69281524Y-87165914D01*
X69532916Y-86997939D01*
X69575318Y-86934480D01*
X71333504Y-85176295D01*
X71427611Y-85375134D01*
X71842577Y-85751041D01*
X72230961Y-85911904D01*
X72453000Y-85789915D01*
X72453000Y-84647000D01*
X72433000Y-84647000D01*
X72433000Y-84393000D01*
X72453000Y-84393000D01*
X72453000Y-84373000D01*
X72707000Y-84373000D01*
X72707000Y-84393000D01*
X72727000Y-84393000D01*
X72727000Y-84647000D01*
X72707000Y-84647000D01*
X72707000Y-85789915D01*
X72929039Y-85911904D01*
X73317423Y-85751041D01*
X73732389Y-85375134D01*
X73829053Y-85170892D01*
X74085423Y-85554577D01*
X74560091Y-85871740D01*
X74978667Y-85955000D01*
X75261333Y-85955000D01*
X75679909Y-85871740D01*
X76154577Y-85554577D01*
X76410947Y-85170892D01*
X76507611Y-85375134D01*
X76922577Y-85751041D01*
X77310961Y-85911904D01*
X77533000Y-85789915D01*
X77533000Y-84647000D01*
X77513000Y-84647000D01*
X77513000Y-84393000D01*
X77533000Y-84393000D01*
X77533000Y-84373000D01*
X77787000Y-84373000D01*
X77787000Y-84393000D01*
X77807000Y-84393000D01*
X77807000Y-84647000D01*
X77787000Y-84647000D01*
X77787000Y-85789915D01*
X78009039Y-85911904D01*
X78397423Y-85751041D01*
X78543376Y-85618826D01*
X78590529Y-85650332D01*
X79069670Y-86129474D01*
X79112070Y-86192930D01*
X79363462Y-86360905D01*
X79585147Y-86405001D01*
X79585152Y-86405001D01*
X79659999Y-86419889D01*
X79734846Y-86405001D01*
X81948782Y-86405001D01*
X82023629Y-86419889D01*
X82098476Y-86405001D01*
X82098481Y-86405001D01*
X82320166Y-86360905D01*
X82571558Y-86192930D01*
X82613960Y-86129471D01*
X83222765Y-85520667D01*
X83245423Y-85554577D01*
X83720091Y-85871740D01*
X84138667Y-85955000D01*
X84421333Y-85955000D01*
X84839909Y-85871740D01*
X85314577Y-85554577D01*
X85550000Y-85202242D01*
X85785423Y-85554577D01*
X86260091Y-85871740D01*
X86678667Y-85955000D01*
X86961333Y-85955000D01*
X87379909Y-85871740D01*
X87854577Y-85554577D01*
X88090000Y-85202242D01*
X88325423Y-85554577D01*
X88800091Y-85871740D01*
X89218667Y-85955000D01*
X89501333Y-85955000D01*
X89919909Y-85871740D01*
X90394577Y-85554577D01*
X90630000Y-85202242D01*
X90865423Y-85554577D01*
X91340091Y-85871740D01*
X91758667Y-85955000D01*
X92041333Y-85955000D01*
X92459909Y-85871740D01*
X92934577Y-85554577D01*
X93251740Y-85079909D01*
X93363113Y-84520000D01*
X93291505Y-84160000D01*
X96129051Y-84160000D01*
X96271469Y-84875981D01*
X96677039Y-85482961D01*
X97284019Y-85888531D01*
X97819273Y-85995000D01*
X98180727Y-85995000D01*
X98715981Y-85888531D01*
X99322961Y-85482961D01*
X99728531Y-84875981D01*
X99870949Y-84160000D01*
X99728531Y-83444019D01*
X99322961Y-82837039D01*
X98715981Y-82431469D01*
X98180727Y-82325000D01*
X97819273Y-82325000D01*
X97284019Y-82431469D01*
X96677039Y-82837039D01*
X96271469Y-83444019D01*
X96129051Y-84160000D01*
X93291505Y-84160000D01*
X93251740Y-83960091D01*
X92934577Y-83485423D01*
X92459909Y-83168260D01*
X92041333Y-83085000D01*
X91758667Y-83085000D01*
X91340091Y-83168260D01*
X90865423Y-83485423D01*
X90630000Y-83837758D01*
X90394577Y-83485423D01*
X89919909Y-83168260D01*
X89501333Y-83085000D01*
X89218667Y-83085000D01*
X88875204Y-83153319D01*
X89032931Y-83047929D01*
X89075333Y-82984470D01*
X93509474Y-78550330D01*
X93572930Y-78507930D01*
X93740905Y-78256538D01*
X93785001Y-78034853D01*
X93785001Y-78034849D01*
X93799889Y-77960002D01*
X93785001Y-77885155D01*
X93785001Y-75914846D01*
X93799889Y-75839999D01*
X93785001Y-75765152D01*
X93785001Y-75765147D01*
X93740905Y-75543462D01*
X93572930Y-75292070D01*
X93533965Y-75266035D01*
X93507930Y-75227070D01*
X93256538Y-75059095D01*
X93034853Y-75014999D01*
X93034848Y-75014999D01*
X92960001Y-75000111D01*
X92885154Y-75014999D01*
X88019849Y-75014999D01*
X87945001Y-75000111D01*
X87870153Y-75014999D01*
X87870149Y-75014999D01*
X87696606Y-75049519D01*
X87648463Y-75059095D01*
X87517601Y-75146535D01*
X87397072Y-75227070D01*
X87354672Y-75290526D01*
X87143886Y-75501312D01*
X86961333Y-75465000D01*
X86678667Y-75465000D01*
X86260091Y-75548260D01*
X85785423Y-75865423D01*
X85550000Y-76217758D01*
X85314577Y-75865423D01*
X84839909Y-75548260D01*
X84421333Y-75465000D01*
X84138667Y-75465000D01*
X83720091Y-75548260D01*
X83245423Y-75865423D01*
X83217061Y-75907869D01*
X83215904Y-75902050D01*
X83047929Y-75650658D01*
X82984473Y-75608258D01*
X80176215Y-72800000D01*
X96152560Y-72800000D01*
X96152560Y-75200000D01*
X96201843Y-75447765D01*
X96342191Y-75657809D01*
X96552235Y-75798157D01*
X96800000Y-75847440D01*
X99200000Y-75847440D01*
X99447765Y-75798157D01*
X99657809Y-75657809D01*
X99798157Y-75447765D01*
X99847440Y-75200000D01*
X99847440Y-72800000D01*
X99798157Y-72552235D01*
X99657809Y-72342191D01*
X99447765Y-72201843D01*
X99200000Y-72152560D01*
X96800000Y-72152560D01*
X96552235Y-72201843D01*
X96342191Y-72342191D01*
X96201843Y-72552235D01*
X96152560Y-72800000D01*
X80176215Y-72800000D01*
X78760000Y-71383786D01*
X78760000Y-68814561D01*
X79665000Y-68814561D01*
X79665000Y-69385439D01*
X79883466Y-69912862D01*
X80287138Y-70316534D01*
X80814561Y-70535000D01*
X81385439Y-70535000D01*
X81912862Y-70316534D01*
X82176155Y-70053241D01*
X82261673Y-70259699D01*
X82440302Y-70438327D01*
X82673691Y-70535000D01*
X83314250Y-70535000D01*
X83473000Y-70376250D01*
X83473000Y-69227000D01*
X83727000Y-69227000D01*
X83727000Y-70376250D01*
X83885750Y-70535000D01*
X84526309Y-70535000D01*
X84759698Y-70438327D01*
X84938327Y-70259699D01*
X85001268Y-70107745D01*
X89271861Y-70107745D01*
X89345995Y-70353864D01*
X89883223Y-70546965D01*
X90453454Y-70519778D01*
X90854005Y-70353864D01*
X90928139Y-70107745D01*
X90100000Y-69279605D01*
X89271861Y-70107745D01*
X85001268Y-70107745D01*
X85035000Y-70026310D01*
X85035000Y-69385750D01*
X84876250Y-69227000D01*
X83727000Y-69227000D01*
X83473000Y-69227000D01*
X83453000Y-69227000D01*
X83453000Y-68973000D01*
X83473000Y-68973000D01*
X83473000Y-67823750D01*
X83727000Y-67823750D01*
X83727000Y-68973000D01*
X84876250Y-68973000D01*
X84966027Y-68883223D01*
X88653035Y-68883223D01*
X88680222Y-69453454D01*
X88846136Y-69854005D01*
X89092255Y-69928139D01*
X89920395Y-69100000D01*
X90279605Y-69100000D01*
X91107745Y-69928139D01*
X91155307Y-69913813D01*
X91201843Y-70147765D01*
X91342191Y-70357809D01*
X91552235Y-70498157D01*
X91800000Y-70547440D01*
X93400000Y-70547440D01*
X93647765Y-70498157D01*
X93857809Y-70357809D01*
X93998157Y-70147765D01*
X94047440Y-69900000D01*
X94047440Y-68714561D01*
X95565000Y-68714561D01*
X95565000Y-69285439D01*
X95783466Y-69812862D01*
X96187138Y-70216534D01*
X96714561Y-70435000D01*
X97285439Y-70435000D01*
X97812862Y-70216534D01*
X98021651Y-70007745D01*
X98671861Y-70007745D01*
X98745995Y-70253864D01*
X99283223Y-70446965D01*
X99853454Y-70419778D01*
X100254005Y-70253864D01*
X100328139Y-70007745D01*
X99500000Y-69179605D01*
X98671861Y-70007745D01*
X98021651Y-70007745D01*
X98216534Y-69812862D01*
X98243525Y-69747701D01*
X98246136Y-69754005D01*
X98492255Y-69828139D01*
X99320395Y-69000000D01*
X99679605Y-69000000D01*
X100507745Y-69828139D01*
X100753864Y-69754005D01*
X100946965Y-69216777D01*
X100919778Y-68646546D01*
X100753864Y-68245995D01*
X100507745Y-68171861D01*
X99679605Y-69000000D01*
X99320395Y-69000000D01*
X98492255Y-68171861D01*
X98246136Y-68245995D01*
X98243710Y-68252746D01*
X98216534Y-68187138D01*
X98021651Y-67992255D01*
X98671861Y-67992255D01*
X99500000Y-68820395D01*
X100328139Y-67992255D01*
X100254005Y-67746136D01*
X99716777Y-67553035D01*
X99146546Y-67580222D01*
X98745995Y-67746136D01*
X98671861Y-67992255D01*
X98021651Y-67992255D01*
X97812862Y-67783466D01*
X97285439Y-67565000D01*
X96714561Y-67565000D01*
X96187138Y-67783466D01*
X95783466Y-68187138D01*
X95565000Y-68714561D01*
X94047440Y-68714561D01*
X94047440Y-68300000D01*
X93998157Y-68052235D01*
X93857809Y-67842191D01*
X93647765Y-67701843D01*
X93400000Y-67652560D01*
X91800000Y-67652560D01*
X91552235Y-67701843D01*
X91342191Y-67842191D01*
X91201843Y-68052235D01*
X91155307Y-68286187D01*
X91107745Y-68271861D01*
X90279605Y-69100000D01*
X89920395Y-69100000D01*
X89092255Y-68271861D01*
X88846136Y-68345995D01*
X88653035Y-68883223D01*
X84966027Y-68883223D01*
X85035000Y-68814250D01*
X85035000Y-68173690D01*
X85001269Y-68092255D01*
X89271861Y-68092255D01*
X90100000Y-68920395D01*
X90928139Y-68092255D01*
X90854005Y-67846136D01*
X90316777Y-67653035D01*
X89746546Y-67680222D01*
X89345995Y-67846136D01*
X89271861Y-68092255D01*
X85001269Y-68092255D01*
X84938327Y-67940301D01*
X84759698Y-67761673D01*
X84526309Y-67665000D01*
X83885750Y-67665000D01*
X83727000Y-67823750D01*
X83473000Y-67823750D01*
X83314250Y-67665000D01*
X82673691Y-67665000D01*
X82440302Y-67761673D01*
X82261673Y-67940301D01*
X82176155Y-68146759D01*
X81912862Y-67883466D01*
X81385439Y-67665000D01*
X80814561Y-67665000D01*
X80287138Y-67883466D01*
X79883466Y-68287138D01*
X79665000Y-68814561D01*
X78760000Y-68814561D01*
X78760000Y-66374846D01*
X78774888Y-66299999D01*
X78760000Y-66225152D01*
X78760000Y-66225148D01*
X78715904Y-66003463D01*
X78547929Y-65752071D01*
X78484473Y-65709671D01*
X77335000Y-64560199D01*
X77335000Y-64394126D01*
X77177431Y-64013720D01*
X76886280Y-63722569D01*
X76505874Y-63565000D01*
X76094126Y-63565000D01*
X75713720Y-63722569D01*
X75650000Y-63786289D01*
X75586280Y-63722569D01*
X75205874Y-63565000D01*
X74794126Y-63565000D01*
X74413720Y-63722569D01*
X74122569Y-64013720D01*
X73965000Y-64394126D01*
X73965000Y-64805874D01*
X74122569Y-65186280D01*
X74255686Y-65319397D01*
X74284096Y-65462222D01*
X74452072Y-65713614D01*
X74515528Y-65756014D01*
X76789989Y-68030476D01*
X76789989Y-68274852D01*
X76789990Y-68274857D01*
X76789989Y-71425148D01*
X76789989Y-71810140D01*
X76775101Y-71884987D01*
X76789989Y-71959834D01*
X76789989Y-71959838D01*
X76834085Y-72181523D01*
X77002060Y-72432916D01*
X77065519Y-72475318D01*
X80042760Y-75452560D01*
X79400000Y-75452560D01*
X79152235Y-75501843D01*
X78942191Y-75642191D01*
X78801843Y-75852235D01*
X78775215Y-75986106D01*
X78694577Y-75865423D01*
X78219909Y-75548260D01*
X77801333Y-75465000D01*
X77518667Y-75465000D01*
X77336114Y-75501312D01*
X77125330Y-75290529D01*
X77082928Y-75227070D01*
X76831536Y-75059095D01*
X76609851Y-75014999D01*
X76609846Y-75014999D01*
X76534999Y-75000111D01*
X76460152Y-75014999D01*
X72114847Y-75014999D01*
X72039999Y-75000111D01*
X71965151Y-75014999D01*
X71965147Y-75014999D01*
X71791604Y-75049519D01*
X71743461Y-75059095D01*
X71612599Y-75146535D01*
X71492070Y-75227070D01*
X71449670Y-75290526D01*
X69447440Y-77292757D01*
X69447440Y-76200000D01*
X69398157Y-75952235D01*
X69257809Y-75742191D01*
X69047765Y-75601843D01*
X68800000Y-75552560D01*
X67200000Y-75552560D01*
X66952235Y-75601843D01*
X66742191Y-75742191D01*
X66601843Y-75952235D01*
X66575215Y-76086106D01*
X66494577Y-75965423D01*
X66019909Y-75648260D01*
X65601333Y-75565000D01*
X65318667Y-75565000D01*
X64900091Y-75648260D01*
X64425423Y-75965423D01*
X64190000Y-76317758D01*
X63954577Y-75965423D01*
X63600778Y-75729022D01*
X65145713Y-74184088D01*
X65200001Y-74194887D01*
X65274848Y-74179999D01*
X65274853Y-74179999D01*
X65496538Y-74135903D01*
X65672915Y-74018052D01*
X65858667Y-74055000D01*
X66141333Y-74055000D01*
X66559909Y-73971740D01*
X67034577Y-73654577D01*
X67351740Y-73179909D01*
X67463113Y-72620000D01*
X67351740Y-72060091D01*
X67034577Y-71585423D01*
X66559909Y-71268260D01*
X66141333Y-71185000D01*
X65858667Y-71185000D01*
X65440091Y-71268260D01*
X64965423Y-71585423D01*
X64648260Y-72060091D01*
X64536887Y-72620000D01*
X64553038Y-72701196D01*
X64538462Y-72704095D01*
X64538460Y-72704096D01*
X64538461Y-72704096D01*
X64350525Y-72829670D01*
X64350523Y-72829672D01*
X64287070Y-72872070D01*
X64244672Y-72935523D01*
X61294804Y-75885393D01*
X60939909Y-75648260D01*
X60521333Y-75565000D01*
X60238667Y-75565000D01*
X59820091Y-75648260D01*
X59345423Y-75965423D01*
X59110000Y-76317758D01*
X58874577Y-75965423D01*
X58399909Y-75648260D01*
X57981333Y-75565000D01*
X57698667Y-75565000D01*
X57280091Y-75648260D01*
X56805423Y-75965423D01*
X56570000Y-76317758D01*
X56334577Y-75965423D01*
X55859909Y-75648260D01*
X55441333Y-75565000D01*
X55158667Y-75565000D01*
X54740091Y-75648260D01*
X54265423Y-75965423D01*
X54030000Y-76317758D01*
X53794577Y-75965423D01*
X53319909Y-75648260D01*
X52901333Y-75565000D01*
X52618667Y-75565000D01*
X52200091Y-75648260D01*
X51725423Y-75965423D01*
X51469053Y-76349108D01*
X51372389Y-76144866D01*
X50957423Y-75768959D01*
X50569039Y-75608096D01*
X50347000Y-75730085D01*
X50347000Y-76873000D01*
X50367000Y-76873000D01*
X50367000Y-77127000D01*
X50347000Y-77127000D01*
X50347000Y-77147000D01*
X50093000Y-77147000D01*
X50093000Y-77127000D01*
X50073000Y-77127000D01*
X50073000Y-76873000D01*
X50093000Y-76873000D01*
X50093000Y-75730085D01*
X49870961Y-75608096D01*
X49482577Y-75768959D01*
X49067611Y-76144866D01*
X48970947Y-76349108D01*
X48760000Y-76033403D01*
X48760000Y-72184312D01*
X48784540Y-72174147D01*
X49174147Y-71784540D01*
X49250585Y-71600000D01*
X53952560Y-71600000D01*
X53952560Y-73400000D01*
X54001843Y-73647765D01*
X54142191Y-73857809D01*
X54352235Y-73998157D01*
X54600000Y-74047440D01*
X56400000Y-74047440D01*
X56647765Y-73998157D01*
X56857809Y-73857809D01*
X56998157Y-73647765D01*
X57047440Y-73400000D01*
X57047440Y-71600000D01*
X58952560Y-71600000D01*
X58952560Y-73400000D01*
X59001843Y-73647765D01*
X59142191Y-73857809D01*
X59352235Y-73998157D01*
X59600000Y-74047440D01*
X61400000Y-74047440D01*
X61647765Y-73998157D01*
X61857809Y-73857809D01*
X61998157Y-73647765D01*
X62047440Y-73400000D01*
X62047440Y-71600000D01*
X61998157Y-71352235D01*
X61857809Y-71142191D01*
X61647765Y-71001843D01*
X61400000Y-70952560D01*
X59600000Y-70952560D01*
X59352235Y-71001843D01*
X59142191Y-71142191D01*
X59001843Y-71352235D01*
X58952560Y-71600000D01*
X57047440Y-71600000D01*
X56998157Y-71352235D01*
X56857809Y-71142191D01*
X56647765Y-71001843D01*
X56400000Y-70952560D01*
X54600000Y-70952560D01*
X54352235Y-71001843D01*
X54142191Y-71142191D01*
X54001843Y-71352235D01*
X53952560Y-71600000D01*
X49250585Y-71600000D01*
X49385000Y-71275494D01*
X49385000Y-70724506D01*
X49174147Y-70215460D01*
X49066432Y-70107745D01*
X71271861Y-70107745D01*
X71345995Y-70353864D01*
X71883223Y-70546965D01*
X72453454Y-70519778D01*
X72854005Y-70353864D01*
X72928139Y-70107745D01*
X72100000Y-69279605D01*
X71271861Y-70107745D01*
X49066432Y-70107745D01*
X48784540Y-69825853D01*
X48275494Y-69615000D01*
X47724506Y-69615000D01*
X47215460Y-69825853D01*
X46825853Y-70215460D01*
X46615000Y-70724506D01*
X46615000Y-71275494D01*
X46825853Y-71784540D01*
X47215460Y-72174147D01*
X47240000Y-72184312D01*
X47240001Y-75624408D01*
X47120091Y-75648260D01*
X46645423Y-75965423D01*
X46410000Y-76317758D01*
X46174577Y-75965423D01*
X45699909Y-75648260D01*
X45281333Y-75565000D01*
X44998667Y-75565000D01*
X44816114Y-75601312D01*
X43860000Y-74645199D01*
X43860000Y-72184312D01*
X43884540Y-72174147D01*
X44274147Y-71784540D01*
X44485000Y-71275494D01*
X44485000Y-70724506D01*
X44274147Y-70215460D01*
X43884540Y-69825853D01*
X43375494Y-69615000D01*
X42824506Y-69615000D01*
X42315460Y-69825853D01*
X41925853Y-70215460D01*
X41715000Y-70724506D01*
X41715000Y-71275494D01*
X41925853Y-71784540D01*
X42315460Y-72174147D01*
X42340000Y-72184312D01*
X42340001Y-74885148D01*
X42325112Y-74960000D01*
X42384097Y-75256537D01*
X42495791Y-75423698D01*
X42552072Y-75507929D01*
X42615528Y-75550329D01*
X42630199Y-75565000D01*
X42458667Y-75565000D01*
X42040091Y-75648260D01*
X41565423Y-75965423D01*
X41330000Y-76317758D01*
X41094577Y-75965423D01*
X40619909Y-75648260D01*
X40201333Y-75565000D01*
X39918667Y-75565000D01*
X39500091Y-75648260D01*
X39025423Y-75965423D01*
X38790000Y-76317758D01*
X38554577Y-75965423D01*
X38079909Y-75648260D01*
X37661333Y-75565000D01*
X37378667Y-75565000D01*
X36960091Y-75648260D01*
X36485423Y-75965423D01*
X36250000Y-76317758D01*
X36014577Y-75965423D01*
X35539909Y-75648260D01*
X35121333Y-75565000D01*
X34838667Y-75565000D01*
X34420091Y-75648260D01*
X33945423Y-75965423D01*
X33761957Y-76240000D01*
X29614802Y-76240000D01*
X27909999Y-74535198D01*
X27909999Y-73729182D01*
X27911836Y-73733617D01*
X28137265Y-73783130D01*
X28820395Y-73100000D01*
X28137265Y-72416870D01*
X27911836Y-72466383D01*
X27909999Y-72471730D01*
X27909999Y-72237265D01*
X28316870Y-72237265D01*
X29000000Y-72920395D01*
X29014143Y-72906253D01*
X29193748Y-73085858D01*
X29179605Y-73100000D01*
X29193748Y-73114143D01*
X29014143Y-73293748D01*
X29000000Y-73279605D01*
X28316870Y-73962735D01*
X28366383Y-74188164D01*
X28831036Y-74347807D01*
X29321413Y-74317482D01*
X29633617Y-74188164D01*
X29683129Y-73962737D01*
X29798822Y-74078430D01*
X29852970Y-74024282D01*
X29942191Y-74157809D01*
X30152235Y-74298157D01*
X30400000Y-74347440D01*
X31600000Y-74347440D01*
X31847765Y-74298157D01*
X32057809Y-74157809D01*
X32198157Y-73947765D01*
X32247440Y-73700000D01*
X32247440Y-72500000D01*
X32210555Y-72314561D01*
X34565000Y-72314561D01*
X34565000Y-72885439D01*
X34783466Y-73412862D01*
X35187138Y-73816534D01*
X35714561Y-74035000D01*
X36285439Y-74035000D01*
X36812862Y-73816534D01*
X37216534Y-73412862D01*
X37435000Y-72885439D01*
X37435000Y-72314561D01*
X37216534Y-71787138D01*
X36812862Y-71383466D01*
X36285439Y-71165000D01*
X35714561Y-71165000D01*
X35187138Y-71383466D01*
X34783466Y-71787138D01*
X34565000Y-72314561D01*
X32210555Y-72314561D01*
X32198157Y-72252235D01*
X32057809Y-72042191D01*
X31847765Y-71901843D01*
X31600000Y-71852560D01*
X30400000Y-71852560D01*
X30152235Y-71901843D01*
X29942191Y-72042191D01*
X29852970Y-72175718D01*
X29798822Y-72121570D01*
X29683129Y-72237263D01*
X29633617Y-72011836D01*
X29168964Y-71852193D01*
X28678587Y-71882518D01*
X28366383Y-72011836D01*
X28316870Y-72237265D01*
X27909999Y-72237265D01*
X27909999Y-69993687D01*
X28058223Y-70046965D01*
X28628454Y-70019778D01*
X29029005Y-69853864D01*
X29103139Y-69607745D01*
X28275000Y-68779605D01*
X28260858Y-68793748D01*
X28081253Y-68614143D01*
X28095395Y-68600000D01*
X28454605Y-68600000D01*
X29282745Y-69428139D01*
X29528864Y-69354005D01*
X29531290Y-69347254D01*
X29558466Y-69412862D01*
X29962138Y-69816534D01*
X30489561Y-70035000D01*
X31060439Y-70035000D01*
X31587862Y-69816534D01*
X31991534Y-69412862D01*
X32210000Y-68885439D01*
X32210000Y-68883223D01*
X70653035Y-68883223D01*
X70680222Y-69453454D01*
X70846136Y-69854005D01*
X71092255Y-69928139D01*
X71920395Y-69100000D01*
X72279605Y-69100000D01*
X73107745Y-69928139D01*
X73155307Y-69913813D01*
X73201843Y-70147765D01*
X73342191Y-70357809D01*
X73552235Y-70498157D01*
X73800000Y-70547440D01*
X75400000Y-70547440D01*
X75647765Y-70498157D01*
X75857809Y-70357809D01*
X75998157Y-70147765D01*
X76047440Y-69900000D01*
X76047440Y-68300000D01*
X75998157Y-68052235D01*
X75857809Y-67842191D01*
X75647765Y-67701843D01*
X75400000Y-67652560D01*
X73800000Y-67652560D01*
X73552235Y-67701843D01*
X73342191Y-67842191D01*
X73201843Y-68052235D01*
X73155307Y-68286187D01*
X73107745Y-68271861D01*
X72279605Y-69100000D01*
X71920395Y-69100000D01*
X71092255Y-68271861D01*
X70846136Y-68345995D01*
X70653035Y-68883223D01*
X32210000Y-68883223D01*
X32210000Y-68314561D01*
X32117918Y-68092255D01*
X71271861Y-68092255D01*
X72100000Y-68920395D01*
X72928139Y-68092255D01*
X72854005Y-67846136D01*
X72316777Y-67653035D01*
X71746546Y-67680222D01*
X71345995Y-67846136D01*
X71271861Y-68092255D01*
X32117918Y-68092255D01*
X31991534Y-67787138D01*
X31587862Y-67383466D01*
X31060439Y-67165000D01*
X30489561Y-67165000D01*
X29962138Y-67383466D01*
X29558466Y-67787138D01*
X29531475Y-67852299D01*
X29528864Y-67845995D01*
X29282745Y-67771861D01*
X28454605Y-68600000D01*
X28095395Y-68600000D01*
X28081253Y-68585858D01*
X28260858Y-68406253D01*
X28275000Y-68420395D01*
X29103139Y-67592255D01*
X29029005Y-67346136D01*
X28962550Y-67322249D01*
X31304799Y-64980000D01*
X34536887Y-64980000D01*
X34648260Y-65539909D01*
X34965423Y-66014577D01*
X35440091Y-66331740D01*
X35858667Y-66415000D01*
X36141333Y-66415000D01*
X36559909Y-66331740D01*
X37034577Y-66014577D01*
X37351740Y-65539909D01*
X37416455Y-65214561D01*
X39565000Y-65214561D01*
X39565000Y-65785439D01*
X39783466Y-66312862D01*
X40187138Y-66716534D01*
X40714561Y-66935000D01*
X41285439Y-66935000D01*
X41812862Y-66716534D01*
X42021651Y-66507745D01*
X42671861Y-66507745D01*
X42745995Y-66753864D01*
X43283223Y-66946965D01*
X43853454Y-66919778D01*
X44254005Y-66753864D01*
X44328139Y-66507745D01*
X46671861Y-66507745D01*
X46745995Y-66753864D01*
X47283223Y-66946965D01*
X47853454Y-66919778D01*
X48254005Y-66753864D01*
X48328139Y-66507745D01*
X47500000Y-65679605D01*
X46671861Y-66507745D01*
X44328139Y-66507745D01*
X43500000Y-65679605D01*
X42671861Y-66507745D01*
X42021651Y-66507745D01*
X42216534Y-66312862D01*
X42243525Y-66247701D01*
X42246136Y-66254005D01*
X42492255Y-66328139D01*
X43320395Y-65500000D01*
X43679605Y-65500000D01*
X44507745Y-66328139D01*
X44753864Y-66254005D01*
X44946965Y-65716777D01*
X44926295Y-65283223D01*
X46053035Y-65283223D01*
X46080222Y-65853454D01*
X46246136Y-66254005D01*
X46492255Y-66328139D01*
X47320395Y-65500000D01*
X47679605Y-65500000D01*
X48507745Y-66328139D01*
X48753864Y-66254005D01*
X48756290Y-66247254D01*
X48783466Y-66312862D01*
X49187138Y-66716534D01*
X49714561Y-66935000D01*
X50285439Y-66935000D01*
X50812862Y-66716534D01*
X51216534Y-66312862D01*
X51435000Y-65785439D01*
X51435000Y-65244742D01*
X54008954Y-65244742D01*
X54262034Y-65787576D01*
X54703583Y-66192240D01*
X55135260Y-66371036D01*
X55373000Y-66250378D01*
X55373000Y-65007000D01*
X55627000Y-65007000D01*
X55627000Y-66250378D01*
X55864740Y-66371036D01*
X56296417Y-66192240D01*
X56737966Y-65787576D01*
X56991046Y-65244742D01*
X59008954Y-65244742D01*
X59262034Y-65787576D01*
X59703583Y-66192240D01*
X60135260Y-66371036D01*
X60373000Y-66250378D01*
X60373000Y-65007000D01*
X60627000Y-65007000D01*
X60627000Y-66250378D01*
X60864740Y-66371036D01*
X61296417Y-66192240D01*
X61737966Y-65787576D01*
X61991046Y-65244742D01*
X61870997Y-65007000D01*
X60627000Y-65007000D01*
X60373000Y-65007000D01*
X59129003Y-65007000D01*
X59008954Y-65244742D01*
X56991046Y-65244742D01*
X56870997Y-65007000D01*
X55627000Y-65007000D01*
X55373000Y-65007000D01*
X54129003Y-65007000D01*
X54008954Y-65244742D01*
X51435000Y-65244742D01*
X51435000Y-65214561D01*
X51216534Y-64687138D01*
X51044654Y-64515258D01*
X54008954Y-64515258D01*
X54129003Y-64753000D01*
X55373000Y-64753000D01*
X55373000Y-63509622D01*
X55627000Y-63509622D01*
X55627000Y-64753000D01*
X56870997Y-64753000D01*
X56991046Y-64515258D01*
X59008954Y-64515258D01*
X59129003Y-64753000D01*
X60373000Y-64753000D01*
X60373000Y-63509622D01*
X60627000Y-63509622D01*
X60627000Y-64753000D01*
X61870997Y-64753000D01*
X61890406Y-64714561D01*
X64565000Y-64714561D01*
X64565000Y-65285439D01*
X64783466Y-65812862D01*
X65187138Y-66216534D01*
X65714561Y-66435000D01*
X66285439Y-66435000D01*
X66812862Y-66216534D01*
X67216534Y-65812862D01*
X67435000Y-65285439D01*
X67435000Y-64714561D01*
X67216534Y-64187138D01*
X66812862Y-63783466D01*
X66285439Y-63565000D01*
X65714561Y-63565000D01*
X65187138Y-63783466D01*
X64783466Y-64187138D01*
X64565000Y-64714561D01*
X61890406Y-64714561D01*
X61991046Y-64515258D01*
X61737966Y-63972424D01*
X61296417Y-63567760D01*
X60864740Y-63388964D01*
X60627000Y-63509622D01*
X60373000Y-63509622D01*
X60135260Y-63388964D01*
X59703583Y-63567760D01*
X59262034Y-63972424D01*
X59008954Y-64515258D01*
X56991046Y-64515258D01*
X56737966Y-63972424D01*
X56296417Y-63567760D01*
X55864740Y-63388964D01*
X55627000Y-63509622D01*
X55373000Y-63509622D01*
X55135260Y-63388964D01*
X54703583Y-63567760D01*
X54262034Y-63972424D01*
X54008954Y-64515258D01*
X51044654Y-64515258D01*
X50812862Y-64283466D01*
X50285439Y-64065000D01*
X49714561Y-64065000D01*
X49187138Y-64283466D01*
X48783466Y-64687138D01*
X48756475Y-64752299D01*
X48753864Y-64745995D01*
X48507745Y-64671861D01*
X47679605Y-65500000D01*
X47320395Y-65500000D01*
X46492255Y-64671861D01*
X46246136Y-64745995D01*
X46053035Y-65283223D01*
X44926295Y-65283223D01*
X44919778Y-65146546D01*
X44753864Y-64745995D01*
X44507745Y-64671861D01*
X43679605Y-65500000D01*
X43320395Y-65500000D01*
X42492255Y-64671861D01*
X42246136Y-64745995D01*
X42243710Y-64752746D01*
X42216534Y-64687138D01*
X42021651Y-64492255D01*
X42671861Y-64492255D01*
X43500000Y-65320395D01*
X44328139Y-64492255D01*
X46671861Y-64492255D01*
X47500000Y-65320395D01*
X48328139Y-64492255D01*
X48254005Y-64246136D01*
X47716777Y-64053035D01*
X47146546Y-64080222D01*
X46745995Y-64246136D01*
X46671861Y-64492255D01*
X44328139Y-64492255D01*
X44254005Y-64246136D01*
X43716777Y-64053035D01*
X43146546Y-64080222D01*
X42745995Y-64246136D01*
X42671861Y-64492255D01*
X42021651Y-64492255D01*
X41812862Y-64283466D01*
X41285439Y-64065000D01*
X40714561Y-64065000D01*
X40187138Y-64283466D01*
X39783466Y-64687138D01*
X39565000Y-65214561D01*
X37416455Y-65214561D01*
X37463113Y-64980000D01*
X37351740Y-64420091D01*
X37034577Y-63945423D01*
X36559909Y-63628260D01*
X36141333Y-63545000D01*
X35858667Y-63545000D01*
X35440091Y-63628260D01*
X34965423Y-63945423D01*
X34648260Y-64420091D01*
X34536887Y-64980000D01*
X31304799Y-64980000D01*
X35370238Y-60914561D01*
X37065000Y-60914561D01*
X37065000Y-61485439D01*
X37283466Y-62012862D01*
X37687138Y-62416534D01*
X38214561Y-62635000D01*
X38785439Y-62635000D01*
X39312862Y-62416534D01*
X39716534Y-62012862D01*
X39935000Y-61485439D01*
X39935000Y-60914561D01*
X41065000Y-60914561D01*
X41065000Y-61485439D01*
X41283466Y-62012862D01*
X41687138Y-62416534D01*
X42214561Y-62635000D01*
X42785439Y-62635000D01*
X43312862Y-62416534D01*
X43716534Y-62012862D01*
X43935000Y-61485439D01*
X43935000Y-60914561D01*
X45065000Y-60914561D01*
X45065000Y-61485439D01*
X45283466Y-62012862D01*
X45687138Y-62416534D01*
X46214561Y-62635000D01*
X46785439Y-62635000D01*
X47312862Y-62416534D01*
X47716534Y-62012862D01*
X47935000Y-61485439D01*
X47935000Y-60914561D01*
X49065000Y-60914561D01*
X49065000Y-61485439D01*
X49283466Y-62012862D01*
X49687138Y-62416534D01*
X50214561Y-62635000D01*
X50785439Y-62635000D01*
X51312862Y-62416534D01*
X51716534Y-62012862D01*
X51935000Y-61485439D01*
X51935000Y-60914561D01*
X53065000Y-60914561D01*
X53065000Y-61485439D01*
X53283466Y-62012862D01*
X53687138Y-62416534D01*
X54214561Y-62635000D01*
X54785439Y-62635000D01*
X55312862Y-62416534D01*
X55716534Y-62012862D01*
X55935000Y-61485439D01*
X55935000Y-60914561D01*
X57065000Y-60914561D01*
X57065000Y-61485439D01*
X57283466Y-62012862D01*
X57687138Y-62416534D01*
X58214561Y-62635000D01*
X58785439Y-62635000D01*
X59312862Y-62416534D01*
X59716534Y-62012862D01*
X59935000Y-61485439D01*
X59935000Y-60914561D01*
X61065000Y-60914561D01*
X61065000Y-61485439D01*
X61283466Y-62012862D01*
X61687138Y-62416534D01*
X62214561Y-62635000D01*
X62785439Y-62635000D01*
X63312862Y-62416534D01*
X63716534Y-62012862D01*
X63935000Y-61485439D01*
X63935000Y-60914561D01*
X65065000Y-60914561D01*
X65065000Y-61485439D01*
X65283466Y-62012862D01*
X65687138Y-62416534D01*
X66214561Y-62635000D01*
X66785439Y-62635000D01*
X67312862Y-62416534D01*
X67716534Y-62012862D01*
X67935000Y-61485439D01*
X67935000Y-60914561D01*
X67716534Y-60387138D01*
X67312862Y-59983466D01*
X66785439Y-59765000D01*
X66214561Y-59765000D01*
X65687138Y-59983466D01*
X65283466Y-60387138D01*
X65065000Y-60914561D01*
X63935000Y-60914561D01*
X63716534Y-60387138D01*
X63312862Y-59983466D01*
X62785439Y-59765000D01*
X62214561Y-59765000D01*
X61687138Y-59983466D01*
X61283466Y-60387138D01*
X61065000Y-60914561D01*
X59935000Y-60914561D01*
X59716534Y-60387138D01*
X59312862Y-59983466D01*
X58785439Y-59765000D01*
X58214561Y-59765000D01*
X57687138Y-59983466D01*
X57283466Y-60387138D01*
X57065000Y-60914561D01*
X55935000Y-60914561D01*
X55716534Y-60387138D01*
X55312862Y-59983466D01*
X54785439Y-59765000D01*
X54214561Y-59765000D01*
X53687138Y-59983466D01*
X53283466Y-60387138D01*
X53065000Y-60914561D01*
X51935000Y-60914561D01*
X51716534Y-60387138D01*
X51312862Y-59983466D01*
X50785439Y-59765000D01*
X50214561Y-59765000D01*
X49687138Y-59983466D01*
X49283466Y-60387138D01*
X49065000Y-60914561D01*
X47935000Y-60914561D01*
X47716534Y-60387138D01*
X47312862Y-59983466D01*
X46785439Y-59765000D01*
X46214561Y-59765000D01*
X45687138Y-59983466D01*
X45283466Y-60387138D01*
X45065000Y-60914561D01*
X43935000Y-60914561D01*
X43716534Y-60387138D01*
X43312862Y-59983466D01*
X42785439Y-59765000D01*
X42214561Y-59765000D01*
X41687138Y-59983466D01*
X41283466Y-60387138D01*
X41065000Y-60914561D01*
X39935000Y-60914561D01*
X39716534Y-60387138D01*
X39312862Y-59983466D01*
X38785439Y-59765000D01*
X38214561Y-59765000D01*
X37687138Y-59983466D01*
X37283466Y-60387138D01*
X37065000Y-60914561D01*
X35370238Y-60914561D01*
X37324799Y-58960000D01*
X80208276Y-58960000D01*
X80393380Y-59890580D01*
X80920511Y-60679489D01*
X81709420Y-61206620D01*
X82405103Y-61345000D01*
X82874897Y-61345000D01*
X83570580Y-61206620D01*
X84359489Y-60679489D01*
X84412601Y-60600000D01*
X97752560Y-60600000D01*
X97752560Y-62400000D01*
X97801843Y-62647765D01*
X97942191Y-62857809D01*
X98152235Y-62998157D01*
X98400000Y-63047440D01*
X100200000Y-63047440D01*
X100447765Y-62998157D01*
X100657809Y-62857809D01*
X100798157Y-62647765D01*
X100847440Y-62400000D01*
X100847440Y-60600000D01*
X100798157Y-60352235D01*
X100657809Y-60142191D01*
X100447765Y-60001843D01*
X100401502Y-59992641D01*
X100537966Y-59867576D01*
X100791046Y-59324742D01*
X100670997Y-59087000D01*
X99427000Y-59087000D01*
X99427000Y-59107000D01*
X99173000Y-59107000D01*
X99173000Y-59087000D01*
X97929003Y-59087000D01*
X97808954Y-59324742D01*
X98062034Y-59867576D01*
X98198498Y-59992641D01*
X98152235Y-60001843D01*
X97942191Y-60142191D01*
X97801843Y-60352235D01*
X97752560Y-60600000D01*
X84412601Y-60600000D01*
X84886620Y-59890580D01*
X85071724Y-58960000D01*
X84886620Y-58029420D01*
X84359489Y-57240511D01*
X83570580Y-56713380D01*
X82874897Y-56575000D01*
X82405103Y-56575000D01*
X81709420Y-56713380D01*
X80920511Y-57240511D01*
X80393380Y-58029420D01*
X80208276Y-58960000D01*
X37324799Y-58960000D01*
X41144801Y-55139999D01*
X41625154Y-55139999D01*
X41700001Y-55154887D01*
X41774848Y-55139999D01*
X41774853Y-55139999D01*
X41996538Y-55095903D01*
X42172915Y-54978052D01*
X42358667Y-55015000D01*
X42641333Y-55015000D01*
X43059909Y-54931740D01*
X43534577Y-54614577D01*
X43851740Y-54139909D01*
X43963113Y-53580000D01*
X43851740Y-53020091D01*
X43534577Y-52545423D01*
X43059909Y-52228260D01*
X42641333Y-52145000D01*
X42358667Y-52145000D01*
X42300000Y-52156670D01*
X42300000Y-50597102D01*
X42322241Y-50582241D01*
X42562047Y-50223346D01*
X42625000Y-49906861D01*
X42625000Y-49093140D01*
X42562047Y-48776655D01*
X42322241Y-48417759D01*
X41963346Y-48177953D01*
X41540000Y-48093744D01*
X41116655Y-48177953D01*
X40905001Y-48319376D01*
X40693346Y-48177953D01*
X40270000Y-48093744D01*
X39846655Y-48177953D01*
X39791748Y-48214641D01*
X39697765Y-48151843D01*
X39450000Y-48102560D01*
X38550000Y-48102560D01*
X38302235Y-48151843D01*
X38092191Y-48292191D01*
X37951843Y-48502235D01*
X37902560Y-48750000D01*
X37902560Y-50250000D01*
X37951843Y-50497765D01*
X38092191Y-50707809D01*
X38240000Y-50806573D01*
X38240001Y-52168604D01*
X37940091Y-52228260D01*
X37465423Y-52545423D01*
X37148260Y-53020091D01*
X37036887Y-53580000D01*
X37148260Y-54139909D01*
X37465423Y-54614577D01*
X37940091Y-54931740D01*
X38358667Y-55015000D01*
X38641333Y-55015000D01*
X39059909Y-54931740D01*
X39492512Y-54642684D01*
X28260000Y-65875197D01*
X28260000Y-46814801D01*
X28814802Y-46260000D01*
X45525199Y-46260000D01*
X47367758Y-48102560D01*
X46550000Y-48102560D01*
X46302235Y-48151843D01*
X46092191Y-48292191D01*
X45951843Y-48502235D01*
X45902560Y-48750000D01*
X45902560Y-50250000D01*
X45951843Y-50497765D01*
X46092191Y-50707809D01*
X46240000Y-50806573D01*
X46240001Y-52168604D01*
X45940091Y-52228260D01*
X45465423Y-52545423D01*
X45148260Y-53020091D01*
X45036887Y-53580000D01*
X45148260Y-54139909D01*
X45465423Y-54614577D01*
X45940091Y-54931740D01*
X46358667Y-55015000D01*
X46641333Y-55015000D01*
X47059909Y-54931740D01*
X47534577Y-54614577D01*
X47851740Y-54139909D01*
X47963113Y-53580000D01*
X47851740Y-53020091D01*
X47760000Y-52882792D01*
X47760000Y-50806573D01*
X47791747Y-50785360D01*
X47846654Y-50822047D01*
X48270000Y-50906256D01*
X48693345Y-50822047D01*
X48780000Y-50764146D01*
X48780001Y-52545148D01*
X48765112Y-52620000D01*
X48824097Y-52916537D01*
X48933320Y-53080000D01*
X48992072Y-53167929D01*
X49055528Y-53210329D01*
X49101312Y-53256113D01*
X49036887Y-53580000D01*
X49148260Y-54139909D01*
X49465423Y-54614577D01*
X49940091Y-54931740D01*
X50358667Y-55015000D01*
X50641333Y-55015000D01*
X51059909Y-54931740D01*
X51534577Y-54614577D01*
X51851740Y-54139909D01*
X51963113Y-53580000D01*
X53036887Y-53580000D01*
X53148260Y-54139909D01*
X53465423Y-54614577D01*
X53940091Y-54931740D01*
X54358667Y-55015000D01*
X54641333Y-55015000D01*
X55059909Y-54931740D01*
X55534577Y-54614577D01*
X55851740Y-54139909D01*
X55963113Y-53580000D01*
X55851740Y-53020091D01*
X55835000Y-52995038D01*
X55835000Y-50814260D01*
X55846654Y-50822047D01*
X56270000Y-50906256D01*
X56693345Y-50822047D01*
X56705000Y-50814259D01*
X56705001Y-52537762D01*
X56688643Y-52620000D01*
X56753448Y-52945800D01*
X56753449Y-52945801D01*
X56938000Y-53222001D01*
X57007718Y-53268585D01*
X57083715Y-53344582D01*
X57036887Y-53580000D01*
X57148260Y-54139909D01*
X57465423Y-54614577D01*
X57940091Y-54931740D01*
X58358667Y-55015000D01*
X58641333Y-55015000D01*
X59059909Y-54931740D01*
X59534577Y-54614577D01*
X59851740Y-54139909D01*
X59963113Y-53580000D01*
X59851740Y-53020091D01*
X59534577Y-52545423D01*
X59059909Y-52228260D01*
X58641333Y-52145000D01*
X58375000Y-52145000D01*
X58375000Y-50503282D01*
X58562047Y-50223346D01*
X58625000Y-49906861D01*
X58625000Y-49093140D01*
X58562047Y-48776655D01*
X58322241Y-48417759D01*
X57963346Y-48177953D01*
X57540000Y-48093744D01*
X57116655Y-48177953D01*
X56905001Y-48319376D01*
X56693346Y-48177953D01*
X56270000Y-48093744D01*
X55846655Y-48177953D01*
X55791748Y-48214641D01*
X55697765Y-48151843D01*
X55450000Y-48102560D01*
X54550000Y-48102560D01*
X54302235Y-48151843D01*
X54092191Y-48292191D01*
X53951843Y-48502235D01*
X53902560Y-48750000D01*
X53902560Y-50250000D01*
X53951843Y-50497765D01*
X54092191Y-50707809D01*
X54165000Y-50756459D01*
X54165001Y-52183523D01*
X53940091Y-52228260D01*
X53465423Y-52545423D01*
X53148260Y-53020091D01*
X53036887Y-53580000D01*
X51963113Y-53580000D01*
X51851740Y-53020091D01*
X51534577Y-52545423D01*
X51059909Y-52228260D01*
X50641333Y-52145000D01*
X50358667Y-52145000D01*
X50300000Y-52156670D01*
X50300000Y-50597102D01*
X50322241Y-50582241D01*
X50562047Y-50223346D01*
X50625000Y-49906861D01*
X50625000Y-49093140D01*
X50562047Y-48776655D01*
X50322241Y-48417759D01*
X49963346Y-48177953D01*
X49540000Y-48093744D01*
X49513764Y-48098963D01*
X46674801Y-45260000D01*
X60525199Y-45260000D01*
X63367758Y-48102560D01*
X62550000Y-48102560D01*
X62302235Y-48151843D01*
X62092191Y-48292191D01*
X61951843Y-48502235D01*
X61902560Y-48750000D01*
X61902560Y-50250000D01*
X61951843Y-50497765D01*
X62092191Y-50707809D01*
X62165000Y-50756459D01*
X62165001Y-52183523D01*
X61940091Y-52228260D01*
X61465423Y-52545423D01*
X61148260Y-53020091D01*
X61036887Y-53580000D01*
X61148260Y-54139909D01*
X61465423Y-54614577D01*
X61940091Y-54931740D01*
X62358667Y-55015000D01*
X62641333Y-55015000D01*
X63059909Y-54931740D01*
X63534577Y-54614577D01*
X63851740Y-54139909D01*
X63963113Y-53580000D01*
X63851740Y-53020091D01*
X63835000Y-52995038D01*
X63835000Y-50814260D01*
X63846654Y-50822047D01*
X64270000Y-50906256D01*
X64693345Y-50822047D01*
X64705000Y-50814259D01*
X64705001Y-52537762D01*
X64688643Y-52620000D01*
X64753448Y-52945800D01*
X64753449Y-52945801D01*
X64938000Y-53222001D01*
X65007718Y-53268585D01*
X65083715Y-53344582D01*
X65036887Y-53580000D01*
X65148260Y-54139909D01*
X65465423Y-54614577D01*
X65940091Y-54931740D01*
X66358667Y-55015000D01*
X66641333Y-55015000D01*
X67059909Y-54931740D01*
X67534577Y-54614577D01*
X67851740Y-54139909D01*
X67963113Y-53580000D01*
X67851740Y-53020091D01*
X67534577Y-52545423D01*
X67059909Y-52228260D01*
X66641333Y-52145000D01*
X66375000Y-52145000D01*
X66375000Y-50503282D01*
X66562047Y-50223346D01*
X66625000Y-49906861D01*
X66625000Y-49093140D01*
X66562047Y-48776655D01*
X66322241Y-48417759D01*
X65963346Y-48177953D01*
X65540000Y-48093744D01*
X65513764Y-48098963D01*
X61541801Y-44127000D01*
X101373000Y-44127000D01*
X101373000Y-50909289D01*
X101373000Y-50909289D01*
G37*
X101373000Y-50909289D02*
X97726209Y-47262499D01*
X97668465Y-47176079D01*
X97326109Y-46947324D01*
X97024207Y-46887272D01*
X97024206Y-46887272D01*
X96922272Y-46866996D01*
X96820338Y-46887272D01*
X70140202Y-46887272D01*
X70038268Y-46866996D01*
X69936334Y-46887272D01*
X69936333Y-46887272D01*
X69634431Y-46947324D01*
X69292075Y-47176079D01*
X69283152Y-47189433D01*
X69269801Y-47198354D01*
X69212059Y-47284771D01*
X69041045Y-47540711D01*
X68960717Y-47944547D01*
X68980994Y-48046486D01*
X68980994Y-48133905D01*
X68918228Y-48146390D01*
X68708184Y-48286738D01*
X68567836Y-48496782D01*
X68518553Y-48744547D01*
X68518553Y-50444547D01*
X68567836Y-50692312D01*
X68708184Y-50902356D01*
X68918228Y-51042704D01*
X69165993Y-51091987D01*
X70865993Y-51091987D01*
X71113758Y-51042704D01*
X71323802Y-50902356D01*
X71464150Y-50692312D01*
X71473177Y-50646928D01*
X71485368Y-50665172D01*
X71976575Y-50993386D01*
X72409737Y-51079547D01*
X72702249Y-51079547D01*
X73135411Y-50993386D01*
X73626618Y-50665172D01*
X73825993Y-50366786D01*
X74025368Y-50665172D01*
X74516575Y-50993386D01*
X74949737Y-51079547D01*
X75242249Y-51079547D01*
X75675411Y-50993386D01*
X76166618Y-50665172D01*
X76365993Y-50366786D01*
X76565368Y-50665172D01*
X77056575Y-50993386D01*
X77489737Y-51079547D01*
X77782249Y-51079547D01*
X78215411Y-50993386D01*
X78706618Y-50665172D01*
X78905993Y-50366786D01*
X79105368Y-50665172D01*
X79596575Y-50993386D01*
X80029737Y-51079547D01*
X80322249Y-51079547D01*
X80755411Y-50993386D01*
X81246618Y-50665172D01*
X81445993Y-50366786D01*
X81645368Y-50665172D01*
X82136575Y-50993386D01*
X82569737Y-51079547D01*
X82862249Y-51079547D01*
X83295411Y-50993386D01*
X83786618Y-50665172D01*
X83999836Y-50346069D01*
X84060810Y-50475905D01*
X84489069Y-50866192D01*
X84899103Y-51036023D01*
X85128993Y-50914702D01*
X85128993Y-49721547D01*
X85382993Y-49721547D01*
X85382993Y-50914702D01*
X85612883Y-51036023D01*
X86022917Y-50866192D01*
X86451176Y-50475905D01*
X86525993Y-50316593D01*
X86600810Y-50475905D01*
X87029069Y-50866192D01*
X87439103Y-51036023D01*
X87668993Y-50914702D01*
X87668993Y-49721547D01*
X85382993Y-49721547D01*
X85128993Y-49721547D01*
X85108993Y-49721547D01*
X85108993Y-49467547D01*
X85128993Y-49467547D01*
X85128993Y-49447547D01*
X85382993Y-49447547D01*
X85382993Y-49467547D01*
X87668993Y-49467547D01*
X87668993Y-49447547D01*
X87922993Y-49447547D01*
X87922993Y-49467547D01*
X87942993Y-49467547D01*
X87942993Y-49721547D01*
X87922993Y-49721547D01*
X87922993Y-50914702D01*
X88152883Y-51036023D01*
X88562917Y-50866192D01*
X88991176Y-50475905D01*
X89052150Y-50346069D01*
X89265368Y-50665172D01*
X89756575Y-50993386D01*
X90189737Y-51079547D01*
X90482249Y-51079547D01*
X90915411Y-50993386D01*
X91406618Y-50665172D01*
X91605993Y-50366786D01*
X91805368Y-50665172D01*
X92296575Y-50993386D01*
X92729737Y-51079547D01*
X93022249Y-51079547D01*
X93455411Y-50993386D01*
X93946618Y-50665172D01*
X94274832Y-50173965D01*
X94390085Y-49594547D01*
X94274832Y-49015129D01*
X94236173Y-48957272D01*
X96493562Y-48957272D01*
X99965001Y-52428712D01*
X99965000Y-54291289D01*
X99371290Y-54885000D01*
X99148818Y-54885000D01*
X98701073Y-54974062D01*
X98193327Y-55313327D01*
X97854062Y-55821073D01*
X97734928Y-56420000D01*
X97854062Y-57018927D01*
X98193327Y-57526673D01*
X98449174Y-57697624D01*
X98062034Y-58052424D01*
X97808954Y-58595258D01*
X97929003Y-58833000D01*
X99173000Y-58833000D01*
X99173000Y-58813000D01*
X99427000Y-58813000D01*
X99427000Y-58833000D01*
X100670997Y-58833000D01*
X100791046Y-58595258D01*
X100537966Y-58052424D01*
X100150826Y-57697624D01*
X100406673Y-57526673D01*
X100745938Y-57018927D01*
X100865072Y-56420000D01*
X100848255Y-56335455D01*
X101373000Y-55810711D01*
X101373000Y-110873000D01*
X72201801Y-110873000D01*
X73590329Y-109484474D01*
X73590333Y-109484469D01*
X74404022Y-108670781D01*
X74467475Y-108628383D01*
X74509873Y-108564930D01*
X74509875Y-108564928D01*
X74613614Y-108409671D01*
X74635450Y-108376991D01*
X74679546Y-108155306D01*
X74679546Y-108155302D01*
X74694434Y-108080455D01*
X74679546Y-108005608D01*
X74679546Y-106913938D01*
X74694434Y-106839091D01*
X74679546Y-106764244D01*
X74679546Y-106764240D01*
X74635450Y-106542555D01*
X74542884Y-106404020D01*
X74509875Y-106354618D01*
X74509873Y-106354616D01*
X74467475Y-106291163D01*
X74404021Y-106248765D01*
X73590331Y-105435075D01*
X73547929Y-105371617D01*
X73296537Y-105203642D01*
X73074852Y-105159546D01*
X73074847Y-105159546D01*
X73000000Y-105144658D01*
X72925153Y-105159546D01*
X70785840Y-105159546D01*
X70710993Y-105144658D01*
X70636146Y-105159546D01*
X70636142Y-105159546D01*
X70414457Y-105203642D01*
X70414455Y-105203643D01*
X70414456Y-105203643D01*
X70226520Y-105329217D01*
X70226518Y-105329219D01*
X70163065Y-105371617D01*
X70120667Y-105435070D01*
X69902400Y-105653338D01*
X69682249Y-105609547D01*
X69389737Y-105609547D01*
X68956575Y-105695708D01*
X68465368Y-106023922D01*
X68265993Y-106322308D01*
X68066618Y-106023922D01*
X67575411Y-105695708D01*
X67142249Y-105609547D01*
X66849737Y-105609547D01*
X66416575Y-105695708D01*
X65925368Y-106023922D01*
X65725993Y-106322308D01*
X65526618Y-106023922D01*
X65035411Y-105695708D01*
X64602249Y-105609547D01*
X64309737Y-105609547D01*
X63876575Y-105695708D01*
X63385368Y-106023922D01*
X63185993Y-106322308D01*
X62986618Y-106023922D01*
X62495411Y-105695708D01*
X62062249Y-105609547D01*
X61769737Y-105609547D01*
X61336575Y-105695708D01*
X60845368Y-106023922D01*
X60645993Y-106322308D01*
X60446618Y-106023922D01*
X59955411Y-105695708D01*
X59522249Y-105609547D01*
X59229737Y-105609547D01*
X58796575Y-105695708D01*
X58305368Y-106023922D01*
X58105993Y-106322308D01*
X57906618Y-106023922D01*
X57415411Y-105695708D01*
X56982249Y-105609547D01*
X56689737Y-105609547D01*
X56256575Y-105695708D01*
X55765368Y-106023922D01*
X55565993Y-106322308D01*
X55366618Y-106023922D01*
X54875411Y-105695708D01*
X54442249Y-105609547D01*
X54149737Y-105609547D01*
X53716575Y-105695708D01*
X53225368Y-106023922D01*
X53025993Y-106322308D01*
X52826618Y-106023922D01*
X52335411Y-105695708D01*
X51902249Y-105609547D01*
X51609737Y-105609547D01*
X51176575Y-105695708D01*
X50685368Y-106023922D01*
X50485993Y-106322308D01*
X50286618Y-106023922D01*
X49795411Y-105695708D01*
X49362249Y-105609547D01*
X49069737Y-105609547D01*
X48636575Y-105695708D01*
X48145368Y-106023922D01*
X47945993Y-106322308D01*
X47746618Y-106023922D01*
X47255411Y-105695708D01*
X46822249Y-105609547D01*
X46529737Y-105609547D01*
X46096575Y-105695708D01*
X45605368Y-106023922D01*
X45405993Y-106322308D01*
X45206618Y-106023922D01*
X44715411Y-105695708D01*
X44282249Y-105609547D01*
X43989737Y-105609547D01*
X43556575Y-105695708D01*
X43065368Y-106023922D01*
X42865993Y-106322308D01*
X42666618Y-106023922D01*
X42175411Y-105695708D01*
X41742249Y-105609547D01*
X41449737Y-105609547D01*
X41016575Y-105695708D01*
X40525368Y-106023922D01*
X40325993Y-106322308D01*
X40126618Y-106023922D01*
X39635411Y-105695708D01*
X39202249Y-105609547D01*
X38909737Y-105609547D01*
X38476575Y-105695708D01*
X37985368Y-106023922D01*
X37973177Y-106042166D01*
X37964150Y-105996782D01*
X37823802Y-105786738D01*
X37613758Y-105646390D01*
X37365993Y-105597107D01*
X35665993Y-105597107D01*
X35418228Y-105646390D01*
X35208184Y-105786738D01*
X35067836Y-105996782D01*
X35018553Y-106244547D01*
X35018553Y-107944547D01*
X35067836Y-108192312D01*
X35208184Y-108402356D01*
X35418228Y-108542704D01*
X35665993Y-108591987D01*
X37365993Y-108591987D01*
X37613758Y-108542704D01*
X37823802Y-108402356D01*
X37964150Y-108192312D01*
X37973177Y-108146928D01*
X37985368Y-108165172D01*
X38476575Y-108493386D01*
X38909737Y-108579547D01*
X39202249Y-108579547D01*
X39635411Y-108493386D01*
X40126618Y-108165172D01*
X40325993Y-107866786D01*
X40525368Y-108165172D01*
X41016575Y-108493386D01*
X41449737Y-108579547D01*
X41742249Y-108579547D01*
X42175411Y-108493386D01*
X42666618Y-108165172D01*
X42865993Y-107866786D01*
X43065368Y-108165172D01*
X43556575Y-108493386D01*
X43989737Y-108579547D01*
X44282249Y-108579547D01*
X44715411Y-108493386D01*
X45206618Y-108165172D01*
X45405993Y-107866786D01*
X45605368Y-108165172D01*
X46096575Y-108493386D01*
X46529737Y-108579547D01*
X46822249Y-108579547D01*
X47255411Y-108493386D01*
X47746618Y-108165172D01*
X47945993Y-107866786D01*
X48145368Y-108165172D01*
X48636575Y-108493386D01*
X49069737Y-108579547D01*
X49362249Y-108579547D01*
X49795411Y-108493386D01*
X50286618Y-108165172D01*
X50485993Y-107866786D01*
X50685368Y-108165172D01*
X51176575Y-108493386D01*
X51609737Y-108579547D01*
X51902249Y-108579547D01*
X52335411Y-108493386D01*
X52826618Y-108165172D01*
X53025993Y-107866786D01*
X53225368Y-108165172D01*
X53716575Y-108493386D01*
X54149737Y-108579547D01*
X54442249Y-108579547D01*
X54875411Y-108493386D01*
X55366618Y-108165172D01*
X55565993Y-107866786D01*
X55765368Y-108165172D01*
X56256575Y-108493386D01*
X56689737Y-108579547D01*
X56982249Y-108579547D01*
X57415411Y-108493386D01*
X57906618Y-108165172D01*
X58105993Y-107866786D01*
X58305368Y-108165172D01*
X58796575Y-108493386D01*
X59229737Y-108579547D01*
X59522249Y-108579547D01*
X59955411Y-108493386D01*
X60446618Y-108165172D01*
X60645993Y-107866786D01*
X60845368Y-108165172D01*
X61336575Y-108493386D01*
X61769737Y-108579547D01*
X62062249Y-108579547D01*
X62495411Y-108493386D01*
X62986618Y-108165172D01*
X63185993Y-107866786D01*
X63385368Y-108165172D01*
X63876575Y-108493386D01*
X64309737Y-108579547D01*
X64602249Y-108579547D01*
X65035411Y-108493386D01*
X65526618Y-108165172D01*
X65725993Y-107866786D01*
X65925368Y-108165172D01*
X66416575Y-108493386D01*
X66849737Y-108579547D01*
X67142249Y-108579547D01*
X67575411Y-108493386D01*
X68066618Y-108165172D01*
X68265993Y-107866786D01*
X68465368Y-108165172D01*
X68577356Y-108240000D01*
X68574848Y-108240000D01*
X68500000Y-108225112D01*
X68425152Y-108240000D01*
X68425148Y-108240000D01*
X68251605Y-108274520D01*
X68203462Y-108284096D01*
X68026475Y-108402356D01*
X67952071Y-108452071D01*
X67909671Y-108515528D01*
X67685199Y-108740000D01*
X28678391Y-108740000D01*
X27809989Y-107871599D01*
X27809989Y-107507745D01*
X28696861Y-107507745D01*
X28770995Y-107753864D01*
X29308223Y-107946965D01*
X29878454Y-107919778D01*
X30279005Y-107753864D01*
X30353139Y-107507745D01*
X29525000Y-106679605D01*
X28696861Y-107507745D01*
X27809989Y-107507745D01*
X27809989Y-106283223D01*
X28078035Y-106283223D01*
X28105222Y-106853454D01*
X28271136Y-107254005D01*
X28517255Y-107328139D01*
X29345395Y-106500000D01*
X29704605Y-106500000D01*
X30532745Y-107328139D01*
X30778864Y-107254005D01*
X30971965Y-106716777D01*
X30944778Y-106146546D01*
X30778864Y-105745995D01*
X30532745Y-105671861D01*
X29704605Y-106500000D01*
X29345395Y-106500000D01*
X28517255Y-105671861D01*
X28271136Y-105745995D01*
X28078035Y-106283223D01*
X27809989Y-106283223D01*
X27809989Y-103200000D01*
X28077560Y-103200000D01*
X28077560Y-104800000D01*
X28126843Y-105047765D01*
X28267191Y-105257809D01*
X28477235Y-105398157D01*
X28711187Y-105444693D01*
X28696861Y-105492255D01*
X29525000Y-106320395D01*
X30353139Y-105492255D01*
X30338813Y-105444693D01*
X30572765Y-105398157D01*
X30782809Y-105257809D01*
X30923157Y-105047765D01*
X30932657Y-105000000D01*
X86325908Y-105000000D01*
X86441161Y-105579418D01*
X86769375Y-106070625D01*
X87067761Y-106270000D01*
X86769375Y-106469375D01*
X86441161Y-106960582D01*
X86325908Y-107540000D01*
X86441161Y-108119418D01*
X86769375Y-108610625D01*
X87260582Y-108938839D01*
X87693744Y-109025000D01*
X87986256Y-109025000D01*
X88419418Y-108938839D01*
X88910625Y-108610625D01*
X89123843Y-108291522D01*
X89184817Y-108421358D01*
X89613076Y-108811645D01*
X90023110Y-108981476D01*
X90253000Y-108860155D01*
X90253000Y-107667000D01*
X90507000Y-107667000D01*
X90507000Y-108860155D01*
X90736890Y-108981476D01*
X91146924Y-108811645D01*
X91575183Y-108421358D01*
X91650000Y-108262046D01*
X91724817Y-108421358D01*
X92153076Y-108811645D01*
X92563110Y-108981476D01*
X92793000Y-108860155D01*
X92793000Y-107667000D01*
X93047000Y-107667000D01*
X93047000Y-108860155D01*
X93276890Y-108981476D01*
X93686924Y-108811645D01*
X94115183Y-108421358D01*
X94190000Y-108262046D01*
X94264817Y-108421358D01*
X94693076Y-108811645D01*
X95103110Y-108981476D01*
X95333000Y-108860155D01*
X95333000Y-107667000D01*
X93047000Y-107667000D01*
X92793000Y-107667000D01*
X90507000Y-107667000D01*
X90253000Y-107667000D01*
X90233000Y-107667000D01*
X90233000Y-107413000D01*
X90253000Y-107413000D01*
X90253000Y-105127000D01*
X90507000Y-105127000D01*
X90507000Y-107413000D01*
X92793000Y-107413000D01*
X92793000Y-105127000D01*
X93047000Y-105127000D01*
X93047000Y-107413000D01*
X95333000Y-107413000D01*
X95333000Y-105127000D01*
X93047000Y-105127000D01*
X92793000Y-105127000D01*
X90507000Y-105127000D01*
X90253000Y-105127000D01*
X90233000Y-105127000D01*
X90233000Y-104873000D01*
X90253000Y-104873000D01*
X90253000Y-103679845D01*
X90507000Y-103679845D01*
X90507000Y-104873000D01*
X92793000Y-104873000D01*
X92793000Y-103679845D01*
X93047000Y-103679845D01*
X93047000Y-104873000D01*
X95333000Y-104873000D01*
X95333000Y-103679845D01*
X95587000Y-103679845D01*
X95587000Y-104873000D01*
X95607000Y-104873000D01*
X95607000Y-105127000D01*
X95587000Y-105127000D01*
X95587000Y-107413000D01*
X95607000Y-107413000D01*
X95607000Y-107667000D01*
X95587000Y-107667000D01*
X95587000Y-108860155D01*
X95816890Y-108981476D01*
X96226924Y-108811645D01*
X96655183Y-108421358D01*
X96716157Y-108291522D01*
X96929375Y-108610625D01*
X97420582Y-108938839D01*
X97853744Y-109025000D01*
X98146256Y-109025000D01*
X98579418Y-108938839D01*
X99070625Y-108610625D01*
X99398839Y-108119418D01*
X99514092Y-107540000D01*
X99398839Y-106960582D01*
X99070625Y-106469375D01*
X99052381Y-106457184D01*
X99097765Y-106448157D01*
X99307809Y-106307809D01*
X99448157Y-106097765D01*
X99497440Y-105850000D01*
X99497440Y-104150000D01*
X99448157Y-103902235D01*
X99307809Y-103692191D01*
X99097765Y-103551843D01*
X98850000Y-103502560D01*
X97150000Y-103502560D01*
X96902235Y-103551843D01*
X96692191Y-103692191D01*
X96551843Y-103902235D01*
X96531261Y-104005708D01*
X96226924Y-103728355D01*
X95816890Y-103558524D01*
X95587000Y-103679845D01*
X95333000Y-103679845D01*
X95103110Y-103558524D01*
X94693076Y-103728355D01*
X94264817Y-104118642D01*
X94190000Y-104277954D01*
X94115183Y-104118642D01*
X93686924Y-103728355D01*
X93276890Y-103558524D01*
X93047000Y-103679845D01*
X92793000Y-103679845D01*
X92563110Y-103558524D01*
X92153076Y-103728355D01*
X91724817Y-104118642D01*
X91650000Y-104277954D01*
X91575183Y-104118642D01*
X91146924Y-103728355D01*
X90736890Y-103558524D01*
X90507000Y-103679845D01*
X90253000Y-103679845D01*
X90023110Y-103558524D01*
X89613076Y-103728355D01*
X89184817Y-104118642D01*
X89123843Y-104248478D01*
X88910625Y-103929375D01*
X88419418Y-103601161D01*
X87986256Y-103515000D01*
X87693744Y-103515000D01*
X87260582Y-103601161D01*
X86769375Y-103929375D01*
X86441161Y-104420582D01*
X86325908Y-105000000D01*
X30932657Y-105000000D01*
X30972440Y-104800000D01*
X30972440Y-103200000D01*
X30923157Y-102952235D01*
X30782809Y-102742191D01*
X30572765Y-102601843D01*
X30325000Y-102552560D01*
X28725000Y-102552560D01*
X28477235Y-102601843D01*
X28267191Y-102742191D01*
X28126843Y-102952235D01*
X28077560Y-103200000D01*
X27809989Y-103200000D01*
X27809989Y-100314561D01*
X37165000Y-100314561D01*
X37165000Y-100885439D01*
X37383466Y-101412862D01*
X37787138Y-101816534D01*
X38314561Y-102035000D01*
X38885439Y-102035000D01*
X39412862Y-101816534D01*
X39816534Y-101412862D01*
X40035000Y-100885439D01*
X40035000Y-100314561D01*
X42222142Y-100314561D01*
X42222142Y-100885439D01*
X42440608Y-101412862D01*
X42844280Y-101816534D01*
X43371703Y-102035000D01*
X43942581Y-102035000D01*
X44470004Y-101816534D01*
X44873676Y-101412862D01*
X45092142Y-100885439D01*
X45092142Y-100314561D01*
X47279284Y-100314561D01*
X47279284Y-100885439D01*
X47497750Y-101412862D01*
X47901422Y-101816534D01*
X48428845Y-102035000D01*
X48999723Y-102035000D01*
X49527146Y-101816534D01*
X49930818Y-101412862D01*
X50149284Y-100885439D01*
X50149284Y-100314561D01*
X52336426Y-100314561D01*
X52336426Y-100885439D01*
X52554892Y-101412862D01*
X52958564Y-101816534D01*
X53485987Y-102035000D01*
X54056865Y-102035000D01*
X54584288Y-101816534D01*
X54987960Y-101412862D01*
X55192507Y-100919041D01*
X57436654Y-100919041D01*
X57676179Y-101425134D01*
X58091145Y-101801041D01*
X58479529Y-101961904D01*
X58701568Y-101839915D01*
X58701568Y-100697000D01*
X58955568Y-100697000D01*
X58955568Y-101839915D01*
X59177607Y-101961904D01*
X59565991Y-101801041D01*
X59980957Y-101425134D01*
X60220482Y-100919041D01*
X62493796Y-100919041D01*
X62733321Y-101425134D01*
X63148287Y-101801041D01*
X63536671Y-101961904D01*
X63758710Y-101839915D01*
X63758710Y-100697000D01*
X64012710Y-100697000D01*
X64012710Y-101839915D01*
X64234749Y-101961904D01*
X64623133Y-101801041D01*
X65038099Y-101425134D01*
X65277624Y-100919041D01*
X65156339Y-100697000D01*
X64012710Y-100697000D01*
X63758710Y-100697000D01*
X62615081Y-100697000D01*
X62493796Y-100919041D01*
X60220482Y-100919041D01*
X60099197Y-100697000D01*
X58955568Y-100697000D01*
X58701568Y-100697000D01*
X57557939Y-100697000D01*
X57436654Y-100919041D01*
X55192507Y-100919041D01*
X55206426Y-100885439D01*
X55206426Y-100314561D01*
X55167655Y-100220959D01*
X57436654Y-100220959D01*
X57557939Y-100443000D01*
X58701568Y-100443000D01*
X58701568Y-99300085D01*
X58955568Y-99300085D01*
X58955568Y-100443000D01*
X60099197Y-100443000D01*
X60220482Y-100220959D01*
X62493796Y-100220959D01*
X62615081Y-100443000D01*
X63758710Y-100443000D01*
X63758710Y-99300085D01*
X64012710Y-99300085D01*
X64012710Y-100443000D01*
X65156339Y-100443000D01*
X65226495Y-100314561D01*
X67507852Y-100314561D01*
X67507852Y-100885439D01*
X67726318Y-101412862D01*
X68129990Y-101816534D01*
X68657413Y-102035000D01*
X69228291Y-102035000D01*
X69755714Y-101816534D01*
X70159386Y-101412862D01*
X70377852Y-100885439D01*
X70377852Y-100314561D01*
X72565000Y-100314561D01*
X72565000Y-100885439D01*
X72783466Y-101412862D01*
X73187138Y-101816534D01*
X73714561Y-102035000D01*
X74285439Y-102035000D01*
X74812862Y-101816534D01*
X75216534Y-101412862D01*
X75435000Y-100885439D01*
X75435000Y-100570000D01*
X81536887Y-100570000D01*
X81648260Y-101129909D01*
X81965423Y-101604577D01*
X82440091Y-101921740D01*
X82858667Y-102005000D01*
X83141333Y-102005000D01*
X83559909Y-101921740D01*
X84034577Y-101604577D01*
X84351740Y-101129909D01*
X84463113Y-100570000D01*
X86536887Y-100570000D01*
X86648260Y-101129909D01*
X86965423Y-101604577D01*
X87440091Y-101921740D01*
X87858667Y-102005000D01*
X88141333Y-102005000D01*
X88559909Y-101921740D01*
X89034577Y-101604577D01*
X89351740Y-101129909D01*
X89463113Y-100570000D01*
X89412303Y-100314561D01*
X91565000Y-100314561D01*
X91565000Y-100885439D01*
X91783466Y-101412862D01*
X92187138Y-101816534D01*
X92714561Y-102035000D01*
X93285439Y-102035000D01*
X93812862Y-101816534D01*
X94216534Y-101412862D01*
X94435000Y-100885439D01*
X94435000Y-100314561D01*
X94370979Y-100160000D01*
X96129051Y-100160000D01*
X96271469Y-100875981D01*
X96677039Y-101482961D01*
X97284019Y-101888531D01*
X97819273Y-101995000D01*
X98180727Y-101995000D01*
X98715981Y-101888531D01*
X99322961Y-101482961D01*
X99728531Y-100875981D01*
X99870949Y-100160000D01*
X99728531Y-99444019D01*
X99322961Y-98837039D01*
X98715981Y-98431469D01*
X98180727Y-98325000D01*
X97819273Y-98325000D01*
X97284019Y-98431469D01*
X96677039Y-98837039D01*
X96271469Y-99444019D01*
X96129051Y-100160000D01*
X94370979Y-100160000D01*
X94216534Y-99787138D01*
X93812862Y-99383466D01*
X93285439Y-99165000D01*
X92714561Y-99165000D01*
X92187138Y-99383466D01*
X91783466Y-99787138D01*
X91565000Y-100314561D01*
X89412303Y-100314561D01*
X89351740Y-100010091D01*
X89034577Y-99535423D01*
X88559909Y-99218260D01*
X88141333Y-99135000D01*
X87858667Y-99135000D01*
X87440091Y-99218260D01*
X86965423Y-99535423D01*
X86648260Y-100010091D01*
X86536887Y-100570000D01*
X84463113Y-100570000D01*
X84351740Y-100010091D01*
X84034577Y-99535423D01*
X83559909Y-99218260D01*
X83141333Y-99135000D01*
X82858667Y-99135000D01*
X82440091Y-99218260D01*
X81965423Y-99535423D01*
X81648260Y-100010091D01*
X81536887Y-100570000D01*
X75435000Y-100570000D01*
X75435000Y-100314561D01*
X75216534Y-99787138D01*
X74812862Y-99383466D01*
X74285439Y-99165000D01*
X73714561Y-99165000D01*
X73187138Y-99383466D01*
X72783466Y-99787138D01*
X72565000Y-100314561D01*
X70377852Y-100314561D01*
X70159386Y-99787138D01*
X69755714Y-99383466D01*
X69228291Y-99165000D01*
X68657413Y-99165000D01*
X68129990Y-99383466D01*
X67726318Y-99787138D01*
X67507852Y-100314561D01*
X65226495Y-100314561D01*
X65277624Y-100220959D01*
X65038099Y-99714866D01*
X64623133Y-99338959D01*
X64234749Y-99178096D01*
X64012710Y-99300085D01*
X63758710Y-99300085D01*
X63536671Y-99178096D01*
X63148287Y-99338959D01*
X62733321Y-99714866D01*
X62493796Y-100220959D01*
X60220482Y-100220959D01*
X59980957Y-99714866D01*
X59565991Y-99338959D01*
X59177607Y-99178096D01*
X58955568Y-99300085D01*
X58701568Y-99300085D01*
X58479529Y-99178096D01*
X58091145Y-99338959D01*
X57676179Y-99714866D01*
X57436654Y-100220959D01*
X55167655Y-100220959D01*
X54987960Y-99787138D01*
X54584288Y-99383466D01*
X54056865Y-99165000D01*
X53485987Y-99165000D01*
X52958564Y-99383466D01*
X52554892Y-99787138D01*
X52336426Y-100314561D01*
X50149284Y-100314561D01*
X49930818Y-99787138D01*
X49527146Y-99383466D01*
X48999723Y-99165000D01*
X48428845Y-99165000D01*
X47901422Y-99383466D01*
X47497750Y-99787138D01*
X47279284Y-100314561D01*
X45092142Y-100314561D01*
X44873676Y-99787138D01*
X44470004Y-99383466D01*
X43942581Y-99165000D01*
X43371703Y-99165000D01*
X42844280Y-99383466D01*
X42440608Y-99787138D01*
X42222142Y-100314561D01*
X40035000Y-100314561D01*
X39816534Y-99787138D01*
X39412862Y-99383466D01*
X38885439Y-99165000D01*
X38314561Y-99165000D01*
X37787138Y-99383466D01*
X37383466Y-99787138D01*
X37165000Y-100314561D01*
X27809989Y-100314561D01*
X27809989Y-98631053D01*
X27940903Y-98435127D01*
X27984999Y-98213442D01*
X27984999Y-98213438D01*
X27999887Y-98138590D01*
X27984999Y-98063742D01*
X27984999Y-96397440D01*
X28450000Y-96397440D01*
X28697765Y-96348157D01*
X28818548Y-96267452D01*
X28975999Y-96344408D01*
X29143000Y-96217502D01*
X29143000Y-95127000D01*
X29123000Y-95127000D01*
X29123000Y-94873000D01*
X29143000Y-94873000D01*
X29143000Y-93782498D01*
X29397000Y-93782498D01*
X29397000Y-94873000D01*
X29417000Y-94873000D01*
X29417000Y-95127000D01*
X29397000Y-95127000D01*
X29397000Y-96217502D01*
X29564001Y-96344408D01*
X29902507Y-96178959D01*
X30116654Y-96322047D01*
X30540000Y-96406256D01*
X30963345Y-96322047D01*
X31322241Y-96082241D01*
X31562047Y-95723346D01*
X31625000Y-95406861D01*
X31625000Y-94593140D01*
X31562047Y-94276655D01*
X31322241Y-93917759D01*
X30963346Y-93677953D01*
X30540000Y-93593744D01*
X30116655Y-93677953D01*
X29902508Y-93821042D01*
X29564001Y-93655592D01*
X29397000Y-93782498D01*
X29143000Y-93782498D01*
X28975999Y-93655592D01*
X28818548Y-93732548D01*
X28697765Y-93651843D01*
X28450000Y-93602560D01*
X27984999Y-93602560D01*
X27984999Y-93260000D01*
X32588155Y-93260000D01*
X32663002Y-93274888D01*
X32737849Y-93260000D01*
X32737854Y-93260000D01*
X32959539Y-93215904D01*
X33210931Y-93047929D01*
X33253333Y-92984470D01*
X33257803Y-92980000D01*
X37136887Y-92980000D01*
X37248260Y-93539909D01*
X37565423Y-94014577D01*
X38040091Y-94331740D01*
X38458667Y-94415000D01*
X38741333Y-94415000D01*
X39159909Y-94331740D01*
X39634577Y-94014577D01*
X39951740Y-93539909D01*
X40063113Y-92980000D01*
X42194029Y-92980000D01*
X42305402Y-93539909D01*
X42622565Y-94014577D01*
X43097233Y-94331740D01*
X43515809Y-94415000D01*
X43798475Y-94415000D01*
X44217051Y-94331740D01*
X44691719Y-94014577D01*
X45008882Y-93539909D01*
X45120255Y-92980000D01*
X47251171Y-92980000D01*
X47362544Y-93539909D01*
X47679707Y-94014577D01*
X48154375Y-94331740D01*
X48572951Y-94415000D01*
X48855617Y-94415000D01*
X49274193Y-94331740D01*
X49748861Y-94014577D01*
X50066024Y-93539909D01*
X50177397Y-92980000D01*
X52308313Y-92980000D01*
X52419686Y-93539909D01*
X52736849Y-94014577D01*
X53211517Y-94331740D01*
X53630093Y-94415000D01*
X53912759Y-94415000D01*
X54331335Y-94331740D01*
X54806003Y-94014577D01*
X55123166Y-93539909D01*
X55234539Y-92980000D01*
X55171795Y-92664561D01*
X57393568Y-92664561D01*
X57393568Y-93235439D01*
X57612034Y-93762862D01*
X58015706Y-94166534D01*
X58543129Y-94385000D01*
X59114007Y-94385000D01*
X59641430Y-94166534D01*
X60045102Y-93762862D01*
X60263568Y-93235439D01*
X60263568Y-92664561D01*
X62450710Y-92664561D01*
X62450710Y-93235439D01*
X62669176Y-93762862D01*
X63072848Y-94166534D01*
X63600271Y-94385000D01*
X64171149Y-94385000D01*
X64698572Y-94166534D01*
X65102244Y-93762862D01*
X65320710Y-93235439D01*
X65320710Y-92664561D01*
X65102244Y-92137138D01*
X64698572Y-91733466D01*
X64171149Y-91515000D01*
X63600271Y-91515000D01*
X63072848Y-91733466D01*
X62669176Y-92137138D01*
X62450710Y-92664561D01*
X60263568Y-92664561D01*
X60045102Y-92137138D01*
X59641430Y-91733466D01*
X59114007Y-91515000D01*
X58543129Y-91515000D01*
X58015706Y-91733466D01*
X57612034Y-92137138D01*
X57393568Y-92664561D01*
X55171795Y-92664561D01*
X55123166Y-92420091D01*
X54806003Y-91945423D01*
X54331335Y-91628260D01*
X53912759Y-91545000D01*
X53630093Y-91545000D01*
X53211517Y-91628260D01*
X52736849Y-91945423D01*
X52419686Y-92420091D01*
X52308313Y-92980000D01*
X50177397Y-92980000D01*
X50066024Y-92420091D01*
X49748861Y-91945423D01*
X49274193Y-91628260D01*
X48855617Y-91545000D01*
X48572951Y-91545000D01*
X48154375Y-91628260D01*
X47679707Y-91945423D01*
X47362544Y-92420091D01*
X47251171Y-92980000D01*
X45120255Y-92980000D01*
X45008882Y-92420091D01*
X44691719Y-91945423D01*
X44217051Y-91628260D01*
X43798475Y-91545000D01*
X43515809Y-91545000D01*
X43097233Y-91628260D01*
X42622565Y-91945423D01*
X42305402Y-92420091D01*
X42194029Y-92980000D01*
X40063113Y-92980000D01*
X39951740Y-92420091D01*
X39634577Y-91945423D01*
X39159909Y-91628260D01*
X38741333Y-91545000D01*
X38458667Y-91545000D01*
X38040091Y-91628260D01*
X37565423Y-91945423D01*
X37248260Y-92420091D01*
X37136887Y-92980000D01*
X33257803Y-92980000D01*
X36709477Y-89528328D01*
X36720936Y-89520671D01*
X36745995Y-89603864D01*
X37283223Y-89796965D01*
X37853454Y-89769778D01*
X38254005Y-89603864D01*
X38328139Y-89357745D01*
X37500000Y-88529605D01*
X37485858Y-88543748D01*
X37306253Y-88364143D01*
X37320395Y-88350000D01*
X37679605Y-88350000D01*
X38507745Y-89178139D01*
X38753864Y-89104005D01*
X38946965Y-88566777D01*
X38923021Y-88064561D01*
X41415000Y-88064561D01*
X41415000Y-88635439D01*
X41633466Y-89162862D01*
X42037138Y-89566534D01*
X42564561Y-89785000D01*
X43135439Y-89785000D01*
X43662862Y-89566534D01*
X43871651Y-89357745D01*
X44521861Y-89357745D01*
X44595995Y-89603864D01*
X45133223Y-89796965D01*
X45703454Y-89769778D01*
X46104005Y-89603864D01*
X46178139Y-89357745D01*
X49871861Y-89357745D01*
X49945995Y-89603864D01*
X50483223Y-89796965D01*
X51053454Y-89769778D01*
X51454005Y-89603864D01*
X51528139Y-89357745D01*
X50700000Y-88529605D01*
X49871861Y-89357745D01*
X46178139Y-89357745D01*
X45350000Y-88529605D01*
X44521861Y-89357745D01*
X43871651Y-89357745D01*
X44066534Y-89162862D01*
X44093525Y-89097701D01*
X44096136Y-89104005D01*
X44342255Y-89178139D01*
X45170395Y-88350000D01*
X45529605Y-88350000D01*
X46357745Y-89178139D01*
X46603864Y-89104005D01*
X46796965Y-88566777D01*
X46776295Y-88133223D01*
X49253035Y-88133223D01*
X49280222Y-88703454D01*
X49446136Y-89104005D01*
X49692255Y-89178139D01*
X50520395Y-88350000D01*
X49692255Y-87521861D01*
X49446136Y-87595995D01*
X49253035Y-88133223D01*
X46776295Y-88133223D01*
X46769778Y-87996546D01*
X46603864Y-87595995D01*
X46357745Y-87521861D01*
X45529605Y-88350000D01*
X45170395Y-88350000D01*
X44342255Y-87521861D01*
X44096136Y-87595995D01*
X44093710Y-87602746D01*
X44066534Y-87537138D01*
X43871651Y-87342255D01*
X44521861Y-87342255D01*
X45350000Y-88170395D01*
X46178139Y-87342255D01*
X49871861Y-87342255D01*
X50700000Y-88170395D01*
X51528139Y-87342255D01*
X51454005Y-87096136D01*
X50916777Y-86903035D01*
X50346546Y-86930222D01*
X49945995Y-87096136D01*
X49871861Y-87342255D01*
X46178139Y-87342255D01*
X46104005Y-87096136D01*
X45566777Y-86903035D01*
X44996546Y-86930222D01*
X44595995Y-87096136D01*
X44521861Y-87342255D01*
X43871651Y-87342255D01*
X43662862Y-87133466D01*
X43135439Y-86915000D01*
X42564561Y-86915000D01*
X42037138Y-87133466D01*
X41633466Y-87537138D01*
X41415000Y-88064561D01*
X38923021Y-88064561D01*
X38919778Y-87996546D01*
X38753864Y-87595995D01*
X38507745Y-87521861D01*
X37679605Y-88350000D01*
X37320395Y-88350000D01*
X37306253Y-88335858D01*
X37485858Y-88156252D01*
X37500000Y-88170395D01*
X38328139Y-87342255D01*
X38254005Y-87096136D01*
X37716777Y-86903035D01*
X37146546Y-86930222D01*
X36745995Y-87096136D01*
X36720936Y-87179329D01*
X36709477Y-87171672D01*
X35514582Y-85976778D01*
X35539909Y-85971740D01*
X36014577Y-85654577D01*
X36250000Y-85302242D01*
X36485423Y-85654577D01*
X36960091Y-85971740D01*
X37378667Y-86055000D01*
X37661333Y-86055000D01*
X38079909Y-85971740D01*
X38554577Y-85654577D01*
X38790000Y-85302242D01*
X39025423Y-85654577D01*
X39500091Y-85971740D01*
X39918667Y-86055000D01*
X40201333Y-86055000D01*
X40619909Y-85971740D01*
X41094577Y-85654577D01*
X41330000Y-85302242D01*
X41565423Y-85654577D01*
X42040091Y-85971740D01*
X42458667Y-86055000D01*
X42741333Y-86055000D01*
X43159909Y-85971740D01*
X43634577Y-85654577D01*
X43870000Y-85302242D01*
X44105423Y-85654577D01*
X44580091Y-85971740D01*
X44998667Y-86055000D01*
X45281333Y-86055000D01*
X45699909Y-85971740D01*
X46174577Y-85654577D01*
X46410000Y-85302242D01*
X46645423Y-85654577D01*
X47120091Y-85971740D01*
X47538667Y-86055000D01*
X47821333Y-86055000D01*
X48239909Y-85971740D01*
X48714577Y-85654577D01*
X48950000Y-85302242D01*
X49185423Y-85654577D01*
X49660091Y-85971740D01*
X50078667Y-86055000D01*
X50361333Y-86055000D01*
X50779909Y-85971740D01*
X51254577Y-85654577D01*
X51510947Y-85270892D01*
X51607611Y-85475134D01*
X52022577Y-85851041D01*
X52410961Y-86011904D01*
X52633000Y-85889915D01*
X52633000Y-84747000D01*
X52613000Y-84747000D01*
X52613000Y-84493000D01*
X52633000Y-84493000D01*
X52633000Y-84473000D01*
X52887000Y-84473000D01*
X52887000Y-84493000D01*
X52907000Y-84493000D01*
X52907000Y-84747000D01*
X52887000Y-84747000D01*
X52887000Y-85889915D01*
X53109039Y-86011904D01*
X53414999Y-85885180D01*
X53415000Y-86915000D01*
X52914561Y-86915000D01*
X52387138Y-87133466D01*
X51983466Y-87537138D01*
X51956475Y-87602299D01*
X51953864Y-87595995D01*
X51707745Y-87521861D01*
X50879605Y-88350000D01*
X51707745Y-89178139D01*
X51953864Y-89104005D01*
X51956290Y-89097254D01*
X51983466Y-89162862D01*
X52387138Y-89566534D01*
X52914561Y-89785000D01*
X53485439Y-89785000D01*
X54012862Y-89566534D01*
X54416534Y-89162862D01*
X54471167Y-89030966D01*
X55874681Y-90434481D01*
X55917082Y-90497938D01*
X56168474Y-90665913D01*
X56390159Y-90710009D01*
X56390163Y-90710009D01*
X56465010Y-90724897D01*
X56539857Y-90710009D01*
X63933058Y-90710009D01*
X67812522Y-94589474D01*
X67854922Y-94652930D01*
X68106314Y-94820905D01*
X68327999Y-94865001D01*
X68328003Y-94865001D01*
X68402850Y-94879889D01*
X68477697Y-94865001D01*
X81770152Y-94865001D01*
X81844999Y-94879889D01*
X81919846Y-94865001D01*
X81919851Y-94865001D01*
X82141536Y-94820905D01*
X82392928Y-94652930D01*
X82435330Y-94589471D01*
X82661698Y-94363103D01*
X82714561Y-94385000D01*
X83285439Y-94385000D01*
X83812862Y-94166534D01*
X84216534Y-93762862D01*
X84435000Y-93235439D01*
X84435000Y-92664561D01*
X84402044Y-92584999D01*
X85950154Y-92584999D01*
X86025001Y-92599887D01*
X86099848Y-92584999D01*
X86099853Y-92584999D01*
X86321538Y-92540903D01*
X86572930Y-92372928D01*
X86615332Y-92309469D01*
X86780498Y-92144303D01*
X86565000Y-92664561D01*
X86565000Y-93235439D01*
X86783466Y-93762862D01*
X87187138Y-94166534D01*
X87714561Y-94385000D01*
X88285439Y-94385000D01*
X88812862Y-94166534D01*
X89216534Y-93762862D01*
X89435000Y-93235439D01*
X89435000Y-92980000D01*
X91536887Y-92980000D01*
X91648260Y-93539909D01*
X91965423Y-94014577D01*
X92440091Y-94331740D01*
X92858667Y-94415000D01*
X93141333Y-94415000D01*
X93559909Y-94331740D01*
X94034577Y-94014577D01*
X94351740Y-93539909D01*
X94463113Y-92980000D01*
X94351740Y-92420091D01*
X94034577Y-91945423D01*
X93559909Y-91628260D01*
X93141333Y-91545000D01*
X92858667Y-91545000D01*
X92440091Y-91628260D01*
X91965423Y-91945423D01*
X91648260Y-92420091D01*
X91536887Y-92980000D01*
X89435000Y-92980000D01*
X89435000Y-92664561D01*
X89216534Y-92137138D01*
X88812862Y-91733466D01*
X88285439Y-91515000D01*
X87714561Y-91515000D01*
X87194303Y-91730498D01*
X89161698Y-89763104D01*
X89214561Y-89785000D01*
X89785439Y-89785000D01*
X90312862Y-89566534D01*
X90716534Y-89162862D01*
X90866836Y-88800000D01*
X96152560Y-88800000D01*
X96152560Y-91200000D01*
X96201843Y-91447765D01*
X96342191Y-91657809D01*
X96552235Y-91798157D01*
X96800000Y-91847440D01*
X99200000Y-91847440D01*
X99447765Y-91798157D01*
X99657809Y-91657809D01*
X99798157Y-91447765D01*
X99847440Y-91200000D01*
X99847440Y-88800000D01*
X99798157Y-88552235D01*
X99657809Y-88342191D01*
X99447765Y-88201843D01*
X99200000Y-88152560D01*
X96800000Y-88152560D01*
X96552235Y-88201843D01*
X96342191Y-88342191D01*
X96201843Y-88552235D01*
X96152560Y-88800000D01*
X90866836Y-88800000D01*
X90935000Y-88635439D01*
X90935000Y-88064561D01*
X90716534Y-87537138D01*
X90312862Y-87133466D01*
X89785439Y-86915000D01*
X89214561Y-86915000D01*
X88687138Y-87133466D01*
X88283466Y-87537138D01*
X88250000Y-87617932D01*
X88216534Y-87537138D01*
X87812862Y-87133466D01*
X87285439Y-86915000D01*
X86714561Y-86915000D01*
X86187138Y-87133466D01*
X85783466Y-87537138D01*
X85565000Y-88064561D01*
X85565000Y-88635439D01*
X85586897Y-88688302D01*
X84685199Y-89590000D01*
X80756210Y-89590000D01*
X80812862Y-89566534D01*
X81216534Y-89162862D01*
X81435000Y-88635439D01*
X81435000Y-88064561D01*
X81216534Y-87537138D01*
X80812862Y-87133466D01*
X80285439Y-86915000D01*
X79714561Y-86915000D01*
X79187138Y-87133466D01*
X78783466Y-87537138D01*
X78756475Y-87602299D01*
X78753864Y-87595995D01*
X78507745Y-87521861D01*
X77679605Y-88350000D01*
X78507745Y-89178139D01*
X78753864Y-89104005D01*
X78756290Y-89097254D01*
X78783466Y-89162862D01*
X79187138Y-89566534D01*
X79243790Y-89590000D01*
X78258181Y-89590000D01*
X78328139Y-89357745D01*
X77500000Y-88529605D01*
X76671861Y-89357745D01*
X76741819Y-89590000D01*
X71647700Y-89590000D01*
X71572852Y-89575112D01*
X71498004Y-89590000D01*
X71498000Y-89590000D01*
X71324457Y-89624520D01*
X71276314Y-89634096D01*
X71089270Y-89759076D01*
X71024923Y-89802071D01*
X70982523Y-89865527D01*
X69266738Y-91581312D01*
X69084185Y-91545000D01*
X68801519Y-91545000D01*
X68382943Y-91628260D01*
X67908275Y-91945423D01*
X67671874Y-92299222D01*
X64838190Y-89465539D01*
X64795788Y-89402080D01*
X64544396Y-89234105D01*
X64322711Y-89190009D01*
X64322706Y-89190009D01*
X64247859Y-89175121D01*
X64173012Y-89190009D01*
X63359794Y-89190009D01*
X64416580Y-88133223D01*
X76053035Y-88133223D01*
X76080222Y-88703454D01*
X76246136Y-89104005D01*
X76492255Y-89178139D01*
X77320395Y-88350000D01*
X76492255Y-87521861D01*
X76246136Y-87595995D01*
X76053035Y-88133223D01*
X64416580Y-88133223D01*
X65207548Y-87342255D01*
X76671861Y-87342255D01*
X77500000Y-88170395D01*
X78328139Y-87342255D01*
X78254005Y-87096136D01*
X77716777Y-86903035D01*
X77146546Y-86930222D01*
X76745995Y-87096136D01*
X76671861Y-87342255D01*
X65207548Y-87342255D01*
X65339794Y-87210010D01*
X68910140Y-87210010D01*
X68984987Y-87224898D01*
X69059834Y-87210010D01*
X69059839Y-87210010D01*
X69281524Y-87165914D01*
X69532916Y-86997939D01*
X69575318Y-86934480D01*
X71333504Y-85176295D01*
X71427611Y-85375134D01*
X71842577Y-85751041D01*
X72230961Y-85911904D01*
X72453000Y-85789915D01*
X72453000Y-84647000D01*
X72433000Y-84647000D01*
X72433000Y-84393000D01*
X72453000Y-84393000D01*
X72453000Y-84373000D01*
X72707000Y-84373000D01*
X72707000Y-84393000D01*
X72727000Y-84393000D01*
X72727000Y-84647000D01*
X72707000Y-84647000D01*
X72707000Y-85789915D01*
X72929039Y-85911904D01*
X73317423Y-85751041D01*
X73732389Y-85375134D01*
X73829053Y-85170892D01*
X74085423Y-85554577D01*
X74560091Y-85871740D01*
X74978667Y-85955000D01*
X75261333Y-85955000D01*
X75679909Y-85871740D01*
X76154577Y-85554577D01*
X76410947Y-85170892D01*
X76507611Y-85375134D01*
X76922577Y-85751041D01*
X77310961Y-85911904D01*
X77533000Y-85789915D01*
X77533000Y-84647000D01*
X77513000Y-84647000D01*
X77513000Y-84393000D01*
X77533000Y-84393000D01*
X77533000Y-84373000D01*
X77787000Y-84373000D01*
X77787000Y-84393000D01*
X77807000Y-84393000D01*
X77807000Y-84647000D01*
X77787000Y-84647000D01*
X77787000Y-85789915D01*
X78009039Y-85911904D01*
X78397423Y-85751041D01*
X78543376Y-85618826D01*
X78590529Y-85650332D01*
X79069670Y-86129474D01*
X79112070Y-86192930D01*
X79363462Y-86360905D01*
X79585147Y-86405001D01*
X79585152Y-86405001D01*
X79659999Y-86419889D01*
X79734846Y-86405001D01*
X81948782Y-86405001D01*
X82023629Y-86419889D01*
X82098476Y-86405001D01*
X82098481Y-86405001D01*
X82320166Y-86360905D01*
X82571558Y-86192930D01*
X82613960Y-86129471D01*
X83222765Y-85520667D01*
X83245423Y-85554577D01*
X83720091Y-85871740D01*
X84138667Y-85955000D01*
X84421333Y-85955000D01*
X84839909Y-85871740D01*
X85314577Y-85554577D01*
X85550000Y-85202242D01*
X85785423Y-85554577D01*
X86260091Y-85871740D01*
X86678667Y-85955000D01*
X86961333Y-85955000D01*
X87379909Y-85871740D01*
X87854577Y-85554577D01*
X88090000Y-85202242D01*
X88325423Y-85554577D01*
X88800091Y-85871740D01*
X89218667Y-85955000D01*
X89501333Y-85955000D01*
X89919909Y-85871740D01*
X90394577Y-85554577D01*
X90630000Y-85202242D01*
X90865423Y-85554577D01*
X91340091Y-85871740D01*
X91758667Y-85955000D01*
X92041333Y-85955000D01*
X92459909Y-85871740D01*
X92934577Y-85554577D01*
X93251740Y-85079909D01*
X93363113Y-84520000D01*
X93291505Y-84160000D01*
X96129051Y-84160000D01*
X96271469Y-84875981D01*
X96677039Y-85482961D01*
X97284019Y-85888531D01*
X97819273Y-85995000D01*
X98180727Y-85995000D01*
X98715981Y-85888531D01*
X99322961Y-85482961D01*
X99728531Y-84875981D01*
X99870949Y-84160000D01*
X99728531Y-83444019D01*
X99322961Y-82837039D01*
X98715981Y-82431469D01*
X98180727Y-82325000D01*
X97819273Y-82325000D01*
X97284019Y-82431469D01*
X96677039Y-82837039D01*
X96271469Y-83444019D01*
X96129051Y-84160000D01*
X93291505Y-84160000D01*
X93251740Y-83960091D01*
X92934577Y-83485423D01*
X92459909Y-83168260D01*
X92041333Y-83085000D01*
X91758667Y-83085000D01*
X91340091Y-83168260D01*
X90865423Y-83485423D01*
X90630000Y-83837758D01*
X90394577Y-83485423D01*
X89919909Y-83168260D01*
X89501333Y-83085000D01*
X89218667Y-83085000D01*
X88875204Y-83153319D01*
X89032931Y-83047929D01*
X89075333Y-82984470D01*
X93509474Y-78550330D01*
X93572930Y-78507930D01*
X93740905Y-78256538D01*
X93785001Y-78034853D01*
X93785001Y-78034849D01*
X93799889Y-77960002D01*
X93785001Y-77885155D01*
X93785001Y-75914846D01*
X93799889Y-75839999D01*
X93785001Y-75765152D01*
X93785001Y-75765147D01*
X93740905Y-75543462D01*
X93572930Y-75292070D01*
X93533965Y-75266035D01*
X93507930Y-75227070D01*
X93256538Y-75059095D01*
X93034853Y-75014999D01*
X93034848Y-75014999D01*
X92960001Y-75000111D01*
X92885154Y-75014999D01*
X88019849Y-75014999D01*
X87945001Y-75000111D01*
X87870153Y-75014999D01*
X87870149Y-75014999D01*
X87696606Y-75049519D01*
X87648463Y-75059095D01*
X87517601Y-75146535D01*
X87397072Y-75227070D01*
X87354672Y-75290526D01*
X87143886Y-75501312D01*
X86961333Y-75465000D01*
X86678667Y-75465000D01*
X86260091Y-75548260D01*
X85785423Y-75865423D01*
X85550000Y-76217758D01*
X85314577Y-75865423D01*
X84839909Y-75548260D01*
X84421333Y-75465000D01*
X84138667Y-75465000D01*
X83720091Y-75548260D01*
X83245423Y-75865423D01*
X83217061Y-75907869D01*
X83215904Y-75902050D01*
X83047929Y-75650658D01*
X82984473Y-75608258D01*
X80176215Y-72800000D01*
X96152560Y-72800000D01*
X96152560Y-75200000D01*
X96201843Y-75447765D01*
X96342191Y-75657809D01*
X96552235Y-75798157D01*
X96800000Y-75847440D01*
X99200000Y-75847440D01*
X99447765Y-75798157D01*
X99657809Y-75657809D01*
X99798157Y-75447765D01*
X99847440Y-75200000D01*
X99847440Y-72800000D01*
X99798157Y-72552235D01*
X99657809Y-72342191D01*
X99447765Y-72201843D01*
X99200000Y-72152560D01*
X96800000Y-72152560D01*
X96552235Y-72201843D01*
X96342191Y-72342191D01*
X96201843Y-72552235D01*
X96152560Y-72800000D01*
X80176215Y-72800000D01*
X78760000Y-71383786D01*
X78760000Y-68814561D01*
X79665000Y-68814561D01*
X79665000Y-69385439D01*
X79883466Y-69912862D01*
X80287138Y-70316534D01*
X80814561Y-70535000D01*
X81385439Y-70535000D01*
X81912862Y-70316534D01*
X82176155Y-70053241D01*
X82261673Y-70259699D01*
X82440302Y-70438327D01*
X82673691Y-70535000D01*
X83314250Y-70535000D01*
X83473000Y-70376250D01*
X83473000Y-69227000D01*
X83727000Y-69227000D01*
X83727000Y-70376250D01*
X83885750Y-70535000D01*
X84526309Y-70535000D01*
X84759698Y-70438327D01*
X84938327Y-70259699D01*
X85001268Y-70107745D01*
X89271861Y-70107745D01*
X89345995Y-70353864D01*
X89883223Y-70546965D01*
X90453454Y-70519778D01*
X90854005Y-70353864D01*
X90928139Y-70107745D01*
X90100000Y-69279605D01*
X89271861Y-70107745D01*
X85001268Y-70107745D01*
X85035000Y-70026310D01*
X85035000Y-69385750D01*
X84876250Y-69227000D01*
X83727000Y-69227000D01*
X83473000Y-69227000D01*
X83453000Y-69227000D01*
X83453000Y-68973000D01*
X83473000Y-68973000D01*
X83473000Y-67823750D01*
X83727000Y-67823750D01*
X83727000Y-68973000D01*
X84876250Y-68973000D01*
X84966027Y-68883223D01*
X88653035Y-68883223D01*
X88680222Y-69453454D01*
X88846136Y-69854005D01*
X89092255Y-69928139D01*
X89920395Y-69100000D01*
X90279605Y-69100000D01*
X91107745Y-69928139D01*
X91155307Y-69913813D01*
X91201843Y-70147765D01*
X91342191Y-70357809D01*
X91552235Y-70498157D01*
X91800000Y-70547440D01*
X93400000Y-70547440D01*
X93647765Y-70498157D01*
X93857809Y-70357809D01*
X93998157Y-70147765D01*
X94047440Y-69900000D01*
X94047440Y-68714561D01*
X95565000Y-68714561D01*
X95565000Y-69285439D01*
X95783466Y-69812862D01*
X96187138Y-70216534D01*
X96714561Y-70435000D01*
X97285439Y-70435000D01*
X97812862Y-70216534D01*
X98021651Y-70007745D01*
X98671861Y-70007745D01*
X98745995Y-70253864D01*
X99283223Y-70446965D01*
X99853454Y-70419778D01*
X100254005Y-70253864D01*
X100328139Y-70007745D01*
X99500000Y-69179605D01*
X98671861Y-70007745D01*
X98021651Y-70007745D01*
X98216534Y-69812862D01*
X98243525Y-69747701D01*
X98246136Y-69754005D01*
X98492255Y-69828139D01*
X99320395Y-69000000D01*
X99679605Y-69000000D01*
X100507745Y-69828139D01*
X100753864Y-69754005D01*
X100946965Y-69216777D01*
X100919778Y-68646546D01*
X100753864Y-68245995D01*
X100507745Y-68171861D01*
X99679605Y-69000000D01*
X99320395Y-69000000D01*
X98492255Y-68171861D01*
X98246136Y-68245995D01*
X98243710Y-68252746D01*
X98216534Y-68187138D01*
X98021651Y-67992255D01*
X98671861Y-67992255D01*
X99500000Y-68820395D01*
X100328139Y-67992255D01*
X100254005Y-67746136D01*
X99716777Y-67553035D01*
X99146546Y-67580222D01*
X98745995Y-67746136D01*
X98671861Y-67992255D01*
X98021651Y-67992255D01*
X97812862Y-67783466D01*
X97285439Y-67565000D01*
X96714561Y-67565000D01*
X96187138Y-67783466D01*
X95783466Y-68187138D01*
X95565000Y-68714561D01*
X94047440Y-68714561D01*
X94047440Y-68300000D01*
X93998157Y-68052235D01*
X93857809Y-67842191D01*
X93647765Y-67701843D01*
X93400000Y-67652560D01*
X91800000Y-67652560D01*
X91552235Y-67701843D01*
X91342191Y-67842191D01*
X91201843Y-68052235D01*
X91155307Y-68286187D01*
X91107745Y-68271861D01*
X90279605Y-69100000D01*
X89920395Y-69100000D01*
X89092255Y-68271861D01*
X88846136Y-68345995D01*
X88653035Y-68883223D01*
X84966027Y-68883223D01*
X85035000Y-68814250D01*
X85035000Y-68173690D01*
X85001269Y-68092255D01*
X89271861Y-68092255D01*
X90100000Y-68920395D01*
X90928139Y-68092255D01*
X90854005Y-67846136D01*
X90316777Y-67653035D01*
X89746546Y-67680222D01*
X89345995Y-67846136D01*
X89271861Y-68092255D01*
X85001269Y-68092255D01*
X84938327Y-67940301D01*
X84759698Y-67761673D01*
X84526309Y-67665000D01*
X83885750Y-67665000D01*
X83727000Y-67823750D01*
X83473000Y-67823750D01*
X83314250Y-67665000D01*
X82673691Y-67665000D01*
X82440302Y-67761673D01*
X82261673Y-67940301D01*
X82176155Y-68146759D01*
X81912862Y-67883466D01*
X81385439Y-67665000D01*
X80814561Y-67665000D01*
X80287138Y-67883466D01*
X79883466Y-68287138D01*
X79665000Y-68814561D01*
X78760000Y-68814561D01*
X78760000Y-66374846D01*
X78774888Y-66299999D01*
X78760000Y-66225152D01*
X78760000Y-66225148D01*
X78715904Y-66003463D01*
X78547929Y-65752071D01*
X78484473Y-65709671D01*
X77335000Y-64560199D01*
X77335000Y-64394126D01*
X77177431Y-64013720D01*
X76886280Y-63722569D01*
X76505874Y-63565000D01*
X76094126Y-63565000D01*
X75713720Y-63722569D01*
X75650000Y-63786289D01*
X75586280Y-63722569D01*
X75205874Y-63565000D01*
X74794126Y-63565000D01*
X74413720Y-63722569D01*
X74122569Y-64013720D01*
X73965000Y-64394126D01*
X73965000Y-64805874D01*
X74122569Y-65186280D01*
X74255686Y-65319397D01*
X74284096Y-65462222D01*
X74452072Y-65713614D01*
X74515528Y-65756014D01*
X76789989Y-68030476D01*
X76789989Y-68274852D01*
X76789990Y-68274857D01*
X76789989Y-71425148D01*
X76789989Y-71810140D01*
X76775101Y-71884987D01*
X76789989Y-71959834D01*
X76789989Y-71959838D01*
X76834085Y-72181523D01*
X77002060Y-72432916D01*
X77065519Y-72475318D01*
X80042760Y-75452560D01*
X79400000Y-75452560D01*
X79152235Y-75501843D01*
X78942191Y-75642191D01*
X78801843Y-75852235D01*
X78775215Y-75986106D01*
X78694577Y-75865423D01*
X78219909Y-75548260D01*
X77801333Y-75465000D01*
X77518667Y-75465000D01*
X77336114Y-75501312D01*
X77125330Y-75290529D01*
X77082928Y-75227070D01*
X76831536Y-75059095D01*
X76609851Y-75014999D01*
X76609846Y-75014999D01*
X76534999Y-75000111D01*
X76460152Y-75014999D01*
X72114847Y-75014999D01*
X72039999Y-75000111D01*
X71965151Y-75014999D01*
X71965147Y-75014999D01*
X71791604Y-75049519D01*
X71743461Y-75059095D01*
X71612599Y-75146535D01*
X71492070Y-75227070D01*
X71449670Y-75290526D01*
X69447440Y-77292757D01*
X69447440Y-76200000D01*
X69398157Y-75952235D01*
X69257809Y-75742191D01*
X69047765Y-75601843D01*
X68800000Y-75552560D01*
X67200000Y-75552560D01*
X66952235Y-75601843D01*
X66742191Y-75742191D01*
X66601843Y-75952235D01*
X66575215Y-76086106D01*
X66494577Y-75965423D01*
X66019909Y-75648260D01*
X65601333Y-75565000D01*
X65318667Y-75565000D01*
X64900091Y-75648260D01*
X64425423Y-75965423D01*
X64190000Y-76317758D01*
X63954577Y-75965423D01*
X63600778Y-75729022D01*
X65145713Y-74184088D01*
X65200001Y-74194887D01*
X65274848Y-74179999D01*
X65274853Y-74179999D01*
X65496538Y-74135903D01*
X65672915Y-74018052D01*
X65858667Y-74055000D01*
X66141333Y-74055000D01*
X66559909Y-73971740D01*
X67034577Y-73654577D01*
X67351740Y-73179909D01*
X67463113Y-72620000D01*
X67351740Y-72060091D01*
X67034577Y-71585423D01*
X66559909Y-71268260D01*
X66141333Y-71185000D01*
X65858667Y-71185000D01*
X65440091Y-71268260D01*
X64965423Y-71585423D01*
X64648260Y-72060091D01*
X64536887Y-72620000D01*
X64553038Y-72701196D01*
X64538462Y-72704095D01*
X64538460Y-72704096D01*
X64538461Y-72704096D01*
X64350525Y-72829670D01*
X64350523Y-72829672D01*
X64287070Y-72872070D01*
X64244672Y-72935523D01*
X61294804Y-75885393D01*
X60939909Y-75648260D01*
X60521333Y-75565000D01*
X60238667Y-75565000D01*
X59820091Y-75648260D01*
X59345423Y-75965423D01*
X59110000Y-76317758D01*
X58874577Y-75965423D01*
X58399909Y-75648260D01*
X57981333Y-75565000D01*
X57698667Y-75565000D01*
X57280091Y-75648260D01*
X56805423Y-75965423D01*
X56570000Y-76317758D01*
X56334577Y-75965423D01*
X55859909Y-75648260D01*
X55441333Y-75565000D01*
X55158667Y-75565000D01*
X54740091Y-75648260D01*
X54265423Y-75965423D01*
X54030000Y-76317758D01*
X53794577Y-75965423D01*
X53319909Y-75648260D01*
X52901333Y-75565000D01*
X52618667Y-75565000D01*
X52200091Y-75648260D01*
X51725423Y-75965423D01*
X51469053Y-76349108D01*
X51372389Y-76144866D01*
X50957423Y-75768959D01*
X50569039Y-75608096D01*
X50347000Y-75730085D01*
X50347000Y-76873000D01*
X50367000Y-76873000D01*
X50367000Y-77127000D01*
X50347000Y-77127000D01*
X50347000Y-77147000D01*
X50093000Y-77147000D01*
X50093000Y-77127000D01*
X50073000Y-77127000D01*
X50073000Y-76873000D01*
X50093000Y-76873000D01*
X50093000Y-75730085D01*
X49870961Y-75608096D01*
X49482577Y-75768959D01*
X49067611Y-76144866D01*
X48970947Y-76349108D01*
X48760000Y-76033403D01*
X48760000Y-72184312D01*
X48784540Y-72174147D01*
X49174147Y-71784540D01*
X49250585Y-71600000D01*
X53952560Y-71600000D01*
X53952560Y-73400000D01*
X54001843Y-73647765D01*
X54142191Y-73857809D01*
X54352235Y-73998157D01*
X54600000Y-74047440D01*
X56400000Y-74047440D01*
X56647765Y-73998157D01*
X56857809Y-73857809D01*
X56998157Y-73647765D01*
X57047440Y-73400000D01*
X57047440Y-71600000D01*
X58952560Y-71600000D01*
X58952560Y-73400000D01*
X59001843Y-73647765D01*
X59142191Y-73857809D01*
X59352235Y-73998157D01*
X59600000Y-74047440D01*
X61400000Y-74047440D01*
X61647765Y-73998157D01*
X61857809Y-73857809D01*
X61998157Y-73647765D01*
X62047440Y-73400000D01*
X62047440Y-71600000D01*
X61998157Y-71352235D01*
X61857809Y-71142191D01*
X61647765Y-71001843D01*
X61400000Y-70952560D01*
X59600000Y-70952560D01*
X59352235Y-71001843D01*
X59142191Y-71142191D01*
X59001843Y-71352235D01*
X58952560Y-71600000D01*
X57047440Y-71600000D01*
X56998157Y-71352235D01*
X56857809Y-71142191D01*
X56647765Y-71001843D01*
X56400000Y-70952560D01*
X54600000Y-70952560D01*
X54352235Y-71001843D01*
X54142191Y-71142191D01*
X54001843Y-71352235D01*
X53952560Y-71600000D01*
X49250585Y-71600000D01*
X49385000Y-71275494D01*
X49385000Y-70724506D01*
X49174147Y-70215460D01*
X49066432Y-70107745D01*
X71271861Y-70107745D01*
X71345995Y-70353864D01*
X71883223Y-70546965D01*
X72453454Y-70519778D01*
X72854005Y-70353864D01*
X72928139Y-70107745D01*
X72100000Y-69279605D01*
X71271861Y-70107745D01*
X49066432Y-70107745D01*
X48784540Y-69825853D01*
X48275494Y-69615000D01*
X47724506Y-69615000D01*
X47215460Y-69825853D01*
X46825853Y-70215460D01*
X46615000Y-70724506D01*
X46615000Y-71275494D01*
X46825853Y-71784540D01*
X47215460Y-72174147D01*
X47240000Y-72184312D01*
X47240001Y-75624408D01*
X47120091Y-75648260D01*
X46645423Y-75965423D01*
X46410000Y-76317758D01*
X46174577Y-75965423D01*
X45699909Y-75648260D01*
X45281333Y-75565000D01*
X44998667Y-75565000D01*
X44816114Y-75601312D01*
X43860000Y-74645199D01*
X43860000Y-72184312D01*
X43884540Y-72174147D01*
X44274147Y-71784540D01*
X44485000Y-71275494D01*
X44485000Y-70724506D01*
X44274147Y-70215460D01*
X43884540Y-69825853D01*
X43375494Y-69615000D01*
X42824506Y-69615000D01*
X42315460Y-69825853D01*
X41925853Y-70215460D01*
X41715000Y-70724506D01*
X41715000Y-71275494D01*
X41925853Y-71784540D01*
X42315460Y-72174147D01*
X42340000Y-72184312D01*
X42340001Y-74885148D01*
X42325112Y-74960000D01*
X42384097Y-75256537D01*
X42495791Y-75423698D01*
X42552072Y-75507929D01*
X42615528Y-75550329D01*
X42630199Y-75565000D01*
X42458667Y-75565000D01*
X42040091Y-75648260D01*
X41565423Y-75965423D01*
X41330000Y-76317758D01*
X41094577Y-75965423D01*
X40619909Y-75648260D01*
X40201333Y-75565000D01*
X39918667Y-75565000D01*
X39500091Y-75648260D01*
X39025423Y-75965423D01*
X38790000Y-76317758D01*
X38554577Y-75965423D01*
X38079909Y-75648260D01*
X37661333Y-75565000D01*
X37378667Y-75565000D01*
X36960091Y-75648260D01*
X36485423Y-75965423D01*
X36250000Y-76317758D01*
X36014577Y-75965423D01*
X35539909Y-75648260D01*
X35121333Y-75565000D01*
X34838667Y-75565000D01*
X34420091Y-75648260D01*
X33945423Y-75965423D01*
X33761957Y-76240000D01*
X29614802Y-76240000D01*
X27909999Y-74535198D01*
X27909999Y-73729182D01*
X27911836Y-73733617D01*
X28137265Y-73783130D01*
X28820395Y-73100000D01*
X28137265Y-72416870D01*
X27911836Y-72466383D01*
X27909999Y-72471730D01*
X27909999Y-72237265D01*
X28316870Y-72237265D01*
X29000000Y-72920395D01*
X29014143Y-72906253D01*
X29193748Y-73085858D01*
X29179605Y-73100000D01*
X29193748Y-73114143D01*
X29014143Y-73293748D01*
X29000000Y-73279605D01*
X28316870Y-73962735D01*
X28366383Y-74188164D01*
X28831036Y-74347807D01*
X29321413Y-74317482D01*
X29633617Y-74188164D01*
X29683129Y-73962737D01*
X29798822Y-74078430D01*
X29852970Y-74024282D01*
X29942191Y-74157809D01*
X30152235Y-74298157D01*
X30400000Y-74347440D01*
X31600000Y-74347440D01*
X31847765Y-74298157D01*
X32057809Y-74157809D01*
X32198157Y-73947765D01*
X32247440Y-73700000D01*
X32247440Y-72500000D01*
X32210555Y-72314561D01*
X34565000Y-72314561D01*
X34565000Y-72885439D01*
X34783466Y-73412862D01*
X35187138Y-73816534D01*
X35714561Y-74035000D01*
X36285439Y-74035000D01*
X36812862Y-73816534D01*
X37216534Y-73412862D01*
X37435000Y-72885439D01*
X37435000Y-72314561D01*
X37216534Y-71787138D01*
X36812862Y-71383466D01*
X36285439Y-71165000D01*
X35714561Y-71165000D01*
X35187138Y-71383466D01*
X34783466Y-71787138D01*
X34565000Y-72314561D01*
X32210555Y-72314561D01*
X32198157Y-72252235D01*
X32057809Y-72042191D01*
X31847765Y-71901843D01*
X31600000Y-71852560D01*
X30400000Y-71852560D01*
X30152235Y-71901843D01*
X29942191Y-72042191D01*
X29852970Y-72175718D01*
X29798822Y-72121570D01*
X29683129Y-72237263D01*
X29633617Y-72011836D01*
X29168964Y-71852193D01*
X28678587Y-71882518D01*
X28366383Y-72011836D01*
X28316870Y-72237265D01*
X27909999Y-72237265D01*
X27909999Y-69993687D01*
X28058223Y-70046965D01*
X28628454Y-70019778D01*
X29029005Y-69853864D01*
X29103139Y-69607745D01*
X28275000Y-68779605D01*
X28260858Y-68793748D01*
X28081253Y-68614143D01*
X28095395Y-68600000D01*
X28454605Y-68600000D01*
X29282745Y-69428139D01*
X29528864Y-69354005D01*
X29531290Y-69347254D01*
X29558466Y-69412862D01*
X29962138Y-69816534D01*
X30489561Y-70035000D01*
X31060439Y-70035000D01*
X31587862Y-69816534D01*
X31991534Y-69412862D01*
X32210000Y-68885439D01*
X32210000Y-68883223D01*
X70653035Y-68883223D01*
X70680222Y-69453454D01*
X70846136Y-69854005D01*
X71092255Y-69928139D01*
X71920395Y-69100000D01*
X72279605Y-69100000D01*
X73107745Y-69928139D01*
X73155307Y-69913813D01*
X73201843Y-70147765D01*
X73342191Y-70357809D01*
X73552235Y-70498157D01*
X73800000Y-70547440D01*
X75400000Y-70547440D01*
X75647765Y-70498157D01*
X75857809Y-70357809D01*
X75998157Y-70147765D01*
X76047440Y-69900000D01*
X76047440Y-68300000D01*
X75998157Y-68052235D01*
X75857809Y-67842191D01*
X75647765Y-67701843D01*
X75400000Y-67652560D01*
X73800000Y-67652560D01*
X73552235Y-67701843D01*
X73342191Y-67842191D01*
X73201843Y-68052235D01*
X73155307Y-68286187D01*
X73107745Y-68271861D01*
X72279605Y-69100000D01*
X71920395Y-69100000D01*
X71092255Y-68271861D01*
X70846136Y-68345995D01*
X70653035Y-68883223D01*
X32210000Y-68883223D01*
X32210000Y-68314561D01*
X32117918Y-68092255D01*
X71271861Y-68092255D01*
X72100000Y-68920395D01*
X72928139Y-68092255D01*
X72854005Y-67846136D01*
X72316777Y-67653035D01*
X71746546Y-67680222D01*
X71345995Y-67846136D01*
X71271861Y-68092255D01*
X32117918Y-68092255D01*
X31991534Y-67787138D01*
X31587862Y-67383466D01*
X31060439Y-67165000D01*
X30489561Y-67165000D01*
X29962138Y-67383466D01*
X29558466Y-67787138D01*
X29531475Y-67852299D01*
X29528864Y-67845995D01*
X29282745Y-67771861D01*
X28454605Y-68600000D01*
X28095395Y-68600000D01*
X28081253Y-68585858D01*
X28260858Y-68406253D01*
X28275000Y-68420395D01*
X29103139Y-67592255D01*
X29029005Y-67346136D01*
X28962550Y-67322249D01*
X31304799Y-64980000D01*
X34536887Y-64980000D01*
X34648260Y-65539909D01*
X34965423Y-66014577D01*
X35440091Y-66331740D01*
X35858667Y-66415000D01*
X36141333Y-66415000D01*
X36559909Y-66331740D01*
X37034577Y-66014577D01*
X37351740Y-65539909D01*
X37416455Y-65214561D01*
X39565000Y-65214561D01*
X39565000Y-65785439D01*
X39783466Y-66312862D01*
X40187138Y-66716534D01*
X40714561Y-66935000D01*
X41285439Y-66935000D01*
X41812862Y-66716534D01*
X42021651Y-66507745D01*
X42671861Y-66507745D01*
X42745995Y-66753864D01*
X43283223Y-66946965D01*
X43853454Y-66919778D01*
X44254005Y-66753864D01*
X44328139Y-66507745D01*
X46671861Y-66507745D01*
X46745995Y-66753864D01*
X47283223Y-66946965D01*
X47853454Y-66919778D01*
X48254005Y-66753864D01*
X48328139Y-66507745D01*
X47500000Y-65679605D01*
X46671861Y-66507745D01*
X44328139Y-66507745D01*
X43500000Y-65679605D01*
X42671861Y-66507745D01*
X42021651Y-66507745D01*
X42216534Y-66312862D01*
X42243525Y-66247701D01*
X42246136Y-66254005D01*
X42492255Y-66328139D01*
X43320395Y-65500000D01*
X43679605Y-65500000D01*
X44507745Y-66328139D01*
X44753864Y-66254005D01*
X44946965Y-65716777D01*
X44926295Y-65283223D01*
X46053035Y-65283223D01*
X46080222Y-65853454D01*
X46246136Y-66254005D01*
X46492255Y-66328139D01*
X47320395Y-65500000D01*
X47679605Y-65500000D01*
X48507745Y-66328139D01*
X48753864Y-66254005D01*
X48756290Y-66247254D01*
X48783466Y-66312862D01*
X49187138Y-66716534D01*
X49714561Y-66935000D01*
X50285439Y-66935000D01*
X50812862Y-66716534D01*
X51216534Y-66312862D01*
X51435000Y-65785439D01*
X51435000Y-65244742D01*
X54008954Y-65244742D01*
X54262034Y-65787576D01*
X54703583Y-66192240D01*
X55135260Y-66371036D01*
X55373000Y-66250378D01*
X55373000Y-65007000D01*
X55627000Y-65007000D01*
X55627000Y-66250378D01*
X55864740Y-66371036D01*
X56296417Y-66192240D01*
X56737966Y-65787576D01*
X56991046Y-65244742D01*
X59008954Y-65244742D01*
X59262034Y-65787576D01*
X59703583Y-66192240D01*
X60135260Y-66371036D01*
X60373000Y-66250378D01*
X60373000Y-65007000D01*
X60627000Y-65007000D01*
X60627000Y-66250378D01*
X60864740Y-66371036D01*
X61296417Y-66192240D01*
X61737966Y-65787576D01*
X61991046Y-65244742D01*
X61870997Y-65007000D01*
X60627000Y-65007000D01*
X60373000Y-65007000D01*
X59129003Y-65007000D01*
X59008954Y-65244742D01*
X56991046Y-65244742D01*
X56870997Y-65007000D01*
X55627000Y-65007000D01*
X55373000Y-65007000D01*
X54129003Y-65007000D01*
X54008954Y-65244742D01*
X51435000Y-65244742D01*
X51435000Y-65214561D01*
X51216534Y-64687138D01*
X51044654Y-64515258D01*
X54008954Y-64515258D01*
X54129003Y-64753000D01*
X55373000Y-64753000D01*
X55373000Y-63509622D01*
X55627000Y-63509622D01*
X55627000Y-64753000D01*
X56870997Y-64753000D01*
X56991046Y-64515258D01*
X59008954Y-64515258D01*
X59129003Y-64753000D01*
X60373000Y-64753000D01*
X60373000Y-63509622D01*
X60627000Y-63509622D01*
X60627000Y-64753000D01*
X61870997Y-64753000D01*
X61890406Y-64714561D01*
X64565000Y-64714561D01*
X64565000Y-65285439D01*
X64783466Y-65812862D01*
X65187138Y-66216534D01*
X65714561Y-66435000D01*
X66285439Y-66435000D01*
X66812862Y-66216534D01*
X67216534Y-65812862D01*
X67435000Y-65285439D01*
X67435000Y-64714561D01*
X67216534Y-64187138D01*
X66812862Y-63783466D01*
X66285439Y-63565000D01*
X65714561Y-63565000D01*
X65187138Y-63783466D01*
X64783466Y-64187138D01*
X64565000Y-64714561D01*
X61890406Y-64714561D01*
X61991046Y-64515258D01*
X61737966Y-63972424D01*
X61296417Y-63567760D01*
X60864740Y-63388964D01*
X60627000Y-63509622D01*
X60373000Y-63509622D01*
X60135260Y-63388964D01*
X59703583Y-63567760D01*
X59262034Y-63972424D01*
X59008954Y-64515258D01*
X56991046Y-64515258D01*
X56737966Y-63972424D01*
X56296417Y-63567760D01*
X55864740Y-63388964D01*
X55627000Y-63509622D01*
X55373000Y-63509622D01*
X55135260Y-63388964D01*
X54703583Y-63567760D01*
X54262034Y-63972424D01*
X54008954Y-64515258D01*
X51044654Y-64515258D01*
X50812862Y-64283466D01*
X50285439Y-64065000D01*
X49714561Y-64065000D01*
X49187138Y-64283466D01*
X48783466Y-64687138D01*
X48756475Y-64752299D01*
X48753864Y-64745995D01*
X48507745Y-64671861D01*
X47679605Y-65500000D01*
X47320395Y-65500000D01*
X46492255Y-64671861D01*
X46246136Y-64745995D01*
X46053035Y-65283223D01*
X44926295Y-65283223D01*
X44919778Y-65146546D01*
X44753864Y-64745995D01*
X44507745Y-64671861D01*
X43679605Y-65500000D01*
X43320395Y-65500000D01*
X42492255Y-64671861D01*
X42246136Y-64745995D01*
X42243710Y-64752746D01*
X42216534Y-64687138D01*
X42021651Y-64492255D01*
X42671861Y-64492255D01*
X43500000Y-65320395D01*
X44328139Y-64492255D01*
X46671861Y-64492255D01*
X47500000Y-65320395D01*
X48328139Y-64492255D01*
X48254005Y-64246136D01*
X47716777Y-64053035D01*
X47146546Y-64080222D01*
X46745995Y-64246136D01*
X46671861Y-64492255D01*
X44328139Y-64492255D01*
X44254005Y-64246136D01*
X43716777Y-64053035D01*
X43146546Y-64080222D01*
X42745995Y-64246136D01*
X42671861Y-64492255D01*
X42021651Y-64492255D01*
X41812862Y-64283466D01*
X41285439Y-64065000D01*
X40714561Y-64065000D01*
X40187138Y-64283466D01*
X39783466Y-64687138D01*
X39565000Y-65214561D01*
X37416455Y-65214561D01*
X37463113Y-64980000D01*
X37351740Y-64420091D01*
X37034577Y-63945423D01*
X36559909Y-63628260D01*
X36141333Y-63545000D01*
X35858667Y-63545000D01*
X35440091Y-63628260D01*
X34965423Y-63945423D01*
X34648260Y-64420091D01*
X34536887Y-64980000D01*
X31304799Y-64980000D01*
X35370238Y-60914561D01*
X37065000Y-60914561D01*
X37065000Y-61485439D01*
X37283466Y-62012862D01*
X37687138Y-62416534D01*
X38214561Y-62635000D01*
X38785439Y-62635000D01*
X39312862Y-62416534D01*
X39716534Y-62012862D01*
X39935000Y-61485439D01*
X39935000Y-60914561D01*
X41065000Y-60914561D01*
X41065000Y-61485439D01*
X41283466Y-62012862D01*
X41687138Y-62416534D01*
X42214561Y-62635000D01*
X42785439Y-62635000D01*
X43312862Y-62416534D01*
X43716534Y-62012862D01*
X43935000Y-61485439D01*
X43935000Y-60914561D01*
X45065000Y-60914561D01*
X45065000Y-61485439D01*
X45283466Y-62012862D01*
X45687138Y-62416534D01*
X46214561Y-62635000D01*
X46785439Y-62635000D01*
X47312862Y-62416534D01*
X47716534Y-62012862D01*
X47935000Y-61485439D01*
X47935000Y-60914561D01*
X49065000Y-60914561D01*
X49065000Y-61485439D01*
X49283466Y-62012862D01*
X49687138Y-62416534D01*
X50214561Y-62635000D01*
X50785439Y-62635000D01*
X51312862Y-62416534D01*
X51716534Y-62012862D01*
X51935000Y-61485439D01*
X51935000Y-60914561D01*
X53065000Y-60914561D01*
X53065000Y-61485439D01*
X53283466Y-62012862D01*
X53687138Y-62416534D01*
X54214561Y-62635000D01*
X54785439Y-62635000D01*
X55312862Y-62416534D01*
X55716534Y-62012862D01*
X55935000Y-61485439D01*
X55935000Y-60914561D01*
X57065000Y-60914561D01*
X57065000Y-61485439D01*
X57283466Y-62012862D01*
X57687138Y-62416534D01*
X58214561Y-62635000D01*
X58785439Y-62635000D01*
X59312862Y-62416534D01*
X59716534Y-62012862D01*
X59935000Y-61485439D01*
X59935000Y-60914561D01*
X61065000Y-60914561D01*
X61065000Y-61485439D01*
X61283466Y-62012862D01*
X61687138Y-62416534D01*
X62214561Y-62635000D01*
X62785439Y-62635000D01*
X63312862Y-62416534D01*
X63716534Y-62012862D01*
X63935000Y-61485439D01*
X63935000Y-60914561D01*
X65065000Y-60914561D01*
X65065000Y-61485439D01*
X65283466Y-62012862D01*
X65687138Y-62416534D01*
X66214561Y-62635000D01*
X66785439Y-62635000D01*
X67312862Y-62416534D01*
X67716534Y-62012862D01*
X67935000Y-61485439D01*
X67935000Y-60914561D01*
X67716534Y-60387138D01*
X67312862Y-59983466D01*
X66785439Y-59765000D01*
X66214561Y-59765000D01*
X65687138Y-59983466D01*
X65283466Y-60387138D01*
X65065000Y-60914561D01*
X63935000Y-60914561D01*
X63716534Y-60387138D01*
X63312862Y-59983466D01*
X62785439Y-59765000D01*
X62214561Y-59765000D01*
X61687138Y-59983466D01*
X61283466Y-60387138D01*
X61065000Y-60914561D01*
X59935000Y-60914561D01*
X59716534Y-60387138D01*
X59312862Y-59983466D01*
X58785439Y-59765000D01*
X58214561Y-59765000D01*
X57687138Y-59983466D01*
X57283466Y-60387138D01*
X57065000Y-60914561D01*
X55935000Y-60914561D01*
X55716534Y-60387138D01*
X55312862Y-59983466D01*
X54785439Y-59765000D01*
X54214561Y-59765000D01*
X53687138Y-59983466D01*
X53283466Y-60387138D01*
X53065000Y-60914561D01*
X51935000Y-60914561D01*
X51716534Y-60387138D01*
X51312862Y-59983466D01*
X50785439Y-59765000D01*
X50214561Y-59765000D01*
X49687138Y-59983466D01*
X49283466Y-60387138D01*
X49065000Y-60914561D01*
X47935000Y-60914561D01*
X47716534Y-60387138D01*
X47312862Y-59983466D01*
X46785439Y-59765000D01*
X46214561Y-59765000D01*
X45687138Y-59983466D01*
X45283466Y-60387138D01*
X45065000Y-60914561D01*
X43935000Y-60914561D01*
X43716534Y-60387138D01*
X43312862Y-59983466D01*
X42785439Y-59765000D01*
X42214561Y-59765000D01*
X41687138Y-59983466D01*
X41283466Y-60387138D01*
X41065000Y-60914561D01*
X39935000Y-60914561D01*
X39716534Y-60387138D01*
X39312862Y-59983466D01*
X38785439Y-59765000D01*
X38214561Y-59765000D01*
X37687138Y-59983466D01*
X37283466Y-60387138D01*
X37065000Y-60914561D01*
X35370238Y-60914561D01*
X37324799Y-58960000D01*
X80208276Y-58960000D01*
X80393380Y-59890580D01*
X80920511Y-60679489D01*
X81709420Y-61206620D01*
X82405103Y-61345000D01*
X82874897Y-61345000D01*
X83570580Y-61206620D01*
X84359489Y-60679489D01*
X84412601Y-60600000D01*
X97752560Y-60600000D01*
X97752560Y-62400000D01*
X97801843Y-62647765D01*
X97942191Y-62857809D01*
X98152235Y-62998157D01*
X98400000Y-63047440D01*
X100200000Y-63047440D01*
X100447765Y-62998157D01*
X100657809Y-62857809D01*
X100798157Y-62647765D01*
X100847440Y-62400000D01*
X100847440Y-60600000D01*
X100798157Y-60352235D01*
X100657809Y-60142191D01*
X100447765Y-60001843D01*
X100401502Y-59992641D01*
X100537966Y-59867576D01*
X100791046Y-59324742D01*
X100670997Y-59087000D01*
X99427000Y-59087000D01*
X99427000Y-59107000D01*
X99173000Y-59107000D01*
X99173000Y-59087000D01*
X97929003Y-59087000D01*
X97808954Y-59324742D01*
X98062034Y-59867576D01*
X98198498Y-59992641D01*
X98152235Y-60001843D01*
X97942191Y-60142191D01*
X97801843Y-60352235D01*
X97752560Y-60600000D01*
X84412601Y-60600000D01*
X84886620Y-59890580D01*
X85071724Y-58960000D01*
X84886620Y-58029420D01*
X84359489Y-57240511D01*
X83570580Y-56713380D01*
X82874897Y-56575000D01*
X82405103Y-56575000D01*
X81709420Y-56713380D01*
X80920511Y-57240511D01*
X80393380Y-58029420D01*
X80208276Y-58960000D01*
X37324799Y-58960000D01*
X41144801Y-55139999D01*
X41625154Y-55139999D01*
X41700001Y-55154887D01*
X41774848Y-55139999D01*
X41774853Y-55139999D01*
X41996538Y-55095903D01*
X42172915Y-54978052D01*
X42358667Y-55015000D01*
X42641333Y-55015000D01*
X43059909Y-54931740D01*
X43534577Y-54614577D01*
X43851740Y-54139909D01*
X43963113Y-53580000D01*
X43851740Y-53020091D01*
X43534577Y-52545423D01*
X43059909Y-52228260D01*
X42641333Y-52145000D01*
X42358667Y-52145000D01*
X42300000Y-52156670D01*
X42300000Y-50597102D01*
X42322241Y-50582241D01*
X42562047Y-50223346D01*
X42625000Y-49906861D01*
X42625000Y-49093140D01*
X42562047Y-48776655D01*
X42322241Y-48417759D01*
X41963346Y-48177953D01*
X41540000Y-48093744D01*
X41116655Y-48177953D01*
X40905001Y-48319376D01*
X40693346Y-48177953D01*
X40270000Y-48093744D01*
X39846655Y-48177953D01*
X39791748Y-48214641D01*
X39697765Y-48151843D01*
X39450000Y-48102560D01*
X38550000Y-48102560D01*
X38302235Y-48151843D01*
X38092191Y-48292191D01*
X37951843Y-48502235D01*
X37902560Y-48750000D01*
X37902560Y-50250000D01*
X37951843Y-50497765D01*
X38092191Y-50707809D01*
X38240000Y-50806573D01*
X38240001Y-52168604D01*
X37940091Y-52228260D01*
X37465423Y-52545423D01*
X37148260Y-53020091D01*
X37036887Y-53580000D01*
X37148260Y-54139909D01*
X37465423Y-54614577D01*
X37940091Y-54931740D01*
X38358667Y-55015000D01*
X38641333Y-55015000D01*
X39059909Y-54931740D01*
X39492512Y-54642684D01*
X28260000Y-65875197D01*
X28260000Y-46814801D01*
X28814802Y-46260000D01*
X45525199Y-46260000D01*
X47367758Y-48102560D01*
X46550000Y-48102560D01*
X46302235Y-48151843D01*
X46092191Y-48292191D01*
X45951843Y-48502235D01*
X45902560Y-48750000D01*
X45902560Y-50250000D01*
X45951843Y-50497765D01*
X46092191Y-50707809D01*
X46240000Y-50806573D01*
X46240001Y-52168604D01*
X45940091Y-52228260D01*
X45465423Y-52545423D01*
X45148260Y-53020091D01*
X45036887Y-53580000D01*
X45148260Y-54139909D01*
X45465423Y-54614577D01*
X45940091Y-54931740D01*
X46358667Y-55015000D01*
X46641333Y-55015000D01*
X47059909Y-54931740D01*
X47534577Y-54614577D01*
X47851740Y-54139909D01*
X47963113Y-53580000D01*
X47851740Y-53020091D01*
X47760000Y-52882792D01*
X47760000Y-50806573D01*
X47791747Y-50785360D01*
X47846654Y-50822047D01*
X48270000Y-50906256D01*
X48693345Y-50822047D01*
X48780000Y-50764146D01*
X48780001Y-52545148D01*
X48765112Y-52620000D01*
X48824097Y-52916537D01*
X48933320Y-53080000D01*
X48992072Y-53167929D01*
X49055528Y-53210329D01*
X49101312Y-53256113D01*
X49036887Y-53580000D01*
X49148260Y-54139909D01*
X49465423Y-54614577D01*
X49940091Y-54931740D01*
X50358667Y-55015000D01*
X50641333Y-55015000D01*
X51059909Y-54931740D01*
X51534577Y-54614577D01*
X51851740Y-54139909D01*
X51963113Y-53580000D01*
X53036887Y-53580000D01*
X53148260Y-54139909D01*
X53465423Y-54614577D01*
X53940091Y-54931740D01*
X54358667Y-55015000D01*
X54641333Y-55015000D01*
X55059909Y-54931740D01*
X55534577Y-54614577D01*
X55851740Y-54139909D01*
X55963113Y-53580000D01*
X55851740Y-53020091D01*
X55835000Y-52995038D01*
X55835000Y-50814260D01*
X55846654Y-50822047D01*
X56270000Y-50906256D01*
X56693345Y-50822047D01*
X56705000Y-50814259D01*
X56705001Y-52537762D01*
X56688643Y-52620000D01*
X56753448Y-52945800D01*
X56753449Y-52945801D01*
X56938000Y-53222001D01*
X57007718Y-53268585D01*
X57083715Y-53344582D01*
X57036887Y-53580000D01*
X57148260Y-54139909D01*
X57465423Y-54614577D01*
X57940091Y-54931740D01*
X58358667Y-55015000D01*
X58641333Y-55015000D01*
X59059909Y-54931740D01*
X59534577Y-54614577D01*
X59851740Y-54139909D01*
X59963113Y-53580000D01*
X59851740Y-53020091D01*
X59534577Y-52545423D01*
X59059909Y-52228260D01*
X58641333Y-52145000D01*
X58375000Y-52145000D01*
X58375000Y-50503282D01*
X58562047Y-50223346D01*
X58625000Y-49906861D01*
X58625000Y-49093140D01*
X58562047Y-48776655D01*
X58322241Y-48417759D01*
X57963346Y-48177953D01*
X57540000Y-48093744D01*
X57116655Y-48177953D01*
X56905001Y-48319376D01*
X56693346Y-48177953D01*
X56270000Y-48093744D01*
X55846655Y-48177953D01*
X55791748Y-48214641D01*
X55697765Y-48151843D01*
X55450000Y-48102560D01*
X54550000Y-48102560D01*
X54302235Y-48151843D01*
X54092191Y-48292191D01*
X53951843Y-48502235D01*
X53902560Y-48750000D01*
X53902560Y-50250000D01*
X53951843Y-50497765D01*
X54092191Y-50707809D01*
X54165000Y-50756459D01*
X54165001Y-52183523D01*
X53940091Y-52228260D01*
X53465423Y-52545423D01*
X53148260Y-53020091D01*
X53036887Y-53580000D01*
X51963113Y-53580000D01*
X51851740Y-53020091D01*
X51534577Y-52545423D01*
X51059909Y-52228260D01*
X50641333Y-52145000D01*
X50358667Y-52145000D01*
X50300000Y-52156670D01*
X50300000Y-50597102D01*
X50322241Y-50582241D01*
X50562047Y-50223346D01*
X50625000Y-49906861D01*
X50625000Y-49093140D01*
X50562047Y-48776655D01*
X50322241Y-48417759D01*
X49963346Y-48177953D01*
X49540000Y-48093744D01*
X49513764Y-48098963D01*
X46674801Y-45260000D01*
X60525199Y-45260000D01*
X63367758Y-48102560D01*
X62550000Y-48102560D01*
X62302235Y-48151843D01*
X62092191Y-48292191D01*
X61951843Y-48502235D01*
X61902560Y-48750000D01*
X61902560Y-50250000D01*
X61951843Y-50497765D01*
X62092191Y-50707809D01*
X62165000Y-50756459D01*
X62165001Y-52183523D01*
X61940091Y-52228260D01*
X61465423Y-52545423D01*
X61148260Y-53020091D01*
X61036887Y-53580000D01*
X61148260Y-54139909D01*
X61465423Y-54614577D01*
X61940091Y-54931740D01*
X62358667Y-55015000D01*
X62641333Y-55015000D01*
X63059909Y-54931740D01*
X63534577Y-54614577D01*
X63851740Y-54139909D01*
X63963113Y-53580000D01*
X63851740Y-53020091D01*
X63835000Y-52995038D01*
X63835000Y-50814260D01*
X63846654Y-50822047D01*
X64270000Y-50906256D01*
X64693345Y-50822047D01*
X64705000Y-50814259D01*
X64705001Y-52537762D01*
X64688643Y-52620000D01*
X64753448Y-52945800D01*
X64753449Y-52945801D01*
X64938000Y-53222001D01*
X65007718Y-53268585D01*
X65083715Y-53344582D01*
X65036887Y-53580000D01*
X65148260Y-54139909D01*
X65465423Y-54614577D01*
X65940091Y-54931740D01*
X66358667Y-55015000D01*
X66641333Y-55015000D01*
X67059909Y-54931740D01*
X67534577Y-54614577D01*
X67851740Y-54139909D01*
X67963113Y-53580000D01*
X67851740Y-53020091D01*
X67534577Y-52545423D01*
X67059909Y-52228260D01*
X66641333Y-52145000D01*
X66375000Y-52145000D01*
X66375000Y-50503282D01*
X66562047Y-50223346D01*
X66625000Y-49906861D01*
X66625000Y-49093140D01*
X66562047Y-48776655D01*
X66322241Y-48417759D01*
X65963346Y-48177953D01*
X65540000Y-48093744D01*
X65513764Y-48098963D01*
X61541801Y-44127000D01*
X101373000Y-44127000D01*
X101373000Y-50909289D01*
G36*
X26942191Y-80707809D02*
X27152235Y-80848157D01*
X27197619Y-80857184D01*
X27179375Y-80869375D01*
X26851161Y-81360582D01*
X26735908Y-81940000D01*
X26851161Y-82519418D01*
X27179375Y-83010625D01*
X27477761Y-83210000D01*
X27179375Y-83409375D01*
X26851161Y-83900582D01*
X26735908Y-84480000D01*
X26851161Y-85059418D01*
X27179375Y-85550625D01*
X27670582Y-85878839D01*
X28103744Y-85965000D01*
X28396256Y-85965000D01*
X28829418Y-85878839D01*
X29320625Y-85550625D01*
X29521353Y-85250214D01*
X29908642Y-85675183D01*
X30433108Y-85921486D01*
X30663000Y-85800819D01*
X30663000Y-84607000D01*
X30917000Y-84607000D01*
X30917000Y-85800819D01*
X31146892Y-85921486D01*
X31671358Y-85675183D01*
X32061645Y-85246924D01*
X32231476Y-84836890D01*
X32110155Y-84607000D01*
X30917000Y-84607000D01*
X30663000Y-84607000D01*
X30643000Y-84607000D01*
X30643000Y-84353000D01*
X30663000Y-84353000D01*
X30663000Y-84333000D01*
X30917000Y-84333000D01*
X30917000Y-84353000D01*
X32110155Y-84353000D01*
X32231476Y-84123110D01*
X32061645Y-83713076D01*
X31951542Y-83592261D01*
X32638838Y-82904966D01*
X33955083Y-82904966D01*
X33892070Y-82947070D01*
X33849672Y-83010524D01*
X33015529Y-83844667D01*
X32952071Y-83887069D01*
X32784096Y-84138462D01*
X32740000Y-84360147D01*
X32740000Y-84360151D01*
X32725112Y-84434998D01*
X32740000Y-84509845D01*
X32740000Y-84962151D01*
X32725112Y-85036998D01*
X32740000Y-85111845D01*
X32740000Y-85111850D01*
X32784096Y-85333535D01*
X32952072Y-85584927D01*
X33015528Y-85627327D01*
X34423685Y-87035485D01*
X34187138Y-87133466D01*
X33783466Y-87537138D01*
X33565000Y-88064561D01*
X33565000Y-88635439D01*
X33783466Y-89162862D01*
X34187138Y-89566534D01*
X34423685Y-89664515D01*
X32348201Y-91740000D01*
X31420834Y-91740000D01*
X31453140Y-91632746D01*
X30625001Y-90804606D01*
X29796862Y-91632746D01*
X29829168Y-91740000D01*
X29039398Y-91740000D01*
X29341535Y-91437863D01*
X29368526Y-91372702D01*
X29371137Y-91379006D01*
X29617256Y-91453140D01*
X30445396Y-90625001D01*
X30804606Y-90625001D01*
X31632746Y-91453140D01*
X31878865Y-91379006D01*
X32071966Y-90841778D01*
X32044779Y-90271547D01*
X31878865Y-89870996D01*
X31632746Y-89796862D01*
X30804606Y-90625001D01*
X30445396Y-90625001D01*
X29617256Y-89796862D01*
X29371137Y-89870996D01*
X29368711Y-89877747D01*
X29341535Y-89812139D01*
X29146652Y-89617256D01*
X29796862Y-89617256D01*
X30625001Y-90445396D01*
X31453140Y-89617256D01*
X31379006Y-89371137D01*
X30841778Y-89178036D01*
X30271547Y-89205223D01*
X29870996Y-89371137D01*
X29796862Y-89617256D01*
X29146652Y-89617256D01*
X28937863Y-89408467D01*
X28410440Y-89190001D01*
X27839562Y-89190001D01*
X27312139Y-89408467D01*
X26908467Y-89812139D01*
X26690001Y-90339562D01*
X26690001Y-90910440D01*
X26908467Y-91437863D01*
X27246199Y-91775595D01*
X27203463Y-91784096D01*
X26952071Y-91952071D01*
X26909669Y-92015530D01*
X26740529Y-92184670D01*
X26677070Y-92227072D01*
X26509095Y-92478465D01*
X26464999Y-92700150D01*
X26464999Y-92700154D01*
X26450111Y-92775001D01*
X26464999Y-92849848D01*
X26465000Y-97821135D01*
X26334085Y-98017064D01*
X26289989Y-98238749D01*
X26289989Y-98238753D01*
X26275101Y-98313600D01*
X26289989Y-98388447D01*
X26289990Y-108111548D01*
X26275101Y-108186401D01*
X26309593Y-108359801D01*
X26134990Y-108185199D01*
X26134990Y-81489811D01*
X26932098Y-80692704D01*
X26942191Y-80707809D01*
X26942191Y-80707809D01*
G37*
X26942191Y-80707809D02*
X27152235Y-80848157D01*
X27197619Y-80857184D01*
X27179375Y-80869375D01*
X26851161Y-81360582D01*
X26735908Y-81940000D01*
X26851161Y-82519418D01*
X27179375Y-83010625D01*
X27477761Y-83210000D01*
X27179375Y-83409375D01*
X26851161Y-83900582D01*
X26735908Y-84480000D01*
X26851161Y-85059418D01*
X27179375Y-85550625D01*
X27670582Y-85878839D01*
X28103744Y-85965000D01*
X28396256Y-85965000D01*
X28829418Y-85878839D01*
X29320625Y-85550625D01*
X29521353Y-85250214D01*
X29908642Y-85675183D01*
X30433108Y-85921486D01*
X30663000Y-85800819D01*
X30663000Y-84607000D01*
X30917000Y-84607000D01*
X30917000Y-85800819D01*
X31146892Y-85921486D01*
X31671358Y-85675183D01*
X32061645Y-85246924D01*
X32231476Y-84836890D01*
X32110155Y-84607000D01*
X30917000Y-84607000D01*
X30663000Y-84607000D01*
X30643000Y-84607000D01*
X30643000Y-84353000D01*
X30663000Y-84353000D01*
X30663000Y-84333000D01*
X30917000Y-84333000D01*
X30917000Y-84353000D01*
X32110155Y-84353000D01*
X32231476Y-84123110D01*
X32061645Y-83713076D01*
X31951542Y-83592261D01*
X32638838Y-82904966D01*
X33955083Y-82904966D01*
X33892070Y-82947070D01*
X33849672Y-83010524D01*
X33015529Y-83844667D01*
X32952071Y-83887069D01*
X32784096Y-84138462D01*
X32740000Y-84360147D01*
X32740000Y-84360151D01*
X32725112Y-84434998D01*
X32740000Y-84509845D01*
X32740000Y-84962151D01*
X32725112Y-85036998D01*
X32740000Y-85111845D01*
X32740000Y-85111850D01*
X32784096Y-85333535D01*
X32952072Y-85584927D01*
X33015528Y-85627327D01*
X34423685Y-87035485D01*
X34187138Y-87133466D01*
X33783466Y-87537138D01*
X33565000Y-88064561D01*
X33565000Y-88635439D01*
X33783466Y-89162862D01*
X34187138Y-89566534D01*
X34423685Y-89664515D01*
X32348201Y-91740000D01*
X31420834Y-91740000D01*
X31453140Y-91632746D01*
X30625001Y-90804606D01*
X29796862Y-91632746D01*
X29829168Y-91740000D01*
X29039398Y-91740000D01*
X29341535Y-91437863D01*
X29368526Y-91372702D01*
X29371137Y-91379006D01*
X29617256Y-91453140D01*
X30445396Y-90625001D01*
X30804606Y-90625001D01*
X31632746Y-91453140D01*
X31878865Y-91379006D01*
X32071966Y-90841778D01*
X32044779Y-90271547D01*
X31878865Y-89870996D01*
X31632746Y-89796862D01*
X30804606Y-90625001D01*
X30445396Y-90625001D01*
X29617256Y-89796862D01*
X29371137Y-89870996D01*
X29368711Y-89877747D01*
X29341535Y-89812139D01*
X29146652Y-89617256D01*
X29796862Y-89617256D01*
X30625001Y-90445396D01*
X31453140Y-89617256D01*
X31379006Y-89371137D01*
X30841778Y-89178036D01*
X30271547Y-89205223D01*
X29870996Y-89371137D01*
X29796862Y-89617256D01*
X29146652Y-89617256D01*
X28937863Y-89408467D01*
X28410440Y-89190001D01*
X27839562Y-89190001D01*
X27312139Y-89408467D01*
X26908467Y-89812139D01*
X26690001Y-90339562D01*
X26690001Y-90910440D01*
X26908467Y-91437863D01*
X27246199Y-91775595D01*
X27203463Y-91784096D01*
X26952071Y-91952071D01*
X26909669Y-92015530D01*
X26740529Y-92184670D01*
X26677070Y-92227072D01*
X26509095Y-92478465D01*
X26464999Y-92700150D01*
X26464999Y-92700154D01*
X26450111Y-92775001D01*
X26464999Y-92849848D01*
X26465000Y-97821135D01*
X26334085Y-98017064D01*
X26289989Y-98238749D01*
X26289989Y-98238753D01*
X26275101Y-98313600D01*
X26289989Y-98388447D01*
X26289990Y-108111548D01*
X26275101Y-108186401D01*
X26309593Y-108359801D01*
X26134990Y-108185199D01*
X26134990Y-81489811D01*
X26932098Y-80692704D01*
X26942191Y-80707809D01*
G04 #@! TD*
M02*
