G04 #@! TF.GenerationSoftware,KiCad,Pcbnew,(5.0.0)*
G04 #@! TF.CreationDate,2019-04-03T17:17:35-07:00*
G04 #@! TF.ProjectId,kicad-control-board,6B696361642D636F6E74726F6C2D626F,rev?*
G04 #@! TF.SameCoordinates,Original*
G04 #@! TF.FileFunction,Soldermask,Bot*
G04 #@! TF.FilePolarity,Negative*
%FSLAX46Y46*%
G04 Gerber Fmt 4.6, Leading zero omitted, Abs format (unit mm)*
G04 Created by KiCad (PCBNEW (5.0.0)) date 04/03/19 17:17:35*
%MOMM*%
%LPD*%
G01*
G04 APERTURE LIST*
%ADD10C,1.924000*%
%ADD11O,2.000000X2.000000*%
%ADD12R,2.000000X2.000000*%
%ADD13O,2.100000X2.100000*%
%ADD14R,2.100000X2.100000*%
%ADD15O,1.800000X1.800000*%
%ADD16C,1.800000*%
%ADD17C,2.000000*%
%ADD18R,2.900000X3.400000*%
%ADD19C,2.400000*%
%ADD20R,2.400000X2.400000*%
%ADD21C,2.100000*%
%ADD22O,2.200000X2.200000*%
%ADD23R,2.200000X2.200000*%
%ADD24C,2.200000*%
%ADD25R,1.300000X1.900000*%
%ADD26O,1.300000X1.900000*%
%ADD27C,1.700000*%
G04 APERTURE END LIST*
D10*
G04 #@! TO.C,J3*
X52150000Y-30620000D03*
X54690000Y-30620000D03*
X57230000Y-30620000D03*
X59770000Y-30620000D03*
X62310000Y-30620000D03*
X64850000Y-30620000D03*
X64850000Y-15380000D03*
X62310000Y-15380000D03*
X59770000Y-15380000D03*
X57230000Y-15380000D03*
X54690000Y-15380000D03*
X52150000Y-15380000D03*
G04 #@! TD*
D11*
G04 #@! TO.C,U2*
X16000000Y-81280000D03*
X49020000Y-88900000D03*
X18540000Y-81280000D03*
X46480000Y-88900000D03*
X21080000Y-81280000D03*
X43940000Y-88900000D03*
X23620000Y-81280000D03*
X41400000Y-88900000D03*
X26160000Y-81280000D03*
X38860000Y-88900000D03*
X28700000Y-81280000D03*
X36320000Y-88900000D03*
X31240000Y-81280000D03*
X33780000Y-88900000D03*
X33780000Y-81280000D03*
X31240000Y-88900000D03*
X36320000Y-81280000D03*
X28700000Y-88900000D03*
X38860000Y-81280000D03*
X26160000Y-88900000D03*
X41400000Y-81280000D03*
X23620000Y-88900000D03*
X43940000Y-81280000D03*
X21080000Y-88900000D03*
X46480000Y-81280000D03*
X18540000Y-88900000D03*
X49020000Y-81280000D03*
D12*
X16000000Y-88900000D03*
G04 #@! TD*
D13*
G04 #@! TO.C,J2*
X62440000Y-103500000D03*
X64980000Y-103500000D03*
X67520000Y-103500000D03*
X70060000Y-103500000D03*
X72600000Y-103500000D03*
X75140000Y-103500000D03*
X77680000Y-103500000D03*
X80220000Y-103500000D03*
X82760000Y-103500000D03*
X85300000Y-103500000D03*
X87840000Y-103500000D03*
X90380000Y-103500000D03*
X92920000Y-103500000D03*
X95460000Y-103500000D03*
D14*
X98000000Y-103500000D03*
G04 #@! TD*
D15*
G04 #@! TO.C,R23*
X39600000Y-105620000D03*
D16*
X39600000Y-98000000D03*
G04 #@! TD*
D17*
G04 #@! TO.C,C1*
X59000000Y-81000000D03*
D12*
X61500000Y-81000000D03*
G04 #@! TD*
D18*
G04 #@! TO.C,SW3*
X28600000Y-20000000D03*
X17400000Y-20000000D03*
D19*
X25500000Y-27500000D03*
X23000000Y-27500000D03*
D20*
X20500000Y-27500000D03*
G04 #@! TD*
D21*
G04 #@! TO.C,S9*
X15500000Y-71450000D03*
X22000000Y-71450000D03*
X15500000Y-75950000D03*
X22000000Y-75950000D03*
G04 #@! TD*
D16*
G04 #@! TO.C,R14*
X54500000Y-34850000D03*
D15*
X54500000Y-42470000D03*
G04 #@! TD*
G04 #@! TO.C,R15*
X50500000Y-42470000D03*
D16*
X50500000Y-34850000D03*
G04 #@! TD*
G04 #@! TO.C,R16*
X46500000Y-34850000D03*
D15*
X46500000Y-42470000D03*
G04 #@! TD*
G04 #@! TO.C,R17*
X82620000Y-93000000D03*
D16*
X75000000Y-93000000D03*
G04 #@! TD*
G04 #@! TO.C,R19*
X34550000Y-105600000D03*
D15*
X34550000Y-97980000D03*
G04 #@! TD*
G04 #@! TO.C,R21*
X32050000Y-105570000D03*
D16*
X32050000Y-97950000D03*
G04 #@! TD*
G04 #@! TO.C,R26*
X32500000Y-32000000D03*
D15*
X24880000Y-32000000D03*
G04 #@! TD*
D16*
G04 #@! TO.C,R24*
X42050000Y-97950000D03*
D15*
X42050000Y-105570000D03*
G04 #@! TD*
G04 #@! TO.C,R25*
X14830000Y-32000000D03*
D16*
X22450000Y-32000000D03*
G04 #@! TD*
G04 #@! TO.C,R18*
X97900000Y-116600000D03*
D15*
X90280000Y-116600000D03*
G04 #@! TD*
G04 #@! TO.C,R13*
X90280000Y-119400000D03*
D16*
X97900000Y-119400000D03*
G04 #@! TD*
G04 #@! TO.C,R22*
X44450000Y-105600000D03*
D15*
X44450000Y-97980000D03*
G04 #@! TD*
G04 #@! TO.C,R1*
X97300000Y-52880000D03*
D16*
X97300000Y-60500000D03*
G04 #@! TD*
G04 #@! TO.C,R2*
X97300000Y-62900000D03*
D15*
X97300000Y-70520000D03*
G04 #@! TD*
G04 #@! TO.C,R3*
X70000000Y-81630000D03*
D16*
X70000000Y-89250000D03*
G04 #@! TD*
G04 #@! TO.C,R4*
X72500000Y-89250000D03*
D15*
X72500000Y-81630000D03*
G04 #@! TD*
G04 #@! TO.C,R5*
X68880000Y-34000000D03*
D16*
X76500000Y-34000000D03*
G04 #@! TD*
G04 #@! TO.C,R12*
X79500000Y-24000000D03*
D15*
X79500000Y-16380000D03*
G04 #@! TD*
G04 #@! TO.C,R8*
X91500000Y-16380000D03*
D16*
X91500000Y-24000000D03*
G04 #@! TD*
G04 #@! TO.C,R9*
X88500000Y-24000000D03*
D15*
X88500000Y-16380000D03*
G04 #@! TD*
G04 #@! TO.C,R10*
X85500000Y-16380000D03*
D16*
X85500000Y-24000000D03*
G04 #@! TD*
G04 #@! TO.C,R11*
X82500000Y-24000000D03*
D15*
X82500000Y-16380000D03*
G04 #@! TD*
G04 #@! TO.C,R20*
X29500000Y-105570000D03*
D16*
X29500000Y-97950000D03*
G04 #@! TD*
G04 #@! TO.C,R6*
X97500000Y-24000000D03*
D15*
X97500000Y-16380000D03*
G04 #@! TD*
G04 #@! TO.C,R7*
X94500000Y-16380000D03*
D16*
X94500000Y-24000000D03*
G04 #@! TD*
D17*
G04 #@! TO.C,C2*
X98400000Y-91325000D03*
X98400000Y-88825000D03*
G04 #@! TD*
G04 #@! TO.C,C3*
X100000000Y-37000000D03*
X97500000Y-37000000D03*
G04 #@! TD*
G04 #@! TO.C,C4*
X104000000Y-94000000D03*
D12*
X106500000Y-94000000D03*
G04 #@! TD*
D17*
G04 #@! TO.C,C5*
X55500000Y-85000000D03*
X53000000Y-85000000D03*
G04 #@! TD*
G04 #@! TO.C,C6*
X53000000Y-81000000D03*
X55500000Y-81000000D03*
G04 #@! TD*
G04 #@! TO.C,C7*
X104300000Y-33950000D03*
D12*
X106800000Y-33950000D03*
G04 #@! TD*
D17*
G04 #@! TO.C,C8*
X100000000Y-41000000D03*
X97500000Y-41000000D03*
G04 #@! TD*
G04 #@! TO.C,C9*
X98400000Y-85825000D03*
X98400000Y-83325000D03*
G04 #@! TD*
D20*
G04 #@! TO.C,D1*
X17430000Y-50950000D03*
D19*
X19970000Y-50950000D03*
G04 #@! TD*
D20*
G04 #@! TO.C,D2*
X27846326Y-50950000D03*
D19*
X30386326Y-50950000D03*
G04 #@! TD*
G04 #@! TO.C,D3*
X40802652Y-50950000D03*
D20*
X38262652Y-50950000D03*
G04 #@! TD*
D19*
G04 #@! TO.C,D4*
X51218978Y-50950000D03*
D20*
X48678978Y-50950000D03*
G04 #@! TD*
G04 #@! TO.C,D5*
X90344284Y-50950000D03*
D19*
X92884284Y-50950000D03*
G04 #@! TD*
D20*
G04 #@! TO.C,D6*
X79927956Y-50950000D03*
D19*
X82467956Y-50950000D03*
G04 #@! TD*
D20*
G04 #@! TO.C,D7*
X69511630Y-50950000D03*
D19*
X72051630Y-50950000D03*
G04 #@! TD*
D20*
G04 #@! TO.C,D8*
X59095304Y-50950000D03*
D19*
X61635304Y-50950000D03*
G04 #@! TD*
D20*
G04 #@! TO.C,D9*
X17430000Y-66450000D03*
D19*
X19970000Y-66450000D03*
G04 #@! TD*
D20*
G04 #@! TO.C,D10*
X27846326Y-66450000D03*
D19*
X30386326Y-66450000D03*
G04 #@! TD*
D20*
G04 #@! TO.C,D11*
X38262652Y-66450000D03*
D19*
X40802652Y-66450000D03*
G04 #@! TD*
D20*
G04 #@! TO.C,D12*
X48678978Y-66450000D03*
D19*
X51218978Y-66450000D03*
G04 #@! TD*
G04 #@! TO.C,D13*
X92884284Y-66450000D03*
D20*
X90344284Y-66450000D03*
G04 #@! TD*
D19*
G04 #@! TO.C,D14*
X82467956Y-66450000D03*
D20*
X79927956Y-66450000D03*
G04 #@! TD*
G04 #@! TO.C,D15*
X69511630Y-66450000D03*
D19*
X72051630Y-66450000D03*
G04 #@! TD*
D20*
G04 #@! TO.C,D16*
X59095304Y-66450000D03*
D19*
X61635304Y-66450000D03*
G04 #@! TD*
D20*
G04 #@! TO.C,D17*
X85230000Y-113000000D03*
D19*
X87770000Y-113000000D03*
G04 #@! TD*
G04 #@! TO.C,D18*
X84180000Y-97600000D03*
D20*
X86720000Y-97600000D03*
G04 #@! TD*
D22*
G04 #@! TO.C,D19*
X97970000Y-109000000D03*
D23*
X90350000Y-109000000D03*
G04 #@! TD*
D14*
G04 #@! TO.C,J1*
X64500000Y-46000000D03*
D13*
X61960000Y-46000000D03*
X59420000Y-46000000D03*
X56880000Y-46000000D03*
X54340000Y-46000000D03*
X51800000Y-46000000D03*
X49260000Y-46000000D03*
X46720000Y-46000000D03*
X44180000Y-46000000D03*
X41640000Y-46000000D03*
G04 #@! TD*
D24*
G04 #@! TO.C,J4*
X78500000Y-108080000D03*
X78500000Y-119480000D03*
X78500000Y-116380000D03*
G04 #@! TD*
G04 #@! TO.C,J5*
X66500000Y-108080000D03*
X66500000Y-119480000D03*
X66500000Y-116380000D03*
G04 #@! TD*
G04 #@! TO.C,J6*
X18500000Y-116380000D03*
X18500000Y-119480000D03*
X18500000Y-108080000D03*
G04 #@! TD*
G04 #@! TO.C,J7*
X54500000Y-116380000D03*
X54500000Y-119480000D03*
X54500000Y-108080000D03*
G04 #@! TD*
G04 #@! TO.C,J8*
X42500000Y-116380000D03*
X42500000Y-119480000D03*
X42500000Y-108080000D03*
G04 #@! TD*
G04 #@! TO.C,J9*
X30500000Y-108080000D03*
X30500000Y-119480000D03*
X30500000Y-116380000D03*
G04 #@! TD*
D25*
G04 #@! TO.C,Q1*
X35500000Y-16000000D03*
D26*
X38040000Y-16000000D03*
X36770000Y-16000000D03*
G04 #@! TD*
G04 #@! TO.C,Q2*
X36770000Y-23500000D03*
X38040000Y-23500000D03*
D25*
X35500000Y-23500000D03*
G04 #@! TD*
G04 #@! TO.C,Q3*
X35500000Y-31000000D03*
D26*
X38040000Y-31000000D03*
X36770000Y-31000000D03*
G04 #@! TD*
D25*
G04 #@! TO.C,Q4*
X30800000Y-94950000D03*
D26*
X33340000Y-94950000D03*
X32070000Y-94950000D03*
G04 #@! TD*
G04 #@! TO.C,Q5*
X41720000Y-94850000D03*
X42990000Y-94850000D03*
D25*
X40450000Y-94850000D03*
G04 #@! TD*
D19*
G04 #@! TO.C,RV1*
X109800000Y-20000000D03*
X100200000Y-20000000D03*
D27*
X107500000Y-27500000D03*
X105000000Y-27500000D03*
X102500000Y-27500000D03*
G04 #@! TD*
G04 #@! TO.C,RV2*
X102500000Y-58166666D03*
X105000000Y-58166666D03*
X107500000Y-58166666D03*
D19*
X100200000Y-50666666D03*
X109800000Y-50666666D03*
G04 #@! TD*
G04 #@! TO.C,RV3*
X109800000Y-81333332D03*
X100200000Y-81333332D03*
D27*
X107500000Y-88833332D03*
X105000000Y-88833332D03*
X102500000Y-88833332D03*
G04 #@! TD*
G04 #@! TO.C,RV4*
X102500000Y-119500000D03*
X105000000Y-119500000D03*
X107500000Y-119500000D03*
D19*
X100200000Y-112000000D03*
X109800000Y-112000000D03*
G04 #@! TD*
D21*
G04 #@! TO.C,S1*
X22000000Y-60450000D03*
X15500000Y-60450000D03*
X22000000Y-55950000D03*
X15500000Y-55950000D03*
G04 #@! TD*
G04 #@! TO.C,S2*
X25916326Y-55950000D03*
X32416326Y-55950000D03*
X25916326Y-60450000D03*
X32416326Y-60450000D03*
G04 #@! TD*
G04 #@! TO.C,S3*
X42832652Y-60450000D03*
X36332652Y-60450000D03*
X42832652Y-55950000D03*
X36332652Y-55950000D03*
G04 #@! TD*
G04 #@! TO.C,S4*
X53248978Y-60450000D03*
X46748978Y-60450000D03*
X53248978Y-55950000D03*
X46748978Y-55950000D03*
G04 #@! TD*
G04 #@! TO.C,S5*
X88414284Y-55950000D03*
X94914284Y-55950000D03*
X88414284Y-60450000D03*
X94914284Y-60450000D03*
G04 #@! TD*
G04 #@! TO.C,S6*
X77997956Y-55950000D03*
X84497956Y-55950000D03*
X77997956Y-60450000D03*
X84497956Y-60450000D03*
G04 #@! TD*
G04 #@! TO.C,S7*
X74081630Y-60450000D03*
X67581630Y-60450000D03*
X74081630Y-55950000D03*
X67581630Y-55950000D03*
G04 #@! TD*
G04 #@! TO.C,S8*
X57165304Y-55950000D03*
X63665304Y-55950000D03*
X57165304Y-60450000D03*
X63665304Y-60450000D03*
G04 #@! TD*
G04 #@! TO.C,S10*
X32416326Y-75950000D03*
X25916326Y-75950000D03*
X32416326Y-71450000D03*
X25916326Y-71450000D03*
G04 #@! TD*
G04 #@! TO.C,S11*
X36332652Y-71450000D03*
X42832652Y-71450000D03*
X36332652Y-75950000D03*
X42832652Y-75950000D03*
G04 #@! TD*
G04 #@! TO.C,S12*
X46748978Y-71450000D03*
X53248978Y-71450000D03*
X46748978Y-75950000D03*
X53248978Y-75950000D03*
G04 #@! TD*
G04 #@! TO.C,S13*
X94914284Y-75950000D03*
X88414284Y-75950000D03*
X94914284Y-71450000D03*
X88414284Y-71450000D03*
G04 #@! TD*
G04 #@! TO.C,S14*
X77997956Y-71450000D03*
X84497956Y-71450000D03*
X77997956Y-75950000D03*
X84497956Y-75950000D03*
G04 #@! TD*
G04 #@! TO.C,S15*
X74081630Y-75950000D03*
X67581630Y-75950000D03*
X74081630Y-71450000D03*
X67581630Y-71450000D03*
G04 #@! TD*
G04 #@! TO.C,S16*
X57165304Y-71450000D03*
X63665304Y-71450000D03*
X57165304Y-75950000D03*
X63665304Y-75950000D03*
G04 #@! TD*
G04 #@! TO.C,S17*
X35500000Y-38000000D03*
X42000000Y-38000000D03*
X35500000Y-42500000D03*
X42000000Y-42500000D03*
G04 #@! TD*
G04 #@! TO.C,S18*
X65000000Y-42500000D03*
X58500000Y-42500000D03*
X65000000Y-38000000D03*
X58500000Y-38000000D03*
G04 #@! TD*
G04 #@! TO.C,S19*
X85000000Y-42500000D03*
X78500000Y-42500000D03*
X85000000Y-38000000D03*
X78500000Y-38000000D03*
G04 #@! TD*
G04 #@! TO.C,S20*
X15500000Y-38000000D03*
X22000000Y-38000000D03*
X15500000Y-42500000D03*
X22000000Y-42500000D03*
G04 #@! TD*
G04 #@! TO.C,S21*
X73000000Y-95500000D03*
X79500000Y-95500000D03*
X73000000Y-100000000D03*
X79500000Y-100000000D03*
G04 #@! TD*
D19*
G04 #@! TO.C,SW1*
X18500000Y-96000000D03*
X23500000Y-96000000D03*
X23500000Y-101000000D03*
X18500000Y-101000000D03*
G04 #@! TD*
G04 #@! TO.C,SW2*
X50500000Y-101000000D03*
X55500000Y-101000000D03*
X55500000Y-96000000D03*
X50500000Y-96000000D03*
G04 #@! TD*
D11*
G04 #@! TO.C,U1*
X93400000Y-89020000D03*
X75620000Y-81400000D03*
X90860000Y-89020000D03*
X78160000Y-81400000D03*
X88320000Y-89020000D03*
X80700000Y-81400000D03*
X85780000Y-89020000D03*
X83240000Y-81400000D03*
X83240000Y-89020000D03*
X85780000Y-81400000D03*
X80700000Y-89020000D03*
X88320000Y-81400000D03*
X78160000Y-89020000D03*
X90860000Y-81400000D03*
X75620000Y-89020000D03*
D12*
X93400000Y-81400000D03*
G04 #@! TD*
G04 #@! TO.C,U3*
X97500000Y-26000000D03*
D11*
X79720000Y-33620000D03*
X94960000Y-26000000D03*
X82260000Y-33620000D03*
X92420000Y-26000000D03*
X84800000Y-33620000D03*
X89880000Y-26000000D03*
X87340000Y-33620000D03*
X87340000Y-26000000D03*
X89880000Y-33620000D03*
X84800000Y-26000000D03*
X92420000Y-33620000D03*
X82260000Y-26000000D03*
X94960000Y-33620000D03*
X79720000Y-26000000D03*
X97500000Y-33620000D03*
G04 #@! TD*
M02*
