G04 #@! TF.GenerationSoftware,KiCad,Pcbnew,(5.0.0)*
G04 #@! TF.CreationDate,2019-04-03T17:17:35-07:00*
G04 #@! TF.ProjectId,kicad-control-board,6B696361642D636F6E74726F6C2D626F,rev?*
G04 #@! TF.SameCoordinates,Original*
G04 #@! TF.FileFunction,Legend,Bot*
G04 #@! TF.FilePolarity,Positive*
%FSLAX46Y46*%
G04 Gerber Fmt 4.6, Leading zero omitted, Abs format (unit mm)*
G04 Created by KiCad (PCBNEW (5.0.0)) date 04/03/19 17:17:35*
%MOMM*%
%LPD*%
G01*
G04 APERTURE LIST*
%ADD10C,0.120000*%
%ADD11C,0.150000*%
G04 APERTURE END LIST*
D10*
G04 #@! TO.C,J2*
X99330000Y-104830000D02*
X99330000Y-103500000D01*
X98000000Y-104830000D02*
X99330000Y-104830000D01*
X96730000Y-104830000D02*
X96730000Y-102170000D01*
X96730000Y-102170000D02*
X61110000Y-102170000D01*
X96730000Y-104830000D02*
X61110000Y-104830000D01*
X61110000Y-104830000D02*
X61110000Y-102170000D01*
G04 #@! TO.C,J1*
X40310000Y-47330000D02*
X40310000Y-44670000D01*
X63230000Y-47330000D02*
X40310000Y-47330000D01*
X63230000Y-44670000D02*
X40310000Y-44670000D01*
X63230000Y-47330000D02*
X63230000Y-44670000D01*
X64500000Y-47330000D02*
X65830000Y-47330000D01*
X65830000Y-47330000D02*
X65830000Y-46000000D01*
G04 #@! TO.C,J2*
D11*
X99782380Y-103166666D02*
X100496666Y-103166666D01*
X100639523Y-103119047D01*
X100734761Y-103023809D01*
X100782380Y-102880952D01*
X100782380Y-102785714D01*
X99877619Y-103595238D02*
X99830000Y-103642857D01*
X99782380Y-103738095D01*
X99782380Y-103976190D01*
X99830000Y-104071428D01*
X99877619Y-104119047D01*
X99972857Y-104166666D01*
X100068095Y-104166666D01*
X100210952Y-104119047D01*
X100782380Y-103547619D01*
X100782380Y-104166666D01*
G04 #@! TO.C,J1*
X66282380Y-45666666D02*
X66996666Y-45666666D01*
X67139523Y-45619047D01*
X67234761Y-45523809D01*
X67282380Y-45380952D01*
X67282380Y-45285714D01*
X67282380Y-46666666D02*
X67282380Y-46095238D01*
X67282380Y-46380952D02*
X66282380Y-46380952D01*
X66425238Y-46285714D01*
X66520476Y-46190476D01*
X66568095Y-46095238D01*
G04 #@! TD*
M02*
