M48
;DRILL file {KiCad (5.0.0)} date 04/03/19 17:17:40
;FORMAT={-:-/ absolute / inch / decimal}
FMAT,2
INCH,TZ
T1C0.0236
T2C0.0276
T3C0.0315
T4C0.0354
T5C0.0394
T6C0.0394
T7C0.0433
T8C0.0630
T9C0.0709
T10C0.0787
T11C0.1260
%
G90
G05
M72
T1
X1.3976Y-1.2205
X1.3976Y-0.6299
X1.4476Y-0.6299
X1.4976Y-0.6299
X1.5925Y-3.7343
X1.6425Y-3.7343
X1.6925Y-3.7343
X1.3976Y-0.9252
X1.4476Y-0.9252
X1.4976Y-0.9252
X1.2126Y-3.7382
X1.2626Y-3.7382
X1.3126Y-3.7382
X1.4476Y-1.2205
X1.4976Y-1.2205
T2
X1.8307Y-1.372
X1.8307Y-1.672
X2.7118Y-1.3386
X3.0118Y-1.3386
X1.6555Y-3.8563
X1.6555Y-4.1563
X2.1457Y-1.372
X2.1457Y-1.672
X3.248Y-0.6449
X3.248Y-0.9449
X3.7205Y-0.6449
X3.7205Y-0.9449
X3.5543Y-4.5906
X3.8543Y-4.5906
X0.9795Y-1.2598
X1.2795Y-1.2598
X3.1299Y-0.6449
X3.1299Y-0.9449
X3.8386Y-0.6449
X3.8386Y-0.9449
X3.3661Y-0.6449
X3.3661Y-0.9449
X0.5839Y-1.2598
X0.8839Y-1.2598
X1.9882Y-1.372
X1.9882Y-1.672
X3.6024Y-0.6449
X3.6024Y-0.9449
X2.8543Y-3.2138
X2.8543Y-3.5138
X2.9528Y-3.6614
X3.2528Y-3.6614
X1.5591Y-3.8583
X1.5591Y-4.1583
X1.2618Y-3.8563
X1.2618Y-4.1563
X3.8307Y-2.4764
X3.8307Y-2.7764
X1.3602Y-3.8575
X1.3602Y-4.1575
X1.1614Y-3.8563
X1.1614Y-4.1563
X1.75Y-3.8575
X1.75Y-4.1575
X2.7559Y-3.2138
X2.7559Y-3.5138
X3.4843Y-0.6449
X3.4843Y-0.9449
X3.5543Y-4.7008
X3.8543Y-4.7008
X3.8307Y-2.0819
X3.8307Y-2.3819
T3
X2.0866Y-3.3465
X2.185Y-3.3465
X4.1063Y-1.3366
X4.2047Y-1.3366
X2.0866Y-3.189
X2.185Y-3.189
X0.6299Y-3.2
X0.6299Y-3.5
X0.7299Y-3.2
X0.7299Y-3.5
X0.8299Y-3.2
X0.8299Y-3.5
X0.9299Y-3.2
X0.9299Y-3.5
X1.0299Y-3.2
X1.0299Y-3.5
X1.1299Y-3.2
X1.1299Y-3.5
X1.2299Y-3.2
X1.2299Y-3.5
X1.3299Y-3.2
X1.3299Y-3.5
X1.4299Y-3.2
X1.4299Y-3.5
X1.5299Y-3.2
X1.5299Y-3.5
X1.6299Y-3.2
X1.6299Y-3.5
X1.7299Y-3.2
X1.7299Y-3.5
X1.8299Y-3.2
X1.8299Y-3.5
X1.9299Y-3.2
X1.9299Y-3.5
X2.9772Y-3.2047
X2.9772Y-3.5047
X3.0772Y-3.2047
X3.0772Y-3.5047
X3.1772Y-3.2047
X3.1772Y-3.5047
X3.2772Y-3.2047
X3.2772Y-3.5047
X3.3772Y-3.2047
X3.3772Y-3.5047
X3.4772Y-3.2047
X3.4772Y-3.5047
X3.5772Y-3.2047
X3.5772Y-3.5047
X3.6772Y-3.2047
X3.6772Y-3.5047
X3.1386Y-1.0236
X3.1386Y-1.3236
X3.2386Y-1.0236
X3.2386Y-1.3236
X3.3386Y-1.0236
X3.3386Y-1.3236
X3.4386Y-1.0236
X3.4386Y-1.3236
X3.5386Y-1.0236
X3.5386Y-1.3236
X3.6386Y-1.0236
X3.6386Y-1.3236
X3.7386Y-1.0236
X3.7386Y-1.3236
X3.8386Y-1.0236
X3.8386Y-1.3236
X2.3228Y-3.189
X2.4213Y-3.189
X3.8386Y-1.4567
X3.937Y-1.4567
X4.0945Y-3.7008
X4.1929Y-3.7008
X3.874Y-3.2805
X3.874Y-3.3789
X3.874Y-3.497
X3.874Y-3.5955
X3.8386Y-1.6142
X3.937Y-1.6142
T4
X3.5571Y-4.2913
X3.8571Y-4.2913
T5
X2.2506Y-2.2028
X2.2506Y-2.3799
X2.5065Y-2.2028
X2.5065Y-2.3799
X1.8405Y-2.813
X1.8405Y-2.9902
X2.0964Y-2.813
X2.0964Y-2.9902
X0.6102Y-2.2028
X0.6102Y-2.3799
X0.8661Y-2.2028
X0.8661Y-2.3799
X1.0203Y-2.2028
X1.0203Y-2.3799
X1.2762Y-2.2028
X1.2762Y-2.3799
X0.8071Y-1.0827
X0.9055Y-1.0827
X1.0039Y-1.0827
X1.4304Y-2.2028
X1.4304Y-2.3799
X1.6863Y-2.2028
X1.6863Y-2.3799
X3.0708Y-2.2028
X3.0708Y-2.3799
X3.3267Y-2.2028
X3.3267Y-2.3799
X4.0354Y-3.4974
X4.1339Y-3.4974
X4.2323Y-3.4974
X0.6102Y-2.813
X0.6102Y-2.9902
X0.8661Y-2.813
X0.8661Y-2.9902
X2.874Y-3.7598
X2.874Y-3.937
X3.1299Y-3.7598
X3.1299Y-3.937
X1.4304Y-2.813
X1.4304Y-2.9902
X1.6863Y-2.813
X1.6863Y-2.9902
X4.0354Y-1.0827
X4.1339Y-1.0827
X4.2323Y-1.0827
X4.0354Y-4.7047
X4.1339Y-4.7047
X4.2323Y-4.7047
X3.4809Y-2.2028
X3.4809Y-2.3799
X3.7368Y-2.2028
X3.7368Y-2.3799
X2.3031Y-1.4961
X2.3031Y-1.6732
X2.5591Y-1.4961
X2.5591Y-1.6732
X2.2506Y-2.813
X2.2506Y-2.9902
X2.5065Y-2.813
X2.5065Y-2.9902
X1.6394Y-1.811
X1.7394Y-1.811
X1.8394Y-1.811
X1.9394Y-1.811
X2.0394Y-1.811
X2.1394Y-1.811
X2.2394Y-1.811
X2.3394Y-1.811
X2.4394Y-1.811
X2.5394Y-1.811
X2.0531Y-0.6055
X2.0531Y-1.2055
X2.1531Y-0.6055
X2.1531Y-1.2055
X2.2531Y-0.6055
X2.2531Y-1.2055
X2.3531Y-0.6055
X2.3531Y-1.2055
X2.4531Y-0.6055
X2.4531Y-1.2055
X2.5531Y-0.6055
X2.5531Y-1.2055
X2.4583Y-4.0748
X2.5583Y-4.0748
X2.6583Y-4.0748
X2.7583Y-4.0748
X2.8583Y-4.0748
X2.9583Y-4.0748
X3.0583Y-4.0748
X3.1583Y-4.0748
X3.2583Y-4.0748
X3.3583Y-4.0748
X3.4583Y-4.0748
X3.5583Y-4.0748
X3.6583Y-4.0748
X3.7583Y-4.0748
X3.8583Y-4.0748
X0.6102Y-1.4961
X0.6102Y-1.6732
X0.8661Y-1.4961
X0.8661Y-1.6732
X1.3976Y-1.4961
X1.3976Y-1.6732
X1.6535Y-1.4961
X1.6535Y-1.6732
X3.4809Y-2.813
X3.4809Y-2.9902
X3.7368Y-2.813
X3.7368Y-2.9902
X4.0354Y-2.29
X4.1339Y-2.29
X4.2323Y-2.29
X3.0906Y-1.4961
X3.0906Y-1.6732
X3.3465Y-1.4961
X3.3465Y-1.6732
X3.0708Y-2.813
X3.0708Y-2.9902
X3.3267Y-2.813
X3.3267Y-2.9902
X1.8405Y-2.2028
X1.8405Y-2.3799
X2.0964Y-2.2028
X2.0964Y-2.3799
X2.6607Y-2.813
X2.6607Y-2.9902
X2.9166Y-2.813
X2.9166Y-2.9902
X1.0203Y-2.813
X1.0203Y-2.9902
X1.2762Y-2.813
X1.2762Y-2.9902
X2.6607Y-2.2028
X2.6607Y-2.3799
X2.9166Y-2.2028
X2.9166Y-2.3799
T6
X1.0963Y-2.0059
X1.1963Y-2.0059
X0.6862Y-2.6161
X0.7862Y-2.6161
X0.6862Y-2.0059
X0.7862Y-2.0059
X2.3266Y-2.6161
X2.4266Y-2.6161
X3.3142Y-3.8425
X3.4142Y-3.8425
X2.7367Y-2.6161
X2.8367Y-2.6161
X2.3266Y-2.0059
X2.4266Y-2.0059
X3.5569Y-2.6161
X3.6569Y-2.6161
X3.1468Y-2.0059
X3.2468Y-2.0059
X1.5064Y-2.6161
X1.6064Y-2.6161
X3.3555Y-4.4488
X3.4555Y-4.4488
X1.9165Y-2.6161
X2.0165Y-2.6161
X1.5064Y-2.0059
X1.6064Y-2.0059
X1.0963Y-2.6161
X1.1963Y-2.6161
X1.9165Y-2.0059
X2.0165Y-2.0059
X2.7367Y-2.0059
X2.8367Y-2.0059
X3.1468Y-2.6161
X3.2468Y-2.6161
X3.5569Y-2.0059
X3.6569Y-2.0059
T7
X1.9882Y-3.7795
X1.9882Y-3.9764
X2.185Y-3.7795
X2.185Y-3.9764
X0.7283Y-3.7795
X0.7283Y-3.9764
X0.9252Y-3.7795
X0.9252Y-3.9764
T8
X1.6732Y-4.2551
X1.6732Y-4.5819
X1.6732Y-4.7039
X3.0906Y-4.2551
X3.0906Y-4.5819
X3.0906Y-4.7039
X1.2008Y-4.2551
X1.2008Y-4.5819
X1.2008Y-4.7039
X2.1457Y-4.2551
X2.1457Y-4.5819
X2.1457Y-4.7039
X0.7283Y-4.2551
X0.7283Y-4.5819
X0.7283Y-4.7039
X2.6181Y-4.2551
X2.6181Y-4.5819
X2.6181Y-4.7039
T9
X3.9449Y-3.2021
X4.3228Y-3.2021
X3.9449Y-0.7874
X4.3228Y-0.7874
X3.9449Y-4.4094
X4.3228Y-4.4094
X3.9449Y-1.9948
X4.3228Y-1.9948
T11
X2.5591Y-3.3661
T10
X0.685Y-0.7972G85X0.685Y-0.7776
G05
X1.126Y-0.7972G85X1.126Y-0.7776
G05
T0
M30
