G04 #@! TF.GenerationSoftware,KiCad,Pcbnew,(5.1.2)-1*
G04 #@! TF.CreationDate,2019-12-10T17:17:08-08:00*
G04 #@! TF.ProjectId,kicad-control-board,6b696361-642d-4636-9f6e-74726f6c2d62,rev?*
G04 #@! TF.SameCoordinates,Original*
G04 #@! TF.FileFunction,Legend,Top*
G04 #@! TF.FilePolarity,Positive*
%FSLAX46Y46*%
G04 Gerber Fmt 4.6, Leading zero omitted, Abs format (unit mm)*
G04 Created by KiCad (PCBNEW (5.1.2)-1) date 2019-12-10 17:17:08*
%MOMM*%
%LPD*%
G04 APERTURE LIST*
%ADD10C,0.300000*%
%ADD11C,0.120000*%
%ADD12C,0.150000*%
G04 APERTURE END LIST*
D10*
X14657142Y-46657142D02*
X14871428Y-46728571D01*
X15228571Y-46728571D01*
X15371428Y-46657142D01*
X15442857Y-46585714D01*
X15514285Y-46442857D01*
X15514285Y-46300000D01*
X15442857Y-46157142D01*
X15371428Y-46085714D01*
X15228571Y-46014285D01*
X14942857Y-45942857D01*
X14799999Y-45871428D01*
X14728571Y-45800000D01*
X14657142Y-45657142D01*
X14657142Y-45514285D01*
X14728571Y-45371428D01*
X14799999Y-45300000D01*
X14942857Y-45228571D01*
X15299999Y-45228571D01*
X15514285Y-45300000D01*
X16157142Y-45228571D02*
X16157142Y-46442857D01*
X16228571Y-46585714D01*
X16299999Y-46657142D01*
X16442857Y-46728571D01*
X16728571Y-46728571D01*
X16871428Y-46657142D01*
X16942857Y-46585714D01*
X17014285Y-46442857D01*
X17014285Y-45228571D01*
X17728571Y-46728571D02*
X17728571Y-45228571D01*
X18299999Y-45228571D01*
X18442857Y-45300000D01*
X18514285Y-45371428D01*
X18585714Y-45514285D01*
X18585714Y-45728571D01*
X18514285Y-45871428D01*
X18442857Y-45942857D01*
X18299999Y-46014285D01*
X17728571Y-46014285D01*
X19228571Y-45942857D02*
X19728571Y-45942857D01*
X19942857Y-46728571D02*
X19228571Y-46728571D01*
X19228571Y-45228571D01*
X19942857Y-45228571D01*
X21442857Y-46728571D02*
X20942857Y-46014285D01*
X20585714Y-46728571D02*
X20585714Y-45228571D01*
X21157142Y-45228571D01*
X21299999Y-45300000D01*
X21371428Y-45371428D01*
X21442857Y-45514285D01*
X21442857Y-45728571D01*
X21371428Y-45871428D01*
X21299999Y-45942857D01*
X21157142Y-46014285D01*
X20585714Y-46014285D01*
X23157142Y-46657142D02*
X23371428Y-46728571D01*
X23728571Y-46728571D01*
X23871428Y-46657142D01*
X23942857Y-46585714D01*
X24014285Y-46442857D01*
X24014285Y-46300000D01*
X23942857Y-46157142D01*
X23871428Y-46085714D01*
X23728571Y-46014285D01*
X23442857Y-45942857D01*
X23300000Y-45871428D01*
X23228571Y-45800000D01*
X23157142Y-45657142D01*
X23157142Y-45514285D01*
X23228571Y-45371428D01*
X23300000Y-45300000D01*
X23442857Y-45228571D01*
X23800000Y-45228571D01*
X24014285Y-45300000D01*
X24657142Y-46728571D02*
X24657142Y-45228571D01*
X25228571Y-45228571D02*
X26228571Y-46728571D01*
X26228571Y-45228571D02*
X25228571Y-46728571D01*
X26585714Y-45228571D02*
X27442857Y-45228571D01*
X27014285Y-46728571D02*
X27014285Y-45228571D01*
X27942857Y-45942857D02*
X28442857Y-45942857D01*
X28657142Y-46728571D02*
X27942857Y-46728571D01*
X27942857Y-45228571D01*
X28657142Y-45228571D01*
X29300000Y-45942857D02*
X29800000Y-45942857D01*
X30014285Y-46728571D02*
X29300000Y-46728571D01*
X29300000Y-45228571D01*
X30014285Y-45228571D01*
X30657142Y-46728571D02*
X30657142Y-45228571D01*
X31514285Y-46728571D01*
X31514285Y-45228571D01*
X33228571Y-45728571D02*
X33585714Y-46728571D01*
X33942857Y-45728571D01*
X34442857Y-45371428D02*
X34514285Y-45300000D01*
X34657142Y-45228571D01*
X35014285Y-45228571D01*
X35157142Y-45300000D01*
X35228571Y-45371428D01*
X35299999Y-45514285D01*
X35299999Y-45657142D01*
X35228571Y-45871428D01*
X34371428Y-46728571D01*
X35299999Y-46728571D01*
X35942857Y-46585714D02*
X36014285Y-46657142D01*
X35942857Y-46728571D01*
X35871428Y-46657142D01*
X35942857Y-46585714D01*
X35942857Y-46728571D01*
X36942857Y-45228571D02*
X37085714Y-45228571D01*
X37228571Y-45300000D01*
X37299999Y-45371428D01*
X37371428Y-45514285D01*
X37442857Y-45800000D01*
X37442857Y-46157142D01*
X37371428Y-46442857D01*
X37299999Y-46585714D01*
X37228571Y-46657142D01*
X37085714Y-46728571D01*
X36942857Y-46728571D01*
X36799999Y-46657142D01*
X36728571Y-46585714D01*
X36657142Y-46442857D01*
X36585714Y-46157142D01*
X36585714Y-45800000D01*
X36657142Y-45514285D01*
X36728571Y-45371428D01*
X36799999Y-45300000D01*
X36942857Y-45228571D01*
X68421428Y-45942857D02*
X68921428Y-45942857D01*
X69135714Y-46728571D02*
X68421428Y-46728571D01*
X68421428Y-45228571D01*
X69135714Y-45228571D01*
X69635714Y-45228571D02*
X70635714Y-46728571D01*
X70635714Y-45228571D02*
X69635714Y-46728571D01*
X70992857Y-45228571D02*
X71850000Y-45228571D01*
X71421428Y-46728571D02*
X71421428Y-45228571D01*
X73207142Y-46728571D02*
X72707142Y-46014285D01*
X72350000Y-46728571D02*
X72350000Y-45228571D01*
X72921428Y-45228571D01*
X73064285Y-45300000D01*
X73135714Y-45371428D01*
X73207142Y-45514285D01*
X73207142Y-45728571D01*
X73135714Y-45871428D01*
X73064285Y-45942857D01*
X72921428Y-46014285D01*
X72350000Y-46014285D01*
X73778571Y-46300000D02*
X74492857Y-46300000D01*
X73635714Y-46728571D02*
X74135714Y-45228571D01*
X74635714Y-46728571D01*
X75850000Y-46728571D02*
X75135714Y-46728571D01*
X75135714Y-45228571D01*
X76350000Y-46728571D02*
X76350000Y-45228571D01*
X77564285Y-45942857D02*
X77064285Y-45942857D01*
X77064285Y-46728571D02*
X77064285Y-45228571D01*
X77778571Y-45228571D01*
X78350000Y-45942857D02*
X78850000Y-45942857D01*
X79064285Y-46728571D02*
X78350000Y-46728571D01*
X78350000Y-45228571D01*
X79064285Y-45228571D01*
X80850000Y-46728571D02*
X80850000Y-45228571D01*
X81564285Y-46728571D02*
X81564285Y-45228571D01*
X82421428Y-46728571D01*
X82421428Y-45228571D01*
X83064285Y-46657142D02*
X83278571Y-46728571D01*
X83635714Y-46728571D01*
X83778571Y-46657142D01*
X83850000Y-46585714D01*
X83921428Y-46442857D01*
X83921428Y-46300000D01*
X83850000Y-46157142D01*
X83778571Y-46085714D01*
X83635714Y-46014285D01*
X83350000Y-45942857D01*
X83207142Y-45871428D01*
X83135714Y-45800000D01*
X83064285Y-45657142D01*
X83064285Y-45514285D01*
X83135714Y-45371428D01*
X83207142Y-45300000D01*
X83350000Y-45228571D01*
X83707142Y-45228571D01*
X83921428Y-45300000D01*
X84350000Y-45228571D02*
X85207142Y-45228571D01*
X84778571Y-46728571D02*
X84778571Y-45228571D01*
X86564285Y-46728571D02*
X86064285Y-46014285D01*
X85707142Y-46728571D02*
X85707142Y-45228571D01*
X86278571Y-45228571D01*
X86421428Y-45300000D01*
X86492857Y-45371428D01*
X86564285Y-45514285D01*
X86564285Y-45728571D01*
X86492857Y-45871428D01*
X86421428Y-45942857D01*
X86278571Y-46014285D01*
X85707142Y-46014285D01*
X87207142Y-45228571D02*
X87207142Y-46442857D01*
X87278571Y-46585714D01*
X87350000Y-46657142D01*
X87492857Y-46728571D01*
X87778571Y-46728571D01*
X87921428Y-46657142D01*
X87992857Y-46585714D01*
X88064285Y-46442857D01*
X88064285Y-45228571D01*
X88778571Y-46728571D02*
X88778571Y-45228571D01*
X89278571Y-46300000D01*
X89778571Y-45228571D01*
X89778571Y-46728571D01*
X90492857Y-45942857D02*
X90992857Y-45942857D01*
X91207142Y-46728571D02*
X90492857Y-46728571D01*
X90492857Y-45228571D01*
X91207142Y-45228571D01*
X91850000Y-46728571D02*
X91850000Y-45228571D01*
X92707142Y-46728571D01*
X92707142Y-45228571D01*
X93207142Y-45228571D02*
X94064285Y-45228571D01*
X93635714Y-46728571D02*
X93635714Y-45228571D01*
X94492857Y-46657142D02*
X94707142Y-46728571D01*
X95064285Y-46728571D01*
X95207142Y-46657142D01*
X95278571Y-46585714D01*
X95350000Y-46442857D01*
X95350000Y-46300000D01*
X95278571Y-46157142D01*
X95207142Y-46085714D01*
X95064285Y-46014285D01*
X94778571Y-45942857D01*
X94635714Y-45871428D01*
X94564285Y-45800000D01*
X94492857Y-45657142D01*
X94492857Y-45514285D01*
X94564285Y-45371428D01*
X94635714Y-45300000D01*
X94778571Y-45228571D01*
X95135714Y-45228571D01*
X95350000Y-45300000D01*
X5221428Y-60928571D02*
X5221428Y-60071428D01*
X5221428Y-60500000D02*
X6721428Y-60500000D01*
X6507142Y-60357142D01*
X6364285Y-60214285D01*
X6292857Y-60071428D01*
X5221428Y-62357142D02*
X5221428Y-61500000D01*
X5221428Y-61928571D02*
X6721428Y-61928571D01*
X6507142Y-61785714D01*
X6364285Y-61642857D01*
X6292857Y-61500000D01*
X6721428Y-63285714D02*
X6721428Y-63428571D01*
X6650000Y-63571428D01*
X6578571Y-63642857D01*
X6435714Y-63714285D01*
X6150000Y-63785714D01*
X5792857Y-63785714D01*
X5507142Y-63714285D01*
X5364285Y-63642857D01*
X5292857Y-63571428D01*
X5221428Y-63428571D01*
X5221428Y-63285714D01*
X5292857Y-63142857D01*
X5364285Y-63071428D01*
X5507142Y-63000000D01*
X5792857Y-62928571D01*
X6150000Y-62928571D01*
X6435714Y-63000000D01*
X6578571Y-63071428D01*
X6650000Y-63142857D01*
X6721428Y-63285714D01*
X5364285Y-64428571D02*
X5292857Y-64500000D01*
X5221428Y-64428571D01*
X5292857Y-64357142D01*
X5364285Y-64428571D01*
X5221428Y-64428571D01*
X6721428Y-65428571D02*
X6721428Y-65571428D01*
X6650000Y-65714285D01*
X6578571Y-65785714D01*
X6435714Y-65857142D01*
X6150000Y-65928571D01*
X5792857Y-65928571D01*
X5507142Y-65857142D01*
X5364285Y-65785714D01*
X5292857Y-65714285D01*
X5221428Y-65571428D01*
X5221428Y-65428571D01*
X5292857Y-65285714D01*
X5364285Y-65214285D01*
X5507142Y-65142857D01*
X5792857Y-65071428D01*
X6150000Y-65071428D01*
X6435714Y-65142857D01*
X6578571Y-65214285D01*
X6650000Y-65285714D01*
X6721428Y-65428571D01*
X6721428Y-66857142D02*
X6721428Y-67000000D01*
X6650000Y-67142857D01*
X6578571Y-67214285D01*
X6435714Y-67285714D01*
X6150000Y-67357142D01*
X5792857Y-67357142D01*
X5507142Y-67285714D01*
X5364285Y-67214285D01*
X5292857Y-67142857D01*
X5221428Y-67000000D01*
X5221428Y-66857142D01*
X5292857Y-66714285D01*
X5364285Y-66642857D01*
X5507142Y-66571428D01*
X5792857Y-66500000D01*
X6150000Y-66500000D01*
X6435714Y-66571428D01*
X6578571Y-66642857D01*
X6650000Y-66714285D01*
X6721428Y-66857142D01*
X6721428Y-68285714D02*
X6721428Y-68428571D01*
X6650000Y-68571428D01*
X6578571Y-68642857D01*
X6435714Y-68714285D01*
X6150000Y-68785714D01*
X5792857Y-68785714D01*
X5507142Y-68714285D01*
X5364285Y-68642857D01*
X5292857Y-68571428D01*
X5221428Y-68428571D01*
X5221428Y-68285714D01*
X5292857Y-68142857D01*
X5364285Y-68071428D01*
X5507142Y-68000000D01*
X5792857Y-67928571D01*
X6150000Y-67928571D01*
X6435714Y-68000000D01*
X6578571Y-68071428D01*
X6650000Y-68142857D01*
X6721428Y-68285714D01*
X5221428Y-70571428D02*
X6221428Y-70571428D01*
X6078571Y-70571428D02*
X6149999Y-70642857D01*
X6221428Y-70785714D01*
X6221428Y-71000000D01*
X6149999Y-71142857D01*
X6007142Y-71214285D01*
X5221428Y-71214285D01*
X6007142Y-71214285D02*
X6149999Y-71285714D01*
X6221428Y-71428571D01*
X6221428Y-71642857D01*
X6149999Y-71785714D01*
X6007142Y-71857142D01*
X5221428Y-71857142D01*
X5221428Y-72571428D02*
X6221428Y-72571428D01*
X6078571Y-72571428D02*
X6149999Y-72642857D01*
X6221428Y-72785714D01*
X6221428Y-73000000D01*
X6149999Y-73142857D01*
X6007142Y-73214285D01*
X5221428Y-73214285D01*
X6007142Y-73214285D02*
X6149999Y-73285714D01*
X6221428Y-73428571D01*
X6221428Y-73642857D01*
X6149999Y-73785714D01*
X6007142Y-73857142D01*
X5221428Y-73857142D01*
X8000000Y-12000000D02*
X8000000Y-122000000D01*
X12000000Y-12000000D02*
X7413579Y-12000000D01*
X12000000Y-122000000D02*
X7413579Y-122000000D01*
X8000000Y-122000000D02*
X7413579Y-120873496D01*
X8000000Y-122000000D02*
X8586421Y-120873496D01*
X8000000Y-12000000D02*
X7413579Y-13126504D01*
X8000000Y-12000000D02*
X8586421Y-13126504D01*
X55928571Y-6578571D02*
X55071428Y-6578571D01*
X55500000Y-6578571D02*
X55500000Y-5078571D01*
X55357142Y-5292857D01*
X55214285Y-5435714D01*
X55071428Y-5507142D01*
X56857142Y-5078571D02*
X57000000Y-5078571D01*
X57142857Y-5150000D01*
X57214285Y-5221428D01*
X57285714Y-5364285D01*
X57357142Y-5650000D01*
X57357142Y-6007142D01*
X57285714Y-6292857D01*
X57214285Y-6435714D01*
X57142857Y-6507142D01*
X57000000Y-6578571D01*
X56857142Y-6578571D01*
X56714285Y-6507142D01*
X56642857Y-6435714D01*
X56571428Y-6292857D01*
X56500000Y-6007142D01*
X56500000Y-5650000D01*
X56571428Y-5364285D01*
X56642857Y-5221428D01*
X56714285Y-5150000D01*
X56857142Y-5078571D01*
X58285714Y-5078571D02*
X58428571Y-5078571D01*
X58571428Y-5150000D01*
X58642857Y-5221428D01*
X58714285Y-5364285D01*
X58785714Y-5650000D01*
X58785714Y-6007142D01*
X58714285Y-6292857D01*
X58642857Y-6435714D01*
X58571428Y-6507142D01*
X58428571Y-6578571D01*
X58285714Y-6578571D01*
X58142857Y-6507142D01*
X58071428Y-6435714D01*
X58000000Y-6292857D01*
X57928571Y-6007142D01*
X57928571Y-5650000D01*
X58000000Y-5364285D01*
X58071428Y-5221428D01*
X58142857Y-5150000D01*
X58285714Y-5078571D01*
X59428571Y-6435714D02*
X59500000Y-6507142D01*
X59428571Y-6578571D01*
X59357142Y-6507142D01*
X59428571Y-6435714D01*
X59428571Y-6578571D01*
X60428571Y-5078571D02*
X60571428Y-5078571D01*
X60714285Y-5150000D01*
X60785714Y-5221428D01*
X60857142Y-5364285D01*
X60928571Y-5650000D01*
X60928571Y-6007142D01*
X60857142Y-6292857D01*
X60785714Y-6435714D01*
X60714285Y-6507142D01*
X60571428Y-6578571D01*
X60428571Y-6578571D01*
X60285714Y-6507142D01*
X60214285Y-6435714D01*
X60142857Y-6292857D01*
X60071428Y-6007142D01*
X60071428Y-5650000D01*
X60142857Y-5364285D01*
X60214285Y-5221428D01*
X60285714Y-5150000D01*
X60428571Y-5078571D01*
X61857142Y-5078571D02*
X62000000Y-5078571D01*
X62142857Y-5150000D01*
X62214285Y-5221428D01*
X62285714Y-5364285D01*
X62357142Y-5650000D01*
X62357142Y-6007142D01*
X62285714Y-6292857D01*
X62214285Y-6435714D01*
X62142857Y-6507142D01*
X62000000Y-6578571D01*
X61857142Y-6578571D01*
X61714285Y-6507142D01*
X61642857Y-6435714D01*
X61571428Y-6292857D01*
X61500000Y-6007142D01*
X61500000Y-5650000D01*
X61571428Y-5364285D01*
X61642857Y-5221428D01*
X61714285Y-5150000D01*
X61857142Y-5078571D01*
X63285714Y-5078571D02*
X63428571Y-5078571D01*
X63571428Y-5150000D01*
X63642857Y-5221428D01*
X63714285Y-5364285D01*
X63785714Y-5650000D01*
X63785714Y-6007142D01*
X63714285Y-6292857D01*
X63642857Y-6435714D01*
X63571428Y-6507142D01*
X63428571Y-6578571D01*
X63285714Y-6578571D01*
X63142857Y-6507142D01*
X63071428Y-6435714D01*
X63000000Y-6292857D01*
X62928571Y-6007142D01*
X62928571Y-5650000D01*
X63000000Y-5364285D01*
X63071428Y-5221428D01*
X63142857Y-5150000D01*
X63285714Y-5078571D01*
X65571428Y-6578571D02*
X65571428Y-5578571D01*
X65571428Y-5721428D02*
X65642857Y-5650000D01*
X65785714Y-5578571D01*
X66000000Y-5578571D01*
X66142857Y-5650000D01*
X66214285Y-5792857D01*
X66214285Y-6578571D01*
X66214285Y-5792857D02*
X66285714Y-5650000D01*
X66428571Y-5578571D01*
X66642857Y-5578571D01*
X66785714Y-5650000D01*
X66857142Y-5792857D01*
X66857142Y-6578571D01*
X67571428Y-6578571D02*
X67571428Y-5578571D01*
X67571428Y-5721428D02*
X67642857Y-5650000D01*
X67785714Y-5578571D01*
X68000000Y-5578571D01*
X68142857Y-5650000D01*
X68214285Y-5792857D01*
X68214285Y-6578571D01*
X68214285Y-5792857D02*
X68285714Y-5650000D01*
X68428571Y-5578571D01*
X68642857Y-5578571D01*
X68785714Y-5650000D01*
X68857142Y-5792857D01*
X68857142Y-6578571D01*
X12000000Y-8000000D02*
X112000000Y-8000000D01*
X12000000Y-12000000D02*
X12000000Y-7413579D01*
X112000000Y-12000000D02*
X112000000Y-7413579D01*
X112000000Y-8000000D02*
X110873496Y-8586421D01*
X112000000Y-8000000D02*
X110873496Y-7413579D01*
X12000000Y-8000000D02*
X13126504Y-8586421D01*
X12000000Y-8000000D02*
X13126504Y-7413579D01*
D11*
X37300000Y-14150000D02*
X33700000Y-14150000D01*
X37824184Y-14877205D02*
G75*
G03X37300000Y-14150000I-2324184J-1122795D01*
G01*
X37856400Y-17098807D02*
G75*
G02X35500000Y-18600000I-2356400J1098807D01*
G01*
X33143600Y-17098807D02*
G75*
G03X35500000Y-18600000I2356400J1098807D01*
G01*
X33175816Y-14877205D02*
G75*
G02X33700000Y-14150000I2324184J-1122795D01*
G01*
X40181120Y-96731700D02*
X43781120Y-96731700D01*
X39656936Y-96004495D02*
G75*
G03X40181120Y-96731700I2324184J1122795D01*
G01*
X39624720Y-93782893D02*
G75*
G02X41981120Y-92281700I2356400J-1098807D01*
G01*
X44337520Y-93782893D02*
G75*
G03X41981120Y-92281700I-2356400J-1098807D01*
G01*
X44305304Y-96004495D02*
G75*
G02X43781120Y-96731700I-2324184J1122795D01*
G01*
X30295440Y-96752020D02*
X33895440Y-96752020D01*
X29771256Y-96024815D02*
G75*
G03X30295440Y-96752020I2324184J1122795D01*
G01*
X29739040Y-93803213D02*
G75*
G02X32095440Y-92302020I2356400J-1098807D01*
G01*
X34451840Y-93803213D02*
G75*
G03X32095440Y-92302020I-2356400J-1098807D01*
G01*
X34419624Y-96024815D02*
G75*
G02X33895440Y-96752020I-2324184J1122795D01*
G01*
X37260000Y-28400000D02*
X33660000Y-28400000D01*
X37784184Y-29127205D02*
G75*
G03X37260000Y-28400000I-2324184J-1122795D01*
G01*
X37816400Y-31348807D02*
G75*
G02X35460000Y-32850000I-2356400J1098807D01*
G01*
X33103600Y-31348807D02*
G75*
G03X35460000Y-32850000I2356400J1098807D01*
G01*
X33135816Y-29127205D02*
G75*
G02X33660000Y-28400000I2324184J-1122795D01*
G01*
X37260000Y-20900000D02*
X33660000Y-20900000D01*
X37784184Y-21627205D02*
G75*
G03X37260000Y-20900000I-2324184J-1122795D01*
G01*
X37816400Y-23848807D02*
G75*
G02X35460000Y-25350000I-2356400J1098807D01*
G01*
X33103600Y-23848807D02*
G75*
G03X35460000Y-25350000I2356400J1098807D01*
G01*
X33135816Y-21627205D02*
G75*
G02X33660000Y-20900000I2324184J-1122795D01*
G01*
X94310000Y-91190000D02*
X94310000Y-96310000D01*
X91690000Y-91190000D02*
X91690000Y-96310000D01*
X94310000Y-91190000D02*
X91690000Y-91190000D01*
X94310000Y-96310000D02*
X91690000Y-96310000D01*
X56349260Y-82407120D02*
X51229260Y-82407120D01*
X56349260Y-79787120D02*
X51229260Y-79787120D01*
X56349260Y-82407120D02*
X56349260Y-79787120D01*
X51229260Y-82407120D02*
X51229260Y-79787120D01*
X96190000Y-35690000D02*
X101310000Y-35690000D01*
X96190000Y-38310000D02*
X101310000Y-38310000D01*
X96190000Y-35690000D02*
X96190000Y-38310000D01*
X101310000Y-35690000D02*
X101310000Y-38310000D01*
X100039000Y-106440000D02*
X109960000Y-106440000D01*
X108325000Y-118560000D02*
X109960000Y-118560000D01*
X105825000Y-118560000D02*
X106675000Y-118560000D01*
X103325000Y-118560000D02*
X104175000Y-118560000D01*
X100039000Y-118560000D02*
X101675000Y-118560000D01*
X109960000Y-110305000D02*
X109960000Y-106440000D01*
X109960000Y-118560000D02*
X109960000Y-114694000D01*
X100039000Y-110305000D02*
X100039000Y-106440000D01*
X100039000Y-118560000D02*
X100039000Y-114694000D01*
X107297753Y-113928295D02*
G75*
G02X102702000Y-113928000I-2297753J1928295D01*
G01*
X102237568Y-110828018D02*
G75*
G02X107762000Y-110827000I2762432J-1171982D01*
G01*
X100039000Y-75690000D02*
X109960000Y-75690000D01*
X108325000Y-87810000D02*
X109960000Y-87810000D01*
X105825000Y-87810000D02*
X106675000Y-87810000D01*
X103325000Y-87810000D02*
X104175000Y-87810000D01*
X100039000Y-87810000D02*
X101675000Y-87810000D01*
X109960000Y-79555000D02*
X109960000Y-75690000D01*
X109960000Y-87810000D02*
X109960000Y-83944000D01*
X100039000Y-79555000D02*
X100039000Y-75690000D01*
X100039000Y-87810000D02*
X100039000Y-83944000D01*
X107297753Y-83178295D02*
G75*
G02X102702000Y-83178000I-2297753J1928295D01*
G01*
X102237568Y-80078018D02*
G75*
G02X107762000Y-80077000I2762432J-1171982D01*
G01*
X100039000Y-44940000D02*
X109960000Y-44940000D01*
X108325000Y-57060000D02*
X109960000Y-57060000D01*
X105825000Y-57060000D02*
X106675000Y-57060000D01*
X103325000Y-57060000D02*
X104175000Y-57060000D01*
X100039000Y-57060000D02*
X101675000Y-57060000D01*
X109960000Y-48805000D02*
X109960000Y-44940000D01*
X109960000Y-57060000D02*
X109960000Y-53194000D01*
X100039000Y-48805000D02*
X100039000Y-44940000D01*
X100039000Y-57060000D02*
X100039000Y-53194000D01*
X107297753Y-52428295D02*
G75*
G02X102702000Y-52428000I-2297753J1928295D01*
G01*
X102237568Y-49328018D02*
G75*
G02X107762000Y-49327000I2762432J-1171982D01*
G01*
X100039000Y-14190000D02*
X109960000Y-14190000D01*
X108325000Y-26310000D02*
X109960000Y-26310000D01*
X105825000Y-26310000D02*
X106675000Y-26310000D01*
X103325000Y-26310000D02*
X104175000Y-26310000D01*
X100039000Y-26310000D02*
X101675000Y-26310000D01*
X109960000Y-18055000D02*
X109960000Y-14190000D01*
X109960000Y-26310000D02*
X109960000Y-22444000D01*
X100039000Y-18055000D02*
X100039000Y-14190000D01*
X100039000Y-26310000D02*
X100039000Y-22444000D01*
X107297753Y-21678295D02*
G75*
G02X102702000Y-21678000I-2297753J1928295D01*
G01*
X102237568Y-18578018D02*
G75*
G02X107762000Y-18577000I2762432J-1171982D01*
G01*
X59070000Y-102170000D02*
X59070000Y-104830000D01*
X97230000Y-102170000D02*
X59070000Y-102170000D01*
X97230000Y-104830000D02*
X59070000Y-104830000D01*
X97230000Y-102170000D02*
X97230000Y-104830000D01*
X98500000Y-102170000D02*
X99830000Y-102170000D01*
X99830000Y-102170000D02*
X99830000Y-103500000D01*
X94730000Y-87860000D02*
X94730000Y-86210000D01*
X74290000Y-87860000D02*
X94730000Y-87860000D01*
X74290000Y-82560000D02*
X74290000Y-87860000D01*
X94730000Y-82560000D02*
X74290000Y-82560000D01*
X94730000Y-84210000D02*
X94730000Y-82560000D01*
X94730000Y-86210000D02*
G75*
G02X94730000Y-84210000I0J1000000D01*
G01*
X51413192Y-58200000D02*
G75*
G03X51413192Y-58200000I-1414214J0D01*
G01*
X47028978Y-61320000D02*
X52968978Y-61320000D01*
X47028978Y-55080000D02*
X52968978Y-55080000D01*
X46878978Y-59540000D02*
X46878978Y-56860000D01*
X53118978Y-56860000D02*
X53118978Y-59540000D01*
X30580540Y-73700000D02*
G75*
G03X30580540Y-73700000I-1414214J0D01*
G01*
X26196326Y-76820000D02*
X32136326Y-76820000D01*
X26196326Y-70580000D02*
X32136326Y-70580000D01*
X26046326Y-75040000D02*
X26046326Y-72360000D01*
X32286326Y-72360000D02*
X32286326Y-75040000D01*
X20164214Y-73700000D02*
G75*
G03X20164214Y-73700000I-1414214J0D01*
G01*
X15780000Y-76820000D02*
X21720000Y-76820000D01*
X15780000Y-70580000D02*
X21720000Y-70580000D01*
X15630000Y-75040000D02*
X15630000Y-72360000D01*
X21870000Y-72360000D02*
X21870000Y-75040000D01*
X61829518Y-58200000D02*
G75*
G03X61829518Y-58200000I-1414214J0D01*
G01*
X57445304Y-61320000D02*
X63385304Y-61320000D01*
X57445304Y-55080000D02*
X63385304Y-55080000D01*
X57295304Y-59540000D02*
X57295304Y-56860000D01*
X63535304Y-56860000D02*
X63535304Y-59540000D01*
X20164214Y-58200000D02*
G75*
G03X20164214Y-58200000I-1414214J0D01*
G01*
X15780000Y-61320000D02*
X21720000Y-61320000D01*
X15780000Y-55080000D02*
X21720000Y-55080000D01*
X15630000Y-59540000D02*
X15630000Y-56860000D01*
X21870000Y-56860000D02*
X21870000Y-59540000D01*
X30580540Y-58200000D02*
G75*
G03X30580540Y-58200000I-1414214J0D01*
G01*
X26196326Y-61320000D02*
X32136326Y-61320000D01*
X26196326Y-55080000D02*
X32136326Y-55080000D01*
X26046326Y-59540000D02*
X26046326Y-56860000D01*
X32286326Y-56860000D02*
X32286326Y-59540000D01*
X40996866Y-58200000D02*
G75*
G03X40996866Y-58200000I-1414214J0D01*
G01*
X36612652Y-61320000D02*
X42552652Y-61320000D01*
X36612652Y-55080000D02*
X42552652Y-55080000D01*
X36462652Y-59540000D02*
X36462652Y-56860000D01*
X42702652Y-56860000D02*
X42702652Y-59540000D01*
X93078498Y-58200000D02*
G75*
G03X93078498Y-58200000I-1414214J0D01*
G01*
X88694284Y-61320000D02*
X94634284Y-61320000D01*
X88694284Y-55080000D02*
X94634284Y-55080000D01*
X88544284Y-59540000D02*
X88544284Y-56860000D01*
X94784284Y-56860000D02*
X94784284Y-59540000D01*
X82662170Y-58200000D02*
G75*
G03X82662170Y-58200000I-1414214J0D01*
G01*
X78277956Y-61320000D02*
X84217956Y-61320000D01*
X78277956Y-55080000D02*
X84217956Y-55080000D01*
X78127956Y-59540000D02*
X78127956Y-56860000D01*
X84367956Y-56860000D02*
X84367956Y-59540000D01*
X72245844Y-58200000D02*
G75*
G03X72245844Y-58200000I-1414214J0D01*
G01*
X67861630Y-61320000D02*
X73801630Y-61320000D01*
X67861630Y-55080000D02*
X73801630Y-55080000D01*
X67711630Y-59540000D02*
X67711630Y-56860000D01*
X73951630Y-56860000D02*
X73951630Y-59540000D01*
X40996866Y-73700000D02*
G75*
G03X40996866Y-73700000I-1414214J0D01*
G01*
X36612652Y-76820000D02*
X42552652Y-76820000D01*
X36612652Y-70580000D02*
X42552652Y-70580000D01*
X36462652Y-75040000D02*
X36462652Y-72360000D01*
X42702652Y-72360000D02*
X42702652Y-75040000D01*
X51413192Y-73700000D02*
G75*
G03X51413192Y-73700000I-1414214J0D01*
G01*
X47028978Y-76820000D02*
X52968978Y-76820000D01*
X47028978Y-70580000D02*
X52968978Y-70580000D01*
X46878978Y-75040000D02*
X46878978Y-72360000D01*
X53118978Y-72360000D02*
X53118978Y-75040000D01*
X93078498Y-73700000D02*
G75*
G03X93078498Y-73700000I-1414214J0D01*
G01*
X88694284Y-76820000D02*
X94634284Y-76820000D01*
X88694284Y-70580000D02*
X94634284Y-70580000D01*
X88544284Y-75040000D02*
X88544284Y-72360000D01*
X94784284Y-72360000D02*
X94784284Y-75040000D01*
X82662170Y-73700000D02*
G75*
G03X82662170Y-73700000I-1414214J0D01*
G01*
X78277956Y-76820000D02*
X84217956Y-76820000D01*
X78277956Y-70580000D02*
X84217956Y-70580000D01*
X78127956Y-75040000D02*
X78127956Y-72360000D01*
X84367956Y-72360000D02*
X84367956Y-75040000D01*
X72245844Y-73700000D02*
G75*
G03X72245844Y-73700000I-1414214J0D01*
G01*
X67861630Y-76820000D02*
X73801630Y-76820000D01*
X67861630Y-70580000D02*
X73801630Y-70580000D01*
X67711630Y-75040000D02*
X67711630Y-72360000D01*
X73951630Y-72360000D02*
X73951630Y-75040000D01*
X61829518Y-73700000D02*
G75*
G03X61829518Y-73700000I-1414214J0D01*
G01*
X57445304Y-76820000D02*
X63385304Y-76820000D01*
X57445304Y-70580000D02*
X63385304Y-70580000D01*
X57295304Y-75040000D02*
X57295304Y-72360000D01*
X63535304Y-72360000D02*
X63535304Y-75040000D01*
X41164214Y-40250000D02*
G75*
G03X41164214Y-40250000I-1414214J0D01*
G01*
X36780000Y-43370000D02*
X42720000Y-43370000D01*
X36780000Y-37130000D02*
X42720000Y-37130000D01*
X36630000Y-41590000D02*
X36630000Y-38910000D01*
X42870000Y-38910000D02*
X42870000Y-41590000D01*
X62164214Y-40250000D02*
G75*
G03X62164214Y-40250000I-1414214J0D01*
G01*
X57780000Y-43370000D02*
X63720000Y-43370000D01*
X57780000Y-37130000D02*
X63720000Y-37130000D01*
X57630000Y-41590000D02*
X57630000Y-38910000D01*
X63870000Y-38910000D02*
X63870000Y-41590000D01*
X83164214Y-40250000D02*
G75*
G03X83164214Y-40250000I-1414214J0D01*
G01*
X78780000Y-43370000D02*
X84720000Y-43370000D01*
X78780000Y-37130000D02*
X84720000Y-37130000D01*
X78630000Y-41590000D02*
X78630000Y-38910000D01*
X84870000Y-38910000D02*
X84870000Y-41590000D01*
X20164214Y-40250000D02*
G75*
G03X20164214Y-40250000I-1414214J0D01*
G01*
X15780000Y-43370000D02*
X21720000Y-43370000D01*
X15780000Y-37130000D02*
X21720000Y-37130000D01*
X15630000Y-41590000D02*
X15630000Y-38910000D01*
X21870000Y-38910000D02*
X21870000Y-41590000D01*
X77664214Y-97750000D02*
G75*
G03X77664214Y-97750000I-1414214J0D01*
G01*
X79220000Y-94630000D02*
X73280000Y-94630000D01*
X79220000Y-100870000D02*
X73280000Y-100870000D01*
X79370000Y-96410000D02*
X79370000Y-99090000D01*
X73130000Y-99090000D02*
X73130000Y-96410000D01*
D12*
X39700000Y-13500000D02*
X77300000Y-13500000D01*
X77300000Y-13500000D02*
X77300000Y-32500000D01*
X39700000Y-32500000D02*
X77300000Y-32500000D01*
X39700000Y-13500000D02*
X39700000Y-32500000D01*
D11*
X14670000Y-82440000D02*
X14670000Y-84090000D01*
X50350000Y-82440000D02*
X14670000Y-82440000D01*
X50350000Y-87740000D02*
X50350000Y-82440000D01*
X14670000Y-87740000D02*
X50350000Y-87740000D01*
X14670000Y-86090000D02*
X14670000Y-87740000D01*
X14670000Y-84090000D02*
G75*
G02X14670000Y-86090000I0J-1000000D01*
G01*
X39600000Y-104740000D02*
X39600000Y-103670000D01*
X39600000Y-98880000D02*
X39600000Y-99950000D01*
X40460000Y-103670000D02*
X40460000Y-99950000D01*
X38740000Y-103670000D02*
X40460000Y-103670000D01*
X38740000Y-99950000D02*
X38740000Y-103670000D01*
X40460000Y-99950000D02*
X38740000Y-99950000D01*
X63100000Y-81650000D02*
X63100000Y-80350000D01*
X63700000Y-81000000D02*
X62500000Y-81000000D01*
X57049000Y-81468000D02*
X57049000Y-80532000D01*
X57089000Y-81676000D02*
X57089000Y-80324000D01*
X57129000Y-81834000D02*
X57129000Y-80166000D01*
X57169000Y-81966000D02*
X57169000Y-80034000D01*
X57209000Y-82081000D02*
X57209000Y-79919000D01*
X57249000Y-82184000D02*
X57249000Y-79816000D01*
X57289000Y-82278000D02*
X57289000Y-79722000D01*
X57329000Y-82364000D02*
X57329000Y-79636000D01*
X57369000Y-82445000D02*
X57369000Y-79555000D01*
X57409000Y-82520000D02*
X57409000Y-79480000D01*
X57449000Y-82591000D02*
X57449000Y-79409000D01*
X57489000Y-82658000D02*
X57489000Y-79342000D01*
X57529000Y-82721000D02*
X57529000Y-79279000D01*
X57569000Y-82781000D02*
X57569000Y-79219000D01*
X57609000Y-82839000D02*
X57609000Y-79161000D01*
X57649000Y-82894000D02*
X57649000Y-79106000D01*
X57689000Y-82946000D02*
X57689000Y-79054000D01*
X57729000Y-82997000D02*
X57729000Y-79003000D01*
X57769000Y-83045000D02*
X57769000Y-78955000D01*
X57809000Y-83092000D02*
X57809000Y-78908000D01*
X57849000Y-83137000D02*
X57849000Y-78863000D01*
X57889000Y-83180000D02*
X57889000Y-78820000D01*
X57929000Y-83222000D02*
X57929000Y-78778000D01*
X57969000Y-83262000D02*
X57969000Y-78738000D01*
X58009000Y-83301000D02*
X58009000Y-78699000D01*
X58049000Y-80020000D02*
X58049000Y-78661000D01*
X58049000Y-83339000D02*
X58049000Y-81980000D01*
X58089000Y-80020000D02*
X58089000Y-78625000D01*
X58089000Y-83375000D02*
X58089000Y-81980000D01*
X58129000Y-80020000D02*
X58129000Y-78589000D01*
X58129000Y-83411000D02*
X58129000Y-81980000D01*
X58169000Y-80020000D02*
X58169000Y-78555000D01*
X58169000Y-83445000D02*
X58169000Y-81980000D01*
X58209000Y-80020000D02*
X58209000Y-78522000D01*
X58209000Y-83478000D02*
X58209000Y-81980000D01*
X58249000Y-80020000D02*
X58249000Y-78490000D01*
X58249000Y-83510000D02*
X58249000Y-81980000D01*
X58289000Y-80020000D02*
X58289000Y-78460000D01*
X58289000Y-83540000D02*
X58289000Y-81980000D01*
X58329000Y-80020000D02*
X58329000Y-78430000D01*
X58329000Y-83570000D02*
X58329000Y-81980000D01*
X58369000Y-80020000D02*
X58369000Y-78401000D01*
X58369000Y-83599000D02*
X58369000Y-81980000D01*
X58409000Y-80020000D02*
X58409000Y-78373000D01*
X58409000Y-83627000D02*
X58409000Y-81980000D01*
X58449000Y-80020000D02*
X58449000Y-78346000D01*
X58449000Y-83654000D02*
X58449000Y-81980000D01*
X58489000Y-80020000D02*
X58489000Y-78319000D01*
X58489000Y-83681000D02*
X58489000Y-81980000D01*
X58529000Y-80020000D02*
X58529000Y-78294000D01*
X58529000Y-83706000D02*
X58529000Y-81980000D01*
X58569000Y-80020000D02*
X58569000Y-78269000D01*
X58569000Y-83731000D02*
X58569000Y-81980000D01*
X58609000Y-80020000D02*
X58609000Y-78245000D01*
X58609000Y-83755000D02*
X58609000Y-81980000D01*
X58649000Y-80020000D02*
X58649000Y-78222000D01*
X58649000Y-83778000D02*
X58649000Y-81980000D01*
X58689000Y-80020000D02*
X58689000Y-78200000D01*
X58689000Y-83800000D02*
X58689000Y-81980000D01*
X58729000Y-80020000D02*
X58729000Y-78178000D01*
X58729000Y-83822000D02*
X58729000Y-81980000D01*
X58769000Y-80020000D02*
X58769000Y-78157000D01*
X58769000Y-83843000D02*
X58769000Y-81980000D01*
X58809000Y-80020000D02*
X58809000Y-78137000D01*
X58809000Y-83863000D02*
X58809000Y-81980000D01*
X58849000Y-80020000D02*
X58849000Y-78118000D01*
X58849000Y-83882000D02*
X58849000Y-81980000D01*
X58889000Y-80020000D02*
X58889000Y-78099000D01*
X58889000Y-83901000D02*
X58889000Y-81980000D01*
X58929000Y-80020000D02*
X58929000Y-78081000D01*
X58929000Y-83919000D02*
X58929000Y-81980000D01*
X58969000Y-80020000D02*
X58969000Y-78063000D01*
X58969000Y-83937000D02*
X58969000Y-81980000D01*
X59009000Y-80020000D02*
X59009000Y-78046000D01*
X59009000Y-83954000D02*
X59009000Y-81980000D01*
X59049000Y-80020000D02*
X59049000Y-78030000D01*
X59049000Y-83970000D02*
X59049000Y-81980000D01*
X59089000Y-80020000D02*
X59089000Y-78014000D01*
X59089000Y-83986000D02*
X59089000Y-81980000D01*
X59129000Y-80020000D02*
X59129000Y-77999000D01*
X59129000Y-84001000D02*
X59129000Y-81980000D01*
X59169000Y-80020000D02*
X59169000Y-77985000D01*
X59169000Y-84015000D02*
X59169000Y-81980000D01*
X59209000Y-80020000D02*
X59209000Y-77971000D01*
X59209000Y-84029000D02*
X59209000Y-81980000D01*
X59249000Y-80020000D02*
X59249000Y-77958000D01*
X59249000Y-84042000D02*
X59249000Y-81980000D01*
X59289000Y-80020000D02*
X59289000Y-77945000D01*
X59289000Y-84055000D02*
X59289000Y-81980000D01*
X59329000Y-80020000D02*
X59329000Y-77933000D01*
X59329000Y-84067000D02*
X59329000Y-81980000D01*
X59369000Y-80020000D02*
X59369000Y-77921000D01*
X59369000Y-84079000D02*
X59369000Y-81980000D01*
X59409000Y-80020000D02*
X59409000Y-77910000D01*
X59409000Y-84090000D02*
X59409000Y-81980000D01*
X59449000Y-80020000D02*
X59449000Y-77900000D01*
X59449000Y-84100000D02*
X59449000Y-81980000D01*
X59489000Y-80020000D02*
X59489000Y-77890000D01*
X59489000Y-84110000D02*
X59489000Y-81980000D01*
X59529000Y-80020000D02*
X59529000Y-77881000D01*
X59529000Y-84119000D02*
X59529000Y-81980000D01*
X59570000Y-80020000D02*
X59570000Y-77872000D01*
X59570000Y-84128000D02*
X59570000Y-81980000D01*
X59610000Y-80020000D02*
X59610000Y-77863000D01*
X59610000Y-84137000D02*
X59610000Y-81980000D01*
X59650000Y-80020000D02*
X59650000Y-77856000D01*
X59650000Y-84144000D02*
X59650000Y-81980000D01*
X59690000Y-80020000D02*
X59690000Y-77848000D01*
X59690000Y-84152000D02*
X59690000Y-81980000D01*
X59730000Y-80020000D02*
X59730000Y-77842000D01*
X59730000Y-84158000D02*
X59730000Y-81980000D01*
X59770000Y-80020000D02*
X59770000Y-77835000D01*
X59770000Y-84165000D02*
X59770000Y-81980000D01*
X59810000Y-80020000D02*
X59810000Y-77830000D01*
X59810000Y-84170000D02*
X59810000Y-81980000D01*
X59850000Y-80020000D02*
X59850000Y-77824000D01*
X59850000Y-84176000D02*
X59850000Y-81980000D01*
X59890000Y-80020000D02*
X59890000Y-77820000D01*
X59890000Y-84180000D02*
X59890000Y-81980000D01*
X59930000Y-80020000D02*
X59930000Y-77815000D01*
X59930000Y-84185000D02*
X59930000Y-81980000D01*
X59970000Y-80020000D02*
X59970000Y-77812000D01*
X59970000Y-84188000D02*
X59970000Y-81980000D01*
X60010000Y-84192000D02*
X60010000Y-77808000D01*
X60050000Y-84194000D02*
X60050000Y-77806000D01*
X60090000Y-84197000D02*
X60090000Y-77803000D01*
X60130000Y-84198000D02*
X60130000Y-77802000D01*
X60170000Y-84200000D02*
X60170000Y-77800000D01*
X60210000Y-84200000D02*
X60210000Y-77800000D01*
X60250000Y-84200000D02*
X60250000Y-77800000D01*
X57232180Y-79820864D02*
G75*
G03X57232518Y-82180000I3017820J-1179136D01*
G01*
X57232180Y-79820864D02*
G75*
G02X63267482Y-79820000I3017820J-1179136D01*
G01*
X57232180Y-82179136D02*
G75*
G03X63267482Y-82180000I3017820J1179136D01*
G01*
X23000000Y-20500000D02*
X23000000Y-19500000D01*
X22500000Y-20000000D02*
X23500000Y-20000000D01*
X18900000Y-27200000D02*
X19200000Y-27500000D01*
X18900000Y-27800000D02*
X18900000Y-27200000D01*
X19200000Y-27500000D02*
X18900000Y-27800000D01*
X16700000Y-26700000D02*
X19200000Y-26700000D01*
X16700000Y-21900000D02*
X16700000Y-26700000D01*
X29300000Y-26700000D02*
X26500000Y-26700000D01*
X29300000Y-21800000D02*
X29300000Y-26700000D01*
X29300000Y-13300000D02*
X29300000Y-18200000D01*
X16700000Y-13300000D02*
X29300000Y-13300000D01*
X16700000Y-18200000D02*
X16700000Y-13300000D01*
X26000000Y-20000000D02*
G75*
G03X26000000Y-20000000I-3000000J0D01*
G01*
X55360000Y-36800000D02*
X53640000Y-36800000D01*
X53640000Y-36800000D02*
X53640000Y-40520000D01*
X53640000Y-40520000D02*
X55360000Y-40520000D01*
X55360000Y-40520000D02*
X55360000Y-36800000D01*
X54500000Y-35730000D02*
X54500000Y-36800000D01*
X54500000Y-41590000D02*
X54500000Y-40520000D01*
X50500000Y-41590000D02*
X50500000Y-40520000D01*
X50500000Y-35730000D02*
X50500000Y-36800000D01*
X51360000Y-40520000D02*
X51360000Y-36800000D01*
X49640000Y-40520000D02*
X51360000Y-40520000D01*
X49640000Y-36800000D02*
X49640000Y-40520000D01*
X51360000Y-36800000D02*
X49640000Y-36800000D01*
X47360000Y-36800000D02*
X45640000Y-36800000D01*
X45640000Y-36800000D02*
X45640000Y-40520000D01*
X45640000Y-40520000D02*
X47360000Y-40520000D01*
X47360000Y-40520000D02*
X47360000Y-36800000D01*
X46500000Y-35730000D02*
X46500000Y-36800000D01*
X46500000Y-41590000D02*
X46500000Y-40520000D01*
X81740000Y-93000000D02*
X80670000Y-93000000D01*
X75880000Y-93000000D02*
X76950000Y-93000000D01*
X80670000Y-92140000D02*
X76950000Y-92140000D01*
X80670000Y-93860000D02*
X80670000Y-92140000D01*
X76950000Y-93860000D02*
X80670000Y-93860000D01*
X76950000Y-92140000D02*
X76950000Y-93860000D01*
X33690000Y-103650000D02*
X35410000Y-103650000D01*
X35410000Y-103650000D02*
X35410000Y-99930000D01*
X35410000Y-99930000D02*
X33690000Y-99930000D01*
X33690000Y-99930000D02*
X33690000Y-103650000D01*
X34550000Y-104720000D02*
X34550000Y-103650000D01*
X34550000Y-98860000D02*
X34550000Y-99930000D01*
X32050000Y-104690000D02*
X32050000Y-103620000D01*
X32050000Y-98830000D02*
X32050000Y-99900000D01*
X32910000Y-103620000D02*
X32910000Y-99900000D01*
X31190000Y-103620000D02*
X32910000Y-103620000D01*
X31190000Y-99900000D02*
X31190000Y-103620000D01*
X32910000Y-99900000D02*
X31190000Y-99900000D01*
X42910000Y-99900000D02*
X41190000Y-99900000D01*
X41190000Y-99900000D02*
X41190000Y-103620000D01*
X41190000Y-103620000D02*
X42910000Y-103620000D01*
X42910000Y-103620000D02*
X42910000Y-99900000D01*
X42050000Y-98830000D02*
X42050000Y-99900000D01*
X42050000Y-104690000D02*
X42050000Y-103620000D01*
X95950000Y-117460000D02*
X95950000Y-115740000D01*
X95950000Y-115740000D02*
X92230000Y-115740000D01*
X92230000Y-115740000D02*
X92230000Y-117460000D01*
X92230000Y-117460000D02*
X95950000Y-117460000D01*
X97020000Y-116600000D02*
X95950000Y-116600000D01*
X91160000Y-116600000D02*
X92230000Y-116600000D01*
X91160000Y-119400000D02*
X92230000Y-119400000D01*
X97020000Y-119400000D02*
X95950000Y-119400000D01*
X92230000Y-120260000D02*
X95950000Y-120260000D01*
X92230000Y-118540000D02*
X92230000Y-120260000D01*
X95950000Y-118540000D02*
X92230000Y-118540000D01*
X95950000Y-120260000D02*
X95950000Y-118540000D01*
X43590000Y-103650000D02*
X45310000Y-103650000D01*
X45310000Y-103650000D02*
X45310000Y-99930000D01*
X45310000Y-99930000D02*
X43590000Y-99930000D01*
X43590000Y-99930000D02*
X43590000Y-103650000D01*
X44450000Y-104720000D02*
X44450000Y-103650000D01*
X44450000Y-98860000D02*
X44450000Y-99930000D01*
X97300000Y-53760000D02*
X97300000Y-54830000D01*
X97300000Y-59620000D02*
X97300000Y-58550000D01*
X96440000Y-54830000D02*
X96440000Y-58550000D01*
X98160000Y-54830000D02*
X96440000Y-54830000D01*
X98160000Y-58550000D02*
X98160000Y-54830000D01*
X96440000Y-58550000D02*
X98160000Y-58550000D01*
X98160000Y-64850000D02*
X96440000Y-64850000D01*
X96440000Y-64850000D02*
X96440000Y-68570000D01*
X96440000Y-68570000D02*
X98160000Y-68570000D01*
X98160000Y-68570000D02*
X98160000Y-64850000D01*
X97300000Y-63780000D02*
X97300000Y-64850000D01*
X97300000Y-69640000D02*
X97300000Y-68570000D01*
X70000000Y-82510000D02*
X70000000Y-83580000D01*
X70000000Y-88370000D02*
X70000000Y-87300000D01*
X69140000Y-83580000D02*
X69140000Y-87300000D01*
X70860000Y-83580000D02*
X69140000Y-83580000D01*
X70860000Y-87300000D02*
X70860000Y-83580000D01*
X69140000Y-87300000D02*
X70860000Y-87300000D01*
X71640000Y-87300000D02*
X73360000Y-87300000D01*
X73360000Y-87300000D02*
X73360000Y-83580000D01*
X73360000Y-83580000D02*
X71640000Y-83580000D01*
X71640000Y-83580000D02*
X71640000Y-87300000D01*
X72500000Y-88370000D02*
X72500000Y-87300000D01*
X72500000Y-82510000D02*
X72500000Y-83580000D01*
X69760000Y-34000000D02*
X70830000Y-34000000D01*
X75620000Y-34000000D02*
X74550000Y-34000000D01*
X70830000Y-34860000D02*
X74550000Y-34860000D01*
X70830000Y-33140000D02*
X70830000Y-34860000D01*
X74550000Y-33140000D02*
X70830000Y-33140000D01*
X74550000Y-34860000D02*
X74550000Y-33140000D01*
X78640000Y-21800000D02*
X80360000Y-21800000D01*
X80360000Y-21800000D02*
X80360000Y-18080000D01*
X80360000Y-18080000D02*
X78640000Y-18080000D01*
X78640000Y-18080000D02*
X78640000Y-21800000D01*
X79500000Y-22870000D02*
X79500000Y-21800000D01*
X79500000Y-17010000D02*
X79500000Y-18080000D01*
X91500000Y-17010000D02*
X91500000Y-18080000D01*
X91500000Y-22870000D02*
X91500000Y-21800000D01*
X90640000Y-18080000D02*
X90640000Y-21800000D01*
X92360000Y-18080000D02*
X90640000Y-18080000D01*
X92360000Y-21800000D02*
X92360000Y-18080000D01*
X90640000Y-21800000D02*
X92360000Y-21800000D01*
X87640000Y-21800000D02*
X89360000Y-21800000D01*
X89360000Y-21800000D02*
X89360000Y-18080000D01*
X89360000Y-18080000D02*
X87640000Y-18080000D01*
X87640000Y-18080000D02*
X87640000Y-21800000D01*
X88500000Y-22870000D02*
X88500000Y-21800000D01*
X88500000Y-17010000D02*
X88500000Y-18080000D01*
X85500000Y-17010000D02*
X85500000Y-18080000D01*
X85500000Y-22870000D02*
X85500000Y-21800000D01*
X84640000Y-18080000D02*
X84640000Y-21800000D01*
X86360000Y-18080000D02*
X84640000Y-18080000D01*
X86360000Y-21800000D02*
X86360000Y-18080000D01*
X84640000Y-21800000D02*
X86360000Y-21800000D01*
X81640000Y-21800000D02*
X83360000Y-21800000D01*
X83360000Y-21800000D02*
X83360000Y-18080000D01*
X83360000Y-18080000D02*
X81640000Y-18080000D01*
X81640000Y-18080000D02*
X81640000Y-21800000D01*
X82500000Y-22870000D02*
X82500000Y-21800000D01*
X82500000Y-17010000D02*
X82500000Y-18080000D01*
X29500000Y-104690000D02*
X29500000Y-103620000D01*
X29500000Y-98830000D02*
X29500000Y-99900000D01*
X30360000Y-103620000D02*
X30360000Y-99900000D01*
X28640000Y-103620000D02*
X30360000Y-103620000D01*
X28640000Y-99900000D02*
X28640000Y-103620000D01*
X30360000Y-99900000D02*
X28640000Y-99900000D01*
X96640000Y-21800000D02*
X98360000Y-21800000D01*
X98360000Y-21800000D02*
X98360000Y-18080000D01*
X98360000Y-18080000D02*
X96640000Y-18080000D01*
X96640000Y-18080000D02*
X96640000Y-21800000D01*
X97500000Y-22870000D02*
X97500000Y-21800000D01*
X97500000Y-17010000D02*
X97500000Y-18080000D01*
X94500000Y-17010000D02*
X94500000Y-18080000D01*
X94500000Y-22870000D02*
X94500000Y-21800000D01*
X93640000Y-18080000D02*
X93640000Y-21800000D01*
X95360000Y-18080000D02*
X93640000Y-18080000D01*
X95360000Y-21800000D02*
X95360000Y-18080000D01*
X93640000Y-21800000D02*
X95360000Y-21800000D01*
X99060000Y-96310000D02*
X96440000Y-96310000D01*
X99060000Y-91190000D02*
X96440000Y-91190000D01*
X96440000Y-91190000D02*
X96440000Y-96310000D01*
X99060000Y-91190000D02*
X99060000Y-96310000D01*
X108100000Y-94650000D02*
X108100000Y-93350000D01*
X108700000Y-94000000D02*
X107500000Y-94000000D01*
X102049000Y-94468000D02*
X102049000Y-93532000D01*
X102089000Y-94676000D02*
X102089000Y-93324000D01*
X102129000Y-94834000D02*
X102129000Y-93166000D01*
X102169000Y-94966000D02*
X102169000Y-93034000D01*
X102209000Y-95081000D02*
X102209000Y-92919000D01*
X102249000Y-95184000D02*
X102249000Y-92816000D01*
X102289000Y-95278000D02*
X102289000Y-92722000D01*
X102329000Y-95364000D02*
X102329000Y-92636000D01*
X102369000Y-95445000D02*
X102369000Y-92555000D01*
X102409000Y-95520000D02*
X102409000Y-92480000D01*
X102449000Y-95591000D02*
X102449000Y-92409000D01*
X102489000Y-95658000D02*
X102489000Y-92342000D01*
X102529000Y-95721000D02*
X102529000Y-92279000D01*
X102569000Y-95781000D02*
X102569000Y-92219000D01*
X102609000Y-95839000D02*
X102609000Y-92161000D01*
X102649000Y-95894000D02*
X102649000Y-92106000D01*
X102689000Y-95946000D02*
X102689000Y-92054000D01*
X102729000Y-95997000D02*
X102729000Y-92003000D01*
X102769000Y-96045000D02*
X102769000Y-91955000D01*
X102809000Y-96092000D02*
X102809000Y-91908000D01*
X102849000Y-96137000D02*
X102849000Y-91863000D01*
X102889000Y-96180000D02*
X102889000Y-91820000D01*
X102929000Y-96222000D02*
X102929000Y-91778000D01*
X102969000Y-96262000D02*
X102969000Y-91738000D01*
X103009000Y-96301000D02*
X103009000Y-91699000D01*
X103049000Y-93020000D02*
X103049000Y-91661000D01*
X103049000Y-96339000D02*
X103049000Y-94980000D01*
X103089000Y-93020000D02*
X103089000Y-91625000D01*
X103089000Y-96375000D02*
X103089000Y-94980000D01*
X103129000Y-93020000D02*
X103129000Y-91589000D01*
X103129000Y-96411000D02*
X103129000Y-94980000D01*
X103169000Y-93020000D02*
X103169000Y-91555000D01*
X103169000Y-96445000D02*
X103169000Y-94980000D01*
X103209000Y-93020000D02*
X103209000Y-91522000D01*
X103209000Y-96478000D02*
X103209000Y-94980000D01*
X103249000Y-93020000D02*
X103249000Y-91490000D01*
X103249000Y-96510000D02*
X103249000Y-94980000D01*
X103289000Y-93020000D02*
X103289000Y-91460000D01*
X103289000Y-96540000D02*
X103289000Y-94980000D01*
X103329000Y-93020000D02*
X103329000Y-91430000D01*
X103329000Y-96570000D02*
X103329000Y-94980000D01*
X103369000Y-93020000D02*
X103369000Y-91401000D01*
X103369000Y-96599000D02*
X103369000Y-94980000D01*
X103409000Y-93020000D02*
X103409000Y-91373000D01*
X103409000Y-96627000D02*
X103409000Y-94980000D01*
X103449000Y-93020000D02*
X103449000Y-91346000D01*
X103449000Y-96654000D02*
X103449000Y-94980000D01*
X103489000Y-93020000D02*
X103489000Y-91319000D01*
X103489000Y-96681000D02*
X103489000Y-94980000D01*
X103529000Y-93020000D02*
X103529000Y-91294000D01*
X103529000Y-96706000D02*
X103529000Y-94980000D01*
X103569000Y-93020000D02*
X103569000Y-91269000D01*
X103569000Y-96731000D02*
X103569000Y-94980000D01*
X103609000Y-93020000D02*
X103609000Y-91245000D01*
X103609000Y-96755000D02*
X103609000Y-94980000D01*
X103649000Y-93020000D02*
X103649000Y-91222000D01*
X103649000Y-96778000D02*
X103649000Y-94980000D01*
X103689000Y-93020000D02*
X103689000Y-91200000D01*
X103689000Y-96800000D02*
X103689000Y-94980000D01*
X103729000Y-93020000D02*
X103729000Y-91178000D01*
X103729000Y-96822000D02*
X103729000Y-94980000D01*
X103769000Y-93020000D02*
X103769000Y-91157000D01*
X103769000Y-96843000D02*
X103769000Y-94980000D01*
X103809000Y-93020000D02*
X103809000Y-91137000D01*
X103809000Y-96863000D02*
X103809000Y-94980000D01*
X103849000Y-93020000D02*
X103849000Y-91118000D01*
X103849000Y-96882000D02*
X103849000Y-94980000D01*
X103889000Y-93020000D02*
X103889000Y-91099000D01*
X103889000Y-96901000D02*
X103889000Y-94980000D01*
X103929000Y-93020000D02*
X103929000Y-91081000D01*
X103929000Y-96919000D02*
X103929000Y-94980000D01*
X103969000Y-93020000D02*
X103969000Y-91063000D01*
X103969000Y-96937000D02*
X103969000Y-94980000D01*
X104009000Y-93020000D02*
X104009000Y-91046000D01*
X104009000Y-96954000D02*
X104009000Y-94980000D01*
X104049000Y-93020000D02*
X104049000Y-91030000D01*
X104049000Y-96970000D02*
X104049000Y-94980000D01*
X104089000Y-93020000D02*
X104089000Y-91014000D01*
X104089000Y-96986000D02*
X104089000Y-94980000D01*
X104129000Y-93020000D02*
X104129000Y-90999000D01*
X104129000Y-97001000D02*
X104129000Y-94980000D01*
X104169000Y-93020000D02*
X104169000Y-90985000D01*
X104169000Y-97015000D02*
X104169000Y-94980000D01*
X104209000Y-93020000D02*
X104209000Y-90971000D01*
X104209000Y-97029000D02*
X104209000Y-94980000D01*
X104249000Y-93020000D02*
X104249000Y-90958000D01*
X104249000Y-97042000D02*
X104249000Y-94980000D01*
X104289000Y-93020000D02*
X104289000Y-90945000D01*
X104289000Y-97055000D02*
X104289000Y-94980000D01*
X104329000Y-93020000D02*
X104329000Y-90933000D01*
X104329000Y-97067000D02*
X104329000Y-94980000D01*
X104369000Y-93020000D02*
X104369000Y-90921000D01*
X104369000Y-97079000D02*
X104369000Y-94980000D01*
X104409000Y-93020000D02*
X104409000Y-90910000D01*
X104409000Y-97090000D02*
X104409000Y-94980000D01*
X104449000Y-93020000D02*
X104449000Y-90900000D01*
X104449000Y-97100000D02*
X104449000Y-94980000D01*
X104489000Y-93020000D02*
X104489000Y-90890000D01*
X104489000Y-97110000D02*
X104489000Y-94980000D01*
X104529000Y-93020000D02*
X104529000Y-90881000D01*
X104529000Y-97119000D02*
X104529000Y-94980000D01*
X104570000Y-93020000D02*
X104570000Y-90872000D01*
X104570000Y-97128000D02*
X104570000Y-94980000D01*
X104610000Y-93020000D02*
X104610000Y-90863000D01*
X104610000Y-97137000D02*
X104610000Y-94980000D01*
X104650000Y-93020000D02*
X104650000Y-90856000D01*
X104650000Y-97144000D02*
X104650000Y-94980000D01*
X104690000Y-93020000D02*
X104690000Y-90848000D01*
X104690000Y-97152000D02*
X104690000Y-94980000D01*
X104730000Y-93020000D02*
X104730000Y-90842000D01*
X104730000Y-97158000D02*
X104730000Y-94980000D01*
X104770000Y-93020000D02*
X104770000Y-90835000D01*
X104770000Y-97165000D02*
X104770000Y-94980000D01*
X104810000Y-93020000D02*
X104810000Y-90830000D01*
X104810000Y-97170000D02*
X104810000Y-94980000D01*
X104850000Y-93020000D02*
X104850000Y-90824000D01*
X104850000Y-97176000D02*
X104850000Y-94980000D01*
X104890000Y-93020000D02*
X104890000Y-90820000D01*
X104890000Y-97180000D02*
X104890000Y-94980000D01*
X104930000Y-93020000D02*
X104930000Y-90815000D01*
X104930000Y-97185000D02*
X104930000Y-94980000D01*
X104970000Y-93020000D02*
X104970000Y-90812000D01*
X104970000Y-97188000D02*
X104970000Y-94980000D01*
X105010000Y-97192000D02*
X105010000Y-90808000D01*
X105050000Y-97194000D02*
X105050000Y-90806000D01*
X105090000Y-97197000D02*
X105090000Y-90803000D01*
X105130000Y-97198000D02*
X105130000Y-90802000D01*
X105170000Y-97200000D02*
X105170000Y-90800000D01*
X105210000Y-97200000D02*
X105210000Y-90800000D01*
X105250000Y-97200000D02*
X105250000Y-90800000D01*
X102232180Y-92820864D02*
G75*
G03X102232518Y-95180000I3017820J-1179136D01*
G01*
X102232180Y-92820864D02*
G75*
G02X108267482Y-92820000I3017820J-1179136D01*
G01*
X102232180Y-95179136D02*
G75*
G03X108267482Y-95180000I3017820J1179136D01*
G01*
X56310000Y-86310000D02*
X51190000Y-86310000D01*
X56310000Y-83690000D02*
X51190000Y-83690000D01*
X56310000Y-86310000D02*
X56310000Y-83690000D01*
X51190000Y-86310000D02*
X51190000Y-83690000D01*
X108400000Y-34600000D02*
X108400000Y-33300000D01*
X109000000Y-33950000D02*
X107800000Y-33950000D01*
X102349000Y-34418000D02*
X102349000Y-33482000D01*
X102389000Y-34626000D02*
X102389000Y-33274000D01*
X102429000Y-34784000D02*
X102429000Y-33116000D01*
X102469000Y-34916000D02*
X102469000Y-32984000D01*
X102509000Y-35031000D02*
X102509000Y-32869000D01*
X102549000Y-35134000D02*
X102549000Y-32766000D01*
X102589000Y-35228000D02*
X102589000Y-32672000D01*
X102629000Y-35314000D02*
X102629000Y-32586000D01*
X102669000Y-35395000D02*
X102669000Y-32505000D01*
X102709000Y-35470000D02*
X102709000Y-32430000D01*
X102749000Y-35541000D02*
X102749000Y-32359000D01*
X102789000Y-35608000D02*
X102789000Y-32292000D01*
X102829000Y-35671000D02*
X102829000Y-32229000D01*
X102869000Y-35731000D02*
X102869000Y-32169000D01*
X102909000Y-35789000D02*
X102909000Y-32111000D01*
X102949000Y-35844000D02*
X102949000Y-32056000D01*
X102989000Y-35896000D02*
X102989000Y-32004000D01*
X103029000Y-35947000D02*
X103029000Y-31953000D01*
X103069000Y-35995000D02*
X103069000Y-31905000D01*
X103109000Y-36042000D02*
X103109000Y-31858000D01*
X103149000Y-36087000D02*
X103149000Y-31813000D01*
X103189000Y-36130000D02*
X103189000Y-31770000D01*
X103229000Y-36172000D02*
X103229000Y-31728000D01*
X103269000Y-36212000D02*
X103269000Y-31688000D01*
X103309000Y-36251000D02*
X103309000Y-31649000D01*
X103349000Y-32970000D02*
X103349000Y-31611000D01*
X103349000Y-36289000D02*
X103349000Y-34930000D01*
X103389000Y-32970000D02*
X103389000Y-31575000D01*
X103389000Y-36325000D02*
X103389000Y-34930000D01*
X103429000Y-32970000D02*
X103429000Y-31539000D01*
X103429000Y-36361000D02*
X103429000Y-34930000D01*
X103469000Y-32970000D02*
X103469000Y-31505000D01*
X103469000Y-36395000D02*
X103469000Y-34930000D01*
X103509000Y-32970000D02*
X103509000Y-31472000D01*
X103509000Y-36428000D02*
X103509000Y-34930000D01*
X103549000Y-32970000D02*
X103549000Y-31440000D01*
X103549000Y-36460000D02*
X103549000Y-34930000D01*
X103589000Y-32970000D02*
X103589000Y-31410000D01*
X103589000Y-36490000D02*
X103589000Y-34930000D01*
X103629000Y-32970000D02*
X103629000Y-31380000D01*
X103629000Y-36520000D02*
X103629000Y-34930000D01*
X103669000Y-32970000D02*
X103669000Y-31351000D01*
X103669000Y-36549000D02*
X103669000Y-34930000D01*
X103709000Y-32970000D02*
X103709000Y-31323000D01*
X103709000Y-36577000D02*
X103709000Y-34930000D01*
X103749000Y-32970000D02*
X103749000Y-31296000D01*
X103749000Y-36604000D02*
X103749000Y-34930000D01*
X103789000Y-32970000D02*
X103789000Y-31269000D01*
X103789000Y-36631000D02*
X103789000Y-34930000D01*
X103829000Y-32970000D02*
X103829000Y-31244000D01*
X103829000Y-36656000D02*
X103829000Y-34930000D01*
X103869000Y-32970000D02*
X103869000Y-31219000D01*
X103869000Y-36681000D02*
X103869000Y-34930000D01*
X103909000Y-32970000D02*
X103909000Y-31195000D01*
X103909000Y-36705000D02*
X103909000Y-34930000D01*
X103949000Y-32970000D02*
X103949000Y-31172000D01*
X103949000Y-36728000D02*
X103949000Y-34930000D01*
X103989000Y-32970000D02*
X103989000Y-31150000D01*
X103989000Y-36750000D02*
X103989000Y-34930000D01*
X104029000Y-32970000D02*
X104029000Y-31128000D01*
X104029000Y-36772000D02*
X104029000Y-34930000D01*
X104069000Y-32970000D02*
X104069000Y-31107000D01*
X104069000Y-36793000D02*
X104069000Y-34930000D01*
X104109000Y-32970000D02*
X104109000Y-31087000D01*
X104109000Y-36813000D02*
X104109000Y-34930000D01*
X104149000Y-32970000D02*
X104149000Y-31068000D01*
X104149000Y-36832000D02*
X104149000Y-34930000D01*
X104189000Y-32970000D02*
X104189000Y-31049000D01*
X104189000Y-36851000D02*
X104189000Y-34930000D01*
X104229000Y-32970000D02*
X104229000Y-31031000D01*
X104229000Y-36869000D02*
X104229000Y-34930000D01*
X104269000Y-32970000D02*
X104269000Y-31013000D01*
X104269000Y-36887000D02*
X104269000Y-34930000D01*
X104309000Y-32970000D02*
X104309000Y-30996000D01*
X104309000Y-36904000D02*
X104309000Y-34930000D01*
X104349000Y-32970000D02*
X104349000Y-30980000D01*
X104349000Y-36920000D02*
X104349000Y-34930000D01*
X104389000Y-32970000D02*
X104389000Y-30964000D01*
X104389000Y-36936000D02*
X104389000Y-34930000D01*
X104429000Y-32970000D02*
X104429000Y-30949000D01*
X104429000Y-36951000D02*
X104429000Y-34930000D01*
X104469000Y-32970000D02*
X104469000Y-30935000D01*
X104469000Y-36965000D02*
X104469000Y-34930000D01*
X104509000Y-32970000D02*
X104509000Y-30921000D01*
X104509000Y-36979000D02*
X104509000Y-34930000D01*
X104549000Y-32970000D02*
X104549000Y-30908000D01*
X104549000Y-36992000D02*
X104549000Y-34930000D01*
X104589000Y-32970000D02*
X104589000Y-30895000D01*
X104589000Y-37005000D02*
X104589000Y-34930000D01*
X104629000Y-32970000D02*
X104629000Y-30883000D01*
X104629000Y-37017000D02*
X104629000Y-34930000D01*
X104669000Y-32970000D02*
X104669000Y-30871000D01*
X104669000Y-37029000D02*
X104669000Y-34930000D01*
X104709000Y-32970000D02*
X104709000Y-30860000D01*
X104709000Y-37040000D02*
X104709000Y-34930000D01*
X104749000Y-32970000D02*
X104749000Y-30850000D01*
X104749000Y-37050000D02*
X104749000Y-34930000D01*
X104789000Y-32970000D02*
X104789000Y-30840000D01*
X104789000Y-37060000D02*
X104789000Y-34930000D01*
X104829000Y-32970000D02*
X104829000Y-30831000D01*
X104829000Y-37069000D02*
X104829000Y-34930000D01*
X104870000Y-32970000D02*
X104870000Y-30822000D01*
X104870000Y-37078000D02*
X104870000Y-34930000D01*
X104910000Y-32970000D02*
X104910000Y-30813000D01*
X104910000Y-37087000D02*
X104910000Y-34930000D01*
X104950000Y-32970000D02*
X104950000Y-30806000D01*
X104950000Y-37094000D02*
X104950000Y-34930000D01*
X104990000Y-32970000D02*
X104990000Y-30798000D01*
X104990000Y-37102000D02*
X104990000Y-34930000D01*
X105030000Y-32970000D02*
X105030000Y-30792000D01*
X105030000Y-37108000D02*
X105030000Y-34930000D01*
X105070000Y-32970000D02*
X105070000Y-30785000D01*
X105070000Y-37115000D02*
X105070000Y-34930000D01*
X105110000Y-32970000D02*
X105110000Y-30780000D01*
X105110000Y-37120000D02*
X105110000Y-34930000D01*
X105150000Y-32970000D02*
X105150000Y-30774000D01*
X105150000Y-37126000D02*
X105150000Y-34930000D01*
X105190000Y-32970000D02*
X105190000Y-30770000D01*
X105190000Y-37130000D02*
X105190000Y-34930000D01*
X105230000Y-32970000D02*
X105230000Y-30765000D01*
X105230000Y-37135000D02*
X105230000Y-34930000D01*
X105270000Y-32970000D02*
X105270000Y-30762000D01*
X105270000Y-37138000D02*
X105270000Y-34930000D01*
X105310000Y-37142000D02*
X105310000Y-30758000D01*
X105350000Y-37144000D02*
X105350000Y-30756000D01*
X105390000Y-37147000D02*
X105390000Y-30753000D01*
X105430000Y-37148000D02*
X105430000Y-30752000D01*
X105470000Y-37150000D02*
X105470000Y-30750000D01*
X105510000Y-37150000D02*
X105510000Y-30750000D01*
X105550000Y-37150000D02*
X105550000Y-30750000D01*
X102532180Y-32770864D02*
G75*
G03X102532518Y-35130000I3017820J-1179136D01*
G01*
X102532180Y-32770864D02*
G75*
G02X108567482Y-32770000I3017820J-1179136D01*
G01*
X102532180Y-35129136D02*
G75*
G03X108567482Y-35130000I3017820J1179136D01*
G01*
X101310000Y-39690000D02*
X101310000Y-42310000D01*
X96190000Y-39690000D02*
X96190000Y-42310000D01*
X96190000Y-42310000D02*
X101310000Y-42310000D01*
X96190000Y-39690000D02*
X101310000Y-39690000D01*
D12*
X17231000Y-52264000D02*
X17231000Y-52064000D01*
X17231000Y-49670000D02*
X17231000Y-49850000D01*
X20458744Y-49980357D02*
G75*
G03X17231000Y-49664000I-1727744J-1003643D01*
G01*
X19783006Y-49850932D02*
G75*
G03X17680000Y-49850000I-1052006J-1133068D01*
G01*
X17243780Y-52290726D02*
G75*
G03X20481000Y-51944000I1497220J1306726D01*
G01*
X17717111Y-52063253D02*
G75*
G03X19765000Y-52044000I1013889J1079253D01*
G01*
X27647326Y-52264000D02*
X27647326Y-52064000D01*
X27647326Y-49670000D02*
X27647326Y-49850000D01*
X30875070Y-49980357D02*
G75*
G03X27647326Y-49664000I-1727744J-1003643D01*
G01*
X30199332Y-49850932D02*
G75*
G03X28096326Y-49850000I-1052006J-1133068D01*
G01*
X27660106Y-52290726D02*
G75*
G03X30897326Y-51944000I1497220J1306726D01*
G01*
X28133437Y-52063253D02*
G75*
G03X30181326Y-52044000I1013889J1079253D01*
G01*
X38549763Y-52063253D02*
G75*
G03X40597652Y-52044000I1013889J1079253D01*
G01*
X38076432Y-52290726D02*
G75*
G03X41313652Y-51944000I1497220J1306726D01*
G01*
X40615658Y-49850932D02*
G75*
G03X38512652Y-49850000I-1052006J-1133068D01*
G01*
X41291396Y-49980357D02*
G75*
G03X38063652Y-49664000I-1727744J-1003643D01*
G01*
X38063652Y-49670000D02*
X38063652Y-49850000D01*
X38063652Y-52264000D02*
X38063652Y-52064000D01*
X48966089Y-52063253D02*
G75*
G03X51013978Y-52044000I1013889J1079253D01*
G01*
X48492758Y-52290726D02*
G75*
G03X51729978Y-51944000I1497220J1306726D01*
G01*
X51031984Y-49850932D02*
G75*
G03X48928978Y-49850000I-1052006J-1133068D01*
G01*
X51707722Y-49980357D02*
G75*
G03X48479978Y-49664000I-1727744J-1003643D01*
G01*
X48479978Y-49670000D02*
X48479978Y-49850000D01*
X48479978Y-52264000D02*
X48479978Y-52064000D01*
X90145284Y-52264000D02*
X90145284Y-52064000D01*
X90145284Y-49670000D02*
X90145284Y-49850000D01*
X93373028Y-49980357D02*
G75*
G03X90145284Y-49664000I-1727744J-1003643D01*
G01*
X92697290Y-49850932D02*
G75*
G03X90594284Y-49850000I-1052006J-1133068D01*
G01*
X90158064Y-52290726D02*
G75*
G03X93395284Y-51944000I1497220J1306726D01*
G01*
X90631395Y-52063253D02*
G75*
G03X92679284Y-52044000I1013889J1079253D01*
G01*
X79728956Y-52264000D02*
X79728956Y-52064000D01*
X79728956Y-49670000D02*
X79728956Y-49850000D01*
X82956700Y-49980357D02*
G75*
G03X79728956Y-49664000I-1727744J-1003643D01*
G01*
X82280962Y-49850932D02*
G75*
G03X80177956Y-49850000I-1052006J-1133068D01*
G01*
X79741736Y-52290726D02*
G75*
G03X82978956Y-51944000I1497220J1306726D01*
G01*
X80215067Y-52063253D02*
G75*
G03X82262956Y-52044000I1013889J1079253D01*
G01*
X69312630Y-52264000D02*
X69312630Y-52064000D01*
X69312630Y-49670000D02*
X69312630Y-49850000D01*
X72540374Y-49980357D02*
G75*
G03X69312630Y-49664000I-1727744J-1003643D01*
G01*
X71864636Y-49850932D02*
G75*
G03X69761630Y-49850000I-1052006J-1133068D01*
G01*
X69325410Y-52290726D02*
G75*
G03X72562630Y-51944000I1497220J1306726D01*
G01*
X69798741Y-52063253D02*
G75*
G03X71846630Y-52044000I1013889J1079253D01*
G01*
X58896304Y-52264000D02*
X58896304Y-52064000D01*
X58896304Y-49670000D02*
X58896304Y-49850000D01*
X62124048Y-49980357D02*
G75*
G03X58896304Y-49664000I-1727744J-1003643D01*
G01*
X61448310Y-49850932D02*
G75*
G03X59345304Y-49850000I-1052006J-1133068D01*
G01*
X58909084Y-52290726D02*
G75*
G03X62146304Y-51944000I1497220J1306726D01*
G01*
X59382415Y-52063253D02*
G75*
G03X61430304Y-52044000I1013889J1079253D01*
G01*
X17231000Y-67764000D02*
X17231000Y-67564000D01*
X17231000Y-65170000D02*
X17231000Y-65350000D01*
X20458744Y-65480357D02*
G75*
G03X17231000Y-65164000I-1727744J-1003643D01*
G01*
X19783006Y-65350932D02*
G75*
G03X17680000Y-65350000I-1052006J-1133068D01*
G01*
X17243780Y-67790726D02*
G75*
G03X20481000Y-67444000I1497220J1306726D01*
G01*
X17717111Y-67563253D02*
G75*
G03X19765000Y-67544000I1013889J1079253D01*
G01*
X27647326Y-67764000D02*
X27647326Y-67564000D01*
X27647326Y-65170000D02*
X27647326Y-65350000D01*
X30875070Y-65480357D02*
G75*
G03X27647326Y-65164000I-1727744J-1003643D01*
G01*
X30199332Y-65350932D02*
G75*
G03X28096326Y-65350000I-1052006J-1133068D01*
G01*
X27660106Y-67790726D02*
G75*
G03X30897326Y-67444000I1497220J1306726D01*
G01*
X28133437Y-67563253D02*
G75*
G03X30181326Y-67544000I1013889J1079253D01*
G01*
X38063652Y-67764000D02*
X38063652Y-67564000D01*
X38063652Y-65170000D02*
X38063652Y-65350000D01*
X41291396Y-65480357D02*
G75*
G03X38063652Y-65164000I-1727744J-1003643D01*
G01*
X40615658Y-65350932D02*
G75*
G03X38512652Y-65350000I-1052006J-1133068D01*
G01*
X38076432Y-67790726D02*
G75*
G03X41313652Y-67444000I1497220J1306726D01*
G01*
X38549763Y-67563253D02*
G75*
G03X40597652Y-67544000I1013889J1079253D01*
G01*
X48479978Y-67764000D02*
X48479978Y-67564000D01*
X48479978Y-65170000D02*
X48479978Y-65350000D01*
X51707722Y-65480357D02*
G75*
G03X48479978Y-65164000I-1727744J-1003643D01*
G01*
X51031984Y-65350932D02*
G75*
G03X48928978Y-65350000I-1052006J-1133068D01*
G01*
X48492758Y-67790726D02*
G75*
G03X51729978Y-67444000I1497220J1306726D01*
G01*
X48966089Y-67563253D02*
G75*
G03X51013978Y-67544000I1013889J1079253D01*
G01*
X90631395Y-67563253D02*
G75*
G03X92679284Y-67544000I1013889J1079253D01*
G01*
X90158064Y-67790726D02*
G75*
G03X93395284Y-67444000I1497220J1306726D01*
G01*
X92697290Y-65350932D02*
G75*
G03X90594284Y-65350000I-1052006J-1133068D01*
G01*
X93373028Y-65480357D02*
G75*
G03X90145284Y-65164000I-1727744J-1003643D01*
G01*
X90145284Y-65170000D02*
X90145284Y-65350000D01*
X90145284Y-67764000D02*
X90145284Y-67564000D01*
X80215067Y-67563253D02*
G75*
G03X82262956Y-67544000I1013889J1079253D01*
G01*
X79741736Y-67790726D02*
G75*
G03X82978956Y-67444000I1497220J1306726D01*
G01*
X82280962Y-65350932D02*
G75*
G03X80177956Y-65350000I-1052006J-1133068D01*
G01*
X82956700Y-65480357D02*
G75*
G03X79728956Y-65164000I-1727744J-1003643D01*
G01*
X79728956Y-65170000D02*
X79728956Y-65350000D01*
X79728956Y-67764000D02*
X79728956Y-67564000D01*
X69312630Y-67764000D02*
X69312630Y-67564000D01*
X69312630Y-65170000D02*
X69312630Y-65350000D01*
X72540374Y-65480357D02*
G75*
G03X69312630Y-65164000I-1727744J-1003643D01*
G01*
X71864636Y-65350932D02*
G75*
G03X69761630Y-65350000I-1052006J-1133068D01*
G01*
X69325410Y-67790726D02*
G75*
G03X72562630Y-67444000I1497220J1306726D01*
G01*
X69798741Y-67563253D02*
G75*
G03X71846630Y-67544000I1013889J1079253D01*
G01*
X58896304Y-67764000D02*
X58896304Y-67564000D01*
X58896304Y-65170000D02*
X58896304Y-65350000D01*
X62124048Y-65480357D02*
G75*
G03X58896304Y-65164000I-1727744J-1003643D01*
G01*
X61448310Y-65350932D02*
G75*
G03X59345304Y-65350000I-1052006J-1133068D01*
G01*
X58909084Y-67790726D02*
G75*
G03X62146304Y-67444000I1497220J1306726D01*
G01*
X59382415Y-67563253D02*
G75*
G03X61430304Y-67544000I1013889J1079253D01*
G01*
X85031000Y-114314000D02*
X85031000Y-114114000D01*
X85031000Y-111720000D02*
X85031000Y-111900000D01*
X88258744Y-112030357D02*
G75*
G03X85031000Y-111714000I-1727744J-1003643D01*
G01*
X87583006Y-111900932D02*
G75*
G03X85480000Y-111900000I-1052006J-1133068D01*
G01*
X85043780Y-114340726D02*
G75*
G03X88281000Y-113994000I1497220J1306726D01*
G01*
X85517111Y-114113253D02*
G75*
G03X87565000Y-114094000I1013889J1079253D01*
G01*
X84467111Y-98713253D02*
G75*
G03X86515000Y-98694000I1013889J1079253D01*
G01*
X83993780Y-98940726D02*
G75*
G03X87231000Y-98594000I1497220J1306726D01*
G01*
X86533006Y-96500932D02*
G75*
G03X84430000Y-96500000I-1052006J-1133068D01*
G01*
X87208744Y-96630357D02*
G75*
G03X83981000Y-96314000I-1727744J-1003643D01*
G01*
X83981000Y-96320000D02*
X83981000Y-96500000D01*
X83981000Y-98914000D02*
X83981000Y-98714000D01*
D11*
X92340000Y-107590000D02*
X92340000Y-110410000D01*
X96890000Y-109000000D02*
X96820000Y-109000000D01*
X91430000Y-109000000D02*
X91500000Y-109000000D01*
X96820000Y-107590000D02*
X91500000Y-107590000D01*
X96820000Y-110410000D02*
X96820000Y-107590000D01*
X91500000Y-110410000D02*
X96820000Y-110410000D01*
X91500000Y-107590000D02*
X91500000Y-110410000D01*
D12*
X74000000Y-106800000D02*
X83000000Y-106800000D01*
X74000000Y-117700000D02*
X83000000Y-117700000D01*
X74000000Y-106800000D02*
X74000000Y-117700000D01*
X83000000Y-106800000D02*
X83000000Y-117700000D01*
X80300000Y-113000000D02*
G75*
G03X80300000Y-113000000I-1800000J0D01*
G01*
X78500000Y-111200000D02*
X78500000Y-114800000D01*
X76700000Y-113000000D02*
X80300000Y-113000000D01*
X62000000Y-106800000D02*
X71000000Y-106800000D01*
X62000000Y-117700000D02*
X71000000Y-117700000D01*
X62000000Y-106800000D02*
X62000000Y-117700000D01*
X71000000Y-106800000D02*
X71000000Y-117700000D01*
X68300000Y-113000000D02*
G75*
G03X68300000Y-113000000I-1800000J0D01*
G01*
X66500000Y-111200000D02*
X66500000Y-114800000D01*
X64700000Y-113000000D02*
X68300000Y-113000000D01*
X16700000Y-113000000D02*
X20300000Y-113000000D01*
X18500000Y-111200000D02*
X18500000Y-114800000D01*
X20300000Y-113000000D02*
G75*
G03X20300000Y-113000000I-1800000J0D01*
G01*
X23000000Y-106800000D02*
X23000000Y-117700000D01*
X14000000Y-106800000D02*
X14000000Y-117700000D01*
X14000000Y-117700000D02*
X23000000Y-117700000D01*
X14000000Y-106800000D02*
X23000000Y-106800000D01*
X52700000Y-113000000D02*
X56300000Y-113000000D01*
X54500000Y-111200000D02*
X54500000Y-114800000D01*
X56300000Y-113000000D02*
G75*
G03X56300000Y-113000000I-1800000J0D01*
G01*
X59000000Y-106800000D02*
X59000000Y-117700000D01*
X50000000Y-106800000D02*
X50000000Y-117700000D01*
X50000000Y-117700000D02*
X59000000Y-117700000D01*
X50000000Y-106800000D02*
X59000000Y-106800000D01*
X40700000Y-113000000D02*
X44300000Y-113000000D01*
X42500000Y-111200000D02*
X42500000Y-114800000D01*
X44300000Y-113000000D02*
G75*
G03X44300000Y-113000000I-1800000J0D01*
G01*
X47000000Y-106800000D02*
X47000000Y-117700000D01*
X38000000Y-106800000D02*
X38000000Y-117700000D01*
X38000000Y-117700000D02*
X47000000Y-117700000D01*
X38000000Y-106800000D02*
X47000000Y-106800000D01*
X26000000Y-106800000D02*
X35000000Y-106800000D01*
X26000000Y-117700000D02*
X35000000Y-117700000D01*
X26000000Y-106800000D02*
X26000000Y-117700000D01*
X35000000Y-106800000D02*
X35000000Y-117700000D01*
X32300000Y-113000000D02*
G75*
G03X32300000Y-113000000I-1800000J0D01*
G01*
X30500000Y-111200000D02*
X30500000Y-114800000D01*
X28700000Y-113000000D02*
X32300000Y-113000000D01*
X23390000Y-104140000D02*
X18610000Y-104140000D01*
X23396843Y-104137095D02*
G75*
G03X18610000Y-104140000I-2396843J5637095D01*
G01*
X55396843Y-104137095D02*
G75*
G03X50610000Y-104140000I-2396843J5637095D01*
G01*
X55390000Y-104140000D02*
X50610000Y-104140000D01*
D11*
X98830000Y-30810000D02*
G75*
G02X98830000Y-28810000I0J1000000D01*
G01*
X98830000Y-28810000D02*
X98830000Y-27160000D01*
X98830000Y-27160000D02*
X78390000Y-27160000D01*
X78390000Y-27160000D02*
X78390000Y-32460000D01*
X78390000Y-32460000D02*
X98830000Y-32460000D01*
X98830000Y-32460000D02*
X98830000Y-30810000D01*
D12*
X35404761Y-20107619D02*
X35309523Y-20060000D01*
X35214285Y-19964761D01*
X35071428Y-19821904D01*
X34976190Y-19774285D01*
X34880952Y-19774285D01*
X34928571Y-20012380D02*
X34833333Y-19964761D01*
X34738095Y-19869523D01*
X34690476Y-19679047D01*
X34690476Y-19345714D01*
X34738095Y-19155238D01*
X34833333Y-19060000D01*
X34928571Y-19012380D01*
X35119047Y-19012380D01*
X35214285Y-19060000D01*
X35309523Y-19155238D01*
X35357142Y-19345714D01*
X35357142Y-19679047D01*
X35309523Y-19869523D01*
X35214285Y-19964761D01*
X35119047Y-20012380D01*
X34928571Y-20012380D01*
X36309523Y-20012380D02*
X35738095Y-20012380D01*
X36023809Y-20012380D02*
X36023809Y-19012380D01*
X35928571Y-19155238D01*
X35833333Y-19250476D01*
X35738095Y-19298095D01*
X41885881Y-91869319D02*
X41790643Y-91821700D01*
X41695405Y-91726461D01*
X41552548Y-91583604D01*
X41457310Y-91535985D01*
X41362072Y-91535985D01*
X41409691Y-91774080D02*
X41314453Y-91726461D01*
X41219215Y-91631223D01*
X41171596Y-91440747D01*
X41171596Y-91107414D01*
X41219215Y-90916938D01*
X41314453Y-90821700D01*
X41409691Y-90774080D01*
X41600167Y-90774080D01*
X41695405Y-90821700D01*
X41790643Y-90916938D01*
X41838262Y-91107414D01*
X41838262Y-91440747D01*
X41790643Y-91631223D01*
X41695405Y-91726461D01*
X41600167Y-91774080D01*
X41409691Y-91774080D01*
X42743024Y-90774080D02*
X42266834Y-90774080D01*
X42219215Y-91250271D01*
X42266834Y-91202652D01*
X42362072Y-91155033D01*
X42600167Y-91155033D01*
X42695405Y-91202652D01*
X42743024Y-91250271D01*
X42790643Y-91345509D01*
X42790643Y-91583604D01*
X42743024Y-91678842D01*
X42695405Y-91726461D01*
X42600167Y-91774080D01*
X42362072Y-91774080D01*
X42266834Y-91726461D01*
X42219215Y-91678842D01*
X32000201Y-91889639D02*
X31904963Y-91842020D01*
X31809725Y-91746781D01*
X31666868Y-91603924D01*
X31571630Y-91556305D01*
X31476392Y-91556305D01*
X31524011Y-91794400D02*
X31428773Y-91746781D01*
X31333535Y-91651543D01*
X31285916Y-91461067D01*
X31285916Y-91127734D01*
X31333535Y-90937258D01*
X31428773Y-90842020D01*
X31524011Y-90794400D01*
X31714487Y-90794400D01*
X31809725Y-90842020D01*
X31904963Y-90937258D01*
X31952582Y-91127734D01*
X31952582Y-91461067D01*
X31904963Y-91651543D01*
X31809725Y-91746781D01*
X31714487Y-91794400D01*
X31524011Y-91794400D01*
X32809725Y-91127734D02*
X32809725Y-91794400D01*
X32571630Y-90746781D02*
X32333535Y-91461067D01*
X32952582Y-91461067D01*
X35364761Y-34357619D02*
X35269523Y-34310000D01*
X35174285Y-34214761D01*
X35031428Y-34071904D01*
X34936190Y-34024285D01*
X34840952Y-34024285D01*
X34888571Y-34262380D02*
X34793333Y-34214761D01*
X34698095Y-34119523D01*
X34650476Y-33929047D01*
X34650476Y-33595714D01*
X34698095Y-33405238D01*
X34793333Y-33310000D01*
X34888571Y-33262380D01*
X35079047Y-33262380D01*
X35174285Y-33310000D01*
X35269523Y-33405238D01*
X35317142Y-33595714D01*
X35317142Y-33929047D01*
X35269523Y-34119523D01*
X35174285Y-34214761D01*
X35079047Y-34262380D01*
X34888571Y-34262380D01*
X35650476Y-33262380D02*
X36269523Y-33262380D01*
X35936190Y-33643333D01*
X36079047Y-33643333D01*
X36174285Y-33690952D01*
X36221904Y-33738571D01*
X36269523Y-33833809D01*
X36269523Y-34071904D01*
X36221904Y-34167142D01*
X36174285Y-34214761D01*
X36079047Y-34262380D01*
X35793333Y-34262380D01*
X35698095Y-34214761D01*
X35650476Y-34167142D01*
X35364761Y-26857619D02*
X35269523Y-26810000D01*
X35174285Y-26714761D01*
X35031428Y-26571904D01*
X34936190Y-26524285D01*
X34840952Y-26524285D01*
X34888571Y-26762380D02*
X34793333Y-26714761D01*
X34698095Y-26619523D01*
X34650476Y-26429047D01*
X34650476Y-26095714D01*
X34698095Y-25905238D01*
X34793333Y-25810000D01*
X34888571Y-25762380D01*
X35079047Y-25762380D01*
X35174285Y-25810000D01*
X35269523Y-25905238D01*
X35317142Y-26095714D01*
X35317142Y-26429047D01*
X35269523Y-26619523D01*
X35174285Y-26714761D01*
X35079047Y-26762380D01*
X34888571Y-26762380D01*
X35698095Y-25857619D02*
X35745714Y-25810000D01*
X35840952Y-25762380D01*
X36079047Y-25762380D01*
X36174285Y-25810000D01*
X36221904Y-25857619D01*
X36269523Y-25952857D01*
X36269523Y-26048095D01*
X36221904Y-26190952D01*
X35650476Y-26762380D01*
X36269523Y-26762380D01*
X95917142Y-93916666D02*
X95964761Y-93964285D01*
X96012380Y-94107142D01*
X96012380Y-94202380D01*
X95964761Y-94345238D01*
X95869523Y-94440476D01*
X95774285Y-94488095D01*
X95583809Y-94535714D01*
X95440952Y-94535714D01*
X95250476Y-94488095D01*
X95155238Y-94440476D01*
X95060000Y-94345238D01*
X95012380Y-94202380D01*
X95012380Y-94107142D01*
X95060000Y-93964285D01*
X95107619Y-93916666D01*
X96012380Y-93440476D02*
X96012380Y-93250000D01*
X95964761Y-93154761D01*
X95917142Y-93107142D01*
X95774285Y-93011904D01*
X95583809Y-92964285D01*
X95202857Y-92964285D01*
X95107619Y-93011904D01*
X95060000Y-93059523D01*
X95012380Y-93154761D01*
X95012380Y-93345238D01*
X95060000Y-93440476D01*
X95107619Y-93488095D01*
X95202857Y-93535714D01*
X95440952Y-93535714D01*
X95536190Y-93488095D01*
X95583809Y-93440476D01*
X95631428Y-93345238D01*
X95631428Y-93154761D01*
X95583809Y-93059523D01*
X95536190Y-93011904D01*
X95440952Y-92964285D01*
X53622593Y-84014262D02*
X53574974Y-84061881D01*
X53432117Y-84109500D01*
X53336879Y-84109500D01*
X53194021Y-84061881D01*
X53098783Y-83966643D01*
X53051164Y-83871405D01*
X53003545Y-83680929D01*
X53003545Y-83538072D01*
X53051164Y-83347596D01*
X53098783Y-83252358D01*
X53194021Y-83157120D01*
X53336879Y-83109500D01*
X53432117Y-83109500D01*
X53574974Y-83157120D01*
X53622593Y-83204739D01*
X54479736Y-83109500D02*
X54289260Y-83109500D01*
X54194021Y-83157120D01*
X54146402Y-83204739D01*
X54051164Y-83347596D01*
X54003545Y-83538072D01*
X54003545Y-83919024D01*
X54051164Y-84014262D01*
X54098783Y-84061881D01*
X54194021Y-84109500D01*
X54384498Y-84109500D01*
X54479736Y-84061881D01*
X54527355Y-84014262D01*
X54574974Y-83919024D01*
X54574974Y-83680929D01*
X54527355Y-83585691D01*
X54479736Y-83538072D01*
X54384498Y-83490453D01*
X54194021Y-83490453D01*
X54098783Y-83538072D01*
X54051164Y-83585691D01*
X54003545Y-83680929D01*
X98583333Y-34797142D02*
X98535714Y-34844761D01*
X98392857Y-34892380D01*
X98297619Y-34892380D01*
X98154761Y-34844761D01*
X98059523Y-34749523D01*
X98011904Y-34654285D01*
X97964285Y-34463809D01*
X97964285Y-34320952D01*
X98011904Y-34130476D01*
X98059523Y-34035238D01*
X98154761Y-33940000D01*
X98297619Y-33892380D01*
X98392857Y-33892380D01*
X98535714Y-33940000D01*
X98583333Y-33987619D01*
X98916666Y-33892380D02*
X99535714Y-33892380D01*
X99202380Y-34273333D01*
X99345238Y-34273333D01*
X99440476Y-34320952D01*
X99488095Y-34368571D01*
X99535714Y-34463809D01*
X99535714Y-34701904D01*
X99488095Y-34797142D01*
X99440476Y-34844761D01*
X99345238Y-34892380D01*
X99059523Y-34892380D01*
X98964285Y-34844761D01*
X98916666Y-34797142D01*
X97802380Y-114045238D02*
X97326190Y-114378571D01*
X97802380Y-114616666D02*
X96802380Y-114616666D01*
X96802380Y-114235714D01*
X96850000Y-114140476D01*
X96897619Y-114092857D01*
X96992857Y-114045238D01*
X97135714Y-114045238D01*
X97230952Y-114092857D01*
X97278571Y-114140476D01*
X97326190Y-114235714D01*
X97326190Y-114616666D01*
X96802380Y-113759523D02*
X97802380Y-113426190D01*
X96802380Y-113092857D01*
X97135714Y-112330952D02*
X97802380Y-112330952D01*
X96754761Y-112569047D02*
X97469047Y-112807142D01*
X97469047Y-112188095D01*
X97802380Y-83295238D02*
X97326190Y-83628571D01*
X97802380Y-83866666D02*
X96802380Y-83866666D01*
X96802380Y-83485714D01*
X96850000Y-83390476D01*
X96897619Y-83342857D01*
X96992857Y-83295238D01*
X97135714Y-83295238D01*
X97230952Y-83342857D01*
X97278571Y-83390476D01*
X97326190Y-83485714D01*
X97326190Y-83866666D01*
X96802380Y-83009523D02*
X97802380Y-82676190D01*
X96802380Y-82342857D01*
X96802380Y-82104761D02*
X96802380Y-81485714D01*
X97183333Y-81819047D01*
X97183333Y-81676190D01*
X97230952Y-81580952D01*
X97278571Y-81533333D01*
X97373809Y-81485714D01*
X97611904Y-81485714D01*
X97707142Y-81533333D01*
X97754761Y-81580952D01*
X97802380Y-81676190D01*
X97802380Y-81961904D01*
X97754761Y-82057142D01*
X97707142Y-82104761D01*
X97802380Y-52545238D02*
X97326190Y-52878571D01*
X97802380Y-53116666D02*
X96802380Y-53116666D01*
X96802380Y-52735714D01*
X96850000Y-52640476D01*
X96897619Y-52592857D01*
X96992857Y-52545238D01*
X97135714Y-52545238D01*
X97230952Y-52592857D01*
X97278571Y-52640476D01*
X97326190Y-52735714D01*
X97326190Y-53116666D01*
X96802380Y-52259523D02*
X97802380Y-51926190D01*
X96802380Y-51592857D01*
X96897619Y-51307142D02*
X96850000Y-51259523D01*
X96802380Y-51164285D01*
X96802380Y-50926190D01*
X96850000Y-50830952D01*
X96897619Y-50783333D01*
X96992857Y-50735714D01*
X97088095Y-50735714D01*
X97230952Y-50783333D01*
X97802380Y-51354761D01*
X97802380Y-50735714D01*
X97802380Y-21795238D02*
X97326190Y-22128571D01*
X97802380Y-22366666D02*
X96802380Y-22366666D01*
X96802380Y-21985714D01*
X96850000Y-21890476D01*
X96897619Y-21842857D01*
X96992857Y-21795238D01*
X97135714Y-21795238D01*
X97230952Y-21842857D01*
X97278571Y-21890476D01*
X97326190Y-21985714D01*
X97326190Y-22366666D01*
X96802380Y-21509523D02*
X97802380Y-21176190D01*
X96802380Y-20842857D01*
X97802380Y-19985714D02*
X97802380Y-20557142D01*
X97802380Y-20271428D02*
X96802380Y-20271428D01*
X96945238Y-20366666D01*
X97040476Y-20461904D01*
X97088095Y-20557142D01*
X100282380Y-103833333D02*
X100996666Y-103833333D01*
X101139523Y-103880952D01*
X101234761Y-103976190D01*
X101282380Y-104119047D01*
X101282380Y-104214285D01*
X100377619Y-103404761D02*
X100330000Y-103357142D01*
X100282380Y-103261904D01*
X100282380Y-103023809D01*
X100330000Y-102928571D01*
X100377619Y-102880952D01*
X100472857Y-102833333D01*
X100568095Y-102833333D01*
X100710952Y-102880952D01*
X101282380Y-103452380D01*
X101282380Y-102833333D01*
X94852380Y-85861904D02*
X95661904Y-85861904D01*
X95757142Y-85814285D01*
X95804761Y-85766666D01*
X95852380Y-85671428D01*
X95852380Y-85480952D01*
X95804761Y-85385714D01*
X95757142Y-85338095D01*
X95661904Y-85290476D01*
X94852380Y-85290476D01*
X95852380Y-84290476D02*
X95852380Y-84861904D01*
X95852380Y-84576190D02*
X94852380Y-84576190D01*
X94995238Y-84671428D01*
X95090476Y-84766666D01*
X95138095Y-84861904D01*
X49237073Y-54304761D02*
X49379930Y-54352380D01*
X49618025Y-54352380D01*
X49713263Y-54304761D01*
X49760882Y-54257142D01*
X49808501Y-54161904D01*
X49808501Y-54066666D01*
X49760882Y-53971428D01*
X49713263Y-53923809D01*
X49618025Y-53876190D01*
X49427549Y-53828571D01*
X49332311Y-53780952D01*
X49284692Y-53733333D01*
X49237073Y-53638095D01*
X49237073Y-53542857D01*
X49284692Y-53447619D01*
X49332311Y-53400000D01*
X49427549Y-53352380D01*
X49665644Y-53352380D01*
X49808501Y-53400000D01*
X50665644Y-53685714D02*
X50665644Y-54352380D01*
X50427549Y-53304761D02*
X50189454Y-54019047D01*
X50808501Y-54019047D01*
X27928230Y-69804761D02*
X28071087Y-69852380D01*
X28309183Y-69852380D01*
X28404421Y-69804761D01*
X28452040Y-69757142D01*
X28499659Y-69661904D01*
X28499659Y-69566666D01*
X28452040Y-69471428D01*
X28404421Y-69423809D01*
X28309183Y-69376190D01*
X28118706Y-69328571D01*
X28023468Y-69280952D01*
X27975849Y-69233333D01*
X27928230Y-69138095D01*
X27928230Y-69042857D01*
X27975849Y-68947619D01*
X28023468Y-68900000D01*
X28118706Y-68852380D01*
X28356802Y-68852380D01*
X28499659Y-68900000D01*
X29452040Y-69852380D02*
X28880611Y-69852380D01*
X29166326Y-69852380D02*
X29166326Y-68852380D01*
X29071087Y-68995238D01*
X28975849Y-69090476D01*
X28880611Y-69138095D01*
X30071087Y-68852380D02*
X30166326Y-68852380D01*
X30261564Y-68900000D01*
X30309183Y-68947619D01*
X30356802Y-69042857D01*
X30404421Y-69233333D01*
X30404421Y-69471428D01*
X30356802Y-69661904D01*
X30309183Y-69757142D01*
X30261564Y-69804761D01*
X30166326Y-69852380D01*
X30071087Y-69852380D01*
X29975849Y-69804761D01*
X29928230Y-69757142D01*
X29880611Y-69661904D01*
X29832992Y-69471428D01*
X29832992Y-69233333D01*
X29880611Y-69042857D01*
X29928230Y-68947619D01*
X29975849Y-68900000D01*
X30071087Y-68852380D01*
X17988095Y-69804761D02*
X18130952Y-69852380D01*
X18369047Y-69852380D01*
X18464285Y-69804761D01*
X18511904Y-69757142D01*
X18559523Y-69661904D01*
X18559523Y-69566666D01*
X18511904Y-69471428D01*
X18464285Y-69423809D01*
X18369047Y-69376190D01*
X18178571Y-69328571D01*
X18083333Y-69280952D01*
X18035714Y-69233333D01*
X17988095Y-69138095D01*
X17988095Y-69042857D01*
X18035714Y-68947619D01*
X18083333Y-68900000D01*
X18178571Y-68852380D01*
X18416666Y-68852380D01*
X18559523Y-68900000D01*
X19035714Y-69852380D02*
X19226190Y-69852380D01*
X19321428Y-69804761D01*
X19369047Y-69757142D01*
X19464285Y-69614285D01*
X19511904Y-69423809D01*
X19511904Y-69042857D01*
X19464285Y-68947619D01*
X19416666Y-68900000D01*
X19321428Y-68852380D01*
X19130952Y-68852380D01*
X19035714Y-68900000D01*
X18988095Y-68947619D01*
X18940476Y-69042857D01*
X18940476Y-69280952D01*
X18988095Y-69376190D01*
X19035714Y-69423809D01*
X19130952Y-69471428D01*
X19321428Y-69471428D01*
X19416666Y-69423809D01*
X19464285Y-69376190D01*
X19511904Y-69280952D01*
X59653399Y-54304761D02*
X59796256Y-54352380D01*
X60034351Y-54352380D01*
X60129589Y-54304761D01*
X60177208Y-54257142D01*
X60224827Y-54161904D01*
X60224827Y-54066666D01*
X60177208Y-53971428D01*
X60129589Y-53923809D01*
X60034351Y-53876190D01*
X59843875Y-53828571D01*
X59748637Y-53780952D01*
X59701018Y-53733333D01*
X59653399Y-53638095D01*
X59653399Y-53542857D01*
X59701018Y-53447619D01*
X59748637Y-53400000D01*
X59843875Y-53352380D01*
X60081970Y-53352380D01*
X60224827Y-53400000D01*
X60796256Y-53780952D02*
X60701018Y-53733333D01*
X60653399Y-53685714D01*
X60605780Y-53590476D01*
X60605780Y-53542857D01*
X60653399Y-53447619D01*
X60701018Y-53400000D01*
X60796256Y-53352380D01*
X60986732Y-53352380D01*
X61081970Y-53400000D01*
X61129589Y-53447619D01*
X61177208Y-53542857D01*
X61177208Y-53590476D01*
X61129589Y-53685714D01*
X61081970Y-53733333D01*
X60986732Y-53780952D01*
X60796256Y-53780952D01*
X60701018Y-53828571D01*
X60653399Y-53876190D01*
X60605780Y-53971428D01*
X60605780Y-54161904D01*
X60653399Y-54257142D01*
X60701018Y-54304761D01*
X60796256Y-54352380D01*
X60986732Y-54352380D01*
X61081970Y-54304761D01*
X61129589Y-54257142D01*
X61177208Y-54161904D01*
X61177208Y-53971428D01*
X61129589Y-53876190D01*
X61081970Y-53828571D01*
X60986732Y-53780952D01*
X17988095Y-54304761D02*
X18130952Y-54352380D01*
X18369047Y-54352380D01*
X18464285Y-54304761D01*
X18511904Y-54257142D01*
X18559523Y-54161904D01*
X18559523Y-54066666D01*
X18511904Y-53971428D01*
X18464285Y-53923809D01*
X18369047Y-53876190D01*
X18178571Y-53828571D01*
X18083333Y-53780952D01*
X18035714Y-53733333D01*
X17988095Y-53638095D01*
X17988095Y-53542857D01*
X18035714Y-53447619D01*
X18083333Y-53400000D01*
X18178571Y-53352380D01*
X18416666Y-53352380D01*
X18559523Y-53400000D01*
X19511904Y-54352380D02*
X18940476Y-54352380D01*
X19226190Y-54352380D02*
X19226190Y-53352380D01*
X19130952Y-53495238D01*
X19035714Y-53590476D01*
X18940476Y-53638095D01*
X28404421Y-54304761D02*
X28547278Y-54352380D01*
X28785373Y-54352380D01*
X28880611Y-54304761D01*
X28928230Y-54257142D01*
X28975849Y-54161904D01*
X28975849Y-54066666D01*
X28928230Y-53971428D01*
X28880611Y-53923809D01*
X28785373Y-53876190D01*
X28594897Y-53828571D01*
X28499659Y-53780952D01*
X28452040Y-53733333D01*
X28404421Y-53638095D01*
X28404421Y-53542857D01*
X28452040Y-53447619D01*
X28499659Y-53400000D01*
X28594897Y-53352380D01*
X28832992Y-53352380D01*
X28975849Y-53400000D01*
X29356802Y-53447619D02*
X29404421Y-53400000D01*
X29499659Y-53352380D01*
X29737754Y-53352380D01*
X29832992Y-53400000D01*
X29880611Y-53447619D01*
X29928230Y-53542857D01*
X29928230Y-53638095D01*
X29880611Y-53780952D01*
X29309183Y-54352380D01*
X29928230Y-54352380D01*
X38820747Y-54304761D02*
X38963604Y-54352380D01*
X39201699Y-54352380D01*
X39296937Y-54304761D01*
X39344556Y-54257142D01*
X39392175Y-54161904D01*
X39392175Y-54066666D01*
X39344556Y-53971428D01*
X39296937Y-53923809D01*
X39201699Y-53876190D01*
X39011223Y-53828571D01*
X38915985Y-53780952D01*
X38868366Y-53733333D01*
X38820747Y-53638095D01*
X38820747Y-53542857D01*
X38868366Y-53447619D01*
X38915985Y-53400000D01*
X39011223Y-53352380D01*
X39249318Y-53352380D01*
X39392175Y-53400000D01*
X39725509Y-53352380D02*
X40344556Y-53352380D01*
X40011223Y-53733333D01*
X40154080Y-53733333D01*
X40249318Y-53780952D01*
X40296937Y-53828571D01*
X40344556Y-53923809D01*
X40344556Y-54161904D01*
X40296937Y-54257142D01*
X40249318Y-54304761D01*
X40154080Y-54352380D01*
X39868366Y-54352380D01*
X39773128Y-54304761D01*
X39725509Y-54257142D01*
X90902379Y-54304761D02*
X91045236Y-54352380D01*
X91283331Y-54352380D01*
X91378569Y-54304761D01*
X91426188Y-54257142D01*
X91473807Y-54161904D01*
X91473807Y-54066666D01*
X91426188Y-53971428D01*
X91378569Y-53923809D01*
X91283331Y-53876190D01*
X91092855Y-53828571D01*
X90997617Y-53780952D01*
X90949998Y-53733333D01*
X90902379Y-53638095D01*
X90902379Y-53542857D01*
X90949998Y-53447619D01*
X90997617Y-53400000D01*
X91092855Y-53352380D01*
X91330950Y-53352380D01*
X91473807Y-53400000D01*
X92378569Y-53352380D02*
X91902379Y-53352380D01*
X91854760Y-53828571D01*
X91902379Y-53780952D01*
X91997617Y-53733333D01*
X92235712Y-53733333D01*
X92330950Y-53780952D01*
X92378569Y-53828571D01*
X92426188Y-53923809D01*
X92426188Y-54161904D01*
X92378569Y-54257142D01*
X92330950Y-54304761D01*
X92235712Y-54352380D01*
X91997617Y-54352380D01*
X91902379Y-54304761D01*
X91854760Y-54257142D01*
X80486051Y-54304761D02*
X80628908Y-54352380D01*
X80867003Y-54352380D01*
X80962241Y-54304761D01*
X81009860Y-54257142D01*
X81057479Y-54161904D01*
X81057479Y-54066666D01*
X81009860Y-53971428D01*
X80962241Y-53923809D01*
X80867003Y-53876190D01*
X80676527Y-53828571D01*
X80581289Y-53780952D01*
X80533670Y-53733333D01*
X80486051Y-53638095D01*
X80486051Y-53542857D01*
X80533670Y-53447619D01*
X80581289Y-53400000D01*
X80676527Y-53352380D01*
X80914622Y-53352380D01*
X81057479Y-53400000D01*
X81914622Y-53352380D02*
X81724146Y-53352380D01*
X81628908Y-53400000D01*
X81581289Y-53447619D01*
X81486051Y-53590476D01*
X81438432Y-53780952D01*
X81438432Y-54161904D01*
X81486051Y-54257142D01*
X81533670Y-54304761D01*
X81628908Y-54352380D01*
X81819384Y-54352380D01*
X81914622Y-54304761D01*
X81962241Y-54257142D01*
X82009860Y-54161904D01*
X82009860Y-53923809D01*
X81962241Y-53828571D01*
X81914622Y-53780952D01*
X81819384Y-53733333D01*
X81628908Y-53733333D01*
X81533670Y-53780952D01*
X81486051Y-53828571D01*
X81438432Y-53923809D01*
X70069725Y-54304761D02*
X70212582Y-54352380D01*
X70450677Y-54352380D01*
X70545915Y-54304761D01*
X70593534Y-54257142D01*
X70641153Y-54161904D01*
X70641153Y-54066666D01*
X70593534Y-53971428D01*
X70545915Y-53923809D01*
X70450677Y-53876190D01*
X70260201Y-53828571D01*
X70164963Y-53780952D01*
X70117344Y-53733333D01*
X70069725Y-53638095D01*
X70069725Y-53542857D01*
X70117344Y-53447619D01*
X70164963Y-53400000D01*
X70260201Y-53352380D01*
X70498296Y-53352380D01*
X70641153Y-53400000D01*
X70974487Y-53352380D02*
X71641153Y-53352380D01*
X71212582Y-54352380D01*
X38344556Y-69804761D02*
X38487413Y-69852380D01*
X38725509Y-69852380D01*
X38820747Y-69804761D01*
X38868366Y-69757142D01*
X38915985Y-69661904D01*
X38915985Y-69566666D01*
X38868366Y-69471428D01*
X38820747Y-69423809D01*
X38725509Y-69376190D01*
X38535032Y-69328571D01*
X38439794Y-69280952D01*
X38392175Y-69233333D01*
X38344556Y-69138095D01*
X38344556Y-69042857D01*
X38392175Y-68947619D01*
X38439794Y-68900000D01*
X38535032Y-68852380D01*
X38773128Y-68852380D01*
X38915985Y-68900000D01*
X39868366Y-69852380D02*
X39296937Y-69852380D01*
X39582652Y-69852380D02*
X39582652Y-68852380D01*
X39487413Y-68995238D01*
X39392175Y-69090476D01*
X39296937Y-69138095D01*
X40820747Y-69852380D02*
X40249318Y-69852380D01*
X40535032Y-69852380D02*
X40535032Y-68852380D01*
X40439794Y-68995238D01*
X40344556Y-69090476D01*
X40249318Y-69138095D01*
X48760882Y-69804761D02*
X48903739Y-69852380D01*
X49141835Y-69852380D01*
X49237073Y-69804761D01*
X49284692Y-69757142D01*
X49332311Y-69661904D01*
X49332311Y-69566666D01*
X49284692Y-69471428D01*
X49237073Y-69423809D01*
X49141835Y-69376190D01*
X48951358Y-69328571D01*
X48856120Y-69280952D01*
X48808501Y-69233333D01*
X48760882Y-69138095D01*
X48760882Y-69042857D01*
X48808501Y-68947619D01*
X48856120Y-68900000D01*
X48951358Y-68852380D01*
X49189454Y-68852380D01*
X49332311Y-68900000D01*
X50284692Y-69852380D02*
X49713263Y-69852380D01*
X49998978Y-69852380D02*
X49998978Y-68852380D01*
X49903739Y-68995238D01*
X49808501Y-69090476D01*
X49713263Y-69138095D01*
X50665644Y-68947619D02*
X50713263Y-68900000D01*
X50808501Y-68852380D01*
X51046597Y-68852380D01*
X51141835Y-68900000D01*
X51189454Y-68947619D01*
X51237073Y-69042857D01*
X51237073Y-69138095D01*
X51189454Y-69280952D01*
X50618025Y-69852380D01*
X51237073Y-69852380D01*
X90426188Y-69804761D02*
X90569045Y-69852380D01*
X90807141Y-69852380D01*
X90902379Y-69804761D01*
X90949998Y-69757142D01*
X90997617Y-69661904D01*
X90997617Y-69566666D01*
X90949998Y-69471428D01*
X90902379Y-69423809D01*
X90807141Y-69376190D01*
X90616664Y-69328571D01*
X90521426Y-69280952D01*
X90473807Y-69233333D01*
X90426188Y-69138095D01*
X90426188Y-69042857D01*
X90473807Y-68947619D01*
X90521426Y-68900000D01*
X90616664Y-68852380D01*
X90854760Y-68852380D01*
X90997617Y-68900000D01*
X91949998Y-69852380D02*
X91378569Y-69852380D01*
X91664284Y-69852380D02*
X91664284Y-68852380D01*
X91569045Y-68995238D01*
X91473807Y-69090476D01*
X91378569Y-69138095D01*
X92283331Y-68852380D02*
X92902379Y-68852380D01*
X92569045Y-69233333D01*
X92711903Y-69233333D01*
X92807141Y-69280952D01*
X92854760Y-69328571D01*
X92902379Y-69423809D01*
X92902379Y-69661904D01*
X92854760Y-69757142D01*
X92807141Y-69804761D01*
X92711903Y-69852380D01*
X92426188Y-69852380D01*
X92330950Y-69804761D01*
X92283331Y-69757142D01*
X80009860Y-69804761D02*
X80152717Y-69852380D01*
X80390813Y-69852380D01*
X80486051Y-69804761D01*
X80533670Y-69757142D01*
X80581289Y-69661904D01*
X80581289Y-69566666D01*
X80533670Y-69471428D01*
X80486051Y-69423809D01*
X80390813Y-69376190D01*
X80200336Y-69328571D01*
X80105098Y-69280952D01*
X80057479Y-69233333D01*
X80009860Y-69138095D01*
X80009860Y-69042857D01*
X80057479Y-68947619D01*
X80105098Y-68900000D01*
X80200336Y-68852380D01*
X80438432Y-68852380D01*
X80581289Y-68900000D01*
X81533670Y-69852380D02*
X80962241Y-69852380D01*
X81247956Y-69852380D02*
X81247956Y-68852380D01*
X81152717Y-68995238D01*
X81057479Y-69090476D01*
X80962241Y-69138095D01*
X82390813Y-69185714D02*
X82390813Y-69852380D01*
X82152717Y-68804761D02*
X81914622Y-69519047D01*
X82533670Y-69519047D01*
X69593534Y-69804761D02*
X69736391Y-69852380D01*
X69974487Y-69852380D01*
X70069725Y-69804761D01*
X70117344Y-69757142D01*
X70164963Y-69661904D01*
X70164963Y-69566666D01*
X70117344Y-69471428D01*
X70069725Y-69423809D01*
X69974487Y-69376190D01*
X69784010Y-69328571D01*
X69688772Y-69280952D01*
X69641153Y-69233333D01*
X69593534Y-69138095D01*
X69593534Y-69042857D01*
X69641153Y-68947619D01*
X69688772Y-68900000D01*
X69784010Y-68852380D01*
X70022106Y-68852380D01*
X70164963Y-68900000D01*
X71117344Y-69852380D02*
X70545915Y-69852380D01*
X70831630Y-69852380D02*
X70831630Y-68852380D01*
X70736391Y-68995238D01*
X70641153Y-69090476D01*
X70545915Y-69138095D01*
X72022106Y-68852380D02*
X71545915Y-68852380D01*
X71498296Y-69328571D01*
X71545915Y-69280952D01*
X71641153Y-69233333D01*
X71879249Y-69233333D01*
X71974487Y-69280952D01*
X72022106Y-69328571D01*
X72069725Y-69423809D01*
X72069725Y-69661904D01*
X72022106Y-69757142D01*
X71974487Y-69804761D01*
X71879249Y-69852380D01*
X71641153Y-69852380D01*
X71545915Y-69804761D01*
X71498296Y-69757142D01*
X59177208Y-69804761D02*
X59320065Y-69852380D01*
X59558161Y-69852380D01*
X59653399Y-69804761D01*
X59701018Y-69757142D01*
X59748637Y-69661904D01*
X59748637Y-69566666D01*
X59701018Y-69471428D01*
X59653399Y-69423809D01*
X59558161Y-69376190D01*
X59367684Y-69328571D01*
X59272446Y-69280952D01*
X59224827Y-69233333D01*
X59177208Y-69138095D01*
X59177208Y-69042857D01*
X59224827Y-68947619D01*
X59272446Y-68900000D01*
X59367684Y-68852380D01*
X59605780Y-68852380D01*
X59748637Y-68900000D01*
X60701018Y-69852380D02*
X60129589Y-69852380D01*
X60415304Y-69852380D02*
X60415304Y-68852380D01*
X60320065Y-68995238D01*
X60224827Y-69090476D01*
X60129589Y-69138095D01*
X61558161Y-68852380D02*
X61367684Y-68852380D01*
X61272446Y-68900000D01*
X61224827Y-68947619D01*
X61129589Y-69090476D01*
X61081970Y-69280952D01*
X61081970Y-69661904D01*
X61129589Y-69757142D01*
X61177208Y-69804761D01*
X61272446Y-69852380D01*
X61462923Y-69852380D01*
X61558161Y-69804761D01*
X61605780Y-69757142D01*
X61653399Y-69661904D01*
X61653399Y-69423809D01*
X61605780Y-69328571D01*
X61558161Y-69280952D01*
X61462923Y-69233333D01*
X61272446Y-69233333D01*
X61177208Y-69280952D01*
X61129589Y-69328571D01*
X61081970Y-69423809D01*
X38511904Y-36354761D02*
X38654761Y-36402380D01*
X38892857Y-36402380D01*
X38988095Y-36354761D01*
X39035714Y-36307142D01*
X39083333Y-36211904D01*
X39083333Y-36116666D01*
X39035714Y-36021428D01*
X38988095Y-35973809D01*
X38892857Y-35926190D01*
X38702380Y-35878571D01*
X38607142Y-35830952D01*
X38559523Y-35783333D01*
X38511904Y-35688095D01*
X38511904Y-35592857D01*
X38559523Y-35497619D01*
X38607142Y-35450000D01*
X38702380Y-35402380D01*
X38940476Y-35402380D01*
X39083333Y-35450000D01*
X40035714Y-36402380D02*
X39464285Y-36402380D01*
X39750000Y-36402380D02*
X39750000Y-35402380D01*
X39654761Y-35545238D01*
X39559523Y-35640476D01*
X39464285Y-35688095D01*
X40369047Y-35402380D02*
X41035714Y-35402380D01*
X40607142Y-36402380D01*
X59511904Y-36354761D02*
X59654761Y-36402380D01*
X59892857Y-36402380D01*
X59988095Y-36354761D01*
X60035714Y-36307142D01*
X60083333Y-36211904D01*
X60083333Y-36116666D01*
X60035714Y-36021428D01*
X59988095Y-35973809D01*
X59892857Y-35926190D01*
X59702380Y-35878571D01*
X59607142Y-35830952D01*
X59559523Y-35783333D01*
X59511904Y-35688095D01*
X59511904Y-35592857D01*
X59559523Y-35497619D01*
X59607142Y-35450000D01*
X59702380Y-35402380D01*
X59940476Y-35402380D01*
X60083333Y-35450000D01*
X61035714Y-36402380D02*
X60464285Y-36402380D01*
X60750000Y-36402380D02*
X60750000Y-35402380D01*
X60654761Y-35545238D01*
X60559523Y-35640476D01*
X60464285Y-35688095D01*
X61607142Y-35830952D02*
X61511904Y-35783333D01*
X61464285Y-35735714D01*
X61416666Y-35640476D01*
X61416666Y-35592857D01*
X61464285Y-35497619D01*
X61511904Y-35450000D01*
X61607142Y-35402380D01*
X61797619Y-35402380D01*
X61892857Y-35450000D01*
X61940476Y-35497619D01*
X61988095Y-35592857D01*
X61988095Y-35640476D01*
X61940476Y-35735714D01*
X61892857Y-35783333D01*
X61797619Y-35830952D01*
X61607142Y-35830952D01*
X61511904Y-35878571D01*
X61464285Y-35926190D01*
X61416666Y-36021428D01*
X61416666Y-36211904D01*
X61464285Y-36307142D01*
X61511904Y-36354761D01*
X61607142Y-36402380D01*
X61797619Y-36402380D01*
X61892857Y-36354761D01*
X61940476Y-36307142D01*
X61988095Y-36211904D01*
X61988095Y-36021428D01*
X61940476Y-35926190D01*
X61892857Y-35878571D01*
X61797619Y-35830952D01*
X80511904Y-36354761D02*
X80654761Y-36402380D01*
X80892857Y-36402380D01*
X80988095Y-36354761D01*
X81035714Y-36307142D01*
X81083333Y-36211904D01*
X81083333Y-36116666D01*
X81035714Y-36021428D01*
X80988095Y-35973809D01*
X80892857Y-35926190D01*
X80702380Y-35878571D01*
X80607142Y-35830952D01*
X80559523Y-35783333D01*
X80511904Y-35688095D01*
X80511904Y-35592857D01*
X80559523Y-35497619D01*
X80607142Y-35450000D01*
X80702380Y-35402380D01*
X80940476Y-35402380D01*
X81083333Y-35450000D01*
X82035714Y-36402380D02*
X81464285Y-36402380D01*
X81750000Y-36402380D02*
X81750000Y-35402380D01*
X81654761Y-35545238D01*
X81559523Y-35640476D01*
X81464285Y-35688095D01*
X82511904Y-36402380D02*
X82702380Y-36402380D01*
X82797619Y-36354761D01*
X82845238Y-36307142D01*
X82940476Y-36164285D01*
X82988095Y-35973809D01*
X82988095Y-35592857D01*
X82940476Y-35497619D01*
X82892857Y-35450000D01*
X82797619Y-35402380D01*
X82607142Y-35402380D01*
X82511904Y-35450000D01*
X82464285Y-35497619D01*
X82416666Y-35592857D01*
X82416666Y-35830952D01*
X82464285Y-35926190D01*
X82511904Y-35973809D01*
X82607142Y-36021428D01*
X82797619Y-36021428D01*
X82892857Y-35973809D01*
X82940476Y-35926190D01*
X82988095Y-35830952D01*
X17511904Y-36354761D02*
X17654761Y-36402380D01*
X17892857Y-36402380D01*
X17988095Y-36354761D01*
X18035714Y-36307142D01*
X18083333Y-36211904D01*
X18083333Y-36116666D01*
X18035714Y-36021428D01*
X17988095Y-35973809D01*
X17892857Y-35926190D01*
X17702380Y-35878571D01*
X17607142Y-35830952D01*
X17559523Y-35783333D01*
X17511904Y-35688095D01*
X17511904Y-35592857D01*
X17559523Y-35497619D01*
X17607142Y-35450000D01*
X17702380Y-35402380D01*
X17940476Y-35402380D01*
X18083333Y-35450000D01*
X18464285Y-35497619D02*
X18511904Y-35450000D01*
X18607142Y-35402380D01*
X18845238Y-35402380D01*
X18940476Y-35450000D01*
X18988095Y-35497619D01*
X19035714Y-35592857D01*
X19035714Y-35688095D01*
X18988095Y-35830952D01*
X18416666Y-36402380D01*
X19035714Y-36402380D01*
X19654761Y-35402380D02*
X19750000Y-35402380D01*
X19845238Y-35450000D01*
X19892857Y-35497619D01*
X19940476Y-35592857D01*
X19988095Y-35783333D01*
X19988095Y-36021428D01*
X19940476Y-36211904D01*
X19892857Y-36307142D01*
X19845238Y-36354761D01*
X19750000Y-36402380D01*
X19654761Y-36402380D01*
X19559523Y-36354761D01*
X19511904Y-36307142D01*
X19464285Y-36211904D01*
X19416666Y-36021428D01*
X19416666Y-35783333D01*
X19464285Y-35592857D01*
X19511904Y-35497619D01*
X19559523Y-35450000D01*
X19654761Y-35402380D01*
X68261904Y-95904761D02*
X68404761Y-95952380D01*
X68642857Y-95952380D01*
X68738095Y-95904761D01*
X68785714Y-95857142D01*
X68833333Y-95761904D01*
X68833333Y-95666666D01*
X68785714Y-95571428D01*
X68738095Y-95523809D01*
X68642857Y-95476190D01*
X68452380Y-95428571D01*
X68357142Y-95380952D01*
X68309523Y-95333333D01*
X68261904Y-95238095D01*
X68261904Y-95142857D01*
X68309523Y-95047619D01*
X68357142Y-95000000D01*
X68452380Y-94952380D01*
X68690476Y-94952380D01*
X68833333Y-95000000D01*
X69214285Y-95047619D02*
X69261904Y-95000000D01*
X69357142Y-94952380D01*
X69595238Y-94952380D01*
X69690476Y-95000000D01*
X69738095Y-95047619D01*
X69785714Y-95142857D01*
X69785714Y-95238095D01*
X69738095Y-95380952D01*
X69166666Y-95952380D01*
X69785714Y-95952380D01*
X70738095Y-95952380D02*
X70166666Y-95952380D01*
X70452380Y-95952380D02*
X70452380Y-94952380D01*
X70357142Y-95095238D01*
X70261904Y-95190476D01*
X70166666Y-95238095D01*
X57666666Y-32952380D02*
X57666666Y-33666666D01*
X57619047Y-33809523D01*
X57523809Y-33904761D01*
X57380952Y-33952380D01*
X57285714Y-33952380D01*
X58047619Y-32952380D02*
X58666666Y-32952380D01*
X58333333Y-33333333D01*
X58476190Y-33333333D01*
X58571428Y-33380952D01*
X58619047Y-33428571D01*
X58666666Y-33523809D01*
X58666666Y-33761904D01*
X58619047Y-33857142D01*
X58571428Y-33904761D01*
X58476190Y-33952380D01*
X58190476Y-33952380D01*
X58095238Y-33904761D01*
X58047619Y-33857142D01*
X13122380Y-85851904D02*
X13931904Y-85851904D01*
X14027142Y-85804285D01*
X14074761Y-85756666D01*
X14122380Y-85661428D01*
X14122380Y-85470952D01*
X14074761Y-85375714D01*
X14027142Y-85328095D01*
X13931904Y-85280476D01*
X13122380Y-85280476D01*
X13217619Y-84851904D02*
X13170000Y-84804285D01*
X13122380Y-84709047D01*
X13122380Y-84470952D01*
X13170000Y-84375714D01*
X13217619Y-84328095D01*
X13312857Y-84280476D01*
X13408095Y-84280476D01*
X13550952Y-84328095D01*
X14122380Y-84899523D01*
X14122380Y-84280476D01*
X39952380Y-102452857D02*
X39476190Y-102786190D01*
X39952380Y-103024285D02*
X38952380Y-103024285D01*
X38952380Y-102643333D01*
X39000000Y-102548095D01*
X39047619Y-102500476D01*
X39142857Y-102452857D01*
X39285714Y-102452857D01*
X39380952Y-102500476D01*
X39428571Y-102548095D01*
X39476190Y-102643333D01*
X39476190Y-103024285D01*
X39047619Y-102071904D02*
X39000000Y-102024285D01*
X38952380Y-101929047D01*
X38952380Y-101690952D01*
X39000000Y-101595714D01*
X39047619Y-101548095D01*
X39142857Y-101500476D01*
X39238095Y-101500476D01*
X39380952Y-101548095D01*
X39952380Y-102119523D01*
X39952380Y-101500476D01*
X38952380Y-101167142D02*
X38952380Y-100548095D01*
X39333333Y-100881428D01*
X39333333Y-100738571D01*
X39380952Y-100643333D01*
X39428571Y-100595714D01*
X39523809Y-100548095D01*
X39761904Y-100548095D01*
X39857142Y-100595714D01*
X39904761Y-100643333D01*
X39952380Y-100738571D01*
X39952380Y-101024285D01*
X39904761Y-101119523D01*
X39857142Y-101167142D01*
X60083333Y-85817142D02*
X60035714Y-85864761D01*
X59892857Y-85912380D01*
X59797619Y-85912380D01*
X59654761Y-85864761D01*
X59559523Y-85769523D01*
X59511904Y-85674285D01*
X59464285Y-85483809D01*
X59464285Y-85340952D01*
X59511904Y-85150476D01*
X59559523Y-85055238D01*
X59654761Y-84960000D01*
X59797619Y-84912380D01*
X59892857Y-84912380D01*
X60035714Y-84960000D01*
X60083333Y-85007619D01*
X61035714Y-85912380D02*
X60464285Y-85912380D01*
X60750000Y-85912380D02*
X60750000Y-84912380D01*
X60654761Y-85055238D01*
X60559523Y-85150476D01*
X60464285Y-85198095D01*
X15166666Y-27904761D02*
X15309523Y-27952380D01*
X15547619Y-27952380D01*
X15642857Y-27904761D01*
X15690476Y-27857142D01*
X15738095Y-27761904D01*
X15738095Y-27666666D01*
X15690476Y-27571428D01*
X15642857Y-27523809D01*
X15547619Y-27476190D01*
X15357142Y-27428571D01*
X15261904Y-27380952D01*
X15214285Y-27333333D01*
X15166666Y-27238095D01*
X15166666Y-27142857D01*
X15214285Y-27047619D01*
X15261904Y-27000000D01*
X15357142Y-26952380D01*
X15595238Y-26952380D01*
X15738095Y-27000000D01*
X16071428Y-26952380D02*
X16309523Y-27952380D01*
X16500000Y-27238095D01*
X16690476Y-27952380D01*
X16928571Y-26952380D01*
X17214285Y-26952380D02*
X17833333Y-26952380D01*
X17500000Y-27333333D01*
X17642857Y-27333333D01*
X17738095Y-27380952D01*
X17785714Y-27428571D01*
X17833333Y-27523809D01*
X17833333Y-27761904D01*
X17785714Y-27857142D01*
X17738095Y-27904761D01*
X17642857Y-27952380D01*
X17357142Y-27952380D01*
X17261904Y-27904761D01*
X17214285Y-27857142D01*
X54952380Y-39302857D02*
X54476190Y-39636190D01*
X54952380Y-39874285D02*
X53952380Y-39874285D01*
X53952380Y-39493333D01*
X54000000Y-39398095D01*
X54047619Y-39350476D01*
X54142857Y-39302857D01*
X54285714Y-39302857D01*
X54380952Y-39350476D01*
X54428571Y-39398095D01*
X54476190Y-39493333D01*
X54476190Y-39874285D01*
X54952380Y-38350476D02*
X54952380Y-38921904D01*
X54952380Y-38636190D02*
X53952380Y-38636190D01*
X54095238Y-38731428D01*
X54190476Y-38826666D01*
X54238095Y-38921904D01*
X54285714Y-37493333D02*
X54952380Y-37493333D01*
X53904761Y-37731428D02*
X54619047Y-37969523D01*
X54619047Y-37350476D01*
X50952380Y-39302857D02*
X50476190Y-39636190D01*
X50952380Y-39874285D02*
X49952380Y-39874285D01*
X49952380Y-39493333D01*
X50000000Y-39398095D01*
X50047619Y-39350476D01*
X50142857Y-39302857D01*
X50285714Y-39302857D01*
X50380952Y-39350476D01*
X50428571Y-39398095D01*
X50476190Y-39493333D01*
X50476190Y-39874285D01*
X50952380Y-38350476D02*
X50952380Y-38921904D01*
X50952380Y-38636190D02*
X49952380Y-38636190D01*
X50095238Y-38731428D01*
X50190476Y-38826666D01*
X50238095Y-38921904D01*
X49952380Y-37445714D02*
X49952380Y-37921904D01*
X50428571Y-37969523D01*
X50380952Y-37921904D01*
X50333333Y-37826666D01*
X50333333Y-37588571D01*
X50380952Y-37493333D01*
X50428571Y-37445714D01*
X50523809Y-37398095D01*
X50761904Y-37398095D01*
X50857142Y-37445714D01*
X50904761Y-37493333D01*
X50952380Y-37588571D01*
X50952380Y-37826666D01*
X50904761Y-37921904D01*
X50857142Y-37969523D01*
X46952380Y-39302857D02*
X46476190Y-39636190D01*
X46952380Y-39874285D02*
X45952380Y-39874285D01*
X45952380Y-39493333D01*
X46000000Y-39398095D01*
X46047619Y-39350476D01*
X46142857Y-39302857D01*
X46285714Y-39302857D01*
X46380952Y-39350476D01*
X46428571Y-39398095D01*
X46476190Y-39493333D01*
X46476190Y-39874285D01*
X46952380Y-38350476D02*
X46952380Y-38921904D01*
X46952380Y-38636190D02*
X45952380Y-38636190D01*
X46095238Y-38731428D01*
X46190476Y-38826666D01*
X46238095Y-38921904D01*
X45952380Y-37493333D02*
X45952380Y-37683809D01*
X46000000Y-37779047D01*
X46047619Y-37826666D01*
X46190476Y-37921904D01*
X46380952Y-37969523D01*
X46761904Y-37969523D01*
X46857142Y-37921904D01*
X46904761Y-37874285D01*
X46952380Y-37779047D01*
X46952380Y-37588571D01*
X46904761Y-37493333D01*
X46857142Y-37445714D01*
X46761904Y-37398095D01*
X46523809Y-37398095D01*
X46428571Y-37445714D01*
X46380952Y-37493333D01*
X46333333Y-37588571D01*
X46333333Y-37779047D01*
X46380952Y-37874285D01*
X46428571Y-37921904D01*
X46523809Y-37969523D01*
X78167142Y-93452380D02*
X77833809Y-92976190D01*
X77595714Y-93452380D02*
X77595714Y-92452380D01*
X77976666Y-92452380D01*
X78071904Y-92500000D01*
X78119523Y-92547619D01*
X78167142Y-92642857D01*
X78167142Y-92785714D01*
X78119523Y-92880952D01*
X78071904Y-92928571D01*
X77976666Y-92976190D01*
X77595714Y-92976190D01*
X79119523Y-93452380D02*
X78548095Y-93452380D01*
X78833809Y-93452380D02*
X78833809Y-92452380D01*
X78738571Y-92595238D01*
X78643333Y-92690476D01*
X78548095Y-92738095D01*
X79452857Y-92452380D02*
X80119523Y-92452380D01*
X79690952Y-93452380D01*
X32452380Y-102432857D02*
X31976190Y-102766190D01*
X32452380Y-103004285D02*
X31452380Y-103004285D01*
X31452380Y-102623333D01*
X31500000Y-102528095D01*
X31547619Y-102480476D01*
X31642857Y-102432857D01*
X31785714Y-102432857D01*
X31880952Y-102480476D01*
X31928571Y-102528095D01*
X31976190Y-102623333D01*
X31976190Y-103004285D01*
X32452380Y-101480476D02*
X32452380Y-102051904D01*
X32452380Y-101766190D02*
X31452380Y-101766190D01*
X31595238Y-101861428D01*
X31690476Y-101956666D01*
X31738095Y-102051904D01*
X32452380Y-101004285D02*
X32452380Y-100813809D01*
X32404761Y-100718571D01*
X32357142Y-100670952D01*
X32214285Y-100575714D01*
X32023809Y-100528095D01*
X31642857Y-100528095D01*
X31547619Y-100575714D01*
X31500000Y-100623333D01*
X31452380Y-100718571D01*
X31452380Y-100909047D01*
X31500000Y-101004285D01*
X31547619Y-101051904D01*
X31642857Y-101099523D01*
X31880952Y-101099523D01*
X31976190Y-101051904D01*
X32023809Y-101004285D01*
X32071428Y-100909047D01*
X32071428Y-100718571D01*
X32023809Y-100623333D01*
X31976190Y-100575714D01*
X31880952Y-100528095D01*
X34952380Y-102402857D02*
X34476190Y-102736190D01*
X34952380Y-102974285D02*
X33952380Y-102974285D01*
X33952380Y-102593333D01*
X34000000Y-102498095D01*
X34047619Y-102450476D01*
X34142857Y-102402857D01*
X34285714Y-102402857D01*
X34380952Y-102450476D01*
X34428571Y-102498095D01*
X34476190Y-102593333D01*
X34476190Y-102974285D01*
X34047619Y-102021904D02*
X34000000Y-101974285D01*
X33952380Y-101879047D01*
X33952380Y-101640952D01*
X34000000Y-101545714D01*
X34047619Y-101498095D01*
X34142857Y-101450476D01*
X34238095Y-101450476D01*
X34380952Y-101498095D01*
X34952380Y-102069523D01*
X34952380Y-101450476D01*
X34952380Y-100498095D02*
X34952380Y-101069523D01*
X34952380Y-100783809D02*
X33952380Y-100783809D01*
X34095238Y-100879047D01*
X34190476Y-100974285D01*
X34238095Y-101069523D01*
X44952380Y-102402857D02*
X44476190Y-102736190D01*
X44952380Y-102974285D02*
X43952380Y-102974285D01*
X43952380Y-102593333D01*
X44000000Y-102498095D01*
X44047619Y-102450476D01*
X44142857Y-102402857D01*
X44285714Y-102402857D01*
X44380952Y-102450476D01*
X44428571Y-102498095D01*
X44476190Y-102593333D01*
X44476190Y-102974285D01*
X44047619Y-102021904D02*
X44000000Y-101974285D01*
X43952380Y-101879047D01*
X43952380Y-101640952D01*
X44000000Y-101545714D01*
X44047619Y-101498095D01*
X44142857Y-101450476D01*
X44238095Y-101450476D01*
X44380952Y-101498095D01*
X44952380Y-102069523D01*
X44952380Y-101450476D01*
X44285714Y-100593333D02*
X44952380Y-100593333D01*
X43904761Y-100831428D02*
X44619047Y-101069523D01*
X44619047Y-100450476D01*
X93447142Y-116952380D02*
X93113809Y-116476190D01*
X92875714Y-116952380D02*
X92875714Y-115952380D01*
X93256666Y-115952380D01*
X93351904Y-116000000D01*
X93399523Y-116047619D01*
X93447142Y-116142857D01*
X93447142Y-116285714D01*
X93399523Y-116380952D01*
X93351904Y-116428571D01*
X93256666Y-116476190D01*
X92875714Y-116476190D01*
X94399523Y-116952380D02*
X93828095Y-116952380D01*
X94113809Y-116952380D02*
X94113809Y-115952380D01*
X94018571Y-116095238D01*
X93923333Y-116190476D01*
X93828095Y-116238095D01*
X94970952Y-116380952D02*
X94875714Y-116333333D01*
X94828095Y-116285714D01*
X94780476Y-116190476D01*
X94780476Y-116142857D01*
X94828095Y-116047619D01*
X94875714Y-116000000D01*
X94970952Y-115952380D01*
X95161428Y-115952380D01*
X95256666Y-116000000D01*
X95304285Y-116047619D01*
X95351904Y-116142857D01*
X95351904Y-116190476D01*
X95304285Y-116285714D01*
X95256666Y-116333333D01*
X95161428Y-116380952D01*
X94970952Y-116380952D01*
X94875714Y-116428571D01*
X94828095Y-116476190D01*
X94780476Y-116571428D01*
X94780476Y-116761904D01*
X94828095Y-116857142D01*
X94875714Y-116904761D01*
X94970952Y-116952380D01*
X95161428Y-116952380D01*
X95256666Y-116904761D01*
X95304285Y-116857142D01*
X95351904Y-116761904D01*
X95351904Y-116571428D01*
X95304285Y-116476190D01*
X95256666Y-116428571D01*
X95161428Y-116380952D01*
X93357142Y-119952380D02*
X93023809Y-119476190D01*
X92785714Y-119952380D02*
X92785714Y-118952380D01*
X93166666Y-118952380D01*
X93261904Y-119000000D01*
X93309523Y-119047619D01*
X93357142Y-119142857D01*
X93357142Y-119285714D01*
X93309523Y-119380952D01*
X93261904Y-119428571D01*
X93166666Y-119476190D01*
X92785714Y-119476190D01*
X94309523Y-119952380D02*
X93738095Y-119952380D01*
X94023809Y-119952380D02*
X94023809Y-118952380D01*
X93928571Y-119095238D01*
X93833333Y-119190476D01*
X93738095Y-119238095D01*
X94642857Y-118952380D02*
X95261904Y-118952380D01*
X94928571Y-119333333D01*
X95071428Y-119333333D01*
X95166666Y-119380952D01*
X95214285Y-119428571D01*
X95261904Y-119523809D01*
X95261904Y-119761904D01*
X95214285Y-119857142D01*
X95166666Y-119904761D01*
X95071428Y-119952380D01*
X94785714Y-119952380D01*
X94690476Y-119904761D01*
X94642857Y-119857142D01*
X42452380Y-102432857D02*
X41976190Y-102766190D01*
X42452380Y-103004285D02*
X41452380Y-103004285D01*
X41452380Y-102623333D01*
X41500000Y-102528095D01*
X41547619Y-102480476D01*
X41642857Y-102432857D01*
X41785714Y-102432857D01*
X41880952Y-102480476D01*
X41928571Y-102528095D01*
X41976190Y-102623333D01*
X41976190Y-103004285D01*
X41547619Y-102051904D02*
X41500000Y-102004285D01*
X41452380Y-101909047D01*
X41452380Y-101670952D01*
X41500000Y-101575714D01*
X41547619Y-101528095D01*
X41642857Y-101480476D01*
X41738095Y-101480476D01*
X41880952Y-101528095D01*
X42452380Y-102099523D01*
X42452380Y-101480476D01*
X41547619Y-101099523D02*
X41500000Y-101051904D01*
X41452380Y-100956666D01*
X41452380Y-100718571D01*
X41500000Y-100623333D01*
X41547619Y-100575714D01*
X41642857Y-100528095D01*
X41738095Y-100528095D01*
X41880952Y-100575714D01*
X42452380Y-101147142D01*
X42452380Y-100528095D01*
X97952380Y-56856666D02*
X97476190Y-57190000D01*
X97952380Y-57428095D02*
X96952380Y-57428095D01*
X96952380Y-57047142D01*
X97000000Y-56951904D01*
X97047619Y-56904285D01*
X97142857Y-56856666D01*
X97285714Y-56856666D01*
X97380952Y-56904285D01*
X97428571Y-56951904D01*
X97476190Y-57047142D01*
X97476190Y-57428095D01*
X97952380Y-55904285D02*
X97952380Y-56475714D01*
X97952380Y-56190000D02*
X96952380Y-56190000D01*
X97095238Y-56285238D01*
X97190476Y-56380476D01*
X97238095Y-56475714D01*
X97952380Y-66876666D02*
X97476190Y-67210000D01*
X97952380Y-67448095D02*
X96952380Y-67448095D01*
X96952380Y-67067142D01*
X97000000Y-66971904D01*
X97047619Y-66924285D01*
X97142857Y-66876666D01*
X97285714Y-66876666D01*
X97380952Y-66924285D01*
X97428571Y-66971904D01*
X97476190Y-67067142D01*
X97476190Y-67448095D01*
X97047619Y-66495714D02*
X97000000Y-66448095D01*
X96952380Y-66352857D01*
X96952380Y-66114761D01*
X97000000Y-66019523D01*
X97047619Y-65971904D01*
X97142857Y-65924285D01*
X97238095Y-65924285D01*
X97380952Y-65971904D01*
X97952380Y-66543333D01*
X97952380Y-65924285D01*
X70652380Y-85416666D02*
X70176190Y-85750000D01*
X70652380Y-85988095D02*
X69652380Y-85988095D01*
X69652380Y-85607142D01*
X69700000Y-85511904D01*
X69747619Y-85464285D01*
X69842857Y-85416666D01*
X69985714Y-85416666D01*
X70080952Y-85464285D01*
X70128571Y-85511904D01*
X70176190Y-85607142D01*
X70176190Y-85988095D01*
X69652380Y-85083333D02*
X69652380Y-84464285D01*
X70033333Y-84797619D01*
X70033333Y-84654761D01*
X70080952Y-84559523D01*
X70128571Y-84511904D01*
X70223809Y-84464285D01*
X70461904Y-84464285D01*
X70557142Y-84511904D01*
X70604761Y-84559523D01*
X70652380Y-84654761D01*
X70652380Y-84940476D01*
X70604761Y-85035714D01*
X70557142Y-85083333D01*
X73052380Y-85606666D02*
X72576190Y-85940000D01*
X73052380Y-86178095D02*
X72052380Y-86178095D01*
X72052380Y-85797142D01*
X72100000Y-85701904D01*
X72147619Y-85654285D01*
X72242857Y-85606666D01*
X72385714Y-85606666D01*
X72480952Y-85654285D01*
X72528571Y-85701904D01*
X72576190Y-85797142D01*
X72576190Y-86178095D01*
X72385714Y-84749523D02*
X73052380Y-84749523D01*
X72004761Y-84987619D02*
X72719047Y-85225714D01*
X72719047Y-84606666D01*
X72523333Y-34452380D02*
X72190000Y-33976190D01*
X71951904Y-34452380D02*
X71951904Y-33452380D01*
X72332857Y-33452380D01*
X72428095Y-33500000D01*
X72475714Y-33547619D01*
X72523333Y-33642857D01*
X72523333Y-33785714D01*
X72475714Y-33880952D01*
X72428095Y-33928571D01*
X72332857Y-33976190D01*
X71951904Y-33976190D01*
X73428095Y-33452380D02*
X72951904Y-33452380D01*
X72904285Y-33928571D01*
X72951904Y-33880952D01*
X73047142Y-33833333D01*
X73285238Y-33833333D01*
X73380476Y-33880952D01*
X73428095Y-33928571D01*
X73475714Y-34023809D01*
X73475714Y-34261904D01*
X73428095Y-34357142D01*
X73380476Y-34404761D01*
X73285238Y-34452380D01*
X73047142Y-34452380D01*
X72951904Y-34404761D01*
X72904285Y-34357142D01*
X79952380Y-20582857D02*
X79476190Y-20916190D01*
X79952380Y-21154285D02*
X78952380Y-21154285D01*
X78952380Y-20773333D01*
X79000000Y-20678095D01*
X79047619Y-20630476D01*
X79142857Y-20582857D01*
X79285714Y-20582857D01*
X79380952Y-20630476D01*
X79428571Y-20678095D01*
X79476190Y-20773333D01*
X79476190Y-21154285D01*
X79952380Y-19630476D02*
X79952380Y-20201904D01*
X79952380Y-19916190D02*
X78952380Y-19916190D01*
X79095238Y-20011428D01*
X79190476Y-20106666D01*
X79238095Y-20201904D01*
X79047619Y-19249523D02*
X79000000Y-19201904D01*
X78952380Y-19106666D01*
X78952380Y-18868571D01*
X79000000Y-18773333D01*
X79047619Y-18725714D01*
X79142857Y-18678095D01*
X79238095Y-18678095D01*
X79380952Y-18725714D01*
X79952380Y-19297142D01*
X79952380Y-18678095D01*
X91952380Y-19916666D02*
X91476190Y-20250000D01*
X91952380Y-20488095D02*
X90952380Y-20488095D01*
X90952380Y-20107142D01*
X91000000Y-20011904D01*
X91047619Y-19964285D01*
X91142857Y-19916666D01*
X91285714Y-19916666D01*
X91380952Y-19964285D01*
X91428571Y-20011904D01*
X91476190Y-20107142D01*
X91476190Y-20488095D01*
X91380952Y-19345238D02*
X91333333Y-19440476D01*
X91285714Y-19488095D01*
X91190476Y-19535714D01*
X91142857Y-19535714D01*
X91047619Y-19488095D01*
X91000000Y-19440476D01*
X90952380Y-19345238D01*
X90952380Y-19154761D01*
X91000000Y-19059523D01*
X91047619Y-19011904D01*
X91142857Y-18964285D01*
X91190476Y-18964285D01*
X91285714Y-19011904D01*
X91333333Y-19059523D01*
X91380952Y-19154761D01*
X91380952Y-19345238D01*
X91428571Y-19440476D01*
X91476190Y-19488095D01*
X91571428Y-19535714D01*
X91761904Y-19535714D01*
X91857142Y-19488095D01*
X91904761Y-19440476D01*
X91952380Y-19345238D01*
X91952380Y-19154761D01*
X91904761Y-19059523D01*
X91857142Y-19011904D01*
X91761904Y-18964285D01*
X91571428Y-18964285D01*
X91476190Y-19011904D01*
X91428571Y-19059523D01*
X91380952Y-19154761D01*
X88952380Y-19916666D02*
X88476190Y-20250000D01*
X88952380Y-20488095D02*
X87952380Y-20488095D01*
X87952380Y-20107142D01*
X88000000Y-20011904D01*
X88047619Y-19964285D01*
X88142857Y-19916666D01*
X88285714Y-19916666D01*
X88380952Y-19964285D01*
X88428571Y-20011904D01*
X88476190Y-20107142D01*
X88476190Y-20488095D01*
X88952380Y-19440476D02*
X88952380Y-19250000D01*
X88904761Y-19154761D01*
X88857142Y-19107142D01*
X88714285Y-19011904D01*
X88523809Y-18964285D01*
X88142857Y-18964285D01*
X88047619Y-19011904D01*
X88000000Y-19059523D01*
X87952380Y-19154761D01*
X87952380Y-19345238D01*
X88000000Y-19440476D01*
X88047619Y-19488095D01*
X88142857Y-19535714D01*
X88380952Y-19535714D01*
X88476190Y-19488095D01*
X88523809Y-19440476D01*
X88571428Y-19345238D01*
X88571428Y-19154761D01*
X88523809Y-19059523D01*
X88476190Y-19011904D01*
X88380952Y-18964285D01*
X85952380Y-20582857D02*
X85476190Y-20916190D01*
X85952380Y-21154285D02*
X84952380Y-21154285D01*
X84952380Y-20773333D01*
X85000000Y-20678095D01*
X85047619Y-20630476D01*
X85142857Y-20582857D01*
X85285714Y-20582857D01*
X85380952Y-20630476D01*
X85428571Y-20678095D01*
X85476190Y-20773333D01*
X85476190Y-21154285D01*
X85952380Y-19630476D02*
X85952380Y-20201904D01*
X85952380Y-19916190D02*
X84952380Y-19916190D01*
X85095238Y-20011428D01*
X85190476Y-20106666D01*
X85238095Y-20201904D01*
X84952380Y-19011428D02*
X84952380Y-18916190D01*
X85000000Y-18820952D01*
X85047619Y-18773333D01*
X85142857Y-18725714D01*
X85333333Y-18678095D01*
X85571428Y-18678095D01*
X85761904Y-18725714D01*
X85857142Y-18773333D01*
X85904761Y-18820952D01*
X85952380Y-18916190D01*
X85952380Y-19011428D01*
X85904761Y-19106666D01*
X85857142Y-19154285D01*
X85761904Y-19201904D01*
X85571428Y-19249523D01*
X85333333Y-19249523D01*
X85142857Y-19201904D01*
X85047619Y-19154285D01*
X85000000Y-19106666D01*
X84952380Y-19011428D01*
X82952380Y-20582857D02*
X82476190Y-20916190D01*
X82952380Y-21154285D02*
X81952380Y-21154285D01*
X81952380Y-20773333D01*
X82000000Y-20678095D01*
X82047619Y-20630476D01*
X82142857Y-20582857D01*
X82285714Y-20582857D01*
X82380952Y-20630476D01*
X82428571Y-20678095D01*
X82476190Y-20773333D01*
X82476190Y-21154285D01*
X82952380Y-19630476D02*
X82952380Y-20201904D01*
X82952380Y-19916190D02*
X81952380Y-19916190D01*
X82095238Y-20011428D01*
X82190476Y-20106666D01*
X82238095Y-20201904D01*
X82952380Y-18678095D02*
X82952380Y-19249523D01*
X82952380Y-18963809D02*
X81952380Y-18963809D01*
X82095238Y-19059047D01*
X82190476Y-19154285D01*
X82238095Y-19249523D01*
X29952380Y-102402857D02*
X29476190Y-102736190D01*
X29952380Y-102974285D02*
X28952380Y-102974285D01*
X28952380Y-102593333D01*
X29000000Y-102498095D01*
X29047619Y-102450476D01*
X29142857Y-102402857D01*
X29285714Y-102402857D01*
X29380952Y-102450476D01*
X29428571Y-102498095D01*
X29476190Y-102593333D01*
X29476190Y-102974285D01*
X29047619Y-102021904D02*
X29000000Y-101974285D01*
X28952380Y-101879047D01*
X28952380Y-101640952D01*
X29000000Y-101545714D01*
X29047619Y-101498095D01*
X29142857Y-101450476D01*
X29238095Y-101450476D01*
X29380952Y-101498095D01*
X29952380Y-102069523D01*
X29952380Y-101450476D01*
X28952380Y-100831428D02*
X28952380Y-100736190D01*
X29000000Y-100640952D01*
X29047619Y-100593333D01*
X29142857Y-100545714D01*
X29333333Y-100498095D01*
X29571428Y-100498095D01*
X29761904Y-100545714D01*
X29857142Y-100593333D01*
X29904761Y-100640952D01*
X29952380Y-100736190D01*
X29952380Y-100831428D01*
X29904761Y-100926666D01*
X29857142Y-100974285D01*
X29761904Y-101021904D01*
X29571428Y-101069523D01*
X29333333Y-101069523D01*
X29142857Y-101021904D01*
X29047619Y-100974285D01*
X29000000Y-100926666D01*
X28952380Y-100831428D01*
X97952380Y-20106666D02*
X97476190Y-20440000D01*
X97952380Y-20678095D02*
X96952380Y-20678095D01*
X96952380Y-20297142D01*
X97000000Y-20201904D01*
X97047619Y-20154285D01*
X97142857Y-20106666D01*
X97285714Y-20106666D01*
X97380952Y-20154285D01*
X97428571Y-20201904D01*
X97476190Y-20297142D01*
X97476190Y-20678095D01*
X96952380Y-19249523D02*
X96952380Y-19440000D01*
X97000000Y-19535238D01*
X97047619Y-19582857D01*
X97190476Y-19678095D01*
X97380952Y-19725714D01*
X97761904Y-19725714D01*
X97857142Y-19678095D01*
X97904761Y-19630476D01*
X97952380Y-19535238D01*
X97952380Y-19344761D01*
X97904761Y-19249523D01*
X97857142Y-19201904D01*
X97761904Y-19154285D01*
X97523809Y-19154285D01*
X97428571Y-19201904D01*
X97380952Y-19249523D01*
X97333333Y-19344761D01*
X97333333Y-19535238D01*
X97380952Y-19630476D01*
X97428571Y-19678095D01*
X97523809Y-19725714D01*
X94952380Y-20106666D02*
X94476190Y-20440000D01*
X94952380Y-20678095D02*
X93952380Y-20678095D01*
X93952380Y-20297142D01*
X94000000Y-20201904D01*
X94047619Y-20154285D01*
X94142857Y-20106666D01*
X94285714Y-20106666D01*
X94380952Y-20154285D01*
X94428571Y-20201904D01*
X94476190Y-20297142D01*
X94476190Y-20678095D01*
X93952380Y-19773333D02*
X93952380Y-19106666D01*
X94952380Y-19535238D01*
X97683333Y-97532142D02*
X97635714Y-97579761D01*
X97492857Y-97627380D01*
X97397619Y-97627380D01*
X97254761Y-97579761D01*
X97159523Y-97484523D01*
X97111904Y-97389285D01*
X97064285Y-97198809D01*
X97064285Y-97055952D01*
X97111904Y-96865476D01*
X97159523Y-96770238D01*
X97254761Y-96675000D01*
X97397619Y-96627380D01*
X97492857Y-96627380D01*
X97635714Y-96675000D01*
X97683333Y-96722619D01*
X98064285Y-96722619D02*
X98111904Y-96675000D01*
X98207142Y-96627380D01*
X98445238Y-96627380D01*
X98540476Y-96675000D01*
X98588095Y-96722619D01*
X98635714Y-96817857D01*
X98635714Y-96913095D01*
X98588095Y-97055952D01*
X98016666Y-97627380D01*
X98635714Y-97627380D01*
X105083333Y-98817142D02*
X105035714Y-98864761D01*
X104892857Y-98912380D01*
X104797619Y-98912380D01*
X104654761Y-98864761D01*
X104559523Y-98769523D01*
X104511904Y-98674285D01*
X104464285Y-98483809D01*
X104464285Y-98340952D01*
X104511904Y-98150476D01*
X104559523Y-98055238D01*
X104654761Y-97960000D01*
X104797619Y-97912380D01*
X104892857Y-97912380D01*
X105035714Y-97960000D01*
X105083333Y-98007619D01*
X105940476Y-98245714D02*
X105940476Y-98912380D01*
X105702380Y-97864761D02*
X105464285Y-98579047D01*
X106083333Y-98579047D01*
X53333333Y-87857142D02*
X53285714Y-87904761D01*
X53142857Y-87952380D01*
X53047619Y-87952380D01*
X52904761Y-87904761D01*
X52809523Y-87809523D01*
X52761904Y-87714285D01*
X52714285Y-87523809D01*
X52714285Y-87380952D01*
X52761904Y-87190476D01*
X52809523Y-87095238D01*
X52904761Y-87000000D01*
X53047619Y-86952380D01*
X53142857Y-86952380D01*
X53285714Y-87000000D01*
X53333333Y-87047619D01*
X54238095Y-86952380D02*
X53761904Y-86952380D01*
X53714285Y-87428571D01*
X53761904Y-87380952D01*
X53857142Y-87333333D01*
X54095238Y-87333333D01*
X54190476Y-87380952D01*
X54238095Y-87428571D01*
X54285714Y-87523809D01*
X54285714Y-87761904D01*
X54238095Y-87857142D01*
X54190476Y-87904761D01*
X54095238Y-87952380D01*
X53857142Y-87952380D01*
X53761904Y-87904761D01*
X53714285Y-87857142D01*
X105383333Y-38767142D02*
X105335714Y-38814761D01*
X105192857Y-38862380D01*
X105097619Y-38862380D01*
X104954761Y-38814761D01*
X104859523Y-38719523D01*
X104811904Y-38624285D01*
X104764285Y-38433809D01*
X104764285Y-38290952D01*
X104811904Y-38100476D01*
X104859523Y-38005238D01*
X104954761Y-37910000D01*
X105097619Y-37862380D01*
X105192857Y-37862380D01*
X105335714Y-37910000D01*
X105383333Y-37957619D01*
X105716666Y-37862380D02*
X106383333Y-37862380D01*
X105954761Y-38862380D01*
X94333333Y-41357142D02*
X94285714Y-41404761D01*
X94142857Y-41452380D01*
X94047619Y-41452380D01*
X93904761Y-41404761D01*
X93809523Y-41309523D01*
X93761904Y-41214285D01*
X93714285Y-41023809D01*
X93714285Y-40880952D01*
X93761904Y-40690476D01*
X93809523Y-40595238D01*
X93904761Y-40500000D01*
X94047619Y-40452380D01*
X94142857Y-40452380D01*
X94285714Y-40500000D01*
X94333333Y-40547619D01*
X94904761Y-40880952D02*
X94809523Y-40833333D01*
X94761904Y-40785714D01*
X94714285Y-40690476D01*
X94714285Y-40642857D01*
X94761904Y-40547619D01*
X94809523Y-40500000D01*
X94904761Y-40452380D01*
X95095238Y-40452380D01*
X95190476Y-40500000D01*
X95238095Y-40547619D01*
X95285714Y-40642857D01*
X95285714Y-40690476D01*
X95238095Y-40785714D01*
X95190476Y-40833333D01*
X95095238Y-40880952D01*
X94904761Y-40880952D01*
X94809523Y-40928571D01*
X94761904Y-40976190D01*
X94714285Y-41071428D01*
X94714285Y-41261904D01*
X94761904Y-41357142D01*
X94809523Y-41404761D01*
X94904761Y-41452380D01*
X95095238Y-41452380D01*
X95190476Y-41404761D01*
X95238095Y-41357142D01*
X95285714Y-41261904D01*
X95285714Y-41071428D01*
X95238095Y-40976190D01*
X95190476Y-40928571D01*
X95095238Y-40880952D01*
X18161904Y-48302380D02*
X18161904Y-47302380D01*
X18400000Y-47302380D01*
X18542857Y-47350000D01*
X18638095Y-47445238D01*
X18685714Y-47540476D01*
X18733333Y-47730952D01*
X18733333Y-47873809D01*
X18685714Y-48064285D01*
X18638095Y-48159523D01*
X18542857Y-48254761D01*
X18400000Y-48302380D01*
X18161904Y-48302380D01*
X19685714Y-48302380D02*
X19114285Y-48302380D01*
X19400000Y-48302380D02*
X19400000Y-47302380D01*
X19304761Y-47445238D01*
X19209523Y-47540476D01*
X19114285Y-47588095D01*
X15390095Y-52926380D02*
X15390095Y-51926380D01*
X15961523Y-52926380D02*
X15532952Y-52354952D01*
X15961523Y-51926380D02*
X15390095Y-52497809D01*
X28411904Y-48252380D02*
X28411904Y-47252380D01*
X28650000Y-47252380D01*
X28792857Y-47300000D01*
X28888095Y-47395238D01*
X28935714Y-47490476D01*
X28983333Y-47680952D01*
X28983333Y-47823809D01*
X28935714Y-48014285D01*
X28888095Y-48109523D01*
X28792857Y-48204761D01*
X28650000Y-48252380D01*
X28411904Y-48252380D01*
X29364285Y-47347619D02*
X29411904Y-47300000D01*
X29507142Y-47252380D01*
X29745238Y-47252380D01*
X29840476Y-47300000D01*
X29888095Y-47347619D01*
X29935714Y-47442857D01*
X29935714Y-47538095D01*
X29888095Y-47680952D01*
X29316666Y-48252380D01*
X29935714Y-48252380D01*
X25806421Y-52926380D02*
X25806421Y-51926380D01*
X26377849Y-52926380D02*
X25949278Y-52354952D01*
X26377849Y-51926380D02*
X25806421Y-52497809D01*
X38794556Y-48452380D02*
X38794556Y-47452380D01*
X39032652Y-47452380D01*
X39175509Y-47500000D01*
X39270747Y-47595238D01*
X39318366Y-47690476D01*
X39365985Y-47880952D01*
X39365985Y-48023809D01*
X39318366Y-48214285D01*
X39270747Y-48309523D01*
X39175509Y-48404761D01*
X39032652Y-48452380D01*
X38794556Y-48452380D01*
X39699318Y-47452380D02*
X40318366Y-47452380D01*
X39985032Y-47833333D01*
X40127890Y-47833333D01*
X40223128Y-47880952D01*
X40270747Y-47928571D01*
X40318366Y-48023809D01*
X40318366Y-48261904D01*
X40270747Y-48357142D01*
X40223128Y-48404761D01*
X40127890Y-48452380D01*
X39842175Y-48452380D01*
X39746937Y-48404761D01*
X39699318Y-48357142D01*
X36222747Y-52926380D02*
X36222747Y-51926380D01*
X36794175Y-52926380D02*
X36365604Y-52354952D01*
X36794175Y-51926380D02*
X36222747Y-52497809D01*
X49261904Y-48452380D02*
X49261904Y-47452380D01*
X49500000Y-47452380D01*
X49642857Y-47500000D01*
X49738095Y-47595238D01*
X49785714Y-47690476D01*
X49833333Y-47880952D01*
X49833333Y-48023809D01*
X49785714Y-48214285D01*
X49738095Y-48309523D01*
X49642857Y-48404761D01*
X49500000Y-48452380D01*
X49261904Y-48452380D01*
X50690476Y-47785714D02*
X50690476Y-48452380D01*
X50452380Y-47404761D02*
X50214285Y-48119047D01*
X50833333Y-48119047D01*
X46639073Y-52926380D02*
X46639073Y-51926380D01*
X47210501Y-52926380D02*
X46781930Y-52354952D01*
X47210501Y-51926380D02*
X46639073Y-52497809D01*
X90876188Y-48452380D02*
X90876188Y-47452380D01*
X91114284Y-47452380D01*
X91257141Y-47500000D01*
X91352379Y-47595238D01*
X91399998Y-47690476D01*
X91447617Y-47880952D01*
X91447617Y-48023809D01*
X91399998Y-48214285D01*
X91352379Y-48309523D01*
X91257141Y-48404761D01*
X91114284Y-48452380D01*
X90876188Y-48452380D01*
X92352379Y-47452380D02*
X91876188Y-47452380D01*
X91828569Y-47928571D01*
X91876188Y-47880952D01*
X91971426Y-47833333D01*
X92209522Y-47833333D01*
X92304760Y-47880952D01*
X92352379Y-47928571D01*
X92399998Y-48023809D01*
X92399998Y-48261904D01*
X92352379Y-48357142D01*
X92304760Y-48404761D01*
X92209522Y-48452380D01*
X91971426Y-48452380D01*
X91876188Y-48404761D01*
X91828569Y-48357142D01*
X88304379Y-52926380D02*
X88304379Y-51926380D01*
X88875807Y-52926380D02*
X88447236Y-52354952D01*
X88875807Y-51926380D02*
X88304379Y-52497809D01*
X80261904Y-48452380D02*
X80261904Y-47452380D01*
X80500000Y-47452380D01*
X80642857Y-47500000D01*
X80738095Y-47595238D01*
X80785714Y-47690476D01*
X80833333Y-47880952D01*
X80833333Y-48023809D01*
X80785714Y-48214285D01*
X80738095Y-48309523D01*
X80642857Y-48404761D01*
X80500000Y-48452380D01*
X80261904Y-48452380D01*
X81690476Y-47452380D02*
X81500000Y-47452380D01*
X81404761Y-47500000D01*
X81357142Y-47547619D01*
X81261904Y-47690476D01*
X81214285Y-47880952D01*
X81214285Y-48261904D01*
X81261904Y-48357142D01*
X81309523Y-48404761D01*
X81404761Y-48452380D01*
X81595238Y-48452380D01*
X81690476Y-48404761D01*
X81738095Y-48357142D01*
X81785714Y-48261904D01*
X81785714Y-48023809D01*
X81738095Y-47928571D01*
X81690476Y-47880952D01*
X81595238Y-47833333D01*
X81404761Y-47833333D01*
X81309523Y-47880952D01*
X81261904Y-47928571D01*
X81214285Y-48023809D01*
X77888051Y-52926380D02*
X77888051Y-51926380D01*
X78459479Y-52926380D02*
X78030908Y-52354952D01*
X78459479Y-51926380D02*
X77888051Y-52497809D01*
X70043534Y-48452380D02*
X70043534Y-47452380D01*
X70281630Y-47452380D01*
X70424487Y-47500000D01*
X70519725Y-47595238D01*
X70567344Y-47690476D01*
X70614963Y-47880952D01*
X70614963Y-48023809D01*
X70567344Y-48214285D01*
X70519725Y-48309523D01*
X70424487Y-48404761D01*
X70281630Y-48452380D01*
X70043534Y-48452380D01*
X70948296Y-47452380D02*
X71614963Y-47452380D01*
X71186391Y-48452380D01*
X74238095Y-51452380D02*
X74238095Y-50452380D01*
X74809523Y-51452380D02*
X74380952Y-50880952D01*
X74809523Y-50452380D02*
X74238095Y-51023809D01*
X59627208Y-48452380D02*
X59627208Y-47452380D01*
X59865304Y-47452380D01*
X60008161Y-47500000D01*
X60103399Y-47595238D01*
X60151018Y-47690476D01*
X60198637Y-47880952D01*
X60198637Y-48023809D01*
X60151018Y-48214285D01*
X60103399Y-48309523D01*
X60008161Y-48404761D01*
X59865304Y-48452380D01*
X59627208Y-48452380D01*
X60770065Y-47880952D02*
X60674827Y-47833333D01*
X60627208Y-47785714D01*
X60579589Y-47690476D01*
X60579589Y-47642857D01*
X60627208Y-47547619D01*
X60674827Y-47500000D01*
X60770065Y-47452380D01*
X60960542Y-47452380D01*
X61055780Y-47500000D01*
X61103399Y-47547619D01*
X61151018Y-47642857D01*
X61151018Y-47690476D01*
X61103399Y-47785714D01*
X61055780Y-47833333D01*
X60960542Y-47880952D01*
X60770065Y-47880952D01*
X60674827Y-47928571D01*
X60627208Y-47976190D01*
X60579589Y-48071428D01*
X60579589Y-48261904D01*
X60627208Y-48357142D01*
X60674827Y-48404761D01*
X60770065Y-48452380D01*
X60960542Y-48452380D01*
X61055780Y-48404761D01*
X61103399Y-48357142D01*
X61151018Y-48261904D01*
X61151018Y-48071428D01*
X61103399Y-47976190D01*
X61055780Y-47928571D01*
X60960542Y-47880952D01*
X57055399Y-52926380D02*
X57055399Y-51926380D01*
X57626827Y-52926380D02*
X57198256Y-52354952D01*
X57626827Y-51926380D02*
X57055399Y-52497809D01*
X17961904Y-63952380D02*
X17961904Y-62952380D01*
X18200000Y-62952380D01*
X18342857Y-63000000D01*
X18438095Y-63095238D01*
X18485714Y-63190476D01*
X18533333Y-63380952D01*
X18533333Y-63523809D01*
X18485714Y-63714285D01*
X18438095Y-63809523D01*
X18342857Y-63904761D01*
X18200000Y-63952380D01*
X17961904Y-63952380D01*
X19009523Y-63952380D02*
X19200000Y-63952380D01*
X19295238Y-63904761D01*
X19342857Y-63857142D01*
X19438095Y-63714285D01*
X19485714Y-63523809D01*
X19485714Y-63142857D01*
X19438095Y-63047619D01*
X19390476Y-63000000D01*
X19295238Y-62952380D01*
X19104761Y-62952380D01*
X19009523Y-63000000D01*
X18961904Y-63047619D01*
X18914285Y-63142857D01*
X18914285Y-63380952D01*
X18961904Y-63476190D01*
X19009523Y-63523809D01*
X19104761Y-63571428D01*
X19295238Y-63571428D01*
X19390476Y-63523809D01*
X19438095Y-63476190D01*
X19485714Y-63380952D01*
X15390095Y-68426380D02*
X15390095Y-67426380D01*
X15961523Y-68426380D02*
X15532952Y-67854952D01*
X15961523Y-67426380D02*
X15390095Y-67997809D01*
X27902040Y-63952380D02*
X27902040Y-62952380D01*
X28140135Y-62952380D01*
X28282992Y-63000000D01*
X28378230Y-63095238D01*
X28425849Y-63190476D01*
X28473468Y-63380952D01*
X28473468Y-63523809D01*
X28425849Y-63714285D01*
X28378230Y-63809523D01*
X28282992Y-63904761D01*
X28140135Y-63952380D01*
X27902040Y-63952380D01*
X29425849Y-63952380D02*
X28854421Y-63952380D01*
X29140135Y-63952380D02*
X29140135Y-62952380D01*
X29044897Y-63095238D01*
X28949659Y-63190476D01*
X28854421Y-63238095D01*
X30044897Y-62952380D02*
X30140135Y-62952380D01*
X30235373Y-63000000D01*
X30282992Y-63047619D01*
X30330611Y-63142857D01*
X30378230Y-63333333D01*
X30378230Y-63571428D01*
X30330611Y-63761904D01*
X30282992Y-63857142D01*
X30235373Y-63904761D01*
X30140135Y-63952380D01*
X30044897Y-63952380D01*
X29949659Y-63904761D01*
X29902040Y-63857142D01*
X29854421Y-63761904D01*
X29806802Y-63571428D01*
X29806802Y-63333333D01*
X29854421Y-63142857D01*
X29902040Y-63047619D01*
X29949659Y-63000000D01*
X30044897Y-62952380D01*
X25806421Y-68426380D02*
X25806421Y-67426380D01*
X26377849Y-68426380D02*
X25949278Y-67854952D01*
X26377849Y-67426380D02*
X25806421Y-67997809D01*
X38285714Y-63952380D02*
X38285714Y-62952380D01*
X38523809Y-62952380D01*
X38666666Y-63000000D01*
X38761904Y-63095238D01*
X38809523Y-63190476D01*
X38857142Y-63380952D01*
X38857142Y-63523809D01*
X38809523Y-63714285D01*
X38761904Y-63809523D01*
X38666666Y-63904761D01*
X38523809Y-63952380D01*
X38285714Y-63952380D01*
X39809523Y-63952380D02*
X39238095Y-63952380D01*
X39523809Y-63952380D02*
X39523809Y-62952380D01*
X39428571Y-63095238D01*
X39333333Y-63190476D01*
X39238095Y-63238095D01*
X40761904Y-63952380D02*
X40190476Y-63952380D01*
X40476190Y-63952380D02*
X40476190Y-62952380D01*
X40380952Y-63095238D01*
X40285714Y-63190476D01*
X40190476Y-63238095D01*
X36222747Y-68426380D02*
X36222747Y-67426380D01*
X36794175Y-68426380D02*
X36365604Y-67854952D01*
X36794175Y-67426380D02*
X36222747Y-67997809D01*
X48734692Y-63952380D02*
X48734692Y-62952380D01*
X48972787Y-62952380D01*
X49115644Y-63000000D01*
X49210882Y-63095238D01*
X49258501Y-63190476D01*
X49306120Y-63380952D01*
X49306120Y-63523809D01*
X49258501Y-63714285D01*
X49210882Y-63809523D01*
X49115644Y-63904761D01*
X48972787Y-63952380D01*
X48734692Y-63952380D01*
X50258501Y-63952380D02*
X49687073Y-63952380D01*
X49972787Y-63952380D02*
X49972787Y-62952380D01*
X49877549Y-63095238D01*
X49782311Y-63190476D01*
X49687073Y-63238095D01*
X50639454Y-63047619D02*
X50687073Y-63000000D01*
X50782311Y-62952380D01*
X51020406Y-62952380D01*
X51115644Y-63000000D01*
X51163263Y-63047619D01*
X51210882Y-63142857D01*
X51210882Y-63238095D01*
X51163263Y-63380952D01*
X50591835Y-63952380D01*
X51210882Y-63952380D01*
X46639073Y-68426380D02*
X46639073Y-67426380D01*
X47210501Y-68426380D02*
X46781930Y-67854952D01*
X47210501Y-67426380D02*
X46639073Y-67997809D01*
X90399998Y-63952380D02*
X90399998Y-62952380D01*
X90638093Y-62952380D01*
X90780950Y-63000000D01*
X90876188Y-63095238D01*
X90923807Y-63190476D01*
X90971426Y-63380952D01*
X90971426Y-63523809D01*
X90923807Y-63714285D01*
X90876188Y-63809523D01*
X90780950Y-63904761D01*
X90638093Y-63952380D01*
X90399998Y-63952380D01*
X91923807Y-63952380D02*
X91352379Y-63952380D01*
X91638093Y-63952380D02*
X91638093Y-62952380D01*
X91542855Y-63095238D01*
X91447617Y-63190476D01*
X91352379Y-63238095D01*
X92257141Y-62952380D02*
X92876188Y-62952380D01*
X92542855Y-63333333D01*
X92685712Y-63333333D01*
X92780950Y-63380952D01*
X92828569Y-63428571D01*
X92876188Y-63523809D01*
X92876188Y-63761904D01*
X92828569Y-63857142D01*
X92780950Y-63904761D01*
X92685712Y-63952380D01*
X92399998Y-63952380D01*
X92304760Y-63904761D01*
X92257141Y-63857142D01*
X88304379Y-68426380D02*
X88304379Y-67426380D01*
X88875807Y-68426380D02*
X88447236Y-67854952D01*
X88875807Y-67426380D02*
X88304379Y-67997809D01*
X79983670Y-63952380D02*
X79983670Y-62952380D01*
X80221765Y-62952380D01*
X80364622Y-63000000D01*
X80459860Y-63095238D01*
X80507479Y-63190476D01*
X80555098Y-63380952D01*
X80555098Y-63523809D01*
X80507479Y-63714285D01*
X80459860Y-63809523D01*
X80364622Y-63904761D01*
X80221765Y-63952380D01*
X79983670Y-63952380D01*
X81507479Y-63952380D02*
X80936051Y-63952380D01*
X81221765Y-63952380D02*
X81221765Y-62952380D01*
X81126527Y-63095238D01*
X81031289Y-63190476D01*
X80936051Y-63238095D01*
X82364622Y-63285714D02*
X82364622Y-63952380D01*
X82126527Y-62904761D02*
X81888432Y-63619047D01*
X82507479Y-63619047D01*
X77888051Y-68426380D02*
X77888051Y-67426380D01*
X78459479Y-68426380D02*
X78030908Y-67854952D01*
X78459479Y-67426380D02*
X77888051Y-67997809D01*
X69567344Y-63952380D02*
X69567344Y-62952380D01*
X69805439Y-62952380D01*
X69948296Y-63000000D01*
X70043534Y-63095238D01*
X70091153Y-63190476D01*
X70138772Y-63380952D01*
X70138772Y-63523809D01*
X70091153Y-63714285D01*
X70043534Y-63809523D01*
X69948296Y-63904761D01*
X69805439Y-63952380D01*
X69567344Y-63952380D01*
X71091153Y-63952380D02*
X70519725Y-63952380D01*
X70805439Y-63952380D02*
X70805439Y-62952380D01*
X70710201Y-63095238D01*
X70614963Y-63190476D01*
X70519725Y-63238095D01*
X71995915Y-62952380D02*
X71519725Y-62952380D01*
X71472106Y-63428571D01*
X71519725Y-63380952D01*
X71614963Y-63333333D01*
X71853058Y-63333333D01*
X71948296Y-63380952D01*
X71995915Y-63428571D01*
X72043534Y-63523809D01*
X72043534Y-63761904D01*
X71995915Y-63857142D01*
X71948296Y-63904761D01*
X71853058Y-63952380D01*
X71614963Y-63952380D01*
X71519725Y-63904761D01*
X71472106Y-63857142D01*
X67471725Y-68426380D02*
X67471725Y-67426380D01*
X68043153Y-68426380D02*
X67614582Y-67854952D01*
X68043153Y-67426380D02*
X67471725Y-67997809D01*
X59285714Y-63952380D02*
X59285714Y-62952380D01*
X59523809Y-62952380D01*
X59666666Y-63000000D01*
X59761904Y-63095238D01*
X59809523Y-63190476D01*
X59857142Y-63380952D01*
X59857142Y-63523809D01*
X59809523Y-63714285D01*
X59761904Y-63809523D01*
X59666666Y-63904761D01*
X59523809Y-63952380D01*
X59285714Y-63952380D01*
X60809523Y-63952380D02*
X60238095Y-63952380D01*
X60523809Y-63952380D02*
X60523809Y-62952380D01*
X60428571Y-63095238D01*
X60333333Y-63190476D01*
X60238095Y-63238095D01*
X61666666Y-62952380D02*
X61476190Y-62952380D01*
X61380952Y-63000000D01*
X61333333Y-63047619D01*
X61238095Y-63190476D01*
X61190476Y-63380952D01*
X61190476Y-63761904D01*
X61238095Y-63857142D01*
X61285714Y-63904761D01*
X61380952Y-63952380D01*
X61571428Y-63952380D01*
X61666666Y-63904761D01*
X61714285Y-63857142D01*
X61761904Y-63761904D01*
X61761904Y-63523809D01*
X61714285Y-63428571D01*
X61666666Y-63380952D01*
X61571428Y-63333333D01*
X61380952Y-63333333D01*
X61285714Y-63380952D01*
X61238095Y-63428571D01*
X61190476Y-63523809D01*
X57055399Y-68426380D02*
X57055399Y-67426380D01*
X57626827Y-68426380D02*
X57198256Y-67854952D01*
X57626827Y-67426380D02*
X57055399Y-67997809D01*
X85285714Y-110452380D02*
X85285714Y-109452380D01*
X85523809Y-109452380D01*
X85666666Y-109500000D01*
X85761904Y-109595238D01*
X85809523Y-109690476D01*
X85857142Y-109880952D01*
X85857142Y-110023809D01*
X85809523Y-110214285D01*
X85761904Y-110309523D01*
X85666666Y-110404761D01*
X85523809Y-110452380D01*
X85285714Y-110452380D01*
X86809523Y-110452380D02*
X86238095Y-110452380D01*
X86523809Y-110452380D02*
X86523809Y-109452380D01*
X86428571Y-109595238D01*
X86333333Y-109690476D01*
X86238095Y-109738095D01*
X87142857Y-109452380D02*
X87809523Y-109452380D01*
X87380952Y-110452380D01*
X83190095Y-114976380D02*
X83190095Y-113976380D01*
X83761523Y-114976380D02*
X83332952Y-114404952D01*
X83761523Y-113976380D02*
X83190095Y-114547809D01*
X84235714Y-101100380D02*
X84235714Y-100100380D01*
X84473809Y-100100380D01*
X84616666Y-100148000D01*
X84711904Y-100243238D01*
X84759523Y-100338476D01*
X84807142Y-100528952D01*
X84807142Y-100671809D01*
X84759523Y-100862285D01*
X84711904Y-100957523D01*
X84616666Y-101052761D01*
X84473809Y-101100380D01*
X84235714Y-101100380D01*
X85759523Y-101100380D02*
X85188095Y-101100380D01*
X85473809Y-101100380D02*
X85473809Y-100100380D01*
X85378571Y-100243238D01*
X85283333Y-100338476D01*
X85188095Y-100386095D01*
X86330952Y-100528952D02*
X86235714Y-100481333D01*
X86188095Y-100433714D01*
X86140476Y-100338476D01*
X86140476Y-100290857D01*
X86188095Y-100195619D01*
X86235714Y-100148000D01*
X86330952Y-100100380D01*
X86521428Y-100100380D01*
X86616666Y-100148000D01*
X86664285Y-100195619D01*
X86711904Y-100290857D01*
X86711904Y-100338476D01*
X86664285Y-100433714D01*
X86616666Y-100481333D01*
X86521428Y-100528952D01*
X86330952Y-100528952D01*
X86235714Y-100576571D01*
X86188095Y-100624190D01*
X86140476Y-100719428D01*
X86140476Y-100909904D01*
X86188095Y-101005142D01*
X86235714Y-101052761D01*
X86330952Y-101100380D01*
X86521428Y-101100380D01*
X86616666Y-101052761D01*
X86664285Y-101005142D01*
X86711904Y-100909904D01*
X86711904Y-100719428D01*
X86664285Y-100624190D01*
X86616666Y-100576571D01*
X86521428Y-100528952D01*
X82288095Y-100252380D02*
X82288095Y-99252380D01*
X82859523Y-100252380D02*
X82430952Y-99680952D01*
X82859523Y-99252380D02*
X82288095Y-99823809D01*
X92945714Y-109452380D02*
X92945714Y-108452380D01*
X93183809Y-108452380D01*
X93326666Y-108500000D01*
X93421904Y-108595238D01*
X93469523Y-108690476D01*
X93517142Y-108880952D01*
X93517142Y-109023809D01*
X93469523Y-109214285D01*
X93421904Y-109309523D01*
X93326666Y-109404761D01*
X93183809Y-109452380D01*
X92945714Y-109452380D01*
X94469523Y-109452380D02*
X93898095Y-109452380D01*
X94183809Y-109452380D02*
X94183809Y-108452380D01*
X94088571Y-108595238D01*
X93993333Y-108690476D01*
X93898095Y-108738095D01*
X94945714Y-109452380D02*
X95136190Y-109452380D01*
X95231428Y-109404761D01*
X95279047Y-109357142D01*
X95374285Y-109214285D01*
X95421904Y-109023809D01*
X95421904Y-108642857D01*
X95374285Y-108547619D01*
X95326666Y-108500000D01*
X95231428Y-108452380D01*
X95040952Y-108452380D01*
X94945714Y-108500000D01*
X94898095Y-108547619D01*
X94850476Y-108642857D01*
X94850476Y-108880952D01*
X94898095Y-108976190D01*
X94945714Y-109023809D01*
X95040952Y-109071428D01*
X95231428Y-109071428D01*
X95326666Y-109023809D01*
X95374285Y-108976190D01*
X95421904Y-108880952D01*
X82230666Y-118040380D02*
X82230666Y-118754666D01*
X82183047Y-118897523D01*
X82087809Y-118992761D01*
X81944952Y-119040380D01*
X81849714Y-119040380D01*
X83135428Y-118373714D02*
X83135428Y-119040380D01*
X82897333Y-117992761D02*
X82659238Y-118707047D01*
X83278285Y-118707047D01*
X70230666Y-118040380D02*
X70230666Y-118754666D01*
X70183047Y-118897523D01*
X70087809Y-118992761D01*
X69944952Y-119040380D01*
X69849714Y-119040380D01*
X71183047Y-118040380D02*
X70706857Y-118040380D01*
X70659238Y-118516571D01*
X70706857Y-118468952D01*
X70802095Y-118421333D01*
X71040190Y-118421333D01*
X71135428Y-118468952D01*
X71183047Y-118516571D01*
X71230666Y-118611809D01*
X71230666Y-118849904D01*
X71183047Y-118945142D01*
X71135428Y-118992761D01*
X71040190Y-119040380D01*
X70802095Y-119040380D01*
X70706857Y-118992761D01*
X70659238Y-118945142D01*
X22230666Y-118040380D02*
X22230666Y-118754666D01*
X22183047Y-118897523D01*
X22087809Y-118992761D01*
X21944952Y-119040380D01*
X21849714Y-119040380D01*
X23135428Y-118040380D02*
X22944952Y-118040380D01*
X22849714Y-118088000D01*
X22802095Y-118135619D01*
X22706857Y-118278476D01*
X22659238Y-118468952D01*
X22659238Y-118849904D01*
X22706857Y-118945142D01*
X22754476Y-118992761D01*
X22849714Y-119040380D01*
X23040190Y-119040380D01*
X23135428Y-118992761D01*
X23183047Y-118945142D01*
X23230666Y-118849904D01*
X23230666Y-118611809D01*
X23183047Y-118516571D01*
X23135428Y-118468952D01*
X23040190Y-118421333D01*
X22849714Y-118421333D01*
X22754476Y-118468952D01*
X22706857Y-118516571D01*
X22659238Y-118611809D01*
X58230666Y-118040380D02*
X58230666Y-118754666D01*
X58183047Y-118897523D01*
X58087809Y-118992761D01*
X57944952Y-119040380D01*
X57849714Y-119040380D01*
X58611619Y-118040380D02*
X59278285Y-118040380D01*
X58849714Y-119040380D01*
X46230666Y-118040380D02*
X46230666Y-118754666D01*
X46183047Y-118897523D01*
X46087809Y-118992761D01*
X45944952Y-119040380D01*
X45849714Y-119040380D01*
X46849714Y-118468952D02*
X46754476Y-118421333D01*
X46706857Y-118373714D01*
X46659238Y-118278476D01*
X46659238Y-118230857D01*
X46706857Y-118135619D01*
X46754476Y-118088000D01*
X46849714Y-118040380D01*
X47040190Y-118040380D01*
X47135428Y-118088000D01*
X47183047Y-118135619D01*
X47230666Y-118230857D01*
X47230666Y-118278476D01*
X47183047Y-118373714D01*
X47135428Y-118421333D01*
X47040190Y-118468952D01*
X46849714Y-118468952D01*
X46754476Y-118516571D01*
X46706857Y-118564190D01*
X46659238Y-118659428D01*
X46659238Y-118849904D01*
X46706857Y-118945142D01*
X46754476Y-118992761D01*
X46849714Y-119040380D01*
X47040190Y-119040380D01*
X47135428Y-118992761D01*
X47183047Y-118945142D01*
X47230666Y-118849904D01*
X47230666Y-118659428D01*
X47183047Y-118564190D01*
X47135428Y-118516571D01*
X47040190Y-118468952D01*
X34230666Y-118040380D02*
X34230666Y-118754666D01*
X34183047Y-118897523D01*
X34087809Y-118992761D01*
X33944952Y-119040380D01*
X33849714Y-119040380D01*
X34754476Y-119040380D02*
X34944952Y-119040380D01*
X35040190Y-118992761D01*
X35087809Y-118945142D01*
X35183047Y-118802285D01*
X35230666Y-118611809D01*
X35230666Y-118230857D01*
X35183047Y-118135619D01*
X35135428Y-118088000D01*
X35040190Y-118040380D01*
X34849714Y-118040380D01*
X34754476Y-118088000D01*
X34706857Y-118135619D01*
X34659238Y-118230857D01*
X34659238Y-118468952D01*
X34706857Y-118564190D01*
X34754476Y-118611809D01*
X34849714Y-118659428D01*
X35040190Y-118659428D01*
X35135428Y-118611809D01*
X35183047Y-118564190D01*
X35230666Y-118468952D01*
X19666666Y-91904761D02*
X19809523Y-91952380D01*
X20047619Y-91952380D01*
X20142857Y-91904761D01*
X20190476Y-91857142D01*
X20238095Y-91761904D01*
X20238095Y-91666666D01*
X20190476Y-91571428D01*
X20142857Y-91523809D01*
X20047619Y-91476190D01*
X19857142Y-91428571D01*
X19761904Y-91380952D01*
X19714285Y-91333333D01*
X19666666Y-91238095D01*
X19666666Y-91142857D01*
X19714285Y-91047619D01*
X19761904Y-91000000D01*
X19857142Y-90952380D01*
X20095238Y-90952380D01*
X20238095Y-91000000D01*
X20571428Y-90952380D02*
X20809523Y-91952380D01*
X21000000Y-91238095D01*
X21190476Y-91952380D01*
X21428571Y-90952380D01*
X22333333Y-91952380D02*
X21761904Y-91952380D01*
X22047619Y-91952380D02*
X22047619Y-90952380D01*
X21952380Y-91095238D01*
X21857142Y-91190476D01*
X21761904Y-91238095D01*
X51666666Y-91904761D02*
X51809523Y-91952380D01*
X52047619Y-91952380D01*
X52142857Y-91904761D01*
X52190476Y-91857142D01*
X52238095Y-91761904D01*
X52238095Y-91666666D01*
X52190476Y-91571428D01*
X52142857Y-91523809D01*
X52047619Y-91476190D01*
X51857142Y-91428571D01*
X51761904Y-91380952D01*
X51714285Y-91333333D01*
X51666666Y-91238095D01*
X51666666Y-91142857D01*
X51714285Y-91047619D01*
X51761904Y-91000000D01*
X51857142Y-90952380D01*
X52095238Y-90952380D01*
X52238095Y-91000000D01*
X52571428Y-90952380D02*
X52809523Y-91952380D01*
X53000000Y-91238095D01*
X53190476Y-91952380D01*
X53428571Y-90952380D01*
X53761904Y-91047619D02*
X53809523Y-91000000D01*
X53904761Y-90952380D01*
X54142857Y-90952380D01*
X54238095Y-91000000D01*
X54285714Y-91047619D01*
X54333333Y-91142857D01*
X54333333Y-91238095D01*
X54285714Y-91380952D01*
X53714285Y-91952380D01*
X54333333Y-91952380D01*
X99282380Y-30571904D02*
X100091904Y-30571904D01*
X100187142Y-30524285D01*
X100234761Y-30476666D01*
X100282380Y-30381428D01*
X100282380Y-30190952D01*
X100234761Y-30095714D01*
X100187142Y-30048095D01*
X100091904Y-30000476D01*
X99282380Y-30000476D01*
X99282380Y-29619523D02*
X99282380Y-29000476D01*
X99663333Y-29333809D01*
X99663333Y-29190952D01*
X99710952Y-29095714D01*
X99758571Y-29048095D01*
X99853809Y-29000476D01*
X100091904Y-29000476D01*
X100187142Y-29048095D01*
X100234761Y-29095714D01*
X100282380Y-29190952D01*
X100282380Y-29476666D01*
X100234761Y-29571904D01*
X100187142Y-29619523D01*
M02*
