G04 #@! TF.GenerationSoftware,KiCad,Pcbnew,(5.1.2)-1*
G04 #@! TF.CreationDate,2020-07-24T19:37:30-07:00*
G04 #@! TF.ProjectId,kicad-control-board,6b696361-642d-4636-9f6e-74726f6c2d62,rev?*
G04 #@! TF.SameCoordinates,Original*
G04 #@! TF.FileFunction,Legend,Bot*
G04 #@! TF.FilePolarity,Positive*
%FSLAX46Y46*%
G04 Gerber Fmt 4.6, Leading zero omitted, Abs format (unit mm)*
G04 Created by KiCad (PCBNEW (5.1.2)-1) date 2020-07-24 19:37:30*
%MOMM*%
%LPD*%
G04 APERTURE LIST*
%ADD10C,0.010000*%
%ADD11C,0.120000*%
%ADD12C,0.150000*%
G04 APERTURE END LIST*
D10*
G36*
X49493237Y-27124526D02*
G01*
X54172184Y-27124526D01*
X54172184Y-25971500D01*
X49493237Y-25971500D01*
X49493237Y-27124526D01*
X49493237Y-27124526D01*
G37*
X49493237Y-27124526D02*
X54172184Y-27124526D01*
X54172184Y-25971500D01*
X49493237Y-25971500D01*
X49493237Y-27124526D01*
G36*
X48992744Y-19213337D02*
G01*
X48993567Y-19329066D01*
X49593885Y-19939000D01*
X50194204Y-20548934D01*
X50194641Y-20828835D01*
X50195079Y-21108737D01*
X50560663Y-21108737D01*
X50570083Y-21179756D01*
X50573650Y-21212127D01*
X50579662Y-21273087D01*
X50587799Y-21358998D01*
X50597738Y-21466226D01*
X50609157Y-21591133D01*
X50621736Y-21730083D01*
X50635153Y-21879441D01*
X50649085Y-22035568D01*
X50663212Y-22194830D01*
X50677212Y-22353590D01*
X50690763Y-22508211D01*
X50703544Y-22655057D01*
X50715233Y-22790493D01*
X50725508Y-22910880D01*
X50734048Y-23012584D01*
X50740531Y-23091967D01*
X50744636Y-23145394D01*
X50746041Y-23169229D01*
X50746040Y-23169342D01*
X50735796Y-23188466D01*
X50705026Y-23227955D01*
X50653311Y-23288266D01*
X50580233Y-23369861D01*
X50485373Y-23473198D01*
X50368313Y-23598738D01*
X50228633Y-23746940D01*
X50065916Y-23918263D01*
X50020179Y-23966237D01*
X49294805Y-24726566D01*
X49353449Y-24785052D01*
X49412092Y-24843539D01*
X49506974Y-24740310D01*
X49541685Y-24703003D01*
X49595906Y-24645311D01*
X49666059Y-24571013D01*
X49748568Y-24483889D01*
X49839855Y-24387718D01*
X49936342Y-24286280D01*
X49994065Y-24225695D01*
X50102434Y-24112197D01*
X50190028Y-24021285D01*
X50259080Y-23951307D01*
X50311824Y-23900610D01*
X50350494Y-23867540D01*
X50377323Y-23850444D01*
X50394544Y-23847669D01*
X50404392Y-23857563D01*
X50409099Y-23878471D01*
X50410899Y-23908741D01*
X50411141Y-23917002D01*
X50423658Y-23973909D01*
X50454497Y-24042693D01*
X50497503Y-24112475D01*
X50546520Y-24172378D01*
X50566134Y-24190882D01*
X50666770Y-24255628D01*
X50784327Y-24291854D01*
X50888262Y-24300447D01*
X51006049Y-24284239D01*
X51114831Y-24236712D01*
X51211110Y-24159511D01*
X51228875Y-24140295D01*
X51293832Y-24066500D01*
X52417579Y-24066500D01*
X52417579Y-24300447D01*
X52718368Y-24300447D01*
X52718368Y-24191152D01*
X52722143Y-24116539D01*
X52734825Y-24064750D01*
X52750237Y-24036580D01*
X52761250Y-24016424D01*
X52770679Y-23987200D01*
X52779151Y-23944575D01*
X52787290Y-23884217D01*
X52795721Y-23801793D01*
X52805068Y-23692972D01*
X52811469Y-23612017D01*
X52840831Y-23232732D01*
X53561659Y-23962938D01*
X53691992Y-24095066D01*
X53817108Y-24222096D01*
X53934721Y-24341695D01*
X54042545Y-24451528D01*
X54138295Y-24549263D01*
X54219683Y-24632566D01*
X54284423Y-24699104D01*
X54330230Y-24746542D01*
X54354792Y-24772520D01*
X54395145Y-24813649D01*
X54428805Y-24842335D01*
X54446910Y-24851895D01*
X54470035Y-24840697D01*
X54503743Y-24812719D01*
X54515169Y-24801326D01*
X54563617Y-24750757D01*
X54296881Y-24479702D01*
X54228831Y-24410652D01*
X54141085Y-24321774D01*
X54037492Y-24216959D01*
X53921900Y-24100097D01*
X53798159Y-23975079D01*
X53670119Y-23845795D01*
X53541628Y-23716136D01*
X53449454Y-23623179D01*
X53309342Y-23481520D01*
X53191632Y-23361591D01*
X53094820Y-23261768D01*
X53017399Y-23180428D01*
X52957864Y-23115948D01*
X52928358Y-23082277D01*
X52691409Y-23082277D01*
X52661743Y-23461592D01*
X52652797Y-23572777D01*
X52644142Y-23674453D01*
X52636271Y-23761304D01*
X52629672Y-23828018D01*
X52624836Y-23869279D01*
X52623280Y-23878506D01*
X52614482Y-23916105D01*
X51352681Y-23916105D01*
X51344258Y-23811173D01*
X51318828Y-23687195D01*
X51265611Y-23577524D01*
X51187963Y-23486156D01*
X51089237Y-23417083D01*
X50978428Y-23375620D01*
X50942480Y-23356171D01*
X50924483Y-23314430D01*
X50924106Y-23312589D01*
X50921947Y-23294967D01*
X50924616Y-23276922D01*
X50934720Y-23255108D01*
X50954863Y-23226177D01*
X50987651Y-23186783D01*
X51035690Y-23133577D01*
X51101584Y-23063214D01*
X51187940Y-22972346D01*
X51193520Y-22966493D01*
X51286405Y-22868956D01*
X51385155Y-22765067D01*
X51482984Y-22661977D01*
X51573107Y-22566839D01*
X51648738Y-22486804D01*
X51665605Y-22468911D01*
X51730265Y-22401444D01*
X51787705Y-22343709D01*
X51833801Y-22299675D01*
X51864431Y-22273314D01*
X51874715Y-22267521D01*
X51890052Y-22279646D01*
X51925917Y-22312910D01*
X51979488Y-22364542D01*
X52047940Y-22431775D01*
X52128447Y-22511837D01*
X52218187Y-22601961D01*
X52291532Y-22676198D01*
X52691409Y-23082277D01*
X52928358Y-23082277D01*
X52914709Y-23066703D01*
X52886429Y-23031071D01*
X52871517Y-23007429D01*
X52868199Y-22996480D01*
X52869456Y-22972586D01*
X52873274Y-22918501D01*
X52879407Y-22837338D01*
X52887607Y-22732210D01*
X52897627Y-22606228D01*
X52909220Y-22462505D01*
X52922140Y-22304154D01*
X52936138Y-22134287D01*
X52947419Y-21998528D01*
X53011250Y-21233106D01*
X52847004Y-21233106D01*
X52846297Y-21249624D01*
X52842969Y-21296145D01*
X52837290Y-21369378D01*
X52829526Y-21466028D01*
X52819943Y-21582805D01*
X52808811Y-21716414D01*
X52796395Y-21863563D01*
X52784480Y-22003271D01*
X52770984Y-22161787D01*
X52758413Y-22311421D01*
X52747055Y-22448602D01*
X52737198Y-22569759D01*
X52729130Y-22671320D01*
X52723140Y-22749712D01*
X52719515Y-22801363D01*
X52718509Y-22821423D01*
X52716940Y-22833908D01*
X52710722Y-22838862D01*
X52697459Y-22834218D01*
X52674753Y-22817909D01*
X52640208Y-22787868D01*
X52591427Y-22742027D01*
X52526013Y-22678320D01*
X52441569Y-22594679D01*
X52351971Y-22505299D01*
X51985574Y-22139186D01*
X51988141Y-22136434D01*
X51745951Y-22136434D01*
X51734913Y-22151550D01*
X51704013Y-22187142D01*
X51656347Y-22239941D01*
X51595013Y-22306673D01*
X51523107Y-22384070D01*
X51443727Y-22468858D01*
X51359969Y-22557767D01*
X51274930Y-22647526D01*
X51191708Y-22734864D01*
X51113399Y-22816509D01*
X51043100Y-22889191D01*
X50983909Y-22949637D01*
X50938922Y-22994578D01*
X50911236Y-23020742D01*
X50903686Y-23026072D01*
X50901197Y-23008867D01*
X50896030Y-22961348D01*
X50888470Y-22886489D01*
X50878800Y-22787264D01*
X50867305Y-22666649D01*
X50854269Y-22527618D01*
X50839976Y-22373145D01*
X50824710Y-22206206D01*
X50812521Y-22071597D01*
X50796929Y-21897054D01*
X50782523Y-21732627D01*
X50769547Y-21581299D01*
X50758241Y-21446053D01*
X50748848Y-21329870D01*
X50741611Y-21235735D01*
X50736772Y-21166630D01*
X50734573Y-21125538D01*
X50734824Y-21114868D01*
X50747970Y-21124372D01*
X50781446Y-21154920D01*
X50832326Y-21203556D01*
X50897683Y-21267323D01*
X50974591Y-21343265D01*
X51060124Y-21428424D01*
X51151354Y-21519845D01*
X51245356Y-21614569D01*
X51339202Y-21709641D01*
X51429967Y-21802103D01*
X51514723Y-21888999D01*
X51590544Y-21967372D01*
X51654503Y-22034265D01*
X51703674Y-22086722D01*
X51735131Y-22121785D01*
X51745951Y-22136434D01*
X51988141Y-22136434D01*
X52122202Y-21992760D01*
X52191784Y-21918448D01*
X52269881Y-21835483D01*
X52353406Y-21747102D01*
X52439270Y-21656541D01*
X52524385Y-21567036D01*
X52605664Y-21481823D01*
X52680019Y-21404139D01*
X52744363Y-21337220D01*
X52795606Y-21284303D01*
X52830663Y-21248623D01*
X52846444Y-21233416D01*
X52847004Y-21233106D01*
X53011250Y-21233106D01*
X53027204Y-21041807D01*
X53825286Y-20202485D01*
X54623368Y-19363164D01*
X54622781Y-19245852D01*
X54622194Y-19128539D01*
X54493275Y-19266253D01*
X54421124Y-19343063D01*
X54335940Y-19433304D01*
X54240021Y-19534575D01*
X54135666Y-19644476D01*
X54025174Y-19760604D01*
X53910844Y-19880558D01*
X53794975Y-20001936D01*
X53679865Y-20122338D01*
X53567814Y-20239362D01*
X53461119Y-20350606D01*
X53362080Y-20453669D01*
X53272997Y-20546150D01*
X53196166Y-20625647D01*
X53133888Y-20689758D01*
X53088462Y-20736083D01*
X53062185Y-20762219D01*
X53056426Y-20767233D01*
X53056030Y-20749791D01*
X53058208Y-20705135D01*
X53062583Y-20639340D01*
X53068775Y-20558483D01*
X53071433Y-20526183D01*
X53091228Y-20289921D01*
X52936242Y-20289921D01*
X52928240Y-20327520D01*
X52924160Y-20357255D01*
X52918425Y-20413203D01*
X52911701Y-20488236D01*
X52904648Y-20575225D01*
X52902207Y-20607421D01*
X52895008Y-20699861D01*
X52887742Y-20785707D01*
X52881136Y-20856847D01*
X52875916Y-20905169D01*
X52874739Y-20913939D01*
X52870298Y-20931942D01*
X52860687Y-20953017D01*
X52843860Y-20979525D01*
X52817775Y-21013828D01*
X52780387Y-21058289D01*
X52729654Y-21115271D01*
X52663530Y-21187136D01*
X52579974Y-21276246D01*
X52476940Y-21384964D01*
X52371833Y-21495275D01*
X52267262Y-21604441D01*
X52169649Y-21705540D01*
X52081422Y-21796115D01*
X52005012Y-21873708D01*
X51942849Y-21935862D01*
X51897363Y-21980118D01*
X51870983Y-22004018D01*
X51865357Y-22007574D01*
X51850557Y-21994681D01*
X51815961Y-21961060D01*
X51764929Y-21910082D01*
X51700817Y-21845120D01*
X51626984Y-21769548D01*
X51573589Y-21714493D01*
X51294827Y-21426237D01*
X52116790Y-21426237D01*
X52116790Y-21108737D01*
X51114158Y-21108737D01*
X51114158Y-21250206D01*
X50930342Y-21066960D01*
X50799948Y-20936971D01*
X50546000Y-20936971D01*
X50543571Y-20957477D01*
X50531276Y-20968902D01*
X50501604Y-20973880D01*
X50447045Y-20975044D01*
X50437382Y-20975052D01*
X50328763Y-20975052D01*
X50328763Y-20683584D01*
X50437382Y-20791237D01*
X50498654Y-20856687D01*
X50535301Y-20906829D01*
X50546000Y-20936971D01*
X50799948Y-20936971D01*
X50746526Y-20883715D01*
X50746526Y-20720502D01*
X50746015Y-20645414D01*
X50743672Y-20597645D01*
X50738289Y-20571098D01*
X50728656Y-20559679D01*
X50714129Y-20557289D01*
X50697973Y-20553780D01*
X50686031Y-20539711D01*
X50676861Y-20509769D01*
X50669018Y-20458642D01*
X50661058Y-20381017D01*
X50658504Y-20352585D01*
X50652974Y-20289921D01*
X52936242Y-20289921D01*
X53091228Y-20289921D01*
X53303237Y-20289921D01*
X53303237Y-20139526D01*
X53213141Y-20139526D01*
X53160445Y-20138083D01*
X53131812Y-20131116D01*
X53128309Y-20126970D01*
X52943766Y-20126970D01*
X52934054Y-20136442D01*
X52900412Y-20139366D01*
X52877706Y-20139526D01*
X52801921Y-20139526D01*
X52519306Y-20139526D01*
X50639481Y-20139526D01*
X50703062Y-20074413D01*
X50801814Y-19994062D01*
X50924032Y-19932089D01*
X51071787Y-19887646D01*
X51218599Y-19863065D01*
X51314684Y-19851596D01*
X51314684Y-19972421D01*
X52083368Y-19972421D01*
X52083368Y-19835345D01*
X52196165Y-19846776D01*
X52274975Y-19856425D01*
X52358943Y-19869214D01*
X52409224Y-19878348D01*
X52509487Y-19898488D01*
X52514397Y-20019007D01*
X52519306Y-20139526D01*
X52801921Y-20139526D01*
X52801921Y-20072684D01*
X52804131Y-20030810D01*
X52809650Y-20007536D01*
X52811874Y-20005842D01*
X52836613Y-20016560D01*
X52872757Y-20042563D01*
X52908990Y-20074623D01*
X52933999Y-20103511D01*
X52936227Y-20107267D01*
X52943766Y-20126970D01*
X53128309Y-20126970D01*
X53117919Y-20114674D01*
X53112311Y-20096762D01*
X53089422Y-20050279D01*
X53045460Y-19994400D01*
X52987989Y-19936960D01*
X52924573Y-19885793D01*
X52882918Y-19859143D01*
X52835466Y-19829972D01*
X52811141Y-19805467D01*
X52802595Y-19776572D01*
X52801938Y-19759362D01*
X52801937Y-19755184D01*
X51949684Y-19755184D01*
X51949684Y-19838737D01*
X51448368Y-19838737D01*
X51448368Y-19755184D01*
X51949684Y-19755184D01*
X52801937Y-19755184D01*
X52801921Y-19705052D01*
X52661274Y-19705052D01*
X52596564Y-19706617D01*
X52546130Y-19710785D01*
X52518094Y-19716773D01*
X52515057Y-19719197D01*
X52497273Y-19722918D01*
X52453992Y-19721394D01*
X52392651Y-19715075D01*
X52350737Y-19709240D01*
X52274737Y-19697778D01*
X52205230Y-19687430D01*
X52152997Y-19679796D01*
X52137678Y-19677627D01*
X52097653Y-19665232D01*
X52083368Y-19645808D01*
X52079025Y-19637898D01*
X52063490Y-19631863D01*
X52033001Y-19627466D01*
X51983800Y-19624469D01*
X51912126Y-19622635D01*
X51814219Y-19621725D01*
X51699026Y-19621500D01*
X51576086Y-19621628D01*
X51482559Y-19622230D01*
X51414440Y-19623639D01*
X51367719Y-19626181D01*
X51338391Y-19630189D01*
X51322449Y-19635991D01*
X51315885Y-19643917D01*
X51314684Y-19653133D01*
X51304460Y-19682385D01*
X51270970Y-19699031D01*
X51209988Y-19704968D01*
X51199017Y-19705052D01*
X51095746Y-19715706D01*
X50978453Y-19745033D01*
X50857715Y-19789084D01*
X50744111Y-19843911D01*
X50648219Y-19905564D01*
X50635799Y-19915332D01*
X50595318Y-19947115D01*
X50571345Y-19959844D01*
X50554604Y-19955729D01*
X50537419Y-19938750D01*
X50486664Y-19905492D01*
X50420607Y-19892725D01*
X50349474Y-19899365D01*
X50283486Y-19924327D01*
X50232868Y-19966529D01*
X50229203Y-19971434D01*
X50191328Y-20050211D01*
X50184281Y-20131754D01*
X50207285Y-20209487D01*
X50259563Y-20276835D01*
X50265956Y-20282396D01*
X50303073Y-20308813D01*
X50340733Y-20320447D01*
X50393676Y-20321287D01*
X50406902Y-20320542D01*
X50458703Y-20318641D01*
X50485386Y-20322996D01*
X50495045Y-20336138D01*
X50496037Y-20348408D01*
X50498061Y-20384002D01*
X50503086Y-20437533D01*
X50506697Y-20469559D01*
X50511934Y-20520427D01*
X50509756Y-20546468D01*
X50497125Y-20555986D01*
X50474625Y-20557289D01*
X50461282Y-20552986D01*
X50439756Y-20539057D01*
X50408452Y-20513977D01*
X50365776Y-20476219D01*
X50310132Y-20424256D01*
X50239925Y-20356562D01*
X50153560Y-20271611D01*
X50049442Y-20167875D01*
X49925975Y-20043828D01*
X49781564Y-19897944D01*
X49711969Y-19827449D01*
X48991921Y-19097610D01*
X48992744Y-19213337D01*
X48992744Y-19213337D01*
G37*
X48992744Y-19213337D02*
X48993567Y-19329066D01*
X49593885Y-19939000D01*
X50194204Y-20548934D01*
X50194641Y-20828835D01*
X50195079Y-21108737D01*
X50560663Y-21108737D01*
X50570083Y-21179756D01*
X50573650Y-21212127D01*
X50579662Y-21273087D01*
X50587799Y-21358998D01*
X50597738Y-21466226D01*
X50609157Y-21591133D01*
X50621736Y-21730083D01*
X50635153Y-21879441D01*
X50649085Y-22035568D01*
X50663212Y-22194830D01*
X50677212Y-22353590D01*
X50690763Y-22508211D01*
X50703544Y-22655057D01*
X50715233Y-22790493D01*
X50725508Y-22910880D01*
X50734048Y-23012584D01*
X50740531Y-23091967D01*
X50744636Y-23145394D01*
X50746041Y-23169229D01*
X50746040Y-23169342D01*
X50735796Y-23188466D01*
X50705026Y-23227955D01*
X50653311Y-23288266D01*
X50580233Y-23369861D01*
X50485373Y-23473198D01*
X50368313Y-23598738D01*
X50228633Y-23746940D01*
X50065916Y-23918263D01*
X50020179Y-23966237D01*
X49294805Y-24726566D01*
X49353449Y-24785052D01*
X49412092Y-24843539D01*
X49506974Y-24740310D01*
X49541685Y-24703003D01*
X49595906Y-24645311D01*
X49666059Y-24571013D01*
X49748568Y-24483889D01*
X49839855Y-24387718D01*
X49936342Y-24286280D01*
X49994065Y-24225695D01*
X50102434Y-24112197D01*
X50190028Y-24021285D01*
X50259080Y-23951307D01*
X50311824Y-23900610D01*
X50350494Y-23867540D01*
X50377323Y-23850444D01*
X50394544Y-23847669D01*
X50404392Y-23857563D01*
X50409099Y-23878471D01*
X50410899Y-23908741D01*
X50411141Y-23917002D01*
X50423658Y-23973909D01*
X50454497Y-24042693D01*
X50497503Y-24112475D01*
X50546520Y-24172378D01*
X50566134Y-24190882D01*
X50666770Y-24255628D01*
X50784327Y-24291854D01*
X50888262Y-24300447D01*
X51006049Y-24284239D01*
X51114831Y-24236712D01*
X51211110Y-24159511D01*
X51228875Y-24140295D01*
X51293832Y-24066500D01*
X52417579Y-24066500D01*
X52417579Y-24300447D01*
X52718368Y-24300447D01*
X52718368Y-24191152D01*
X52722143Y-24116539D01*
X52734825Y-24064750D01*
X52750237Y-24036580D01*
X52761250Y-24016424D01*
X52770679Y-23987200D01*
X52779151Y-23944575D01*
X52787290Y-23884217D01*
X52795721Y-23801793D01*
X52805068Y-23692972D01*
X52811469Y-23612017D01*
X52840831Y-23232732D01*
X53561659Y-23962938D01*
X53691992Y-24095066D01*
X53817108Y-24222096D01*
X53934721Y-24341695D01*
X54042545Y-24451528D01*
X54138295Y-24549263D01*
X54219683Y-24632566D01*
X54284423Y-24699104D01*
X54330230Y-24746542D01*
X54354792Y-24772520D01*
X54395145Y-24813649D01*
X54428805Y-24842335D01*
X54446910Y-24851895D01*
X54470035Y-24840697D01*
X54503743Y-24812719D01*
X54515169Y-24801326D01*
X54563617Y-24750757D01*
X54296881Y-24479702D01*
X54228831Y-24410652D01*
X54141085Y-24321774D01*
X54037492Y-24216959D01*
X53921900Y-24100097D01*
X53798159Y-23975079D01*
X53670119Y-23845795D01*
X53541628Y-23716136D01*
X53449454Y-23623179D01*
X53309342Y-23481520D01*
X53191632Y-23361591D01*
X53094820Y-23261768D01*
X53017399Y-23180428D01*
X52957864Y-23115948D01*
X52928358Y-23082277D01*
X52691409Y-23082277D01*
X52661743Y-23461592D01*
X52652797Y-23572777D01*
X52644142Y-23674453D01*
X52636271Y-23761304D01*
X52629672Y-23828018D01*
X52624836Y-23869279D01*
X52623280Y-23878506D01*
X52614482Y-23916105D01*
X51352681Y-23916105D01*
X51344258Y-23811173D01*
X51318828Y-23687195D01*
X51265611Y-23577524D01*
X51187963Y-23486156D01*
X51089237Y-23417083D01*
X50978428Y-23375620D01*
X50942480Y-23356171D01*
X50924483Y-23314430D01*
X50924106Y-23312589D01*
X50921947Y-23294967D01*
X50924616Y-23276922D01*
X50934720Y-23255108D01*
X50954863Y-23226177D01*
X50987651Y-23186783D01*
X51035690Y-23133577D01*
X51101584Y-23063214D01*
X51187940Y-22972346D01*
X51193520Y-22966493D01*
X51286405Y-22868956D01*
X51385155Y-22765067D01*
X51482984Y-22661977D01*
X51573107Y-22566839D01*
X51648738Y-22486804D01*
X51665605Y-22468911D01*
X51730265Y-22401444D01*
X51787705Y-22343709D01*
X51833801Y-22299675D01*
X51864431Y-22273314D01*
X51874715Y-22267521D01*
X51890052Y-22279646D01*
X51925917Y-22312910D01*
X51979488Y-22364542D01*
X52047940Y-22431775D01*
X52128447Y-22511837D01*
X52218187Y-22601961D01*
X52291532Y-22676198D01*
X52691409Y-23082277D01*
X52928358Y-23082277D01*
X52914709Y-23066703D01*
X52886429Y-23031071D01*
X52871517Y-23007429D01*
X52868199Y-22996480D01*
X52869456Y-22972586D01*
X52873274Y-22918501D01*
X52879407Y-22837338D01*
X52887607Y-22732210D01*
X52897627Y-22606228D01*
X52909220Y-22462505D01*
X52922140Y-22304154D01*
X52936138Y-22134287D01*
X52947419Y-21998528D01*
X53011250Y-21233106D01*
X52847004Y-21233106D01*
X52846297Y-21249624D01*
X52842969Y-21296145D01*
X52837290Y-21369378D01*
X52829526Y-21466028D01*
X52819943Y-21582805D01*
X52808811Y-21716414D01*
X52796395Y-21863563D01*
X52784480Y-22003271D01*
X52770984Y-22161787D01*
X52758413Y-22311421D01*
X52747055Y-22448602D01*
X52737198Y-22569759D01*
X52729130Y-22671320D01*
X52723140Y-22749712D01*
X52719515Y-22801363D01*
X52718509Y-22821423D01*
X52716940Y-22833908D01*
X52710722Y-22838862D01*
X52697459Y-22834218D01*
X52674753Y-22817909D01*
X52640208Y-22787868D01*
X52591427Y-22742027D01*
X52526013Y-22678320D01*
X52441569Y-22594679D01*
X52351971Y-22505299D01*
X51985574Y-22139186D01*
X51988141Y-22136434D01*
X51745951Y-22136434D01*
X51734913Y-22151550D01*
X51704013Y-22187142D01*
X51656347Y-22239941D01*
X51595013Y-22306673D01*
X51523107Y-22384070D01*
X51443727Y-22468858D01*
X51359969Y-22557767D01*
X51274930Y-22647526D01*
X51191708Y-22734864D01*
X51113399Y-22816509D01*
X51043100Y-22889191D01*
X50983909Y-22949637D01*
X50938922Y-22994578D01*
X50911236Y-23020742D01*
X50903686Y-23026072D01*
X50901197Y-23008867D01*
X50896030Y-22961348D01*
X50888470Y-22886489D01*
X50878800Y-22787264D01*
X50867305Y-22666649D01*
X50854269Y-22527618D01*
X50839976Y-22373145D01*
X50824710Y-22206206D01*
X50812521Y-22071597D01*
X50796929Y-21897054D01*
X50782523Y-21732627D01*
X50769547Y-21581299D01*
X50758241Y-21446053D01*
X50748848Y-21329870D01*
X50741611Y-21235735D01*
X50736772Y-21166630D01*
X50734573Y-21125538D01*
X50734824Y-21114868D01*
X50747970Y-21124372D01*
X50781446Y-21154920D01*
X50832326Y-21203556D01*
X50897683Y-21267323D01*
X50974591Y-21343265D01*
X51060124Y-21428424D01*
X51151354Y-21519845D01*
X51245356Y-21614569D01*
X51339202Y-21709641D01*
X51429967Y-21802103D01*
X51514723Y-21888999D01*
X51590544Y-21967372D01*
X51654503Y-22034265D01*
X51703674Y-22086722D01*
X51735131Y-22121785D01*
X51745951Y-22136434D01*
X51988141Y-22136434D01*
X52122202Y-21992760D01*
X52191784Y-21918448D01*
X52269881Y-21835483D01*
X52353406Y-21747102D01*
X52439270Y-21656541D01*
X52524385Y-21567036D01*
X52605664Y-21481823D01*
X52680019Y-21404139D01*
X52744363Y-21337220D01*
X52795606Y-21284303D01*
X52830663Y-21248623D01*
X52846444Y-21233416D01*
X52847004Y-21233106D01*
X53011250Y-21233106D01*
X53027204Y-21041807D01*
X53825286Y-20202485D01*
X54623368Y-19363164D01*
X54622781Y-19245852D01*
X54622194Y-19128539D01*
X54493275Y-19266253D01*
X54421124Y-19343063D01*
X54335940Y-19433304D01*
X54240021Y-19534575D01*
X54135666Y-19644476D01*
X54025174Y-19760604D01*
X53910844Y-19880558D01*
X53794975Y-20001936D01*
X53679865Y-20122338D01*
X53567814Y-20239362D01*
X53461119Y-20350606D01*
X53362080Y-20453669D01*
X53272997Y-20546150D01*
X53196166Y-20625647D01*
X53133888Y-20689758D01*
X53088462Y-20736083D01*
X53062185Y-20762219D01*
X53056426Y-20767233D01*
X53056030Y-20749791D01*
X53058208Y-20705135D01*
X53062583Y-20639340D01*
X53068775Y-20558483D01*
X53071433Y-20526183D01*
X53091228Y-20289921D01*
X52936242Y-20289921D01*
X52928240Y-20327520D01*
X52924160Y-20357255D01*
X52918425Y-20413203D01*
X52911701Y-20488236D01*
X52904648Y-20575225D01*
X52902207Y-20607421D01*
X52895008Y-20699861D01*
X52887742Y-20785707D01*
X52881136Y-20856847D01*
X52875916Y-20905169D01*
X52874739Y-20913939D01*
X52870298Y-20931942D01*
X52860687Y-20953017D01*
X52843860Y-20979525D01*
X52817775Y-21013828D01*
X52780387Y-21058289D01*
X52729654Y-21115271D01*
X52663530Y-21187136D01*
X52579974Y-21276246D01*
X52476940Y-21384964D01*
X52371833Y-21495275D01*
X52267262Y-21604441D01*
X52169649Y-21705540D01*
X52081422Y-21796115D01*
X52005012Y-21873708D01*
X51942849Y-21935862D01*
X51897363Y-21980118D01*
X51870983Y-22004018D01*
X51865357Y-22007574D01*
X51850557Y-21994681D01*
X51815961Y-21961060D01*
X51764929Y-21910082D01*
X51700817Y-21845120D01*
X51626984Y-21769548D01*
X51573589Y-21714493D01*
X51294827Y-21426237D01*
X52116790Y-21426237D01*
X52116790Y-21108737D01*
X51114158Y-21108737D01*
X51114158Y-21250206D01*
X50930342Y-21066960D01*
X50799948Y-20936971D01*
X50546000Y-20936971D01*
X50543571Y-20957477D01*
X50531276Y-20968902D01*
X50501604Y-20973880D01*
X50447045Y-20975044D01*
X50437382Y-20975052D01*
X50328763Y-20975052D01*
X50328763Y-20683584D01*
X50437382Y-20791237D01*
X50498654Y-20856687D01*
X50535301Y-20906829D01*
X50546000Y-20936971D01*
X50799948Y-20936971D01*
X50746526Y-20883715D01*
X50746526Y-20720502D01*
X50746015Y-20645414D01*
X50743672Y-20597645D01*
X50738289Y-20571098D01*
X50728656Y-20559679D01*
X50714129Y-20557289D01*
X50697973Y-20553780D01*
X50686031Y-20539711D01*
X50676861Y-20509769D01*
X50669018Y-20458642D01*
X50661058Y-20381017D01*
X50658504Y-20352585D01*
X50652974Y-20289921D01*
X52936242Y-20289921D01*
X53091228Y-20289921D01*
X53303237Y-20289921D01*
X53303237Y-20139526D01*
X53213141Y-20139526D01*
X53160445Y-20138083D01*
X53131812Y-20131116D01*
X53128309Y-20126970D01*
X52943766Y-20126970D01*
X52934054Y-20136442D01*
X52900412Y-20139366D01*
X52877706Y-20139526D01*
X52801921Y-20139526D01*
X52519306Y-20139526D01*
X50639481Y-20139526D01*
X50703062Y-20074413D01*
X50801814Y-19994062D01*
X50924032Y-19932089D01*
X51071787Y-19887646D01*
X51218599Y-19863065D01*
X51314684Y-19851596D01*
X51314684Y-19972421D01*
X52083368Y-19972421D01*
X52083368Y-19835345D01*
X52196165Y-19846776D01*
X52274975Y-19856425D01*
X52358943Y-19869214D01*
X52409224Y-19878348D01*
X52509487Y-19898488D01*
X52514397Y-20019007D01*
X52519306Y-20139526D01*
X52801921Y-20139526D01*
X52801921Y-20072684D01*
X52804131Y-20030810D01*
X52809650Y-20007536D01*
X52811874Y-20005842D01*
X52836613Y-20016560D01*
X52872757Y-20042563D01*
X52908990Y-20074623D01*
X52933999Y-20103511D01*
X52936227Y-20107267D01*
X52943766Y-20126970D01*
X53128309Y-20126970D01*
X53117919Y-20114674D01*
X53112311Y-20096762D01*
X53089422Y-20050279D01*
X53045460Y-19994400D01*
X52987989Y-19936960D01*
X52924573Y-19885793D01*
X52882918Y-19859143D01*
X52835466Y-19829972D01*
X52811141Y-19805467D01*
X52802595Y-19776572D01*
X52801938Y-19759362D01*
X52801937Y-19755184D01*
X51949684Y-19755184D01*
X51949684Y-19838737D01*
X51448368Y-19838737D01*
X51448368Y-19755184D01*
X51949684Y-19755184D01*
X52801937Y-19755184D01*
X52801921Y-19705052D01*
X52661274Y-19705052D01*
X52596564Y-19706617D01*
X52546130Y-19710785D01*
X52518094Y-19716773D01*
X52515057Y-19719197D01*
X52497273Y-19722918D01*
X52453992Y-19721394D01*
X52392651Y-19715075D01*
X52350737Y-19709240D01*
X52274737Y-19697778D01*
X52205230Y-19687430D01*
X52152997Y-19679796D01*
X52137678Y-19677627D01*
X52097653Y-19665232D01*
X52083368Y-19645808D01*
X52079025Y-19637898D01*
X52063490Y-19631863D01*
X52033001Y-19627466D01*
X51983800Y-19624469D01*
X51912126Y-19622635D01*
X51814219Y-19621725D01*
X51699026Y-19621500D01*
X51576086Y-19621628D01*
X51482559Y-19622230D01*
X51414440Y-19623639D01*
X51367719Y-19626181D01*
X51338391Y-19630189D01*
X51322449Y-19635991D01*
X51315885Y-19643917D01*
X51314684Y-19653133D01*
X51304460Y-19682385D01*
X51270970Y-19699031D01*
X51209988Y-19704968D01*
X51199017Y-19705052D01*
X51095746Y-19715706D01*
X50978453Y-19745033D01*
X50857715Y-19789084D01*
X50744111Y-19843911D01*
X50648219Y-19905564D01*
X50635799Y-19915332D01*
X50595318Y-19947115D01*
X50571345Y-19959844D01*
X50554604Y-19955729D01*
X50537419Y-19938750D01*
X50486664Y-19905492D01*
X50420607Y-19892725D01*
X50349474Y-19899365D01*
X50283486Y-19924327D01*
X50232868Y-19966529D01*
X50229203Y-19971434D01*
X50191328Y-20050211D01*
X50184281Y-20131754D01*
X50207285Y-20209487D01*
X50259563Y-20276835D01*
X50265956Y-20282396D01*
X50303073Y-20308813D01*
X50340733Y-20320447D01*
X50393676Y-20321287D01*
X50406902Y-20320542D01*
X50458703Y-20318641D01*
X50485386Y-20322996D01*
X50495045Y-20336138D01*
X50496037Y-20348408D01*
X50498061Y-20384002D01*
X50503086Y-20437533D01*
X50506697Y-20469559D01*
X50511934Y-20520427D01*
X50509756Y-20546468D01*
X50497125Y-20555986D01*
X50474625Y-20557289D01*
X50461282Y-20552986D01*
X50439756Y-20539057D01*
X50408452Y-20513977D01*
X50365776Y-20476219D01*
X50310132Y-20424256D01*
X50239925Y-20356562D01*
X50153560Y-20271611D01*
X50049442Y-20167875D01*
X49925975Y-20043828D01*
X49781564Y-19897944D01*
X49711969Y-19827449D01*
X48991921Y-19097610D01*
X48992744Y-19213337D01*
G36*
X66408256Y-24779918D02*
G01*
X66352799Y-24807568D01*
X66303852Y-24858480D01*
X66290371Y-24877338D01*
X66275686Y-24902015D01*
X66266158Y-24928816D01*
X66260707Y-24964587D01*
X66258253Y-25016169D01*
X66257714Y-25084267D01*
X66260148Y-25177588D01*
X66268606Y-25247657D01*
X66284826Y-25299931D01*
X66310546Y-25339869D01*
X66347503Y-25372929D01*
X66350218Y-25374886D01*
X66386640Y-25394908D01*
X66430498Y-25404815D01*
X66486276Y-25407257D01*
X66576952Y-25407257D01*
X66576990Y-25495283D01*
X66577834Y-25544308D01*
X66582976Y-25573065D01*
X66596413Y-25590311D01*
X66622142Y-25604808D01*
X66628321Y-25607769D01*
X66657236Y-25621648D01*
X66679624Y-25630414D01*
X66696271Y-25631171D01*
X66707964Y-25621023D01*
X66715490Y-25597073D01*
X66719634Y-25556426D01*
X66721185Y-25496186D01*
X66720929Y-25413455D01*
X66719651Y-25305339D01*
X66719252Y-25273000D01*
X66717815Y-25161524D01*
X66716528Y-25088603D01*
X66577029Y-25088603D01*
X66576245Y-25150499D01*
X66572760Y-25190997D01*
X66564876Y-25217708D01*
X66550895Y-25238244D01*
X66541403Y-25248260D01*
X66502596Y-25277567D01*
X66468237Y-25279952D01*
X66432784Y-25255750D01*
X66431886Y-25254857D01*
X66417461Y-25236153D01*
X66408687Y-25210732D01*
X66404261Y-25171584D01*
X66402882Y-25111697D01*
X66402857Y-25098430D01*
X66406188Y-25015901D01*
X66417031Y-24958691D01*
X66436660Y-24923766D01*
X66466350Y-24908094D01*
X66483509Y-24906514D01*
X66524234Y-24913926D01*
X66552168Y-24938330D01*
X66568983Y-24982980D01*
X66576350Y-25051130D01*
X66577029Y-25088603D01*
X66716528Y-25088603D01*
X66716292Y-25075245D01*
X66714323Y-25010333D01*
X66711550Y-24962958D01*
X66707612Y-24929290D01*
X66702151Y-24905498D01*
X66694808Y-24887753D01*
X66685223Y-24872224D01*
X66681113Y-24866381D01*
X66626595Y-24811185D01*
X66557664Y-24779890D01*
X66477928Y-24771165D01*
X66408256Y-24779918D01*
X66408256Y-24779918D01*
G37*
X66408256Y-24779918D02*
X66352799Y-24807568D01*
X66303852Y-24858480D01*
X66290371Y-24877338D01*
X66275686Y-24902015D01*
X66266158Y-24928816D01*
X66260707Y-24964587D01*
X66258253Y-25016169D01*
X66257714Y-25084267D01*
X66260148Y-25177588D01*
X66268606Y-25247657D01*
X66284826Y-25299931D01*
X66310546Y-25339869D01*
X66347503Y-25372929D01*
X66350218Y-25374886D01*
X66386640Y-25394908D01*
X66430498Y-25404815D01*
X66486276Y-25407257D01*
X66576952Y-25407257D01*
X66576990Y-25495283D01*
X66577834Y-25544308D01*
X66582976Y-25573065D01*
X66596413Y-25590311D01*
X66622142Y-25604808D01*
X66628321Y-25607769D01*
X66657236Y-25621648D01*
X66679624Y-25630414D01*
X66696271Y-25631171D01*
X66707964Y-25621023D01*
X66715490Y-25597073D01*
X66719634Y-25556426D01*
X66721185Y-25496186D01*
X66720929Y-25413455D01*
X66719651Y-25305339D01*
X66719252Y-25273000D01*
X66717815Y-25161524D01*
X66716528Y-25088603D01*
X66577029Y-25088603D01*
X66576245Y-25150499D01*
X66572760Y-25190997D01*
X66564876Y-25217708D01*
X66550895Y-25238244D01*
X66541403Y-25248260D01*
X66502596Y-25277567D01*
X66468237Y-25279952D01*
X66432784Y-25255750D01*
X66431886Y-25254857D01*
X66417461Y-25236153D01*
X66408687Y-25210732D01*
X66404261Y-25171584D01*
X66402882Y-25111697D01*
X66402857Y-25098430D01*
X66406188Y-25015901D01*
X66417031Y-24958691D01*
X66436660Y-24923766D01*
X66466350Y-24908094D01*
X66483509Y-24906514D01*
X66524234Y-24913926D01*
X66552168Y-24938330D01*
X66568983Y-24982980D01*
X66576350Y-25051130D01*
X66577029Y-25088603D01*
X66716528Y-25088603D01*
X66716292Y-25075245D01*
X66714323Y-25010333D01*
X66711550Y-24962958D01*
X66707612Y-24929290D01*
X66702151Y-24905498D01*
X66694808Y-24887753D01*
X66685223Y-24872224D01*
X66681113Y-24866381D01*
X66626595Y-24811185D01*
X66557664Y-24779890D01*
X66477928Y-24771165D01*
X66408256Y-24779918D01*
G36*
X65291907Y-24787780D02*
G01*
X65245328Y-24814723D01*
X65212943Y-24841466D01*
X65189258Y-24869484D01*
X65172941Y-24903748D01*
X65162661Y-24949227D01*
X65157086Y-25010892D01*
X65154884Y-25093711D01*
X65154629Y-25153246D01*
X65154629Y-25372391D01*
X65216314Y-25400044D01*
X65278000Y-25427697D01*
X65285257Y-25187670D01*
X65288256Y-25098028D01*
X65291402Y-25032962D01*
X65295299Y-24988026D01*
X65300553Y-24958770D01*
X65307769Y-24940748D01*
X65317550Y-24929511D01*
X65320688Y-24927079D01*
X65368239Y-24908083D01*
X65416303Y-24915600D01*
X65444914Y-24935543D01*
X65456553Y-24949675D01*
X65464609Y-24968220D01*
X65469729Y-24996334D01*
X65472559Y-25039173D01*
X65473744Y-25101895D01*
X65473943Y-25167261D01*
X65473982Y-25249268D01*
X65475386Y-25307316D01*
X65480086Y-25346465D01*
X65490013Y-25371780D01*
X65507097Y-25388323D01*
X65533268Y-25401156D01*
X65568225Y-25414491D01*
X65606404Y-25429007D01*
X65601859Y-25171389D01*
X65600029Y-25078519D01*
X65597888Y-25009889D01*
X65594819Y-24960711D01*
X65590206Y-24926198D01*
X65583432Y-24901562D01*
X65573881Y-24882016D01*
X65562366Y-24864770D01*
X65506810Y-24809680D01*
X65439020Y-24777822D01*
X65365287Y-24770191D01*
X65291907Y-24787780D01*
X65291907Y-24787780D01*
G37*
X65291907Y-24787780D02*
X65245328Y-24814723D01*
X65212943Y-24841466D01*
X65189258Y-24869484D01*
X65172941Y-24903748D01*
X65162661Y-24949227D01*
X65157086Y-25010892D01*
X65154884Y-25093711D01*
X65154629Y-25153246D01*
X65154629Y-25372391D01*
X65216314Y-25400044D01*
X65278000Y-25427697D01*
X65285257Y-25187670D01*
X65288256Y-25098028D01*
X65291402Y-25032962D01*
X65295299Y-24988026D01*
X65300553Y-24958770D01*
X65307769Y-24940748D01*
X65317550Y-24929511D01*
X65320688Y-24927079D01*
X65368239Y-24908083D01*
X65416303Y-24915600D01*
X65444914Y-24935543D01*
X65456553Y-24949675D01*
X65464609Y-24968220D01*
X65469729Y-24996334D01*
X65472559Y-25039173D01*
X65473744Y-25101895D01*
X65473943Y-25167261D01*
X65473982Y-25249268D01*
X65475386Y-25307316D01*
X65480086Y-25346465D01*
X65490013Y-25371780D01*
X65507097Y-25388323D01*
X65533268Y-25401156D01*
X65568225Y-25414491D01*
X65606404Y-25429007D01*
X65601859Y-25171389D01*
X65600029Y-25078519D01*
X65597888Y-25009889D01*
X65594819Y-24960711D01*
X65590206Y-24926198D01*
X65583432Y-24901562D01*
X65573881Y-24882016D01*
X65562366Y-24864770D01*
X65506810Y-24809680D01*
X65439020Y-24777822D01*
X65365287Y-24770191D01*
X65291907Y-24787780D01*
G36*
X66966885Y-24781962D02*
G01*
X66898855Y-24817733D01*
X66848649Y-24875301D01*
X66830815Y-24912312D01*
X66816937Y-24967882D01*
X66809833Y-25038096D01*
X66809160Y-25114727D01*
X66814573Y-25189552D01*
X66825730Y-25254342D01*
X66842286Y-25300873D01*
X66847374Y-25308887D01*
X66907645Y-25368707D01*
X66979231Y-25404535D01*
X67056908Y-25415020D01*
X67135452Y-25398810D01*
X67157311Y-25389092D01*
X67199878Y-25359143D01*
X67237237Y-25319433D01*
X67240768Y-25314397D01*
X67255119Y-25290124D01*
X67264606Y-25264178D01*
X67270210Y-25230022D01*
X67272914Y-25181119D01*
X67273701Y-25110935D01*
X67273714Y-25095200D01*
X67273678Y-25090192D01*
X67128571Y-25090192D01*
X67127727Y-25156430D01*
X67124404Y-25200386D01*
X67117417Y-25228779D01*
X67105584Y-25248325D01*
X67099543Y-25254857D01*
X67064814Y-25279680D01*
X67031097Y-25278548D01*
X66997005Y-25257016D01*
X66976671Y-25234029D01*
X66964629Y-25200478D01*
X66957866Y-25147569D01*
X66957402Y-25141399D01*
X66956248Y-25045513D01*
X66968312Y-24974299D01*
X66993430Y-24928194D01*
X67031440Y-24907635D01*
X67045008Y-24906514D01*
X67080636Y-24912152D01*
X67105006Y-24931686D01*
X67119907Y-24969042D01*
X67127125Y-25028150D01*
X67128571Y-25090192D01*
X67273678Y-25090192D01*
X67273174Y-25020413D01*
X67270904Y-24968159D01*
X67265932Y-24931949D01*
X67257287Y-24905299D01*
X67243995Y-24881722D01*
X67241057Y-24877338D01*
X67191687Y-24818249D01*
X67137891Y-24783947D01*
X67072398Y-24770331D01*
X67050158Y-24769665D01*
X66966885Y-24781962D01*
X66966885Y-24781962D01*
G37*
X66966885Y-24781962D02*
X66898855Y-24817733D01*
X66848649Y-24875301D01*
X66830815Y-24912312D01*
X66816937Y-24967882D01*
X66809833Y-25038096D01*
X66809160Y-25114727D01*
X66814573Y-25189552D01*
X66825730Y-25254342D01*
X66842286Y-25300873D01*
X66847374Y-25308887D01*
X66907645Y-25368707D01*
X66979231Y-25404535D01*
X67056908Y-25415020D01*
X67135452Y-25398810D01*
X67157311Y-25389092D01*
X67199878Y-25359143D01*
X67237237Y-25319433D01*
X67240768Y-25314397D01*
X67255119Y-25290124D01*
X67264606Y-25264178D01*
X67270210Y-25230022D01*
X67272914Y-25181119D01*
X67273701Y-25110935D01*
X67273714Y-25095200D01*
X67273678Y-25090192D01*
X67128571Y-25090192D01*
X67127727Y-25156430D01*
X67124404Y-25200386D01*
X67117417Y-25228779D01*
X67105584Y-25248325D01*
X67099543Y-25254857D01*
X67064814Y-25279680D01*
X67031097Y-25278548D01*
X66997005Y-25257016D01*
X66976671Y-25234029D01*
X66964629Y-25200478D01*
X66957866Y-25147569D01*
X66957402Y-25141399D01*
X66956248Y-25045513D01*
X66968312Y-24974299D01*
X66993430Y-24928194D01*
X67031440Y-24907635D01*
X67045008Y-24906514D01*
X67080636Y-24912152D01*
X67105006Y-24931686D01*
X67119907Y-24969042D01*
X67127125Y-25028150D01*
X67128571Y-25090192D01*
X67273678Y-25090192D01*
X67273174Y-25020413D01*
X67270904Y-24968159D01*
X67265932Y-24931949D01*
X67257287Y-24905299D01*
X67243995Y-24881722D01*
X67241057Y-24877338D01*
X67191687Y-24818249D01*
X67137891Y-24783947D01*
X67072398Y-24770331D01*
X67050158Y-24769665D01*
X66966885Y-24781962D01*
G36*
X65839697Y-24791239D02*
G01*
X65782473Y-24829735D01*
X65738251Y-24885335D01*
X65711833Y-24956086D01*
X65706490Y-25008162D01*
X65707097Y-25029893D01*
X65712178Y-25046531D01*
X65726145Y-25061437D01*
X65753411Y-25077973D01*
X65798388Y-25099498D01*
X65865489Y-25129374D01*
X65865829Y-25129524D01*
X65927593Y-25157813D01*
X65978241Y-25182933D01*
X66012596Y-25202179D01*
X66025482Y-25212848D01*
X66025486Y-25212934D01*
X66014128Y-25236166D01*
X65987569Y-25261774D01*
X65957077Y-25280221D01*
X65941630Y-25283886D01*
X65899485Y-25271212D01*
X65863192Y-25239471D01*
X65845483Y-25204572D01*
X65828448Y-25178845D01*
X65795078Y-25149546D01*
X65755851Y-25124235D01*
X65721244Y-25110471D01*
X65714007Y-25109714D01*
X65705861Y-25122160D01*
X65705370Y-25153972D01*
X65711357Y-25196866D01*
X65722643Y-25242558D01*
X65738050Y-25282761D01*
X65738829Y-25284322D01*
X65785196Y-25349062D01*
X65845289Y-25393097D01*
X65913535Y-25414711D01*
X65984362Y-25412185D01*
X66052196Y-25383804D01*
X66055212Y-25381808D01*
X66108573Y-25333448D01*
X66143660Y-25270352D01*
X66163078Y-25187387D01*
X66165684Y-25164078D01*
X66170299Y-25054055D01*
X66164767Y-25002748D01*
X66025486Y-25002748D01*
X66023676Y-25034753D01*
X66013778Y-25044093D01*
X65989102Y-25037105D01*
X65950205Y-25020587D01*
X65906725Y-24999881D01*
X65905644Y-24999333D01*
X65868791Y-24979949D01*
X65854000Y-24967013D01*
X65857647Y-24953451D01*
X65873005Y-24935632D01*
X65912077Y-24909845D01*
X65954154Y-24907950D01*
X65991897Y-24926717D01*
X66017966Y-24962915D01*
X66025486Y-25002748D01*
X66164767Y-25002748D01*
X66160806Y-24966027D01*
X66136450Y-24896212D01*
X66102544Y-24847302D01*
X66041347Y-24797878D01*
X65973937Y-24773359D01*
X65905120Y-24771797D01*
X65839697Y-24791239D01*
X65839697Y-24791239D01*
G37*
X65839697Y-24791239D02*
X65782473Y-24829735D01*
X65738251Y-24885335D01*
X65711833Y-24956086D01*
X65706490Y-25008162D01*
X65707097Y-25029893D01*
X65712178Y-25046531D01*
X65726145Y-25061437D01*
X65753411Y-25077973D01*
X65798388Y-25099498D01*
X65865489Y-25129374D01*
X65865829Y-25129524D01*
X65927593Y-25157813D01*
X65978241Y-25182933D01*
X66012596Y-25202179D01*
X66025482Y-25212848D01*
X66025486Y-25212934D01*
X66014128Y-25236166D01*
X65987569Y-25261774D01*
X65957077Y-25280221D01*
X65941630Y-25283886D01*
X65899485Y-25271212D01*
X65863192Y-25239471D01*
X65845483Y-25204572D01*
X65828448Y-25178845D01*
X65795078Y-25149546D01*
X65755851Y-25124235D01*
X65721244Y-25110471D01*
X65714007Y-25109714D01*
X65705861Y-25122160D01*
X65705370Y-25153972D01*
X65711357Y-25196866D01*
X65722643Y-25242558D01*
X65738050Y-25282761D01*
X65738829Y-25284322D01*
X65785196Y-25349062D01*
X65845289Y-25393097D01*
X65913535Y-25414711D01*
X65984362Y-25412185D01*
X66052196Y-25383804D01*
X66055212Y-25381808D01*
X66108573Y-25333448D01*
X66143660Y-25270352D01*
X66163078Y-25187387D01*
X66165684Y-25164078D01*
X66170299Y-25054055D01*
X66164767Y-25002748D01*
X66025486Y-25002748D01*
X66023676Y-25034753D01*
X66013778Y-25044093D01*
X65989102Y-25037105D01*
X65950205Y-25020587D01*
X65906725Y-24999881D01*
X65905644Y-24999333D01*
X65868791Y-24979949D01*
X65854000Y-24967013D01*
X65857647Y-24953451D01*
X65873005Y-24935632D01*
X65912077Y-24909845D01*
X65954154Y-24907950D01*
X65991897Y-24926717D01*
X66017966Y-24962915D01*
X66025486Y-25002748D01*
X66164767Y-25002748D01*
X66160806Y-24966027D01*
X66136450Y-24896212D01*
X66102544Y-24847302D01*
X66041347Y-24797878D01*
X65973937Y-24773359D01*
X65905120Y-24771797D01*
X65839697Y-24791239D01*
G36*
X64632114Y-24711289D02*
G01*
X64627861Y-24770613D01*
X64622975Y-24805572D01*
X64616205Y-24820820D01*
X64606298Y-24821015D01*
X64603086Y-24819195D01*
X64560356Y-24806015D01*
X64504773Y-24806785D01*
X64448263Y-24820333D01*
X64412918Y-24837861D01*
X64376679Y-24865861D01*
X64350187Y-24897549D01*
X64332001Y-24937813D01*
X64320678Y-24991543D01*
X64314778Y-25063626D01*
X64312857Y-25158951D01*
X64312823Y-25177237D01*
X64312800Y-25382646D01*
X64358509Y-25398580D01*
X64390973Y-25409420D01*
X64408785Y-25414468D01*
X64409309Y-25414514D01*
X64411063Y-25400828D01*
X64412556Y-25363076D01*
X64413674Y-25306224D01*
X64414303Y-25235234D01*
X64414400Y-25192073D01*
X64414602Y-25106973D01*
X64415642Y-25045981D01*
X64418169Y-25004177D01*
X64422836Y-24976642D01*
X64430293Y-24958456D01*
X64441189Y-24944698D01*
X64447993Y-24938073D01*
X64494728Y-24911375D01*
X64545728Y-24909375D01*
X64591999Y-24931955D01*
X64600556Y-24940107D01*
X64613107Y-24955436D01*
X64621812Y-24973618D01*
X64627369Y-24999909D01*
X64630474Y-25039562D01*
X64631824Y-25097832D01*
X64632114Y-25178173D01*
X64632114Y-25382646D01*
X64677823Y-25398580D01*
X64710287Y-25409420D01*
X64728099Y-25414468D01*
X64728623Y-25414514D01*
X64729963Y-25400623D01*
X64731172Y-25361439D01*
X64732199Y-25300700D01*
X64732998Y-25222141D01*
X64733519Y-25129498D01*
X64733714Y-25026509D01*
X64733714Y-24629342D01*
X64686543Y-24609444D01*
X64639371Y-24589547D01*
X64632114Y-24711289D01*
X64632114Y-24711289D01*
G37*
X64632114Y-24711289D02*
X64627861Y-24770613D01*
X64622975Y-24805572D01*
X64616205Y-24820820D01*
X64606298Y-24821015D01*
X64603086Y-24819195D01*
X64560356Y-24806015D01*
X64504773Y-24806785D01*
X64448263Y-24820333D01*
X64412918Y-24837861D01*
X64376679Y-24865861D01*
X64350187Y-24897549D01*
X64332001Y-24937813D01*
X64320678Y-24991543D01*
X64314778Y-25063626D01*
X64312857Y-25158951D01*
X64312823Y-25177237D01*
X64312800Y-25382646D01*
X64358509Y-25398580D01*
X64390973Y-25409420D01*
X64408785Y-25414468D01*
X64409309Y-25414514D01*
X64411063Y-25400828D01*
X64412556Y-25363076D01*
X64413674Y-25306224D01*
X64414303Y-25235234D01*
X64414400Y-25192073D01*
X64414602Y-25106973D01*
X64415642Y-25045981D01*
X64418169Y-25004177D01*
X64422836Y-24976642D01*
X64430293Y-24958456D01*
X64441189Y-24944698D01*
X64447993Y-24938073D01*
X64494728Y-24911375D01*
X64545728Y-24909375D01*
X64591999Y-24931955D01*
X64600556Y-24940107D01*
X64613107Y-24955436D01*
X64621812Y-24973618D01*
X64627369Y-24999909D01*
X64630474Y-25039562D01*
X64631824Y-25097832D01*
X64632114Y-25178173D01*
X64632114Y-25382646D01*
X64677823Y-25398580D01*
X64710287Y-25409420D01*
X64728099Y-25414468D01*
X64728623Y-25414514D01*
X64729963Y-25400623D01*
X64731172Y-25361439D01*
X64732199Y-25300700D01*
X64732998Y-25222141D01*
X64733519Y-25129498D01*
X64733714Y-25026509D01*
X64733714Y-24629342D01*
X64686543Y-24609444D01*
X64639371Y-24589547D01*
X64632114Y-24711289D01*
G36*
X63968256Y-24810968D02*
G01*
X63911384Y-24832087D01*
X63910733Y-24832493D01*
X63875560Y-24858380D01*
X63849593Y-24888633D01*
X63831330Y-24928058D01*
X63819268Y-24981462D01*
X63811904Y-25053651D01*
X63807736Y-25149432D01*
X63807371Y-25163078D01*
X63802124Y-25368842D01*
X63846284Y-25391678D01*
X63878237Y-25407110D01*
X63897530Y-25414423D01*
X63898422Y-25414514D01*
X63901761Y-25401022D01*
X63904413Y-25364626D01*
X63906044Y-25311452D01*
X63906400Y-25268393D01*
X63906408Y-25198641D01*
X63909597Y-25154837D01*
X63920712Y-25133944D01*
X63944499Y-25132925D01*
X63985704Y-25148741D01*
X64047914Y-25177815D01*
X64093659Y-25201963D01*
X64117187Y-25222913D01*
X64124104Y-25245747D01*
X64124114Y-25246877D01*
X64112701Y-25286212D01*
X64078908Y-25307462D01*
X64027191Y-25310539D01*
X63989939Y-25310006D01*
X63970297Y-25320735D01*
X63958048Y-25346505D01*
X63950998Y-25379337D01*
X63961158Y-25397966D01*
X63964983Y-25400632D01*
X64000999Y-25411340D01*
X64051434Y-25412856D01*
X64103374Y-25405759D01*
X64140178Y-25392788D01*
X64191062Y-25349585D01*
X64219986Y-25289446D01*
X64225714Y-25242462D01*
X64221343Y-25200082D01*
X64205525Y-25165488D01*
X64174203Y-25134763D01*
X64123322Y-25103990D01*
X64048824Y-25069252D01*
X64044286Y-25067288D01*
X63977179Y-25036287D01*
X63935768Y-25010862D01*
X63918019Y-24988014D01*
X63921893Y-24964745D01*
X63945357Y-24938056D01*
X63952373Y-24931914D01*
X63999370Y-24908100D01*
X64048067Y-24909103D01*
X64090478Y-24932451D01*
X64118616Y-24975675D01*
X64121231Y-24984160D01*
X64146692Y-25025308D01*
X64178999Y-25045128D01*
X64225714Y-25064770D01*
X64225714Y-25013950D01*
X64211504Y-24940082D01*
X64169325Y-24872327D01*
X64147376Y-24849661D01*
X64097483Y-24820569D01*
X64034033Y-24807400D01*
X63968256Y-24810968D01*
X63968256Y-24810968D01*
G37*
X63968256Y-24810968D02*
X63911384Y-24832087D01*
X63910733Y-24832493D01*
X63875560Y-24858380D01*
X63849593Y-24888633D01*
X63831330Y-24928058D01*
X63819268Y-24981462D01*
X63811904Y-25053651D01*
X63807736Y-25149432D01*
X63807371Y-25163078D01*
X63802124Y-25368842D01*
X63846284Y-25391678D01*
X63878237Y-25407110D01*
X63897530Y-25414423D01*
X63898422Y-25414514D01*
X63901761Y-25401022D01*
X63904413Y-25364626D01*
X63906044Y-25311452D01*
X63906400Y-25268393D01*
X63906408Y-25198641D01*
X63909597Y-25154837D01*
X63920712Y-25133944D01*
X63944499Y-25132925D01*
X63985704Y-25148741D01*
X64047914Y-25177815D01*
X64093659Y-25201963D01*
X64117187Y-25222913D01*
X64124104Y-25245747D01*
X64124114Y-25246877D01*
X64112701Y-25286212D01*
X64078908Y-25307462D01*
X64027191Y-25310539D01*
X63989939Y-25310006D01*
X63970297Y-25320735D01*
X63958048Y-25346505D01*
X63950998Y-25379337D01*
X63961158Y-25397966D01*
X63964983Y-25400632D01*
X64000999Y-25411340D01*
X64051434Y-25412856D01*
X64103374Y-25405759D01*
X64140178Y-25392788D01*
X64191062Y-25349585D01*
X64219986Y-25289446D01*
X64225714Y-25242462D01*
X64221343Y-25200082D01*
X64205525Y-25165488D01*
X64174203Y-25134763D01*
X64123322Y-25103990D01*
X64048824Y-25069252D01*
X64044286Y-25067288D01*
X63977179Y-25036287D01*
X63935768Y-25010862D01*
X63918019Y-24988014D01*
X63921893Y-24964745D01*
X63945357Y-24938056D01*
X63952373Y-24931914D01*
X63999370Y-24908100D01*
X64048067Y-24909103D01*
X64090478Y-24932451D01*
X64118616Y-24975675D01*
X64121231Y-24984160D01*
X64146692Y-25025308D01*
X64178999Y-25045128D01*
X64225714Y-25064770D01*
X64225714Y-25013950D01*
X64211504Y-24940082D01*
X64169325Y-24872327D01*
X64147376Y-24849661D01*
X64097483Y-24820569D01*
X64034033Y-24807400D01*
X63968256Y-24810968D01*
G36*
X63478074Y-24809755D02*
G01*
X63412142Y-24834084D01*
X63358727Y-24877117D01*
X63337836Y-24907409D01*
X63315061Y-24962994D01*
X63315534Y-25003186D01*
X63339438Y-25030217D01*
X63348283Y-25034813D01*
X63386470Y-25049144D01*
X63405972Y-25045472D01*
X63412578Y-25021407D01*
X63412914Y-25008114D01*
X63425008Y-24959210D01*
X63456529Y-24924999D01*
X63500341Y-24908476D01*
X63549305Y-24912634D01*
X63589106Y-24934227D01*
X63602550Y-24946544D01*
X63612079Y-24961487D01*
X63618515Y-24984075D01*
X63622683Y-25019328D01*
X63625403Y-25072266D01*
X63627498Y-25147907D01*
X63628040Y-25171857D01*
X63630019Y-25253790D01*
X63632269Y-25311455D01*
X63635643Y-25349608D01*
X63640994Y-25373004D01*
X63649176Y-25386398D01*
X63661041Y-25394545D01*
X63668638Y-25398144D01*
X63700898Y-25410452D01*
X63719889Y-25414514D01*
X63726164Y-25400948D01*
X63729994Y-25359934D01*
X63731400Y-25290999D01*
X63730402Y-25193669D01*
X63730092Y-25178657D01*
X63727899Y-25089859D01*
X63725307Y-25025019D01*
X63721618Y-24979067D01*
X63716136Y-24946935D01*
X63708165Y-24923553D01*
X63697007Y-24903852D01*
X63691170Y-24895410D01*
X63657704Y-24858057D01*
X63620273Y-24829003D01*
X63615691Y-24826467D01*
X63548574Y-24806443D01*
X63478074Y-24809755D01*
X63478074Y-24809755D01*
G37*
X63478074Y-24809755D02*
X63412142Y-24834084D01*
X63358727Y-24877117D01*
X63337836Y-24907409D01*
X63315061Y-24962994D01*
X63315534Y-25003186D01*
X63339438Y-25030217D01*
X63348283Y-25034813D01*
X63386470Y-25049144D01*
X63405972Y-25045472D01*
X63412578Y-25021407D01*
X63412914Y-25008114D01*
X63425008Y-24959210D01*
X63456529Y-24924999D01*
X63500341Y-24908476D01*
X63549305Y-24912634D01*
X63589106Y-24934227D01*
X63602550Y-24946544D01*
X63612079Y-24961487D01*
X63618515Y-24984075D01*
X63622683Y-25019328D01*
X63625403Y-25072266D01*
X63627498Y-25147907D01*
X63628040Y-25171857D01*
X63630019Y-25253790D01*
X63632269Y-25311455D01*
X63635643Y-25349608D01*
X63640994Y-25373004D01*
X63649176Y-25386398D01*
X63661041Y-25394545D01*
X63668638Y-25398144D01*
X63700898Y-25410452D01*
X63719889Y-25414514D01*
X63726164Y-25400948D01*
X63729994Y-25359934D01*
X63731400Y-25290999D01*
X63730402Y-25193669D01*
X63730092Y-25178657D01*
X63727899Y-25089859D01*
X63725307Y-25025019D01*
X63721618Y-24979067D01*
X63716136Y-24946935D01*
X63708165Y-24923553D01*
X63697007Y-24903852D01*
X63691170Y-24895410D01*
X63657704Y-24858057D01*
X63620273Y-24829003D01*
X63615691Y-24826467D01*
X63548574Y-24806443D01*
X63478074Y-24809755D01*
G36*
X62817883Y-24925358D02*
G01*
X62818067Y-25033837D01*
X62818781Y-25117287D01*
X62820325Y-25179704D01*
X62822999Y-25225085D01*
X62827106Y-25257429D01*
X62832945Y-25280733D01*
X62840818Y-25298995D01*
X62846779Y-25309418D01*
X62896145Y-25365945D01*
X62958736Y-25401377D01*
X63027987Y-25414090D01*
X63097332Y-25402463D01*
X63138625Y-25381568D01*
X63181975Y-25345422D01*
X63211519Y-25301276D01*
X63229345Y-25243462D01*
X63237537Y-25166313D01*
X63238698Y-25109714D01*
X63238542Y-25105647D01*
X63137143Y-25105647D01*
X63136524Y-25170550D01*
X63133686Y-25213514D01*
X63127160Y-25241622D01*
X63115477Y-25261953D01*
X63101517Y-25277288D01*
X63054635Y-25306890D01*
X63004299Y-25309419D01*
X62956724Y-25284705D01*
X62953021Y-25281356D01*
X62937217Y-25263935D01*
X62927307Y-25243209D01*
X62921942Y-25212362D01*
X62919772Y-25164577D01*
X62919429Y-25111748D01*
X62920173Y-25045381D01*
X62923252Y-25001106D01*
X62929939Y-24972009D01*
X62941504Y-24951173D01*
X62950987Y-24940107D01*
X62995040Y-24912198D01*
X63045776Y-24908843D01*
X63094204Y-24930159D01*
X63103550Y-24938073D01*
X63119460Y-24955647D01*
X63129390Y-24976587D01*
X63134722Y-25007782D01*
X63136837Y-25056122D01*
X63137143Y-25105647D01*
X63238542Y-25105647D01*
X63235190Y-25018568D01*
X63223274Y-24950086D01*
X63200865Y-24898600D01*
X63165876Y-24858443D01*
X63138625Y-24837861D01*
X63089093Y-24815625D01*
X63031684Y-24805304D01*
X62978318Y-24808067D01*
X62948457Y-24819212D01*
X62936739Y-24822383D01*
X62928963Y-24810557D01*
X62923535Y-24778866D01*
X62919429Y-24730593D01*
X62914933Y-24676829D01*
X62908687Y-24644482D01*
X62897324Y-24625985D01*
X62877472Y-24613770D01*
X62865000Y-24608362D01*
X62817829Y-24588601D01*
X62817883Y-24925358D01*
X62817883Y-24925358D01*
G37*
X62817883Y-24925358D02*
X62818067Y-25033837D01*
X62818781Y-25117287D01*
X62820325Y-25179704D01*
X62822999Y-25225085D01*
X62827106Y-25257429D01*
X62832945Y-25280733D01*
X62840818Y-25298995D01*
X62846779Y-25309418D01*
X62896145Y-25365945D01*
X62958736Y-25401377D01*
X63027987Y-25414090D01*
X63097332Y-25402463D01*
X63138625Y-25381568D01*
X63181975Y-25345422D01*
X63211519Y-25301276D01*
X63229345Y-25243462D01*
X63237537Y-25166313D01*
X63238698Y-25109714D01*
X63238542Y-25105647D01*
X63137143Y-25105647D01*
X63136524Y-25170550D01*
X63133686Y-25213514D01*
X63127160Y-25241622D01*
X63115477Y-25261953D01*
X63101517Y-25277288D01*
X63054635Y-25306890D01*
X63004299Y-25309419D01*
X62956724Y-25284705D01*
X62953021Y-25281356D01*
X62937217Y-25263935D01*
X62927307Y-25243209D01*
X62921942Y-25212362D01*
X62919772Y-25164577D01*
X62919429Y-25111748D01*
X62920173Y-25045381D01*
X62923252Y-25001106D01*
X62929939Y-24972009D01*
X62941504Y-24951173D01*
X62950987Y-24940107D01*
X62995040Y-24912198D01*
X63045776Y-24908843D01*
X63094204Y-24930159D01*
X63103550Y-24938073D01*
X63119460Y-24955647D01*
X63129390Y-24976587D01*
X63134722Y-25007782D01*
X63136837Y-25056122D01*
X63137143Y-25105647D01*
X63238542Y-25105647D01*
X63235190Y-25018568D01*
X63223274Y-24950086D01*
X63200865Y-24898600D01*
X63165876Y-24858443D01*
X63138625Y-24837861D01*
X63089093Y-24815625D01*
X63031684Y-24805304D01*
X62978318Y-24808067D01*
X62948457Y-24819212D01*
X62936739Y-24822383D01*
X62928963Y-24810557D01*
X62923535Y-24778866D01*
X62919429Y-24730593D01*
X62914933Y-24676829D01*
X62908687Y-24644482D01*
X62897324Y-24625985D01*
X62877472Y-24613770D01*
X62865000Y-24608362D01*
X62817829Y-24588601D01*
X62817883Y-24925358D01*
G36*
X62228167Y-24818663D02*
G01*
X62225952Y-24856850D01*
X62224216Y-24914886D01*
X62223101Y-24988180D01*
X62222743Y-25065055D01*
X62222743Y-25325196D01*
X62268674Y-25371127D01*
X62300325Y-25399429D01*
X62328110Y-25410893D01*
X62366085Y-25410168D01*
X62381160Y-25408321D01*
X62428274Y-25402948D01*
X62467244Y-25399869D01*
X62476743Y-25399585D01*
X62508767Y-25401445D01*
X62554568Y-25406114D01*
X62572326Y-25408321D01*
X62615943Y-25411735D01*
X62645255Y-25404320D01*
X62674320Y-25381427D01*
X62684812Y-25371127D01*
X62730743Y-25325196D01*
X62730743Y-24838602D01*
X62693774Y-24821758D01*
X62661941Y-24809282D01*
X62643317Y-24804914D01*
X62638542Y-24818718D01*
X62634079Y-24857286D01*
X62630225Y-24916356D01*
X62627278Y-24991663D01*
X62625857Y-25055286D01*
X62621886Y-25305657D01*
X62587241Y-25310556D01*
X62555732Y-25307131D01*
X62540292Y-25296041D01*
X62535977Y-25275308D01*
X62532292Y-25231145D01*
X62529531Y-25169146D01*
X62527988Y-25094909D01*
X62527765Y-25056706D01*
X62527543Y-24836783D01*
X62481834Y-24820849D01*
X62449482Y-24810015D01*
X62431885Y-24804962D01*
X62431377Y-24804914D01*
X62429612Y-24818648D01*
X62427671Y-24856730D01*
X62425718Y-24914482D01*
X62423916Y-24987227D01*
X62422657Y-25055286D01*
X62418686Y-25305657D01*
X62331600Y-25305657D01*
X62327604Y-25077240D01*
X62323608Y-24848822D01*
X62281153Y-24826868D01*
X62249808Y-24811793D01*
X62231256Y-24804951D01*
X62230721Y-24804914D01*
X62228167Y-24818663D01*
X62228167Y-24818663D01*
G37*
X62228167Y-24818663D02*
X62225952Y-24856850D01*
X62224216Y-24914886D01*
X62223101Y-24988180D01*
X62222743Y-25065055D01*
X62222743Y-25325196D01*
X62268674Y-25371127D01*
X62300325Y-25399429D01*
X62328110Y-25410893D01*
X62366085Y-25410168D01*
X62381160Y-25408321D01*
X62428274Y-25402948D01*
X62467244Y-25399869D01*
X62476743Y-25399585D01*
X62508767Y-25401445D01*
X62554568Y-25406114D01*
X62572326Y-25408321D01*
X62615943Y-25411735D01*
X62645255Y-25404320D01*
X62674320Y-25381427D01*
X62684812Y-25371127D01*
X62730743Y-25325196D01*
X62730743Y-24838602D01*
X62693774Y-24821758D01*
X62661941Y-24809282D01*
X62643317Y-24804914D01*
X62638542Y-24818718D01*
X62634079Y-24857286D01*
X62630225Y-24916356D01*
X62627278Y-24991663D01*
X62625857Y-25055286D01*
X62621886Y-25305657D01*
X62587241Y-25310556D01*
X62555732Y-25307131D01*
X62540292Y-25296041D01*
X62535977Y-25275308D01*
X62532292Y-25231145D01*
X62529531Y-25169146D01*
X62527988Y-25094909D01*
X62527765Y-25056706D01*
X62527543Y-24836783D01*
X62481834Y-24820849D01*
X62449482Y-24810015D01*
X62431885Y-24804962D01*
X62431377Y-24804914D01*
X62429612Y-24818648D01*
X62427671Y-24856730D01*
X62425718Y-24914482D01*
X62423916Y-24987227D01*
X62422657Y-25055286D01*
X62418686Y-25305657D01*
X62331600Y-25305657D01*
X62327604Y-25077240D01*
X62323608Y-24848822D01*
X62281153Y-24826868D01*
X62249808Y-24811793D01*
X62231256Y-24804951D01*
X62230721Y-24804914D01*
X62228167Y-24818663D01*
G36*
X61863124Y-24816335D02*
G01*
X61821333Y-24835344D01*
X61788531Y-24858378D01*
X61764497Y-24884133D01*
X61747903Y-24917358D01*
X61737423Y-24962800D01*
X61731729Y-25025207D01*
X61729493Y-25109327D01*
X61729257Y-25164721D01*
X61729257Y-25380826D01*
X61766226Y-25397670D01*
X61795344Y-25409981D01*
X61809769Y-25414514D01*
X61812528Y-25401025D01*
X61814718Y-25364653D01*
X61816058Y-25311542D01*
X61816343Y-25269372D01*
X61817566Y-25208447D01*
X61820864Y-25160115D01*
X61825679Y-25130518D01*
X61829504Y-25124229D01*
X61855217Y-25130652D01*
X61895582Y-25147125D01*
X61942321Y-25169458D01*
X61987155Y-25193457D01*
X62021807Y-25214930D01*
X62037998Y-25229685D01*
X62038062Y-25229845D01*
X62036670Y-25257152D01*
X62024182Y-25283219D01*
X62002257Y-25304392D01*
X61970257Y-25311474D01*
X61942908Y-25310649D01*
X61904174Y-25310042D01*
X61883842Y-25319116D01*
X61871631Y-25343092D01*
X61870091Y-25347613D01*
X61864797Y-25381806D01*
X61878953Y-25402568D01*
X61915852Y-25412462D01*
X61955711Y-25414292D01*
X62027438Y-25400727D01*
X62064568Y-25381355D01*
X62110424Y-25335845D01*
X62134744Y-25279983D01*
X62136927Y-25220957D01*
X62116371Y-25165953D01*
X62085451Y-25131486D01*
X62054580Y-25112189D01*
X62006058Y-25087759D01*
X61949515Y-25062985D01*
X61940090Y-25059199D01*
X61877981Y-25031791D01*
X61842178Y-25007634D01*
X61830663Y-24983619D01*
X61841420Y-24956635D01*
X61859886Y-24935543D01*
X61903531Y-24909572D01*
X61951554Y-24907624D01*
X61995594Y-24927637D01*
X62027291Y-24967551D01*
X62031451Y-24977848D01*
X62055673Y-25015724D01*
X62091035Y-25043842D01*
X62135657Y-25066917D01*
X62135657Y-25001485D01*
X62133031Y-24961506D01*
X62121770Y-24929997D01*
X62096801Y-24896378D01*
X62072831Y-24870484D01*
X62035559Y-24833817D01*
X62006599Y-24814121D01*
X61975495Y-24806220D01*
X61940287Y-24804914D01*
X61863124Y-24816335D01*
X61863124Y-24816335D01*
G37*
X61863124Y-24816335D02*
X61821333Y-24835344D01*
X61788531Y-24858378D01*
X61764497Y-24884133D01*
X61747903Y-24917358D01*
X61737423Y-24962800D01*
X61731729Y-25025207D01*
X61729493Y-25109327D01*
X61729257Y-25164721D01*
X61729257Y-25380826D01*
X61766226Y-25397670D01*
X61795344Y-25409981D01*
X61809769Y-25414514D01*
X61812528Y-25401025D01*
X61814718Y-25364653D01*
X61816058Y-25311542D01*
X61816343Y-25269372D01*
X61817566Y-25208447D01*
X61820864Y-25160115D01*
X61825679Y-25130518D01*
X61829504Y-25124229D01*
X61855217Y-25130652D01*
X61895582Y-25147125D01*
X61942321Y-25169458D01*
X61987155Y-25193457D01*
X62021807Y-25214930D01*
X62037998Y-25229685D01*
X62038062Y-25229845D01*
X62036670Y-25257152D01*
X62024182Y-25283219D01*
X62002257Y-25304392D01*
X61970257Y-25311474D01*
X61942908Y-25310649D01*
X61904174Y-25310042D01*
X61883842Y-25319116D01*
X61871631Y-25343092D01*
X61870091Y-25347613D01*
X61864797Y-25381806D01*
X61878953Y-25402568D01*
X61915852Y-25412462D01*
X61955711Y-25414292D01*
X62027438Y-25400727D01*
X62064568Y-25381355D01*
X62110424Y-25335845D01*
X62134744Y-25279983D01*
X62136927Y-25220957D01*
X62116371Y-25165953D01*
X62085451Y-25131486D01*
X62054580Y-25112189D01*
X62006058Y-25087759D01*
X61949515Y-25062985D01*
X61940090Y-25059199D01*
X61877981Y-25031791D01*
X61842178Y-25007634D01*
X61830663Y-24983619D01*
X61841420Y-24956635D01*
X61859886Y-24935543D01*
X61903531Y-24909572D01*
X61951554Y-24907624D01*
X61995594Y-24927637D01*
X62027291Y-24967551D01*
X62031451Y-24977848D01*
X62055673Y-25015724D01*
X62091035Y-25043842D01*
X62135657Y-25066917D01*
X62135657Y-25001485D01*
X62133031Y-24961506D01*
X62121770Y-24929997D01*
X62096801Y-24896378D01*
X62072831Y-24870484D01*
X62035559Y-24833817D01*
X62006599Y-24814121D01*
X61975495Y-24806220D01*
X61940287Y-24804914D01*
X61863124Y-24816335D01*
G36*
X61355400Y-24818752D02*
G01*
X61338052Y-24826334D01*
X61296644Y-24859128D01*
X61261235Y-24906547D01*
X61239336Y-24957151D01*
X61235771Y-24982098D01*
X61247721Y-25016927D01*
X61273933Y-25035357D01*
X61302036Y-25046516D01*
X61314905Y-25048572D01*
X61321171Y-25033649D01*
X61333544Y-25001175D01*
X61338972Y-24986502D01*
X61369410Y-24935744D01*
X61413480Y-24910427D01*
X61469990Y-24911206D01*
X61474175Y-24912203D01*
X61504345Y-24926507D01*
X61526524Y-24954393D01*
X61541673Y-24999287D01*
X61550750Y-25064615D01*
X61554714Y-25153804D01*
X61555086Y-25201261D01*
X61555270Y-25276071D01*
X61556478Y-25327069D01*
X61559691Y-25359471D01*
X61565891Y-25378495D01*
X61576060Y-25389356D01*
X61591181Y-25397272D01*
X61592054Y-25397670D01*
X61621172Y-25409981D01*
X61635597Y-25414514D01*
X61637814Y-25400809D01*
X61639711Y-25362925D01*
X61641153Y-25305715D01*
X61642002Y-25234027D01*
X61642171Y-25181565D01*
X61641308Y-25080047D01*
X61637930Y-25003032D01*
X61630858Y-24946023D01*
X61618912Y-24904526D01*
X61600910Y-24874043D01*
X61575673Y-24850080D01*
X61550753Y-24833355D01*
X61490829Y-24811097D01*
X61421089Y-24806076D01*
X61355400Y-24818752D01*
X61355400Y-24818752D01*
G37*
X61355400Y-24818752D02*
X61338052Y-24826334D01*
X61296644Y-24859128D01*
X61261235Y-24906547D01*
X61239336Y-24957151D01*
X61235771Y-24982098D01*
X61247721Y-25016927D01*
X61273933Y-25035357D01*
X61302036Y-25046516D01*
X61314905Y-25048572D01*
X61321171Y-25033649D01*
X61333544Y-25001175D01*
X61338972Y-24986502D01*
X61369410Y-24935744D01*
X61413480Y-24910427D01*
X61469990Y-24911206D01*
X61474175Y-24912203D01*
X61504345Y-24926507D01*
X61526524Y-24954393D01*
X61541673Y-24999287D01*
X61550750Y-25064615D01*
X61554714Y-25153804D01*
X61555086Y-25201261D01*
X61555270Y-25276071D01*
X61556478Y-25327069D01*
X61559691Y-25359471D01*
X61565891Y-25378495D01*
X61576060Y-25389356D01*
X61591181Y-25397272D01*
X61592054Y-25397670D01*
X61621172Y-25409981D01*
X61635597Y-25414514D01*
X61637814Y-25400809D01*
X61639711Y-25362925D01*
X61641153Y-25305715D01*
X61642002Y-25234027D01*
X61642171Y-25181565D01*
X61641308Y-25080047D01*
X61637930Y-25003032D01*
X61630858Y-24946023D01*
X61618912Y-24904526D01*
X61600910Y-24874043D01*
X61575673Y-24850080D01*
X61550753Y-24833355D01*
X61490829Y-24811097D01*
X61421089Y-24806076D01*
X61355400Y-24818752D01*
G36*
X60854405Y-24826966D02*
G01*
X60796979Y-24864497D01*
X60769281Y-24898096D01*
X60747338Y-24959064D01*
X60745595Y-25007308D01*
X60749543Y-25071816D01*
X60898314Y-25136934D01*
X60970651Y-25170202D01*
X61017916Y-25196964D01*
X61042493Y-25220144D01*
X61046763Y-25242667D01*
X61033111Y-25267455D01*
X61018057Y-25283886D01*
X60974254Y-25310235D01*
X60926611Y-25312081D01*
X60882855Y-25291546D01*
X60850711Y-25250752D01*
X60844962Y-25236347D01*
X60817424Y-25191356D01*
X60785742Y-25172182D01*
X60742286Y-25155779D01*
X60742286Y-25217966D01*
X60746128Y-25260283D01*
X60761177Y-25295969D01*
X60792720Y-25336943D01*
X60797408Y-25342267D01*
X60832494Y-25378720D01*
X60862653Y-25398283D01*
X60900385Y-25407283D01*
X60931665Y-25410230D01*
X60987615Y-25410965D01*
X61027445Y-25401660D01*
X61052292Y-25387846D01*
X61091344Y-25357467D01*
X61118375Y-25324613D01*
X61135483Y-25283294D01*
X61144762Y-25227521D01*
X61148307Y-25151305D01*
X61148590Y-25112622D01*
X61147628Y-25066247D01*
X61059993Y-25066247D01*
X61058977Y-25091126D01*
X61056444Y-25095200D01*
X61039726Y-25089665D01*
X61003751Y-25075017D01*
X60955669Y-25054190D01*
X60945614Y-25049714D01*
X60884848Y-25018814D01*
X60851368Y-24991657D01*
X60844010Y-24966220D01*
X60861609Y-24940481D01*
X60876144Y-24929109D01*
X60928590Y-24906364D01*
X60977678Y-24910122D01*
X61018773Y-24937884D01*
X61047242Y-24987152D01*
X61056369Y-25026257D01*
X61059993Y-25066247D01*
X61147628Y-25066247D01*
X61146715Y-25022249D01*
X61139804Y-24955384D01*
X61126116Y-24906695D01*
X61103904Y-24870849D01*
X61071426Y-24842513D01*
X61057267Y-24833355D01*
X60992947Y-24809507D01*
X60922527Y-24808006D01*
X60854405Y-24826966D01*
X60854405Y-24826966D01*
G37*
X60854405Y-24826966D02*
X60796979Y-24864497D01*
X60769281Y-24898096D01*
X60747338Y-24959064D01*
X60745595Y-25007308D01*
X60749543Y-25071816D01*
X60898314Y-25136934D01*
X60970651Y-25170202D01*
X61017916Y-25196964D01*
X61042493Y-25220144D01*
X61046763Y-25242667D01*
X61033111Y-25267455D01*
X61018057Y-25283886D01*
X60974254Y-25310235D01*
X60926611Y-25312081D01*
X60882855Y-25291546D01*
X60850711Y-25250752D01*
X60844962Y-25236347D01*
X60817424Y-25191356D01*
X60785742Y-25172182D01*
X60742286Y-25155779D01*
X60742286Y-25217966D01*
X60746128Y-25260283D01*
X60761177Y-25295969D01*
X60792720Y-25336943D01*
X60797408Y-25342267D01*
X60832494Y-25378720D01*
X60862653Y-25398283D01*
X60900385Y-25407283D01*
X60931665Y-25410230D01*
X60987615Y-25410965D01*
X61027445Y-25401660D01*
X61052292Y-25387846D01*
X61091344Y-25357467D01*
X61118375Y-25324613D01*
X61135483Y-25283294D01*
X61144762Y-25227521D01*
X61148307Y-25151305D01*
X61148590Y-25112622D01*
X61147628Y-25066247D01*
X61059993Y-25066247D01*
X61058977Y-25091126D01*
X61056444Y-25095200D01*
X61039726Y-25089665D01*
X61003751Y-25075017D01*
X60955669Y-25054190D01*
X60945614Y-25049714D01*
X60884848Y-25018814D01*
X60851368Y-24991657D01*
X60844010Y-24966220D01*
X60861609Y-24940481D01*
X60876144Y-24929109D01*
X60928590Y-24906364D01*
X60977678Y-24910122D01*
X61018773Y-24937884D01*
X61047242Y-24987152D01*
X61056369Y-25026257D01*
X61059993Y-25066247D01*
X61147628Y-25066247D01*
X61146715Y-25022249D01*
X61139804Y-24955384D01*
X61126116Y-24906695D01*
X61103904Y-24870849D01*
X61071426Y-24842513D01*
X61057267Y-24833355D01*
X60992947Y-24809507D01*
X60922527Y-24808006D01*
X60854405Y-24826966D01*
G36*
X63904090Y-20102348D02*
G01*
X63825546Y-20102778D01*
X63768702Y-20103942D01*
X63729895Y-20106207D01*
X63705462Y-20109940D01*
X63691738Y-20115506D01*
X63685060Y-20123273D01*
X63681764Y-20133605D01*
X63681444Y-20134943D01*
X63676438Y-20159079D01*
X63667171Y-20206701D01*
X63654608Y-20272741D01*
X63639713Y-20352128D01*
X63623449Y-20439796D01*
X63622881Y-20442875D01*
X63606590Y-20528789D01*
X63591348Y-20604696D01*
X63578139Y-20666045D01*
X63567946Y-20708282D01*
X63561752Y-20726855D01*
X63561457Y-20727184D01*
X63543212Y-20736253D01*
X63505595Y-20751367D01*
X63456729Y-20769262D01*
X63456457Y-20769358D01*
X63394907Y-20792493D01*
X63322343Y-20821965D01*
X63253943Y-20851597D01*
X63250706Y-20853062D01*
X63139298Y-20903626D01*
X62892601Y-20735160D01*
X62816923Y-20683803D01*
X62748369Y-20637889D01*
X62690912Y-20600030D01*
X62648524Y-20572837D01*
X62625175Y-20558921D01*
X62622958Y-20557889D01*
X62605990Y-20562484D01*
X62574299Y-20584655D01*
X62526648Y-20625447D01*
X62461802Y-20685905D01*
X62395603Y-20750227D01*
X62331786Y-20813612D01*
X62274671Y-20871451D01*
X62227695Y-20920175D01*
X62194297Y-20956210D01*
X62177915Y-20975984D01*
X62177306Y-20977002D01*
X62175495Y-20990572D01*
X62182317Y-21012733D01*
X62199460Y-21046478D01*
X62228607Y-21094800D01*
X62271445Y-21160692D01*
X62328552Y-21245517D01*
X62379234Y-21320177D01*
X62424539Y-21387140D01*
X62461850Y-21442516D01*
X62488548Y-21482420D01*
X62502015Y-21502962D01*
X62502863Y-21504356D01*
X62501219Y-21524038D01*
X62488755Y-21562293D01*
X62467952Y-21611889D01*
X62460538Y-21627728D01*
X62428186Y-21698290D01*
X62393672Y-21778353D01*
X62365635Y-21847629D01*
X62345432Y-21899045D01*
X62329385Y-21938119D01*
X62320112Y-21958541D01*
X62318959Y-21960114D01*
X62301904Y-21962721D01*
X62261702Y-21969863D01*
X62203698Y-21980523D01*
X62133237Y-21993685D01*
X62055665Y-22008333D01*
X61976328Y-22023449D01*
X61900569Y-22038018D01*
X61833736Y-22051022D01*
X61781172Y-22061445D01*
X61748224Y-22068270D01*
X61740143Y-22070199D01*
X61731795Y-22074962D01*
X61725494Y-22085718D01*
X61720955Y-22106098D01*
X61717896Y-22139734D01*
X61716033Y-22190255D01*
X61715082Y-22261292D01*
X61714760Y-22356476D01*
X61714743Y-22395492D01*
X61714743Y-22712799D01*
X61790943Y-22727839D01*
X61833337Y-22735995D01*
X61896600Y-22747899D01*
X61973038Y-22762116D01*
X62054957Y-22777210D01*
X62077600Y-22781355D01*
X62153194Y-22796053D01*
X62219047Y-22810505D01*
X62269634Y-22823375D01*
X62299426Y-22833322D01*
X62304388Y-22836287D01*
X62316574Y-22857283D01*
X62334047Y-22897967D01*
X62353423Y-22950322D01*
X62357266Y-22961600D01*
X62382661Y-23031523D01*
X62414183Y-23110418D01*
X62445031Y-23181266D01*
X62445183Y-23181595D01*
X62496553Y-23292733D01*
X62327601Y-23541253D01*
X62158648Y-23789772D01*
X62375571Y-24007058D01*
X62441181Y-24071726D01*
X62501021Y-24128733D01*
X62551733Y-24175033D01*
X62589954Y-24207584D01*
X62612325Y-24223343D01*
X62615534Y-24224343D01*
X62634374Y-24216469D01*
X62672820Y-24194578D01*
X62726670Y-24161267D01*
X62791724Y-24119131D01*
X62862060Y-24071943D01*
X62933445Y-24023810D01*
X62997092Y-23981928D01*
X63048959Y-23948871D01*
X63085005Y-23927218D01*
X63101133Y-23919543D01*
X63120811Y-23926037D01*
X63158125Y-23943150D01*
X63205379Y-23967326D01*
X63210388Y-23970013D01*
X63274023Y-24001927D01*
X63317659Y-24017579D01*
X63344798Y-24017745D01*
X63358943Y-24003204D01*
X63359025Y-24003000D01*
X63366095Y-23985779D01*
X63382958Y-23944899D01*
X63408305Y-23883525D01*
X63440829Y-23804819D01*
X63479222Y-23711947D01*
X63522178Y-23608072D01*
X63563778Y-23507502D01*
X63609496Y-23396516D01*
X63651474Y-23293703D01*
X63688452Y-23202215D01*
X63719173Y-23125201D01*
X63742378Y-23065815D01*
X63756810Y-23027209D01*
X63761257Y-23012800D01*
X63750104Y-22996272D01*
X63720931Y-22969930D01*
X63682029Y-22940887D01*
X63571243Y-22849039D01*
X63484649Y-22743759D01*
X63423284Y-22627266D01*
X63388185Y-22501776D01*
X63380392Y-22369507D01*
X63386057Y-22308457D01*
X63416922Y-22181795D01*
X63470080Y-22069941D01*
X63542233Y-21974001D01*
X63630083Y-21895076D01*
X63730335Y-21834270D01*
X63839690Y-21792687D01*
X63954853Y-21771428D01*
X64072525Y-21771599D01*
X64189410Y-21794301D01*
X64302211Y-21840638D01*
X64407631Y-21911713D01*
X64451632Y-21951911D01*
X64536021Y-22055129D01*
X64594778Y-22167925D01*
X64628296Y-22287010D01*
X64636965Y-22409095D01*
X64621177Y-22530893D01*
X64581322Y-22649116D01*
X64517793Y-22760475D01*
X64430979Y-22861684D01*
X64333971Y-22940887D01*
X64293563Y-22971162D01*
X64265018Y-22997219D01*
X64254743Y-23012825D01*
X64260123Y-23029843D01*
X64275425Y-23070500D01*
X64299388Y-23131642D01*
X64330756Y-23210119D01*
X64368268Y-23302780D01*
X64410667Y-23406472D01*
X64452337Y-23507526D01*
X64498310Y-23618607D01*
X64540893Y-23721541D01*
X64578779Y-23813165D01*
X64610660Y-23890316D01*
X64635229Y-23949831D01*
X64651180Y-23988544D01*
X64657090Y-24003000D01*
X64671052Y-24017685D01*
X64698060Y-24017642D01*
X64741587Y-24002099D01*
X64805110Y-23970284D01*
X64805612Y-23970013D01*
X64853440Y-23945323D01*
X64892103Y-23927338D01*
X64913905Y-23919614D01*
X64914867Y-23919543D01*
X64931279Y-23927378D01*
X64967513Y-23949165D01*
X65019526Y-23982328D01*
X65083275Y-24024291D01*
X65153940Y-24071943D01*
X65225884Y-24120191D01*
X65290726Y-24162151D01*
X65344265Y-24195227D01*
X65382303Y-24216821D01*
X65400467Y-24224343D01*
X65417192Y-24214457D01*
X65450820Y-24186826D01*
X65497990Y-24144495D01*
X65555342Y-24090505D01*
X65619516Y-24027899D01*
X65640503Y-24006983D01*
X65857501Y-23789623D01*
X65692332Y-23547220D01*
X65642136Y-23472781D01*
X65598081Y-23405972D01*
X65562638Y-23350665D01*
X65538281Y-23310729D01*
X65527478Y-23290036D01*
X65527162Y-23288563D01*
X65532857Y-23269058D01*
X65548174Y-23229822D01*
X65570463Y-23177430D01*
X65586107Y-23142355D01*
X65615359Y-23075201D01*
X65642906Y-23007358D01*
X65664263Y-22950034D01*
X65670065Y-22932572D01*
X65686548Y-22885938D01*
X65702660Y-22849905D01*
X65711510Y-22836287D01*
X65731040Y-22827952D01*
X65773666Y-22816137D01*
X65833855Y-22802181D01*
X65906078Y-22787422D01*
X65938400Y-22781355D01*
X66020478Y-22766273D01*
X66099205Y-22751669D01*
X66166891Y-22738980D01*
X66215840Y-22729642D01*
X66225057Y-22727839D01*
X66301257Y-22712799D01*
X66301257Y-22395492D01*
X66301086Y-22291154D01*
X66300384Y-22212213D01*
X66298866Y-22155038D01*
X66296251Y-22115999D01*
X66292254Y-22091465D01*
X66286591Y-22077805D01*
X66278980Y-22071389D01*
X66275857Y-22070199D01*
X66257022Y-22065980D01*
X66215412Y-22057562D01*
X66156370Y-22045961D01*
X66085243Y-22032195D01*
X66007375Y-22017280D01*
X65928113Y-22002232D01*
X65852802Y-21988069D01*
X65786787Y-21975806D01*
X65735413Y-21966461D01*
X65704025Y-21961050D01*
X65697041Y-21960114D01*
X65690715Y-21947596D01*
X65676710Y-21914246D01*
X65657645Y-21866377D01*
X65650366Y-21847629D01*
X65621004Y-21775195D01*
X65586429Y-21695170D01*
X65555463Y-21627728D01*
X65532677Y-21576159D01*
X65517518Y-21533785D01*
X65512458Y-21507834D01*
X65513264Y-21504356D01*
X65523959Y-21487936D01*
X65548380Y-21451417D01*
X65583905Y-21398687D01*
X65627913Y-21333635D01*
X65677783Y-21260151D01*
X65687644Y-21245645D01*
X65745508Y-21159704D01*
X65788044Y-21094261D01*
X65816946Y-21046304D01*
X65833910Y-21012820D01*
X65840633Y-20990795D01*
X65838810Y-20977217D01*
X65838764Y-20977131D01*
X65824414Y-20959297D01*
X65792677Y-20924817D01*
X65746990Y-20877268D01*
X65690796Y-20820222D01*
X65627532Y-20757255D01*
X65620398Y-20750227D01*
X65540670Y-20673020D01*
X65479143Y-20616330D01*
X65434579Y-20579110D01*
X65405743Y-20560315D01*
X65393042Y-20557889D01*
X65374506Y-20568471D01*
X65336039Y-20592916D01*
X65281614Y-20628612D01*
X65215202Y-20672947D01*
X65140775Y-20723311D01*
X65123399Y-20735160D01*
X64876703Y-20903626D01*
X64765294Y-20853062D01*
X64697543Y-20823595D01*
X64624817Y-20793959D01*
X64562297Y-20770330D01*
X64559543Y-20769358D01*
X64510640Y-20751457D01*
X64472943Y-20736320D01*
X64454575Y-20727210D01*
X64454544Y-20727184D01*
X64448715Y-20710717D01*
X64438808Y-20670219D01*
X64425805Y-20610242D01*
X64410691Y-20535340D01*
X64394448Y-20450064D01*
X64393119Y-20442875D01*
X64376825Y-20355014D01*
X64361867Y-20275260D01*
X64349209Y-20208681D01*
X64339814Y-20160347D01*
X64334646Y-20135325D01*
X64334556Y-20134943D01*
X64331411Y-20124299D01*
X64325296Y-20116262D01*
X64312547Y-20110467D01*
X64289500Y-20106547D01*
X64252491Y-20104135D01*
X64197856Y-20102865D01*
X64121933Y-20102371D01*
X64021056Y-20102286D01*
X64008000Y-20102286D01*
X63904090Y-20102348D01*
X63904090Y-20102348D01*
G37*
X63904090Y-20102348D02*
X63825546Y-20102778D01*
X63768702Y-20103942D01*
X63729895Y-20106207D01*
X63705462Y-20109940D01*
X63691738Y-20115506D01*
X63685060Y-20123273D01*
X63681764Y-20133605D01*
X63681444Y-20134943D01*
X63676438Y-20159079D01*
X63667171Y-20206701D01*
X63654608Y-20272741D01*
X63639713Y-20352128D01*
X63623449Y-20439796D01*
X63622881Y-20442875D01*
X63606590Y-20528789D01*
X63591348Y-20604696D01*
X63578139Y-20666045D01*
X63567946Y-20708282D01*
X63561752Y-20726855D01*
X63561457Y-20727184D01*
X63543212Y-20736253D01*
X63505595Y-20751367D01*
X63456729Y-20769262D01*
X63456457Y-20769358D01*
X63394907Y-20792493D01*
X63322343Y-20821965D01*
X63253943Y-20851597D01*
X63250706Y-20853062D01*
X63139298Y-20903626D01*
X62892601Y-20735160D01*
X62816923Y-20683803D01*
X62748369Y-20637889D01*
X62690912Y-20600030D01*
X62648524Y-20572837D01*
X62625175Y-20558921D01*
X62622958Y-20557889D01*
X62605990Y-20562484D01*
X62574299Y-20584655D01*
X62526648Y-20625447D01*
X62461802Y-20685905D01*
X62395603Y-20750227D01*
X62331786Y-20813612D01*
X62274671Y-20871451D01*
X62227695Y-20920175D01*
X62194297Y-20956210D01*
X62177915Y-20975984D01*
X62177306Y-20977002D01*
X62175495Y-20990572D01*
X62182317Y-21012733D01*
X62199460Y-21046478D01*
X62228607Y-21094800D01*
X62271445Y-21160692D01*
X62328552Y-21245517D01*
X62379234Y-21320177D01*
X62424539Y-21387140D01*
X62461850Y-21442516D01*
X62488548Y-21482420D01*
X62502015Y-21502962D01*
X62502863Y-21504356D01*
X62501219Y-21524038D01*
X62488755Y-21562293D01*
X62467952Y-21611889D01*
X62460538Y-21627728D01*
X62428186Y-21698290D01*
X62393672Y-21778353D01*
X62365635Y-21847629D01*
X62345432Y-21899045D01*
X62329385Y-21938119D01*
X62320112Y-21958541D01*
X62318959Y-21960114D01*
X62301904Y-21962721D01*
X62261702Y-21969863D01*
X62203698Y-21980523D01*
X62133237Y-21993685D01*
X62055665Y-22008333D01*
X61976328Y-22023449D01*
X61900569Y-22038018D01*
X61833736Y-22051022D01*
X61781172Y-22061445D01*
X61748224Y-22068270D01*
X61740143Y-22070199D01*
X61731795Y-22074962D01*
X61725494Y-22085718D01*
X61720955Y-22106098D01*
X61717896Y-22139734D01*
X61716033Y-22190255D01*
X61715082Y-22261292D01*
X61714760Y-22356476D01*
X61714743Y-22395492D01*
X61714743Y-22712799D01*
X61790943Y-22727839D01*
X61833337Y-22735995D01*
X61896600Y-22747899D01*
X61973038Y-22762116D01*
X62054957Y-22777210D01*
X62077600Y-22781355D01*
X62153194Y-22796053D01*
X62219047Y-22810505D01*
X62269634Y-22823375D01*
X62299426Y-22833322D01*
X62304388Y-22836287D01*
X62316574Y-22857283D01*
X62334047Y-22897967D01*
X62353423Y-22950322D01*
X62357266Y-22961600D01*
X62382661Y-23031523D01*
X62414183Y-23110418D01*
X62445031Y-23181266D01*
X62445183Y-23181595D01*
X62496553Y-23292733D01*
X62327601Y-23541253D01*
X62158648Y-23789772D01*
X62375571Y-24007058D01*
X62441181Y-24071726D01*
X62501021Y-24128733D01*
X62551733Y-24175033D01*
X62589954Y-24207584D01*
X62612325Y-24223343D01*
X62615534Y-24224343D01*
X62634374Y-24216469D01*
X62672820Y-24194578D01*
X62726670Y-24161267D01*
X62791724Y-24119131D01*
X62862060Y-24071943D01*
X62933445Y-24023810D01*
X62997092Y-23981928D01*
X63048959Y-23948871D01*
X63085005Y-23927218D01*
X63101133Y-23919543D01*
X63120811Y-23926037D01*
X63158125Y-23943150D01*
X63205379Y-23967326D01*
X63210388Y-23970013D01*
X63274023Y-24001927D01*
X63317659Y-24017579D01*
X63344798Y-24017745D01*
X63358943Y-24003204D01*
X63359025Y-24003000D01*
X63366095Y-23985779D01*
X63382958Y-23944899D01*
X63408305Y-23883525D01*
X63440829Y-23804819D01*
X63479222Y-23711947D01*
X63522178Y-23608072D01*
X63563778Y-23507502D01*
X63609496Y-23396516D01*
X63651474Y-23293703D01*
X63688452Y-23202215D01*
X63719173Y-23125201D01*
X63742378Y-23065815D01*
X63756810Y-23027209D01*
X63761257Y-23012800D01*
X63750104Y-22996272D01*
X63720931Y-22969930D01*
X63682029Y-22940887D01*
X63571243Y-22849039D01*
X63484649Y-22743759D01*
X63423284Y-22627266D01*
X63388185Y-22501776D01*
X63380392Y-22369507D01*
X63386057Y-22308457D01*
X63416922Y-22181795D01*
X63470080Y-22069941D01*
X63542233Y-21974001D01*
X63630083Y-21895076D01*
X63730335Y-21834270D01*
X63839690Y-21792687D01*
X63954853Y-21771428D01*
X64072525Y-21771599D01*
X64189410Y-21794301D01*
X64302211Y-21840638D01*
X64407631Y-21911713D01*
X64451632Y-21951911D01*
X64536021Y-22055129D01*
X64594778Y-22167925D01*
X64628296Y-22287010D01*
X64636965Y-22409095D01*
X64621177Y-22530893D01*
X64581322Y-22649116D01*
X64517793Y-22760475D01*
X64430979Y-22861684D01*
X64333971Y-22940887D01*
X64293563Y-22971162D01*
X64265018Y-22997219D01*
X64254743Y-23012825D01*
X64260123Y-23029843D01*
X64275425Y-23070500D01*
X64299388Y-23131642D01*
X64330756Y-23210119D01*
X64368268Y-23302780D01*
X64410667Y-23406472D01*
X64452337Y-23507526D01*
X64498310Y-23618607D01*
X64540893Y-23721541D01*
X64578779Y-23813165D01*
X64610660Y-23890316D01*
X64635229Y-23949831D01*
X64651180Y-23988544D01*
X64657090Y-24003000D01*
X64671052Y-24017685D01*
X64698060Y-24017642D01*
X64741587Y-24002099D01*
X64805110Y-23970284D01*
X64805612Y-23970013D01*
X64853440Y-23945323D01*
X64892103Y-23927338D01*
X64913905Y-23919614D01*
X64914867Y-23919543D01*
X64931279Y-23927378D01*
X64967513Y-23949165D01*
X65019526Y-23982328D01*
X65083275Y-24024291D01*
X65153940Y-24071943D01*
X65225884Y-24120191D01*
X65290726Y-24162151D01*
X65344265Y-24195227D01*
X65382303Y-24216821D01*
X65400467Y-24224343D01*
X65417192Y-24214457D01*
X65450820Y-24186826D01*
X65497990Y-24144495D01*
X65555342Y-24090505D01*
X65619516Y-24027899D01*
X65640503Y-24006983D01*
X65857501Y-23789623D01*
X65692332Y-23547220D01*
X65642136Y-23472781D01*
X65598081Y-23405972D01*
X65562638Y-23350665D01*
X65538281Y-23310729D01*
X65527478Y-23290036D01*
X65527162Y-23288563D01*
X65532857Y-23269058D01*
X65548174Y-23229822D01*
X65570463Y-23177430D01*
X65586107Y-23142355D01*
X65615359Y-23075201D01*
X65642906Y-23007358D01*
X65664263Y-22950034D01*
X65670065Y-22932572D01*
X65686548Y-22885938D01*
X65702660Y-22849905D01*
X65711510Y-22836287D01*
X65731040Y-22827952D01*
X65773666Y-22816137D01*
X65833855Y-22802181D01*
X65906078Y-22787422D01*
X65938400Y-22781355D01*
X66020478Y-22766273D01*
X66099205Y-22751669D01*
X66166891Y-22738980D01*
X66215840Y-22729642D01*
X66225057Y-22727839D01*
X66301257Y-22712799D01*
X66301257Y-22395492D01*
X66301086Y-22291154D01*
X66300384Y-22212213D01*
X66298866Y-22155038D01*
X66296251Y-22115999D01*
X66292254Y-22091465D01*
X66286591Y-22077805D01*
X66278980Y-22071389D01*
X66275857Y-22070199D01*
X66257022Y-22065980D01*
X66215412Y-22057562D01*
X66156370Y-22045961D01*
X66085243Y-22032195D01*
X66007375Y-22017280D01*
X65928113Y-22002232D01*
X65852802Y-21988069D01*
X65786787Y-21975806D01*
X65735413Y-21966461D01*
X65704025Y-21961050D01*
X65697041Y-21960114D01*
X65690715Y-21947596D01*
X65676710Y-21914246D01*
X65657645Y-21866377D01*
X65650366Y-21847629D01*
X65621004Y-21775195D01*
X65586429Y-21695170D01*
X65555463Y-21627728D01*
X65532677Y-21576159D01*
X65517518Y-21533785D01*
X65512458Y-21507834D01*
X65513264Y-21504356D01*
X65523959Y-21487936D01*
X65548380Y-21451417D01*
X65583905Y-21398687D01*
X65627913Y-21333635D01*
X65677783Y-21260151D01*
X65687644Y-21245645D01*
X65745508Y-21159704D01*
X65788044Y-21094261D01*
X65816946Y-21046304D01*
X65833910Y-21012820D01*
X65840633Y-20990795D01*
X65838810Y-20977217D01*
X65838764Y-20977131D01*
X65824414Y-20959297D01*
X65792677Y-20924817D01*
X65746990Y-20877268D01*
X65690796Y-20820222D01*
X65627532Y-20757255D01*
X65620398Y-20750227D01*
X65540670Y-20673020D01*
X65479143Y-20616330D01*
X65434579Y-20579110D01*
X65405743Y-20560315D01*
X65393042Y-20557889D01*
X65374506Y-20568471D01*
X65336039Y-20592916D01*
X65281614Y-20628612D01*
X65215202Y-20672947D01*
X65140775Y-20723311D01*
X65123399Y-20735160D01*
X64876703Y-20903626D01*
X64765294Y-20853062D01*
X64697543Y-20823595D01*
X64624817Y-20793959D01*
X64562297Y-20770330D01*
X64559543Y-20769358D01*
X64510640Y-20751457D01*
X64472943Y-20736320D01*
X64454575Y-20727210D01*
X64454544Y-20727184D01*
X64448715Y-20710717D01*
X64438808Y-20670219D01*
X64425805Y-20610242D01*
X64410691Y-20535340D01*
X64394448Y-20450064D01*
X64393119Y-20442875D01*
X64376825Y-20355014D01*
X64361867Y-20275260D01*
X64349209Y-20208681D01*
X64339814Y-20160347D01*
X64334646Y-20135325D01*
X64334556Y-20134943D01*
X64331411Y-20124299D01*
X64325296Y-20116262D01*
X64312547Y-20110467D01*
X64289500Y-20106547D01*
X64252491Y-20104135D01*
X64197856Y-20102865D01*
X64121933Y-20102371D01*
X64021056Y-20102286D01*
X64008000Y-20102286D01*
X63904090Y-20102348D01*
D11*
X40310000Y-47330000D02*
X40310000Y-44670000D01*
X63230000Y-47330000D02*
X40310000Y-47330000D01*
X63230000Y-44670000D02*
X40310000Y-44670000D01*
X63230000Y-47330000D02*
X63230000Y-44670000D01*
X64500000Y-47330000D02*
X65830000Y-47330000D01*
X65830000Y-47330000D02*
X65830000Y-46000000D01*
D12*
X66282380Y-45666666D02*
X66996666Y-45666666D01*
X67139523Y-45619047D01*
X67234761Y-45523809D01*
X67282380Y-45380952D01*
X67282380Y-45285714D01*
X67282380Y-46666666D02*
X67282380Y-46095238D01*
X67282380Y-46380952D02*
X66282380Y-46380952D01*
X66425238Y-46285714D01*
X66520476Y-46190476D01*
X66568095Y-46095238D01*
M02*
