G04 #@! TF.GenerationSoftware,KiCad,Pcbnew,(5.1.2)-1*
G04 #@! TF.CreationDate,2021-04-14T18:59:21-07:00*
G04 #@! TF.ProjectId,kicad-control-board,6b696361-642d-4636-9f6e-74726f6c2d62,rev?*
G04 #@! TF.SameCoordinates,Original*
G04 #@! TF.FileFunction,Copper,L1,Top*
G04 #@! TF.FilePolarity,Positive*
%FSLAX46Y46*%
G04 Gerber Fmt 4.6, Leading zero omitted, Abs format (unit mm)*
G04 Created by KiCad (PCBNEW (5.1.2)-1) date 2021-04-14 18:59:21*
%MOMM*%
%LPD*%
G04 APERTURE LIST*
%ADD10C,4.000000*%
%ADD11C,1.800000*%
%ADD12C,1.700000*%
%ADD13R,1.600000X1.600000*%
%ADD14O,1.600000X1.600000*%
%ADD15R,1.520000X1.520000*%
%ADD16C,1.520000*%
%ADD17C,1.600000*%
%ADD18R,1.700000X1.700000*%
%ADD19O,1.700000X1.700000*%
%ADD20C,1.524000*%
%ADD21O,1.400000X1.400000*%
%ADD22C,1.400000*%
%ADD23C,3.500000*%
%ADD24C,2.000000*%
%ADD25R,2.000000X2.000000*%
%ADD26O,1.800000X1.800000*%
%ADD27R,1.800000X1.800000*%
%ADD28C,0.600000*%
%ADD29C,0.250000*%
G04 APERTURE END LIST*
D10*
X108400000Y-20250000D03*
X99600000Y-20250000D03*
D11*
X106500000Y-27250000D03*
X104000000Y-27250000D03*
X101500000Y-27250000D03*
D10*
X108400000Y-51000000D03*
X99600000Y-51000000D03*
D11*
X106500000Y-58000000D03*
X104000000Y-58000000D03*
X101500000Y-58000000D03*
D10*
X108400000Y-81750000D03*
X99600000Y-81750000D03*
D11*
X106500000Y-88750000D03*
X104000000Y-88750000D03*
X101500000Y-88750000D03*
D10*
X108400000Y-112500000D03*
X99600000Y-112500000D03*
D11*
X106500000Y-119500000D03*
X104000000Y-119500000D03*
X101500000Y-119500000D03*
D12*
X74081630Y-60450000D03*
X67581630Y-60450000D03*
X74081630Y-55950000D03*
X67581630Y-55950000D03*
D13*
X97500000Y-26000000D03*
D14*
X79720000Y-33620000D03*
X94960000Y-26000000D03*
X82260000Y-33620000D03*
X92420000Y-26000000D03*
X84800000Y-33620000D03*
X89880000Y-26000000D03*
X87340000Y-33620000D03*
X87340000Y-26000000D03*
X89880000Y-33620000D03*
X84800000Y-26000000D03*
X92420000Y-33620000D03*
X82260000Y-26000000D03*
X94960000Y-33620000D03*
X79720000Y-26000000D03*
X97500000Y-33620000D03*
D15*
X32960000Y-16000000D03*
D16*
X38040000Y-16000000D03*
X35500000Y-16000000D03*
X41981120Y-94881700D03*
X44521120Y-94881700D03*
D15*
X39441120Y-94881700D03*
D16*
X32095440Y-94902020D03*
X34635440Y-94902020D03*
D15*
X29555440Y-94902020D03*
D16*
X35460000Y-30250000D03*
X38000000Y-30250000D03*
D15*
X32920000Y-30250000D03*
D16*
X35460000Y-22750000D03*
X38000000Y-22750000D03*
D15*
X32920000Y-22750000D03*
D17*
X93000000Y-92500000D03*
X93000000Y-95000000D03*
X55039260Y-81097120D03*
X52539260Y-81097120D03*
X97500000Y-37000000D03*
X100000000Y-37000000D03*
D18*
X98500000Y-103500000D03*
D19*
X95960000Y-103500000D03*
X93420000Y-103500000D03*
X90880000Y-103500000D03*
X88340000Y-103500000D03*
X85800000Y-103500000D03*
X83260000Y-103500000D03*
X80720000Y-103500000D03*
X78180000Y-103500000D03*
X75640000Y-103500000D03*
X73100000Y-103500000D03*
X70560000Y-103500000D03*
X68020000Y-103500000D03*
X65480000Y-103500000D03*
X62940000Y-103500000D03*
X60400000Y-103500000D03*
D14*
X93400000Y-89020000D03*
X75620000Y-81400000D03*
X90860000Y-89020000D03*
X78160000Y-81400000D03*
X88320000Y-89020000D03*
X80700000Y-81400000D03*
X85780000Y-89020000D03*
X83240000Y-81400000D03*
X83240000Y-89020000D03*
X85780000Y-81400000D03*
X80700000Y-89020000D03*
X88320000Y-81400000D03*
X78160000Y-89020000D03*
X90860000Y-81400000D03*
X75620000Y-89020000D03*
D13*
X93400000Y-81400000D03*
D12*
X53248978Y-60450000D03*
X46748978Y-60450000D03*
X53248978Y-55950000D03*
X46748978Y-55950000D03*
X32416326Y-75950000D03*
X25916326Y-75950000D03*
X32416326Y-71450000D03*
X25916326Y-71450000D03*
X22000000Y-75950000D03*
X15500000Y-75950000D03*
X22000000Y-71450000D03*
X15500000Y-71450000D03*
X63665304Y-60450000D03*
X57165304Y-60450000D03*
X63665304Y-55950000D03*
X57165304Y-55950000D03*
X22000000Y-60450000D03*
X15500000Y-60450000D03*
X22000000Y-55950000D03*
X15500000Y-55950000D03*
X32416326Y-60450000D03*
X25916326Y-60450000D03*
X32416326Y-55950000D03*
X25916326Y-55950000D03*
X42832652Y-60450000D03*
X36332652Y-60450000D03*
X42832652Y-55950000D03*
X36332652Y-55950000D03*
X94914284Y-60450000D03*
X88414284Y-60450000D03*
X94914284Y-55950000D03*
X88414284Y-55950000D03*
X84497956Y-60450000D03*
X77997956Y-60450000D03*
X84497956Y-55950000D03*
X77997956Y-55950000D03*
X42832652Y-75950000D03*
X36332652Y-75950000D03*
X42832652Y-71450000D03*
X36332652Y-71450000D03*
X53248978Y-75950000D03*
X46748978Y-75950000D03*
X53248978Y-71450000D03*
X46748978Y-71450000D03*
X94914284Y-75950000D03*
X88414284Y-75950000D03*
X94914284Y-71450000D03*
X88414284Y-71450000D03*
X84497956Y-75950000D03*
X77997956Y-75950000D03*
X84497956Y-71450000D03*
X77997956Y-71450000D03*
X74081630Y-75950000D03*
X67581630Y-75950000D03*
X74081630Y-71450000D03*
X67581630Y-71450000D03*
X63665304Y-75950000D03*
X57165304Y-75950000D03*
X63665304Y-71450000D03*
X57165304Y-71450000D03*
X43000000Y-42500000D03*
X36500000Y-42500000D03*
X43000000Y-38000000D03*
X36500000Y-38000000D03*
X64000000Y-42500000D03*
X57500000Y-42500000D03*
X64000000Y-38000000D03*
X57500000Y-38000000D03*
X85000000Y-42500000D03*
X78500000Y-42500000D03*
X85000000Y-38000000D03*
X78500000Y-38000000D03*
X22000000Y-42500000D03*
X15500000Y-42500000D03*
X22000000Y-38000000D03*
X15500000Y-38000000D03*
X74500000Y-95500000D03*
X81000000Y-95500000D03*
X74500000Y-100000000D03*
X81000000Y-100000000D03*
D20*
X52150000Y-30620000D03*
X54690000Y-30620000D03*
X57230000Y-30620000D03*
X59770000Y-30620000D03*
X62310000Y-30620000D03*
X64850000Y-30620000D03*
X64850000Y-15380000D03*
X62310000Y-15380000D03*
X59770000Y-15380000D03*
X57230000Y-15380000D03*
X54690000Y-15380000D03*
X52150000Y-15380000D03*
D14*
X16000000Y-81280000D03*
X49020000Y-88900000D03*
X18540000Y-81280000D03*
X46480000Y-88900000D03*
X21080000Y-81280000D03*
X43940000Y-88900000D03*
X23620000Y-81280000D03*
X41400000Y-88900000D03*
X26160000Y-81280000D03*
X38860000Y-88900000D03*
X28700000Y-81280000D03*
X36320000Y-88900000D03*
X31240000Y-81280000D03*
X33780000Y-88900000D03*
X33780000Y-81280000D03*
X31240000Y-88900000D03*
X36320000Y-81280000D03*
X28700000Y-88900000D03*
X38860000Y-81280000D03*
X26160000Y-88900000D03*
X41400000Y-81280000D03*
X23620000Y-88900000D03*
X43940000Y-81280000D03*
X21080000Y-88900000D03*
X46480000Y-81280000D03*
X18540000Y-88900000D03*
X49020000Y-81280000D03*
D13*
X16000000Y-88900000D03*
D21*
X39600000Y-105620000D03*
D22*
X39600000Y-98000000D03*
D17*
X59000000Y-81000000D03*
D13*
X61500000Y-81000000D03*
D23*
X30100000Y-20000000D03*
X18900000Y-20000000D03*
D24*
X27000000Y-27500000D03*
X24500000Y-27500000D03*
D25*
X22000000Y-27500000D03*
D22*
X54500000Y-34850000D03*
D21*
X54500000Y-42470000D03*
X50500000Y-42470000D03*
D22*
X50500000Y-34850000D03*
X46500000Y-34850000D03*
D21*
X46500000Y-42470000D03*
X82620000Y-93000000D03*
D22*
X75000000Y-93000000D03*
X34550000Y-105600000D03*
D21*
X34550000Y-97980000D03*
X32050000Y-105570000D03*
D22*
X32050000Y-97950000D03*
X42050000Y-97950000D03*
D21*
X42050000Y-105570000D03*
D22*
X94610000Y-116990000D03*
D21*
X86990000Y-116990000D03*
X87020000Y-119770000D03*
D22*
X94640000Y-119770000D03*
X44450000Y-105600000D03*
D21*
X44450000Y-97980000D03*
X97290000Y-57890000D03*
D22*
X97290000Y-65510000D03*
X97330000Y-67650000D03*
D21*
X97330000Y-75270000D03*
X70000000Y-81630000D03*
D22*
X70000000Y-89250000D03*
X72500000Y-89250000D03*
D21*
X72500000Y-81630000D03*
X68880000Y-34000000D03*
D22*
X76500000Y-34000000D03*
X79660000Y-23590000D03*
D21*
X79660000Y-15970000D03*
X89826664Y-15970000D03*
D22*
X89826664Y-23590000D03*
X87284998Y-23590000D03*
D21*
X87284998Y-15970000D03*
X84743332Y-15970000D03*
D22*
X84743332Y-23590000D03*
X82201666Y-23590000D03*
D21*
X82201666Y-15970000D03*
X29500000Y-105570000D03*
D22*
X29500000Y-97950000D03*
X94910000Y-23590000D03*
D21*
X94910000Y-15970000D03*
X92368330Y-15970000D03*
D22*
X92368330Y-23590000D03*
D17*
X97750000Y-95000000D03*
X97750000Y-92500000D03*
X104000000Y-94000000D03*
D13*
X106500000Y-94000000D03*
D17*
X55000000Y-85000000D03*
X52500000Y-85000000D03*
X104300000Y-33950000D03*
D13*
X106800000Y-33950000D03*
D17*
X100000000Y-41000000D03*
X97500000Y-41000000D03*
D25*
X17430000Y-50950000D03*
D24*
X19970000Y-50950000D03*
D25*
X27846326Y-50950000D03*
D24*
X30386326Y-50950000D03*
X40802652Y-50950000D03*
D25*
X38262652Y-50950000D03*
D24*
X51218978Y-50950000D03*
D25*
X48678978Y-50950000D03*
X90344284Y-50950000D03*
D24*
X92884284Y-50950000D03*
D25*
X79927956Y-50950000D03*
D24*
X82467956Y-50950000D03*
D25*
X69511630Y-50950000D03*
D24*
X72051630Y-50950000D03*
D25*
X59095304Y-50950000D03*
D24*
X61635304Y-50950000D03*
D25*
X17430000Y-66450000D03*
D24*
X19970000Y-66450000D03*
D25*
X27846326Y-66450000D03*
D24*
X30386326Y-66450000D03*
D25*
X38262652Y-66450000D03*
D24*
X40802652Y-66450000D03*
D25*
X48678978Y-66450000D03*
D24*
X51218978Y-66450000D03*
X92884284Y-66450000D03*
D25*
X90344284Y-66450000D03*
D24*
X82467956Y-66450000D03*
D25*
X79927956Y-66450000D03*
X69511630Y-66450000D03*
D24*
X72051630Y-66450000D03*
D25*
X59095304Y-66450000D03*
D24*
X61635304Y-66450000D03*
D25*
X87230000Y-113000000D03*
D24*
X89770000Y-113000000D03*
X86720000Y-97600000D03*
D25*
X84180000Y-97600000D03*
D26*
X94800000Y-109060000D03*
D27*
X87180000Y-109060000D03*
D18*
X64500000Y-46000000D03*
D19*
X61960000Y-46000000D03*
X59420000Y-46000000D03*
X56880000Y-46000000D03*
X54340000Y-46000000D03*
X51800000Y-46000000D03*
X49260000Y-46000000D03*
X46720000Y-46000000D03*
X44180000Y-46000000D03*
X41640000Y-46000000D03*
D11*
X78500000Y-108080000D03*
X78500000Y-119480000D03*
X78500000Y-116380000D03*
X66500000Y-108080000D03*
X66500000Y-119480000D03*
X66500000Y-116380000D03*
X18500000Y-116380000D03*
X18500000Y-119480000D03*
X18500000Y-108080000D03*
X54500000Y-116380000D03*
X54500000Y-119480000D03*
X54500000Y-108080000D03*
X42500000Y-116380000D03*
X42500000Y-119480000D03*
X42500000Y-108080000D03*
X30500000Y-108080000D03*
X30500000Y-119480000D03*
X30500000Y-116380000D03*
D24*
X18500000Y-96000000D03*
X23500000Y-96000000D03*
X23500000Y-101000000D03*
X18500000Y-101000000D03*
X50500000Y-101000000D03*
X55500000Y-101000000D03*
X55500000Y-96000000D03*
X50500000Y-96000000D03*
D10*
X65000000Y-85500000D03*
X15650000Y-31440000D03*
D28*
X97500000Y-33620000D02*
X97500000Y-37000000D01*
X97500000Y-41000000D02*
X97500000Y-37000000D01*
X80579999Y-35300001D02*
X79053997Y-35300001D01*
X82260000Y-33620000D02*
X80579999Y-35300001D01*
X79053997Y-35300001D02*
X75875999Y-35300001D01*
X75875999Y-35300001D02*
X75199999Y-34624001D01*
X96700001Y-32820001D02*
X97500000Y-33620000D01*
X95549988Y-31669988D02*
X96700001Y-32820001D01*
X75830012Y-31669988D02*
X95549988Y-31669988D01*
X75199999Y-32300001D02*
X75830012Y-31669988D01*
X97000000Y-41500000D02*
X97500000Y-41000000D01*
X75199999Y-34624001D02*
X75199999Y-34000000D01*
X75199999Y-34000000D02*
X75199999Y-32300001D01*
X75199996Y-36638274D02*
X75199999Y-36274681D01*
X75199999Y-36274681D02*
X75199999Y-34000000D01*
X65838270Y-46000000D02*
X75199996Y-36638274D01*
X64500000Y-46000000D02*
X65838270Y-46000000D01*
X96295000Y-85825000D02*
X98400000Y-85825000D01*
X93500000Y-88620000D02*
X96295000Y-85825000D01*
X105400000Y-32550000D02*
X106800000Y-33950000D01*
X98570000Y-32550000D02*
X105400000Y-32550000D01*
X97500000Y-33620000D02*
X98570000Y-32550000D01*
X55500000Y-85000000D02*
X55500000Y-81000000D01*
X55768631Y-82400001D02*
X61500000Y-82400000D01*
X55500000Y-82131370D02*
X55768631Y-82400001D01*
X55500000Y-81000000D02*
X55500000Y-82131370D01*
D29*
X43750001Y-104900001D02*
X44450000Y-105600000D01*
X43294999Y-104444999D02*
X43750001Y-104900001D01*
X35705001Y-104444999D02*
X43294999Y-104444999D01*
X34550000Y-105600000D02*
X35705001Y-104444999D01*
D28*
X61500000Y-82400000D02*
X61500000Y-81000000D01*
X61500000Y-88250000D02*
X61500000Y-84250000D01*
X61500000Y-84899642D02*
X61500000Y-84250000D01*
X61500000Y-84250000D02*
X61500000Y-82400000D01*
X63800001Y-90550001D02*
X63250000Y-90000000D01*
X76629999Y-90550001D02*
X63800001Y-90550001D01*
X78160000Y-89020000D02*
X76629999Y-90550001D01*
X63670001Y-90420001D02*
X63250000Y-90000000D01*
X63250000Y-90000000D02*
X61500000Y-88250000D01*
X36320000Y-87768630D02*
X36320000Y-88900000D01*
X40488631Y-83599999D02*
X36320000Y-87768630D01*
X55500000Y-85000000D02*
X54099999Y-83599999D01*
X94270000Y-89020000D02*
X97750000Y-92500000D01*
X93400000Y-89020000D02*
X94270000Y-89020000D01*
X93400000Y-92100000D02*
X93000000Y-92500000D01*
X93400000Y-89020000D02*
X93400000Y-92100000D01*
X93400000Y-89020000D02*
X91105012Y-86725012D01*
X79323618Y-86725012D02*
X78160000Y-87888630D01*
X78160000Y-87888630D02*
X78160000Y-89020000D01*
X91105012Y-86725012D02*
X79323618Y-86725012D01*
D29*
X42714999Y-82285077D02*
X44029921Y-83599999D01*
X42714999Y-80781997D02*
X42714999Y-82285077D01*
X40085001Y-80781997D02*
X40811999Y-80054999D01*
X40085001Y-81868001D02*
X40085001Y-80781997D01*
X39448001Y-82505001D02*
X40085001Y-81868001D01*
X41988001Y-80054999D02*
X42714999Y-80781997D01*
X30741997Y-82505001D02*
X39448001Y-82505001D01*
X24845001Y-89488001D02*
X24845001Y-88401997D01*
X22074999Y-92258003D02*
X24845001Y-89488001D01*
X22815999Y-97425001D02*
X22074999Y-96684001D01*
X22074999Y-96684001D02*
X22074999Y-92258003D01*
X27364950Y-97425001D02*
X22815999Y-97425001D01*
X34550000Y-104610051D02*
X27364950Y-97425001D01*
X34550000Y-105600000D02*
X34550000Y-104610051D01*
X24845001Y-88401997D02*
X30741997Y-82505001D01*
D28*
X44029921Y-83599999D02*
X40488631Y-83599999D01*
D29*
X40811999Y-80054999D02*
X41988001Y-80054999D01*
D28*
X54099999Y-83599999D02*
X44029921Y-83599999D01*
X65725010Y-42079008D02*
X65725010Y-43324990D01*
X65725010Y-43324990D02*
X64500000Y-44550000D01*
X64500000Y-44550000D02*
X64500000Y-46000000D01*
X59796003Y-36150001D02*
X65725010Y-42079008D01*
X38820001Y-36150001D02*
X32920000Y-30250000D01*
X41307299Y-36150001D02*
X59796003Y-36150001D01*
X41307299Y-36150001D02*
X38820001Y-36150001D01*
X32920000Y-29175198D02*
X32920000Y-22750000D01*
X32920000Y-30250000D02*
X32920000Y-29175198D01*
X32960000Y-22710000D02*
X32920000Y-22750000D01*
X32960000Y-16000000D02*
X32960000Y-22710000D01*
X103575000Y-85825000D02*
X102995000Y-85825000D01*
X106500000Y-88750000D02*
X103575000Y-85825000D01*
X98400000Y-85825000D02*
X102995000Y-85825000D01*
D29*
X17430000Y-52250000D02*
X17430000Y-66500000D01*
X17430000Y-51000000D02*
X17430000Y-52250000D01*
X90344284Y-50950000D02*
X90344284Y-66450000D01*
X90344284Y-76335716D02*
X90344284Y-66450000D01*
X85880000Y-80800000D02*
X90344284Y-76335716D01*
X27858571Y-65250000D02*
X27858571Y-51000000D01*
X27858571Y-66500000D02*
X27858571Y-65250000D01*
X79927956Y-52200000D02*
X79927956Y-66450000D01*
X79927956Y-50950000D02*
X79927956Y-52200000D01*
X79927956Y-67700000D02*
X79927956Y-66450000D01*
X79927956Y-76256586D02*
X79927956Y-67700000D01*
X83340000Y-79668630D02*
X79927956Y-76256586D01*
X83340000Y-80800000D02*
X83340000Y-79668630D01*
X38287142Y-60309002D02*
X38287142Y-66500000D01*
X38287142Y-51000000D02*
X38287142Y-60309002D01*
X69511630Y-52200000D02*
X69511630Y-66450000D01*
X69511630Y-50950000D02*
X69511630Y-52200000D01*
X69511630Y-69511630D02*
X69511630Y-66450000D01*
X80800000Y-80800000D02*
X69511630Y-69511630D01*
X48715713Y-51000000D02*
X48715713Y-66500000D01*
X59095304Y-52200000D02*
X59095304Y-66450000D01*
X59095304Y-50950000D02*
X59095304Y-52200000D01*
X77134999Y-79674999D02*
X73474999Y-79674999D01*
X78260000Y-80800000D02*
X77134999Y-79674999D01*
X59095304Y-65200000D02*
X59095304Y-66450000D01*
X59170305Y-65124999D02*
X59095304Y-65200000D01*
X65290316Y-71490316D02*
X65290316Y-68144010D01*
X73474999Y-79674999D02*
X65290316Y-71490316D01*
X65290316Y-68144010D02*
X62271305Y-65124999D01*
X62271305Y-65124999D02*
X59170305Y-65124999D01*
X92884284Y-50950000D02*
X98325001Y-56390717D01*
X98325001Y-66654999D02*
X97330000Y-67650000D01*
X98325001Y-56390717D02*
X98325001Y-66654999D01*
X68524988Y-87774988D02*
X68524988Y-81024988D01*
X70000000Y-89250000D02*
X68524988Y-87774988D01*
X52218977Y-67449999D02*
X51218978Y-66450000D01*
X68524988Y-81024988D02*
X64840305Y-77340305D01*
X64840305Y-77340305D02*
X64840305Y-75385999D01*
X64840305Y-75385999D02*
X62079307Y-72625001D01*
X62079307Y-72625001D02*
X56601303Y-72625001D01*
X56601303Y-72625001D02*
X52218977Y-68242675D01*
X52218977Y-68242675D02*
X52218977Y-67449999D01*
X64840305Y-76514001D02*
X64840305Y-75385999D01*
X68974999Y-80838588D02*
X66406629Y-78270218D01*
X64840305Y-71676716D02*
X64840305Y-69655001D01*
X62635303Y-67449999D02*
X61635304Y-66450000D01*
X66406629Y-73243040D02*
X64840305Y-71676716D01*
X64840305Y-69655001D02*
X62635303Y-67449999D01*
X68974999Y-85724999D02*
X68974999Y-80838588D01*
X72500000Y-89250000D02*
X68974999Y-85724999D01*
X66406629Y-78270218D02*
X66406629Y-73243040D01*
X87230000Y-114250000D02*
X87230000Y-113000000D01*
X85964999Y-115515001D02*
X87230000Y-114250000D01*
X85964999Y-117725050D02*
X85964999Y-115515001D01*
X87020000Y-118780051D02*
X85964999Y-117725050D01*
X87020000Y-119770000D02*
X87020000Y-118780051D01*
X87180000Y-104660000D02*
X87180000Y-109060000D01*
X88340000Y-103500000D02*
X87180000Y-104660000D01*
X89770000Y-114210000D02*
X89770000Y-113000000D01*
X86990000Y-116990000D02*
X89770000Y-114210000D01*
X89770000Y-111585787D02*
X89770000Y-113000000D01*
X89770000Y-110500000D02*
X89770000Y-111585787D01*
X88330000Y-109060000D02*
X89770000Y-110500000D01*
X87180000Y-109060000D02*
X88330000Y-109060000D01*
X34579999Y-89699999D02*
X33780000Y-88900000D01*
X36908001Y-90125001D02*
X35005001Y-90125001D01*
X37734999Y-88359999D02*
X37734999Y-89298003D01*
X39220021Y-86874977D02*
X37734999Y-88359999D01*
X54774977Y-86874977D02*
X39220021Y-86874977D01*
X35005001Y-90125001D02*
X34579999Y-89699999D01*
X37734999Y-89298003D02*
X36908001Y-90125001D01*
X60750000Y-92850000D02*
X54774977Y-86874977D01*
X75050000Y-92850000D02*
X60750000Y-92850000D01*
X70949999Y-103150001D02*
X70100000Y-104000000D01*
X71500000Y-102600000D02*
X70949999Y-103150001D01*
X71649989Y-102450011D02*
X71500000Y-102600000D01*
X77500000Y-97000000D02*
X77500000Y-97239002D01*
X79935012Y-92701401D02*
X77500000Y-95136412D01*
X79935012Y-89484988D02*
X79935012Y-92701401D01*
X80800000Y-88620000D02*
X79935012Y-89484988D01*
X77500000Y-95136412D02*
X77500000Y-97000000D01*
X68924999Y-104675001D02*
X70100000Y-103500000D01*
X43940000Y-88900000D02*
X45065001Y-90025001D01*
X45065001Y-90025001D02*
X52110672Y-90025001D01*
X52110672Y-90025001D02*
X64115001Y-102029331D01*
X64115001Y-102029331D02*
X64115001Y-103965003D01*
X64115001Y-103965003D02*
X64824999Y-104675001D01*
X64824999Y-104675001D02*
X68924999Y-104675001D01*
X77500000Y-98268000D02*
X77500000Y-97000000D01*
X77500000Y-98500000D02*
X77500000Y-98268000D01*
X76682988Y-101625012D02*
X77500000Y-100808000D01*
X71500000Y-102600000D02*
X71775001Y-102324999D01*
X71775001Y-102324999D02*
X74439589Y-102324999D01*
X74439589Y-102324999D02*
X75139576Y-101625012D01*
X75139576Y-101625012D02*
X76682988Y-101625012D01*
X77500000Y-100808000D02*
X77500000Y-98268000D01*
X62480000Y-101030741D02*
X62480000Y-102297919D01*
X62480000Y-102297919D02*
X62480000Y-103500000D01*
X43750000Y-91250000D02*
X52699259Y-91250000D01*
X41400000Y-88900000D02*
X43750000Y-91250000D01*
X52699259Y-91250000D02*
X62480000Y-101030741D01*
X47279999Y-88100001D02*
X46480000Y-88900000D01*
X47605001Y-87774999D02*
X47279999Y-88100001D01*
X51834999Y-87774999D02*
X47605001Y-87774999D01*
X79485001Y-88269997D02*
X79485001Y-88450000D01*
X79485001Y-88450000D02*
X79485001Y-88700000D01*
X79485001Y-88069997D02*
X80000000Y-87554998D01*
X79485001Y-89100000D02*
X79485001Y-88069997D01*
X80000000Y-87554998D02*
X79674999Y-87879999D01*
X79485001Y-88700000D02*
X79485001Y-89100000D01*
X79485001Y-92515001D02*
X79484999Y-92515001D01*
X79485001Y-89100000D02*
X79485001Y-92515001D01*
X77000000Y-95000000D02*
X77000000Y-97739002D01*
X79484999Y-92515001D02*
X77000000Y-95000000D01*
X67560000Y-103500000D02*
X51834999Y-87774999D01*
X87450023Y-87450023D02*
X80104975Y-87450023D01*
X80104975Y-87450023D02*
X80000000Y-87554998D01*
X88420000Y-88420000D02*
X87450023Y-87450023D01*
X68869999Y-102650001D02*
X68020000Y-103500000D01*
X75064001Y-101175001D02*
X70344999Y-101175001D01*
X77000000Y-97739002D02*
X77000000Y-99239002D01*
X70344999Y-101175001D02*
X68869999Y-102650001D01*
X77000000Y-99239002D02*
X75064001Y-101175001D01*
X50151370Y-88900000D02*
X49020000Y-88900000D01*
X51622081Y-88900000D02*
X50151370Y-88900000D01*
X65020000Y-103500000D02*
X65020000Y-102297919D01*
X65020000Y-102297919D02*
X51622081Y-88900000D01*
X80385023Y-91574977D02*
X82540001Y-89419999D01*
X82540001Y-89419999D02*
X83340000Y-88620000D01*
X80385023Y-92887801D02*
X80385023Y-91574977D01*
X78324999Y-94947823D02*
X80385023Y-92887801D01*
X78324999Y-98315001D02*
X78324999Y-97882999D01*
X78324999Y-97882999D02*
X78324999Y-94947823D01*
X78324999Y-100999001D02*
X78324999Y-97882999D01*
X75325975Y-102075023D02*
X77248977Y-102075023D01*
X73900998Y-103500000D02*
X75325975Y-102075023D01*
X73100000Y-103500000D02*
X73900998Y-103500000D01*
X77248977Y-102075023D02*
X78324999Y-100999001D01*
X54500000Y-43620000D02*
X54500000Y-42470000D01*
X56880000Y-46000000D02*
X54500000Y-43620000D01*
X50810000Y-42470000D02*
X50500000Y-42470000D01*
X54340000Y-46000000D02*
X50810000Y-42470000D01*
X48270000Y-42470000D02*
X46500000Y-42470000D01*
X51800000Y-46000000D02*
X48270000Y-42470000D01*
X49049991Y-102579991D02*
X44450000Y-97980000D01*
X49049991Y-105186401D02*
X49049991Y-102579991D01*
X73390401Y-105625012D02*
X49488601Y-105625012D01*
X73840411Y-105175001D02*
X73390401Y-105625012D01*
X76544999Y-105175001D02*
X73840411Y-105175001D01*
X49488601Y-105625012D02*
X49049991Y-105186401D01*
X77720000Y-104000000D02*
X76544999Y-105175001D01*
X44450000Y-94952820D02*
X44521120Y-94881700D01*
X44450000Y-97980000D02*
X44450000Y-94952820D01*
X73576801Y-106075023D02*
X45777769Y-106075023D01*
X78634988Y-105625012D02*
X74026812Y-105625012D01*
X80260000Y-104000000D02*
X78634988Y-105625012D01*
X74026812Y-105625012D02*
X73576801Y-106075023D01*
X45777769Y-106075023D02*
X43772792Y-108080000D01*
X43772792Y-108080000D02*
X42500000Y-108080000D01*
X82800000Y-104000000D02*
X80724977Y-106075023D01*
X80724977Y-106075023D02*
X74213211Y-106075023D01*
X74213211Y-106075023D02*
X73763201Y-106525034D01*
X73763201Y-106525034D02*
X56054966Y-106525034D01*
X56054966Y-106525034D02*
X55399999Y-107180001D01*
X55399999Y-107180001D02*
X54500000Y-108080000D01*
X35215001Y-93774999D02*
X34040000Y-94950000D01*
X49675001Y-102136003D02*
X47538998Y-100000000D01*
X73204001Y-105175001D02*
X49675001Y-105175001D01*
X74379002Y-104000000D02*
X73204001Y-105175001D01*
X75180000Y-104000000D02*
X74379002Y-104000000D01*
X49675001Y-105175001D02*
X49675001Y-102136003D01*
X34550000Y-94987460D02*
X34635440Y-94902020D01*
X34550000Y-97980000D02*
X34550000Y-94987460D01*
X45020221Y-93774999D02*
X41693361Y-93774999D01*
X46102349Y-98563351D02*
X46102349Y-94857127D01*
X46102349Y-98563351D02*
X47538998Y-100000000D01*
X46102349Y-94857127D02*
X45020221Y-93774999D01*
X41693361Y-93774999D02*
X35215001Y-93774999D01*
X75917822Y-106854999D02*
X74692821Y-108080000D01*
X74692821Y-108080000D02*
X67772792Y-108080000D01*
X82485001Y-106854999D02*
X75917822Y-106854999D01*
X85340000Y-104000000D02*
X82485001Y-106854999D01*
X67772792Y-108080000D02*
X66500000Y-108080000D01*
X93210000Y-106290000D02*
X95830000Y-106290000D01*
X93210000Y-106290000D02*
X90420000Y-103500000D01*
X97180000Y-107640000D02*
X97210000Y-107640000D01*
X95830000Y-106290000D02*
X97180000Y-107640000D01*
X97210000Y-107640000D02*
X97210000Y-113551002D01*
X102480501Y-117980501D02*
X101639499Y-117980501D01*
X104000000Y-119500000D02*
X102480501Y-117980501D01*
X97210000Y-113551002D02*
X101639499Y-117980501D01*
X104350001Y-89483331D02*
X105000000Y-88833332D01*
X94135001Y-102324999D02*
X94375001Y-102324999D01*
X92960000Y-103500000D02*
X94135001Y-102324999D01*
X102005000Y-90745000D02*
X104000000Y-88750000D01*
X102005000Y-94695000D02*
X102005000Y-90745000D01*
X94375001Y-102324999D02*
X102005000Y-94695000D01*
X96675001Y-102324999D02*
X95500000Y-103500000D01*
X105274999Y-94875001D02*
X97825001Y-102324999D01*
X105274999Y-92936003D02*
X105274999Y-94875001D01*
X108575001Y-89636001D02*
X105274999Y-92936003D01*
X108575001Y-86185001D02*
X108575001Y-89636001D01*
X104000000Y-58000000D02*
X109735620Y-63735620D01*
X109735620Y-63735620D02*
X109735620Y-76275620D01*
X109735620Y-76275620D02*
X109654380Y-76275620D01*
X97825001Y-102324999D02*
X96675001Y-102324999D01*
X109654380Y-76275620D02*
X105624988Y-80305012D01*
X105624988Y-80305012D02*
X105624988Y-83234988D01*
X105624988Y-83234988D02*
X108575001Y-86185001D01*
X109695420Y-32945420D02*
X104000000Y-27250000D01*
X104899999Y-28190839D02*
X110304580Y-33595420D01*
X104899999Y-28149999D02*
X104899999Y-28190839D01*
X104000000Y-27250000D02*
X104899999Y-28149999D01*
X106074999Y-52198559D02*
X110218220Y-56341780D01*
X106074999Y-49574161D02*
X106074999Y-52198559D01*
X110304580Y-45344580D02*
X106074999Y-49574161D01*
X110304580Y-33595420D02*
X110304580Y-45344580D01*
X106074999Y-80633999D02*
X106074999Y-82866001D01*
X109025012Y-93839990D02*
X109025012Y-85816014D01*
X99365002Y-103500000D02*
X109025012Y-93839990D01*
X107669499Y-84460501D02*
X107928998Y-84720000D01*
X109025012Y-85816014D02*
X107669499Y-84460501D01*
X98040000Y-103500000D02*
X99365002Y-103500000D01*
X106074999Y-82866001D02*
X107669499Y-84460501D01*
X110218220Y-76490778D02*
X107059499Y-79649499D01*
X110218220Y-75291780D02*
X110218220Y-76490778D01*
X107059499Y-79649499D02*
X106074999Y-80633999D01*
X107283999Y-79424999D02*
X107059499Y-79649499D01*
X110218220Y-56341780D02*
X110218220Y-75291780D01*
X49500000Y-27970000D02*
X51388001Y-29858001D01*
X52371249Y-13549989D02*
X49500000Y-16421238D01*
X49500000Y-16421238D02*
X49500000Y-27970000D01*
X66500000Y-13549989D02*
X52371249Y-13549989D01*
X51388001Y-29858001D02*
X52150000Y-30620000D01*
X85854936Y-13549989D02*
X85019989Y-13549989D01*
X87284998Y-14980051D02*
X85854936Y-13549989D01*
X87284998Y-15970000D02*
X87284998Y-14980051D01*
X85669989Y-13549989D02*
X85019989Y-13549989D01*
X85019989Y-13549989D02*
X66500000Y-13549989D01*
X51400022Y-13099978D02*
X48500000Y-16000000D01*
X53928001Y-31381999D02*
X54690000Y-30620000D01*
X48500000Y-28578762D02*
X51628239Y-31707001D01*
X51628239Y-31707001D02*
X53602999Y-31707001D01*
X48500000Y-16000000D02*
X48500000Y-28578762D01*
X53602999Y-31707001D02*
X53928001Y-31381999D01*
X87760022Y-13903358D02*
X89826664Y-15970000D01*
X86956642Y-13099978D02*
X85249978Y-13099978D01*
X89826664Y-15970000D02*
X86956642Y-13099978D01*
X85249978Y-13099978D02*
X51400022Y-13099978D01*
X71470000Y-16380000D02*
X57230000Y-30620000D01*
X79500000Y-16380000D02*
X71470000Y-16380000D01*
X93068329Y-15270001D02*
X92368330Y-15970000D01*
X95935001Y-16462001D02*
X95935001Y-15477999D01*
X93393331Y-14944999D02*
X93068329Y-15270001D01*
X92397002Y-20000000D02*
X95935001Y-16462001D01*
X77078762Y-20000000D02*
X92397002Y-20000000D01*
X65371761Y-31707001D02*
X77078762Y-20000000D01*
X95402001Y-14944999D02*
X93393331Y-14944999D01*
X60857001Y-31707001D02*
X65371761Y-31707001D01*
X95935001Y-15477999D02*
X95402001Y-14944999D01*
X59770000Y-30620000D02*
X60857001Y-31707001D01*
X63397001Y-29532999D02*
X63071999Y-29858001D01*
X63071999Y-29858001D02*
X62310000Y-30620000D01*
X66909353Y-29532999D02*
X63397001Y-29532999D01*
X78621675Y-19549991D02*
X82201666Y-15970000D01*
X76892361Y-19549991D02*
X78621675Y-19549991D01*
X76711175Y-19731175D02*
X76892361Y-19549991D01*
X76711175Y-19731175D02*
X66909353Y-29532999D01*
X66230000Y-14000000D02*
X84887002Y-14000000D01*
X64850000Y-15380000D02*
X66230000Y-14000000D01*
X94210001Y-16669999D02*
X94910000Y-15970000D01*
X93884999Y-16995001D02*
X94210001Y-16669999D01*
X86792997Y-16995001D02*
X93884999Y-16995001D01*
X85960000Y-16162004D02*
X86792997Y-16995001D01*
X85960000Y-15072998D02*
X85960000Y-16162004D01*
X84887002Y-14000000D02*
X85960000Y-15072998D01*
X58317001Y-16467001D02*
X57230000Y-15380000D01*
X65371761Y-16467001D02*
X58317001Y-16467001D01*
X66893763Y-14944999D02*
X65371761Y-16467001D01*
X83718331Y-14944999D02*
X66893763Y-14944999D01*
X84743332Y-15970000D02*
X83718331Y-14944999D01*
X55451999Y-16141999D02*
X54690000Y-15380000D01*
X56142999Y-16832999D02*
X55451999Y-16141999D01*
X56142999Y-31141761D02*
X56142999Y-16832999D01*
X59001238Y-34000000D02*
X56142999Y-31141761D01*
X68880000Y-34000000D02*
X59001238Y-34000000D01*
X78500000Y-109352792D02*
X78500000Y-108080000D01*
X78500000Y-112767002D02*
X78500000Y-109352792D01*
X86527999Y-120795001D02*
X78500000Y-112767002D01*
X89815050Y-120795001D02*
X86527999Y-120795001D01*
X93620051Y-116990000D02*
X89815050Y-120795001D01*
X94610000Y-116990000D02*
X93620051Y-116990000D01*
X26990000Y-108080000D02*
X18500000Y-108080000D01*
X29500000Y-105570000D02*
X26990000Y-108080000D01*
X37140000Y-108080000D02*
X30500000Y-108080000D01*
X39600000Y-105620000D02*
X37140000Y-108080000D01*
X35500000Y-17074802D02*
X35500000Y-16000000D01*
X53275198Y-34850000D02*
X35500000Y-17074802D01*
X54500000Y-34850000D02*
X53275198Y-34850000D01*
X36219999Y-23509999D02*
X35460000Y-22750000D01*
X46534999Y-33824999D02*
X36219999Y-23509999D01*
X49474999Y-33824999D02*
X46534999Y-33824999D01*
X50500000Y-34850000D02*
X49474999Y-33824999D01*
X36219999Y-31009999D02*
X35460000Y-30250000D01*
X39360001Y-34150001D02*
X36219999Y-31009999D01*
X45800001Y-34150001D02*
X39360001Y-34150001D01*
X46500000Y-34850000D02*
X45800001Y-34150001D01*
X32070000Y-97970000D02*
X32150000Y-98050000D01*
X32070000Y-94950000D02*
X32070000Y-97970000D01*
X31160051Y-98050000D02*
X29600000Y-98050000D01*
X32150000Y-98050000D02*
X31160051Y-98050000D01*
X42050000Y-95180000D02*
X41720000Y-94850000D01*
X42050000Y-97950000D02*
X42050000Y-95180000D01*
X42050000Y-97950000D02*
X39050000Y-97950000D01*
X39100000Y-98000000D02*
X39600000Y-98000000D01*
X39050000Y-97950000D02*
X39100000Y-98000000D01*
X94450000Y-81400000D02*
X93400000Y-81400000D01*
X97330000Y-78520000D02*
X94450000Y-81400000D01*
X97330000Y-75270000D02*
X97330000Y-78520000D01*
X71345012Y-82975012D02*
X70699999Y-82329999D01*
X89284988Y-82975012D02*
X71345012Y-82975012D01*
X90860000Y-81400000D02*
X89284988Y-82975012D01*
X70699999Y-82329999D02*
X70000000Y-81630000D01*
X73199999Y-82329999D02*
X72500000Y-81630000D01*
X73395001Y-82525001D02*
X73199999Y-82329999D01*
X87194999Y-82525001D02*
X73395001Y-82525001D01*
X88320000Y-81400000D02*
X87194999Y-82525001D01*
X77199999Y-33300001D02*
X76500000Y-34000000D01*
X78105001Y-32394999D02*
X77199999Y-33300001D01*
X93734999Y-32394999D02*
X78105001Y-32394999D01*
X94960000Y-33620000D02*
X93734999Y-32394999D01*
X97320000Y-26000000D02*
X97500000Y-26000000D01*
X94910000Y-23590000D02*
X97320000Y-26000000D01*
X94500000Y-25540000D02*
X94960000Y-26000000D01*
X94778330Y-26000000D02*
X94960000Y-26000000D01*
X92368330Y-23590000D02*
X94778330Y-26000000D01*
X92236664Y-26000000D02*
X92420000Y-26000000D01*
X89826664Y-23590000D02*
X92236664Y-26000000D01*
X89880000Y-25380000D02*
X89880000Y-26000000D01*
X89694998Y-26000000D02*
X89880000Y-26000000D01*
X87284998Y-23590000D02*
X89694998Y-26000000D01*
X87340000Y-25840000D02*
X87340000Y-26000000D01*
X87153332Y-26000000D02*
X87340000Y-26000000D01*
X84743332Y-23590000D02*
X87153332Y-26000000D01*
X84500000Y-26000000D02*
X84800000Y-26000000D01*
X84611666Y-26000000D02*
X84800000Y-26000000D01*
X82201666Y-23590000D02*
X84611666Y-26000000D01*
X80260000Y-24000000D02*
X79500000Y-24000000D01*
X79850000Y-23590000D02*
X79660000Y-23590000D01*
X82260000Y-26000000D02*
X79850000Y-23590000D01*
X22000000Y-66381002D02*
X22000000Y-61652081D01*
X22000000Y-61652081D02*
X22000000Y-60450000D01*
X17125012Y-71255990D02*
X22000000Y-66381002D01*
X17125012Y-80154988D02*
X17125012Y-71255990D01*
X16000000Y-81280000D02*
X17125012Y-80154988D01*
X87564285Y-56799999D02*
X88414284Y-55950000D01*
X87239283Y-57125001D02*
X87564285Y-56799999D01*
X87239283Y-69072918D02*
X87239283Y-57125001D01*
X88414284Y-70247919D02*
X87239283Y-69072918D01*
X88414284Y-71450000D02*
X88414284Y-70247919D01*
X15500000Y-65836411D02*
X15500000Y-70247919D01*
X15500000Y-70247919D02*
X15500000Y-71450000D01*
X16675001Y-64661410D02*
X15500000Y-65836411D01*
X15500000Y-55950000D02*
X16675001Y-57125001D01*
X16675001Y-57125001D02*
X16675001Y-64661410D01*
X16349999Y-72299999D02*
X15500000Y-71450000D01*
X16675001Y-76514001D02*
X16675001Y-72625001D01*
X14874999Y-81820001D02*
X14874999Y-78314003D01*
X15459999Y-82405001D02*
X14874999Y-81820001D01*
X25034999Y-82405001D02*
X15459999Y-82405001D01*
X14874999Y-78314003D02*
X16675001Y-76514001D01*
X26160000Y-81280000D02*
X25034999Y-82405001D01*
X16675001Y-72625001D02*
X16349999Y-72299999D01*
X35482653Y-70600001D02*
X36332652Y-71450000D01*
X35157651Y-70274999D02*
X35482653Y-70600001D01*
X35157651Y-57125001D02*
X35157651Y-70274999D01*
X36332652Y-55950000D02*
X35157651Y-57125001D01*
X66731631Y-56799999D02*
X67581630Y-55950000D01*
X66406629Y-57125001D02*
X66731631Y-56799999D01*
X66406629Y-69072918D02*
X66406629Y-57125001D01*
X67581630Y-70247919D02*
X66406629Y-69072918D01*
X67581630Y-71450000D02*
X67581630Y-70247919D01*
X32039999Y-80480001D02*
X31240000Y-81280000D01*
X35157651Y-77362349D02*
X32039999Y-80480001D01*
X35157651Y-72625001D02*
X35157651Y-77362349D01*
X36332652Y-71450000D02*
X35157651Y-72625001D01*
X45898979Y-70600001D02*
X46748978Y-71450000D01*
X45573977Y-70274999D02*
X45898979Y-70600001D01*
X45573977Y-57125001D02*
X45573977Y-70274999D01*
X46748978Y-55950000D02*
X45573977Y-57125001D01*
X56315305Y-70600001D02*
X57165304Y-71450000D01*
X55990303Y-70274999D02*
X56315305Y-70600001D01*
X55990303Y-57125001D02*
X55990303Y-70274999D01*
X57165304Y-55950000D02*
X55990303Y-57125001D01*
X45898979Y-72299999D02*
X46748978Y-71450000D01*
X43423979Y-74774999D02*
X45898979Y-72299999D01*
X40285001Y-74774999D02*
X43423979Y-74774999D01*
X33780000Y-81280000D02*
X40285001Y-74774999D01*
X24000000Y-72210998D02*
X18540000Y-77670998D01*
X63665304Y-60450000D02*
X64840305Y-59274999D01*
X64840305Y-59274999D02*
X64840305Y-52193999D01*
X64840305Y-52193999D02*
X62271305Y-49624999D01*
X62271305Y-49624999D02*
X26586325Y-49624999D01*
X26586325Y-49624999D02*
X24000000Y-52211324D01*
X18540000Y-77670998D02*
X18540000Y-81280000D01*
X24000000Y-52211324D02*
X24000000Y-72210998D01*
X77147957Y-70600001D02*
X77997956Y-71450000D01*
X76822955Y-70274999D02*
X77147957Y-70600001D01*
X76822955Y-57125001D02*
X76822955Y-70274999D01*
X77997956Y-55950000D02*
X76822955Y-57125001D01*
X25066327Y-70600001D02*
X25916326Y-71450000D01*
X24741325Y-70274999D02*
X25066327Y-70600001D01*
X24741325Y-58327082D02*
X24741325Y-70274999D01*
X25916326Y-57152081D02*
X24741325Y-58327082D01*
X25916326Y-55950000D02*
X25916326Y-57152081D01*
X28700000Y-80148630D02*
X28700000Y-81280000D01*
X28700000Y-75435755D02*
X28700000Y-80148630D01*
X25916326Y-72652081D02*
X28700000Y-75435755D01*
X25916326Y-71450000D02*
X25916326Y-72652081D01*
X21080000Y-76870000D02*
X22000000Y-75950000D01*
X21080000Y-81280000D02*
X21080000Y-76870000D01*
X20797919Y-42500000D02*
X12949995Y-50347924D01*
X22000000Y-42500000D02*
X20797919Y-42500000D01*
X12949995Y-86899995D02*
X12949995Y-82000000D01*
X14950000Y-88900000D02*
X12949995Y-86899995D01*
X16000000Y-88900000D02*
X14950000Y-88900000D01*
X12949995Y-50347924D02*
X12949995Y-82000000D01*
X12949995Y-82000000D02*
X12949995Y-82042815D01*
X13400004Y-83760004D02*
X18540000Y-88900000D01*
X13400003Y-51163587D02*
X13400004Y-83760004D01*
X38700000Y-47400000D02*
X39900000Y-46200000D01*
X17163590Y-47400000D02*
X16800000Y-47763590D01*
X18300000Y-47400000D02*
X17163590Y-47400000D01*
X16800000Y-47763590D02*
X13400003Y-51163587D01*
X17463590Y-47400000D02*
X18300000Y-47400000D01*
X18300000Y-47400000D02*
X38700000Y-47400000D01*
X40460000Y-45040000D02*
X43000000Y-42500000D01*
X39910000Y-45590000D02*
X39900000Y-45590000D01*
X43000000Y-42500000D02*
X39910000Y-45590000D01*
X39900000Y-46200000D02*
X39900000Y-45590000D01*
X58055001Y-45625997D02*
X58055001Y-46564001D01*
X61180998Y-42500000D02*
X58055001Y-45625997D01*
X65000000Y-42500000D02*
X61180998Y-42500000D01*
X58055001Y-46564001D02*
X56769002Y-47850000D01*
X56769002Y-47850000D02*
X38900000Y-47850000D01*
X38900000Y-47850000D02*
X38550000Y-47850000D01*
X38900000Y-47850000D02*
X17350000Y-47850000D01*
X17350000Y-47850000D02*
X13850013Y-51349987D01*
X13850013Y-51349987D02*
X13850013Y-81670013D01*
X13850015Y-81670015D02*
X13850013Y-81670013D01*
X13850015Y-82067836D02*
X13850015Y-81670015D01*
X18332186Y-86550009D02*
X13850015Y-82067836D01*
X18730010Y-86550010D02*
X18332186Y-86550009D01*
X21080000Y-88900000D02*
X18730010Y-86550010D01*
X20820000Y-86100000D02*
X22820001Y-88100001D01*
X79200000Y-48300000D02*
X17536410Y-48300000D01*
X22820001Y-88100001D02*
X23620000Y-88900000D01*
X17536410Y-48300000D02*
X14300023Y-51536387D01*
X14300023Y-51536387D02*
X14300024Y-81881437D01*
X14300024Y-81881437D02*
X18518587Y-86100000D01*
X85000000Y-42500000D02*
X79200000Y-48300000D01*
X18518587Y-86100000D02*
X20820000Y-86100000D01*
X38849990Y-90575012D02*
X40274999Y-89150003D01*
X40274999Y-89150003D02*
X40274999Y-87675001D01*
X40274999Y-87675001D02*
X40625012Y-87324988D01*
X40625012Y-87324988D02*
X53724988Y-87324988D01*
X32915012Y-90575012D02*
X38849990Y-90575012D01*
X31240000Y-88900000D02*
X32915012Y-90575012D01*
X66400000Y-100000000D02*
X71797919Y-100000000D01*
X53724988Y-87324988D02*
X66400000Y-100000000D01*
X73297919Y-100000000D02*
X72212000Y-100000000D01*
X74500000Y-100000000D02*
X73297919Y-100000000D01*
X71797919Y-100000000D02*
X72212000Y-100000000D01*
X72212000Y-100000000D02*
X73000000Y-100000000D01*
X24499999Y-95000001D02*
X23500000Y-96000000D01*
X25360001Y-94139999D02*
X24499999Y-95000001D01*
X25360001Y-89699999D02*
X25360001Y-94139999D01*
X26160000Y-88900000D02*
X25360001Y-89699999D01*
X54085787Y-96000000D02*
X50135787Y-92050000D01*
X55500000Y-96000000D02*
X54085787Y-96000000D01*
X31850000Y-92050000D02*
X28700000Y-88900000D01*
X50135787Y-92050000D02*
X31850000Y-92050000D01*
X78639999Y-86000001D02*
X75620000Y-89020000D01*
X91060001Y-86000001D02*
X99070000Y-77990002D01*
X91060001Y-86000001D02*
X78639999Y-86000001D01*
X99070000Y-77990002D02*
X99070000Y-55120000D01*
X92420000Y-48470000D02*
X92420000Y-44880000D01*
X99070000Y-55120000D02*
X92420000Y-48470000D01*
X92420000Y-33620000D02*
X92420000Y-44880000D01*
X37833269Y-36824999D02*
X38333292Y-37325023D01*
X38333292Y-37325023D02*
X39564025Y-37325023D01*
X39564025Y-37325023D02*
X44175001Y-41935999D01*
X44175001Y-41935999D02*
X44175001Y-43464999D01*
X42489999Y-45150001D02*
X41640000Y-46000000D01*
X44175001Y-43464999D02*
X42489999Y-45150001D01*
X35990468Y-36824999D02*
X37833269Y-36824999D01*
X28883470Y-29718000D02*
X34253735Y-35088265D01*
X34253735Y-35088265D02*
X35990468Y-36824999D01*
X22968000Y-29718000D02*
X23114000Y-29718000D01*
X22000000Y-28750000D02*
X22968000Y-29718000D01*
X22000000Y-27500000D02*
X22000000Y-28750000D01*
X23114000Y-29718000D02*
X28883470Y-29718000D01*
X39750425Y-36875012D02*
X45029999Y-42154586D01*
X38519692Y-36875012D02*
X39750425Y-36875012D01*
X45029999Y-45150001D02*
X44180000Y-46000000D01*
X27301880Y-27500000D02*
X36176868Y-36374988D01*
X38019668Y-36374988D02*
X38519692Y-36875012D01*
X45029999Y-42154586D02*
X45029999Y-45150001D01*
X36176868Y-36374988D02*
X38019668Y-36374988D01*
X86720000Y-97100000D02*
X86720000Y-97600000D01*
X82620000Y-93000000D02*
X86720000Y-97100000D01*
X76838579Y-36025011D02*
X82394989Y-36025011D01*
X63235001Y-47275001D02*
X65588589Y-47275001D01*
X61960000Y-46000000D02*
X63235001Y-47275001D01*
X84000001Y-34419999D02*
X84800000Y-33620000D01*
X65588589Y-47275001D02*
X76838579Y-36025011D01*
X82394989Y-36025011D02*
X84000001Y-34419999D01*
X86540001Y-34419999D02*
X87340000Y-33620000D01*
X86214999Y-34745001D02*
X86540001Y-34419999D01*
X71535988Y-47725010D02*
X84515997Y-34745001D01*
X84515997Y-34745001D02*
X86214999Y-34745001D01*
X61145009Y-47725009D02*
X71535988Y-47725010D01*
X59420000Y-46000000D02*
X61145009Y-47725009D01*
X31409997Y-93274999D02*
X27574999Y-89440001D01*
X39675823Y-83055012D02*
X40600001Y-82130834D01*
X32879986Y-83055012D02*
X39675823Y-83055012D01*
X27574999Y-89440001D02*
X27574999Y-88359999D01*
X40600001Y-82079999D02*
X41400000Y-81280000D01*
X40600001Y-82130834D02*
X40600001Y-82079999D01*
X49924999Y-93274999D02*
X31409997Y-93274999D01*
X60150000Y-103500000D02*
X49924999Y-93274999D01*
X27574999Y-88359999D02*
X32879986Y-83055012D01*
M02*
