M48
; DRILL file {KiCad (5.1.2)-1} date 8/5/2020 1:10:19 PM
; FORMAT={2:4/ absolute / inch / suppress trailing zeros}
; #@! TF.CreationDate,2020-08-05T13:10:19-07:00
; #@! TF.GenerationSoftware,Kicad,Pcbnew,(5.1.2)-1
; #@! TF.FileFunction,Plated,1,2,PTH
FMAT,2
INCH,LZ
T1C0.0276
T2C0.0315
T3C0.0354
T4C0.0394
T5C0.0394
T6C0.0433
T7C0.0630
T8C0.1260
%
G90
G05
T1
X038303Y-022791
X038303Y-025791
X03426Y-047154
X03726Y-047154
X012618Y-038563
X012618Y-041563
X035365Y-006287
X035365Y-009287
X015591Y-038583
X015591Y-041583
X036365Y-006287
X036365Y-009287
X037366Y-006287
X037366Y-009287
X021457Y-01372
X021457Y-01672
X0175Y-038575
X0175Y-041575
X018307Y-01372
X018307Y-01672
X027559Y-032138
X027559Y-035138
X016555Y-038563
X016555Y-041563
X033364Y-006287
X033364Y-009287
X038319Y-026634
X038319Y-029634
X011614Y-038563
X011614Y-041563
X019882Y-01372
X019882Y-01672
X027118Y-013386
X030118Y-013386
X034248Y-046059
X037248Y-046059
X029528Y-036614
X032528Y-036614
X031362Y-006287
X031362Y-009287
X032363Y-006287
X032363Y-009287
X013602Y-038575
X013602Y-041575
X034364Y-006287
X034364Y-009287
X028543Y-032138
X028543Y-035138
T2
X038386Y-014567
X03937Y-014567
X012976Y-006299
X013976Y-006299
X014976Y-006299
X012961Y-008957
X013961Y-008957
X014961Y-008957
X020669Y-033465
X021654Y-033465
X036614Y-036417
X036614Y-037402
X031386Y-010236
X031386Y-013236
X032386Y-010236
X032386Y-013236
X033386Y-010236
X033386Y-013236
X034386Y-010236
X034386Y-013236
X035386Y-010236
X035386Y-013236
X036386Y-010236
X036386Y-013236
X037386Y-010236
X037386Y-013236
X038386Y-010236
X038386Y-013236
X038386Y-016142
X03937Y-016142
X015528Y-037355
X016528Y-037355
X017528Y-037355
X029772Y-032047
X029772Y-035047
X030772Y-032047
X030772Y-035047
X031772Y-032047
X031772Y-035047
X032772Y-032047
X032772Y-035047
X033772Y-032047
X033772Y-035047
X034772Y-032047
X034772Y-035047
X035772Y-032047
X035772Y-035047
X036772Y-032047
X036772Y-035047
X020685Y-031928
X021669Y-031928
X040945Y-037008
X041929Y-037008
X006299Y-032
X006299Y-035
X007299Y-032
X007299Y-035
X008299Y-032
X008299Y-035
X009299Y-032
X009299Y-035
X010299Y-032
X010299Y-035
X011299Y-032
X011299Y-035
X012299Y-032
X012299Y-035
X013299Y-032
X013299Y-035
X014299Y-032
X014299Y-035
X015299Y-032
X015299Y-035
X016299Y-032
X016299Y-035
X017299Y-032
X017299Y-035
X018299Y-032
X018299Y-035
X019299Y-032
X019299Y-035
X011636Y-037363
X012636Y-037363
X013636Y-037363
X012961Y-011909
X013961Y-011909
X014961Y-011909
X041063Y-013366
X042047Y-013366
X023228Y-03189
X024213Y-03189
X038484Y-036417
X038484Y-037402
T3
X034323Y-042937
X037323Y-042937
T4
X034809Y-022028
X034809Y-023799
X037368Y-022028
X037368Y-023799
X034809Y-02813
X034809Y-029902
X037368Y-02813
X037368Y-029902
X026607Y-02813
X026607Y-029902
X029166Y-02813
X029166Y-029902
X022506Y-02813
X022506Y-029902
X025065Y-02813
X025065Y-029902
X014304Y-022028
X014304Y-023799
X016863Y-022028
X016863Y-023799
X010203Y-02813
X010203Y-029902
X012762Y-02813
X012762Y-029902
X006102Y-014961
X006102Y-016732
X008661Y-014961
X008661Y-016732
X030708Y-022028
X030708Y-023799
X033267Y-022028
X033267Y-023799
X008661Y-010827
X009646Y-010827
X01063Y-010827
X039961Y-022835
X040945Y-022835
X041929Y-022835
X029331Y-037598
X029331Y-03937
X03189Y-037598
X03189Y-03937
X014304Y-02813
X014304Y-029902
X016863Y-02813
X016863Y-029902
X020531Y-006055
X020531Y-012055
X021531Y-006055
X021531Y-012055
X022531Y-006055
X022531Y-012055
X023531Y-006055
X023531Y-012055
X024531Y-006055
X024531Y-012055
X025531Y-006055
X025531Y-012055
X026607Y-022028
X026607Y-023799
X029166Y-022028
X029166Y-023799
X030708Y-02813
X030708Y-029902
X033267Y-02813
X033267Y-029902
X022506Y-022028
X022506Y-023799
X025065Y-022028
X025065Y-023799
X01437Y-014961
X01437Y-016732
X016929Y-014961
X016929Y-016732
X016394Y-01811
X017394Y-01811
X018394Y-01811
X019394Y-01811
X020394Y-01811
X021394Y-01811
X022394Y-01811
X023394Y-01811
X024394Y-01811
X025394Y-01811
X02378Y-040748
X02478Y-040748
X02578Y-040748
X02678Y-040748
X02778Y-040748
X02878Y-040748
X02978Y-040748
X03078Y-040748
X03178Y-040748
X03278Y-040748
X03378Y-040748
X03478Y-040748
X03578Y-040748
X03678Y-040748
X03778Y-040748
X03878Y-040748
X039961Y-047047
X040945Y-047047
X041929Y-047047
X039961Y-034941
X040945Y-034941
X041929Y-034941
X006102Y-022028
X006102Y-023799
X008661Y-022028
X008661Y-023799
X018405Y-02813
X018405Y-029902
X020964Y-02813
X020964Y-029902
X010203Y-022028
X010203Y-023799
X012762Y-022028
X012762Y-023799
X039961Y-010728
X040945Y-010728
X041929Y-010728
X018405Y-022028
X018405Y-023799
X020964Y-022028
X020964Y-023799
X022638Y-014961
X022638Y-016732
X025197Y-014961
X025197Y-016732
X006102Y-02813
X006102Y-029902
X008661Y-02813
X008661Y-029902
X030906Y-014961
X030906Y-016732
X033465Y-014961
X033465Y-016732
T5
X006862Y-026161
X007862Y-026161
X031468Y-026161
X032468Y-026161
X034343Y-044488
X035343Y-044488
X031468Y-020059
X032468Y-020059
X023266Y-020059
X024266Y-020059
X023266Y-026161
X024266Y-026161
X015064Y-020059
X016064Y-020059
X033142Y-038425
X034142Y-038425
X010963Y-026161
X011963Y-026161
X019165Y-026161
X020165Y-026161
X027367Y-026161
X028367Y-026161
X006862Y-020059
X007862Y-020059
X019165Y-020059
X020165Y-020059
X027367Y-020059
X028367Y-020059
X035569Y-020059
X036569Y-020059
X035569Y-026161
X036569Y-026161
X015064Y-026161
X016064Y-026161
X010963Y-020059
X011963Y-020059
T6
X007283Y-037795
X007283Y-039764
X009252Y-037795
X009252Y-039764
X019882Y-037795
X019882Y-039764
X02185Y-037795
X02185Y-039764
T7
X021457Y-042551
X021457Y-045819
X021457Y-047039
X016732Y-042551
X016732Y-045819
X016732Y-047039
X007283Y-042551
X007283Y-045819
X007283Y-047039
X026181Y-042551
X026181Y-045819
X026181Y-047039
X012008Y-042551
X012008Y-045819
X012008Y-047039
X030906Y-042551
X030906Y-045819
X030906Y-047039
T8
X006161Y-012378
X025591Y-033661
T0
M30
