M48
; DRILL file {KiCad (5.1.2)-1} date 12/10/2019 5:51:48 PM
; FORMAT={-:-/ absolute / inch / decimal}
; #@! TF.CreationDate,2019-12-10T17:51:48-08:00
; #@! TF.GenerationSoftware,Kicad,Pcbnew,(5.1.2)-1
; #@! TF.FileFunction,Plated,1,2,PTH
FMAT,2
INCH
T1C0.0276
T2C0.0315
T3C0.0354
T4C0.0394
T5C0.0394
T6C0.0433
T7C0.0630
T8C0.0787
T9C0.1260
%
G90
G05
T1
X1.9882Y-1.372
X1.9882Y-1.672
X1.75Y-3.8575
X1.75Y-4.1575
X3.8307Y-2.4764
X3.8307Y-2.7764
X1.5591Y-3.8583
X1.5591Y-4.1583
X3.7205Y-0.635
X3.7205Y-0.935
X1.6555Y-3.8563
X1.6555Y-4.1563
X3.6024Y-0.635
X3.6024Y-0.935
X3.5543Y-4.7008
X3.8543Y-4.7008
X3.8386Y-0.635
X3.8386Y-0.935
X1.3602Y-3.8575
X1.3602Y-4.1575
X2.1457Y-1.372
X2.1457Y-1.672
X2.7559Y-3.2138
X2.7559Y-3.5138
X2.7118Y-1.3386
X3.0118Y-1.3386
X3.5543Y-4.5906
X3.8543Y-4.5906
X1.1614Y-3.8563
X1.1614Y-4.1563
X1.8307Y-1.372
X1.8307Y-1.672
X2.9528Y-3.6614
X3.2528Y-3.6614
X1.2618Y-3.8563
X1.2618Y-4.1563
X2.8543Y-3.2138
X2.8543Y-3.5138
X3.1299Y-0.635
X3.1299Y-0.935
X3.8307Y-2.0819
X3.8307Y-2.3819
X3.4843Y-0.635
X3.4843Y-0.935
X3.248Y-0.635
X3.248Y-0.935
X3.3661Y-0.635
X3.3661Y-0.935
T2
X2.9772Y-3.2047
X2.9772Y-3.5047
X3.0772Y-3.2047
X3.0772Y-3.5047
X3.1772Y-3.2047
X3.1772Y-3.5047
X3.2772Y-3.2047
X3.2772Y-3.5047
X3.3772Y-3.2047
X3.3772Y-3.5047
X3.4772Y-3.2047
X3.4772Y-3.5047
X3.5772Y-3.2047
X3.5772Y-3.5047
X3.6772Y-3.2047
X3.6772Y-3.5047
X0.6299Y-3.2
X0.6299Y-3.5
X0.7299Y-3.2
X0.7299Y-3.5
X0.8299Y-3.2
X0.8299Y-3.5
X0.9299Y-3.2
X0.9299Y-3.5
X1.0299Y-3.2
X1.0299Y-3.5
X1.1299Y-3.2
X1.1299Y-3.5
X1.2299Y-3.2
X1.2299Y-3.5
X1.3299Y-3.2
X1.3299Y-3.5
X1.4299Y-3.2
X1.4299Y-3.5
X1.5299Y-3.2
X1.5299Y-3.5
X1.6299Y-3.2
X1.6299Y-3.5
X1.7299Y-3.2
X1.7299Y-3.5
X1.8299Y-3.2
X1.8299Y-3.5
X1.9299Y-3.2
X1.9299Y-3.5
X3.8386Y-1.6142
X3.937Y-1.6142
X2.3228Y-3.189
X2.4213Y-3.189
X1.1636Y-3.7363
X1.2636Y-3.7363
X1.3636Y-3.7363
X2.0685Y-3.1928
X2.1669Y-3.1928
X3.8386Y-1.4567
X3.937Y-1.4567
X1.2976Y-0.6299
X1.3976Y-0.6299
X1.4976Y-0.6299
X3.8484Y-3.6417
X3.8484Y-3.7402
X1.2961Y-1.1909
X1.3961Y-1.1909
X1.4961Y-1.1909
X4.1063Y-1.3366
X4.2047Y-1.3366
X1.5528Y-3.7355
X1.6528Y-3.7355
X1.7528Y-3.7355
X4.0945Y-3.7008
X4.1929Y-3.7008
X1.2961Y-0.8957
X1.3961Y-0.8957
X1.4961Y-0.8957
X2.0669Y-3.3465
X2.1654Y-3.3465
X3.6614Y-3.6417
X3.6614Y-3.7402
X3.1386Y-1.0236
X3.1386Y-1.3236
X3.2386Y-1.0236
X3.2386Y-1.3236
X3.3386Y-1.0236
X3.3386Y-1.3236
X3.4386Y-1.0236
X3.4386Y-1.3236
X3.5386Y-1.0236
X3.5386Y-1.3236
X3.6386Y-1.0236
X3.6386Y-1.3236
X3.7386Y-1.0236
X3.7386Y-1.3236
X3.8386Y-1.0236
X3.8386Y-1.3236
T3
X3.5571Y-4.2913
X3.8571Y-4.2913
T4
X3.0708Y-2.813
X3.0708Y-2.9902
X3.3267Y-2.813
X3.3267Y-2.9902
X0.6102Y-2.813
X0.6102Y-2.9902
X0.8661Y-2.813
X0.8661Y-2.9902
X4.0354Y-1.0728
X4.1339Y-1.0728
X4.2323Y-1.0728
X1.0203Y-2.813
X1.0203Y-2.9902
X1.2762Y-2.813
X1.2762Y-2.9902
X0.6102Y-2.2028
X0.6102Y-2.3799
X0.8661Y-2.2028
X0.8661Y-2.3799
X2.6607Y-2.813
X2.6607Y-2.9902
X2.9166Y-2.813
X2.9166Y-2.9902
X1.8405Y-2.813
X1.8405Y-2.9902
X2.0964Y-2.813
X2.0964Y-2.9902
X2.2638Y-1.4961
X2.2638Y-1.6732
X2.5197Y-1.4961
X2.5197Y-1.6732
X2.2506Y-2.813
X2.2506Y-2.9902
X2.5065Y-2.813
X2.5065Y-2.9902
X1.4304Y-2.2028
X1.4304Y-2.3799
X1.6863Y-2.2028
X1.6863Y-2.3799
X3.4809Y-2.2028
X3.4809Y-2.3799
X3.7368Y-2.2028
X3.7368Y-2.3799
X2.378Y-4.0748
X2.478Y-4.0748
X2.578Y-4.0748
X2.678Y-4.0748
X2.778Y-4.0748
X2.878Y-4.0748
X2.978Y-4.0748
X3.078Y-4.0748
X3.178Y-4.0748
X3.278Y-4.0748
X3.378Y-4.0748
X3.478Y-4.0748
X3.578Y-4.0748
X3.678Y-4.0748
X3.778Y-4.0748
X3.878Y-4.0748
X4.0354Y-3.4941
X4.1339Y-3.4941
X4.2323Y-3.4941
X4.0354Y-2.2835
X4.1339Y-2.2835
X4.2323Y-2.2835
X1.6394Y-1.811
X1.7394Y-1.811
X1.8394Y-1.811
X1.9394Y-1.811
X2.0394Y-1.811
X2.1394Y-1.811
X2.2394Y-1.811
X2.3394Y-1.811
X2.4394Y-1.811
X2.5394Y-1.811
X3.4809Y-2.813
X3.4809Y-2.9902
X3.7368Y-2.813
X3.7368Y-2.9902
X4.0354Y-4.7047
X4.1339Y-4.7047
X4.2323Y-4.7047
X2.6607Y-2.2028
X2.6607Y-2.3799
X2.9166Y-2.2028
X2.9166Y-2.3799
X0.8071Y-1.0827
X0.9055Y-1.0827
X1.0039Y-1.0827
X2.0531Y-0.6055
X2.0531Y-1.2055
X2.1531Y-0.6055
X2.1531Y-1.2055
X2.2531Y-0.6055
X2.2531Y-1.2055
X2.3531Y-0.6055
X2.3531Y-1.2055
X2.4531Y-0.6055
X2.4531Y-1.2055
X2.5531Y-0.6055
X2.5531Y-1.2055
X3.0906Y-1.4961
X3.0906Y-1.6732
X3.3465Y-1.4961
X3.3465Y-1.6732
X1.0203Y-2.2028
X1.0203Y-2.3799
X1.2762Y-2.2028
X1.2762Y-2.3799
X0.6102Y-1.4961
X0.6102Y-1.6732
X0.8661Y-1.4961
X0.8661Y-1.6732
X2.2506Y-2.2028
X2.2506Y-2.3799
X2.5065Y-2.2028
X2.5065Y-2.3799
X3.0708Y-2.2028
X3.0708Y-2.3799
X3.3267Y-2.2028
X3.3267Y-2.3799
X1.8405Y-2.2028
X1.8405Y-2.3799
X2.0964Y-2.2028
X2.0964Y-2.3799
X2.874Y-3.7598
X2.874Y-3.937
X3.1299Y-3.7598
X3.1299Y-3.937
X1.4304Y-2.813
X1.4304Y-2.9902
X1.6863Y-2.813
X1.6863Y-2.9902
X1.437Y-1.4961
X1.437Y-1.6732
X1.6929Y-1.4961
X1.6929Y-1.6732
T5
X3.1468Y-2.6161
X3.2468Y-2.6161
X1.9165Y-2.6161
X2.0165Y-2.6161
X3.5569Y-2.6161
X3.6569Y-2.6161
X3.1468Y-2.0059
X3.2468Y-2.0059
X0.6862Y-2.6161
X0.7862Y-2.6161
X3.3142Y-3.8425
X3.4142Y-3.8425
X2.3266Y-2.6161
X2.4266Y-2.6161
X2.7367Y-2.6161
X2.8367Y-2.6161
X0.6862Y-2.0059
X0.7862Y-2.0059
X1.0963Y-2.0059
X1.1963Y-2.0059
X2.3266Y-2.0059
X2.4266Y-2.0059
X2.7367Y-2.0059
X2.8367Y-2.0059
X1.0963Y-2.6161
X1.1963Y-2.6161
X1.5064Y-2.6161
X1.6064Y-2.6161
X3.3555Y-4.4488
X3.4555Y-4.4488
X3.5569Y-2.0059
X3.6569Y-2.0059
X1.5064Y-2.0059
X1.6064Y-2.0059
X1.9165Y-2.0059
X2.0165Y-2.0059
T6
X1.9882Y-3.7795
X1.9882Y-3.9764
X2.185Y-3.7795
X2.185Y-3.9764
X0.7283Y-3.7795
X0.7283Y-3.9764
X0.9252Y-3.7795
X0.9252Y-3.9764
T7
X1.2008Y-4.2551
X1.2008Y-4.5819
X1.2008Y-4.7039
X0.7283Y-4.2551
X0.7283Y-4.5819
X0.7283Y-4.7039
X2.1457Y-4.2551
X2.1457Y-4.5819
X2.1457Y-4.7039
X3.0906Y-4.2551
X3.0906Y-4.5819
X3.0906Y-4.7039
X1.6732Y-4.2551
X1.6732Y-4.5819
X1.6732Y-4.7039
X2.6181Y-4.2551
X2.6181Y-4.5819
X2.6181Y-4.7039
T9
X2.5591Y-3.3661
T8
G00X0.685Y-0.7972
M15
G01X0.685Y-0.7776
M16
G05
G00X1.126Y-0.7972
M15
G01X1.126Y-0.7776
M16
G05
T0
M30
