G04 #@! TF.GenerationSoftware,KiCad,Pcbnew,(5.1.2)-1*
G04 #@! TF.CreationDate,2020-07-24T19:37:29-07:00*
G04 #@! TF.ProjectId,kicad-control-board,6b696361-642d-4636-9f6e-74726f6c2d62,rev?*
G04 #@! TF.SameCoordinates,Original*
G04 #@! TF.FileFunction,Legend,Top*
G04 #@! TF.FilePolarity,Positive*
%FSLAX46Y46*%
G04 Gerber Fmt 4.6, Leading zero omitted, Abs format (unit mm)*
G04 Created by KiCad (PCBNEW (5.1.2)-1) date 2020-07-24 19:37:29*
%MOMM*%
%LPD*%
G04 APERTURE LIST*
%ADD10C,1.000000*%
%ADD11C,0.300000*%
%ADD12C,0.120000*%
%ADD13C,0.150000*%
G04 APERTURE END LIST*
D10*
X13916000Y-86868000D02*
G75*
G03X13916000Y-86868000I-200000J0D01*
G01*
X95958000Y-82858000D02*
G75*
G03X95958000Y-82858000I-200000J0D01*
G01*
X99768000Y-27940000D02*
G75*
G03X99768000Y-27940000I-200000J0D01*
G01*
D11*
X14657142Y-46657142D02*
X14871428Y-46728571D01*
X15228571Y-46728571D01*
X15371428Y-46657142D01*
X15442857Y-46585714D01*
X15514285Y-46442857D01*
X15514285Y-46300000D01*
X15442857Y-46157142D01*
X15371428Y-46085714D01*
X15228571Y-46014285D01*
X14942857Y-45942857D01*
X14799999Y-45871428D01*
X14728571Y-45800000D01*
X14657142Y-45657142D01*
X14657142Y-45514285D01*
X14728571Y-45371428D01*
X14799999Y-45300000D01*
X14942857Y-45228571D01*
X15299999Y-45228571D01*
X15514285Y-45300000D01*
X16157142Y-45228571D02*
X16157142Y-46442857D01*
X16228571Y-46585714D01*
X16299999Y-46657142D01*
X16442857Y-46728571D01*
X16728571Y-46728571D01*
X16871428Y-46657142D01*
X16942857Y-46585714D01*
X17014285Y-46442857D01*
X17014285Y-45228571D01*
X17728571Y-46728571D02*
X17728571Y-45228571D01*
X18299999Y-45228571D01*
X18442857Y-45300000D01*
X18514285Y-45371428D01*
X18585714Y-45514285D01*
X18585714Y-45728571D01*
X18514285Y-45871428D01*
X18442857Y-45942857D01*
X18299999Y-46014285D01*
X17728571Y-46014285D01*
X19228571Y-45942857D02*
X19728571Y-45942857D01*
X19942857Y-46728571D02*
X19228571Y-46728571D01*
X19228571Y-45228571D01*
X19942857Y-45228571D01*
X21442857Y-46728571D02*
X20942857Y-46014285D01*
X20585714Y-46728571D02*
X20585714Y-45228571D01*
X21157142Y-45228571D01*
X21299999Y-45300000D01*
X21371428Y-45371428D01*
X21442857Y-45514285D01*
X21442857Y-45728571D01*
X21371428Y-45871428D01*
X21299999Y-45942857D01*
X21157142Y-46014285D01*
X20585714Y-46014285D01*
X23157142Y-46657142D02*
X23371428Y-46728571D01*
X23728571Y-46728571D01*
X23871428Y-46657142D01*
X23942857Y-46585714D01*
X24014285Y-46442857D01*
X24014285Y-46300000D01*
X23942857Y-46157142D01*
X23871428Y-46085714D01*
X23728571Y-46014285D01*
X23442857Y-45942857D01*
X23300000Y-45871428D01*
X23228571Y-45800000D01*
X23157142Y-45657142D01*
X23157142Y-45514285D01*
X23228571Y-45371428D01*
X23300000Y-45300000D01*
X23442857Y-45228571D01*
X23800000Y-45228571D01*
X24014285Y-45300000D01*
X24657142Y-46728571D02*
X24657142Y-45228571D01*
X25228571Y-45228571D02*
X26228571Y-46728571D01*
X26228571Y-45228571D02*
X25228571Y-46728571D01*
X26585714Y-45228571D02*
X27442857Y-45228571D01*
X27014285Y-46728571D02*
X27014285Y-45228571D01*
X27942857Y-45942857D02*
X28442857Y-45942857D01*
X28657142Y-46728571D02*
X27942857Y-46728571D01*
X27942857Y-45228571D01*
X28657142Y-45228571D01*
X29300000Y-45942857D02*
X29800000Y-45942857D01*
X30014285Y-46728571D02*
X29300000Y-46728571D01*
X29300000Y-45228571D01*
X30014285Y-45228571D01*
X30657142Y-46728571D02*
X30657142Y-45228571D01*
X31514285Y-46728571D01*
X31514285Y-45228571D01*
X33228571Y-45728571D02*
X33585714Y-46728571D01*
X33942857Y-45728571D01*
X34442857Y-45371428D02*
X34514285Y-45300000D01*
X34657142Y-45228571D01*
X35014285Y-45228571D01*
X35157142Y-45300000D01*
X35228571Y-45371428D01*
X35299999Y-45514285D01*
X35299999Y-45657142D01*
X35228571Y-45871428D01*
X34371428Y-46728571D01*
X35299999Y-46728571D01*
X35942857Y-46585714D02*
X36014285Y-46657142D01*
X35942857Y-46728571D01*
X35871428Y-46657142D01*
X35942857Y-46585714D01*
X35942857Y-46728571D01*
X36585714Y-45371428D02*
X36657142Y-45300000D01*
X36799999Y-45228571D01*
X37157142Y-45228571D01*
X37299999Y-45300000D01*
X37371428Y-45371428D01*
X37442857Y-45514285D01*
X37442857Y-45657142D01*
X37371428Y-45871428D01*
X36514285Y-46728571D01*
X37442857Y-46728571D01*
X68421428Y-45942857D02*
X68921428Y-45942857D01*
X69135714Y-46728571D02*
X68421428Y-46728571D01*
X68421428Y-45228571D01*
X69135714Y-45228571D01*
X69635714Y-45228571D02*
X70635714Y-46728571D01*
X70635714Y-45228571D02*
X69635714Y-46728571D01*
X70992857Y-45228571D02*
X71850000Y-45228571D01*
X71421428Y-46728571D02*
X71421428Y-45228571D01*
X73207142Y-46728571D02*
X72707142Y-46014285D01*
X72350000Y-46728571D02*
X72350000Y-45228571D01*
X72921428Y-45228571D01*
X73064285Y-45300000D01*
X73135714Y-45371428D01*
X73207142Y-45514285D01*
X73207142Y-45728571D01*
X73135714Y-45871428D01*
X73064285Y-45942857D01*
X72921428Y-46014285D01*
X72350000Y-46014285D01*
X73778571Y-46300000D02*
X74492857Y-46300000D01*
X73635714Y-46728571D02*
X74135714Y-45228571D01*
X74635714Y-46728571D01*
X75850000Y-46728571D02*
X75135714Y-46728571D01*
X75135714Y-45228571D01*
X76350000Y-46728571D02*
X76350000Y-45228571D01*
X77564285Y-45942857D02*
X77064285Y-45942857D01*
X77064285Y-46728571D02*
X77064285Y-45228571D01*
X77778571Y-45228571D01*
X78350000Y-45942857D02*
X78850000Y-45942857D01*
X79064285Y-46728571D02*
X78350000Y-46728571D01*
X78350000Y-45228571D01*
X79064285Y-45228571D01*
X80850000Y-46728571D02*
X80850000Y-45228571D01*
X81564285Y-46728571D02*
X81564285Y-45228571D01*
X82421428Y-46728571D01*
X82421428Y-45228571D01*
X83064285Y-46657142D02*
X83278571Y-46728571D01*
X83635714Y-46728571D01*
X83778571Y-46657142D01*
X83850000Y-46585714D01*
X83921428Y-46442857D01*
X83921428Y-46300000D01*
X83850000Y-46157142D01*
X83778571Y-46085714D01*
X83635714Y-46014285D01*
X83350000Y-45942857D01*
X83207142Y-45871428D01*
X83135714Y-45800000D01*
X83064285Y-45657142D01*
X83064285Y-45514285D01*
X83135714Y-45371428D01*
X83207142Y-45300000D01*
X83350000Y-45228571D01*
X83707142Y-45228571D01*
X83921428Y-45300000D01*
X84350000Y-45228571D02*
X85207142Y-45228571D01*
X84778571Y-46728571D02*
X84778571Y-45228571D01*
X86564285Y-46728571D02*
X86064285Y-46014285D01*
X85707142Y-46728571D02*
X85707142Y-45228571D01*
X86278571Y-45228571D01*
X86421428Y-45300000D01*
X86492857Y-45371428D01*
X86564285Y-45514285D01*
X86564285Y-45728571D01*
X86492857Y-45871428D01*
X86421428Y-45942857D01*
X86278571Y-46014285D01*
X85707142Y-46014285D01*
X87207142Y-45228571D02*
X87207142Y-46442857D01*
X87278571Y-46585714D01*
X87350000Y-46657142D01*
X87492857Y-46728571D01*
X87778571Y-46728571D01*
X87921428Y-46657142D01*
X87992857Y-46585714D01*
X88064285Y-46442857D01*
X88064285Y-45228571D01*
X88778571Y-46728571D02*
X88778571Y-45228571D01*
X89278571Y-46300000D01*
X89778571Y-45228571D01*
X89778571Y-46728571D01*
X90492857Y-45942857D02*
X90992857Y-45942857D01*
X91207142Y-46728571D02*
X90492857Y-46728571D01*
X90492857Y-45228571D01*
X91207142Y-45228571D01*
X91850000Y-46728571D02*
X91850000Y-45228571D01*
X92707142Y-46728571D01*
X92707142Y-45228571D01*
X93207142Y-45228571D02*
X94064285Y-45228571D01*
X93635714Y-46728571D02*
X93635714Y-45228571D01*
X94492857Y-46657142D02*
X94707142Y-46728571D01*
X95064285Y-46728571D01*
X95207142Y-46657142D01*
X95278571Y-46585714D01*
X95350000Y-46442857D01*
X95350000Y-46300000D01*
X95278571Y-46157142D01*
X95207142Y-46085714D01*
X95064285Y-46014285D01*
X94778571Y-45942857D01*
X94635714Y-45871428D01*
X94564285Y-45800000D01*
X94492857Y-45657142D01*
X94492857Y-45514285D01*
X94564285Y-45371428D01*
X94635714Y-45300000D01*
X94778571Y-45228571D01*
X95135714Y-45228571D01*
X95350000Y-45300000D01*
D12*
X72245844Y-58200000D02*
G75*
G03X72245844Y-58200000I-1414214J0D01*
G01*
X67861630Y-61320000D02*
X73801630Y-61320000D01*
X67861630Y-55080000D02*
X73801630Y-55080000D01*
X67711630Y-59540000D02*
X67711630Y-56860000D01*
X73951630Y-56860000D02*
X73951630Y-59540000D01*
X98830000Y-30810000D02*
G75*
G02X98830000Y-28810000I0J1000000D01*
G01*
X98830000Y-28810000D02*
X98830000Y-27160000D01*
X98830000Y-27160000D02*
X78390000Y-27160000D01*
X78390000Y-27160000D02*
X78390000Y-32460000D01*
X78390000Y-32460000D02*
X98830000Y-32460000D01*
X98830000Y-32460000D02*
X98830000Y-30810000D01*
X37300000Y-14150000D02*
X33700000Y-14150000D01*
X37824184Y-14877205D02*
G75*
G03X37300000Y-14150000I-2324184J-1122795D01*
G01*
X37856400Y-17098807D02*
G75*
G02X35500000Y-18600000I-2356400J1098807D01*
G01*
X33143600Y-17098807D02*
G75*
G03X35500000Y-18600000I2356400J1098807D01*
G01*
X33175816Y-14877205D02*
G75*
G02X33700000Y-14150000I2324184J-1122795D01*
G01*
X40181120Y-96731700D02*
X43781120Y-96731700D01*
X39656936Y-96004495D02*
G75*
G03X40181120Y-96731700I2324184J1122795D01*
G01*
X39624720Y-93782893D02*
G75*
G02X41981120Y-92281700I2356400J-1098807D01*
G01*
X44337520Y-93782893D02*
G75*
G03X41981120Y-92281700I-2356400J-1098807D01*
G01*
X44305304Y-96004495D02*
G75*
G02X43781120Y-96731700I-2324184J1122795D01*
G01*
X30295440Y-96752020D02*
X33895440Y-96752020D01*
X29771256Y-96024815D02*
G75*
G03X30295440Y-96752020I2324184J1122795D01*
G01*
X29739040Y-93803213D02*
G75*
G02X32095440Y-92302020I2356400J-1098807D01*
G01*
X34451840Y-93803213D02*
G75*
G03X32095440Y-92302020I-2356400J-1098807D01*
G01*
X34419624Y-96024815D02*
G75*
G02X33895440Y-96752020I-2324184J1122795D01*
G01*
X37260000Y-28400000D02*
X33660000Y-28400000D01*
X37784184Y-29127205D02*
G75*
G03X37260000Y-28400000I-2324184J-1122795D01*
G01*
X37816400Y-31348807D02*
G75*
G02X35460000Y-32850000I-2356400J1098807D01*
G01*
X33103600Y-31348807D02*
G75*
G03X35460000Y-32850000I2356400J1098807D01*
G01*
X33135816Y-29127205D02*
G75*
G02X33660000Y-28400000I2324184J-1122795D01*
G01*
X37260000Y-20900000D02*
X33660000Y-20900000D01*
X37784184Y-21627205D02*
G75*
G03X37260000Y-20900000I-2324184J-1122795D01*
G01*
X37816400Y-23848807D02*
G75*
G02X35460000Y-25350000I-2356400J1098807D01*
G01*
X33103600Y-23848807D02*
G75*
G03X35460000Y-25350000I2356400J1098807D01*
G01*
X33135816Y-21627205D02*
G75*
G02X33660000Y-20900000I2324184J-1122795D01*
G01*
X94310000Y-91190000D02*
X94310000Y-96310000D01*
X91690000Y-91190000D02*
X91690000Y-96310000D01*
X94310000Y-91190000D02*
X91690000Y-91190000D01*
X94310000Y-96310000D02*
X91690000Y-96310000D01*
X56349260Y-82407120D02*
X51229260Y-82407120D01*
X56349260Y-79787120D02*
X51229260Y-79787120D01*
X56349260Y-82407120D02*
X56349260Y-79787120D01*
X51229260Y-82407120D02*
X51229260Y-79787120D01*
X96190000Y-35690000D02*
X101310000Y-35690000D01*
X96190000Y-38310000D02*
X101310000Y-38310000D01*
X96190000Y-35690000D02*
X96190000Y-38310000D01*
X101310000Y-35690000D02*
X101310000Y-38310000D01*
X99039000Y-106440000D02*
X108960000Y-106440000D01*
X107325000Y-118560000D02*
X108960000Y-118560000D01*
X104825000Y-118560000D02*
X105675000Y-118560000D01*
X102325000Y-118560000D02*
X103175000Y-118560000D01*
X99039000Y-118560000D02*
X100675000Y-118560000D01*
X108960000Y-110305000D02*
X108960000Y-106440000D01*
X108960000Y-118560000D02*
X108960000Y-114694000D01*
X99039000Y-110305000D02*
X99039000Y-106440000D01*
X99039000Y-118560000D02*
X99039000Y-114694000D01*
X106297753Y-113928295D02*
G75*
G02X101702000Y-113928000I-2297753J1928295D01*
G01*
X101237568Y-110828018D02*
G75*
G02X106762000Y-110827000I2762432J-1171982D01*
G01*
X99039000Y-75690000D02*
X108960000Y-75690000D01*
X107325000Y-87810000D02*
X108960000Y-87810000D01*
X104825000Y-87810000D02*
X105675000Y-87810000D01*
X102325000Y-87810000D02*
X103175000Y-87810000D01*
X99039000Y-87810000D02*
X100675000Y-87810000D01*
X108960000Y-79555000D02*
X108960000Y-75690000D01*
X108960000Y-87810000D02*
X108960000Y-83944000D01*
X99039000Y-79555000D02*
X99039000Y-75690000D01*
X99039000Y-87810000D02*
X99039000Y-83944000D01*
X106297753Y-83178295D02*
G75*
G02X101702000Y-83178000I-2297753J1928295D01*
G01*
X101237568Y-80078018D02*
G75*
G02X106762000Y-80077000I2762432J-1171982D01*
G01*
X99039000Y-44940000D02*
X108960000Y-44940000D01*
X107325000Y-57060000D02*
X108960000Y-57060000D01*
X104825000Y-57060000D02*
X105675000Y-57060000D01*
X102325000Y-57060000D02*
X103175000Y-57060000D01*
X99039000Y-57060000D02*
X100675000Y-57060000D01*
X108960000Y-48805000D02*
X108960000Y-44940000D01*
X108960000Y-57060000D02*
X108960000Y-53194000D01*
X99039000Y-48805000D02*
X99039000Y-44940000D01*
X99039000Y-57060000D02*
X99039000Y-53194000D01*
X106297753Y-52428295D02*
G75*
G02X101702000Y-52428000I-2297753J1928295D01*
G01*
X101237568Y-49328018D02*
G75*
G02X106762000Y-49327000I2762432J-1171982D01*
G01*
X99039000Y-14190000D02*
X108960000Y-14190000D01*
X107325000Y-26310000D02*
X108960000Y-26310000D01*
X104825000Y-26310000D02*
X105675000Y-26310000D01*
X102325000Y-26310000D02*
X103175000Y-26310000D01*
X99039000Y-26310000D02*
X100675000Y-26310000D01*
X108960000Y-18055000D02*
X108960000Y-14190000D01*
X108960000Y-26310000D02*
X108960000Y-22444000D01*
X99039000Y-18055000D02*
X99039000Y-14190000D01*
X99039000Y-26310000D02*
X99039000Y-22444000D01*
X106297753Y-21678295D02*
G75*
G02X101702000Y-21678000I-2297753J1928295D01*
G01*
X101237568Y-18578018D02*
G75*
G02X106762000Y-18577000I2762432J-1171982D01*
G01*
X59070000Y-102170000D02*
X59070000Y-104830000D01*
X97230000Y-102170000D02*
X59070000Y-102170000D01*
X97230000Y-104830000D02*
X59070000Y-104830000D01*
X97230000Y-102170000D02*
X97230000Y-104830000D01*
X98500000Y-102170000D02*
X99830000Y-102170000D01*
X99830000Y-102170000D02*
X99830000Y-103500000D01*
X94730000Y-87860000D02*
X94730000Y-86210000D01*
X74290000Y-87860000D02*
X94730000Y-87860000D01*
X74290000Y-82560000D02*
X74290000Y-87860000D01*
X94730000Y-82560000D02*
X74290000Y-82560000D01*
X94730000Y-84210000D02*
X94730000Y-82560000D01*
X94730000Y-86210000D02*
G75*
G02X94730000Y-84210000I0J1000000D01*
G01*
X51413192Y-58200000D02*
G75*
G03X51413192Y-58200000I-1414214J0D01*
G01*
X47028978Y-61320000D02*
X52968978Y-61320000D01*
X47028978Y-55080000D02*
X52968978Y-55080000D01*
X46878978Y-59540000D02*
X46878978Y-56860000D01*
X53118978Y-56860000D02*
X53118978Y-59540000D01*
X30580540Y-73700000D02*
G75*
G03X30580540Y-73700000I-1414214J0D01*
G01*
X26196326Y-76820000D02*
X32136326Y-76820000D01*
X26196326Y-70580000D02*
X32136326Y-70580000D01*
X26046326Y-75040000D02*
X26046326Y-72360000D01*
X32286326Y-72360000D02*
X32286326Y-75040000D01*
X20164214Y-73700000D02*
G75*
G03X20164214Y-73700000I-1414214J0D01*
G01*
X15780000Y-76820000D02*
X21720000Y-76820000D01*
X15780000Y-70580000D02*
X21720000Y-70580000D01*
X15630000Y-75040000D02*
X15630000Y-72360000D01*
X21870000Y-72360000D02*
X21870000Y-75040000D01*
X61829518Y-58200000D02*
G75*
G03X61829518Y-58200000I-1414214J0D01*
G01*
X57445304Y-61320000D02*
X63385304Y-61320000D01*
X57445304Y-55080000D02*
X63385304Y-55080000D01*
X57295304Y-59540000D02*
X57295304Y-56860000D01*
X63535304Y-56860000D02*
X63535304Y-59540000D01*
X20164214Y-58200000D02*
G75*
G03X20164214Y-58200000I-1414214J0D01*
G01*
X15780000Y-61320000D02*
X21720000Y-61320000D01*
X15780000Y-55080000D02*
X21720000Y-55080000D01*
X15630000Y-59540000D02*
X15630000Y-56860000D01*
X21870000Y-56860000D02*
X21870000Y-59540000D01*
X30580540Y-58200000D02*
G75*
G03X30580540Y-58200000I-1414214J0D01*
G01*
X26196326Y-61320000D02*
X32136326Y-61320000D01*
X26196326Y-55080000D02*
X32136326Y-55080000D01*
X26046326Y-59540000D02*
X26046326Y-56860000D01*
X32286326Y-56860000D02*
X32286326Y-59540000D01*
X40996866Y-58200000D02*
G75*
G03X40996866Y-58200000I-1414214J0D01*
G01*
X36612652Y-61320000D02*
X42552652Y-61320000D01*
X36612652Y-55080000D02*
X42552652Y-55080000D01*
X36462652Y-59540000D02*
X36462652Y-56860000D01*
X42702652Y-56860000D02*
X42702652Y-59540000D01*
X93078498Y-58200000D02*
G75*
G03X93078498Y-58200000I-1414214J0D01*
G01*
X88694284Y-61320000D02*
X94634284Y-61320000D01*
X88694284Y-55080000D02*
X94634284Y-55080000D01*
X88544284Y-59540000D02*
X88544284Y-56860000D01*
X94784284Y-56860000D02*
X94784284Y-59540000D01*
X82662170Y-58200000D02*
G75*
G03X82662170Y-58200000I-1414214J0D01*
G01*
X78277956Y-61320000D02*
X84217956Y-61320000D01*
X78277956Y-55080000D02*
X84217956Y-55080000D01*
X78127956Y-59540000D02*
X78127956Y-56860000D01*
X84367956Y-56860000D02*
X84367956Y-59540000D01*
X40996866Y-73700000D02*
G75*
G03X40996866Y-73700000I-1414214J0D01*
G01*
X36612652Y-76820000D02*
X42552652Y-76820000D01*
X36612652Y-70580000D02*
X42552652Y-70580000D01*
X36462652Y-75040000D02*
X36462652Y-72360000D01*
X42702652Y-72360000D02*
X42702652Y-75040000D01*
X51413192Y-73700000D02*
G75*
G03X51413192Y-73700000I-1414214J0D01*
G01*
X47028978Y-76820000D02*
X52968978Y-76820000D01*
X47028978Y-70580000D02*
X52968978Y-70580000D01*
X46878978Y-75040000D02*
X46878978Y-72360000D01*
X53118978Y-72360000D02*
X53118978Y-75040000D01*
X93078498Y-73700000D02*
G75*
G03X93078498Y-73700000I-1414214J0D01*
G01*
X88694284Y-76820000D02*
X94634284Y-76820000D01*
X88694284Y-70580000D02*
X94634284Y-70580000D01*
X88544284Y-75040000D02*
X88544284Y-72360000D01*
X94784284Y-72360000D02*
X94784284Y-75040000D01*
X82662170Y-73700000D02*
G75*
G03X82662170Y-73700000I-1414214J0D01*
G01*
X78277956Y-76820000D02*
X84217956Y-76820000D01*
X78277956Y-70580000D02*
X84217956Y-70580000D01*
X78127956Y-75040000D02*
X78127956Y-72360000D01*
X84367956Y-72360000D02*
X84367956Y-75040000D01*
X72245844Y-73700000D02*
G75*
G03X72245844Y-73700000I-1414214J0D01*
G01*
X67861630Y-76820000D02*
X73801630Y-76820000D01*
X67861630Y-70580000D02*
X73801630Y-70580000D01*
X67711630Y-75040000D02*
X67711630Y-72360000D01*
X73951630Y-72360000D02*
X73951630Y-75040000D01*
X61829518Y-73700000D02*
G75*
G03X61829518Y-73700000I-1414214J0D01*
G01*
X57445304Y-76820000D02*
X63385304Y-76820000D01*
X57445304Y-70580000D02*
X63385304Y-70580000D01*
X57295304Y-75040000D02*
X57295304Y-72360000D01*
X63535304Y-72360000D02*
X63535304Y-75040000D01*
X41164214Y-40250000D02*
G75*
G03X41164214Y-40250000I-1414214J0D01*
G01*
X36780000Y-43370000D02*
X42720000Y-43370000D01*
X36780000Y-37130000D02*
X42720000Y-37130000D01*
X36630000Y-41590000D02*
X36630000Y-38910000D01*
X42870000Y-38910000D02*
X42870000Y-41590000D01*
X62164214Y-40250000D02*
G75*
G03X62164214Y-40250000I-1414214J0D01*
G01*
X57780000Y-43370000D02*
X63720000Y-43370000D01*
X57780000Y-37130000D02*
X63720000Y-37130000D01*
X57630000Y-41590000D02*
X57630000Y-38910000D01*
X63870000Y-38910000D02*
X63870000Y-41590000D01*
X83164214Y-40250000D02*
G75*
G03X83164214Y-40250000I-1414214J0D01*
G01*
X78780000Y-43370000D02*
X84720000Y-43370000D01*
X78780000Y-37130000D02*
X84720000Y-37130000D01*
X78630000Y-41590000D02*
X78630000Y-38910000D01*
X84870000Y-38910000D02*
X84870000Y-41590000D01*
X20164214Y-40250000D02*
G75*
G03X20164214Y-40250000I-1414214J0D01*
G01*
X15780000Y-43370000D02*
X21720000Y-43370000D01*
X15780000Y-37130000D02*
X21720000Y-37130000D01*
X15630000Y-41590000D02*
X15630000Y-38910000D01*
X21870000Y-38910000D02*
X21870000Y-41590000D01*
X79164214Y-97750000D02*
G75*
G03X79164214Y-97750000I-1414214J0D01*
G01*
X80720000Y-94630000D02*
X74780000Y-94630000D01*
X80720000Y-100870000D02*
X74780000Y-100870000D01*
X80870000Y-96410000D02*
X80870000Y-99090000D01*
X74630000Y-99090000D02*
X74630000Y-96410000D01*
D13*
X39700000Y-13500000D02*
X77300000Y-13500000D01*
X77300000Y-13500000D02*
X77300000Y-32500000D01*
X39700000Y-32500000D02*
X77300000Y-32500000D01*
X39700000Y-13500000D02*
X39700000Y-32500000D01*
D12*
X14670000Y-82440000D02*
X14670000Y-84090000D01*
X50350000Y-82440000D02*
X14670000Y-82440000D01*
X50350000Y-87740000D02*
X50350000Y-82440000D01*
X14670000Y-87740000D02*
X50350000Y-87740000D01*
X14670000Y-86090000D02*
X14670000Y-87740000D01*
X14670000Y-84090000D02*
G75*
G02X14670000Y-86090000I0J-1000000D01*
G01*
X39600000Y-104740000D02*
X39600000Y-103670000D01*
X39600000Y-98880000D02*
X39600000Y-99950000D01*
X40460000Y-103670000D02*
X40460000Y-99950000D01*
X38740000Y-103670000D02*
X40460000Y-103670000D01*
X38740000Y-99950000D02*
X38740000Y-103670000D01*
X40460000Y-99950000D02*
X38740000Y-99950000D01*
X63100000Y-81650000D02*
X63100000Y-80350000D01*
X63700000Y-81000000D02*
X62500000Y-81000000D01*
X57049000Y-81468000D02*
X57049000Y-80532000D01*
X57089000Y-81676000D02*
X57089000Y-80324000D01*
X57129000Y-81834000D02*
X57129000Y-80166000D01*
X57169000Y-81966000D02*
X57169000Y-80034000D01*
X57209000Y-82081000D02*
X57209000Y-79919000D01*
X57249000Y-82184000D02*
X57249000Y-79816000D01*
X57289000Y-82278000D02*
X57289000Y-79722000D01*
X57329000Y-82364000D02*
X57329000Y-79636000D01*
X57369000Y-82445000D02*
X57369000Y-79555000D01*
X57409000Y-82520000D02*
X57409000Y-79480000D01*
X57449000Y-82591000D02*
X57449000Y-79409000D01*
X57489000Y-82658000D02*
X57489000Y-79342000D01*
X57529000Y-82721000D02*
X57529000Y-79279000D01*
X57569000Y-82781000D02*
X57569000Y-79219000D01*
X57609000Y-82839000D02*
X57609000Y-79161000D01*
X57649000Y-82894000D02*
X57649000Y-79106000D01*
X57689000Y-82946000D02*
X57689000Y-79054000D01*
X57729000Y-82997000D02*
X57729000Y-79003000D01*
X57769000Y-83045000D02*
X57769000Y-78955000D01*
X57809000Y-83092000D02*
X57809000Y-78908000D01*
X57849000Y-83137000D02*
X57849000Y-78863000D01*
X57889000Y-83180000D02*
X57889000Y-78820000D01*
X57929000Y-83222000D02*
X57929000Y-78778000D01*
X57969000Y-83262000D02*
X57969000Y-78738000D01*
X58009000Y-83301000D02*
X58009000Y-78699000D01*
X58049000Y-80020000D02*
X58049000Y-78661000D01*
X58049000Y-83339000D02*
X58049000Y-81980000D01*
X58089000Y-80020000D02*
X58089000Y-78625000D01*
X58089000Y-83375000D02*
X58089000Y-81980000D01*
X58129000Y-80020000D02*
X58129000Y-78589000D01*
X58129000Y-83411000D02*
X58129000Y-81980000D01*
X58169000Y-80020000D02*
X58169000Y-78555000D01*
X58169000Y-83445000D02*
X58169000Y-81980000D01*
X58209000Y-80020000D02*
X58209000Y-78522000D01*
X58209000Y-83478000D02*
X58209000Y-81980000D01*
X58249000Y-80020000D02*
X58249000Y-78490000D01*
X58249000Y-83510000D02*
X58249000Y-81980000D01*
X58289000Y-80020000D02*
X58289000Y-78460000D01*
X58289000Y-83540000D02*
X58289000Y-81980000D01*
X58329000Y-80020000D02*
X58329000Y-78430000D01*
X58329000Y-83570000D02*
X58329000Y-81980000D01*
X58369000Y-80020000D02*
X58369000Y-78401000D01*
X58369000Y-83599000D02*
X58369000Y-81980000D01*
X58409000Y-80020000D02*
X58409000Y-78373000D01*
X58409000Y-83627000D02*
X58409000Y-81980000D01*
X58449000Y-80020000D02*
X58449000Y-78346000D01*
X58449000Y-83654000D02*
X58449000Y-81980000D01*
X58489000Y-80020000D02*
X58489000Y-78319000D01*
X58489000Y-83681000D02*
X58489000Y-81980000D01*
X58529000Y-80020000D02*
X58529000Y-78294000D01*
X58529000Y-83706000D02*
X58529000Y-81980000D01*
X58569000Y-80020000D02*
X58569000Y-78269000D01*
X58569000Y-83731000D02*
X58569000Y-81980000D01*
X58609000Y-80020000D02*
X58609000Y-78245000D01*
X58609000Y-83755000D02*
X58609000Y-81980000D01*
X58649000Y-80020000D02*
X58649000Y-78222000D01*
X58649000Y-83778000D02*
X58649000Y-81980000D01*
X58689000Y-80020000D02*
X58689000Y-78200000D01*
X58689000Y-83800000D02*
X58689000Y-81980000D01*
X58729000Y-80020000D02*
X58729000Y-78178000D01*
X58729000Y-83822000D02*
X58729000Y-81980000D01*
X58769000Y-80020000D02*
X58769000Y-78157000D01*
X58769000Y-83843000D02*
X58769000Y-81980000D01*
X58809000Y-80020000D02*
X58809000Y-78137000D01*
X58809000Y-83863000D02*
X58809000Y-81980000D01*
X58849000Y-80020000D02*
X58849000Y-78118000D01*
X58849000Y-83882000D02*
X58849000Y-81980000D01*
X58889000Y-80020000D02*
X58889000Y-78099000D01*
X58889000Y-83901000D02*
X58889000Y-81980000D01*
X58929000Y-80020000D02*
X58929000Y-78081000D01*
X58929000Y-83919000D02*
X58929000Y-81980000D01*
X58969000Y-80020000D02*
X58969000Y-78063000D01*
X58969000Y-83937000D02*
X58969000Y-81980000D01*
X59009000Y-80020000D02*
X59009000Y-78046000D01*
X59009000Y-83954000D02*
X59009000Y-81980000D01*
X59049000Y-80020000D02*
X59049000Y-78030000D01*
X59049000Y-83970000D02*
X59049000Y-81980000D01*
X59089000Y-80020000D02*
X59089000Y-78014000D01*
X59089000Y-83986000D02*
X59089000Y-81980000D01*
X59129000Y-80020000D02*
X59129000Y-77999000D01*
X59129000Y-84001000D02*
X59129000Y-81980000D01*
X59169000Y-80020000D02*
X59169000Y-77985000D01*
X59169000Y-84015000D02*
X59169000Y-81980000D01*
X59209000Y-80020000D02*
X59209000Y-77971000D01*
X59209000Y-84029000D02*
X59209000Y-81980000D01*
X59249000Y-80020000D02*
X59249000Y-77958000D01*
X59249000Y-84042000D02*
X59249000Y-81980000D01*
X59289000Y-80020000D02*
X59289000Y-77945000D01*
X59289000Y-84055000D02*
X59289000Y-81980000D01*
X59329000Y-80020000D02*
X59329000Y-77933000D01*
X59329000Y-84067000D02*
X59329000Y-81980000D01*
X59369000Y-80020000D02*
X59369000Y-77921000D01*
X59369000Y-84079000D02*
X59369000Y-81980000D01*
X59409000Y-80020000D02*
X59409000Y-77910000D01*
X59409000Y-84090000D02*
X59409000Y-81980000D01*
X59449000Y-80020000D02*
X59449000Y-77900000D01*
X59449000Y-84100000D02*
X59449000Y-81980000D01*
X59489000Y-80020000D02*
X59489000Y-77890000D01*
X59489000Y-84110000D02*
X59489000Y-81980000D01*
X59529000Y-80020000D02*
X59529000Y-77881000D01*
X59529000Y-84119000D02*
X59529000Y-81980000D01*
X59570000Y-80020000D02*
X59570000Y-77872000D01*
X59570000Y-84128000D02*
X59570000Y-81980000D01*
X59610000Y-80020000D02*
X59610000Y-77863000D01*
X59610000Y-84137000D02*
X59610000Y-81980000D01*
X59650000Y-80020000D02*
X59650000Y-77856000D01*
X59650000Y-84144000D02*
X59650000Y-81980000D01*
X59690000Y-80020000D02*
X59690000Y-77848000D01*
X59690000Y-84152000D02*
X59690000Y-81980000D01*
X59730000Y-80020000D02*
X59730000Y-77842000D01*
X59730000Y-84158000D02*
X59730000Y-81980000D01*
X59770000Y-80020000D02*
X59770000Y-77835000D01*
X59770000Y-84165000D02*
X59770000Y-81980000D01*
X59810000Y-80020000D02*
X59810000Y-77830000D01*
X59810000Y-84170000D02*
X59810000Y-81980000D01*
X59850000Y-80020000D02*
X59850000Y-77824000D01*
X59850000Y-84176000D02*
X59850000Y-81980000D01*
X59890000Y-80020000D02*
X59890000Y-77820000D01*
X59890000Y-84180000D02*
X59890000Y-81980000D01*
X59930000Y-80020000D02*
X59930000Y-77815000D01*
X59930000Y-84185000D02*
X59930000Y-81980000D01*
X59970000Y-80020000D02*
X59970000Y-77812000D01*
X59970000Y-84188000D02*
X59970000Y-81980000D01*
X60010000Y-84192000D02*
X60010000Y-77808000D01*
X60050000Y-84194000D02*
X60050000Y-77806000D01*
X60090000Y-84197000D02*
X60090000Y-77803000D01*
X60130000Y-84198000D02*
X60130000Y-77802000D01*
X60170000Y-84200000D02*
X60170000Y-77800000D01*
X60210000Y-84200000D02*
X60210000Y-77800000D01*
X60250000Y-84200000D02*
X60250000Y-77800000D01*
X57232180Y-79820864D02*
G75*
G03X57232518Y-82180000I3017820J-1179136D01*
G01*
X57232180Y-79820864D02*
G75*
G02X63267482Y-79820000I3017820J-1179136D01*
G01*
X57232180Y-82179136D02*
G75*
G03X63267482Y-82180000I3017820J1179136D01*
G01*
X24500000Y-20500000D02*
X24500000Y-19500000D01*
X24000000Y-20000000D02*
X25000000Y-20000000D01*
X20400000Y-27200000D02*
X20700000Y-27500000D01*
X20400000Y-27800000D02*
X20400000Y-27200000D01*
X20700000Y-27500000D02*
X20400000Y-27800000D01*
X18200000Y-26700000D02*
X20700000Y-26700000D01*
X18200000Y-21900000D02*
X18200000Y-26700000D01*
X30800000Y-26700000D02*
X28000000Y-26700000D01*
X30800000Y-21800000D02*
X30800000Y-26700000D01*
X30800000Y-13300000D02*
X30800000Y-18200000D01*
X18200000Y-13300000D02*
X30800000Y-13300000D01*
X18200000Y-18200000D02*
X18200000Y-13300000D01*
X27500000Y-20000000D02*
G75*
G03X27500000Y-20000000I-3000000J0D01*
G01*
X55360000Y-36800000D02*
X53640000Y-36800000D01*
X53640000Y-36800000D02*
X53640000Y-40520000D01*
X53640000Y-40520000D02*
X55360000Y-40520000D01*
X55360000Y-40520000D02*
X55360000Y-36800000D01*
X54500000Y-35730000D02*
X54500000Y-36800000D01*
X54500000Y-41590000D02*
X54500000Y-40520000D01*
X50500000Y-41590000D02*
X50500000Y-40520000D01*
X50500000Y-35730000D02*
X50500000Y-36800000D01*
X51360000Y-40520000D02*
X51360000Y-36800000D01*
X49640000Y-40520000D02*
X51360000Y-40520000D01*
X49640000Y-36800000D02*
X49640000Y-40520000D01*
X51360000Y-36800000D02*
X49640000Y-36800000D01*
X47360000Y-36800000D02*
X45640000Y-36800000D01*
X45640000Y-36800000D02*
X45640000Y-40520000D01*
X45640000Y-40520000D02*
X47360000Y-40520000D01*
X47360000Y-40520000D02*
X47360000Y-36800000D01*
X46500000Y-35730000D02*
X46500000Y-36800000D01*
X46500000Y-41590000D02*
X46500000Y-40520000D01*
X81740000Y-93000000D02*
X80670000Y-93000000D01*
X75880000Y-93000000D02*
X76950000Y-93000000D01*
X80670000Y-92140000D02*
X76950000Y-92140000D01*
X80670000Y-93860000D02*
X80670000Y-92140000D01*
X76950000Y-93860000D02*
X80670000Y-93860000D01*
X76950000Y-92140000D02*
X76950000Y-93860000D01*
X33690000Y-103650000D02*
X35410000Y-103650000D01*
X35410000Y-103650000D02*
X35410000Y-99930000D01*
X35410000Y-99930000D02*
X33690000Y-99930000D01*
X33690000Y-99930000D02*
X33690000Y-103650000D01*
X34550000Y-104720000D02*
X34550000Y-103650000D01*
X34550000Y-98860000D02*
X34550000Y-99930000D01*
X32050000Y-104690000D02*
X32050000Y-103620000D01*
X32050000Y-98830000D02*
X32050000Y-99900000D01*
X32910000Y-103620000D02*
X32910000Y-99900000D01*
X31190000Y-103620000D02*
X32910000Y-103620000D01*
X31190000Y-99900000D02*
X31190000Y-103620000D01*
X32910000Y-99900000D02*
X31190000Y-99900000D01*
X42910000Y-99900000D02*
X41190000Y-99900000D01*
X41190000Y-99900000D02*
X41190000Y-103620000D01*
X41190000Y-103620000D02*
X42910000Y-103620000D01*
X42910000Y-103620000D02*
X42910000Y-99900000D01*
X42050000Y-98830000D02*
X42050000Y-99900000D01*
X42050000Y-104690000D02*
X42050000Y-103620000D01*
X92660000Y-117850000D02*
X92660000Y-116130000D01*
X92660000Y-116130000D02*
X88940000Y-116130000D01*
X88940000Y-116130000D02*
X88940000Y-117850000D01*
X88940000Y-117850000D02*
X92660000Y-117850000D01*
X93730000Y-116990000D02*
X92660000Y-116990000D01*
X87870000Y-116990000D02*
X88940000Y-116990000D01*
X87900000Y-119770000D02*
X88970000Y-119770000D01*
X93760000Y-119770000D02*
X92690000Y-119770000D01*
X88970000Y-120630000D02*
X92690000Y-120630000D01*
X88970000Y-118910000D02*
X88970000Y-120630000D01*
X92690000Y-118910000D02*
X88970000Y-118910000D01*
X92690000Y-120630000D02*
X92690000Y-118910000D01*
X43590000Y-103650000D02*
X45310000Y-103650000D01*
X45310000Y-103650000D02*
X45310000Y-99930000D01*
X45310000Y-99930000D02*
X43590000Y-99930000D01*
X43590000Y-99930000D02*
X43590000Y-103650000D01*
X44450000Y-104720000D02*
X44450000Y-103650000D01*
X44450000Y-98860000D02*
X44450000Y-99930000D01*
X97290000Y-58770000D02*
X97290000Y-59840000D01*
X97290000Y-64630000D02*
X97290000Y-63560000D01*
X96430000Y-59840000D02*
X96430000Y-63560000D01*
X98150000Y-59840000D02*
X96430000Y-59840000D01*
X98150000Y-63560000D02*
X98150000Y-59840000D01*
X96430000Y-63560000D02*
X98150000Y-63560000D01*
X98190000Y-69600000D02*
X96470000Y-69600000D01*
X96470000Y-69600000D02*
X96470000Y-73320000D01*
X96470000Y-73320000D02*
X98190000Y-73320000D01*
X98190000Y-73320000D02*
X98190000Y-69600000D01*
X97330000Y-68530000D02*
X97330000Y-69600000D01*
X97330000Y-74390000D02*
X97330000Y-73320000D01*
X70000000Y-82510000D02*
X70000000Y-83580000D01*
X70000000Y-88370000D02*
X70000000Y-87300000D01*
X69140000Y-83580000D02*
X69140000Y-87300000D01*
X70860000Y-83580000D02*
X69140000Y-83580000D01*
X70860000Y-87300000D02*
X70860000Y-83580000D01*
X69140000Y-87300000D02*
X70860000Y-87300000D01*
X71640000Y-87300000D02*
X73360000Y-87300000D01*
X73360000Y-87300000D02*
X73360000Y-83580000D01*
X73360000Y-83580000D02*
X71640000Y-83580000D01*
X71640000Y-83580000D02*
X71640000Y-87300000D01*
X72500000Y-88370000D02*
X72500000Y-87300000D01*
X72500000Y-82510000D02*
X72500000Y-83580000D01*
X69760000Y-34000000D02*
X70830000Y-34000000D01*
X75620000Y-34000000D02*
X74550000Y-34000000D01*
X70830000Y-34860000D02*
X74550000Y-34860000D01*
X70830000Y-33140000D02*
X70830000Y-34860000D01*
X74550000Y-33140000D02*
X70830000Y-33140000D01*
X74550000Y-34860000D02*
X74550000Y-33140000D01*
X78800000Y-21640000D02*
X80520000Y-21640000D01*
X80520000Y-21640000D02*
X80520000Y-17920000D01*
X80520000Y-17920000D02*
X78800000Y-17920000D01*
X78800000Y-17920000D02*
X78800000Y-21640000D01*
X79660000Y-22710000D02*
X79660000Y-21640000D01*
X79660000Y-16850000D02*
X79660000Y-17920000D01*
X89826664Y-16850000D02*
X89826664Y-17920000D01*
X89826664Y-22710000D02*
X89826664Y-21640000D01*
X88966664Y-17920000D02*
X88966664Y-21640000D01*
X90686664Y-17920000D02*
X88966664Y-17920000D01*
X90686664Y-21640000D02*
X90686664Y-17920000D01*
X88966664Y-21640000D02*
X90686664Y-21640000D01*
X86424998Y-21640000D02*
X88144998Y-21640000D01*
X88144998Y-21640000D02*
X88144998Y-17920000D01*
X88144998Y-17920000D02*
X86424998Y-17920000D01*
X86424998Y-17920000D02*
X86424998Y-21640000D01*
X87284998Y-22710000D02*
X87284998Y-21640000D01*
X87284998Y-16850000D02*
X87284998Y-17920000D01*
X84743332Y-16850000D02*
X84743332Y-17920000D01*
X84743332Y-22710000D02*
X84743332Y-21640000D01*
X83883332Y-17920000D02*
X83883332Y-21640000D01*
X85603332Y-17920000D02*
X83883332Y-17920000D01*
X85603332Y-21640000D02*
X85603332Y-17920000D01*
X83883332Y-21640000D02*
X85603332Y-21640000D01*
X81341666Y-21640000D02*
X83061666Y-21640000D01*
X83061666Y-21640000D02*
X83061666Y-17920000D01*
X83061666Y-17920000D02*
X81341666Y-17920000D01*
X81341666Y-17920000D02*
X81341666Y-21640000D01*
X82201666Y-22710000D02*
X82201666Y-21640000D01*
X82201666Y-16850000D02*
X82201666Y-17920000D01*
X29500000Y-104690000D02*
X29500000Y-103620000D01*
X29500000Y-98830000D02*
X29500000Y-99900000D01*
X30360000Y-103620000D02*
X30360000Y-99900000D01*
X28640000Y-103620000D02*
X30360000Y-103620000D01*
X28640000Y-99900000D02*
X28640000Y-103620000D01*
X30360000Y-99900000D02*
X28640000Y-99900000D01*
X94050000Y-21640000D02*
X95770000Y-21640000D01*
X95770000Y-21640000D02*
X95770000Y-17920000D01*
X95770000Y-17920000D02*
X94050000Y-17920000D01*
X94050000Y-17920000D02*
X94050000Y-21640000D01*
X94910000Y-22710000D02*
X94910000Y-21640000D01*
X94910000Y-16850000D02*
X94910000Y-17920000D01*
X92368330Y-16850000D02*
X92368330Y-17920000D01*
X92368330Y-22710000D02*
X92368330Y-21640000D01*
X91508330Y-17920000D02*
X91508330Y-21640000D01*
X93228330Y-17920000D02*
X91508330Y-17920000D01*
X93228330Y-21640000D02*
X93228330Y-17920000D01*
X91508330Y-21640000D02*
X93228330Y-21640000D01*
X99060000Y-96310000D02*
X96440000Y-96310000D01*
X99060000Y-91190000D02*
X96440000Y-91190000D01*
X96440000Y-91190000D02*
X96440000Y-96310000D01*
X99060000Y-91190000D02*
X99060000Y-96310000D01*
X108100000Y-94650000D02*
X108100000Y-93350000D01*
X108700000Y-94000000D02*
X107500000Y-94000000D01*
X102049000Y-94468000D02*
X102049000Y-93532000D01*
X102089000Y-94676000D02*
X102089000Y-93324000D01*
X102129000Y-94834000D02*
X102129000Y-93166000D01*
X102169000Y-94966000D02*
X102169000Y-93034000D01*
X102209000Y-95081000D02*
X102209000Y-92919000D01*
X102249000Y-95184000D02*
X102249000Y-92816000D01*
X102289000Y-95278000D02*
X102289000Y-92722000D01*
X102329000Y-95364000D02*
X102329000Y-92636000D01*
X102369000Y-95445000D02*
X102369000Y-92555000D01*
X102409000Y-95520000D02*
X102409000Y-92480000D01*
X102449000Y-95591000D02*
X102449000Y-92409000D01*
X102489000Y-95658000D02*
X102489000Y-92342000D01*
X102529000Y-95721000D02*
X102529000Y-92279000D01*
X102569000Y-95781000D02*
X102569000Y-92219000D01*
X102609000Y-95839000D02*
X102609000Y-92161000D01*
X102649000Y-95894000D02*
X102649000Y-92106000D01*
X102689000Y-95946000D02*
X102689000Y-92054000D01*
X102729000Y-95997000D02*
X102729000Y-92003000D01*
X102769000Y-96045000D02*
X102769000Y-91955000D01*
X102809000Y-96092000D02*
X102809000Y-91908000D01*
X102849000Y-96137000D02*
X102849000Y-91863000D01*
X102889000Y-96180000D02*
X102889000Y-91820000D01*
X102929000Y-96222000D02*
X102929000Y-91778000D01*
X102969000Y-96262000D02*
X102969000Y-91738000D01*
X103009000Y-96301000D02*
X103009000Y-91699000D01*
X103049000Y-93020000D02*
X103049000Y-91661000D01*
X103049000Y-96339000D02*
X103049000Y-94980000D01*
X103089000Y-93020000D02*
X103089000Y-91625000D01*
X103089000Y-96375000D02*
X103089000Y-94980000D01*
X103129000Y-93020000D02*
X103129000Y-91589000D01*
X103129000Y-96411000D02*
X103129000Y-94980000D01*
X103169000Y-93020000D02*
X103169000Y-91555000D01*
X103169000Y-96445000D02*
X103169000Y-94980000D01*
X103209000Y-93020000D02*
X103209000Y-91522000D01*
X103209000Y-96478000D02*
X103209000Y-94980000D01*
X103249000Y-93020000D02*
X103249000Y-91490000D01*
X103249000Y-96510000D02*
X103249000Y-94980000D01*
X103289000Y-93020000D02*
X103289000Y-91460000D01*
X103289000Y-96540000D02*
X103289000Y-94980000D01*
X103329000Y-93020000D02*
X103329000Y-91430000D01*
X103329000Y-96570000D02*
X103329000Y-94980000D01*
X103369000Y-93020000D02*
X103369000Y-91401000D01*
X103369000Y-96599000D02*
X103369000Y-94980000D01*
X103409000Y-93020000D02*
X103409000Y-91373000D01*
X103409000Y-96627000D02*
X103409000Y-94980000D01*
X103449000Y-93020000D02*
X103449000Y-91346000D01*
X103449000Y-96654000D02*
X103449000Y-94980000D01*
X103489000Y-93020000D02*
X103489000Y-91319000D01*
X103489000Y-96681000D02*
X103489000Y-94980000D01*
X103529000Y-93020000D02*
X103529000Y-91294000D01*
X103529000Y-96706000D02*
X103529000Y-94980000D01*
X103569000Y-93020000D02*
X103569000Y-91269000D01*
X103569000Y-96731000D02*
X103569000Y-94980000D01*
X103609000Y-93020000D02*
X103609000Y-91245000D01*
X103609000Y-96755000D02*
X103609000Y-94980000D01*
X103649000Y-93020000D02*
X103649000Y-91222000D01*
X103649000Y-96778000D02*
X103649000Y-94980000D01*
X103689000Y-93020000D02*
X103689000Y-91200000D01*
X103689000Y-96800000D02*
X103689000Y-94980000D01*
X103729000Y-93020000D02*
X103729000Y-91178000D01*
X103729000Y-96822000D02*
X103729000Y-94980000D01*
X103769000Y-93020000D02*
X103769000Y-91157000D01*
X103769000Y-96843000D02*
X103769000Y-94980000D01*
X103809000Y-93020000D02*
X103809000Y-91137000D01*
X103809000Y-96863000D02*
X103809000Y-94980000D01*
X103849000Y-93020000D02*
X103849000Y-91118000D01*
X103849000Y-96882000D02*
X103849000Y-94980000D01*
X103889000Y-93020000D02*
X103889000Y-91099000D01*
X103889000Y-96901000D02*
X103889000Y-94980000D01*
X103929000Y-93020000D02*
X103929000Y-91081000D01*
X103929000Y-96919000D02*
X103929000Y-94980000D01*
X103969000Y-93020000D02*
X103969000Y-91063000D01*
X103969000Y-96937000D02*
X103969000Y-94980000D01*
X104009000Y-93020000D02*
X104009000Y-91046000D01*
X104009000Y-96954000D02*
X104009000Y-94980000D01*
X104049000Y-93020000D02*
X104049000Y-91030000D01*
X104049000Y-96970000D02*
X104049000Y-94980000D01*
X104089000Y-93020000D02*
X104089000Y-91014000D01*
X104089000Y-96986000D02*
X104089000Y-94980000D01*
X104129000Y-93020000D02*
X104129000Y-90999000D01*
X104129000Y-97001000D02*
X104129000Y-94980000D01*
X104169000Y-93020000D02*
X104169000Y-90985000D01*
X104169000Y-97015000D02*
X104169000Y-94980000D01*
X104209000Y-93020000D02*
X104209000Y-90971000D01*
X104209000Y-97029000D02*
X104209000Y-94980000D01*
X104249000Y-93020000D02*
X104249000Y-90958000D01*
X104249000Y-97042000D02*
X104249000Y-94980000D01*
X104289000Y-93020000D02*
X104289000Y-90945000D01*
X104289000Y-97055000D02*
X104289000Y-94980000D01*
X104329000Y-93020000D02*
X104329000Y-90933000D01*
X104329000Y-97067000D02*
X104329000Y-94980000D01*
X104369000Y-93020000D02*
X104369000Y-90921000D01*
X104369000Y-97079000D02*
X104369000Y-94980000D01*
X104409000Y-93020000D02*
X104409000Y-90910000D01*
X104409000Y-97090000D02*
X104409000Y-94980000D01*
X104449000Y-93020000D02*
X104449000Y-90900000D01*
X104449000Y-97100000D02*
X104449000Y-94980000D01*
X104489000Y-93020000D02*
X104489000Y-90890000D01*
X104489000Y-97110000D02*
X104489000Y-94980000D01*
X104529000Y-93020000D02*
X104529000Y-90881000D01*
X104529000Y-97119000D02*
X104529000Y-94980000D01*
X104570000Y-93020000D02*
X104570000Y-90872000D01*
X104570000Y-97128000D02*
X104570000Y-94980000D01*
X104610000Y-93020000D02*
X104610000Y-90863000D01*
X104610000Y-97137000D02*
X104610000Y-94980000D01*
X104650000Y-93020000D02*
X104650000Y-90856000D01*
X104650000Y-97144000D02*
X104650000Y-94980000D01*
X104690000Y-93020000D02*
X104690000Y-90848000D01*
X104690000Y-97152000D02*
X104690000Y-94980000D01*
X104730000Y-93020000D02*
X104730000Y-90842000D01*
X104730000Y-97158000D02*
X104730000Y-94980000D01*
X104770000Y-93020000D02*
X104770000Y-90835000D01*
X104770000Y-97165000D02*
X104770000Y-94980000D01*
X104810000Y-93020000D02*
X104810000Y-90830000D01*
X104810000Y-97170000D02*
X104810000Y-94980000D01*
X104850000Y-93020000D02*
X104850000Y-90824000D01*
X104850000Y-97176000D02*
X104850000Y-94980000D01*
X104890000Y-93020000D02*
X104890000Y-90820000D01*
X104890000Y-97180000D02*
X104890000Y-94980000D01*
X104930000Y-93020000D02*
X104930000Y-90815000D01*
X104930000Y-97185000D02*
X104930000Y-94980000D01*
X104970000Y-93020000D02*
X104970000Y-90812000D01*
X104970000Y-97188000D02*
X104970000Y-94980000D01*
X105010000Y-97192000D02*
X105010000Y-90808000D01*
X105050000Y-97194000D02*
X105050000Y-90806000D01*
X105090000Y-97197000D02*
X105090000Y-90803000D01*
X105130000Y-97198000D02*
X105130000Y-90802000D01*
X105170000Y-97200000D02*
X105170000Y-90800000D01*
X105210000Y-97200000D02*
X105210000Y-90800000D01*
X105250000Y-97200000D02*
X105250000Y-90800000D01*
X102232180Y-92820864D02*
G75*
G03X102232518Y-95180000I3017820J-1179136D01*
G01*
X102232180Y-92820864D02*
G75*
G02X108267482Y-92820000I3017820J-1179136D01*
G01*
X102232180Y-95179136D02*
G75*
G03X108267482Y-95180000I3017820J1179136D01*
G01*
X56310000Y-86310000D02*
X51190000Y-86310000D01*
X56310000Y-83690000D02*
X51190000Y-83690000D01*
X56310000Y-86310000D02*
X56310000Y-83690000D01*
X51190000Y-86310000D02*
X51190000Y-83690000D01*
X108400000Y-34600000D02*
X108400000Y-33300000D01*
X109000000Y-33950000D02*
X107800000Y-33950000D01*
X102349000Y-34418000D02*
X102349000Y-33482000D01*
X102389000Y-34626000D02*
X102389000Y-33274000D01*
X102429000Y-34784000D02*
X102429000Y-33116000D01*
X102469000Y-34916000D02*
X102469000Y-32984000D01*
X102509000Y-35031000D02*
X102509000Y-32869000D01*
X102549000Y-35134000D02*
X102549000Y-32766000D01*
X102589000Y-35228000D02*
X102589000Y-32672000D01*
X102629000Y-35314000D02*
X102629000Y-32586000D01*
X102669000Y-35395000D02*
X102669000Y-32505000D01*
X102709000Y-35470000D02*
X102709000Y-32430000D01*
X102749000Y-35541000D02*
X102749000Y-32359000D01*
X102789000Y-35608000D02*
X102789000Y-32292000D01*
X102829000Y-35671000D02*
X102829000Y-32229000D01*
X102869000Y-35731000D02*
X102869000Y-32169000D01*
X102909000Y-35789000D02*
X102909000Y-32111000D01*
X102949000Y-35844000D02*
X102949000Y-32056000D01*
X102989000Y-35896000D02*
X102989000Y-32004000D01*
X103029000Y-35947000D02*
X103029000Y-31953000D01*
X103069000Y-35995000D02*
X103069000Y-31905000D01*
X103109000Y-36042000D02*
X103109000Y-31858000D01*
X103149000Y-36087000D02*
X103149000Y-31813000D01*
X103189000Y-36130000D02*
X103189000Y-31770000D01*
X103229000Y-36172000D02*
X103229000Y-31728000D01*
X103269000Y-36212000D02*
X103269000Y-31688000D01*
X103309000Y-36251000D02*
X103309000Y-31649000D01*
X103349000Y-32970000D02*
X103349000Y-31611000D01*
X103349000Y-36289000D02*
X103349000Y-34930000D01*
X103389000Y-32970000D02*
X103389000Y-31575000D01*
X103389000Y-36325000D02*
X103389000Y-34930000D01*
X103429000Y-32970000D02*
X103429000Y-31539000D01*
X103429000Y-36361000D02*
X103429000Y-34930000D01*
X103469000Y-32970000D02*
X103469000Y-31505000D01*
X103469000Y-36395000D02*
X103469000Y-34930000D01*
X103509000Y-32970000D02*
X103509000Y-31472000D01*
X103509000Y-36428000D02*
X103509000Y-34930000D01*
X103549000Y-32970000D02*
X103549000Y-31440000D01*
X103549000Y-36460000D02*
X103549000Y-34930000D01*
X103589000Y-32970000D02*
X103589000Y-31410000D01*
X103589000Y-36490000D02*
X103589000Y-34930000D01*
X103629000Y-32970000D02*
X103629000Y-31380000D01*
X103629000Y-36520000D02*
X103629000Y-34930000D01*
X103669000Y-32970000D02*
X103669000Y-31351000D01*
X103669000Y-36549000D02*
X103669000Y-34930000D01*
X103709000Y-32970000D02*
X103709000Y-31323000D01*
X103709000Y-36577000D02*
X103709000Y-34930000D01*
X103749000Y-32970000D02*
X103749000Y-31296000D01*
X103749000Y-36604000D02*
X103749000Y-34930000D01*
X103789000Y-32970000D02*
X103789000Y-31269000D01*
X103789000Y-36631000D02*
X103789000Y-34930000D01*
X103829000Y-32970000D02*
X103829000Y-31244000D01*
X103829000Y-36656000D02*
X103829000Y-34930000D01*
X103869000Y-32970000D02*
X103869000Y-31219000D01*
X103869000Y-36681000D02*
X103869000Y-34930000D01*
X103909000Y-32970000D02*
X103909000Y-31195000D01*
X103909000Y-36705000D02*
X103909000Y-34930000D01*
X103949000Y-32970000D02*
X103949000Y-31172000D01*
X103949000Y-36728000D02*
X103949000Y-34930000D01*
X103989000Y-32970000D02*
X103989000Y-31150000D01*
X103989000Y-36750000D02*
X103989000Y-34930000D01*
X104029000Y-32970000D02*
X104029000Y-31128000D01*
X104029000Y-36772000D02*
X104029000Y-34930000D01*
X104069000Y-32970000D02*
X104069000Y-31107000D01*
X104069000Y-36793000D02*
X104069000Y-34930000D01*
X104109000Y-32970000D02*
X104109000Y-31087000D01*
X104109000Y-36813000D02*
X104109000Y-34930000D01*
X104149000Y-32970000D02*
X104149000Y-31068000D01*
X104149000Y-36832000D02*
X104149000Y-34930000D01*
X104189000Y-32970000D02*
X104189000Y-31049000D01*
X104189000Y-36851000D02*
X104189000Y-34930000D01*
X104229000Y-32970000D02*
X104229000Y-31031000D01*
X104229000Y-36869000D02*
X104229000Y-34930000D01*
X104269000Y-32970000D02*
X104269000Y-31013000D01*
X104269000Y-36887000D02*
X104269000Y-34930000D01*
X104309000Y-32970000D02*
X104309000Y-30996000D01*
X104309000Y-36904000D02*
X104309000Y-34930000D01*
X104349000Y-32970000D02*
X104349000Y-30980000D01*
X104349000Y-36920000D02*
X104349000Y-34930000D01*
X104389000Y-32970000D02*
X104389000Y-30964000D01*
X104389000Y-36936000D02*
X104389000Y-34930000D01*
X104429000Y-32970000D02*
X104429000Y-30949000D01*
X104429000Y-36951000D02*
X104429000Y-34930000D01*
X104469000Y-32970000D02*
X104469000Y-30935000D01*
X104469000Y-36965000D02*
X104469000Y-34930000D01*
X104509000Y-32970000D02*
X104509000Y-30921000D01*
X104509000Y-36979000D02*
X104509000Y-34930000D01*
X104549000Y-32970000D02*
X104549000Y-30908000D01*
X104549000Y-36992000D02*
X104549000Y-34930000D01*
X104589000Y-32970000D02*
X104589000Y-30895000D01*
X104589000Y-37005000D02*
X104589000Y-34930000D01*
X104629000Y-32970000D02*
X104629000Y-30883000D01*
X104629000Y-37017000D02*
X104629000Y-34930000D01*
X104669000Y-32970000D02*
X104669000Y-30871000D01*
X104669000Y-37029000D02*
X104669000Y-34930000D01*
X104709000Y-32970000D02*
X104709000Y-30860000D01*
X104709000Y-37040000D02*
X104709000Y-34930000D01*
X104749000Y-32970000D02*
X104749000Y-30850000D01*
X104749000Y-37050000D02*
X104749000Y-34930000D01*
X104789000Y-32970000D02*
X104789000Y-30840000D01*
X104789000Y-37060000D02*
X104789000Y-34930000D01*
X104829000Y-32970000D02*
X104829000Y-30831000D01*
X104829000Y-37069000D02*
X104829000Y-34930000D01*
X104870000Y-32970000D02*
X104870000Y-30822000D01*
X104870000Y-37078000D02*
X104870000Y-34930000D01*
X104910000Y-32970000D02*
X104910000Y-30813000D01*
X104910000Y-37087000D02*
X104910000Y-34930000D01*
X104950000Y-32970000D02*
X104950000Y-30806000D01*
X104950000Y-37094000D02*
X104950000Y-34930000D01*
X104990000Y-32970000D02*
X104990000Y-30798000D01*
X104990000Y-37102000D02*
X104990000Y-34930000D01*
X105030000Y-32970000D02*
X105030000Y-30792000D01*
X105030000Y-37108000D02*
X105030000Y-34930000D01*
X105070000Y-32970000D02*
X105070000Y-30785000D01*
X105070000Y-37115000D02*
X105070000Y-34930000D01*
X105110000Y-32970000D02*
X105110000Y-30780000D01*
X105110000Y-37120000D02*
X105110000Y-34930000D01*
X105150000Y-32970000D02*
X105150000Y-30774000D01*
X105150000Y-37126000D02*
X105150000Y-34930000D01*
X105190000Y-32970000D02*
X105190000Y-30770000D01*
X105190000Y-37130000D02*
X105190000Y-34930000D01*
X105230000Y-32970000D02*
X105230000Y-30765000D01*
X105230000Y-37135000D02*
X105230000Y-34930000D01*
X105270000Y-32970000D02*
X105270000Y-30762000D01*
X105270000Y-37138000D02*
X105270000Y-34930000D01*
X105310000Y-37142000D02*
X105310000Y-30758000D01*
X105350000Y-37144000D02*
X105350000Y-30756000D01*
X105390000Y-37147000D02*
X105390000Y-30753000D01*
X105430000Y-37148000D02*
X105430000Y-30752000D01*
X105470000Y-37150000D02*
X105470000Y-30750000D01*
X105510000Y-37150000D02*
X105510000Y-30750000D01*
X105550000Y-37150000D02*
X105550000Y-30750000D01*
X102532180Y-32770864D02*
G75*
G03X102532518Y-35130000I3017820J-1179136D01*
G01*
X102532180Y-32770864D02*
G75*
G02X108567482Y-32770000I3017820J-1179136D01*
G01*
X102532180Y-35129136D02*
G75*
G03X108567482Y-35130000I3017820J1179136D01*
G01*
X101310000Y-39690000D02*
X101310000Y-42310000D01*
X96190000Y-39690000D02*
X96190000Y-42310000D01*
X96190000Y-42310000D02*
X101310000Y-42310000D01*
X96190000Y-39690000D02*
X101310000Y-39690000D01*
D13*
X17231000Y-52264000D02*
X17231000Y-52064000D01*
X17231000Y-49670000D02*
X17231000Y-49850000D01*
X20458744Y-49980357D02*
G75*
G03X17231000Y-49664000I-1727744J-1003643D01*
G01*
X19783006Y-49850932D02*
G75*
G03X17680000Y-49850000I-1052006J-1133068D01*
G01*
X17243780Y-52290726D02*
G75*
G03X20481000Y-51944000I1497220J1306726D01*
G01*
X17717111Y-52063253D02*
G75*
G03X19765000Y-52044000I1013889J1079253D01*
G01*
X27647326Y-52264000D02*
X27647326Y-52064000D01*
X27647326Y-49670000D02*
X27647326Y-49850000D01*
X30875070Y-49980357D02*
G75*
G03X27647326Y-49664000I-1727744J-1003643D01*
G01*
X30199332Y-49850932D02*
G75*
G03X28096326Y-49850000I-1052006J-1133068D01*
G01*
X27660106Y-52290726D02*
G75*
G03X30897326Y-51944000I1497220J1306726D01*
G01*
X28133437Y-52063253D02*
G75*
G03X30181326Y-52044000I1013889J1079253D01*
G01*
X38549763Y-52063253D02*
G75*
G03X40597652Y-52044000I1013889J1079253D01*
G01*
X38076432Y-52290726D02*
G75*
G03X41313652Y-51944000I1497220J1306726D01*
G01*
X40615658Y-49850932D02*
G75*
G03X38512652Y-49850000I-1052006J-1133068D01*
G01*
X41291396Y-49980357D02*
G75*
G03X38063652Y-49664000I-1727744J-1003643D01*
G01*
X38063652Y-49670000D02*
X38063652Y-49850000D01*
X38063652Y-52264000D02*
X38063652Y-52064000D01*
X48966089Y-52063253D02*
G75*
G03X51013978Y-52044000I1013889J1079253D01*
G01*
X48492758Y-52290726D02*
G75*
G03X51729978Y-51944000I1497220J1306726D01*
G01*
X51031984Y-49850932D02*
G75*
G03X48928978Y-49850000I-1052006J-1133068D01*
G01*
X51707722Y-49980357D02*
G75*
G03X48479978Y-49664000I-1727744J-1003643D01*
G01*
X48479978Y-49670000D02*
X48479978Y-49850000D01*
X48479978Y-52264000D02*
X48479978Y-52064000D01*
X90145284Y-52264000D02*
X90145284Y-52064000D01*
X90145284Y-49670000D02*
X90145284Y-49850000D01*
X93373028Y-49980357D02*
G75*
G03X90145284Y-49664000I-1727744J-1003643D01*
G01*
X92697290Y-49850932D02*
G75*
G03X90594284Y-49850000I-1052006J-1133068D01*
G01*
X90158064Y-52290726D02*
G75*
G03X93395284Y-51944000I1497220J1306726D01*
G01*
X90631395Y-52063253D02*
G75*
G03X92679284Y-52044000I1013889J1079253D01*
G01*
X79728956Y-52264000D02*
X79728956Y-52064000D01*
X79728956Y-49670000D02*
X79728956Y-49850000D01*
X82956700Y-49980357D02*
G75*
G03X79728956Y-49664000I-1727744J-1003643D01*
G01*
X82280962Y-49850932D02*
G75*
G03X80177956Y-49850000I-1052006J-1133068D01*
G01*
X79741736Y-52290726D02*
G75*
G03X82978956Y-51944000I1497220J1306726D01*
G01*
X80215067Y-52063253D02*
G75*
G03X82262956Y-52044000I1013889J1079253D01*
G01*
X69312630Y-52264000D02*
X69312630Y-52064000D01*
X69312630Y-49670000D02*
X69312630Y-49850000D01*
X72540374Y-49980357D02*
G75*
G03X69312630Y-49664000I-1727744J-1003643D01*
G01*
X71864636Y-49850932D02*
G75*
G03X69761630Y-49850000I-1052006J-1133068D01*
G01*
X69325410Y-52290726D02*
G75*
G03X72562630Y-51944000I1497220J1306726D01*
G01*
X69798741Y-52063253D02*
G75*
G03X71846630Y-52044000I1013889J1079253D01*
G01*
X58896304Y-52264000D02*
X58896304Y-52064000D01*
X58896304Y-49670000D02*
X58896304Y-49850000D01*
X62124048Y-49980357D02*
G75*
G03X58896304Y-49664000I-1727744J-1003643D01*
G01*
X61448310Y-49850932D02*
G75*
G03X59345304Y-49850000I-1052006J-1133068D01*
G01*
X58909084Y-52290726D02*
G75*
G03X62146304Y-51944000I1497220J1306726D01*
G01*
X59382415Y-52063253D02*
G75*
G03X61430304Y-52044000I1013889J1079253D01*
G01*
X17231000Y-67764000D02*
X17231000Y-67564000D01*
X17231000Y-65170000D02*
X17231000Y-65350000D01*
X20458744Y-65480357D02*
G75*
G03X17231000Y-65164000I-1727744J-1003643D01*
G01*
X19783006Y-65350932D02*
G75*
G03X17680000Y-65350000I-1052006J-1133068D01*
G01*
X17243780Y-67790726D02*
G75*
G03X20481000Y-67444000I1497220J1306726D01*
G01*
X17717111Y-67563253D02*
G75*
G03X19765000Y-67544000I1013889J1079253D01*
G01*
X27647326Y-67764000D02*
X27647326Y-67564000D01*
X27647326Y-65170000D02*
X27647326Y-65350000D01*
X30875070Y-65480357D02*
G75*
G03X27647326Y-65164000I-1727744J-1003643D01*
G01*
X30199332Y-65350932D02*
G75*
G03X28096326Y-65350000I-1052006J-1133068D01*
G01*
X27660106Y-67790726D02*
G75*
G03X30897326Y-67444000I1497220J1306726D01*
G01*
X28133437Y-67563253D02*
G75*
G03X30181326Y-67544000I1013889J1079253D01*
G01*
X38063652Y-67764000D02*
X38063652Y-67564000D01*
X38063652Y-65170000D02*
X38063652Y-65350000D01*
X41291396Y-65480357D02*
G75*
G03X38063652Y-65164000I-1727744J-1003643D01*
G01*
X40615658Y-65350932D02*
G75*
G03X38512652Y-65350000I-1052006J-1133068D01*
G01*
X38076432Y-67790726D02*
G75*
G03X41313652Y-67444000I1497220J1306726D01*
G01*
X38549763Y-67563253D02*
G75*
G03X40597652Y-67544000I1013889J1079253D01*
G01*
X48479978Y-67764000D02*
X48479978Y-67564000D01*
X48479978Y-65170000D02*
X48479978Y-65350000D01*
X51707722Y-65480357D02*
G75*
G03X48479978Y-65164000I-1727744J-1003643D01*
G01*
X51031984Y-65350932D02*
G75*
G03X48928978Y-65350000I-1052006J-1133068D01*
G01*
X48492758Y-67790726D02*
G75*
G03X51729978Y-67444000I1497220J1306726D01*
G01*
X48966089Y-67563253D02*
G75*
G03X51013978Y-67544000I1013889J1079253D01*
G01*
X90631395Y-67563253D02*
G75*
G03X92679284Y-67544000I1013889J1079253D01*
G01*
X90158064Y-67790726D02*
G75*
G03X93395284Y-67444000I1497220J1306726D01*
G01*
X92697290Y-65350932D02*
G75*
G03X90594284Y-65350000I-1052006J-1133068D01*
G01*
X93373028Y-65480357D02*
G75*
G03X90145284Y-65164000I-1727744J-1003643D01*
G01*
X90145284Y-65170000D02*
X90145284Y-65350000D01*
X90145284Y-67764000D02*
X90145284Y-67564000D01*
X80215067Y-67563253D02*
G75*
G03X82262956Y-67544000I1013889J1079253D01*
G01*
X79741736Y-67790726D02*
G75*
G03X82978956Y-67444000I1497220J1306726D01*
G01*
X82280962Y-65350932D02*
G75*
G03X80177956Y-65350000I-1052006J-1133068D01*
G01*
X82956700Y-65480357D02*
G75*
G03X79728956Y-65164000I-1727744J-1003643D01*
G01*
X79728956Y-65170000D02*
X79728956Y-65350000D01*
X79728956Y-67764000D02*
X79728956Y-67564000D01*
X69312630Y-67764000D02*
X69312630Y-67564000D01*
X69312630Y-65170000D02*
X69312630Y-65350000D01*
X72540374Y-65480357D02*
G75*
G03X69312630Y-65164000I-1727744J-1003643D01*
G01*
X71864636Y-65350932D02*
G75*
G03X69761630Y-65350000I-1052006J-1133068D01*
G01*
X69325410Y-67790726D02*
G75*
G03X72562630Y-67444000I1497220J1306726D01*
G01*
X69798741Y-67563253D02*
G75*
G03X71846630Y-67544000I1013889J1079253D01*
G01*
X58896304Y-67764000D02*
X58896304Y-67564000D01*
X58896304Y-65170000D02*
X58896304Y-65350000D01*
X62124048Y-65480357D02*
G75*
G03X58896304Y-65164000I-1727744J-1003643D01*
G01*
X61448310Y-65350932D02*
G75*
G03X59345304Y-65350000I-1052006J-1133068D01*
G01*
X58909084Y-67790726D02*
G75*
G03X62146304Y-67444000I1497220J1306726D01*
G01*
X59382415Y-67563253D02*
G75*
G03X61430304Y-67544000I1013889J1079253D01*
G01*
X87031000Y-114314000D02*
X87031000Y-114114000D01*
X87031000Y-111720000D02*
X87031000Y-111900000D01*
X90258744Y-112030357D02*
G75*
G03X87031000Y-111714000I-1727744J-1003643D01*
G01*
X89583006Y-111900932D02*
G75*
G03X87480000Y-111900000I-1052006J-1133068D01*
G01*
X87043780Y-114340726D02*
G75*
G03X90281000Y-113994000I1497220J1306726D01*
G01*
X87517111Y-114113253D02*
G75*
G03X89565000Y-114094000I1013889J1079253D01*
G01*
X84467111Y-98713253D02*
G75*
G03X86515000Y-98694000I1013889J1079253D01*
G01*
X83993780Y-98940726D02*
G75*
G03X87231000Y-98594000I1497220J1306726D01*
G01*
X86533006Y-96500932D02*
G75*
G03X84430000Y-96500000I-1052006J-1133068D01*
G01*
X87208744Y-96630357D02*
G75*
G03X83981000Y-96314000I-1727744J-1003643D01*
G01*
X83981000Y-96320000D02*
X83981000Y-96500000D01*
X83981000Y-98914000D02*
X83981000Y-98714000D01*
D12*
X89170000Y-107650000D02*
X89170000Y-110470000D01*
X93720000Y-109060000D02*
X93650000Y-109060000D01*
X88260000Y-109060000D02*
X88330000Y-109060000D01*
X93650000Y-107650000D02*
X88330000Y-107650000D01*
X93650000Y-110470000D02*
X93650000Y-107650000D01*
X88330000Y-110470000D02*
X93650000Y-110470000D01*
X88330000Y-107650000D02*
X88330000Y-110470000D01*
D13*
X74000000Y-106800000D02*
X83000000Y-106800000D01*
X74000000Y-117700000D02*
X83000000Y-117700000D01*
X74000000Y-106800000D02*
X74000000Y-117700000D01*
X83000000Y-106800000D02*
X83000000Y-117700000D01*
X80300000Y-113000000D02*
G75*
G03X80300000Y-113000000I-1800000J0D01*
G01*
X78500000Y-111200000D02*
X78500000Y-114800000D01*
X76700000Y-113000000D02*
X80300000Y-113000000D01*
X62000000Y-106800000D02*
X71000000Y-106800000D01*
X62000000Y-117700000D02*
X71000000Y-117700000D01*
X62000000Y-106800000D02*
X62000000Y-117700000D01*
X71000000Y-106800000D02*
X71000000Y-117700000D01*
X68300000Y-113000000D02*
G75*
G03X68300000Y-113000000I-1800000J0D01*
G01*
X66500000Y-111200000D02*
X66500000Y-114800000D01*
X64700000Y-113000000D02*
X68300000Y-113000000D01*
X16700000Y-113000000D02*
X20300000Y-113000000D01*
X18500000Y-111200000D02*
X18500000Y-114800000D01*
X20300000Y-113000000D02*
G75*
G03X20300000Y-113000000I-1800000J0D01*
G01*
X23000000Y-106800000D02*
X23000000Y-117700000D01*
X14000000Y-106800000D02*
X14000000Y-117700000D01*
X14000000Y-117700000D02*
X23000000Y-117700000D01*
X14000000Y-106800000D02*
X23000000Y-106800000D01*
X52700000Y-113000000D02*
X56300000Y-113000000D01*
X54500000Y-111200000D02*
X54500000Y-114800000D01*
X56300000Y-113000000D02*
G75*
G03X56300000Y-113000000I-1800000J0D01*
G01*
X59000000Y-106800000D02*
X59000000Y-117700000D01*
X50000000Y-106800000D02*
X50000000Y-117700000D01*
X50000000Y-117700000D02*
X59000000Y-117700000D01*
X50000000Y-106800000D02*
X59000000Y-106800000D01*
X40700000Y-113000000D02*
X44300000Y-113000000D01*
X42500000Y-111200000D02*
X42500000Y-114800000D01*
X44300000Y-113000000D02*
G75*
G03X44300000Y-113000000I-1800000J0D01*
G01*
X47000000Y-106800000D02*
X47000000Y-117700000D01*
X38000000Y-106800000D02*
X38000000Y-117700000D01*
X38000000Y-117700000D02*
X47000000Y-117700000D01*
X38000000Y-106800000D02*
X47000000Y-106800000D01*
X26000000Y-106800000D02*
X35000000Y-106800000D01*
X26000000Y-117700000D02*
X35000000Y-117700000D01*
X26000000Y-106800000D02*
X26000000Y-117700000D01*
X35000000Y-106800000D02*
X35000000Y-117700000D01*
X32300000Y-113000000D02*
G75*
G03X32300000Y-113000000I-1800000J0D01*
G01*
X30500000Y-111200000D02*
X30500000Y-114800000D01*
X28700000Y-113000000D02*
X32300000Y-113000000D01*
X23390000Y-104140000D02*
X18610000Y-104140000D01*
X23396843Y-104137095D02*
G75*
G03X18610000Y-104140000I-2396843J5637095D01*
G01*
X55396843Y-104137095D02*
G75*
G03X50610000Y-104140000I-2396843J5637095D01*
G01*
X55390000Y-104140000D02*
X50610000Y-104140000D01*
X70069725Y-54304761D02*
X70212582Y-54352380D01*
X70450677Y-54352380D01*
X70545915Y-54304761D01*
X70593534Y-54257142D01*
X70641153Y-54161904D01*
X70641153Y-54066666D01*
X70593534Y-53971428D01*
X70545915Y-53923809D01*
X70450677Y-53876190D01*
X70260201Y-53828571D01*
X70164963Y-53780952D01*
X70117344Y-53733333D01*
X70069725Y-53638095D01*
X70069725Y-53542857D01*
X70117344Y-53447619D01*
X70164963Y-53400000D01*
X70260201Y-53352380D01*
X70498296Y-53352380D01*
X70641153Y-53400000D01*
X70974487Y-53352380D02*
X71641153Y-53352380D01*
X71212582Y-54352380D01*
X99528380Y-32765904D02*
X100337904Y-32765904D01*
X100433142Y-32718285D01*
X100480761Y-32670666D01*
X100528380Y-32575428D01*
X100528380Y-32384952D01*
X100480761Y-32289714D01*
X100433142Y-32242095D01*
X100337904Y-32194476D01*
X99528380Y-32194476D01*
X99528380Y-31813523D02*
X99528380Y-31194476D01*
X99909333Y-31527809D01*
X99909333Y-31384952D01*
X99956952Y-31289714D01*
X100004571Y-31242095D01*
X100099809Y-31194476D01*
X100337904Y-31194476D01*
X100433142Y-31242095D01*
X100480761Y-31289714D01*
X100528380Y-31384952D01*
X100528380Y-31670666D01*
X100480761Y-31765904D01*
X100433142Y-31813523D01*
X32416761Y-18581619D02*
X32321523Y-18534000D01*
X32226285Y-18438761D01*
X32083428Y-18295904D01*
X31988190Y-18248285D01*
X31892952Y-18248285D01*
X31940571Y-18486380D02*
X31845333Y-18438761D01*
X31750095Y-18343523D01*
X31702476Y-18153047D01*
X31702476Y-17819714D01*
X31750095Y-17629238D01*
X31845333Y-17534000D01*
X31940571Y-17486380D01*
X32131047Y-17486380D01*
X32226285Y-17534000D01*
X32321523Y-17629238D01*
X32369142Y-17819714D01*
X32369142Y-18153047D01*
X32321523Y-18343523D01*
X32226285Y-18438761D01*
X32131047Y-18486380D01*
X31940571Y-18486380D01*
X33321523Y-18486380D02*
X32750095Y-18486380D01*
X33035809Y-18486380D02*
X33035809Y-17486380D01*
X32940571Y-17629238D01*
X32845333Y-17724476D01*
X32750095Y-17772095D01*
X38004761Y-93511619D02*
X37909523Y-93464000D01*
X37814285Y-93368761D01*
X37671428Y-93225904D01*
X37576190Y-93178285D01*
X37480952Y-93178285D01*
X37528571Y-93416380D02*
X37433333Y-93368761D01*
X37338095Y-93273523D01*
X37290476Y-93083047D01*
X37290476Y-92749714D01*
X37338095Y-92559238D01*
X37433333Y-92464000D01*
X37528571Y-92416380D01*
X37719047Y-92416380D01*
X37814285Y-92464000D01*
X37909523Y-92559238D01*
X37957142Y-92749714D01*
X37957142Y-93083047D01*
X37909523Y-93273523D01*
X37814285Y-93368761D01*
X37719047Y-93416380D01*
X37528571Y-93416380D01*
X38861904Y-92416380D02*
X38385714Y-92416380D01*
X38338095Y-92892571D01*
X38385714Y-92844952D01*
X38480952Y-92797333D01*
X38719047Y-92797333D01*
X38814285Y-92844952D01*
X38861904Y-92892571D01*
X38909523Y-92987809D01*
X38909523Y-93225904D01*
X38861904Y-93321142D01*
X38814285Y-93368761D01*
X38719047Y-93416380D01*
X38480952Y-93416380D01*
X38385714Y-93368761D01*
X38338095Y-93321142D01*
X28352761Y-93511619D02*
X28257523Y-93464000D01*
X28162285Y-93368761D01*
X28019428Y-93225904D01*
X27924190Y-93178285D01*
X27828952Y-93178285D01*
X27876571Y-93416380D02*
X27781333Y-93368761D01*
X27686095Y-93273523D01*
X27638476Y-93083047D01*
X27638476Y-92749714D01*
X27686095Y-92559238D01*
X27781333Y-92464000D01*
X27876571Y-92416380D01*
X28067047Y-92416380D01*
X28162285Y-92464000D01*
X28257523Y-92559238D01*
X28305142Y-92749714D01*
X28305142Y-93083047D01*
X28257523Y-93273523D01*
X28162285Y-93368761D01*
X28067047Y-93416380D01*
X27876571Y-93416380D01*
X29162285Y-92749714D02*
X29162285Y-93416380D01*
X28924190Y-92368761D02*
X28686095Y-93083047D01*
X29305142Y-93083047D01*
X32162761Y-33313619D02*
X32067523Y-33266000D01*
X31972285Y-33170761D01*
X31829428Y-33027904D01*
X31734190Y-32980285D01*
X31638952Y-32980285D01*
X31686571Y-33218380D02*
X31591333Y-33170761D01*
X31496095Y-33075523D01*
X31448476Y-32885047D01*
X31448476Y-32551714D01*
X31496095Y-32361238D01*
X31591333Y-32266000D01*
X31686571Y-32218380D01*
X31877047Y-32218380D01*
X31972285Y-32266000D01*
X32067523Y-32361238D01*
X32115142Y-32551714D01*
X32115142Y-32885047D01*
X32067523Y-33075523D01*
X31972285Y-33170761D01*
X31877047Y-33218380D01*
X31686571Y-33218380D01*
X32448476Y-32218380D02*
X33067523Y-32218380D01*
X32734190Y-32599333D01*
X32877047Y-32599333D01*
X32972285Y-32646952D01*
X33019904Y-32694571D01*
X33067523Y-32789809D01*
X33067523Y-33027904D01*
X33019904Y-33123142D01*
X32972285Y-33170761D01*
X32877047Y-33218380D01*
X32591333Y-33218380D01*
X32496095Y-33170761D01*
X32448476Y-33123142D01*
X32162761Y-25693619D02*
X32067523Y-25646000D01*
X31972285Y-25550761D01*
X31829428Y-25407904D01*
X31734190Y-25360285D01*
X31638952Y-25360285D01*
X31686571Y-25598380D02*
X31591333Y-25550761D01*
X31496095Y-25455523D01*
X31448476Y-25265047D01*
X31448476Y-24931714D01*
X31496095Y-24741238D01*
X31591333Y-24646000D01*
X31686571Y-24598380D01*
X31877047Y-24598380D01*
X31972285Y-24646000D01*
X32067523Y-24741238D01*
X32115142Y-24931714D01*
X32115142Y-25265047D01*
X32067523Y-25455523D01*
X31972285Y-25550761D01*
X31877047Y-25598380D01*
X31686571Y-25598380D01*
X32496095Y-24693619D02*
X32543714Y-24646000D01*
X32638952Y-24598380D01*
X32877047Y-24598380D01*
X32972285Y-24646000D01*
X33019904Y-24693619D01*
X33067523Y-24788857D01*
X33067523Y-24884095D01*
X33019904Y-25026952D01*
X32448476Y-25598380D01*
X33067523Y-25598380D01*
X92543333Y-97639142D02*
X92495714Y-97686761D01*
X92352857Y-97734380D01*
X92257619Y-97734380D01*
X92114761Y-97686761D01*
X92019523Y-97591523D01*
X91971904Y-97496285D01*
X91924285Y-97305809D01*
X91924285Y-97162952D01*
X91971904Y-96972476D01*
X92019523Y-96877238D01*
X92114761Y-96782000D01*
X92257619Y-96734380D01*
X92352857Y-96734380D01*
X92495714Y-96782000D01*
X92543333Y-96829619D01*
X93019523Y-97734380D02*
X93210000Y-97734380D01*
X93305238Y-97686761D01*
X93352857Y-97639142D01*
X93448095Y-97496285D01*
X93495714Y-97305809D01*
X93495714Y-96924857D01*
X93448095Y-96829619D01*
X93400476Y-96782000D01*
X93305238Y-96734380D01*
X93114761Y-96734380D01*
X93019523Y-96782000D01*
X92971904Y-96829619D01*
X92924285Y-96924857D01*
X92924285Y-97162952D01*
X92971904Y-97258190D01*
X93019523Y-97305809D01*
X93114761Y-97353428D01*
X93305238Y-97353428D01*
X93400476Y-97305809D01*
X93448095Y-97258190D01*
X93495714Y-97162952D01*
X51395333Y-79097142D02*
X51347714Y-79144761D01*
X51204857Y-79192380D01*
X51109619Y-79192380D01*
X50966761Y-79144761D01*
X50871523Y-79049523D01*
X50823904Y-78954285D01*
X50776285Y-78763809D01*
X50776285Y-78620952D01*
X50823904Y-78430476D01*
X50871523Y-78335238D01*
X50966761Y-78240000D01*
X51109619Y-78192380D01*
X51204857Y-78192380D01*
X51347714Y-78240000D01*
X51395333Y-78287619D01*
X52252476Y-78192380D02*
X52062000Y-78192380D01*
X51966761Y-78240000D01*
X51919142Y-78287619D01*
X51823904Y-78430476D01*
X51776285Y-78620952D01*
X51776285Y-79001904D01*
X51823904Y-79097142D01*
X51871523Y-79144761D01*
X51966761Y-79192380D01*
X52157238Y-79192380D01*
X52252476Y-79144761D01*
X52300095Y-79097142D01*
X52347714Y-79001904D01*
X52347714Y-78763809D01*
X52300095Y-78668571D01*
X52252476Y-78620952D01*
X52157238Y-78573333D01*
X51966761Y-78573333D01*
X51871523Y-78620952D01*
X51823904Y-78668571D01*
X51776285Y-78763809D01*
X94829333Y-36679142D02*
X94781714Y-36726761D01*
X94638857Y-36774380D01*
X94543619Y-36774380D01*
X94400761Y-36726761D01*
X94305523Y-36631523D01*
X94257904Y-36536285D01*
X94210285Y-36345809D01*
X94210285Y-36202952D01*
X94257904Y-36012476D01*
X94305523Y-35917238D01*
X94400761Y-35822000D01*
X94543619Y-35774380D01*
X94638857Y-35774380D01*
X94781714Y-35822000D01*
X94829333Y-35869619D01*
X95162666Y-35774380D02*
X95781714Y-35774380D01*
X95448380Y-36155333D01*
X95591238Y-36155333D01*
X95686476Y-36202952D01*
X95734095Y-36250571D01*
X95781714Y-36345809D01*
X95781714Y-36583904D01*
X95734095Y-36679142D01*
X95686476Y-36726761D01*
X95591238Y-36774380D01*
X95305523Y-36774380D01*
X95210285Y-36726761D01*
X95162666Y-36679142D01*
X109132761Y-120340380D02*
X108799428Y-119864190D01*
X108561333Y-120340380D02*
X108561333Y-119340380D01*
X108942285Y-119340380D01*
X109037523Y-119388000D01*
X109085142Y-119435619D01*
X109132761Y-119530857D01*
X109132761Y-119673714D01*
X109085142Y-119768952D01*
X109037523Y-119816571D01*
X108942285Y-119864190D01*
X108561333Y-119864190D01*
X109418476Y-119340380D02*
X109751809Y-120340380D01*
X110085142Y-119340380D01*
X110847047Y-119673714D02*
X110847047Y-120340380D01*
X110608952Y-119292761D02*
X110370857Y-120007047D01*
X110989904Y-120007047D01*
X108878761Y-89606380D02*
X108545428Y-89130190D01*
X108307333Y-89606380D02*
X108307333Y-88606380D01*
X108688285Y-88606380D01*
X108783523Y-88654000D01*
X108831142Y-88701619D01*
X108878761Y-88796857D01*
X108878761Y-88939714D01*
X108831142Y-89034952D01*
X108783523Y-89082571D01*
X108688285Y-89130190D01*
X108307333Y-89130190D01*
X109164476Y-88606380D02*
X109497809Y-89606380D01*
X109831142Y-88606380D01*
X110069238Y-88606380D02*
X110688285Y-88606380D01*
X110354952Y-88987333D01*
X110497809Y-88987333D01*
X110593047Y-89034952D01*
X110640666Y-89082571D01*
X110688285Y-89177809D01*
X110688285Y-89415904D01*
X110640666Y-89511142D01*
X110593047Y-89558761D01*
X110497809Y-89606380D01*
X110212095Y-89606380D01*
X110116857Y-89558761D01*
X110069238Y-89511142D01*
X109132761Y-58618380D02*
X108799428Y-58142190D01*
X108561333Y-58618380D02*
X108561333Y-57618380D01*
X108942285Y-57618380D01*
X109037523Y-57666000D01*
X109085142Y-57713619D01*
X109132761Y-57808857D01*
X109132761Y-57951714D01*
X109085142Y-58046952D01*
X109037523Y-58094571D01*
X108942285Y-58142190D01*
X108561333Y-58142190D01*
X109418476Y-57618380D02*
X109751809Y-58618380D01*
X110085142Y-57618380D01*
X110370857Y-57713619D02*
X110418476Y-57666000D01*
X110513714Y-57618380D01*
X110751809Y-57618380D01*
X110847047Y-57666000D01*
X110894666Y-57713619D01*
X110942285Y-57808857D01*
X110942285Y-57904095D01*
X110894666Y-58046952D01*
X110323238Y-58618380D01*
X110942285Y-58618380D01*
X108878761Y-28138380D02*
X108545428Y-27662190D01*
X108307333Y-28138380D02*
X108307333Y-27138380D01*
X108688285Y-27138380D01*
X108783523Y-27186000D01*
X108831142Y-27233619D01*
X108878761Y-27328857D01*
X108878761Y-27471714D01*
X108831142Y-27566952D01*
X108783523Y-27614571D01*
X108688285Y-27662190D01*
X108307333Y-27662190D01*
X109164476Y-27138380D02*
X109497809Y-28138380D01*
X109831142Y-27138380D01*
X110688285Y-28138380D02*
X110116857Y-28138380D01*
X110402571Y-28138380D02*
X110402571Y-27138380D01*
X110307333Y-27281238D01*
X110212095Y-27376476D01*
X110116857Y-27424095D01*
X100282380Y-103833333D02*
X100996666Y-103833333D01*
X101139523Y-103880952D01*
X101234761Y-103976190D01*
X101282380Y-104119047D01*
X101282380Y-104214285D01*
X100377619Y-103404761D02*
X100330000Y-103357142D01*
X100282380Y-103261904D01*
X100282380Y-103023809D01*
X100330000Y-102928571D01*
X100377619Y-102880952D01*
X100472857Y-102833333D01*
X100568095Y-102833333D01*
X100710952Y-102880952D01*
X101282380Y-103452380D01*
X101282380Y-102833333D01*
X95210380Y-87883904D02*
X96019904Y-87883904D01*
X96115142Y-87836285D01*
X96162761Y-87788666D01*
X96210380Y-87693428D01*
X96210380Y-87502952D01*
X96162761Y-87407714D01*
X96115142Y-87360095D01*
X96019904Y-87312476D01*
X95210380Y-87312476D01*
X96210380Y-86312476D02*
X96210380Y-86883904D01*
X96210380Y-86598190D02*
X95210380Y-86598190D01*
X95353238Y-86693428D01*
X95448476Y-86788666D01*
X95496095Y-86883904D01*
X49237073Y-54304761D02*
X49379930Y-54352380D01*
X49618025Y-54352380D01*
X49713263Y-54304761D01*
X49760882Y-54257142D01*
X49808501Y-54161904D01*
X49808501Y-54066666D01*
X49760882Y-53971428D01*
X49713263Y-53923809D01*
X49618025Y-53876190D01*
X49427549Y-53828571D01*
X49332311Y-53780952D01*
X49284692Y-53733333D01*
X49237073Y-53638095D01*
X49237073Y-53542857D01*
X49284692Y-53447619D01*
X49332311Y-53400000D01*
X49427549Y-53352380D01*
X49665644Y-53352380D01*
X49808501Y-53400000D01*
X50665644Y-53685714D02*
X50665644Y-54352380D01*
X50427549Y-53304761D02*
X50189454Y-54019047D01*
X50808501Y-54019047D01*
X27928230Y-69804761D02*
X28071087Y-69852380D01*
X28309183Y-69852380D01*
X28404421Y-69804761D01*
X28452040Y-69757142D01*
X28499659Y-69661904D01*
X28499659Y-69566666D01*
X28452040Y-69471428D01*
X28404421Y-69423809D01*
X28309183Y-69376190D01*
X28118706Y-69328571D01*
X28023468Y-69280952D01*
X27975849Y-69233333D01*
X27928230Y-69138095D01*
X27928230Y-69042857D01*
X27975849Y-68947619D01*
X28023468Y-68900000D01*
X28118706Y-68852380D01*
X28356802Y-68852380D01*
X28499659Y-68900000D01*
X29452040Y-69852380D02*
X28880611Y-69852380D01*
X29166326Y-69852380D02*
X29166326Y-68852380D01*
X29071087Y-68995238D01*
X28975849Y-69090476D01*
X28880611Y-69138095D01*
X30071087Y-68852380D02*
X30166326Y-68852380D01*
X30261564Y-68900000D01*
X30309183Y-68947619D01*
X30356802Y-69042857D01*
X30404421Y-69233333D01*
X30404421Y-69471428D01*
X30356802Y-69661904D01*
X30309183Y-69757142D01*
X30261564Y-69804761D01*
X30166326Y-69852380D01*
X30071087Y-69852380D01*
X29975849Y-69804761D01*
X29928230Y-69757142D01*
X29880611Y-69661904D01*
X29832992Y-69471428D01*
X29832992Y-69233333D01*
X29880611Y-69042857D01*
X29928230Y-68947619D01*
X29975849Y-68900000D01*
X30071087Y-68852380D01*
X17988095Y-69804761D02*
X18130952Y-69852380D01*
X18369047Y-69852380D01*
X18464285Y-69804761D01*
X18511904Y-69757142D01*
X18559523Y-69661904D01*
X18559523Y-69566666D01*
X18511904Y-69471428D01*
X18464285Y-69423809D01*
X18369047Y-69376190D01*
X18178571Y-69328571D01*
X18083333Y-69280952D01*
X18035714Y-69233333D01*
X17988095Y-69138095D01*
X17988095Y-69042857D01*
X18035714Y-68947619D01*
X18083333Y-68900000D01*
X18178571Y-68852380D01*
X18416666Y-68852380D01*
X18559523Y-68900000D01*
X19035714Y-69852380D02*
X19226190Y-69852380D01*
X19321428Y-69804761D01*
X19369047Y-69757142D01*
X19464285Y-69614285D01*
X19511904Y-69423809D01*
X19511904Y-69042857D01*
X19464285Y-68947619D01*
X19416666Y-68900000D01*
X19321428Y-68852380D01*
X19130952Y-68852380D01*
X19035714Y-68900000D01*
X18988095Y-68947619D01*
X18940476Y-69042857D01*
X18940476Y-69280952D01*
X18988095Y-69376190D01*
X19035714Y-69423809D01*
X19130952Y-69471428D01*
X19321428Y-69471428D01*
X19416666Y-69423809D01*
X19464285Y-69376190D01*
X19511904Y-69280952D01*
X59653399Y-54304761D02*
X59796256Y-54352380D01*
X60034351Y-54352380D01*
X60129589Y-54304761D01*
X60177208Y-54257142D01*
X60224827Y-54161904D01*
X60224827Y-54066666D01*
X60177208Y-53971428D01*
X60129589Y-53923809D01*
X60034351Y-53876190D01*
X59843875Y-53828571D01*
X59748637Y-53780952D01*
X59701018Y-53733333D01*
X59653399Y-53638095D01*
X59653399Y-53542857D01*
X59701018Y-53447619D01*
X59748637Y-53400000D01*
X59843875Y-53352380D01*
X60081970Y-53352380D01*
X60224827Y-53400000D01*
X60796256Y-53780952D02*
X60701018Y-53733333D01*
X60653399Y-53685714D01*
X60605780Y-53590476D01*
X60605780Y-53542857D01*
X60653399Y-53447619D01*
X60701018Y-53400000D01*
X60796256Y-53352380D01*
X60986732Y-53352380D01*
X61081970Y-53400000D01*
X61129589Y-53447619D01*
X61177208Y-53542857D01*
X61177208Y-53590476D01*
X61129589Y-53685714D01*
X61081970Y-53733333D01*
X60986732Y-53780952D01*
X60796256Y-53780952D01*
X60701018Y-53828571D01*
X60653399Y-53876190D01*
X60605780Y-53971428D01*
X60605780Y-54161904D01*
X60653399Y-54257142D01*
X60701018Y-54304761D01*
X60796256Y-54352380D01*
X60986732Y-54352380D01*
X61081970Y-54304761D01*
X61129589Y-54257142D01*
X61177208Y-54161904D01*
X61177208Y-53971428D01*
X61129589Y-53876190D01*
X61081970Y-53828571D01*
X60986732Y-53780952D01*
X17988095Y-54304761D02*
X18130952Y-54352380D01*
X18369047Y-54352380D01*
X18464285Y-54304761D01*
X18511904Y-54257142D01*
X18559523Y-54161904D01*
X18559523Y-54066666D01*
X18511904Y-53971428D01*
X18464285Y-53923809D01*
X18369047Y-53876190D01*
X18178571Y-53828571D01*
X18083333Y-53780952D01*
X18035714Y-53733333D01*
X17988095Y-53638095D01*
X17988095Y-53542857D01*
X18035714Y-53447619D01*
X18083333Y-53400000D01*
X18178571Y-53352380D01*
X18416666Y-53352380D01*
X18559523Y-53400000D01*
X19511904Y-54352380D02*
X18940476Y-54352380D01*
X19226190Y-54352380D02*
X19226190Y-53352380D01*
X19130952Y-53495238D01*
X19035714Y-53590476D01*
X18940476Y-53638095D01*
X28404421Y-54304761D02*
X28547278Y-54352380D01*
X28785373Y-54352380D01*
X28880611Y-54304761D01*
X28928230Y-54257142D01*
X28975849Y-54161904D01*
X28975849Y-54066666D01*
X28928230Y-53971428D01*
X28880611Y-53923809D01*
X28785373Y-53876190D01*
X28594897Y-53828571D01*
X28499659Y-53780952D01*
X28452040Y-53733333D01*
X28404421Y-53638095D01*
X28404421Y-53542857D01*
X28452040Y-53447619D01*
X28499659Y-53400000D01*
X28594897Y-53352380D01*
X28832992Y-53352380D01*
X28975849Y-53400000D01*
X29356802Y-53447619D02*
X29404421Y-53400000D01*
X29499659Y-53352380D01*
X29737754Y-53352380D01*
X29832992Y-53400000D01*
X29880611Y-53447619D01*
X29928230Y-53542857D01*
X29928230Y-53638095D01*
X29880611Y-53780952D01*
X29309183Y-54352380D01*
X29928230Y-54352380D01*
X38820747Y-54304761D02*
X38963604Y-54352380D01*
X39201699Y-54352380D01*
X39296937Y-54304761D01*
X39344556Y-54257142D01*
X39392175Y-54161904D01*
X39392175Y-54066666D01*
X39344556Y-53971428D01*
X39296937Y-53923809D01*
X39201699Y-53876190D01*
X39011223Y-53828571D01*
X38915985Y-53780952D01*
X38868366Y-53733333D01*
X38820747Y-53638095D01*
X38820747Y-53542857D01*
X38868366Y-53447619D01*
X38915985Y-53400000D01*
X39011223Y-53352380D01*
X39249318Y-53352380D01*
X39392175Y-53400000D01*
X39725509Y-53352380D02*
X40344556Y-53352380D01*
X40011223Y-53733333D01*
X40154080Y-53733333D01*
X40249318Y-53780952D01*
X40296937Y-53828571D01*
X40344556Y-53923809D01*
X40344556Y-54161904D01*
X40296937Y-54257142D01*
X40249318Y-54304761D01*
X40154080Y-54352380D01*
X39868366Y-54352380D01*
X39773128Y-54304761D01*
X39725509Y-54257142D01*
X90902379Y-54304761D02*
X91045236Y-54352380D01*
X91283331Y-54352380D01*
X91378569Y-54304761D01*
X91426188Y-54257142D01*
X91473807Y-54161904D01*
X91473807Y-54066666D01*
X91426188Y-53971428D01*
X91378569Y-53923809D01*
X91283331Y-53876190D01*
X91092855Y-53828571D01*
X90997617Y-53780952D01*
X90949998Y-53733333D01*
X90902379Y-53638095D01*
X90902379Y-53542857D01*
X90949998Y-53447619D01*
X90997617Y-53400000D01*
X91092855Y-53352380D01*
X91330950Y-53352380D01*
X91473807Y-53400000D01*
X92378569Y-53352380D02*
X91902379Y-53352380D01*
X91854760Y-53828571D01*
X91902379Y-53780952D01*
X91997617Y-53733333D01*
X92235712Y-53733333D01*
X92330950Y-53780952D01*
X92378569Y-53828571D01*
X92426188Y-53923809D01*
X92426188Y-54161904D01*
X92378569Y-54257142D01*
X92330950Y-54304761D01*
X92235712Y-54352380D01*
X91997617Y-54352380D01*
X91902379Y-54304761D01*
X91854760Y-54257142D01*
X80486051Y-54304761D02*
X80628908Y-54352380D01*
X80867003Y-54352380D01*
X80962241Y-54304761D01*
X81009860Y-54257142D01*
X81057479Y-54161904D01*
X81057479Y-54066666D01*
X81009860Y-53971428D01*
X80962241Y-53923809D01*
X80867003Y-53876190D01*
X80676527Y-53828571D01*
X80581289Y-53780952D01*
X80533670Y-53733333D01*
X80486051Y-53638095D01*
X80486051Y-53542857D01*
X80533670Y-53447619D01*
X80581289Y-53400000D01*
X80676527Y-53352380D01*
X80914622Y-53352380D01*
X81057479Y-53400000D01*
X81914622Y-53352380D02*
X81724146Y-53352380D01*
X81628908Y-53400000D01*
X81581289Y-53447619D01*
X81486051Y-53590476D01*
X81438432Y-53780952D01*
X81438432Y-54161904D01*
X81486051Y-54257142D01*
X81533670Y-54304761D01*
X81628908Y-54352380D01*
X81819384Y-54352380D01*
X81914622Y-54304761D01*
X81962241Y-54257142D01*
X82009860Y-54161904D01*
X82009860Y-53923809D01*
X81962241Y-53828571D01*
X81914622Y-53780952D01*
X81819384Y-53733333D01*
X81628908Y-53733333D01*
X81533670Y-53780952D01*
X81486051Y-53828571D01*
X81438432Y-53923809D01*
X38344556Y-69804761D02*
X38487413Y-69852380D01*
X38725509Y-69852380D01*
X38820747Y-69804761D01*
X38868366Y-69757142D01*
X38915985Y-69661904D01*
X38915985Y-69566666D01*
X38868366Y-69471428D01*
X38820747Y-69423809D01*
X38725509Y-69376190D01*
X38535032Y-69328571D01*
X38439794Y-69280952D01*
X38392175Y-69233333D01*
X38344556Y-69138095D01*
X38344556Y-69042857D01*
X38392175Y-68947619D01*
X38439794Y-68900000D01*
X38535032Y-68852380D01*
X38773128Y-68852380D01*
X38915985Y-68900000D01*
X39868366Y-69852380D02*
X39296937Y-69852380D01*
X39582652Y-69852380D02*
X39582652Y-68852380D01*
X39487413Y-68995238D01*
X39392175Y-69090476D01*
X39296937Y-69138095D01*
X40820747Y-69852380D02*
X40249318Y-69852380D01*
X40535032Y-69852380D02*
X40535032Y-68852380D01*
X40439794Y-68995238D01*
X40344556Y-69090476D01*
X40249318Y-69138095D01*
X48760882Y-69804761D02*
X48903739Y-69852380D01*
X49141835Y-69852380D01*
X49237073Y-69804761D01*
X49284692Y-69757142D01*
X49332311Y-69661904D01*
X49332311Y-69566666D01*
X49284692Y-69471428D01*
X49237073Y-69423809D01*
X49141835Y-69376190D01*
X48951358Y-69328571D01*
X48856120Y-69280952D01*
X48808501Y-69233333D01*
X48760882Y-69138095D01*
X48760882Y-69042857D01*
X48808501Y-68947619D01*
X48856120Y-68900000D01*
X48951358Y-68852380D01*
X49189454Y-68852380D01*
X49332311Y-68900000D01*
X50284692Y-69852380D02*
X49713263Y-69852380D01*
X49998978Y-69852380D02*
X49998978Y-68852380D01*
X49903739Y-68995238D01*
X49808501Y-69090476D01*
X49713263Y-69138095D01*
X50665644Y-68947619D02*
X50713263Y-68900000D01*
X50808501Y-68852380D01*
X51046597Y-68852380D01*
X51141835Y-68900000D01*
X51189454Y-68947619D01*
X51237073Y-69042857D01*
X51237073Y-69138095D01*
X51189454Y-69280952D01*
X50618025Y-69852380D01*
X51237073Y-69852380D01*
X90426188Y-69804761D02*
X90569045Y-69852380D01*
X90807141Y-69852380D01*
X90902379Y-69804761D01*
X90949998Y-69757142D01*
X90997617Y-69661904D01*
X90997617Y-69566666D01*
X90949998Y-69471428D01*
X90902379Y-69423809D01*
X90807141Y-69376190D01*
X90616664Y-69328571D01*
X90521426Y-69280952D01*
X90473807Y-69233333D01*
X90426188Y-69138095D01*
X90426188Y-69042857D01*
X90473807Y-68947619D01*
X90521426Y-68900000D01*
X90616664Y-68852380D01*
X90854760Y-68852380D01*
X90997617Y-68900000D01*
X91949998Y-69852380D02*
X91378569Y-69852380D01*
X91664284Y-69852380D02*
X91664284Y-68852380D01*
X91569045Y-68995238D01*
X91473807Y-69090476D01*
X91378569Y-69138095D01*
X92283331Y-68852380D02*
X92902379Y-68852380D01*
X92569045Y-69233333D01*
X92711903Y-69233333D01*
X92807141Y-69280952D01*
X92854760Y-69328571D01*
X92902379Y-69423809D01*
X92902379Y-69661904D01*
X92854760Y-69757142D01*
X92807141Y-69804761D01*
X92711903Y-69852380D01*
X92426188Y-69852380D01*
X92330950Y-69804761D01*
X92283331Y-69757142D01*
X80009860Y-69804761D02*
X80152717Y-69852380D01*
X80390813Y-69852380D01*
X80486051Y-69804761D01*
X80533670Y-69757142D01*
X80581289Y-69661904D01*
X80581289Y-69566666D01*
X80533670Y-69471428D01*
X80486051Y-69423809D01*
X80390813Y-69376190D01*
X80200336Y-69328571D01*
X80105098Y-69280952D01*
X80057479Y-69233333D01*
X80009860Y-69138095D01*
X80009860Y-69042857D01*
X80057479Y-68947619D01*
X80105098Y-68900000D01*
X80200336Y-68852380D01*
X80438432Y-68852380D01*
X80581289Y-68900000D01*
X81533670Y-69852380D02*
X80962241Y-69852380D01*
X81247956Y-69852380D02*
X81247956Y-68852380D01*
X81152717Y-68995238D01*
X81057479Y-69090476D01*
X80962241Y-69138095D01*
X82390813Y-69185714D02*
X82390813Y-69852380D01*
X82152717Y-68804761D02*
X81914622Y-69519047D01*
X82533670Y-69519047D01*
X69593534Y-69804761D02*
X69736391Y-69852380D01*
X69974487Y-69852380D01*
X70069725Y-69804761D01*
X70117344Y-69757142D01*
X70164963Y-69661904D01*
X70164963Y-69566666D01*
X70117344Y-69471428D01*
X70069725Y-69423809D01*
X69974487Y-69376190D01*
X69784010Y-69328571D01*
X69688772Y-69280952D01*
X69641153Y-69233333D01*
X69593534Y-69138095D01*
X69593534Y-69042857D01*
X69641153Y-68947619D01*
X69688772Y-68900000D01*
X69784010Y-68852380D01*
X70022106Y-68852380D01*
X70164963Y-68900000D01*
X71117344Y-69852380D02*
X70545915Y-69852380D01*
X70831630Y-69852380D02*
X70831630Y-68852380D01*
X70736391Y-68995238D01*
X70641153Y-69090476D01*
X70545915Y-69138095D01*
X72022106Y-68852380D02*
X71545915Y-68852380D01*
X71498296Y-69328571D01*
X71545915Y-69280952D01*
X71641153Y-69233333D01*
X71879249Y-69233333D01*
X71974487Y-69280952D01*
X72022106Y-69328571D01*
X72069725Y-69423809D01*
X72069725Y-69661904D01*
X72022106Y-69757142D01*
X71974487Y-69804761D01*
X71879249Y-69852380D01*
X71641153Y-69852380D01*
X71545915Y-69804761D01*
X71498296Y-69757142D01*
X59177208Y-69804761D02*
X59320065Y-69852380D01*
X59558161Y-69852380D01*
X59653399Y-69804761D01*
X59701018Y-69757142D01*
X59748637Y-69661904D01*
X59748637Y-69566666D01*
X59701018Y-69471428D01*
X59653399Y-69423809D01*
X59558161Y-69376190D01*
X59367684Y-69328571D01*
X59272446Y-69280952D01*
X59224827Y-69233333D01*
X59177208Y-69138095D01*
X59177208Y-69042857D01*
X59224827Y-68947619D01*
X59272446Y-68900000D01*
X59367684Y-68852380D01*
X59605780Y-68852380D01*
X59748637Y-68900000D01*
X60701018Y-69852380D02*
X60129589Y-69852380D01*
X60415304Y-69852380D02*
X60415304Y-68852380D01*
X60320065Y-68995238D01*
X60224827Y-69090476D01*
X60129589Y-69138095D01*
X61558161Y-68852380D02*
X61367684Y-68852380D01*
X61272446Y-68900000D01*
X61224827Y-68947619D01*
X61129589Y-69090476D01*
X61081970Y-69280952D01*
X61081970Y-69661904D01*
X61129589Y-69757142D01*
X61177208Y-69804761D01*
X61272446Y-69852380D01*
X61462923Y-69852380D01*
X61558161Y-69804761D01*
X61605780Y-69757142D01*
X61653399Y-69661904D01*
X61653399Y-69423809D01*
X61605780Y-69328571D01*
X61558161Y-69280952D01*
X61462923Y-69233333D01*
X61272446Y-69233333D01*
X61177208Y-69280952D01*
X61129589Y-69328571D01*
X61081970Y-69423809D01*
X38511904Y-36354761D02*
X38654761Y-36402380D01*
X38892857Y-36402380D01*
X38988095Y-36354761D01*
X39035714Y-36307142D01*
X39083333Y-36211904D01*
X39083333Y-36116666D01*
X39035714Y-36021428D01*
X38988095Y-35973809D01*
X38892857Y-35926190D01*
X38702380Y-35878571D01*
X38607142Y-35830952D01*
X38559523Y-35783333D01*
X38511904Y-35688095D01*
X38511904Y-35592857D01*
X38559523Y-35497619D01*
X38607142Y-35450000D01*
X38702380Y-35402380D01*
X38940476Y-35402380D01*
X39083333Y-35450000D01*
X40035714Y-36402380D02*
X39464285Y-36402380D01*
X39750000Y-36402380D02*
X39750000Y-35402380D01*
X39654761Y-35545238D01*
X39559523Y-35640476D01*
X39464285Y-35688095D01*
X40369047Y-35402380D02*
X41035714Y-35402380D01*
X40607142Y-36402380D01*
X59511904Y-36354761D02*
X59654761Y-36402380D01*
X59892857Y-36402380D01*
X59988095Y-36354761D01*
X60035714Y-36307142D01*
X60083333Y-36211904D01*
X60083333Y-36116666D01*
X60035714Y-36021428D01*
X59988095Y-35973809D01*
X59892857Y-35926190D01*
X59702380Y-35878571D01*
X59607142Y-35830952D01*
X59559523Y-35783333D01*
X59511904Y-35688095D01*
X59511904Y-35592857D01*
X59559523Y-35497619D01*
X59607142Y-35450000D01*
X59702380Y-35402380D01*
X59940476Y-35402380D01*
X60083333Y-35450000D01*
X61035714Y-36402380D02*
X60464285Y-36402380D01*
X60750000Y-36402380D02*
X60750000Y-35402380D01*
X60654761Y-35545238D01*
X60559523Y-35640476D01*
X60464285Y-35688095D01*
X61607142Y-35830952D02*
X61511904Y-35783333D01*
X61464285Y-35735714D01*
X61416666Y-35640476D01*
X61416666Y-35592857D01*
X61464285Y-35497619D01*
X61511904Y-35450000D01*
X61607142Y-35402380D01*
X61797619Y-35402380D01*
X61892857Y-35450000D01*
X61940476Y-35497619D01*
X61988095Y-35592857D01*
X61988095Y-35640476D01*
X61940476Y-35735714D01*
X61892857Y-35783333D01*
X61797619Y-35830952D01*
X61607142Y-35830952D01*
X61511904Y-35878571D01*
X61464285Y-35926190D01*
X61416666Y-36021428D01*
X61416666Y-36211904D01*
X61464285Y-36307142D01*
X61511904Y-36354761D01*
X61607142Y-36402380D01*
X61797619Y-36402380D01*
X61892857Y-36354761D01*
X61940476Y-36307142D01*
X61988095Y-36211904D01*
X61988095Y-36021428D01*
X61940476Y-35926190D01*
X61892857Y-35878571D01*
X61797619Y-35830952D01*
X80511904Y-36354761D02*
X80654761Y-36402380D01*
X80892857Y-36402380D01*
X80988095Y-36354761D01*
X81035714Y-36307142D01*
X81083333Y-36211904D01*
X81083333Y-36116666D01*
X81035714Y-36021428D01*
X80988095Y-35973809D01*
X80892857Y-35926190D01*
X80702380Y-35878571D01*
X80607142Y-35830952D01*
X80559523Y-35783333D01*
X80511904Y-35688095D01*
X80511904Y-35592857D01*
X80559523Y-35497619D01*
X80607142Y-35450000D01*
X80702380Y-35402380D01*
X80940476Y-35402380D01*
X81083333Y-35450000D01*
X82035714Y-36402380D02*
X81464285Y-36402380D01*
X81750000Y-36402380D02*
X81750000Y-35402380D01*
X81654761Y-35545238D01*
X81559523Y-35640476D01*
X81464285Y-35688095D01*
X82511904Y-36402380D02*
X82702380Y-36402380D01*
X82797619Y-36354761D01*
X82845238Y-36307142D01*
X82940476Y-36164285D01*
X82988095Y-35973809D01*
X82988095Y-35592857D01*
X82940476Y-35497619D01*
X82892857Y-35450000D01*
X82797619Y-35402380D01*
X82607142Y-35402380D01*
X82511904Y-35450000D01*
X82464285Y-35497619D01*
X82416666Y-35592857D01*
X82416666Y-35830952D01*
X82464285Y-35926190D01*
X82511904Y-35973809D01*
X82607142Y-36021428D01*
X82797619Y-36021428D01*
X82892857Y-35973809D01*
X82940476Y-35926190D01*
X82988095Y-35830952D01*
X17511904Y-36354761D02*
X17654761Y-36402380D01*
X17892857Y-36402380D01*
X17988095Y-36354761D01*
X18035714Y-36307142D01*
X18083333Y-36211904D01*
X18083333Y-36116666D01*
X18035714Y-36021428D01*
X17988095Y-35973809D01*
X17892857Y-35926190D01*
X17702380Y-35878571D01*
X17607142Y-35830952D01*
X17559523Y-35783333D01*
X17511904Y-35688095D01*
X17511904Y-35592857D01*
X17559523Y-35497619D01*
X17607142Y-35450000D01*
X17702380Y-35402380D01*
X17940476Y-35402380D01*
X18083333Y-35450000D01*
X18464285Y-35497619D02*
X18511904Y-35450000D01*
X18607142Y-35402380D01*
X18845238Y-35402380D01*
X18940476Y-35450000D01*
X18988095Y-35497619D01*
X19035714Y-35592857D01*
X19035714Y-35688095D01*
X18988095Y-35830952D01*
X18416666Y-36402380D01*
X19035714Y-36402380D01*
X19654761Y-35402380D02*
X19750000Y-35402380D01*
X19845238Y-35450000D01*
X19892857Y-35497619D01*
X19940476Y-35592857D01*
X19988095Y-35783333D01*
X19988095Y-36021428D01*
X19940476Y-36211904D01*
X19892857Y-36307142D01*
X19845238Y-36354761D01*
X19750000Y-36402380D01*
X19654761Y-36402380D01*
X19559523Y-36354761D01*
X19511904Y-36307142D01*
X19464285Y-36211904D01*
X19416666Y-36021428D01*
X19416666Y-35783333D01*
X19464285Y-35592857D01*
X19511904Y-35497619D01*
X19559523Y-35450000D01*
X19654761Y-35402380D01*
X69761904Y-95904761D02*
X69904761Y-95952380D01*
X70142857Y-95952380D01*
X70238095Y-95904761D01*
X70285714Y-95857142D01*
X70333333Y-95761904D01*
X70333333Y-95666666D01*
X70285714Y-95571428D01*
X70238095Y-95523809D01*
X70142857Y-95476190D01*
X69952380Y-95428571D01*
X69857142Y-95380952D01*
X69809523Y-95333333D01*
X69761904Y-95238095D01*
X69761904Y-95142857D01*
X69809523Y-95047619D01*
X69857142Y-95000000D01*
X69952380Y-94952380D01*
X70190476Y-94952380D01*
X70333333Y-95000000D01*
X70714285Y-95047619D02*
X70761904Y-95000000D01*
X70857142Y-94952380D01*
X71095238Y-94952380D01*
X71190476Y-95000000D01*
X71238095Y-95047619D01*
X71285714Y-95142857D01*
X71285714Y-95238095D01*
X71238095Y-95380952D01*
X70666666Y-95952380D01*
X71285714Y-95952380D01*
X72238095Y-95952380D02*
X71666666Y-95952380D01*
X71952380Y-95952380D02*
X71952380Y-94952380D01*
X71857142Y-95095238D01*
X71761904Y-95190476D01*
X71666666Y-95238095D01*
X57666666Y-32952380D02*
X57666666Y-33666666D01*
X57619047Y-33809523D01*
X57523809Y-33904761D01*
X57380952Y-33952380D01*
X57285714Y-33952380D01*
X58047619Y-32952380D02*
X58666666Y-32952380D01*
X58333333Y-33333333D01*
X58476190Y-33333333D01*
X58571428Y-33380952D01*
X58619047Y-33428571D01*
X58666666Y-33523809D01*
X58666666Y-33761904D01*
X58619047Y-33857142D01*
X58571428Y-33904761D01*
X58476190Y-33952380D01*
X58190476Y-33952380D01*
X58095238Y-33904761D01*
X58047619Y-33857142D01*
X12914380Y-84073904D02*
X13723904Y-84073904D01*
X13819142Y-84026285D01*
X13866761Y-83978666D01*
X13914380Y-83883428D01*
X13914380Y-83692952D01*
X13866761Y-83597714D01*
X13819142Y-83550095D01*
X13723904Y-83502476D01*
X12914380Y-83502476D01*
X13009619Y-83073904D02*
X12962000Y-83026285D01*
X12914380Y-82931047D01*
X12914380Y-82692952D01*
X12962000Y-82597714D01*
X13009619Y-82550095D01*
X13104857Y-82502476D01*
X13200095Y-82502476D01*
X13342952Y-82550095D01*
X13914380Y-83121523D01*
X13914380Y-82502476D01*
X38552380Y-102496857D02*
X38076190Y-102830190D01*
X38552380Y-103068285D02*
X37552380Y-103068285D01*
X37552380Y-102687333D01*
X37600000Y-102592095D01*
X37647619Y-102544476D01*
X37742857Y-102496857D01*
X37885714Y-102496857D01*
X37980952Y-102544476D01*
X38028571Y-102592095D01*
X38076190Y-102687333D01*
X38076190Y-103068285D01*
X37647619Y-102115904D02*
X37600000Y-102068285D01*
X37552380Y-101973047D01*
X37552380Y-101734952D01*
X37600000Y-101639714D01*
X37647619Y-101592095D01*
X37742857Y-101544476D01*
X37838095Y-101544476D01*
X37980952Y-101592095D01*
X38552380Y-102163523D01*
X38552380Y-101544476D01*
X37552380Y-101211142D02*
X37552380Y-100592095D01*
X37933333Y-100925428D01*
X37933333Y-100782571D01*
X37980952Y-100687333D01*
X38028571Y-100639714D01*
X38123809Y-100592095D01*
X38361904Y-100592095D01*
X38457142Y-100639714D01*
X38504761Y-100687333D01*
X38552380Y-100782571D01*
X38552380Y-101068285D01*
X38504761Y-101163523D01*
X38457142Y-101211142D01*
X64857333Y-80621142D02*
X64809714Y-80668761D01*
X64666857Y-80716380D01*
X64571619Y-80716380D01*
X64428761Y-80668761D01*
X64333523Y-80573523D01*
X64285904Y-80478285D01*
X64238285Y-80287809D01*
X64238285Y-80144952D01*
X64285904Y-79954476D01*
X64333523Y-79859238D01*
X64428761Y-79764000D01*
X64571619Y-79716380D01*
X64666857Y-79716380D01*
X64809714Y-79764000D01*
X64857333Y-79811619D01*
X65809714Y-80716380D02*
X65238285Y-80716380D01*
X65524000Y-80716380D02*
X65524000Y-79716380D01*
X65428761Y-79859238D01*
X65333523Y-79954476D01*
X65238285Y-80002095D01*
X16666666Y-27904761D02*
X16809523Y-27952380D01*
X17047619Y-27952380D01*
X17142857Y-27904761D01*
X17190476Y-27857142D01*
X17238095Y-27761904D01*
X17238095Y-27666666D01*
X17190476Y-27571428D01*
X17142857Y-27523809D01*
X17047619Y-27476190D01*
X16857142Y-27428571D01*
X16761904Y-27380952D01*
X16714285Y-27333333D01*
X16666666Y-27238095D01*
X16666666Y-27142857D01*
X16714285Y-27047619D01*
X16761904Y-27000000D01*
X16857142Y-26952380D01*
X17095238Y-26952380D01*
X17238095Y-27000000D01*
X17571428Y-26952380D02*
X17809523Y-27952380D01*
X18000000Y-27238095D01*
X18190476Y-27952380D01*
X18428571Y-26952380D01*
X18714285Y-26952380D02*
X19333333Y-26952380D01*
X19000000Y-27333333D01*
X19142857Y-27333333D01*
X19238095Y-27380952D01*
X19285714Y-27428571D01*
X19333333Y-27523809D01*
X19333333Y-27761904D01*
X19285714Y-27857142D01*
X19238095Y-27904761D01*
X19142857Y-27952380D01*
X18857142Y-27952380D01*
X18761904Y-27904761D01*
X18714285Y-27857142D01*
X53284380Y-39250857D02*
X52808190Y-39584190D01*
X53284380Y-39822285D02*
X52284380Y-39822285D01*
X52284380Y-39441333D01*
X52332000Y-39346095D01*
X52379619Y-39298476D01*
X52474857Y-39250857D01*
X52617714Y-39250857D01*
X52712952Y-39298476D01*
X52760571Y-39346095D01*
X52808190Y-39441333D01*
X52808190Y-39822285D01*
X53284380Y-38298476D02*
X53284380Y-38869904D01*
X53284380Y-38584190D02*
X52284380Y-38584190D01*
X52427238Y-38679428D01*
X52522476Y-38774666D01*
X52570095Y-38869904D01*
X52617714Y-37441333D02*
X53284380Y-37441333D01*
X52236761Y-37679428D02*
X52951047Y-37917523D01*
X52951047Y-37298476D01*
X49220380Y-39250857D02*
X48744190Y-39584190D01*
X49220380Y-39822285D02*
X48220380Y-39822285D01*
X48220380Y-39441333D01*
X48268000Y-39346095D01*
X48315619Y-39298476D01*
X48410857Y-39250857D01*
X48553714Y-39250857D01*
X48648952Y-39298476D01*
X48696571Y-39346095D01*
X48744190Y-39441333D01*
X48744190Y-39822285D01*
X49220380Y-38298476D02*
X49220380Y-38869904D01*
X49220380Y-38584190D02*
X48220380Y-38584190D01*
X48363238Y-38679428D01*
X48458476Y-38774666D01*
X48506095Y-38869904D01*
X48220380Y-37393714D02*
X48220380Y-37869904D01*
X48696571Y-37917523D01*
X48648952Y-37869904D01*
X48601333Y-37774666D01*
X48601333Y-37536571D01*
X48648952Y-37441333D01*
X48696571Y-37393714D01*
X48791809Y-37346095D01*
X49029904Y-37346095D01*
X49125142Y-37393714D01*
X49172761Y-37441333D01*
X49220380Y-37536571D01*
X49220380Y-37774666D01*
X49172761Y-37869904D01*
X49125142Y-37917523D01*
X45410380Y-39250857D02*
X44934190Y-39584190D01*
X45410380Y-39822285D02*
X44410380Y-39822285D01*
X44410380Y-39441333D01*
X44458000Y-39346095D01*
X44505619Y-39298476D01*
X44600857Y-39250857D01*
X44743714Y-39250857D01*
X44838952Y-39298476D01*
X44886571Y-39346095D01*
X44934190Y-39441333D01*
X44934190Y-39822285D01*
X45410380Y-38298476D02*
X45410380Y-38869904D01*
X45410380Y-38584190D02*
X44410380Y-38584190D01*
X44553238Y-38679428D01*
X44648476Y-38774666D01*
X44696095Y-38869904D01*
X44410380Y-37441333D02*
X44410380Y-37631809D01*
X44458000Y-37727047D01*
X44505619Y-37774666D01*
X44648476Y-37869904D01*
X44838952Y-37917523D01*
X45219904Y-37917523D01*
X45315142Y-37869904D01*
X45362761Y-37822285D01*
X45410380Y-37727047D01*
X45410380Y-37536571D01*
X45362761Y-37441333D01*
X45315142Y-37393714D01*
X45219904Y-37346095D01*
X44981809Y-37346095D01*
X44886571Y-37393714D01*
X44838952Y-37441333D01*
X44791333Y-37536571D01*
X44791333Y-37727047D01*
X44838952Y-37822285D01*
X44886571Y-37869904D01*
X44981809Y-37917523D01*
X78167142Y-91892380D02*
X77833809Y-91416190D01*
X77595714Y-91892380D02*
X77595714Y-90892380D01*
X77976666Y-90892380D01*
X78071904Y-90940000D01*
X78119523Y-90987619D01*
X78167142Y-91082857D01*
X78167142Y-91225714D01*
X78119523Y-91320952D01*
X78071904Y-91368571D01*
X77976666Y-91416190D01*
X77595714Y-91416190D01*
X79119523Y-91892380D02*
X78548095Y-91892380D01*
X78833809Y-91892380D02*
X78833809Y-90892380D01*
X78738571Y-91035238D01*
X78643333Y-91130476D01*
X78548095Y-91178095D01*
X79452857Y-90892380D02*
X80119523Y-90892380D01*
X79690952Y-91892380D01*
X36774380Y-102242857D02*
X36298190Y-102576190D01*
X36774380Y-102814285D02*
X35774380Y-102814285D01*
X35774380Y-102433333D01*
X35822000Y-102338095D01*
X35869619Y-102290476D01*
X35964857Y-102242857D01*
X36107714Y-102242857D01*
X36202952Y-102290476D01*
X36250571Y-102338095D01*
X36298190Y-102433333D01*
X36298190Y-102814285D01*
X36774380Y-101290476D02*
X36774380Y-101861904D01*
X36774380Y-101576190D02*
X35774380Y-101576190D01*
X35917238Y-101671428D01*
X36012476Y-101766666D01*
X36060095Y-101861904D01*
X36774380Y-100814285D02*
X36774380Y-100623809D01*
X36726761Y-100528571D01*
X36679142Y-100480952D01*
X36536285Y-100385714D01*
X36345809Y-100338095D01*
X35964857Y-100338095D01*
X35869619Y-100385714D01*
X35822000Y-100433333D01*
X35774380Y-100528571D01*
X35774380Y-100719047D01*
X35822000Y-100814285D01*
X35869619Y-100861904D01*
X35964857Y-100909523D01*
X36202952Y-100909523D01*
X36298190Y-100861904D01*
X36345809Y-100814285D01*
X36393428Y-100719047D01*
X36393428Y-100528571D01*
X36345809Y-100433333D01*
X36298190Y-100385714D01*
X36202952Y-100338095D01*
X31361142Y-104338380D02*
X31027809Y-103862190D01*
X30789714Y-104338380D02*
X30789714Y-103338380D01*
X31170666Y-103338380D01*
X31265904Y-103386000D01*
X31313523Y-103433619D01*
X31361142Y-103528857D01*
X31361142Y-103671714D01*
X31313523Y-103766952D01*
X31265904Y-103814571D01*
X31170666Y-103862190D01*
X30789714Y-103862190D01*
X31742095Y-103433619D02*
X31789714Y-103386000D01*
X31884952Y-103338380D01*
X32123047Y-103338380D01*
X32218285Y-103386000D01*
X32265904Y-103433619D01*
X32313523Y-103528857D01*
X32313523Y-103624095D01*
X32265904Y-103766952D01*
X31694476Y-104338380D01*
X32313523Y-104338380D01*
X33265904Y-104338380D02*
X32694476Y-104338380D01*
X32980190Y-104338380D02*
X32980190Y-103338380D01*
X32884952Y-103481238D01*
X32789714Y-103576476D01*
X32694476Y-103624095D01*
X41267142Y-104338380D02*
X40933809Y-103862190D01*
X40695714Y-104338380D02*
X40695714Y-103338380D01*
X41076666Y-103338380D01*
X41171904Y-103386000D01*
X41219523Y-103433619D01*
X41267142Y-103528857D01*
X41267142Y-103671714D01*
X41219523Y-103766952D01*
X41171904Y-103814571D01*
X41076666Y-103862190D01*
X40695714Y-103862190D01*
X41648095Y-103433619D02*
X41695714Y-103386000D01*
X41790952Y-103338380D01*
X42029047Y-103338380D01*
X42124285Y-103386000D01*
X42171904Y-103433619D01*
X42219523Y-103528857D01*
X42219523Y-103624095D01*
X42171904Y-103766952D01*
X41600476Y-104338380D01*
X42219523Y-104338380D01*
X43076666Y-103671714D02*
X43076666Y-104338380D01*
X42838571Y-103290761D02*
X42600476Y-104005047D01*
X43219523Y-104005047D01*
X96385142Y-117292380D02*
X96051809Y-116816190D01*
X95813714Y-117292380D02*
X95813714Y-116292380D01*
X96194666Y-116292380D01*
X96289904Y-116340000D01*
X96337523Y-116387619D01*
X96385142Y-116482857D01*
X96385142Y-116625714D01*
X96337523Y-116720952D01*
X96289904Y-116768571D01*
X96194666Y-116816190D01*
X95813714Y-116816190D01*
X97337523Y-117292380D02*
X96766095Y-117292380D01*
X97051809Y-117292380D02*
X97051809Y-116292380D01*
X96956571Y-116435238D01*
X96861333Y-116530476D01*
X96766095Y-116578095D01*
X97908952Y-116720952D02*
X97813714Y-116673333D01*
X97766095Y-116625714D01*
X97718476Y-116530476D01*
X97718476Y-116482857D01*
X97766095Y-116387619D01*
X97813714Y-116340000D01*
X97908952Y-116292380D01*
X98099428Y-116292380D01*
X98194666Y-116340000D01*
X98242285Y-116387619D01*
X98289904Y-116482857D01*
X98289904Y-116530476D01*
X98242285Y-116625714D01*
X98194666Y-116673333D01*
X98099428Y-116720952D01*
X97908952Y-116720952D01*
X97813714Y-116768571D01*
X97766095Y-116816190D01*
X97718476Y-116911428D01*
X97718476Y-117101904D01*
X97766095Y-117197142D01*
X97813714Y-117244761D01*
X97908952Y-117292380D01*
X98099428Y-117292380D01*
X98194666Y-117244761D01*
X98242285Y-117197142D01*
X98289904Y-117101904D01*
X98289904Y-116911428D01*
X98242285Y-116816190D01*
X98194666Y-116768571D01*
X98099428Y-116720952D01*
X96385142Y-120340380D02*
X96051809Y-119864190D01*
X95813714Y-120340380D02*
X95813714Y-119340380D01*
X96194666Y-119340380D01*
X96289904Y-119388000D01*
X96337523Y-119435619D01*
X96385142Y-119530857D01*
X96385142Y-119673714D01*
X96337523Y-119768952D01*
X96289904Y-119816571D01*
X96194666Y-119864190D01*
X95813714Y-119864190D01*
X97337523Y-120340380D02*
X96766095Y-120340380D01*
X97051809Y-120340380D02*
X97051809Y-119340380D01*
X96956571Y-119483238D01*
X96861333Y-119578476D01*
X96766095Y-119626095D01*
X97670857Y-119340380D02*
X98289904Y-119340380D01*
X97956571Y-119721333D01*
X98099428Y-119721333D01*
X98194666Y-119768952D01*
X98242285Y-119816571D01*
X98289904Y-119911809D01*
X98289904Y-120149904D01*
X98242285Y-120245142D01*
X98194666Y-120292761D01*
X98099428Y-120340380D01*
X97813714Y-120340380D01*
X97718476Y-120292761D01*
X97670857Y-120245142D01*
X46680380Y-102496857D02*
X46204190Y-102830190D01*
X46680380Y-103068285D02*
X45680380Y-103068285D01*
X45680380Y-102687333D01*
X45728000Y-102592095D01*
X45775619Y-102544476D01*
X45870857Y-102496857D01*
X46013714Y-102496857D01*
X46108952Y-102544476D01*
X46156571Y-102592095D01*
X46204190Y-102687333D01*
X46204190Y-103068285D01*
X45775619Y-102115904D02*
X45728000Y-102068285D01*
X45680380Y-101973047D01*
X45680380Y-101734952D01*
X45728000Y-101639714D01*
X45775619Y-101592095D01*
X45870857Y-101544476D01*
X45966095Y-101544476D01*
X46108952Y-101592095D01*
X46680380Y-102163523D01*
X46680380Y-101544476D01*
X45775619Y-101163523D02*
X45728000Y-101115904D01*
X45680380Y-101020666D01*
X45680380Y-100782571D01*
X45728000Y-100687333D01*
X45775619Y-100639714D01*
X45870857Y-100592095D01*
X45966095Y-100592095D01*
X46108952Y-100639714D01*
X46680380Y-101211142D01*
X46680380Y-100592095D01*
X99512380Y-61634666D02*
X99036190Y-61968000D01*
X99512380Y-62206095D02*
X98512380Y-62206095D01*
X98512380Y-61825142D01*
X98560000Y-61729904D01*
X98607619Y-61682285D01*
X98702857Y-61634666D01*
X98845714Y-61634666D01*
X98940952Y-61682285D01*
X98988571Y-61729904D01*
X99036190Y-61825142D01*
X99036190Y-62206095D01*
X99512380Y-60682285D02*
X99512380Y-61253714D01*
X99512380Y-60968000D02*
X98512380Y-60968000D01*
X98655238Y-61063238D01*
X98750476Y-61158476D01*
X98798095Y-61253714D01*
X99512380Y-71626666D02*
X99036190Y-71960000D01*
X99512380Y-72198095D02*
X98512380Y-72198095D01*
X98512380Y-71817142D01*
X98560000Y-71721904D01*
X98607619Y-71674285D01*
X98702857Y-71626666D01*
X98845714Y-71626666D01*
X98940952Y-71674285D01*
X98988571Y-71721904D01*
X99036190Y-71817142D01*
X99036190Y-72198095D01*
X98607619Y-71245714D02*
X98560000Y-71198095D01*
X98512380Y-71102857D01*
X98512380Y-70864761D01*
X98560000Y-70769523D01*
X98607619Y-70721904D01*
X98702857Y-70674285D01*
X98798095Y-70674285D01*
X98940952Y-70721904D01*
X99512380Y-71293333D01*
X99512380Y-70674285D01*
X70556380Y-91352666D02*
X70080190Y-91686000D01*
X70556380Y-91924095D02*
X69556380Y-91924095D01*
X69556380Y-91543142D01*
X69604000Y-91447904D01*
X69651619Y-91400285D01*
X69746857Y-91352666D01*
X69889714Y-91352666D01*
X69984952Y-91400285D01*
X70032571Y-91447904D01*
X70080190Y-91543142D01*
X70080190Y-91924095D01*
X69556380Y-91019333D02*
X69556380Y-90400285D01*
X69937333Y-90733619D01*
X69937333Y-90590761D01*
X69984952Y-90495523D01*
X70032571Y-90447904D01*
X70127809Y-90400285D01*
X70365904Y-90400285D01*
X70461142Y-90447904D01*
X70508761Y-90495523D01*
X70556380Y-90590761D01*
X70556380Y-90876476D01*
X70508761Y-90971714D01*
X70461142Y-91019333D01*
X72842380Y-91352666D02*
X72366190Y-91686000D01*
X72842380Y-91924095D02*
X71842380Y-91924095D01*
X71842380Y-91543142D01*
X71890000Y-91447904D01*
X71937619Y-91400285D01*
X72032857Y-91352666D01*
X72175714Y-91352666D01*
X72270952Y-91400285D01*
X72318571Y-91447904D01*
X72366190Y-91543142D01*
X72366190Y-91924095D01*
X72175714Y-90495523D02*
X72842380Y-90495523D01*
X71794761Y-90733619D02*
X72509047Y-90971714D01*
X72509047Y-90352666D01*
X72523333Y-36266380D02*
X72190000Y-35790190D01*
X71951904Y-36266380D02*
X71951904Y-35266380D01*
X72332857Y-35266380D01*
X72428095Y-35314000D01*
X72475714Y-35361619D01*
X72523333Y-35456857D01*
X72523333Y-35599714D01*
X72475714Y-35694952D01*
X72428095Y-35742571D01*
X72332857Y-35790190D01*
X71951904Y-35790190D01*
X73428095Y-35266380D02*
X72951904Y-35266380D01*
X72904285Y-35742571D01*
X72951904Y-35694952D01*
X73047142Y-35647333D01*
X73285238Y-35647333D01*
X73380476Y-35694952D01*
X73428095Y-35742571D01*
X73475714Y-35837809D01*
X73475714Y-36075904D01*
X73428095Y-36171142D01*
X73380476Y-36218761D01*
X73285238Y-36266380D01*
X73047142Y-36266380D01*
X72951904Y-36218761D01*
X72904285Y-36171142D01*
X80112380Y-20422857D02*
X79636190Y-20756190D01*
X80112380Y-20994285D02*
X79112380Y-20994285D01*
X79112380Y-20613333D01*
X79160000Y-20518095D01*
X79207619Y-20470476D01*
X79302857Y-20422857D01*
X79445714Y-20422857D01*
X79540952Y-20470476D01*
X79588571Y-20518095D01*
X79636190Y-20613333D01*
X79636190Y-20994285D01*
X80112380Y-19470476D02*
X80112380Y-20041904D01*
X80112380Y-19756190D02*
X79112380Y-19756190D01*
X79255238Y-19851428D01*
X79350476Y-19946666D01*
X79398095Y-20041904D01*
X79207619Y-19089523D02*
X79160000Y-19041904D01*
X79112380Y-18946666D01*
X79112380Y-18708571D01*
X79160000Y-18613333D01*
X79207619Y-18565714D01*
X79302857Y-18518095D01*
X79398095Y-18518095D01*
X79540952Y-18565714D01*
X80112380Y-19137142D01*
X80112380Y-18518095D01*
X90279044Y-19756666D02*
X89802854Y-20090000D01*
X90279044Y-20328095D02*
X89279044Y-20328095D01*
X89279044Y-19947142D01*
X89326664Y-19851904D01*
X89374283Y-19804285D01*
X89469521Y-19756666D01*
X89612378Y-19756666D01*
X89707616Y-19804285D01*
X89755235Y-19851904D01*
X89802854Y-19947142D01*
X89802854Y-20328095D01*
X89707616Y-19185238D02*
X89659997Y-19280476D01*
X89612378Y-19328095D01*
X89517140Y-19375714D01*
X89469521Y-19375714D01*
X89374283Y-19328095D01*
X89326664Y-19280476D01*
X89279044Y-19185238D01*
X89279044Y-18994761D01*
X89326664Y-18899523D01*
X89374283Y-18851904D01*
X89469521Y-18804285D01*
X89517140Y-18804285D01*
X89612378Y-18851904D01*
X89659997Y-18899523D01*
X89707616Y-18994761D01*
X89707616Y-19185238D01*
X89755235Y-19280476D01*
X89802854Y-19328095D01*
X89898092Y-19375714D01*
X90088568Y-19375714D01*
X90183806Y-19328095D01*
X90231425Y-19280476D01*
X90279044Y-19185238D01*
X90279044Y-18994761D01*
X90231425Y-18899523D01*
X90183806Y-18851904D01*
X90088568Y-18804285D01*
X89898092Y-18804285D01*
X89802854Y-18851904D01*
X89755235Y-18899523D01*
X89707616Y-18994761D01*
X87737378Y-19756666D02*
X87261188Y-20090000D01*
X87737378Y-20328095D02*
X86737378Y-20328095D01*
X86737378Y-19947142D01*
X86784998Y-19851904D01*
X86832617Y-19804285D01*
X86927855Y-19756666D01*
X87070712Y-19756666D01*
X87165950Y-19804285D01*
X87213569Y-19851904D01*
X87261188Y-19947142D01*
X87261188Y-20328095D01*
X87737378Y-19280476D02*
X87737378Y-19090000D01*
X87689759Y-18994761D01*
X87642140Y-18947142D01*
X87499283Y-18851904D01*
X87308807Y-18804285D01*
X86927855Y-18804285D01*
X86832617Y-18851904D01*
X86784998Y-18899523D01*
X86737378Y-18994761D01*
X86737378Y-19185238D01*
X86784998Y-19280476D01*
X86832617Y-19328095D01*
X86927855Y-19375714D01*
X87165950Y-19375714D01*
X87261188Y-19328095D01*
X87308807Y-19280476D01*
X87356426Y-19185238D01*
X87356426Y-18994761D01*
X87308807Y-18899523D01*
X87261188Y-18851904D01*
X87165950Y-18804285D01*
X85195712Y-20422857D02*
X84719522Y-20756190D01*
X85195712Y-20994285D02*
X84195712Y-20994285D01*
X84195712Y-20613333D01*
X84243332Y-20518095D01*
X84290951Y-20470476D01*
X84386189Y-20422857D01*
X84529046Y-20422857D01*
X84624284Y-20470476D01*
X84671903Y-20518095D01*
X84719522Y-20613333D01*
X84719522Y-20994285D01*
X85195712Y-19470476D02*
X85195712Y-20041904D01*
X85195712Y-19756190D02*
X84195712Y-19756190D01*
X84338570Y-19851428D01*
X84433808Y-19946666D01*
X84481427Y-20041904D01*
X84195712Y-18851428D02*
X84195712Y-18756190D01*
X84243332Y-18660952D01*
X84290951Y-18613333D01*
X84386189Y-18565714D01*
X84576665Y-18518095D01*
X84814760Y-18518095D01*
X85005236Y-18565714D01*
X85100474Y-18613333D01*
X85148093Y-18660952D01*
X85195712Y-18756190D01*
X85195712Y-18851428D01*
X85148093Y-18946666D01*
X85100474Y-18994285D01*
X85005236Y-19041904D01*
X84814760Y-19089523D01*
X84576665Y-19089523D01*
X84386189Y-19041904D01*
X84290951Y-18994285D01*
X84243332Y-18946666D01*
X84195712Y-18851428D01*
X82654046Y-20422857D02*
X82177856Y-20756190D01*
X82654046Y-20994285D02*
X81654046Y-20994285D01*
X81654046Y-20613333D01*
X81701666Y-20518095D01*
X81749285Y-20470476D01*
X81844523Y-20422857D01*
X81987380Y-20422857D01*
X82082618Y-20470476D01*
X82130237Y-20518095D01*
X82177856Y-20613333D01*
X82177856Y-20994285D01*
X82654046Y-19470476D02*
X82654046Y-20041904D01*
X82654046Y-19756190D02*
X81654046Y-19756190D01*
X81796904Y-19851428D01*
X81892142Y-19946666D01*
X81939761Y-20041904D01*
X82654046Y-18518095D02*
X82654046Y-19089523D01*
X82654046Y-18803809D02*
X81654046Y-18803809D01*
X81796904Y-18899047D01*
X81892142Y-18994285D01*
X81939761Y-19089523D01*
X28392380Y-102496857D02*
X27916190Y-102830190D01*
X28392380Y-103068285D02*
X27392380Y-103068285D01*
X27392380Y-102687333D01*
X27440000Y-102592095D01*
X27487619Y-102544476D01*
X27582857Y-102496857D01*
X27725714Y-102496857D01*
X27820952Y-102544476D01*
X27868571Y-102592095D01*
X27916190Y-102687333D01*
X27916190Y-103068285D01*
X27487619Y-102115904D02*
X27440000Y-102068285D01*
X27392380Y-101973047D01*
X27392380Y-101734952D01*
X27440000Y-101639714D01*
X27487619Y-101592095D01*
X27582857Y-101544476D01*
X27678095Y-101544476D01*
X27820952Y-101592095D01*
X28392380Y-102163523D01*
X28392380Y-101544476D01*
X27392380Y-100925428D02*
X27392380Y-100830190D01*
X27440000Y-100734952D01*
X27487619Y-100687333D01*
X27582857Y-100639714D01*
X27773333Y-100592095D01*
X28011428Y-100592095D01*
X28201904Y-100639714D01*
X28297142Y-100687333D01*
X28344761Y-100734952D01*
X28392380Y-100830190D01*
X28392380Y-100925428D01*
X28344761Y-101020666D01*
X28297142Y-101068285D01*
X28201904Y-101115904D01*
X28011428Y-101163523D01*
X27773333Y-101163523D01*
X27582857Y-101115904D01*
X27487619Y-101068285D01*
X27440000Y-101020666D01*
X27392380Y-100925428D01*
X95362380Y-19946666D02*
X94886190Y-20280000D01*
X95362380Y-20518095D02*
X94362380Y-20518095D01*
X94362380Y-20137142D01*
X94410000Y-20041904D01*
X94457619Y-19994285D01*
X94552857Y-19946666D01*
X94695714Y-19946666D01*
X94790952Y-19994285D01*
X94838571Y-20041904D01*
X94886190Y-20137142D01*
X94886190Y-20518095D01*
X94362380Y-19089523D02*
X94362380Y-19280000D01*
X94410000Y-19375238D01*
X94457619Y-19422857D01*
X94600476Y-19518095D01*
X94790952Y-19565714D01*
X95171904Y-19565714D01*
X95267142Y-19518095D01*
X95314761Y-19470476D01*
X95362380Y-19375238D01*
X95362380Y-19184761D01*
X95314761Y-19089523D01*
X95267142Y-19041904D01*
X95171904Y-18994285D01*
X94933809Y-18994285D01*
X94838571Y-19041904D01*
X94790952Y-19089523D01*
X94743333Y-19184761D01*
X94743333Y-19375238D01*
X94790952Y-19470476D01*
X94838571Y-19518095D01*
X94933809Y-19565714D01*
X92820710Y-19946666D02*
X92344520Y-20280000D01*
X92820710Y-20518095D02*
X91820710Y-20518095D01*
X91820710Y-20137142D01*
X91868330Y-20041904D01*
X91915949Y-19994285D01*
X92011187Y-19946666D01*
X92154044Y-19946666D01*
X92249282Y-19994285D01*
X92296901Y-20041904D01*
X92344520Y-20137142D01*
X92344520Y-20518095D01*
X91820710Y-19613333D02*
X91820710Y-18946666D01*
X92820710Y-19375238D01*
X97683333Y-97532142D02*
X97635714Y-97579761D01*
X97492857Y-97627380D01*
X97397619Y-97627380D01*
X97254761Y-97579761D01*
X97159523Y-97484523D01*
X97111904Y-97389285D01*
X97064285Y-97198809D01*
X97064285Y-97055952D01*
X97111904Y-96865476D01*
X97159523Y-96770238D01*
X97254761Y-96675000D01*
X97397619Y-96627380D01*
X97492857Y-96627380D01*
X97635714Y-96675000D01*
X97683333Y-96722619D01*
X98064285Y-96722619D02*
X98111904Y-96675000D01*
X98207142Y-96627380D01*
X98445238Y-96627380D01*
X98540476Y-96675000D01*
X98588095Y-96722619D01*
X98635714Y-96817857D01*
X98635714Y-96913095D01*
X98588095Y-97055952D01*
X98016666Y-97627380D01*
X98635714Y-97627380D01*
X105083333Y-98817142D02*
X105035714Y-98864761D01*
X104892857Y-98912380D01*
X104797619Y-98912380D01*
X104654761Y-98864761D01*
X104559523Y-98769523D01*
X104511904Y-98674285D01*
X104464285Y-98483809D01*
X104464285Y-98340952D01*
X104511904Y-98150476D01*
X104559523Y-98055238D01*
X104654761Y-97960000D01*
X104797619Y-97912380D01*
X104892857Y-97912380D01*
X105035714Y-97960000D01*
X105083333Y-98007619D01*
X105940476Y-98245714D02*
X105940476Y-98912380D01*
X105702380Y-97864761D02*
X105464285Y-98579047D01*
X106083333Y-98579047D01*
X51649333Y-87733142D02*
X51601714Y-87780761D01*
X51458857Y-87828380D01*
X51363619Y-87828380D01*
X51220761Y-87780761D01*
X51125523Y-87685523D01*
X51077904Y-87590285D01*
X51030285Y-87399809D01*
X51030285Y-87256952D01*
X51077904Y-87066476D01*
X51125523Y-86971238D01*
X51220761Y-86876000D01*
X51363619Y-86828380D01*
X51458857Y-86828380D01*
X51601714Y-86876000D01*
X51649333Y-86923619D01*
X52554095Y-86828380D02*
X52077904Y-86828380D01*
X52030285Y-87304571D01*
X52077904Y-87256952D01*
X52173142Y-87209333D01*
X52411238Y-87209333D01*
X52506476Y-87256952D01*
X52554095Y-87304571D01*
X52601714Y-87399809D01*
X52601714Y-87637904D01*
X52554095Y-87733142D01*
X52506476Y-87780761D01*
X52411238Y-87828380D01*
X52173142Y-87828380D01*
X52077904Y-87780761D01*
X52030285Y-87733142D01*
X105383333Y-38767142D02*
X105335714Y-38814761D01*
X105192857Y-38862380D01*
X105097619Y-38862380D01*
X104954761Y-38814761D01*
X104859523Y-38719523D01*
X104811904Y-38624285D01*
X104764285Y-38433809D01*
X104764285Y-38290952D01*
X104811904Y-38100476D01*
X104859523Y-38005238D01*
X104954761Y-37910000D01*
X105097619Y-37862380D01*
X105192857Y-37862380D01*
X105335714Y-37910000D01*
X105383333Y-37957619D01*
X105716666Y-37862380D02*
X106383333Y-37862380D01*
X105954761Y-38862380D01*
X94829333Y-40743142D02*
X94781714Y-40790761D01*
X94638857Y-40838380D01*
X94543619Y-40838380D01*
X94400761Y-40790761D01*
X94305523Y-40695523D01*
X94257904Y-40600285D01*
X94210285Y-40409809D01*
X94210285Y-40266952D01*
X94257904Y-40076476D01*
X94305523Y-39981238D01*
X94400761Y-39886000D01*
X94543619Y-39838380D01*
X94638857Y-39838380D01*
X94781714Y-39886000D01*
X94829333Y-39933619D01*
X95400761Y-40266952D02*
X95305523Y-40219333D01*
X95257904Y-40171714D01*
X95210285Y-40076476D01*
X95210285Y-40028857D01*
X95257904Y-39933619D01*
X95305523Y-39886000D01*
X95400761Y-39838380D01*
X95591238Y-39838380D01*
X95686476Y-39886000D01*
X95734095Y-39933619D01*
X95781714Y-40028857D01*
X95781714Y-40076476D01*
X95734095Y-40171714D01*
X95686476Y-40219333D01*
X95591238Y-40266952D01*
X95400761Y-40266952D01*
X95305523Y-40314571D01*
X95257904Y-40362190D01*
X95210285Y-40457428D01*
X95210285Y-40647904D01*
X95257904Y-40743142D01*
X95305523Y-40790761D01*
X95400761Y-40838380D01*
X95591238Y-40838380D01*
X95686476Y-40790761D01*
X95734095Y-40743142D01*
X95781714Y-40647904D01*
X95781714Y-40457428D01*
X95734095Y-40362190D01*
X95686476Y-40314571D01*
X95591238Y-40266952D01*
X18161904Y-48302380D02*
X18161904Y-47302380D01*
X18400000Y-47302380D01*
X18542857Y-47350000D01*
X18638095Y-47445238D01*
X18685714Y-47540476D01*
X18733333Y-47730952D01*
X18733333Y-47873809D01*
X18685714Y-48064285D01*
X18638095Y-48159523D01*
X18542857Y-48254761D01*
X18400000Y-48302380D01*
X18161904Y-48302380D01*
X19685714Y-48302380D02*
X19114285Y-48302380D01*
X19400000Y-48302380D02*
X19400000Y-47302380D01*
X19304761Y-47445238D01*
X19209523Y-47540476D01*
X19114285Y-47588095D01*
X28411904Y-48252380D02*
X28411904Y-47252380D01*
X28650000Y-47252380D01*
X28792857Y-47300000D01*
X28888095Y-47395238D01*
X28935714Y-47490476D01*
X28983333Y-47680952D01*
X28983333Y-47823809D01*
X28935714Y-48014285D01*
X28888095Y-48109523D01*
X28792857Y-48204761D01*
X28650000Y-48252380D01*
X28411904Y-48252380D01*
X29364285Y-47347619D02*
X29411904Y-47300000D01*
X29507142Y-47252380D01*
X29745238Y-47252380D01*
X29840476Y-47300000D01*
X29888095Y-47347619D01*
X29935714Y-47442857D01*
X29935714Y-47538095D01*
X29888095Y-47680952D01*
X29316666Y-48252380D01*
X29935714Y-48252380D01*
X38794556Y-48452380D02*
X38794556Y-47452380D01*
X39032652Y-47452380D01*
X39175509Y-47500000D01*
X39270747Y-47595238D01*
X39318366Y-47690476D01*
X39365985Y-47880952D01*
X39365985Y-48023809D01*
X39318366Y-48214285D01*
X39270747Y-48309523D01*
X39175509Y-48404761D01*
X39032652Y-48452380D01*
X38794556Y-48452380D01*
X39699318Y-47452380D02*
X40318366Y-47452380D01*
X39985032Y-47833333D01*
X40127890Y-47833333D01*
X40223128Y-47880952D01*
X40270747Y-47928571D01*
X40318366Y-48023809D01*
X40318366Y-48261904D01*
X40270747Y-48357142D01*
X40223128Y-48404761D01*
X40127890Y-48452380D01*
X39842175Y-48452380D01*
X39746937Y-48404761D01*
X39699318Y-48357142D01*
X49261904Y-48452380D02*
X49261904Y-47452380D01*
X49500000Y-47452380D01*
X49642857Y-47500000D01*
X49738095Y-47595238D01*
X49785714Y-47690476D01*
X49833333Y-47880952D01*
X49833333Y-48023809D01*
X49785714Y-48214285D01*
X49738095Y-48309523D01*
X49642857Y-48404761D01*
X49500000Y-48452380D01*
X49261904Y-48452380D01*
X50690476Y-47785714D02*
X50690476Y-48452380D01*
X50452380Y-47404761D02*
X50214285Y-48119047D01*
X50833333Y-48119047D01*
X90876188Y-48452380D02*
X90876188Y-47452380D01*
X91114284Y-47452380D01*
X91257141Y-47500000D01*
X91352379Y-47595238D01*
X91399998Y-47690476D01*
X91447617Y-47880952D01*
X91447617Y-48023809D01*
X91399998Y-48214285D01*
X91352379Y-48309523D01*
X91257141Y-48404761D01*
X91114284Y-48452380D01*
X90876188Y-48452380D01*
X92352379Y-47452380D02*
X91876188Y-47452380D01*
X91828569Y-47928571D01*
X91876188Y-47880952D01*
X91971426Y-47833333D01*
X92209522Y-47833333D01*
X92304760Y-47880952D01*
X92352379Y-47928571D01*
X92399998Y-48023809D01*
X92399998Y-48261904D01*
X92352379Y-48357142D01*
X92304760Y-48404761D01*
X92209522Y-48452380D01*
X91971426Y-48452380D01*
X91876188Y-48404761D01*
X91828569Y-48357142D01*
X80261904Y-48452380D02*
X80261904Y-47452380D01*
X80500000Y-47452380D01*
X80642857Y-47500000D01*
X80738095Y-47595238D01*
X80785714Y-47690476D01*
X80833333Y-47880952D01*
X80833333Y-48023809D01*
X80785714Y-48214285D01*
X80738095Y-48309523D01*
X80642857Y-48404761D01*
X80500000Y-48452380D01*
X80261904Y-48452380D01*
X81690476Y-47452380D02*
X81500000Y-47452380D01*
X81404761Y-47500000D01*
X81357142Y-47547619D01*
X81261904Y-47690476D01*
X81214285Y-47880952D01*
X81214285Y-48261904D01*
X81261904Y-48357142D01*
X81309523Y-48404761D01*
X81404761Y-48452380D01*
X81595238Y-48452380D01*
X81690476Y-48404761D01*
X81738095Y-48357142D01*
X81785714Y-48261904D01*
X81785714Y-48023809D01*
X81738095Y-47928571D01*
X81690476Y-47880952D01*
X81595238Y-47833333D01*
X81404761Y-47833333D01*
X81309523Y-47880952D01*
X81261904Y-47928571D01*
X81214285Y-48023809D01*
X70043534Y-48452380D02*
X70043534Y-47452380D01*
X70281630Y-47452380D01*
X70424487Y-47500000D01*
X70519725Y-47595238D01*
X70567344Y-47690476D01*
X70614963Y-47880952D01*
X70614963Y-48023809D01*
X70567344Y-48214285D01*
X70519725Y-48309523D01*
X70424487Y-48404761D01*
X70281630Y-48452380D01*
X70043534Y-48452380D01*
X70948296Y-47452380D02*
X71614963Y-47452380D01*
X71186391Y-48452380D01*
X59627208Y-48452380D02*
X59627208Y-47452380D01*
X59865304Y-47452380D01*
X60008161Y-47500000D01*
X60103399Y-47595238D01*
X60151018Y-47690476D01*
X60198637Y-47880952D01*
X60198637Y-48023809D01*
X60151018Y-48214285D01*
X60103399Y-48309523D01*
X60008161Y-48404761D01*
X59865304Y-48452380D01*
X59627208Y-48452380D01*
X60770065Y-47880952D02*
X60674827Y-47833333D01*
X60627208Y-47785714D01*
X60579589Y-47690476D01*
X60579589Y-47642857D01*
X60627208Y-47547619D01*
X60674827Y-47500000D01*
X60770065Y-47452380D01*
X60960542Y-47452380D01*
X61055780Y-47500000D01*
X61103399Y-47547619D01*
X61151018Y-47642857D01*
X61151018Y-47690476D01*
X61103399Y-47785714D01*
X61055780Y-47833333D01*
X60960542Y-47880952D01*
X60770065Y-47880952D01*
X60674827Y-47928571D01*
X60627208Y-47976190D01*
X60579589Y-48071428D01*
X60579589Y-48261904D01*
X60627208Y-48357142D01*
X60674827Y-48404761D01*
X60770065Y-48452380D01*
X60960542Y-48452380D01*
X61055780Y-48404761D01*
X61103399Y-48357142D01*
X61151018Y-48261904D01*
X61151018Y-48071428D01*
X61103399Y-47976190D01*
X61055780Y-47928571D01*
X60960542Y-47880952D01*
X17961904Y-63952380D02*
X17961904Y-62952380D01*
X18200000Y-62952380D01*
X18342857Y-63000000D01*
X18438095Y-63095238D01*
X18485714Y-63190476D01*
X18533333Y-63380952D01*
X18533333Y-63523809D01*
X18485714Y-63714285D01*
X18438095Y-63809523D01*
X18342857Y-63904761D01*
X18200000Y-63952380D01*
X17961904Y-63952380D01*
X19009523Y-63952380D02*
X19200000Y-63952380D01*
X19295238Y-63904761D01*
X19342857Y-63857142D01*
X19438095Y-63714285D01*
X19485714Y-63523809D01*
X19485714Y-63142857D01*
X19438095Y-63047619D01*
X19390476Y-63000000D01*
X19295238Y-62952380D01*
X19104761Y-62952380D01*
X19009523Y-63000000D01*
X18961904Y-63047619D01*
X18914285Y-63142857D01*
X18914285Y-63380952D01*
X18961904Y-63476190D01*
X19009523Y-63523809D01*
X19104761Y-63571428D01*
X19295238Y-63571428D01*
X19390476Y-63523809D01*
X19438095Y-63476190D01*
X19485714Y-63380952D01*
X27902040Y-63952380D02*
X27902040Y-62952380D01*
X28140135Y-62952380D01*
X28282992Y-63000000D01*
X28378230Y-63095238D01*
X28425849Y-63190476D01*
X28473468Y-63380952D01*
X28473468Y-63523809D01*
X28425849Y-63714285D01*
X28378230Y-63809523D01*
X28282992Y-63904761D01*
X28140135Y-63952380D01*
X27902040Y-63952380D01*
X29425849Y-63952380D02*
X28854421Y-63952380D01*
X29140135Y-63952380D02*
X29140135Y-62952380D01*
X29044897Y-63095238D01*
X28949659Y-63190476D01*
X28854421Y-63238095D01*
X30044897Y-62952380D02*
X30140135Y-62952380D01*
X30235373Y-63000000D01*
X30282992Y-63047619D01*
X30330611Y-63142857D01*
X30378230Y-63333333D01*
X30378230Y-63571428D01*
X30330611Y-63761904D01*
X30282992Y-63857142D01*
X30235373Y-63904761D01*
X30140135Y-63952380D01*
X30044897Y-63952380D01*
X29949659Y-63904761D01*
X29902040Y-63857142D01*
X29854421Y-63761904D01*
X29806802Y-63571428D01*
X29806802Y-63333333D01*
X29854421Y-63142857D01*
X29902040Y-63047619D01*
X29949659Y-63000000D01*
X30044897Y-62952380D01*
X38285714Y-63952380D02*
X38285714Y-62952380D01*
X38523809Y-62952380D01*
X38666666Y-63000000D01*
X38761904Y-63095238D01*
X38809523Y-63190476D01*
X38857142Y-63380952D01*
X38857142Y-63523809D01*
X38809523Y-63714285D01*
X38761904Y-63809523D01*
X38666666Y-63904761D01*
X38523809Y-63952380D01*
X38285714Y-63952380D01*
X39809523Y-63952380D02*
X39238095Y-63952380D01*
X39523809Y-63952380D02*
X39523809Y-62952380D01*
X39428571Y-63095238D01*
X39333333Y-63190476D01*
X39238095Y-63238095D01*
X40761904Y-63952380D02*
X40190476Y-63952380D01*
X40476190Y-63952380D02*
X40476190Y-62952380D01*
X40380952Y-63095238D01*
X40285714Y-63190476D01*
X40190476Y-63238095D01*
X48734692Y-63952380D02*
X48734692Y-62952380D01*
X48972787Y-62952380D01*
X49115644Y-63000000D01*
X49210882Y-63095238D01*
X49258501Y-63190476D01*
X49306120Y-63380952D01*
X49306120Y-63523809D01*
X49258501Y-63714285D01*
X49210882Y-63809523D01*
X49115644Y-63904761D01*
X48972787Y-63952380D01*
X48734692Y-63952380D01*
X50258501Y-63952380D02*
X49687073Y-63952380D01*
X49972787Y-63952380D02*
X49972787Y-62952380D01*
X49877549Y-63095238D01*
X49782311Y-63190476D01*
X49687073Y-63238095D01*
X50639454Y-63047619D02*
X50687073Y-63000000D01*
X50782311Y-62952380D01*
X51020406Y-62952380D01*
X51115644Y-63000000D01*
X51163263Y-63047619D01*
X51210882Y-63142857D01*
X51210882Y-63238095D01*
X51163263Y-63380952D01*
X50591835Y-63952380D01*
X51210882Y-63952380D01*
X90399998Y-63952380D02*
X90399998Y-62952380D01*
X90638093Y-62952380D01*
X90780950Y-63000000D01*
X90876188Y-63095238D01*
X90923807Y-63190476D01*
X90971426Y-63380952D01*
X90971426Y-63523809D01*
X90923807Y-63714285D01*
X90876188Y-63809523D01*
X90780950Y-63904761D01*
X90638093Y-63952380D01*
X90399998Y-63952380D01*
X91923807Y-63952380D02*
X91352379Y-63952380D01*
X91638093Y-63952380D02*
X91638093Y-62952380D01*
X91542855Y-63095238D01*
X91447617Y-63190476D01*
X91352379Y-63238095D01*
X92257141Y-62952380D02*
X92876188Y-62952380D01*
X92542855Y-63333333D01*
X92685712Y-63333333D01*
X92780950Y-63380952D01*
X92828569Y-63428571D01*
X92876188Y-63523809D01*
X92876188Y-63761904D01*
X92828569Y-63857142D01*
X92780950Y-63904761D01*
X92685712Y-63952380D01*
X92399998Y-63952380D01*
X92304760Y-63904761D01*
X92257141Y-63857142D01*
X79983670Y-63952380D02*
X79983670Y-62952380D01*
X80221765Y-62952380D01*
X80364622Y-63000000D01*
X80459860Y-63095238D01*
X80507479Y-63190476D01*
X80555098Y-63380952D01*
X80555098Y-63523809D01*
X80507479Y-63714285D01*
X80459860Y-63809523D01*
X80364622Y-63904761D01*
X80221765Y-63952380D01*
X79983670Y-63952380D01*
X81507479Y-63952380D02*
X80936051Y-63952380D01*
X81221765Y-63952380D02*
X81221765Y-62952380D01*
X81126527Y-63095238D01*
X81031289Y-63190476D01*
X80936051Y-63238095D01*
X82364622Y-63285714D02*
X82364622Y-63952380D01*
X82126527Y-62904761D02*
X81888432Y-63619047D01*
X82507479Y-63619047D01*
X69567344Y-63952380D02*
X69567344Y-62952380D01*
X69805439Y-62952380D01*
X69948296Y-63000000D01*
X70043534Y-63095238D01*
X70091153Y-63190476D01*
X70138772Y-63380952D01*
X70138772Y-63523809D01*
X70091153Y-63714285D01*
X70043534Y-63809523D01*
X69948296Y-63904761D01*
X69805439Y-63952380D01*
X69567344Y-63952380D01*
X71091153Y-63952380D02*
X70519725Y-63952380D01*
X70805439Y-63952380D02*
X70805439Y-62952380D01*
X70710201Y-63095238D01*
X70614963Y-63190476D01*
X70519725Y-63238095D01*
X71995915Y-62952380D02*
X71519725Y-62952380D01*
X71472106Y-63428571D01*
X71519725Y-63380952D01*
X71614963Y-63333333D01*
X71853058Y-63333333D01*
X71948296Y-63380952D01*
X71995915Y-63428571D01*
X72043534Y-63523809D01*
X72043534Y-63761904D01*
X71995915Y-63857142D01*
X71948296Y-63904761D01*
X71853058Y-63952380D01*
X71614963Y-63952380D01*
X71519725Y-63904761D01*
X71472106Y-63857142D01*
X59285714Y-63952380D02*
X59285714Y-62952380D01*
X59523809Y-62952380D01*
X59666666Y-63000000D01*
X59761904Y-63095238D01*
X59809523Y-63190476D01*
X59857142Y-63380952D01*
X59857142Y-63523809D01*
X59809523Y-63714285D01*
X59761904Y-63809523D01*
X59666666Y-63904761D01*
X59523809Y-63952380D01*
X59285714Y-63952380D01*
X60809523Y-63952380D02*
X60238095Y-63952380D01*
X60523809Y-63952380D02*
X60523809Y-62952380D01*
X60428571Y-63095238D01*
X60333333Y-63190476D01*
X60238095Y-63238095D01*
X61666666Y-62952380D02*
X61476190Y-62952380D01*
X61380952Y-63000000D01*
X61333333Y-63047619D01*
X61238095Y-63190476D01*
X61190476Y-63380952D01*
X61190476Y-63761904D01*
X61238095Y-63857142D01*
X61285714Y-63904761D01*
X61380952Y-63952380D01*
X61571428Y-63952380D01*
X61666666Y-63904761D01*
X61714285Y-63857142D01*
X61761904Y-63761904D01*
X61761904Y-63523809D01*
X61714285Y-63428571D01*
X61666666Y-63380952D01*
X61571428Y-63333333D01*
X61380952Y-63333333D01*
X61285714Y-63380952D01*
X61238095Y-63428571D01*
X61190476Y-63523809D01*
X91555714Y-113582380D02*
X91555714Y-112582380D01*
X91793809Y-112582380D01*
X91936666Y-112630000D01*
X92031904Y-112725238D01*
X92079523Y-112820476D01*
X92127142Y-113010952D01*
X92127142Y-113153809D01*
X92079523Y-113344285D01*
X92031904Y-113439523D01*
X91936666Y-113534761D01*
X91793809Y-113582380D01*
X91555714Y-113582380D01*
X93079523Y-113582380D02*
X92508095Y-113582380D01*
X92793809Y-113582380D02*
X92793809Y-112582380D01*
X92698571Y-112725238D01*
X92603333Y-112820476D01*
X92508095Y-112868095D01*
X93412857Y-112582380D02*
X94079523Y-112582380D01*
X93650952Y-113582380D01*
X84235714Y-101100380D02*
X84235714Y-100100380D01*
X84473809Y-100100380D01*
X84616666Y-100148000D01*
X84711904Y-100243238D01*
X84759523Y-100338476D01*
X84807142Y-100528952D01*
X84807142Y-100671809D01*
X84759523Y-100862285D01*
X84711904Y-100957523D01*
X84616666Y-101052761D01*
X84473809Y-101100380D01*
X84235714Y-101100380D01*
X85759523Y-101100380D02*
X85188095Y-101100380D01*
X85473809Y-101100380D02*
X85473809Y-100100380D01*
X85378571Y-100243238D01*
X85283333Y-100338476D01*
X85188095Y-100386095D01*
X86330952Y-100528952D02*
X86235714Y-100481333D01*
X86188095Y-100433714D01*
X86140476Y-100338476D01*
X86140476Y-100290857D01*
X86188095Y-100195619D01*
X86235714Y-100148000D01*
X86330952Y-100100380D01*
X86521428Y-100100380D01*
X86616666Y-100148000D01*
X86664285Y-100195619D01*
X86711904Y-100290857D01*
X86711904Y-100338476D01*
X86664285Y-100433714D01*
X86616666Y-100481333D01*
X86521428Y-100528952D01*
X86330952Y-100528952D01*
X86235714Y-100576571D01*
X86188095Y-100624190D01*
X86140476Y-100719428D01*
X86140476Y-100909904D01*
X86188095Y-101005142D01*
X86235714Y-101052761D01*
X86330952Y-101100380D01*
X86521428Y-101100380D01*
X86616666Y-101052761D01*
X86664285Y-101005142D01*
X86711904Y-100909904D01*
X86711904Y-100719428D01*
X86664285Y-100624190D01*
X86616666Y-100576571D01*
X86521428Y-100528952D01*
X82288095Y-100252380D02*
X82288095Y-99252380D01*
X82859523Y-100252380D02*
X82430952Y-99680952D01*
X82859523Y-99252380D02*
X82288095Y-99823809D01*
X89717714Y-107132380D02*
X89717714Y-106132380D01*
X89955809Y-106132380D01*
X90098666Y-106180000D01*
X90193904Y-106275238D01*
X90241523Y-106370476D01*
X90289142Y-106560952D01*
X90289142Y-106703809D01*
X90241523Y-106894285D01*
X90193904Y-106989523D01*
X90098666Y-107084761D01*
X89955809Y-107132380D01*
X89717714Y-107132380D01*
X91241523Y-107132380D02*
X90670095Y-107132380D01*
X90955809Y-107132380D02*
X90955809Y-106132380D01*
X90860571Y-106275238D01*
X90765333Y-106370476D01*
X90670095Y-106418095D01*
X91717714Y-107132380D02*
X91908190Y-107132380D01*
X92003428Y-107084761D01*
X92051047Y-107037142D01*
X92146285Y-106894285D01*
X92193904Y-106703809D01*
X92193904Y-106322857D01*
X92146285Y-106227619D01*
X92098666Y-106180000D01*
X92003428Y-106132380D01*
X91812952Y-106132380D01*
X91717714Y-106180000D01*
X91670095Y-106227619D01*
X91622476Y-106322857D01*
X91622476Y-106560952D01*
X91670095Y-106656190D01*
X91717714Y-106703809D01*
X91812952Y-106751428D01*
X92003428Y-106751428D01*
X92098666Y-106703809D01*
X92146285Y-106656190D01*
X92193904Y-106560952D01*
X82230666Y-118040380D02*
X82230666Y-118754666D01*
X82183047Y-118897523D01*
X82087809Y-118992761D01*
X81944952Y-119040380D01*
X81849714Y-119040380D01*
X83135428Y-118373714D02*
X83135428Y-119040380D01*
X82897333Y-117992761D02*
X82659238Y-118707047D01*
X83278285Y-118707047D01*
X70230666Y-118040380D02*
X70230666Y-118754666D01*
X70183047Y-118897523D01*
X70087809Y-118992761D01*
X69944952Y-119040380D01*
X69849714Y-119040380D01*
X71183047Y-118040380D02*
X70706857Y-118040380D01*
X70659238Y-118516571D01*
X70706857Y-118468952D01*
X70802095Y-118421333D01*
X71040190Y-118421333D01*
X71135428Y-118468952D01*
X71183047Y-118516571D01*
X71230666Y-118611809D01*
X71230666Y-118849904D01*
X71183047Y-118945142D01*
X71135428Y-118992761D01*
X71040190Y-119040380D01*
X70802095Y-119040380D01*
X70706857Y-118992761D01*
X70659238Y-118945142D01*
X22230666Y-118040380D02*
X22230666Y-118754666D01*
X22183047Y-118897523D01*
X22087809Y-118992761D01*
X21944952Y-119040380D01*
X21849714Y-119040380D01*
X23135428Y-118040380D02*
X22944952Y-118040380D01*
X22849714Y-118088000D01*
X22802095Y-118135619D01*
X22706857Y-118278476D01*
X22659238Y-118468952D01*
X22659238Y-118849904D01*
X22706857Y-118945142D01*
X22754476Y-118992761D01*
X22849714Y-119040380D01*
X23040190Y-119040380D01*
X23135428Y-118992761D01*
X23183047Y-118945142D01*
X23230666Y-118849904D01*
X23230666Y-118611809D01*
X23183047Y-118516571D01*
X23135428Y-118468952D01*
X23040190Y-118421333D01*
X22849714Y-118421333D01*
X22754476Y-118468952D01*
X22706857Y-118516571D01*
X22659238Y-118611809D01*
X58230666Y-118040380D02*
X58230666Y-118754666D01*
X58183047Y-118897523D01*
X58087809Y-118992761D01*
X57944952Y-119040380D01*
X57849714Y-119040380D01*
X58611619Y-118040380D02*
X59278285Y-118040380D01*
X58849714Y-119040380D01*
X46230666Y-118040380D02*
X46230666Y-118754666D01*
X46183047Y-118897523D01*
X46087809Y-118992761D01*
X45944952Y-119040380D01*
X45849714Y-119040380D01*
X46849714Y-118468952D02*
X46754476Y-118421333D01*
X46706857Y-118373714D01*
X46659238Y-118278476D01*
X46659238Y-118230857D01*
X46706857Y-118135619D01*
X46754476Y-118088000D01*
X46849714Y-118040380D01*
X47040190Y-118040380D01*
X47135428Y-118088000D01*
X47183047Y-118135619D01*
X47230666Y-118230857D01*
X47230666Y-118278476D01*
X47183047Y-118373714D01*
X47135428Y-118421333D01*
X47040190Y-118468952D01*
X46849714Y-118468952D01*
X46754476Y-118516571D01*
X46706857Y-118564190D01*
X46659238Y-118659428D01*
X46659238Y-118849904D01*
X46706857Y-118945142D01*
X46754476Y-118992761D01*
X46849714Y-119040380D01*
X47040190Y-119040380D01*
X47135428Y-118992761D01*
X47183047Y-118945142D01*
X47230666Y-118849904D01*
X47230666Y-118659428D01*
X47183047Y-118564190D01*
X47135428Y-118516571D01*
X47040190Y-118468952D01*
X34230666Y-118040380D02*
X34230666Y-118754666D01*
X34183047Y-118897523D01*
X34087809Y-118992761D01*
X33944952Y-119040380D01*
X33849714Y-119040380D01*
X34754476Y-119040380D02*
X34944952Y-119040380D01*
X35040190Y-118992761D01*
X35087809Y-118945142D01*
X35183047Y-118802285D01*
X35230666Y-118611809D01*
X35230666Y-118230857D01*
X35183047Y-118135619D01*
X35135428Y-118088000D01*
X35040190Y-118040380D01*
X34849714Y-118040380D01*
X34754476Y-118088000D01*
X34706857Y-118135619D01*
X34659238Y-118230857D01*
X34659238Y-118468952D01*
X34706857Y-118564190D01*
X34754476Y-118611809D01*
X34849714Y-118659428D01*
X35040190Y-118659428D01*
X35135428Y-118611809D01*
X35183047Y-118564190D01*
X35230666Y-118468952D01*
X19666666Y-91904761D02*
X19809523Y-91952380D01*
X20047619Y-91952380D01*
X20142857Y-91904761D01*
X20190476Y-91857142D01*
X20238095Y-91761904D01*
X20238095Y-91666666D01*
X20190476Y-91571428D01*
X20142857Y-91523809D01*
X20047619Y-91476190D01*
X19857142Y-91428571D01*
X19761904Y-91380952D01*
X19714285Y-91333333D01*
X19666666Y-91238095D01*
X19666666Y-91142857D01*
X19714285Y-91047619D01*
X19761904Y-91000000D01*
X19857142Y-90952380D01*
X20095238Y-90952380D01*
X20238095Y-91000000D01*
X20571428Y-90952380D02*
X20809523Y-91952380D01*
X21000000Y-91238095D01*
X21190476Y-91952380D01*
X21428571Y-90952380D01*
X22333333Y-91952380D02*
X21761904Y-91952380D01*
X22047619Y-91952380D02*
X22047619Y-90952380D01*
X21952380Y-91095238D01*
X21857142Y-91190476D01*
X21761904Y-91238095D01*
X51666666Y-91904761D02*
X51809523Y-91952380D01*
X52047619Y-91952380D01*
X52142857Y-91904761D01*
X52190476Y-91857142D01*
X52238095Y-91761904D01*
X52238095Y-91666666D01*
X52190476Y-91571428D01*
X52142857Y-91523809D01*
X52047619Y-91476190D01*
X51857142Y-91428571D01*
X51761904Y-91380952D01*
X51714285Y-91333333D01*
X51666666Y-91238095D01*
X51666666Y-91142857D01*
X51714285Y-91047619D01*
X51761904Y-91000000D01*
X51857142Y-90952380D01*
X52095238Y-90952380D01*
X52238095Y-91000000D01*
X52571428Y-90952380D02*
X52809523Y-91952380D01*
X53000000Y-91238095D01*
X53190476Y-91952380D01*
X53428571Y-90952380D01*
X53761904Y-91047619D02*
X53809523Y-91000000D01*
X53904761Y-90952380D01*
X54142857Y-90952380D01*
X54238095Y-91000000D01*
X54285714Y-91047619D01*
X54333333Y-91142857D01*
X54333333Y-91238095D01*
X54285714Y-91380952D01*
X53714285Y-91952380D01*
X54333333Y-91952380D01*
M02*
