G04 #@! TF.GenerationSoftware,KiCad,Pcbnew,(5.1.2)-1*
G04 #@! TF.CreationDate,2020-08-16T19:37:39-07:00*
G04 #@! TF.ProjectId,kicad-panel,6b696361-642d-4706-916e-656c2e6b6963,rev?*
G04 #@! TF.SameCoordinates,Original*
G04 #@! TF.FileFunction,Copper,L2,Bot*
G04 #@! TF.FilePolarity,Positive*
%FSLAX46Y46*%
G04 Gerber Fmt 4.6, Leading zero omitted, Abs format (unit mm)*
G04 Created by KiCad (PCBNEW (5.1.2)-1) date 2020-08-16 19:37:39*
%MOMM*%
%LPD*%
G04 APERTURE LIST*
%ADD10C,5.500000*%
%ADD11C,10.500000*%
%ADD12C,1.000000*%
%ADD13C,0.254000*%
G04 APERTURE END LIST*
D10*
X19400000Y-15080000D03*
X105630000Y-15080000D03*
X19400000Y-137480000D03*
X105630000Y-137480000D03*
D11*
X78990000Y-121800000D03*
X66990000Y-121800000D03*
X54990000Y-121800000D03*
X42990000Y-121800000D03*
X30990000Y-121800000D03*
X18990000Y-121800000D03*
D12*
X87029997Y-121800000D02*
X18990000Y-121800000D01*
X101740913Y-137480000D02*
X19400000Y-137480000D01*
X105630000Y-137480000D02*
X101740913Y-137480000D01*
X101740913Y-15080000D02*
X19400000Y-15080000D01*
X105630000Y-15080000D02*
X101740913Y-15080000D01*
X13039999Y-131119999D02*
X19400000Y-137480000D01*
X19400000Y-15080000D02*
X13039999Y-21440001D01*
X13039999Y-21440001D02*
X13039999Y-131119999D01*
X106530000Y-15080000D02*
X108080000Y-16630000D01*
X105630000Y-15080000D02*
X106530000Y-15080000D01*
X107170000Y-15080000D02*
X105630000Y-15080000D01*
X109100000Y-17010000D02*
X107170000Y-15080000D01*
X109170000Y-17010000D02*
X109100000Y-17010000D01*
X112088869Y-19928869D02*
X109170000Y-17010000D01*
X105630000Y-137480000D02*
X112088869Y-131021131D01*
X112088869Y-131021131D02*
X112088869Y-19928869D01*
D13*
G36*
X102228628Y-15073457D02*
G01*
X102292708Y-15737158D01*
X102485038Y-16375605D01*
X102798228Y-16964262D01*
X102805497Y-16975141D01*
X103249072Y-17281323D01*
X105450395Y-15080000D01*
X105436253Y-15065858D01*
X105615858Y-14886253D01*
X105630000Y-14900395D01*
X105644143Y-14886253D01*
X105823748Y-15065858D01*
X105809605Y-15080000D01*
X108010928Y-17281323D01*
X108436385Y-16987647D01*
X112043088Y-19890875D01*
X112202929Y-130560742D01*
X106540363Y-136749242D01*
X105809605Y-137480000D01*
X105823748Y-137494143D01*
X105774791Y-137543099D01*
X105485511Y-137543401D01*
X105436253Y-137494143D01*
X105450395Y-137480000D01*
X103249072Y-135278677D01*
X102805497Y-135584859D01*
X102490046Y-136172306D01*
X102295260Y-136810008D01*
X102228628Y-137473457D01*
X102235709Y-137546796D01*
X22786985Y-137629795D01*
X22801372Y-137486543D01*
X22737292Y-136822842D01*
X22544962Y-136184395D01*
X22231772Y-135595738D01*
X22224503Y-135584859D01*
X21780928Y-135278677D01*
X19606433Y-137453172D01*
X19432621Y-137267774D01*
X21601323Y-135099072D01*
X103428677Y-135099072D01*
X105630000Y-137300395D01*
X107831323Y-135099072D01*
X107525141Y-134655497D01*
X106937694Y-134340046D01*
X106299992Y-134145260D01*
X105636543Y-134078628D01*
X104972842Y-134142708D01*
X104334395Y-134335038D01*
X103745738Y-134648228D01*
X103734859Y-134655497D01*
X103428677Y-135099072D01*
X21601323Y-135099072D01*
X21295141Y-134655497D01*
X20707694Y-134340046D01*
X20069992Y-134145260D01*
X19406543Y-134078628D01*
X18742842Y-134142708D01*
X18104395Y-134335038D01*
X17515738Y-134648228D01*
X17504859Y-134655497D01*
X17283822Y-134975721D01*
X13840428Y-131302768D01*
X13286990Y-127201402D01*
X13282530Y-123272124D01*
X13331157Y-123516591D01*
X13774781Y-124587593D01*
X14418822Y-125551469D01*
X15238531Y-126371178D01*
X16202407Y-127015219D01*
X17273409Y-127458843D01*
X18410378Y-127685000D01*
X19569622Y-127685000D01*
X20706591Y-127458843D01*
X21777593Y-127015219D01*
X22741469Y-126371178D01*
X23561178Y-125551469D01*
X24205219Y-124587593D01*
X24648843Y-123516591D01*
X24764529Y-122935000D01*
X25215471Y-122935000D01*
X25331157Y-123516591D01*
X25774781Y-124587593D01*
X26418822Y-125551469D01*
X27238531Y-126371178D01*
X28202407Y-127015219D01*
X29273409Y-127458843D01*
X30410378Y-127685000D01*
X31569622Y-127685000D01*
X32706591Y-127458843D01*
X33777593Y-127015219D01*
X34741469Y-126371178D01*
X35561178Y-125551469D01*
X36205219Y-124587593D01*
X36648843Y-123516591D01*
X36764529Y-122935000D01*
X37215471Y-122935000D01*
X37331157Y-123516591D01*
X37774781Y-124587593D01*
X38418822Y-125551469D01*
X39238531Y-126371178D01*
X40202407Y-127015219D01*
X41273409Y-127458843D01*
X42410378Y-127685000D01*
X43569622Y-127685000D01*
X44706591Y-127458843D01*
X45777593Y-127015219D01*
X46741469Y-126371178D01*
X47561178Y-125551469D01*
X48205219Y-124587593D01*
X48648843Y-123516591D01*
X48764529Y-122935000D01*
X49215471Y-122935000D01*
X49331157Y-123516591D01*
X49774781Y-124587593D01*
X50418822Y-125551469D01*
X51238531Y-126371178D01*
X52202407Y-127015219D01*
X53273409Y-127458843D01*
X54410378Y-127685000D01*
X55569622Y-127685000D01*
X56706591Y-127458843D01*
X57777593Y-127015219D01*
X58741469Y-126371178D01*
X59561178Y-125551469D01*
X60205219Y-124587593D01*
X60648843Y-123516591D01*
X60764529Y-122935000D01*
X61215471Y-122935000D01*
X61331157Y-123516591D01*
X61774781Y-124587593D01*
X62418822Y-125551469D01*
X63238531Y-126371178D01*
X64202407Y-127015219D01*
X65273409Y-127458843D01*
X66410378Y-127685000D01*
X67569622Y-127685000D01*
X68706591Y-127458843D01*
X69777593Y-127015219D01*
X70741469Y-126371178D01*
X71561178Y-125551469D01*
X72205219Y-124587593D01*
X72648843Y-123516591D01*
X72764529Y-122935000D01*
X73215471Y-122935000D01*
X73331157Y-123516591D01*
X73774781Y-124587593D01*
X74418822Y-125551469D01*
X75238531Y-126371178D01*
X76202407Y-127015219D01*
X77273409Y-127458843D01*
X78410378Y-127685000D01*
X79569622Y-127685000D01*
X80706591Y-127458843D01*
X81777593Y-127015219D01*
X82741469Y-126371178D01*
X83561178Y-125551469D01*
X84205219Y-124587593D01*
X84648843Y-123516591D01*
X84764529Y-122935000D01*
X85944471Y-122935000D01*
X86118868Y-123356031D01*
X86478371Y-123894066D01*
X86935931Y-124351626D01*
X87473966Y-124711129D01*
X88071798Y-124958760D01*
X88706453Y-125085000D01*
X89353541Y-125085000D01*
X89988196Y-124958760D01*
X90586028Y-124711129D01*
X91124063Y-124351626D01*
X91581623Y-123894066D01*
X91941126Y-123356031D01*
X92188757Y-122758199D01*
X92314997Y-122123544D01*
X92314997Y-121476456D01*
X92196190Y-120879166D01*
X100265218Y-120879166D01*
X100357407Y-121701046D01*
X100607477Y-122489367D01*
X101005904Y-123214103D01*
X101537511Y-123847648D01*
X102182050Y-124365871D01*
X102914971Y-124749032D01*
X103708356Y-124982538D01*
X104531987Y-125057495D01*
X105354490Y-124971046D01*
X106144538Y-124726485D01*
X106872038Y-124333128D01*
X107509279Y-123805957D01*
X108031988Y-123165051D01*
X108420257Y-122434823D01*
X108659297Y-121643087D01*
X108740001Y-120820000D01*
X108738349Y-120701679D01*
X108634694Y-119881167D01*
X108373641Y-119096414D01*
X107965135Y-118377312D01*
X107424733Y-117751251D01*
X106773022Y-117242078D01*
X106034823Y-116869187D01*
X105238254Y-116646781D01*
X104413657Y-116583331D01*
X103592441Y-116681256D01*
X102805885Y-116936823D01*
X102083948Y-117340300D01*
X101454130Y-117876317D01*
X100940420Y-118524458D01*
X100562384Y-119260036D01*
X100334423Y-120055032D01*
X100265218Y-120879166D01*
X92196190Y-120879166D01*
X92188757Y-120841801D01*
X91941126Y-120243969D01*
X91581623Y-119705934D01*
X91124063Y-119248374D01*
X90586028Y-118888871D01*
X89988196Y-118641240D01*
X89353541Y-118515000D01*
X88706453Y-118515000D01*
X88071798Y-118641240D01*
X87473966Y-118888871D01*
X86935931Y-119248374D01*
X86478371Y-119705934D01*
X86118868Y-120243969D01*
X85944471Y-120665000D01*
X84764529Y-120665000D01*
X84648843Y-120083409D01*
X84205219Y-119012407D01*
X83561178Y-118048531D01*
X82741469Y-117228822D01*
X81777593Y-116584781D01*
X80706591Y-116141157D01*
X79569622Y-115915000D01*
X78410378Y-115915000D01*
X77273409Y-116141157D01*
X76202407Y-116584781D01*
X75238531Y-117228822D01*
X74418822Y-118048531D01*
X73774781Y-119012407D01*
X73331157Y-120083409D01*
X73215471Y-120665000D01*
X72764529Y-120665000D01*
X72648843Y-120083409D01*
X72205219Y-119012407D01*
X71561178Y-118048531D01*
X70741469Y-117228822D01*
X69777593Y-116584781D01*
X68706591Y-116141157D01*
X67569622Y-115915000D01*
X66410378Y-115915000D01*
X65273409Y-116141157D01*
X64202407Y-116584781D01*
X63238531Y-117228822D01*
X62418822Y-118048531D01*
X61774781Y-119012407D01*
X61331157Y-120083409D01*
X61215471Y-120665000D01*
X60764529Y-120665000D01*
X60648843Y-120083409D01*
X60205219Y-119012407D01*
X59561178Y-118048531D01*
X58741469Y-117228822D01*
X57777593Y-116584781D01*
X56706591Y-116141157D01*
X55569622Y-115915000D01*
X54410378Y-115915000D01*
X53273409Y-116141157D01*
X52202407Y-116584781D01*
X51238531Y-117228822D01*
X50418822Y-118048531D01*
X49774781Y-119012407D01*
X49331157Y-120083409D01*
X49215471Y-120665000D01*
X48764529Y-120665000D01*
X48648843Y-120083409D01*
X48205219Y-119012407D01*
X47561178Y-118048531D01*
X46741469Y-117228822D01*
X45777593Y-116584781D01*
X44706591Y-116141157D01*
X43569622Y-115915000D01*
X42410378Y-115915000D01*
X41273409Y-116141157D01*
X40202407Y-116584781D01*
X39238531Y-117228822D01*
X38418822Y-118048531D01*
X37774781Y-119012407D01*
X37331157Y-120083409D01*
X37215471Y-120665000D01*
X36764529Y-120665000D01*
X36648843Y-120083409D01*
X36205219Y-119012407D01*
X35561178Y-118048531D01*
X34741469Y-117228822D01*
X33777593Y-116584781D01*
X32706591Y-116141157D01*
X31569622Y-115915000D01*
X30410378Y-115915000D01*
X29273409Y-116141157D01*
X28202407Y-116584781D01*
X27238531Y-117228822D01*
X26418822Y-118048531D01*
X25774781Y-119012407D01*
X25331157Y-120083409D01*
X25215471Y-120665000D01*
X24764529Y-120665000D01*
X24648843Y-120083409D01*
X24205219Y-119012407D01*
X23561178Y-118048531D01*
X22741469Y-117228822D01*
X21777593Y-116584781D01*
X20706591Y-116141157D01*
X19569622Y-115915000D01*
X18410378Y-115915000D01*
X17273409Y-116141157D01*
X16202407Y-116584781D01*
X15238531Y-117228822D01*
X14418822Y-118048531D01*
X13774781Y-119012407D01*
X13331157Y-120083409D01*
X13279206Y-120344583D01*
X13264005Y-106952817D01*
X15804240Y-106952817D01*
X15830714Y-107963819D01*
X16035803Y-108954155D01*
X16413024Y-109892522D01*
X16950453Y-110749258D01*
X17631104Y-111497283D01*
X18433461Y-112112953D01*
X19332163Y-112576808D01*
X20298804Y-112874186D01*
X21302828Y-112995686D01*
X22312500Y-112937469D01*
X23295906Y-112701374D01*
X24221960Y-112294864D01*
X25061393Y-111730789D01*
X25787669Y-111026979D01*
X26377833Y-110205679D01*
X26813230Y-109292850D01*
X27080098Y-108317345D01*
X27170001Y-107310000D01*
X27162205Y-107012287D01*
X27155165Y-106962817D01*
X47834240Y-106962817D01*
X47860714Y-107973819D01*
X48065803Y-108964155D01*
X48443024Y-109902522D01*
X48980453Y-110759258D01*
X49661104Y-111507283D01*
X50463461Y-112122953D01*
X51362163Y-112586808D01*
X52328804Y-112884186D01*
X53332828Y-113005686D01*
X54342500Y-112947469D01*
X55325906Y-112711374D01*
X56251960Y-112304864D01*
X57091393Y-111740789D01*
X57817669Y-111036979D01*
X58407833Y-110215679D01*
X58843230Y-109302850D01*
X59110098Y-108327345D01*
X59200001Y-107320000D01*
X59192205Y-107022287D01*
X59080365Y-106236456D01*
X74985000Y-106236456D01*
X74985000Y-106883544D01*
X75111240Y-107518199D01*
X75358871Y-108116031D01*
X75718374Y-108654066D01*
X76175934Y-109111626D01*
X76713969Y-109471129D01*
X77311801Y-109718760D01*
X77946456Y-109845000D01*
X78593544Y-109845000D01*
X79228199Y-109718760D01*
X79826031Y-109471129D01*
X80364066Y-109111626D01*
X80821626Y-108654066D01*
X81181129Y-108116031D01*
X81428760Y-107518199D01*
X81555000Y-106883544D01*
X81555000Y-106236456D01*
X82605000Y-106236456D01*
X82605000Y-106883544D01*
X82731240Y-107518199D01*
X82978871Y-108116031D01*
X83338374Y-108654066D01*
X83795934Y-109111626D01*
X84333969Y-109471129D01*
X84931801Y-109718760D01*
X85566456Y-109845000D01*
X86213544Y-109845000D01*
X86848199Y-109718760D01*
X87446031Y-109471129D01*
X87984066Y-109111626D01*
X88441626Y-108654066D01*
X88801129Y-108116031D01*
X89048760Y-107518199D01*
X89175000Y-106883544D01*
X89175000Y-106236456D01*
X89048760Y-105601801D01*
X88801129Y-105003969D01*
X88441626Y-104465934D01*
X87984066Y-104008374D01*
X87446031Y-103648871D01*
X86848199Y-103401240D01*
X86213544Y-103275000D01*
X85566456Y-103275000D01*
X84931801Y-103401240D01*
X84333969Y-103648871D01*
X83795934Y-104008374D01*
X83338374Y-104465934D01*
X82978871Y-105003969D01*
X82731240Y-105601801D01*
X82605000Y-106236456D01*
X81555000Y-106236456D01*
X81428760Y-105601801D01*
X81181129Y-105003969D01*
X80821626Y-104465934D01*
X80364066Y-104008374D01*
X79826031Y-103648871D01*
X79228199Y-103401240D01*
X78593544Y-103275000D01*
X77946456Y-103275000D01*
X77311801Y-103401240D01*
X76713969Y-103648871D01*
X76175934Y-104008374D01*
X75718374Y-104465934D01*
X75358871Y-105003969D01*
X75111240Y-105601801D01*
X74985000Y-106236456D01*
X59080365Y-106236456D01*
X59049705Y-106021028D01*
X58732149Y-105060827D01*
X58249575Y-104172036D01*
X57617236Y-103382748D01*
X56855120Y-102717912D01*
X55987317Y-102198543D01*
X55041257Y-101841056D01*
X54046842Y-101656753D01*
X53035507Y-101651457D01*
X52039218Y-101825338D01*
X51089465Y-102172898D01*
X50216271Y-102683151D01*
X49447235Y-103339970D01*
X48806666Y-104122593D01*
X48314811Y-105006281D01*
X47987217Y-105963104D01*
X47834240Y-106962817D01*
X27155165Y-106962817D01*
X27019705Y-106011028D01*
X26702149Y-105050827D01*
X26219575Y-104162036D01*
X25587236Y-103372748D01*
X24825120Y-102707912D01*
X23957317Y-102188543D01*
X23011257Y-101831056D01*
X22016842Y-101646753D01*
X21005507Y-101641457D01*
X20009218Y-101815338D01*
X19059465Y-102162898D01*
X18186271Y-102673151D01*
X17417235Y-103329970D01*
X16776666Y-104112593D01*
X16284811Y-104996281D01*
X15957217Y-105953104D01*
X15804240Y-106952817D01*
X13264005Y-106952817D01*
X13244988Y-90199166D01*
X100275218Y-90199166D01*
X100367407Y-91021046D01*
X100617477Y-91809367D01*
X101015904Y-92534103D01*
X101547511Y-93167648D01*
X102192050Y-93685871D01*
X102924971Y-94069032D01*
X103718356Y-94302538D01*
X104541987Y-94377495D01*
X105364490Y-94291046D01*
X106154538Y-94046485D01*
X106882038Y-93653128D01*
X107519279Y-93125957D01*
X108041988Y-92485051D01*
X108430257Y-91754823D01*
X108669297Y-90963087D01*
X108750001Y-90140000D01*
X108748349Y-90021679D01*
X108644694Y-89201167D01*
X108383641Y-88416414D01*
X107975135Y-87697312D01*
X107434733Y-87071251D01*
X106783022Y-86562078D01*
X106044823Y-86189187D01*
X105248254Y-85966781D01*
X104423657Y-85903331D01*
X103602441Y-86001256D01*
X102815885Y-86256823D01*
X102093948Y-86660300D01*
X101464130Y-87196317D01*
X100950420Y-87844458D01*
X100572384Y-88580036D01*
X100344423Y-89375032D01*
X100275218Y-90199166D01*
X13244988Y-90199166D01*
X13235880Y-82176456D01*
X15985000Y-82176456D01*
X15985000Y-82823544D01*
X16111240Y-83458199D01*
X16358871Y-84056031D01*
X16718374Y-84594066D01*
X17175934Y-85051626D01*
X17713969Y-85411129D01*
X18311801Y-85658760D01*
X18946456Y-85785000D01*
X19593544Y-85785000D01*
X20228199Y-85658760D01*
X20826031Y-85411129D01*
X21364066Y-85051626D01*
X21821626Y-84594066D01*
X22181129Y-84056031D01*
X22428760Y-83458199D01*
X22555000Y-82823544D01*
X22555000Y-82176456D01*
X26413571Y-82176456D01*
X26413571Y-82823544D01*
X26539811Y-83458199D01*
X26787442Y-84056031D01*
X27146945Y-84594066D01*
X27604505Y-85051626D01*
X28142540Y-85411129D01*
X28740372Y-85658760D01*
X29375027Y-85785000D01*
X30022115Y-85785000D01*
X30656770Y-85658760D01*
X31254602Y-85411129D01*
X31792637Y-85051626D01*
X32250197Y-84594066D01*
X32609700Y-84056031D01*
X32857331Y-83458199D01*
X32983571Y-82823544D01*
X32983571Y-82176456D01*
X36842142Y-82176456D01*
X36842142Y-82823544D01*
X36968382Y-83458199D01*
X37216013Y-84056031D01*
X37575516Y-84594066D01*
X38033076Y-85051626D01*
X38571111Y-85411129D01*
X39168943Y-85658760D01*
X39803598Y-85785000D01*
X40450686Y-85785000D01*
X41085341Y-85658760D01*
X41683173Y-85411129D01*
X42221208Y-85051626D01*
X42678768Y-84594066D01*
X43038271Y-84056031D01*
X43285902Y-83458199D01*
X43412142Y-82823544D01*
X43412142Y-82176456D01*
X47270713Y-82176456D01*
X47270713Y-82823544D01*
X47396953Y-83458199D01*
X47644584Y-84056031D01*
X48004087Y-84594066D01*
X48461647Y-85051626D01*
X48999682Y-85411129D01*
X49597514Y-85658760D01*
X50232169Y-85785000D01*
X50879257Y-85785000D01*
X51513912Y-85658760D01*
X52111744Y-85411129D01*
X52649779Y-85051626D01*
X53107339Y-84594066D01*
X53466842Y-84056031D01*
X53714473Y-83458199D01*
X53840713Y-82823544D01*
X53840713Y-82176456D01*
X57699284Y-82176456D01*
X57699284Y-82823544D01*
X57825524Y-83458199D01*
X58073155Y-84056031D01*
X58432658Y-84594066D01*
X58890218Y-85051626D01*
X59428253Y-85411129D01*
X60026085Y-85658760D01*
X60660740Y-85785000D01*
X61307828Y-85785000D01*
X61942483Y-85658760D01*
X62540315Y-85411129D01*
X63078350Y-85051626D01*
X63535910Y-84594066D01*
X63895413Y-84056031D01*
X64143044Y-83458199D01*
X64269284Y-82823544D01*
X64269284Y-82176456D01*
X68127855Y-82176456D01*
X68127855Y-82823544D01*
X68254095Y-83458199D01*
X68501726Y-84056031D01*
X68861229Y-84594066D01*
X69318789Y-85051626D01*
X69856824Y-85411129D01*
X70454656Y-85658760D01*
X71089311Y-85785000D01*
X71736399Y-85785000D01*
X72371054Y-85658760D01*
X72968886Y-85411129D01*
X73506921Y-85051626D01*
X73964481Y-84594066D01*
X74323984Y-84056031D01*
X74571615Y-83458199D01*
X74697855Y-82823544D01*
X74697855Y-82176456D01*
X78556426Y-82176456D01*
X78556426Y-82823544D01*
X78682666Y-83458199D01*
X78930297Y-84056031D01*
X79289800Y-84594066D01*
X79747360Y-85051626D01*
X80285395Y-85411129D01*
X80883227Y-85658760D01*
X81517882Y-85785000D01*
X82164970Y-85785000D01*
X82799625Y-85658760D01*
X83397457Y-85411129D01*
X83935492Y-85051626D01*
X84393052Y-84594066D01*
X84752555Y-84056031D01*
X85000186Y-83458199D01*
X85126426Y-82823544D01*
X85126426Y-82176456D01*
X85120459Y-82146456D01*
X88984997Y-82146456D01*
X88984997Y-82793544D01*
X89111237Y-83428199D01*
X89358868Y-84026031D01*
X89718371Y-84564066D01*
X90175931Y-85021626D01*
X90713966Y-85381129D01*
X91311798Y-85628760D01*
X91946453Y-85755000D01*
X92593541Y-85755000D01*
X93228196Y-85628760D01*
X93826028Y-85381129D01*
X94364063Y-85021626D01*
X94821623Y-84564066D01*
X95181126Y-84026031D01*
X95428757Y-83428199D01*
X95554997Y-82793544D01*
X95554997Y-82146456D01*
X95428757Y-81511801D01*
X95181126Y-80913969D01*
X94821623Y-80375934D01*
X94364063Y-79918374D01*
X93826028Y-79558871D01*
X93228196Y-79311240D01*
X92593541Y-79185000D01*
X91946453Y-79185000D01*
X91311798Y-79311240D01*
X90713966Y-79558871D01*
X90175931Y-79918374D01*
X89718371Y-80375934D01*
X89358868Y-80913969D01*
X89111237Y-81511801D01*
X88984997Y-82146456D01*
X85120459Y-82146456D01*
X85000186Y-81541801D01*
X84752555Y-80943969D01*
X84393052Y-80405934D01*
X83935492Y-79948374D01*
X83397457Y-79588871D01*
X82799625Y-79341240D01*
X82164970Y-79215000D01*
X81517882Y-79215000D01*
X80883227Y-79341240D01*
X80285395Y-79588871D01*
X79747360Y-79948374D01*
X79289800Y-80405934D01*
X78930297Y-80943969D01*
X78682666Y-81541801D01*
X78556426Y-82176456D01*
X74697855Y-82176456D01*
X74571615Y-81541801D01*
X74323984Y-80943969D01*
X73964481Y-80405934D01*
X73506921Y-79948374D01*
X72968886Y-79588871D01*
X72371054Y-79341240D01*
X71736399Y-79215000D01*
X71089311Y-79215000D01*
X70454656Y-79341240D01*
X69856824Y-79588871D01*
X69318789Y-79948374D01*
X68861229Y-80405934D01*
X68501726Y-80943969D01*
X68254095Y-81541801D01*
X68127855Y-82176456D01*
X64269284Y-82176456D01*
X64143044Y-81541801D01*
X63895413Y-80943969D01*
X63535910Y-80405934D01*
X63078350Y-79948374D01*
X62540315Y-79588871D01*
X61942483Y-79341240D01*
X61307828Y-79215000D01*
X60660740Y-79215000D01*
X60026085Y-79341240D01*
X59428253Y-79588871D01*
X58890218Y-79948374D01*
X58432658Y-80405934D01*
X58073155Y-80943969D01*
X57825524Y-81541801D01*
X57699284Y-82176456D01*
X53840713Y-82176456D01*
X53714473Y-81541801D01*
X53466842Y-80943969D01*
X53107339Y-80405934D01*
X52649779Y-79948374D01*
X52111744Y-79588871D01*
X51513912Y-79341240D01*
X50879257Y-79215000D01*
X50232169Y-79215000D01*
X49597514Y-79341240D01*
X48999682Y-79588871D01*
X48461647Y-79948374D01*
X48004087Y-80405934D01*
X47644584Y-80943969D01*
X47396953Y-81541801D01*
X47270713Y-82176456D01*
X43412142Y-82176456D01*
X43285902Y-81541801D01*
X43038271Y-80943969D01*
X42678768Y-80405934D01*
X42221208Y-79948374D01*
X41683173Y-79588871D01*
X41085341Y-79341240D01*
X40450686Y-79215000D01*
X39803598Y-79215000D01*
X39168943Y-79341240D01*
X38571111Y-79588871D01*
X38033076Y-79948374D01*
X37575516Y-80405934D01*
X37216013Y-80943969D01*
X36968382Y-81541801D01*
X36842142Y-82176456D01*
X32983571Y-82176456D01*
X32857331Y-81541801D01*
X32609700Y-80943969D01*
X32250197Y-80405934D01*
X31792637Y-79948374D01*
X31254602Y-79588871D01*
X30656770Y-79341240D01*
X30022115Y-79215000D01*
X29375027Y-79215000D01*
X28740372Y-79341240D01*
X28142540Y-79588871D01*
X27604505Y-79948374D01*
X27146945Y-80405934D01*
X26787442Y-80943969D01*
X26539811Y-81541801D01*
X26413571Y-82176456D01*
X22555000Y-82176456D01*
X22428760Y-81541801D01*
X22181129Y-80943969D01*
X21821626Y-80405934D01*
X21364066Y-79948374D01*
X20826031Y-79588871D01*
X20228199Y-79341240D01*
X19593544Y-79215000D01*
X18946456Y-79215000D01*
X18311801Y-79341240D01*
X17713969Y-79588871D01*
X17175934Y-79948374D01*
X16718374Y-80405934D01*
X16358871Y-80943969D01*
X16111240Y-81541801D01*
X15985000Y-82176456D01*
X13235880Y-82176456D01*
X13227779Y-75039721D01*
X17125000Y-75039721D01*
X17125000Y-75460279D01*
X17207047Y-75872756D01*
X17367988Y-76261302D01*
X17601637Y-76610983D01*
X17899017Y-76908363D01*
X18248698Y-77142012D01*
X18637244Y-77302953D01*
X19049721Y-77385000D01*
X19470279Y-77385000D01*
X19882756Y-77302953D01*
X20271302Y-77142012D01*
X20620983Y-76908363D01*
X20918363Y-76610983D01*
X21152012Y-76261302D01*
X21312953Y-75872756D01*
X21395000Y-75460279D01*
X21395000Y-75039721D01*
X27605000Y-75039721D01*
X27605000Y-75460279D01*
X27687047Y-75872756D01*
X27847988Y-76261302D01*
X28081637Y-76610983D01*
X28379017Y-76908363D01*
X28728698Y-77142012D01*
X29117244Y-77302953D01*
X29529721Y-77385000D01*
X29950279Y-77385000D01*
X30362756Y-77302953D01*
X30751302Y-77142012D01*
X31100983Y-76908363D01*
X31398363Y-76610983D01*
X31632012Y-76261302D01*
X31792953Y-75872756D01*
X31875000Y-75460279D01*
X31875000Y-75039721D01*
X37995000Y-75039721D01*
X37995000Y-75460279D01*
X38077047Y-75872756D01*
X38237988Y-76261302D01*
X38471637Y-76610983D01*
X38769017Y-76908363D01*
X39118698Y-77142012D01*
X39507244Y-77302953D01*
X39919721Y-77385000D01*
X40340279Y-77385000D01*
X40752756Y-77302953D01*
X41141302Y-77142012D01*
X41490983Y-76908363D01*
X41788363Y-76610983D01*
X42022012Y-76261302D01*
X42182953Y-75872756D01*
X42265000Y-75460279D01*
X42265000Y-75039721D01*
X48385000Y-75039721D01*
X48385000Y-75460279D01*
X48467047Y-75872756D01*
X48627988Y-76261302D01*
X48861637Y-76610983D01*
X49159017Y-76908363D01*
X49508698Y-77142012D01*
X49897244Y-77302953D01*
X50309721Y-77385000D01*
X50730279Y-77385000D01*
X51142756Y-77302953D01*
X51531302Y-77142012D01*
X51880983Y-76908363D01*
X52178363Y-76610983D01*
X52412012Y-76261302D01*
X52572953Y-75872756D01*
X52655000Y-75460279D01*
X52655000Y-75039721D01*
X58795000Y-75039721D01*
X58795000Y-75460279D01*
X58877047Y-75872756D01*
X59037988Y-76261302D01*
X59271637Y-76610983D01*
X59569017Y-76908363D01*
X59918698Y-77142012D01*
X60307244Y-77302953D01*
X60719721Y-77385000D01*
X61140279Y-77385000D01*
X61552756Y-77302953D01*
X61941302Y-77142012D01*
X62290983Y-76908363D01*
X62588363Y-76610983D01*
X62822012Y-76261302D01*
X62982953Y-75872756D01*
X63065000Y-75460279D01*
X63065000Y-75039721D01*
X69215000Y-75039721D01*
X69215000Y-75460279D01*
X69297047Y-75872756D01*
X69457988Y-76261302D01*
X69691637Y-76610983D01*
X69989017Y-76908363D01*
X70338698Y-77142012D01*
X70727244Y-77302953D01*
X71139721Y-77385000D01*
X71560279Y-77385000D01*
X71972756Y-77302953D01*
X72361302Y-77142012D01*
X72710983Y-76908363D01*
X73008363Y-76610983D01*
X73242012Y-76261302D01*
X73402953Y-75872756D01*
X73485000Y-75460279D01*
X73485000Y-75039721D01*
X79625000Y-75039721D01*
X79625000Y-75460279D01*
X79707047Y-75872756D01*
X79867988Y-76261302D01*
X80101637Y-76610983D01*
X80399017Y-76908363D01*
X80748698Y-77142012D01*
X81137244Y-77302953D01*
X81549721Y-77385000D01*
X81970279Y-77385000D01*
X82382756Y-77302953D01*
X82771302Y-77142012D01*
X83120983Y-76908363D01*
X83418363Y-76610983D01*
X83652012Y-76261302D01*
X83812953Y-75872756D01*
X83895000Y-75460279D01*
X83895000Y-75039721D01*
X90025000Y-75039721D01*
X90025000Y-75460279D01*
X90107047Y-75872756D01*
X90267988Y-76261302D01*
X90501637Y-76610983D01*
X90799017Y-76908363D01*
X91148698Y-77142012D01*
X91537244Y-77302953D01*
X91949721Y-77385000D01*
X92370279Y-77385000D01*
X92782756Y-77302953D01*
X93171302Y-77142012D01*
X93520983Y-76908363D01*
X93818363Y-76610983D01*
X94052012Y-76261302D01*
X94212953Y-75872756D01*
X94295000Y-75460279D01*
X94295000Y-75039721D01*
X94212953Y-74627244D01*
X94052012Y-74238698D01*
X93818363Y-73889017D01*
X93520983Y-73591637D01*
X93171302Y-73357988D01*
X92782756Y-73197047D01*
X92370279Y-73115000D01*
X91949721Y-73115000D01*
X91537244Y-73197047D01*
X91148698Y-73357988D01*
X90799017Y-73591637D01*
X90501637Y-73889017D01*
X90267988Y-74238698D01*
X90107047Y-74627244D01*
X90025000Y-75039721D01*
X83895000Y-75039721D01*
X83812953Y-74627244D01*
X83652012Y-74238698D01*
X83418363Y-73889017D01*
X83120983Y-73591637D01*
X82771302Y-73357988D01*
X82382756Y-73197047D01*
X81970279Y-73115000D01*
X81549721Y-73115000D01*
X81137244Y-73197047D01*
X80748698Y-73357988D01*
X80399017Y-73591637D01*
X80101637Y-73889017D01*
X79867988Y-74238698D01*
X79707047Y-74627244D01*
X79625000Y-75039721D01*
X73485000Y-75039721D01*
X73402953Y-74627244D01*
X73242012Y-74238698D01*
X73008363Y-73889017D01*
X72710983Y-73591637D01*
X72361302Y-73357988D01*
X71972756Y-73197047D01*
X71560279Y-73115000D01*
X71139721Y-73115000D01*
X70727244Y-73197047D01*
X70338698Y-73357988D01*
X69989017Y-73591637D01*
X69691637Y-73889017D01*
X69457988Y-74238698D01*
X69297047Y-74627244D01*
X69215000Y-75039721D01*
X63065000Y-75039721D01*
X62982953Y-74627244D01*
X62822012Y-74238698D01*
X62588363Y-73889017D01*
X62290983Y-73591637D01*
X61941302Y-73357988D01*
X61552756Y-73197047D01*
X61140279Y-73115000D01*
X60719721Y-73115000D01*
X60307244Y-73197047D01*
X59918698Y-73357988D01*
X59569017Y-73591637D01*
X59271637Y-73889017D01*
X59037988Y-74238698D01*
X58877047Y-74627244D01*
X58795000Y-75039721D01*
X52655000Y-75039721D01*
X52572953Y-74627244D01*
X52412012Y-74238698D01*
X52178363Y-73889017D01*
X51880983Y-73591637D01*
X51531302Y-73357988D01*
X51142756Y-73197047D01*
X50730279Y-73115000D01*
X50309721Y-73115000D01*
X49897244Y-73197047D01*
X49508698Y-73357988D01*
X49159017Y-73591637D01*
X48861637Y-73889017D01*
X48627988Y-74238698D01*
X48467047Y-74627244D01*
X48385000Y-75039721D01*
X42265000Y-75039721D01*
X42182953Y-74627244D01*
X42022012Y-74238698D01*
X41788363Y-73889017D01*
X41490983Y-73591637D01*
X41141302Y-73357988D01*
X40752756Y-73197047D01*
X40340279Y-73115000D01*
X39919721Y-73115000D01*
X39507244Y-73197047D01*
X39118698Y-73357988D01*
X38769017Y-73591637D01*
X38471637Y-73889017D01*
X38237988Y-74238698D01*
X38077047Y-74627244D01*
X37995000Y-75039721D01*
X31875000Y-75039721D01*
X31792953Y-74627244D01*
X31632012Y-74238698D01*
X31398363Y-73889017D01*
X31100983Y-73591637D01*
X30751302Y-73357988D01*
X30362756Y-73197047D01*
X29950279Y-73115000D01*
X29529721Y-73115000D01*
X29117244Y-73197047D01*
X28728698Y-73357988D01*
X28379017Y-73591637D01*
X28081637Y-73889017D01*
X27847988Y-74238698D01*
X27687047Y-74627244D01*
X27605000Y-75039721D01*
X21395000Y-75039721D01*
X21312953Y-74627244D01*
X21152012Y-74238698D01*
X20918363Y-73889017D01*
X20620983Y-73591637D01*
X20271302Y-73357988D01*
X19882756Y-73197047D01*
X19470279Y-73115000D01*
X19049721Y-73115000D01*
X18637244Y-73197047D01*
X18248698Y-73357988D01*
X17899017Y-73591637D01*
X17601637Y-73889017D01*
X17367988Y-74238698D01*
X17207047Y-74627244D01*
X17125000Y-75039721D01*
X13227779Y-75039721D01*
X13218307Y-66696456D01*
X15945000Y-66696456D01*
X15945000Y-67343544D01*
X16071240Y-67978199D01*
X16318871Y-68576031D01*
X16678374Y-69114066D01*
X17135934Y-69571626D01*
X17673969Y-69931129D01*
X18271801Y-70178760D01*
X18906456Y-70305000D01*
X19553544Y-70305000D01*
X20188199Y-70178760D01*
X20786031Y-69931129D01*
X21324066Y-69571626D01*
X21781626Y-69114066D01*
X22141129Y-68576031D01*
X22388760Y-67978199D01*
X22515000Y-67343544D01*
X22515000Y-66696456D01*
X26373571Y-66696456D01*
X26373571Y-67343544D01*
X26499811Y-67978199D01*
X26747442Y-68576031D01*
X27106945Y-69114066D01*
X27564505Y-69571626D01*
X28102540Y-69931129D01*
X28700372Y-70178760D01*
X29335027Y-70305000D01*
X29982115Y-70305000D01*
X30616770Y-70178760D01*
X31214602Y-69931129D01*
X31752637Y-69571626D01*
X32210197Y-69114066D01*
X32569700Y-68576031D01*
X32817331Y-67978199D01*
X32943571Y-67343544D01*
X32943571Y-66696456D01*
X36802142Y-66696456D01*
X36802142Y-67343544D01*
X36928382Y-67978199D01*
X37176013Y-68576031D01*
X37535516Y-69114066D01*
X37993076Y-69571626D01*
X38531111Y-69931129D01*
X39128943Y-70178760D01*
X39763598Y-70305000D01*
X40410686Y-70305000D01*
X41045341Y-70178760D01*
X41643173Y-69931129D01*
X42181208Y-69571626D01*
X42638768Y-69114066D01*
X42998271Y-68576031D01*
X43245902Y-67978199D01*
X43372142Y-67343544D01*
X43372142Y-66696456D01*
X47230713Y-66696456D01*
X47230713Y-67343544D01*
X47356953Y-67978199D01*
X47604584Y-68576031D01*
X47964087Y-69114066D01*
X48421647Y-69571626D01*
X48959682Y-69931129D01*
X49557514Y-70178760D01*
X50192169Y-70305000D01*
X50839257Y-70305000D01*
X51473912Y-70178760D01*
X52071744Y-69931129D01*
X52609779Y-69571626D01*
X53067339Y-69114066D01*
X53426842Y-68576031D01*
X53674473Y-67978199D01*
X53800713Y-67343544D01*
X53800713Y-66696456D01*
X57659284Y-66696456D01*
X57659284Y-67343544D01*
X57785524Y-67978199D01*
X58033155Y-68576031D01*
X58392658Y-69114066D01*
X58850218Y-69571626D01*
X59388253Y-69931129D01*
X59986085Y-70178760D01*
X60620740Y-70305000D01*
X61267828Y-70305000D01*
X61902483Y-70178760D01*
X62500315Y-69931129D01*
X63038350Y-69571626D01*
X63495910Y-69114066D01*
X63855413Y-68576031D01*
X64103044Y-67978199D01*
X64229284Y-67343544D01*
X64229284Y-66696456D01*
X68087855Y-66696456D01*
X68087855Y-67343544D01*
X68214095Y-67978199D01*
X68461726Y-68576031D01*
X68821229Y-69114066D01*
X69278789Y-69571626D01*
X69816824Y-69931129D01*
X70414656Y-70178760D01*
X71049311Y-70305000D01*
X71696399Y-70305000D01*
X72331054Y-70178760D01*
X72928886Y-69931129D01*
X73466921Y-69571626D01*
X73924481Y-69114066D01*
X74283984Y-68576031D01*
X74531615Y-67978199D01*
X74657855Y-67343544D01*
X74657855Y-66696456D01*
X78516426Y-66696456D01*
X78516426Y-67343544D01*
X78642666Y-67978199D01*
X78890297Y-68576031D01*
X79249800Y-69114066D01*
X79707360Y-69571626D01*
X80245395Y-69931129D01*
X80843227Y-70178760D01*
X81477882Y-70305000D01*
X82124970Y-70305000D01*
X82759625Y-70178760D01*
X83357457Y-69931129D01*
X83895492Y-69571626D01*
X84353052Y-69114066D01*
X84712555Y-68576031D01*
X84960186Y-67978199D01*
X85086426Y-67343544D01*
X85086426Y-66696456D01*
X85080459Y-66666456D01*
X88944997Y-66666456D01*
X88944997Y-67313544D01*
X89071237Y-67948199D01*
X89318868Y-68546031D01*
X89678371Y-69084066D01*
X90135931Y-69541626D01*
X90673966Y-69901129D01*
X91271798Y-70148760D01*
X91906453Y-70275000D01*
X92553541Y-70275000D01*
X93188196Y-70148760D01*
X93786028Y-69901129D01*
X94324063Y-69541626D01*
X94781623Y-69084066D01*
X95141126Y-68546031D01*
X95388757Y-67948199D01*
X95514997Y-67313544D01*
X95514997Y-66666456D01*
X95388757Y-66031801D01*
X95141126Y-65433969D01*
X94781623Y-64895934D01*
X94324063Y-64438374D01*
X93786028Y-64078871D01*
X93188196Y-63831240D01*
X92553541Y-63705000D01*
X91906453Y-63705000D01*
X91271798Y-63831240D01*
X90673966Y-64078871D01*
X90135931Y-64438374D01*
X89678371Y-64895934D01*
X89318868Y-65433969D01*
X89071237Y-66031801D01*
X88944997Y-66666456D01*
X85080459Y-66666456D01*
X84960186Y-66061801D01*
X84712555Y-65463969D01*
X84353052Y-64925934D01*
X83895492Y-64468374D01*
X83357457Y-64108871D01*
X82759625Y-63861240D01*
X82124970Y-63735000D01*
X81477882Y-63735000D01*
X80843227Y-63861240D01*
X80245395Y-64108871D01*
X79707360Y-64468374D01*
X79249800Y-64925934D01*
X78890297Y-65463969D01*
X78642666Y-66061801D01*
X78516426Y-66696456D01*
X74657855Y-66696456D01*
X74531615Y-66061801D01*
X74283984Y-65463969D01*
X73924481Y-64925934D01*
X73466921Y-64468374D01*
X72928886Y-64108871D01*
X72331054Y-63861240D01*
X71696399Y-63735000D01*
X71049311Y-63735000D01*
X70414656Y-63861240D01*
X69816824Y-64108871D01*
X69278789Y-64468374D01*
X68821229Y-64925934D01*
X68461726Y-65463969D01*
X68214095Y-66061801D01*
X68087855Y-66696456D01*
X64229284Y-66696456D01*
X64103044Y-66061801D01*
X63855413Y-65463969D01*
X63495910Y-64925934D01*
X63038350Y-64468374D01*
X62500315Y-64108871D01*
X61902483Y-63861240D01*
X61267828Y-63735000D01*
X60620740Y-63735000D01*
X59986085Y-63861240D01*
X59388253Y-64108871D01*
X58850218Y-64468374D01*
X58392658Y-64925934D01*
X58033155Y-65463969D01*
X57785524Y-66061801D01*
X57659284Y-66696456D01*
X53800713Y-66696456D01*
X53674473Y-66061801D01*
X53426842Y-65463969D01*
X53067339Y-64925934D01*
X52609779Y-64468374D01*
X52071744Y-64108871D01*
X51473912Y-63861240D01*
X50839257Y-63735000D01*
X50192169Y-63735000D01*
X49557514Y-63861240D01*
X48959682Y-64108871D01*
X48421647Y-64468374D01*
X47964087Y-64925934D01*
X47604584Y-65463969D01*
X47356953Y-66061801D01*
X47230713Y-66696456D01*
X43372142Y-66696456D01*
X43245902Y-66061801D01*
X42998271Y-65463969D01*
X42638768Y-64925934D01*
X42181208Y-64468374D01*
X41643173Y-64108871D01*
X41045341Y-63861240D01*
X40410686Y-63735000D01*
X39763598Y-63735000D01*
X39128943Y-63861240D01*
X38531111Y-64108871D01*
X37993076Y-64468374D01*
X37535516Y-64925934D01*
X37176013Y-65463969D01*
X36928382Y-66061801D01*
X36802142Y-66696456D01*
X32943571Y-66696456D01*
X32817331Y-66061801D01*
X32569700Y-65463969D01*
X32210197Y-64925934D01*
X31752637Y-64468374D01*
X31214602Y-64108871D01*
X30616770Y-63861240D01*
X29982115Y-63735000D01*
X29335027Y-63735000D01*
X28700372Y-63861240D01*
X28102540Y-64108871D01*
X27564505Y-64468374D01*
X27106945Y-64925934D01*
X26747442Y-65463969D01*
X26499811Y-66061801D01*
X26373571Y-66696456D01*
X22515000Y-66696456D01*
X22388760Y-66061801D01*
X22141129Y-65463969D01*
X21781626Y-64925934D01*
X21324066Y-64468374D01*
X20786031Y-64108871D01*
X20188199Y-63861240D01*
X19553544Y-63735000D01*
X18906456Y-63735000D01*
X18271801Y-63861240D01*
X17673969Y-64108871D01*
X17135934Y-64468374D01*
X16678374Y-64925934D01*
X16318871Y-65463969D01*
X16071240Y-66061801D01*
X15945000Y-66696456D01*
X13218307Y-66696456D01*
X13210195Y-59549721D01*
X17095000Y-59549721D01*
X17095000Y-59970279D01*
X17177047Y-60382756D01*
X17337988Y-60771302D01*
X17571637Y-61120983D01*
X17869017Y-61418363D01*
X18218698Y-61652012D01*
X18607244Y-61812953D01*
X19019721Y-61895000D01*
X19440279Y-61895000D01*
X19852756Y-61812953D01*
X20241302Y-61652012D01*
X20590983Y-61418363D01*
X20888363Y-61120983D01*
X21122012Y-60771302D01*
X21282953Y-60382756D01*
X21365000Y-59970279D01*
X21365000Y-59549721D01*
X27575000Y-59549721D01*
X27575000Y-59970279D01*
X27657047Y-60382756D01*
X27817988Y-60771302D01*
X28051637Y-61120983D01*
X28349017Y-61418363D01*
X28698698Y-61652012D01*
X29087244Y-61812953D01*
X29499721Y-61895000D01*
X29920279Y-61895000D01*
X30332756Y-61812953D01*
X30721302Y-61652012D01*
X31070983Y-61418363D01*
X31368363Y-61120983D01*
X31602012Y-60771302D01*
X31762953Y-60382756D01*
X31845000Y-59970279D01*
X31845000Y-59549721D01*
X37965000Y-59549721D01*
X37965000Y-59970279D01*
X38047047Y-60382756D01*
X38207988Y-60771302D01*
X38441637Y-61120983D01*
X38739017Y-61418363D01*
X39088698Y-61652012D01*
X39477244Y-61812953D01*
X39889721Y-61895000D01*
X40310279Y-61895000D01*
X40722756Y-61812953D01*
X41111302Y-61652012D01*
X41460983Y-61418363D01*
X41758363Y-61120983D01*
X41992012Y-60771302D01*
X42152953Y-60382756D01*
X42235000Y-59970279D01*
X42235000Y-59549721D01*
X48355000Y-59549721D01*
X48355000Y-59970279D01*
X48437047Y-60382756D01*
X48597988Y-60771302D01*
X48831637Y-61120983D01*
X49129017Y-61418363D01*
X49478698Y-61652012D01*
X49867244Y-61812953D01*
X50279721Y-61895000D01*
X50700279Y-61895000D01*
X51112756Y-61812953D01*
X51501302Y-61652012D01*
X51850983Y-61418363D01*
X52148363Y-61120983D01*
X52382012Y-60771302D01*
X52542953Y-60382756D01*
X52625000Y-59970279D01*
X52625000Y-59549721D01*
X58765000Y-59549721D01*
X58765000Y-59970279D01*
X58847047Y-60382756D01*
X59007988Y-60771302D01*
X59241637Y-61120983D01*
X59539017Y-61418363D01*
X59888698Y-61652012D01*
X60277244Y-61812953D01*
X60689721Y-61895000D01*
X61110279Y-61895000D01*
X61522756Y-61812953D01*
X61911302Y-61652012D01*
X62260983Y-61418363D01*
X62558363Y-61120983D01*
X62792012Y-60771302D01*
X62952953Y-60382756D01*
X63035000Y-59970279D01*
X63035000Y-59549721D01*
X69185000Y-59549721D01*
X69185000Y-59970279D01*
X69267047Y-60382756D01*
X69427988Y-60771302D01*
X69661637Y-61120983D01*
X69959017Y-61418363D01*
X70308698Y-61652012D01*
X70697244Y-61812953D01*
X71109721Y-61895000D01*
X71530279Y-61895000D01*
X71942756Y-61812953D01*
X72331302Y-61652012D01*
X72680983Y-61418363D01*
X72978363Y-61120983D01*
X73212012Y-60771302D01*
X73372953Y-60382756D01*
X73455000Y-59970279D01*
X73455000Y-59549721D01*
X79595000Y-59549721D01*
X79595000Y-59970279D01*
X79677047Y-60382756D01*
X79837988Y-60771302D01*
X80071637Y-61120983D01*
X80369017Y-61418363D01*
X80718698Y-61652012D01*
X81107244Y-61812953D01*
X81519721Y-61895000D01*
X81940279Y-61895000D01*
X82352756Y-61812953D01*
X82741302Y-61652012D01*
X83090983Y-61418363D01*
X83388363Y-61120983D01*
X83622012Y-60771302D01*
X83782953Y-60382756D01*
X83865000Y-59970279D01*
X83865000Y-59549721D01*
X89995000Y-59549721D01*
X89995000Y-59970279D01*
X90077047Y-60382756D01*
X90237988Y-60771302D01*
X90471637Y-61120983D01*
X90769017Y-61418363D01*
X91118698Y-61652012D01*
X91507244Y-61812953D01*
X91919721Y-61895000D01*
X92340279Y-61895000D01*
X92752756Y-61812953D01*
X93141302Y-61652012D01*
X93490983Y-61418363D01*
X93788363Y-61120983D01*
X94022012Y-60771302D01*
X94182953Y-60382756D01*
X94265000Y-59970279D01*
X94265000Y-59549721D01*
X94246988Y-59459166D01*
X100265218Y-59459166D01*
X100357407Y-60281046D01*
X100607477Y-61069367D01*
X101005904Y-61794103D01*
X101537511Y-62427648D01*
X102182050Y-62945871D01*
X102914971Y-63329032D01*
X103708356Y-63562538D01*
X104531987Y-63637495D01*
X105354490Y-63551046D01*
X106144538Y-63306485D01*
X106872038Y-62913128D01*
X107509279Y-62385957D01*
X108031988Y-61745051D01*
X108420257Y-61014823D01*
X108659297Y-60223087D01*
X108740001Y-59400000D01*
X108738349Y-59281679D01*
X108634694Y-58461167D01*
X108373641Y-57676414D01*
X107965135Y-56957312D01*
X107424733Y-56331251D01*
X106773022Y-55822078D01*
X106034823Y-55449187D01*
X105238254Y-55226781D01*
X104413657Y-55163331D01*
X103592441Y-55261256D01*
X102805885Y-55516823D01*
X102083948Y-55920300D01*
X101454130Y-56456317D01*
X100940420Y-57104458D01*
X100562384Y-57840036D01*
X100334423Y-58635032D01*
X100265218Y-59459166D01*
X94246988Y-59459166D01*
X94182953Y-59137244D01*
X94022012Y-58748698D01*
X93788363Y-58399017D01*
X93490983Y-58101637D01*
X93141302Y-57867988D01*
X92752756Y-57707047D01*
X92340279Y-57625000D01*
X91919721Y-57625000D01*
X91507244Y-57707047D01*
X91118698Y-57867988D01*
X90769017Y-58101637D01*
X90471637Y-58399017D01*
X90237988Y-58748698D01*
X90077047Y-59137244D01*
X89995000Y-59549721D01*
X83865000Y-59549721D01*
X83782953Y-59137244D01*
X83622012Y-58748698D01*
X83388363Y-58399017D01*
X83090983Y-58101637D01*
X82741302Y-57867988D01*
X82352756Y-57707047D01*
X81940279Y-57625000D01*
X81519721Y-57625000D01*
X81107244Y-57707047D01*
X80718698Y-57867988D01*
X80369017Y-58101637D01*
X80071637Y-58399017D01*
X79837988Y-58748698D01*
X79677047Y-59137244D01*
X79595000Y-59549721D01*
X73455000Y-59549721D01*
X73372953Y-59137244D01*
X73212012Y-58748698D01*
X72978363Y-58399017D01*
X72680983Y-58101637D01*
X72331302Y-57867988D01*
X71942756Y-57707047D01*
X71530279Y-57625000D01*
X71109721Y-57625000D01*
X70697244Y-57707047D01*
X70308698Y-57867988D01*
X69959017Y-58101637D01*
X69661637Y-58399017D01*
X69427988Y-58748698D01*
X69267047Y-59137244D01*
X69185000Y-59549721D01*
X63035000Y-59549721D01*
X62952953Y-59137244D01*
X62792012Y-58748698D01*
X62558363Y-58399017D01*
X62260983Y-58101637D01*
X61911302Y-57867988D01*
X61522756Y-57707047D01*
X61110279Y-57625000D01*
X60689721Y-57625000D01*
X60277244Y-57707047D01*
X59888698Y-57867988D01*
X59539017Y-58101637D01*
X59241637Y-58399017D01*
X59007988Y-58748698D01*
X58847047Y-59137244D01*
X58765000Y-59549721D01*
X52625000Y-59549721D01*
X52542953Y-59137244D01*
X52382012Y-58748698D01*
X52148363Y-58399017D01*
X51850983Y-58101637D01*
X51501302Y-57867988D01*
X51112756Y-57707047D01*
X50700279Y-57625000D01*
X50279721Y-57625000D01*
X49867244Y-57707047D01*
X49478698Y-57867988D01*
X49129017Y-58101637D01*
X48831637Y-58399017D01*
X48597988Y-58748698D01*
X48437047Y-59137244D01*
X48355000Y-59549721D01*
X42235000Y-59549721D01*
X42152953Y-59137244D01*
X41992012Y-58748698D01*
X41758363Y-58399017D01*
X41460983Y-58101637D01*
X41111302Y-57867988D01*
X40722756Y-57707047D01*
X40310279Y-57625000D01*
X39889721Y-57625000D01*
X39477244Y-57707047D01*
X39088698Y-57867988D01*
X38739017Y-58101637D01*
X38441637Y-58399017D01*
X38207988Y-58748698D01*
X38047047Y-59137244D01*
X37965000Y-59549721D01*
X31845000Y-59549721D01*
X31762953Y-59137244D01*
X31602012Y-58748698D01*
X31368363Y-58399017D01*
X31070983Y-58101637D01*
X30721302Y-57867988D01*
X30332756Y-57707047D01*
X29920279Y-57625000D01*
X29499721Y-57625000D01*
X29087244Y-57707047D01*
X28698698Y-57867988D01*
X28349017Y-58101637D01*
X28051637Y-58399017D01*
X27817988Y-58748698D01*
X27657047Y-59137244D01*
X27575000Y-59549721D01*
X21365000Y-59549721D01*
X21282953Y-59137244D01*
X21122012Y-58748698D01*
X20888363Y-58399017D01*
X20590983Y-58101637D01*
X20241302Y-57867988D01*
X19852756Y-57707047D01*
X19440279Y-57625000D01*
X19019721Y-57625000D01*
X18607244Y-57707047D01*
X18218698Y-57867988D01*
X17869017Y-58101637D01*
X17571637Y-58399017D01*
X17337988Y-58748698D01*
X17177047Y-59137244D01*
X17095000Y-59549721D01*
X13210195Y-59549721D01*
X13197835Y-48662285D01*
X15405000Y-48662285D01*
X15405000Y-49417715D01*
X15552377Y-50158628D01*
X15841467Y-50856554D01*
X16261161Y-51484670D01*
X16795330Y-52018839D01*
X17423446Y-52438533D01*
X18121372Y-52727623D01*
X18862285Y-52875000D01*
X19617715Y-52875000D01*
X20358628Y-52727623D01*
X21056554Y-52438533D01*
X21684670Y-52018839D01*
X22218839Y-51484670D01*
X22638533Y-50856554D01*
X22927623Y-50158628D01*
X23075000Y-49417715D01*
X23075000Y-48662285D01*
X36421666Y-48662285D01*
X36421666Y-49417715D01*
X36569043Y-50158628D01*
X36858133Y-50856554D01*
X37277827Y-51484670D01*
X37811996Y-52018839D01*
X38440112Y-52438533D01*
X39138038Y-52727623D01*
X39878951Y-52875000D01*
X40634381Y-52875000D01*
X41375294Y-52727623D01*
X42073220Y-52438533D01*
X42701336Y-52018839D01*
X43235505Y-51484670D01*
X43655199Y-50856554D01*
X43944289Y-50158628D01*
X44091666Y-49417715D01*
X44091666Y-48662285D01*
X57438332Y-48662285D01*
X57438332Y-49417715D01*
X57585709Y-50158628D01*
X57874799Y-50856554D01*
X58294493Y-51484670D01*
X58828662Y-52018839D01*
X59456778Y-52438533D01*
X60154704Y-52727623D01*
X60895617Y-52875000D01*
X61651047Y-52875000D01*
X62391960Y-52727623D01*
X63089886Y-52438533D01*
X63718002Y-52018839D01*
X64252171Y-51484670D01*
X64671865Y-50856554D01*
X64960955Y-50158628D01*
X65108332Y-49417715D01*
X65108332Y-48662285D01*
X78455000Y-48662285D01*
X78455000Y-49417715D01*
X78602377Y-50158628D01*
X78891467Y-50856554D01*
X79311161Y-51484670D01*
X79845330Y-52018839D01*
X80473446Y-52438533D01*
X81171372Y-52727623D01*
X81912285Y-52875000D01*
X82667715Y-52875000D01*
X83408628Y-52727623D01*
X84106554Y-52438533D01*
X84734670Y-52018839D01*
X85268839Y-51484670D01*
X85688533Y-50856554D01*
X85977623Y-50158628D01*
X86125000Y-49417715D01*
X86125000Y-48662285D01*
X85977623Y-47921372D01*
X85688533Y-47223446D01*
X85268839Y-46595330D01*
X84734670Y-46061161D01*
X84106554Y-45641467D01*
X83408628Y-45352377D01*
X82667715Y-45205000D01*
X81912285Y-45205000D01*
X81171372Y-45352377D01*
X80473446Y-45641467D01*
X79845330Y-46061161D01*
X79311161Y-46595330D01*
X78891467Y-47223446D01*
X78602377Y-47921372D01*
X78455000Y-48662285D01*
X65108332Y-48662285D01*
X64960955Y-47921372D01*
X64671865Y-47223446D01*
X64252171Y-46595330D01*
X63718002Y-46061161D01*
X63089886Y-45641467D01*
X62391960Y-45352377D01*
X61651047Y-45205000D01*
X60895617Y-45205000D01*
X60154704Y-45352377D01*
X59456778Y-45641467D01*
X58828662Y-46061161D01*
X58294493Y-46595330D01*
X57874799Y-47223446D01*
X57585709Y-47921372D01*
X57438332Y-48662285D01*
X44091666Y-48662285D01*
X43944289Y-47921372D01*
X43655199Y-47223446D01*
X43235505Y-46595330D01*
X42701336Y-46061161D01*
X42073220Y-45641467D01*
X41375294Y-45352377D01*
X40634381Y-45205000D01*
X39878951Y-45205000D01*
X39138038Y-45352377D01*
X38440112Y-45641467D01*
X37811996Y-46061161D01*
X37277827Y-46595330D01*
X36858133Y-47223446D01*
X36569043Y-47921372D01*
X36421666Y-48662285D01*
X23075000Y-48662285D01*
X22927623Y-47921372D01*
X22638533Y-47223446D01*
X22218839Y-46595330D01*
X21684670Y-46061161D01*
X21056554Y-45641467D01*
X20358628Y-45352377D01*
X19617715Y-45205000D01*
X18862285Y-45205000D01*
X18121372Y-45352377D01*
X17423446Y-45641467D01*
X16795330Y-46061161D01*
X16261161Y-46595330D01*
X15841467Y-47223446D01*
X15552377Y-47921372D01*
X15405000Y-48662285D01*
X13197835Y-48662285D01*
X13187992Y-39991721D01*
X14047000Y-39991721D01*
X14047000Y-40412279D01*
X14129047Y-40824756D01*
X14289988Y-41213302D01*
X14523637Y-41562983D01*
X14821017Y-41860363D01*
X15170698Y-42094012D01*
X15559244Y-42254953D01*
X15971721Y-42337000D01*
X16392279Y-42337000D01*
X16804756Y-42254953D01*
X17193302Y-42094012D01*
X17542983Y-41860363D01*
X17840363Y-41562983D01*
X18074012Y-41213302D01*
X18234953Y-40824756D01*
X18310124Y-40446844D01*
X39469643Y-40446844D01*
X39471007Y-40460695D01*
X39473497Y-40522027D01*
X39476906Y-40546517D01*
X39477275Y-40571248D01*
X39478417Y-40580744D01*
X39489851Y-40670564D01*
X39495473Y-40695201D01*
X39498061Y-40720347D01*
X39500029Y-40729706D01*
X39517971Y-40812162D01*
X39525360Y-40835070D01*
X39529825Y-40858714D01*
X39532572Y-40867876D01*
X39557086Y-40947585D01*
X39566038Y-40968991D01*
X39572186Y-40991358D01*
X39575670Y-41000265D01*
X39605157Y-41074103D01*
X39615222Y-41093546D01*
X39622648Y-41114146D01*
X39626814Y-41122755D01*
X39660282Y-41190700D01*
X39671288Y-41208435D01*
X39679810Y-41227478D01*
X39684607Y-41235752D01*
X39721965Y-41299155D01*
X39733974Y-41315618D01*
X39743633Y-41333551D01*
X39749024Y-41341451D01*
X39790405Y-41401194D01*
X39803373Y-41416480D01*
X39814133Y-41433400D01*
X39820081Y-41440890D01*
X39865092Y-41496763D01*
X39878950Y-41510887D01*
X39890733Y-41526778D01*
X39897201Y-41533823D01*
X39945728Y-41585939D01*
X39959382Y-41597995D01*
X39971186Y-41611866D01*
X39978112Y-41618463D01*
X40023764Y-41661338D01*
X40038340Y-41672564D01*
X40051181Y-41685738D01*
X40058536Y-41691852D01*
X40114438Y-41737661D01*
X40131137Y-41748812D01*
X40146151Y-41762133D01*
X40153929Y-41767698D01*
X40212960Y-41809313D01*
X40230564Y-41819306D01*
X40246639Y-41831598D01*
X40254802Y-41836582D01*
X40317654Y-41874352D01*
X40336701Y-41883398D01*
X40354369Y-41894908D01*
X40362884Y-41899262D01*
X40431930Y-41933964D01*
X40452242Y-41941795D01*
X40471344Y-41952231D01*
X40480171Y-41955914D01*
X40551646Y-41985154D01*
X40572878Y-41991503D01*
X40593096Y-42000568D01*
X40602184Y-42003548D01*
X40677966Y-42027805D01*
X40700825Y-42032726D01*
X40722867Y-42040508D01*
X40732169Y-42042733D01*
X40814333Y-42061771D01*
X40839066Y-42065003D01*
X40863204Y-42071237D01*
X40872664Y-42072648D01*
X40960330Y-42085095D01*
X40987314Y-42086264D01*
X41013978Y-42090568D01*
X41023527Y-42091097D01*
X41102863Y-42094934D01*
X41119357Y-42096559D01*
X76788969Y-42096559D01*
X76803097Y-42095168D01*
X76866263Y-42092550D01*
X76890990Y-42089087D01*
X76915948Y-42088676D01*
X76925442Y-42087520D01*
X77015233Y-42075950D01*
X77039817Y-42070301D01*
X77064901Y-42067684D01*
X77074258Y-42065704D01*
X77156313Y-42047731D01*
X77178701Y-42040476D01*
X77201818Y-42036115D01*
X77210980Y-42033369D01*
X77288148Y-42009653D01*
X77309288Y-42000817D01*
X77331385Y-41994768D01*
X77340295Y-41991293D01*
X77415047Y-41961532D01*
X77434729Y-41951369D01*
X77455557Y-41943868D01*
X77464168Y-41939705D01*
X77532634Y-41906006D01*
X77550407Y-41894983D01*
X77569497Y-41886445D01*
X77577772Y-41881648D01*
X77640854Y-41844494D01*
X77657147Y-41832614D01*
X77674908Y-41823065D01*
X77682813Y-41817680D01*
X77741956Y-41776783D01*
X77757222Y-41763853D01*
X77774114Y-41753132D01*
X77781609Y-41747191D01*
X77837895Y-41701931D01*
X77852154Y-41687966D01*
X77868185Y-41676089D01*
X77875233Y-41669624D01*
X77927859Y-41620662D01*
X77940030Y-41606889D01*
X77954026Y-41594977D01*
X77960622Y-41588051D01*
X78003497Y-41542392D01*
X78014710Y-41527831D01*
X78027870Y-41515003D01*
X78033983Y-41507648D01*
X78079791Y-41451744D01*
X78091015Y-41434934D01*
X78104426Y-41419807D01*
X78109988Y-41412026D01*
X78152073Y-41352273D01*
X78162141Y-41334519D01*
X78174524Y-41318294D01*
X78179500Y-41310126D01*
X78217260Y-41247160D01*
X78226111Y-41228479D01*
X78237397Y-41211166D01*
X78241754Y-41202652D01*
X78275363Y-41135829D01*
X78283071Y-41115853D01*
X78293365Y-41097071D01*
X78297060Y-41088249D01*
X78326539Y-41016462D01*
X78332990Y-40994995D01*
X78342172Y-40974547D01*
X78345157Y-40965460D01*
X78369806Y-40888608D01*
X78374783Y-40865555D01*
X78382630Y-40843328D01*
X78384855Y-40834026D01*
X78403893Y-40751862D01*
X78407125Y-40727129D01*
X78413359Y-40702992D01*
X78414770Y-40693532D01*
X78427217Y-40605867D01*
X78428386Y-40578883D01*
X78432690Y-40552220D01*
X78433219Y-40542671D01*
X78437057Y-40463337D01*
X78438681Y-40446845D01*
X78438681Y-28669166D01*
X100225218Y-28669166D01*
X100317407Y-29491046D01*
X100567477Y-30279367D01*
X100965904Y-31004103D01*
X101497511Y-31637648D01*
X102142050Y-32155871D01*
X102874971Y-32539032D01*
X103668356Y-32772538D01*
X104491987Y-32847495D01*
X105314490Y-32761046D01*
X106104538Y-32516485D01*
X106832038Y-32123128D01*
X107469279Y-31595957D01*
X107991988Y-30955051D01*
X108380257Y-30224823D01*
X108619297Y-29433087D01*
X108700001Y-28610000D01*
X108698349Y-28491679D01*
X108594694Y-27671167D01*
X108333641Y-26886414D01*
X107925135Y-26167312D01*
X107384733Y-25541251D01*
X106733022Y-25032078D01*
X105994823Y-24659187D01*
X105198254Y-24436781D01*
X104373657Y-24373331D01*
X103552441Y-24471256D01*
X102765885Y-24726823D01*
X102043948Y-25130300D01*
X101414130Y-25666317D01*
X100900420Y-26314458D01*
X100522384Y-27050036D01*
X100294423Y-27845032D01*
X100225218Y-28669166D01*
X78438681Y-28669166D01*
X78438681Y-23375670D01*
X78437251Y-23361146D01*
X78434452Y-23295394D01*
X78430930Y-23270453D01*
X78430471Y-23245263D01*
X78429298Y-23235771D01*
X78417681Y-23146865D01*
X78412015Y-23122408D01*
X78409377Y-23097457D01*
X78407383Y-23088103D01*
X78389254Y-23005894D01*
X78381956Y-22983482D01*
X78377553Y-22960336D01*
X78374794Y-22951179D01*
X78350961Y-22874049D01*
X78342157Y-22853076D01*
X78336130Y-22831148D01*
X78332646Y-22822241D01*
X78303160Y-22748403D01*
X78293124Y-22729017D01*
X78285726Y-22708481D01*
X78281561Y-22699871D01*
X78248274Y-22632261D01*
X78237305Y-22614578D01*
X78228813Y-22595583D01*
X78224019Y-22587307D01*
X78186685Y-22523891D01*
X78174765Y-22507536D01*
X78165184Y-22489716D01*
X78159799Y-22481812D01*
X78118902Y-22422670D01*
X78105977Y-22407410D01*
X78095262Y-22390527D01*
X78089321Y-22383032D01*
X78044062Y-22326745D01*
X78030075Y-22312463D01*
X78018173Y-22296401D01*
X78011707Y-22289353D01*
X77962746Y-22236736D01*
X77949014Y-22224603D01*
X77937141Y-22210651D01*
X77930215Y-22204055D01*
X77884556Y-22161173D01*
X77870022Y-22149979D01*
X77857222Y-22136843D01*
X77849868Y-22130728D01*
X77794269Y-22085152D01*
X77777628Y-22074036D01*
X77762666Y-22060751D01*
X77754890Y-22055183D01*
X77695793Y-22013491D01*
X77678193Y-22003492D01*
X77662122Y-21991194D01*
X77653961Y-21986207D01*
X77591204Y-21948463D01*
X77572512Y-21939578D01*
X77555190Y-21928256D01*
X77546681Y-21923889D01*
X77479727Y-21890113D01*
X77459740Y-21882373D01*
X77440956Y-21872050D01*
X77432139Y-21868345D01*
X77360385Y-21838783D01*
X77338726Y-21832247D01*
X77318099Y-21822971D01*
X77309014Y-21819981D01*
X77231092Y-21794941D01*
X77207858Y-21789912D01*
X77185451Y-21782001D01*
X77176149Y-21779777D01*
X77093985Y-21760738D01*
X77069246Y-21757505D01*
X77045101Y-21751270D01*
X77035641Y-21749859D01*
X76947977Y-21737414D01*
X76920987Y-21736245D01*
X76894316Y-21731941D01*
X76884766Y-21731413D01*
X76805454Y-21727580D01*
X76788969Y-21725956D01*
X41119357Y-21725956D01*
X41105062Y-21727364D01*
X41040570Y-21730068D01*
X41015807Y-21733549D01*
X40990809Y-21733975D01*
X40981316Y-21735137D01*
X40892675Y-21746613D01*
X40868302Y-21752229D01*
X40843426Y-21754824D01*
X40834069Y-21756804D01*
X40752013Y-21774776D01*
X40729624Y-21782031D01*
X40706507Y-21786392D01*
X40697345Y-21789137D01*
X40620177Y-21812852D01*
X40599544Y-21821476D01*
X40577973Y-21827343D01*
X40569057Y-21830804D01*
X40497262Y-21859253D01*
X40478260Y-21869025D01*
X40458127Y-21876188D01*
X40449500Y-21880318D01*
X40382105Y-21913165D01*
X40363771Y-21924437D01*
X40344105Y-21933183D01*
X40335820Y-21937961D01*
X40268391Y-21977484D01*
X40251375Y-21989836D01*
X40232865Y-21999797D01*
X40224963Y-22005185D01*
X40165833Y-22046106D01*
X40150573Y-22059041D01*
X40133691Y-22069765D01*
X40126198Y-22075709D01*
X40069928Y-22120991D01*
X40055683Y-22134953D01*
X40039662Y-22146831D01*
X40032616Y-22153299D01*
X39980290Y-22202015D01*
X39968066Y-22215858D01*
X39954012Y-22227834D01*
X39947421Y-22234764D01*
X39903519Y-22281573D01*
X39892234Y-22296246D01*
X39878996Y-22309175D01*
X39872889Y-22316536D01*
X39827870Y-22371586D01*
X39816816Y-22388176D01*
X39803595Y-22403094D01*
X39798035Y-22410875D01*
X39756181Y-22470320D01*
X39746148Y-22488019D01*
X39733806Y-22504189D01*
X39728829Y-22512357D01*
X39691067Y-22575321D01*
X39682203Y-22594028D01*
X39670900Y-22611369D01*
X39666543Y-22619884D01*
X39632937Y-22686710D01*
X39625291Y-22706528D01*
X39615074Y-22725150D01*
X39611375Y-22733970D01*
X39582189Y-22804952D01*
X39575721Y-22826440D01*
X39566523Y-22846903D01*
X39563535Y-22855988D01*
X39538594Y-22933647D01*
X39533581Y-22956822D01*
X39525688Y-22979180D01*
X39523464Y-22988482D01*
X39504425Y-23070646D01*
X39501193Y-23095380D01*
X39494956Y-23119532D01*
X39493546Y-23128992D01*
X39481101Y-23216658D01*
X39479932Y-23243646D01*
X39475628Y-23270319D01*
X39475100Y-23279869D01*
X39471266Y-23359203D01*
X39469644Y-23375670D01*
X39469643Y-40446844D01*
X18310124Y-40446844D01*
X18317000Y-40412279D01*
X18317000Y-39991721D01*
X18234953Y-39579244D01*
X18074012Y-39190698D01*
X17840363Y-38841017D01*
X17542983Y-38543637D01*
X17193302Y-38309988D01*
X16804756Y-38149047D01*
X16392279Y-38067000D01*
X15971721Y-38067000D01*
X15559244Y-38149047D01*
X15170698Y-38309988D01*
X14821017Y-38543637D01*
X14523637Y-38841017D01*
X14289988Y-39190698D01*
X14129047Y-39579244D01*
X14047000Y-39991721D01*
X13187992Y-39991721D01*
X13175434Y-28929166D01*
X20775218Y-28929166D01*
X20867407Y-29751046D01*
X21117477Y-30539367D01*
X21515904Y-31264103D01*
X22047511Y-31897648D01*
X22692050Y-32415871D01*
X23424971Y-32799032D01*
X24218356Y-33032538D01*
X25041987Y-33107495D01*
X25864490Y-33021046D01*
X26654538Y-32776485D01*
X27382038Y-32383128D01*
X28019279Y-31855957D01*
X28541988Y-31215051D01*
X28930257Y-30484823D01*
X29169297Y-29693087D01*
X29250001Y-28870000D01*
X29248349Y-28751679D01*
X29144694Y-27931167D01*
X28883641Y-27146414D01*
X28475135Y-26427312D01*
X27934733Y-25801251D01*
X27283022Y-25292078D01*
X26544823Y-24919187D01*
X25748254Y-24696781D01*
X24923657Y-24633331D01*
X24102441Y-24731256D01*
X23315885Y-24986823D01*
X22593948Y-25390300D01*
X21964130Y-25926317D01*
X21450420Y-26574458D01*
X21072384Y-27310036D01*
X20844423Y-28105032D01*
X20775218Y-28929166D01*
X13175434Y-28929166D01*
X13167056Y-21549162D01*
X17488357Y-16812038D01*
X18517332Y-15783063D01*
X18970009Y-15689596D01*
X17198677Y-17460928D01*
X17504859Y-17904503D01*
X18092306Y-18219954D01*
X18730008Y-18414740D01*
X19393457Y-18481372D01*
X20057158Y-18417292D01*
X20695605Y-18224962D01*
X21284262Y-17911772D01*
X21295141Y-17904503D01*
X21601323Y-17460928D01*
X103428677Y-17460928D01*
X103734859Y-17904503D01*
X104322306Y-18219954D01*
X104960008Y-18414740D01*
X105623457Y-18481372D01*
X106287158Y-18417292D01*
X106925605Y-18224962D01*
X107514262Y-17911772D01*
X107525141Y-17904503D01*
X107831323Y-17460928D01*
X105630000Y-15259605D01*
X103428677Y-17460928D01*
X21601323Y-17460928D01*
X19682813Y-15542418D01*
X19980547Y-15480942D01*
X21780928Y-17281323D01*
X22224503Y-16975141D01*
X22539954Y-16387694D01*
X22734740Y-15749992D01*
X22773655Y-15362521D01*
X102257879Y-14782208D01*
X102228628Y-15073457D01*
X102228628Y-15073457D01*
G37*
X102228628Y-15073457D02*
X102292708Y-15737158D01*
X102485038Y-16375605D01*
X102798228Y-16964262D01*
X102805497Y-16975141D01*
X103249072Y-17281323D01*
X105450395Y-15080000D01*
X105436253Y-15065858D01*
X105615858Y-14886253D01*
X105630000Y-14900395D01*
X105644143Y-14886253D01*
X105823748Y-15065858D01*
X105809605Y-15080000D01*
X108010928Y-17281323D01*
X108436385Y-16987647D01*
X112043088Y-19890875D01*
X112202929Y-130560742D01*
X106540363Y-136749242D01*
X105809605Y-137480000D01*
X105823748Y-137494143D01*
X105774791Y-137543099D01*
X105485511Y-137543401D01*
X105436253Y-137494143D01*
X105450395Y-137480000D01*
X103249072Y-135278677D01*
X102805497Y-135584859D01*
X102490046Y-136172306D01*
X102295260Y-136810008D01*
X102228628Y-137473457D01*
X102235709Y-137546796D01*
X22786985Y-137629795D01*
X22801372Y-137486543D01*
X22737292Y-136822842D01*
X22544962Y-136184395D01*
X22231772Y-135595738D01*
X22224503Y-135584859D01*
X21780928Y-135278677D01*
X19606433Y-137453172D01*
X19432621Y-137267774D01*
X21601323Y-135099072D01*
X103428677Y-135099072D01*
X105630000Y-137300395D01*
X107831323Y-135099072D01*
X107525141Y-134655497D01*
X106937694Y-134340046D01*
X106299992Y-134145260D01*
X105636543Y-134078628D01*
X104972842Y-134142708D01*
X104334395Y-134335038D01*
X103745738Y-134648228D01*
X103734859Y-134655497D01*
X103428677Y-135099072D01*
X21601323Y-135099072D01*
X21295141Y-134655497D01*
X20707694Y-134340046D01*
X20069992Y-134145260D01*
X19406543Y-134078628D01*
X18742842Y-134142708D01*
X18104395Y-134335038D01*
X17515738Y-134648228D01*
X17504859Y-134655497D01*
X17283822Y-134975721D01*
X13840428Y-131302768D01*
X13286990Y-127201402D01*
X13282530Y-123272124D01*
X13331157Y-123516591D01*
X13774781Y-124587593D01*
X14418822Y-125551469D01*
X15238531Y-126371178D01*
X16202407Y-127015219D01*
X17273409Y-127458843D01*
X18410378Y-127685000D01*
X19569622Y-127685000D01*
X20706591Y-127458843D01*
X21777593Y-127015219D01*
X22741469Y-126371178D01*
X23561178Y-125551469D01*
X24205219Y-124587593D01*
X24648843Y-123516591D01*
X24764529Y-122935000D01*
X25215471Y-122935000D01*
X25331157Y-123516591D01*
X25774781Y-124587593D01*
X26418822Y-125551469D01*
X27238531Y-126371178D01*
X28202407Y-127015219D01*
X29273409Y-127458843D01*
X30410378Y-127685000D01*
X31569622Y-127685000D01*
X32706591Y-127458843D01*
X33777593Y-127015219D01*
X34741469Y-126371178D01*
X35561178Y-125551469D01*
X36205219Y-124587593D01*
X36648843Y-123516591D01*
X36764529Y-122935000D01*
X37215471Y-122935000D01*
X37331157Y-123516591D01*
X37774781Y-124587593D01*
X38418822Y-125551469D01*
X39238531Y-126371178D01*
X40202407Y-127015219D01*
X41273409Y-127458843D01*
X42410378Y-127685000D01*
X43569622Y-127685000D01*
X44706591Y-127458843D01*
X45777593Y-127015219D01*
X46741469Y-126371178D01*
X47561178Y-125551469D01*
X48205219Y-124587593D01*
X48648843Y-123516591D01*
X48764529Y-122935000D01*
X49215471Y-122935000D01*
X49331157Y-123516591D01*
X49774781Y-124587593D01*
X50418822Y-125551469D01*
X51238531Y-126371178D01*
X52202407Y-127015219D01*
X53273409Y-127458843D01*
X54410378Y-127685000D01*
X55569622Y-127685000D01*
X56706591Y-127458843D01*
X57777593Y-127015219D01*
X58741469Y-126371178D01*
X59561178Y-125551469D01*
X60205219Y-124587593D01*
X60648843Y-123516591D01*
X60764529Y-122935000D01*
X61215471Y-122935000D01*
X61331157Y-123516591D01*
X61774781Y-124587593D01*
X62418822Y-125551469D01*
X63238531Y-126371178D01*
X64202407Y-127015219D01*
X65273409Y-127458843D01*
X66410378Y-127685000D01*
X67569622Y-127685000D01*
X68706591Y-127458843D01*
X69777593Y-127015219D01*
X70741469Y-126371178D01*
X71561178Y-125551469D01*
X72205219Y-124587593D01*
X72648843Y-123516591D01*
X72764529Y-122935000D01*
X73215471Y-122935000D01*
X73331157Y-123516591D01*
X73774781Y-124587593D01*
X74418822Y-125551469D01*
X75238531Y-126371178D01*
X76202407Y-127015219D01*
X77273409Y-127458843D01*
X78410378Y-127685000D01*
X79569622Y-127685000D01*
X80706591Y-127458843D01*
X81777593Y-127015219D01*
X82741469Y-126371178D01*
X83561178Y-125551469D01*
X84205219Y-124587593D01*
X84648843Y-123516591D01*
X84764529Y-122935000D01*
X85944471Y-122935000D01*
X86118868Y-123356031D01*
X86478371Y-123894066D01*
X86935931Y-124351626D01*
X87473966Y-124711129D01*
X88071798Y-124958760D01*
X88706453Y-125085000D01*
X89353541Y-125085000D01*
X89988196Y-124958760D01*
X90586028Y-124711129D01*
X91124063Y-124351626D01*
X91581623Y-123894066D01*
X91941126Y-123356031D01*
X92188757Y-122758199D01*
X92314997Y-122123544D01*
X92314997Y-121476456D01*
X92196190Y-120879166D01*
X100265218Y-120879166D01*
X100357407Y-121701046D01*
X100607477Y-122489367D01*
X101005904Y-123214103D01*
X101537511Y-123847648D01*
X102182050Y-124365871D01*
X102914971Y-124749032D01*
X103708356Y-124982538D01*
X104531987Y-125057495D01*
X105354490Y-124971046D01*
X106144538Y-124726485D01*
X106872038Y-124333128D01*
X107509279Y-123805957D01*
X108031988Y-123165051D01*
X108420257Y-122434823D01*
X108659297Y-121643087D01*
X108740001Y-120820000D01*
X108738349Y-120701679D01*
X108634694Y-119881167D01*
X108373641Y-119096414D01*
X107965135Y-118377312D01*
X107424733Y-117751251D01*
X106773022Y-117242078D01*
X106034823Y-116869187D01*
X105238254Y-116646781D01*
X104413657Y-116583331D01*
X103592441Y-116681256D01*
X102805885Y-116936823D01*
X102083948Y-117340300D01*
X101454130Y-117876317D01*
X100940420Y-118524458D01*
X100562384Y-119260036D01*
X100334423Y-120055032D01*
X100265218Y-120879166D01*
X92196190Y-120879166D01*
X92188757Y-120841801D01*
X91941126Y-120243969D01*
X91581623Y-119705934D01*
X91124063Y-119248374D01*
X90586028Y-118888871D01*
X89988196Y-118641240D01*
X89353541Y-118515000D01*
X88706453Y-118515000D01*
X88071798Y-118641240D01*
X87473966Y-118888871D01*
X86935931Y-119248374D01*
X86478371Y-119705934D01*
X86118868Y-120243969D01*
X85944471Y-120665000D01*
X84764529Y-120665000D01*
X84648843Y-120083409D01*
X84205219Y-119012407D01*
X83561178Y-118048531D01*
X82741469Y-117228822D01*
X81777593Y-116584781D01*
X80706591Y-116141157D01*
X79569622Y-115915000D01*
X78410378Y-115915000D01*
X77273409Y-116141157D01*
X76202407Y-116584781D01*
X75238531Y-117228822D01*
X74418822Y-118048531D01*
X73774781Y-119012407D01*
X73331157Y-120083409D01*
X73215471Y-120665000D01*
X72764529Y-120665000D01*
X72648843Y-120083409D01*
X72205219Y-119012407D01*
X71561178Y-118048531D01*
X70741469Y-117228822D01*
X69777593Y-116584781D01*
X68706591Y-116141157D01*
X67569622Y-115915000D01*
X66410378Y-115915000D01*
X65273409Y-116141157D01*
X64202407Y-116584781D01*
X63238531Y-117228822D01*
X62418822Y-118048531D01*
X61774781Y-119012407D01*
X61331157Y-120083409D01*
X61215471Y-120665000D01*
X60764529Y-120665000D01*
X60648843Y-120083409D01*
X60205219Y-119012407D01*
X59561178Y-118048531D01*
X58741469Y-117228822D01*
X57777593Y-116584781D01*
X56706591Y-116141157D01*
X55569622Y-115915000D01*
X54410378Y-115915000D01*
X53273409Y-116141157D01*
X52202407Y-116584781D01*
X51238531Y-117228822D01*
X50418822Y-118048531D01*
X49774781Y-119012407D01*
X49331157Y-120083409D01*
X49215471Y-120665000D01*
X48764529Y-120665000D01*
X48648843Y-120083409D01*
X48205219Y-119012407D01*
X47561178Y-118048531D01*
X46741469Y-117228822D01*
X45777593Y-116584781D01*
X44706591Y-116141157D01*
X43569622Y-115915000D01*
X42410378Y-115915000D01*
X41273409Y-116141157D01*
X40202407Y-116584781D01*
X39238531Y-117228822D01*
X38418822Y-118048531D01*
X37774781Y-119012407D01*
X37331157Y-120083409D01*
X37215471Y-120665000D01*
X36764529Y-120665000D01*
X36648843Y-120083409D01*
X36205219Y-119012407D01*
X35561178Y-118048531D01*
X34741469Y-117228822D01*
X33777593Y-116584781D01*
X32706591Y-116141157D01*
X31569622Y-115915000D01*
X30410378Y-115915000D01*
X29273409Y-116141157D01*
X28202407Y-116584781D01*
X27238531Y-117228822D01*
X26418822Y-118048531D01*
X25774781Y-119012407D01*
X25331157Y-120083409D01*
X25215471Y-120665000D01*
X24764529Y-120665000D01*
X24648843Y-120083409D01*
X24205219Y-119012407D01*
X23561178Y-118048531D01*
X22741469Y-117228822D01*
X21777593Y-116584781D01*
X20706591Y-116141157D01*
X19569622Y-115915000D01*
X18410378Y-115915000D01*
X17273409Y-116141157D01*
X16202407Y-116584781D01*
X15238531Y-117228822D01*
X14418822Y-118048531D01*
X13774781Y-119012407D01*
X13331157Y-120083409D01*
X13279206Y-120344583D01*
X13264005Y-106952817D01*
X15804240Y-106952817D01*
X15830714Y-107963819D01*
X16035803Y-108954155D01*
X16413024Y-109892522D01*
X16950453Y-110749258D01*
X17631104Y-111497283D01*
X18433461Y-112112953D01*
X19332163Y-112576808D01*
X20298804Y-112874186D01*
X21302828Y-112995686D01*
X22312500Y-112937469D01*
X23295906Y-112701374D01*
X24221960Y-112294864D01*
X25061393Y-111730789D01*
X25787669Y-111026979D01*
X26377833Y-110205679D01*
X26813230Y-109292850D01*
X27080098Y-108317345D01*
X27170001Y-107310000D01*
X27162205Y-107012287D01*
X27155165Y-106962817D01*
X47834240Y-106962817D01*
X47860714Y-107973819D01*
X48065803Y-108964155D01*
X48443024Y-109902522D01*
X48980453Y-110759258D01*
X49661104Y-111507283D01*
X50463461Y-112122953D01*
X51362163Y-112586808D01*
X52328804Y-112884186D01*
X53332828Y-113005686D01*
X54342500Y-112947469D01*
X55325906Y-112711374D01*
X56251960Y-112304864D01*
X57091393Y-111740789D01*
X57817669Y-111036979D01*
X58407833Y-110215679D01*
X58843230Y-109302850D01*
X59110098Y-108327345D01*
X59200001Y-107320000D01*
X59192205Y-107022287D01*
X59080365Y-106236456D01*
X74985000Y-106236456D01*
X74985000Y-106883544D01*
X75111240Y-107518199D01*
X75358871Y-108116031D01*
X75718374Y-108654066D01*
X76175934Y-109111626D01*
X76713969Y-109471129D01*
X77311801Y-109718760D01*
X77946456Y-109845000D01*
X78593544Y-109845000D01*
X79228199Y-109718760D01*
X79826031Y-109471129D01*
X80364066Y-109111626D01*
X80821626Y-108654066D01*
X81181129Y-108116031D01*
X81428760Y-107518199D01*
X81555000Y-106883544D01*
X81555000Y-106236456D01*
X82605000Y-106236456D01*
X82605000Y-106883544D01*
X82731240Y-107518199D01*
X82978871Y-108116031D01*
X83338374Y-108654066D01*
X83795934Y-109111626D01*
X84333969Y-109471129D01*
X84931801Y-109718760D01*
X85566456Y-109845000D01*
X86213544Y-109845000D01*
X86848199Y-109718760D01*
X87446031Y-109471129D01*
X87984066Y-109111626D01*
X88441626Y-108654066D01*
X88801129Y-108116031D01*
X89048760Y-107518199D01*
X89175000Y-106883544D01*
X89175000Y-106236456D01*
X89048760Y-105601801D01*
X88801129Y-105003969D01*
X88441626Y-104465934D01*
X87984066Y-104008374D01*
X87446031Y-103648871D01*
X86848199Y-103401240D01*
X86213544Y-103275000D01*
X85566456Y-103275000D01*
X84931801Y-103401240D01*
X84333969Y-103648871D01*
X83795934Y-104008374D01*
X83338374Y-104465934D01*
X82978871Y-105003969D01*
X82731240Y-105601801D01*
X82605000Y-106236456D01*
X81555000Y-106236456D01*
X81428760Y-105601801D01*
X81181129Y-105003969D01*
X80821626Y-104465934D01*
X80364066Y-104008374D01*
X79826031Y-103648871D01*
X79228199Y-103401240D01*
X78593544Y-103275000D01*
X77946456Y-103275000D01*
X77311801Y-103401240D01*
X76713969Y-103648871D01*
X76175934Y-104008374D01*
X75718374Y-104465934D01*
X75358871Y-105003969D01*
X75111240Y-105601801D01*
X74985000Y-106236456D01*
X59080365Y-106236456D01*
X59049705Y-106021028D01*
X58732149Y-105060827D01*
X58249575Y-104172036D01*
X57617236Y-103382748D01*
X56855120Y-102717912D01*
X55987317Y-102198543D01*
X55041257Y-101841056D01*
X54046842Y-101656753D01*
X53035507Y-101651457D01*
X52039218Y-101825338D01*
X51089465Y-102172898D01*
X50216271Y-102683151D01*
X49447235Y-103339970D01*
X48806666Y-104122593D01*
X48314811Y-105006281D01*
X47987217Y-105963104D01*
X47834240Y-106962817D01*
X27155165Y-106962817D01*
X27019705Y-106011028D01*
X26702149Y-105050827D01*
X26219575Y-104162036D01*
X25587236Y-103372748D01*
X24825120Y-102707912D01*
X23957317Y-102188543D01*
X23011257Y-101831056D01*
X22016842Y-101646753D01*
X21005507Y-101641457D01*
X20009218Y-101815338D01*
X19059465Y-102162898D01*
X18186271Y-102673151D01*
X17417235Y-103329970D01*
X16776666Y-104112593D01*
X16284811Y-104996281D01*
X15957217Y-105953104D01*
X15804240Y-106952817D01*
X13264005Y-106952817D01*
X13244988Y-90199166D01*
X100275218Y-90199166D01*
X100367407Y-91021046D01*
X100617477Y-91809367D01*
X101015904Y-92534103D01*
X101547511Y-93167648D01*
X102192050Y-93685871D01*
X102924971Y-94069032D01*
X103718356Y-94302538D01*
X104541987Y-94377495D01*
X105364490Y-94291046D01*
X106154538Y-94046485D01*
X106882038Y-93653128D01*
X107519279Y-93125957D01*
X108041988Y-92485051D01*
X108430257Y-91754823D01*
X108669297Y-90963087D01*
X108750001Y-90140000D01*
X108748349Y-90021679D01*
X108644694Y-89201167D01*
X108383641Y-88416414D01*
X107975135Y-87697312D01*
X107434733Y-87071251D01*
X106783022Y-86562078D01*
X106044823Y-86189187D01*
X105248254Y-85966781D01*
X104423657Y-85903331D01*
X103602441Y-86001256D01*
X102815885Y-86256823D01*
X102093948Y-86660300D01*
X101464130Y-87196317D01*
X100950420Y-87844458D01*
X100572384Y-88580036D01*
X100344423Y-89375032D01*
X100275218Y-90199166D01*
X13244988Y-90199166D01*
X13235880Y-82176456D01*
X15985000Y-82176456D01*
X15985000Y-82823544D01*
X16111240Y-83458199D01*
X16358871Y-84056031D01*
X16718374Y-84594066D01*
X17175934Y-85051626D01*
X17713969Y-85411129D01*
X18311801Y-85658760D01*
X18946456Y-85785000D01*
X19593544Y-85785000D01*
X20228199Y-85658760D01*
X20826031Y-85411129D01*
X21364066Y-85051626D01*
X21821626Y-84594066D01*
X22181129Y-84056031D01*
X22428760Y-83458199D01*
X22555000Y-82823544D01*
X22555000Y-82176456D01*
X26413571Y-82176456D01*
X26413571Y-82823544D01*
X26539811Y-83458199D01*
X26787442Y-84056031D01*
X27146945Y-84594066D01*
X27604505Y-85051626D01*
X28142540Y-85411129D01*
X28740372Y-85658760D01*
X29375027Y-85785000D01*
X30022115Y-85785000D01*
X30656770Y-85658760D01*
X31254602Y-85411129D01*
X31792637Y-85051626D01*
X32250197Y-84594066D01*
X32609700Y-84056031D01*
X32857331Y-83458199D01*
X32983571Y-82823544D01*
X32983571Y-82176456D01*
X36842142Y-82176456D01*
X36842142Y-82823544D01*
X36968382Y-83458199D01*
X37216013Y-84056031D01*
X37575516Y-84594066D01*
X38033076Y-85051626D01*
X38571111Y-85411129D01*
X39168943Y-85658760D01*
X39803598Y-85785000D01*
X40450686Y-85785000D01*
X41085341Y-85658760D01*
X41683173Y-85411129D01*
X42221208Y-85051626D01*
X42678768Y-84594066D01*
X43038271Y-84056031D01*
X43285902Y-83458199D01*
X43412142Y-82823544D01*
X43412142Y-82176456D01*
X47270713Y-82176456D01*
X47270713Y-82823544D01*
X47396953Y-83458199D01*
X47644584Y-84056031D01*
X48004087Y-84594066D01*
X48461647Y-85051626D01*
X48999682Y-85411129D01*
X49597514Y-85658760D01*
X50232169Y-85785000D01*
X50879257Y-85785000D01*
X51513912Y-85658760D01*
X52111744Y-85411129D01*
X52649779Y-85051626D01*
X53107339Y-84594066D01*
X53466842Y-84056031D01*
X53714473Y-83458199D01*
X53840713Y-82823544D01*
X53840713Y-82176456D01*
X57699284Y-82176456D01*
X57699284Y-82823544D01*
X57825524Y-83458199D01*
X58073155Y-84056031D01*
X58432658Y-84594066D01*
X58890218Y-85051626D01*
X59428253Y-85411129D01*
X60026085Y-85658760D01*
X60660740Y-85785000D01*
X61307828Y-85785000D01*
X61942483Y-85658760D01*
X62540315Y-85411129D01*
X63078350Y-85051626D01*
X63535910Y-84594066D01*
X63895413Y-84056031D01*
X64143044Y-83458199D01*
X64269284Y-82823544D01*
X64269284Y-82176456D01*
X68127855Y-82176456D01*
X68127855Y-82823544D01*
X68254095Y-83458199D01*
X68501726Y-84056031D01*
X68861229Y-84594066D01*
X69318789Y-85051626D01*
X69856824Y-85411129D01*
X70454656Y-85658760D01*
X71089311Y-85785000D01*
X71736399Y-85785000D01*
X72371054Y-85658760D01*
X72968886Y-85411129D01*
X73506921Y-85051626D01*
X73964481Y-84594066D01*
X74323984Y-84056031D01*
X74571615Y-83458199D01*
X74697855Y-82823544D01*
X74697855Y-82176456D01*
X78556426Y-82176456D01*
X78556426Y-82823544D01*
X78682666Y-83458199D01*
X78930297Y-84056031D01*
X79289800Y-84594066D01*
X79747360Y-85051626D01*
X80285395Y-85411129D01*
X80883227Y-85658760D01*
X81517882Y-85785000D01*
X82164970Y-85785000D01*
X82799625Y-85658760D01*
X83397457Y-85411129D01*
X83935492Y-85051626D01*
X84393052Y-84594066D01*
X84752555Y-84056031D01*
X85000186Y-83458199D01*
X85126426Y-82823544D01*
X85126426Y-82176456D01*
X85120459Y-82146456D01*
X88984997Y-82146456D01*
X88984997Y-82793544D01*
X89111237Y-83428199D01*
X89358868Y-84026031D01*
X89718371Y-84564066D01*
X90175931Y-85021626D01*
X90713966Y-85381129D01*
X91311798Y-85628760D01*
X91946453Y-85755000D01*
X92593541Y-85755000D01*
X93228196Y-85628760D01*
X93826028Y-85381129D01*
X94364063Y-85021626D01*
X94821623Y-84564066D01*
X95181126Y-84026031D01*
X95428757Y-83428199D01*
X95554997Y-82793544D01*
X95554997Y-82146456D01*
X95428757Y-81511801D01*
X95181126Y-80913969D01*
X94821623Y-80375934D01*
X94364063Y-79918374D01*
X93826028Y-79558871D01*
X93228196Y-79311240D01*
X92593541Y-79185000D01*
X91946453Y-79185000D01*
X91311798Y-79311240D01*
X90713966Y-79558871D01*
X90175931Y-79918374D01*
X89718371Y-80375934D01*
X89358868Y-80913969D01*
X89111237Y-81511801D01*
X88984997Y-82146456D01*
X85120459Y-82146456D01*
X85000186Y-81541801D01*
X84752555Y-80943969D01*
X84393052Y-80405934D01*
X83935492Y-79948374D01*
X83397457Y-79588871D01*
X82799625Y-79341240D01*
X82164970Y-79215000D01*
X81517882Y-79215000D01*
X80883227Y-79341240D01*
X80285395Y-79588871D01*
X79747360Y-79948374D01*
X79289800Y-80405934D01*
X78930297Y-80943969D01*
X78682666Y-81541801D01*
X78556426Y-82176456D01*
X74697855Y-82176456D01*
X74571615Y-81541801D01*
X74323984Y-80943969D01*
X73964481Y-80405934D01*
X73506921Y-79948374D01*
X72968886Y-79588871D01*
X72371054Y-79341240D01*
X71736399Y-79215000D01*
X71089311Y-79215000D01*
X70454656Y-79341240D01*
X69856824Y-79588871D01*
X69318789Y-79948374D01*
X68861229Y-80405934D01*
X68501726Y-80943969D01*
X68254095Y-81541801D01*
X68127855Y-82176456D01*
X64269284Y-82176456D01*
X64143044Y-81541801D01*
X63895413Y-80943969D01*
X63535910Y-80405934D01*
X63078350Y-79948374D01*
X62540315Y-79588871D01*
X61942483Y-79341240D01*
X61307828Y-79215000D01*
X60660740Y-79215000D01*
X60026085Y-79341240D01*
X59428253Y-79588871D01*
X58890218Y-79948374D01*
X58432658Y-80405934D01*
X58073155Y-80943969D01*
X57825524Y-81541801D01*
X57699284Y-82176456D01*
X53840713Y-82176456D01*
X53714473Y-81541801D01*
X53466842Y-80943969D01*
X53107339Y-80405934D01*
X52649779Y-79948374D01*
X52111744Y-79588871D01*
X51513912Y-79341240D01*
X50879257Y-79215000D01*
X50232169Y-79215000D01*
X49597514Y-79341240D01*
X48999682Y-79588871D01*
X48461647Y-79948374D01*
X48004087Y-80405934D01*
X47644584Y-80943969D01*
X47396953Y-81541801D01*
X47270713Y-82176456D01*
X43412142Y-82176456D01*
X43285902Y-81541801D01*
X43038271Y-80943969D01*
X42678768Y-80405934D01*
X42221208Y-79948374D01*
X41683173Y-79588871D01*
X41085341Y-79341240D01*
X40450686Y-79215000D01*
X39803598Y-79215000D01*
X39168943Y-79341240D01*
X38571111Y-79588871D01*
X38033076Y-79948374D01*
X37575516Y-80405934D01*
X37216013Y-80943969D01*
X36968382Y-81541801D01*
X36842142Y-82176456D01*
X32983571Y-82176456D01*
X32857331Y-81541801D01*
X32609700Y-80943969D01*
X32250197Y-80405934D01*
X31792637Y-79948374D01*
X31254602Y-79588871D01*
X30656770Y-79341240D01*
X30022115Y-79215000D01*
X29375027Y-79215000D01*
X28740372Y-79341240D01*
X28142540Y-79588871D01*
X27604505Y-79948374D01*
X27146945Y-80405934D01*
X26787442Y-80943969D01*
X26539811Y-81541801D01*
X26413571Y-82176456D01*
X22555000Y-82176456D01*
X22428760Y-81541801D01*
X22181129Y-80943969D01*
X21821626Y-80405934D01*
X21364066Y-79948374D01*
X20826031Y-79588871D01*
X20228199Y-79341240D01*
X19593544Y-79215000D01*
X18946456Y-79215000D01*
X18311801Y-79341240D01*
X17713969Y-79588871D01*
X17175934Y-79948374D01*
X16718374Y-80405934D01*
X16358871Y-80943969D01*
X16111240Y-81541801D01*
X15985000Y-82176456D01*
X13235880Y-82176456D01*
X13227779Y-75039721D01*
X17125000Y-75039721D01*
X17125000Y-75460279D01*
X17207047Y-75872756D01*
X17367988Y-76261302D01*
X17601637Y-76610983D01*
X17899017Y-76908363D01*
X18248698Y-77142012D01*
X18637244Y-77302953D01*
X19049721Y-77385000D01*
X19470279Y-77385000D01*
X19882756Y-77302953D01*
X20271302Y-77142012D01*
X20620983Y-76908363D01*
X20918363Y-76610983D01*
X21152012Y-76261302D01*
X21312953Y-75872756D01*
X21395000Y-75460279D01*
X21395000Y-75039721D01*
X27605000Y-75039721D01*
X27605000Y-75460279D01*
X27687047Y-75872756D01*
X27847988Y-76261302D01*
X28081637Y-76610983D01*
X28379017Y-76908363D01*
X28728698Y-77142012D01*
X29117244Y-77302953D01*
X29529721Y-77385000D01*
X29950279Y-77385000D01*
X30362756Y-77302953D01*
X30751302Y-77142012D01*
X31100983Y-76908363D01*
X31398363Y-76610983D01*
X31632012Y-76261302D01*
X31792953Y-75872756D01*
X31875000Y-75460279D01*
X31875000Y-75039721D01*
X37995000Y-75039721D01*
X37995000Y-75460279D01*
X38077047Y-75872756D01*
X38237988Y-76261302D01*
X38471637Y-76610983D01*
X38769017Y-76908363D01*
X39118698Y-77142012D01*
X39507244Y-77302953D01*
X39919721Y-77385000D01*
X40340279Y-77385000D01*
X40752756Y-77302953D01*
X41141302Y-77142012D01*
X41490983Y-76908363D01*
X41788363Y-76610983D01*
X42022012Y-76261302D01*
X42182953Y-75872756D01*
X42265000Y-75460279D01*
X42265000Y-75039721D01*
X48385000Y-75039721D01*
X48385000Y-75460279D01*
X48467047Y-75872756D01*
X48627988Y-76261302D01*
X48861637Y-76610983D01*
X49159017Y-76908363D01*
X49508698Y-77142012D01*
X49897244Y-77302953D01*
X50309721Y-77385000D01*
X50730279Y-77385000D01*
X51142756Y-77302953D01*
X51531302Y-77142012D01*
X51880983Y-76908363D01*
X52178363Y-76610983D01*
X52412012Y-76261302D01*
X52572953Y-75872756D01*
X52655000Y-75460279D01*
X52655000Y-75039721D01*
X58795000Y-75039721D01*
X58795000Y-75460279D01*
X58877047Y-75872756D01*
X59037988Y-76261302D01*
X59271637Y-76610983D01*
X59569017Y-76908363D01*
X59918698Y-77142012D01*
X60307244Y-77302953D01*
X60719721Y-77385000D01*
X61140279Y-77385000D01*
X61552756Y-77302953D01*
X61941302Y-77142012D01*
X62290983Y-76908363D01*
X62588363Y-76610983D01*
X62822012Y-76261302D01*
X62982953Y-75872756D01*
X63065000Y-75460279D01*
X63065000Y-75039721D01*
X69215000Y-75039721D01*
X69215000Y-75460279D01*
X69297047Y-75872756D01*
X69457988Y-76261302D01*
X69691637Y-76610983D01*
X69989017Y-76908363D01*
X70338698Y-77142012D01*
X70727244Y-77302953D01*
X71139721Y-77385000D01*
X71560279Y-77385000D01*
X71972756Y-77302953D01*
X72361302Y-77142012D01*
X72710983Y-76908363D01*
X73008363Y-76610983D01*
X73242012Y-76261302D01*
X73402953Y-75872756D01*
X73485000Y-75460279D01*
X73485000Y-75039721D01*
X79625000Y-75039721D01*
X79625000Y-75460279D01*
X79707047Y-75872756D01*
X79867988Y-76261302D01*
X80101637Y-76610983D01*
X80399017Y-76908363D01*
X80748698Y-77142012D01*
X81137244Y-77302953D01*
X81549721Y-77385000D01*
X81970279Y-77385000D01*
X82382756Y-77302953D01*
X82771302Y-77142012D01*
X83120983Y-76908363D01*
X83418363Y-76610983D01*
X83652012Y-76261302D01*
X83812953Y-75872756D01*
X83895000Y-75460279D01*
X83895000Y-75039721D01*
X90025000Y-75039721D01*
X90025000Y-75460279D01*
X90107047Y-75872756D01*
X90267988Y-76261302D01*
X90501637Y-76610983D01*
X90799017Y-76908363D01*
X91148698Y-77142012D01*
X91537244Y-77302953D01*
X91949721Y-77385000D01*
X92370279Y-77385000D01*
X92782756Y-77302953D01*
X93171302Y-77142012D01*
X93520983Y-76908363D01*
X93818363Y-76610983D01*
X94052012Y-76261302D01*
X94212953Y-75872756D01*
X94295000Y-75460279D01*
X94295000Y-75039721D01*
X94212953Y-74627244D01*
X94052012Y-74238698D01*
X93818363Y-73889017D01*
X93520983Y-73591637D01*
X93171302Y-73357988D01*
X92782756Y-73197047D01*
X92370279Y-73115000D01*
X91949721Y-73115000D01*
X91537244Y-73197047D01*
X91148698Y-73357988D01*
X90799017Y-73591637D01*
X90501637Y-73889017D01*
X90267988Y-74238698D01*
X90107047Y-74627244D01*
X90025000Y-75039721D01*
X83895000Y-75039721D01*
X83812953Y-74627244D01*
X83652012Y-74238698D01*
X83418363Y-73889017D01*
X83120983Y-73591637D01*
X82771302Y-73357988D01*
X82382756Y-73197047D01*
X81970279Y-73115000D01*
X81549721Y-73115000D01*
X81137244Y-73197047D01*
X80748698Y-73357988D01*
X80399017Y-73591637D01*
X80101637Y-73889017D01*
X79867988Y-74238698D01*
X79707047Y-74627244D01*
X79625000Y-75039721D01*
X73485000Y-75039721D01*
X73402953Y-74627244D01*
X73242012Y-74238698D01*
X73008363Y-73889017D01*
X72710983Y-73591637D01*
X72361302Y-73357988D01*
X71972756Y-73197047D01*
X71560279Y-73115000D01*
X71139721Y-73115000D01*
X70727244Y-73197047D01*
X70338698Y-73357988D01*
X69989017Y-73591637D01*
X69691637Y-73889017D01*
X69457988Y-74238698D01*
X69297047Y-74627244D01*
X69215000Y-75039721D01*
X63065000Y-75039721D01*
X62982953Y-74627244D01*
X62822012Y-74238698D01*
X62588363Y-73889017D01*
X62290983Y-73591637D01*
X61941302Y-73357988D01*
X61552756Y-73197047D01*
X61140279Y-73115000D01*
X60719721Y-73115000D01*
X60307244Y-73197047D01*
X59918698Y-73357988D01*
X59569017Y-73591637D01*
X59271637Y-73889017D01*
X59037988Y-74238698D01*
X58877047Y-74627244D01*
X58795000Y-75039721D01*
X52655000Y-75039721D01*
X52572953Y-74627244D01*
X52412012Y-74238698D01*
X52178363Y-73889017D01*
X51880983Y-73591637D01*
X51531302Y-73357988D01*
X51142756Y-73197047D01*
X50730279Y-73115000D01*
X50309721Y-73115000D01*
X49897244Y-73197047D01*
X49508698Y-73357988D01*
X49159017Y-73591637D01*
X48861637Y-73889017D01*
X48627988Y-74238698D01*
X48467047Y-74627244D01*
X48385000Y-75039721D01*
X42265000Y-75039721D01*
X42182953Y-74627244D01*
X42022012Y-74238698D01*
X41788363Y-73889017D01*
X41490983Y-73591637D01*
X41141302Y-73357988D01*
X40752756Y-73197047D01*
X40340279Y-73115000D01*
X39919721Y-73115000D01*
X39507244Y-73197047D01*
X39118698Y-73357988D01*
X38769017Y-73591637D01*
X38471637Y-73889017D01*
X38237988Y-74238698D01*
X38077047Y-74627244D01*
X37995000Y-75039721D01*
X31875000Y-75039721D01*
X31792953Y-74627244D01*
X31632012Y-74238698D01*
X31398363Y-73889017D01*
X31100983Y-73591637D01*
X30751302Y-73357988D01*
X30362756Y-73197047D01*
X29950279Y-73115000D01*
X29529721Y-73115000D01*
X29117244Y-73197047D01*
X28728698Y-73357988D01*
X28379017Y-73591637D01*
X28081637Y-73889017D01*
X27847988Y-74238698D01*
X27687047Y-74627244D01*
X27605000Y-75039721D01*
X21395000Y-75039721D01*
X21312953Y-74627244D01*
X21152012Y-74238698D01*
X20918363Y-73889017D01*
X20620983Y-73591637D01*
X20271302Y-73357988D01*
X19882756Y-73197047D01*
X19470279Y-73115000D01*
X19049721Y-73115000D01*
X18637244Y-73197047D01*
X18248698Y-73357988D01*
X17899017Y-73591637D01*
X17601637Y-73889017D01*
X17367988Y-74238698D01*
X17207047Y-74627244D01*
X17125000Y-75039721D01*
X13227779Y-75039721D01*
X13218307Y-66696456D01*
X15945000Y-66696456D01*
X15945000Y-67343544D01*
X16071240Y-67978199D01*
X16318871Y-68576031D01*
X16678374Y-69114066D01*
X17135934Y-69571626D01*
X17673969Y-69931129D01*
X18271801Y-70178760D01*
X18906456Y-70305000D01*
X19553544Y-70305000D01*
X20188199Y-70178760D01*
X20786031Y-69931129D01*
X21324066Y-69571626D01*
X21781626Y-69114066D01*
X22141129Y-68576031D01*
X22388760Y-67978199D01*
X22515000Y-67343544D01*
X22515000Y-66696456D01*
X26373571Y-66696456D01*
X26373571Y-67343544D01*
X26499811Y-67978199D01*
X26747442Y-68576031D01*
X27106945Y-69114066D01*
X27564505Y-69571626D01*
X28102540Y-69931129D01*
X28700372Y-70178760D01*
X29335027Y-70305000D01*
X29982115Y-70305000D01*
X30616770Y-70178760D01*
X31214602Y-69931129D01*
X31752637Y-69571626D01*
X32210197Y-69114066D01*
X32569700Y-68576031D01*
X32817331Y-67978199D01*
X32943571Y-67343544D01*
X32943571Y-66696456D01*
X36802142Y-66696456D01*
X36802142Y-67343544D01*
X36928382Y-67978199D01*
X37176013Y-68576031D01*
X37535516Y-69114066D01*
X37993076Y-69571626D01*
X38531111Y-69931129D01*
X39128943Y-70178760D01*
X39763598Y-70305000D01*
X40410686Y-70305000D01*
X41045341Y-70178760D01*
X41643173Y-69931129D01*
X42181208Y-69571626D01*
X42638768Y-69114066D01*
X42998271Y-68576031D01*
X43245902Y-67978199D01*
X43372142Y-67343544D01*
X43372142Y-66696456D01*
X47230713Y-66696456D01*
X47230713Y-67343544D01*
X47356953Y-67978199D01*
X47604584Y-68576031D01*
X47964087Y-69114066D01*
X48421647Y-69571626D01*
X48959682Y-69931129D01*
X49557514Y-70178760D01*
X50192169Y-70305000D01*
X50839257Y-70305000D01*
X51473912Y-70178760D01*
X52071744Y-69931129D01*
X52609779Y-69571626D01*
X53067339Y-69114066D01*
X53426842Y-68576031D01*
X53674473Y-67978199D01*
X53800713Y-67343544D01*
X53800713Y-66696456D01*
X57659284Y-66696456D01*
X57659284Y-67343544D01*
X57785524Y-67978199D01*
X58033155Y-68576031D01*
X58392658Y-69114066D01*
X58850218Y-69571626D01*
X59388253Y-69931129D01*
X59986085Y-70178760D01*
X60620740Y-70305000D01*
X61267828Y-70305000D01*
X61902483Y-70178760D01*
X62500315Y-69931129D01*
X63038350Y-69571626D01*
X63495910Y-69114066D01*
X63855413Y-68576031D01*
X64103044Y-67978199D01*
X64229284Y-67343544D01*
X64229284Y-66696456D01*
X68087855Y-66696456D01*
X68087855Y-67343544D01*
X68214095Y-67978199D01*
X68461726Y-68576031D01*
X68821229Y-69114066D01*
X69278789Y-69571626D01*
X69816824Y-69931129D01*
X70414656Y-70178760D01*
X71049311Y-70305000D01*
X71696399Y-70305000D01*
X72331054Y-70178760D01*
X72928886Y-69931129D01*
X73466921Y-69571626D01*
X73924481Y-69114066D01*
X74283984Y-68576031D01*
X74531615Y-67978199D01*
X74657855Y-67343544D01*
X74657855Y-66696456D01*
X78516426Y-66696456D01*
X78516426Y-67343544D01*
X78642666Y-67978199D01*
X78890297Y-68576031D01*
X79249800Y-69114066D01*
X79707360Y-69571626D01*
X80245395Y-69931129D01*
X80843227Y-70178760D01*
X81477882Y-70305000D01*
X82124970Y-70305000D01*
X82759625Y-70178760D01*
X83357457Y-69931129D01*
X83895492Y-69571626D01*
X84353052Y-69114066D01*
X84712555Y-68576031D01*
X84960186Y-67978199D01*
X85086426Y-67343544D01*
X85086426Y-66696456D01*
X85080459Y-66666456D01*
X88944997Y-66666456D01*
X88944997Y-67313544D01*
X89071237Y-67948199D01*
X89318868Y-68546031D01*
X89678371Y-69084066D01*
X90135931Y-69541626D01*
X90673966Y-69901129D01*
X91271798Y-70148760D01*
X91906453Y-70275000D01*
X92553541Y-70275000D01*
X93188196Y-70148760D01*
X93786028Y-69901129D01*
X94324063Y-69541626D01*
X94781623Y-69084066D01*
X95141126Y-68546031D01*
X95388757Y-67948199D01*
X95514997Y-67313544D01*
X95514997Y-66666456D01*
X95388757Y-66031801D01*
X95141126Y-65433969D01*
X94781623Y-64895934D01*
X94324063Y-64438374D01*
X93786028Y-64078871D01*
X93188196Y-63831240D01*
X92553541Y-63705000D01*
X91906453Y-63705000D01*
X91271798Y-63831240D01*
X90673966Y-64078871D01*
X90135931Y-64438374D01*
X89678371Y-64895934D01*
X89318868Y-65433969D01*
X89071237Y-66031801D01*
X88944997Y-66666456D01*
X85080459Y-66666456D01*
X84960186Y-66061801D01*
X84712555Y-65463969D01*
X84353052Y-64925934D01*
X83895492Y-64468374D01*
X83357457Y-64108871D01*
X82759625Y-63861240D01*
X82124970Y-63735000D01*
X81477882Y-63735000D01*
X80843227Y-63861240D01*
X80245395Y-64108871D01*
X79707360Y-64468374D01*
X79249800Y-64925934D01*
X78890297Y-65463969D01*
X78642666Y-66061801D01*
X78516426Y-66696456D01*
X74657855Y-66696456D01*
X74531615Y-66061801D01*
X74283984Y-65463969D01*
X73924481Y-64925934D01*
X73466921Y-64468374D01*
X72928886Y-64108871D01*
X72331054Y-63861240D01*
X71696399Y-63735000D01*
X71049311Y-63735000D01*
X70414656Y-63861240D01*
X69816824Y-64108871D01*
X69278789Y-64468374D01*
X68821229Y-64925934D01*
X68461726Y-65463969D01*
X68214095Y-66061801D01*
X68087855Y-66696456D01*
X64229284Y-66696456D01*
X64103044Y-66061801D01*
X63855413Y-65463969D01*
X63495910Y-64925934D01*
X63038350Y-64468374D01*
X62500315Y-64108871D01*
X61902483Y-63861240D01*
X61267828Y-63735000D01*
X60620740Y-63735000D01*
X59986085Y-63861240D01*
X59388253Y-64108871D01*
X58850218Y-64468374D01*
X58392658Y-64925934D01*
X58033155Y-65463969D01*
X57785524Y-66061801D01*
X57659284Y-66696456D01*
X53800713Y-66696456D01*
X53674473Y-66061801D01*
X53426842Y-65463969D01*
X53067339Y-64925934D01*
X52609779Y-64468374D01*
X52071744Y-64108871D01*
X51473912Y-63861240D01*
X50839257Y-63735000D01*
X50192169Y-63735000D01*
X49557514Y-63861240D01*
X48959682Y-64108871D01*
X48421647Y-64468374D01*
X47964087Y-64925934D01*
X47604584Y-65463969D01*
X47356953Y-66061801D01*
X47230713Y-66696456D01*
X43372142Y-66696456D01*
X43245902Y-66061801D01*
X42998271Y-65463969D01*
X42638768Y-64925934D01*
X42181208Y-64468374D01*
X41643173Y-64108871D01*
X41045341Y-63861240D01*
X40410686Y-63735000D01*
X39763598Y-63735000D01*
X39128943Y-63861240D01*
X38531111Y-64108871D01*
X37993076Y-64468374D01*
X37535516Y-64925934D01*
X37176013Y-65463969D01*
X36928382Y-66061801D01*
X36802142Y-66696456D01*
X32943571Y-66696456D01*
X32817331Y-66061801D01*
X32569700Y-65463969D01*
X32210197Y-64925934D01*
X31752637Y-64468374D01*
X31214602Y-64108871D01*
X30616770Y-63861240D01*
X29982115Y-63735000D01*
X29335027Y-63735000D01*
X28700372Y-63861240D01*
X28102540Y-64108871D01*
X27564505Y-64468374D01*
X27106945Y-64925934D01*
X26747442Y-65463969D01*
X26499811Y-66061801D01*
X26373571Y-66696456D01*
X22515000Y-66696456D01*
X22388760Y-66061801D01*
X22141129Y-65463969D01*
X21781626Y-64925934D01*
X21324066Y-64468374D01*
X20786031Y-64108871D01*
X20188199Y-63861240D01*
X19553544Y-63735000D01*
X18906456Y-63735000D01*
X18271801Y-63861240D01*
X17673969Y-64108871D01*
X17135934Y-64468374D01*
X16678374Y-64925934D01*
X16318871Y-65463969D01*
X16071240Y-66061801D01*
X15945000Y-66696456D01*
X13218307Y-66696456D01*
X13210195Y-59549721D01*
X17095000Y-59549721D01*
X17095000Y-59970279D01*
X17177047Y-60382756D01*
X17337988Y-60771302D01*
X17571637Y-61120983D01*
X17869017Y-61418363D01*
X18218698Y-61652012D01*
X18607244Y-61812953D01*
X19019721Y-61895000D01*
X19440279Y-61895000D01*
X19852756Y-61812953D01*
X20241302Y-61652012D01*
X20590983Y-61418363D01*
X20888363Y-61120983D01*
X21122012Y-60771302D01*
X21282953Y-60382756D01*
X21365000Y-59970279D01*
X21365000Y-59549721D01*
X27575000Y-59549721D01*
X27575000Y-59970279D01*
X27657047Y-60382756D01*
X27817988Y-60771302D01*
X28051637Y-61120983D01*
X28349017Y-61418363D01*
X28698698Y-61652012D01*
X29087244Y-61812953D01*
X29499721Y-61895000D01*
X29920279Y-61895000D01*
X30332756Y-61812953D01*
X30721302Y-61652012D01*
X31070983Y-61418363D01*
X31368363Y-61120983D01*
X31602012Y-60771302D01*
X31762953Y-60382756D01*
X31845000Y-59970279D01*
X31845000Y-59549721D01*
X37965000Y-59549721D01*
X37965000Y-59970279D01*
X38047047Y-60382756D01*
X38207988Y-60771302D01*
X38441637Y-61120983D01*
X38739017Y-61418363D01*
X39088698Y-61652012D01*
X39477244Y-61812953D01*
X39889721Y-61895000D01*
X40310279Y-61895000D01*
X40722756Y-61812953D01*
X41111302Y-61652012D01*
X41460983Y-61418363D01*
X41758363Y-61120983D01*
X41992012Y-60771302D01*
X42152953Y-60382756D01*
X42235000Y-59970279D01*
X42235000Y-59549721D01*
X48355000Y-59549721D01*
X48355000Y-59970279D01*
X48437047Y-60382756D01*
X48597988Y-60771302D01*
X48831637Y-61120983D01*
X49129017Y-61418363D01*
X49478698Y-61652012D01*
X49867244Y-61812953D01*
X50279721Y-61895000D01*
X50700279Y-61895000D01*
X51112756Y-61812953D01*
X51501302Y-61652012D01*
X51850983Y-61418363D01*
X52148363Y-61120983D01*
X52382012Y-60771302D01*
X52542953Y-60382756D01*
X52625000Y-59970279D01*
X52625000Y-59549721D01*
X58765000Y-59549721D01*
X58765000Y-59970279D01*
X58847047Y-60382756D01*
X59007988Y-60771302D01*
X59241637Y-61120983D01*
X59539017Y-61418363D01*
X59888698Y-61652012D01*
X60277244Y-61812953D01*
X60689721Y-61895000D01*
X61110279Y-61895000D01*
X61522756Y-61812953D01*
X61911302Y-61652012D01*
X62260983Y-61418363D01*
X62558363Y-61120983D01*
X62792012Y-60771302D01*
X62952953Y-60382756D01*
X63035000Y-59970279D01*
X63035000Y-59549721D01*
X69185000Y-59549721D01*
X69185000Y-59970279D01*
X69267047Y-60382756D01*
X69427988Y-60771302D01*
X69661637Y-61120983D01*
X69959017Y-61418363D01*
X70308698Y-61652012D01*
X70697244Y-61812953D01*
X71109721Y-61895000D01*
X71530279Y-61895000D01*
X71942756Y-61812953D01*
X72331302Y-61652012D01*
X72680983Y-61418363D01*
X72978363Y-61120983D01*
X73212012Y-60771302D01*
X73372953Y-60382756D01*
X73455000Y-59970279D01*
X73455000Y-59549721D01*
X79595000Y-59549721D01*
X79595000Y-59970279D01*
X79677047Y-60382756D01*
X79837988Y-60771302D01*
X80071637Y-61120983D01*
X80369017Y-61418363D01*
X80718698Y-61652012D01*
X81107244Y-61812953D01*
X81519721Y-61895000D01*
X81940279Y-61895000D01*
X82352756Y-61812953D01*
X82741302Y-61652012D01*
X83090983Y-61418363D01*
X83388363Y-61120983D01*
X83622012Y-60771302D01*
X83782953Y-60382756D01*
X83865000Y-59970279D01*
X83865000Y-59549721D01*
X89995000Y-59549721D01*
X89995000Y-59970279D01*
X90077047Y-60382756D01*
X90237988Y-60771302D01*
X90471637Y-61120983D01*
X90769017Y-61418363D01*
X91118698Y-61652012D01*
X91507244Y-61812953D01*
X91919721Y-61895000D01*
X92340279Y-61895000D01*
X92752756Y-61812953D01*
X93141302Y-61652012D01*
X93490983Y-61418363D01*
X93788363Y-61120983D01*
X94022012Y-60771302D01*
X94182953Y-60382756D01*
X94265000Y-59970279D01*
X94265000Y-59549721D01*
X94246988Y-59459166D01*
X100265218Y-59459166D01*
X100357407Y-60281046D01*
X100607477Y-61069367D01*
X101005904Y-61794103D01*
X101537511Y-62427648D01*
X102182050Y-62945871D01*
X102914971Y-63329032D01*
X103708356Y-63562538D01*
X104531987Y-63637495D01*
X105354490Y-63551046D01*
X106144538Y-63306485D01*
X106872038Y-62913128D01*
X107509279Y-62385957D01*
X108031988Y-61745051D01*
X108420257Y-61014823D01*
X108659297Y-60223087D01*
X108740001Y-59400000D01*
X108738349Y-59281679D01*
X108634694Y-58461167D01*
X108373641Y-57676414D01*
X107965135Y-56957312D01*
X107424733Y-56331251D01*
X106773022Y-55822078D01*
X106034823Y-55449187D01*
X105238254Y-55226781D01*
X104413657Y-55163331D01*
X103592441Y-55261256D01*
X102805885Y-55516823D01*
X102083948Y-55920300D01*
X101454130Y-56456317D01*
X100940420Y-57104458D01*
X100562384Y-57840036D01*
X100334423Y-58635032D01*
X100265218Y-59459166D01*
X94246988Y-59459166D01*
X94182953Y-59137244D01*
X94022012Y-58748698D01*
X93788363Y-58399017D01*
X93490983Y-58101637D01*
X93141302Y-57867988D01*
X92752756Y-57707047D01*
X92340279Y-57625000D01*
X91919721Y-57625000D01*
X91507244Y-57707047D01*
X91118698Y-57867988D01*
X90769017Y-58101637D01*
X90471637Y-58399017D01*
X90237988Y-58748698D01*
X90077047Y-59137244D01*
X89995000Y-59549721D01*
X83865000Y-59549721D01*
X83782953Y-59137244D01*
X83622012Y-58748698D01*
X83388363Y-58399017D01*
X83090983Y-58101637D01*
X82741302Y-57867988D01*
X82352756Y-57707047D01*
X81940279Y-57625000D01*
X81519721Y-57625000D01*
X81107244Y-57707047D01*
X80718698Y-57867988D01*
X80369017Y-58101637D01*
X80071637Y-58399017D01*
X79837988Y-58748698D01*
X79677047Y-59137244D01*
X79595000Y-59549721D01*
X73455000Y-59549721D01*
X73372953Y-59137244D01*
X73212012Y-58748698D01*
X72978363Y-58399017D01*
X72680983Y-58101637D01*
X72331302Y-57867988D01*
X71942756Y-57707047D01*
X71530279Y-57625000D01*
X71109721Y-57625000D01*
X70697244Y-57707047D01*
X70308698Y-57867988D01*
X69959017Y-58101637D01*
X69661637Y-58399017D01*
X69427988Y-58748698D01*
X69267047Y-59137244D01*
X69185000Y-59549721D01*
X63035000Y-59549721D01*
X62952953Y-59137244D01*
X62792012Y-58748698D01*
X62558363Y-58399017D01*
X62260983Y-58101637D01*
X61911302Y-57867988D01*
X61522756Y-57707047D01*
X61110279Y-57625000D01*
X60689721Y-57625000D01*
X60277244Y-57707047D01*
X59888698Y-57867988D01*
X59539017Y-58101637D01*
X59241637Y-58399017D01*
X59007988Y-58748698D01*
X58847047Y-59137244D01*
X58765000Y-59549721D01*
X52625000Y-59549721D01*
X52542953Y-59137244D01*
X52382012Y-58748698D01*
X52148363Y-58399017D01*
X51850983Y-58101637D01*
X51501302Y-57867988D01*
X51112756Y-57707047D01*
X50700279Y-57625000D01*
X50279721Y-57625000D01*
X49867244Y-57707047D01*
X49478698Y-57867988D01*
X49129017Y-58101637D01*
X48831637Y-58399017D01*
X48597988Y-58748698D01*
X48437047Y-59137244D01*
X48355000Y-59549721D01*
X42235000Y-59549721D01*
X42152953Y-59137244D01*
X41992012Y-58748698D01*
X41758363Y-58399017D01*
X41460983Y-58101637D01*
X41111302Y-57867988D01*
X40722756Y-57707047D01*
X40310279Y-57625000D01*
X39889721Y-57625000D01*
X39477244Y-57707047D01*
X39088698Y-57867988D01*
X38739017Y-58101637D01*
X38441637Y-58399017D01*
X38207988Y-58748698D01*
X38047047Y-59137244D01*
X37965000Y-59549721D01*
X31845000Y-59549721D01*
X31762953Y-59137244D01*
X31602012Y-58748698D01*
X31368363Y-58399017D01*
X31070983Y-58101637D01*
X30721302Y-57867988D01*
X30332756Y-57707047D01*
X29920279Y-57625000D01*
X29499721Y-57625000D01*
X29087244Y-57707047D01*
X28698698Y-57867988D01*
X28349017Y-58101637D01*
X28051637Y-58399017D01*
X27817988Y-58748698D01*
X27657047Y-59137244D01*
X27575000Y-59549721D01*
X21365000Y-59549721D01*
X21282953Y-59137244D01*
X21122012Y-58748698D01*
X20888363Y-58399017D01*
X20590983Y-58101637D01*
X20241302Y-57867988D01*
X19852756Y-57707047D01*
X19440279Y-57625000D01*
X19019721Y-57625000D01*
X18607244Y-57707047D01*
X18218698Y-57867988D01*
X17869017Y-58101637D01*
X17571637Y-58399017D01*
X17337988Y-58748698D01*
X17177047Y-59137244D01*
X17095000Y-59549721D01*
X13210195Y-59549721D01*
X13197835Y-48662285D01*
X15405000Y-48662285D01*
X15405000Y-49417715D01*
X15552377Y-50158628D01*
X15841467Y-50856554D01*
X16261161Y-51484670D01*
X16795330Y-52018839D01*
X17423446Y-52438533D01*
X18121372Y-52727623D01*
X18862285Y-52875000D01*
X19617715Y-52875000D01*
X20358628Y-52727623D01*
X21056554Y-52438533D01*
X21684670Y-52018839D01*
X22218839Y-51484670D01*
X22638533Y-50856554D01*
X22927623Y-50158628D01*
X23075000Y-49417715D01*
X23075000Y-48662285D01*
X36421666Y-48662285D01*
X36421666Y-49417715D01*
X36569043Y-50158628D01*
X36858133Y-50856554D01*
X37277827Y-51484670D01*
X37811996Y-52018839D01*
X38440112Y-52438533D01*
X39138038Y-52727623D01*
X39878951Y-52875000D01*
X40634381Y-52875000D01*
X41375294Y-52727623D01*
X42073220Y-52438533D01*
X42701336Y-52018839D01*
X43235505Y-51484670D01*
X43655199Y-50856554D01*
X43944289Y-50158628D01*
X44091666Y-49417715D01*
X44091666Y-48662285D01*
X57438332Y-48662285D01*
X57438332Y-49417715D01*
X57585709Y-50158628D01*
X57874799Y-50856554D01*
X58294493Y-51484670D01*
X58828662Y-52018839D01*
X59456778Y-52438533D01*
X60154704Y-52727623D01*
X60895617Y-52875000D01*
X61651047Y-52875000D01*
X62391960Y-52727623D01*
X63089886Y-52438533D01*
X63718002Y-52018839D01*
X64252171Y-51484670D01*
X64671865Y-50856554D01*
X64960955Y-50158628D01*
X65108332Y-49417715D01*
X65108332Y-48662285D01*
X78455000Y-48662285D01*
X78455000Y-49417715D01*
X78602377Y-50158628D01*
X78891467Y-50856554D01*
X79311161Y-51484670D01*
X79845330Y-52018839D01*
X80473446Y-52438533D01*
X81171372Y-52727623D01*
X81912285Y-52875000D01*
X82667715Y-52875000D01*
X83408628Y-52727623D01*
X84106554Y-52438533D01*
X84734670Y-52018839D01*
X85268839Y-51484670D01*
X85688533Y-50856554D01*
X85977623Y-50158628D01*
X86125000Y-49417715D01*
X86125000Y-48662285D01*
X85977623Y-47921372D01*
X85688533Y-47223446D01*
X85268839Y-46595330D01*
X84734670Y-46061161D01*
X84106554Y-45641467D01*
X83408628Y-45352377D01*
X82667715Y-45205000D01*
X81912285Y-45205000D01*
X81171372Y-45352377D01*
X80473446Y-45641467D01*
X79845330Y-46061161D01*
X79311161Y-46595330D01*
X78891467Y-47223446D01*
X78602377Y-47921372D01*
X78455000Y-48662285D01*
X65108332Y-48662285D01*
X64960955Y-47921372D01*
X64671865Y-47223446D01*
X64252171Y-46595330D01*
X63718002Y-46061161D01*
X63089886Y-45641467D01*
X62391960Y-45352377D01*
X61651047Y-45205000D01*
X60895617Y-45205000D01*
X60154704Y-45352377D01*
X59456778Y-45641467D01*
X58828662Y-46061161D01*
X58294493Y-46595330D01*
X57874799Y-47223446D01*
X57585709Y-47921372D01*
X57438332Y-48662285D01*
X44091666Y-48662285D01*
X43944289Y-47921372D01*
X43655199Y-47223446D01*
X43235505Y-46595330D01*
X42701336Y-46061161D01*
X42073220Y-45641467D01*
X41375294Y-45352377D01*
X40634381Y-45205000D01*
X39878951Y-45205000D01*
X39138038Y-45352377D01*
X38440112Y-45641467D01*
X37811996Y-46061161D01*
X37277827Y-46595330D01*
X36858133Y-47223446D01*
X36569043Y-47921372D01*
X36421666Y-48662285D01*
X23075000Y-48662285D01*
X22927623Y-47921372D01*
X22638533Y-47223446D01*
X22218839Y-46595330D01*
X21684670Y-46061161D01*
X21056554Y-45641467D01*
X20358628Y-45352377D01*
X19617715Y-45205000D01*
X18862285Y-45205000D01*
X18121372Y-45352377D01*
X17423446Y-45641467D01*
X16795330Y-46061161D01*
X16261161Y-46595330D01*
X15841467Y-47223446D01*
X15552377Y-47921372D01*
X15405000Y-48662285D01*
X13197835Y-48662285D01*
X13187992Y-39991721D01*
X14047000Y-39991721D01*
X14047000Y-40412279D01*
X14129047Y-40824756D01*
X14289988Y-41213302D01*
X14523637Y-41562983D01*
X14821017Y-41860363D01*
X15170698Y-42094012D01*
X15559244Y-42254953D01*
X15971721Y-42337000D01*
X16392279Y-42337000D01*
X16804756Y-42254953D01*
X17193302Y-42094012D01*
X17542983Y-41860363D01*
X17840363Y-41562983D01*
X18074012Y-41213302D01*
X18234953Y-40824756D01*
X18310124Y-40446844D01*
X39469643Y-40446844D01*
X39471007Y-40460695D01*
X39473497Y-40522027D01*
X39476906Y-40546517D01*
X39477275Y-40571248D01*
X39478417Y-40580744D01*
X39489851Y-40670564D01*
X39495473Y-40695201D01*
X39498061Y-40720347D01*
X39500029Y-40729706D01*
X39517971Y-40812162D01*
X39525360Y-40835070D01*
X39529825Y-40858714D01*
X39532572Y-40867876D01*
X39557086Y-40947585D01*
X39566038Y-40968991D01*
X39572186Y-40991358D01*
X39575670Y-41000265D01*
X39605157Y-41074103D01*
X39615222Y-41093546D01*
X39622648Y-41114146D01*
X39626814Y-41122755D01*
X39660282Y-41190700D01*
X39671288Y-41208435D01*
X39679810Y-41227478D01*
X39684607Y-41235752D01*
X39721965Y-41299155D01*
X39733974Y-41315618D01*
X39743633Y-41333551D01*
X39749024Y-41341451D01*
X39790405Y-41401194D01*
X39803373Y-41416480D01*
X39814133Y-41433400D01*
X39820081Y-41440890D01*
X39865092Y-41496763D01*
X39878950Y-41510887D01*
X39890733Y-41526778D01*
X39897201Y-41533823D01*
X39945728Y-41585939D01*
X39959382Y-41597995D01*
X39971186Y-41611866D01*
X39978112Y-41618463D01*
X40023764Y-41661338D01*
X40038340Y-41672564D01*
X40051181Y-41685738D01*
X40058536Y-41691852D01*
X40114438Y-41737661D01*
X40131137Y-41748812D01*
X40146151Y-41762133D01*
X40153929Y-41767698D01*
X40212960Y-41809313D01*
X40230564Y-41819306D01*
X40246639Y-41831598D01*
X40254802Y-41836582D01*
X40317654Y-41874352D01*
X40336701Y-41883398D01*
X40354369Y-41894908D01*
X40362884Y-41899262D01*
X40431930Y-41933964D01*
X40452242Y-41941795D01*
X40471344Y-41952231D01*
X40480171Y-41955914D01*
X40551646Y-41985154D01*
X40572878Y-41991503D01*
X40593096Y-42000568D01*
X40602184Y-42003548D01*
X40677966Y-42027805D01*
X40700825Y-42032726D01*
X40722867Y-42040508D01*
X40732169Y-42042733D01*
X40814333Y-42061771D01*
X40839066Y-42065003D01*
X40863204Y-42071237D01*
X40872664Y-42072648D01*
X40960330Y-42085095D01*
X40987314Y-42086264D01*
X41013978Y-42090568D01*
X41023527Y-42091097D01*
X41102863Y-42094934D01*
X41119357Y-42096559D01*
X76788969Y-42096559D01*
X76803097Y-42095168D01*
X76866263Y-42092550D01*
X76890990Y-42089087D01*
X76915948Y-42088676D01*
X76925442Y-42087520D01*
X77015233Y-42075950D01*
X77039817Y-42070301D01*
X77064901Y-42067684D01*
X77074258Y-42065704D01*
X77156313Y-42047731D01*
X77178701Y-42040476D01*
X77201818Y-42036115D01*
X77210980Y-42033369D01*
X77288148Y-42009653D01*
X77309288Y-42000817D01*
X77331385Y-41994768D01*
X77340295Y-41991293D01*
X77415047Y-41961532D01*
X77434729Y-41951369D01*
X77455557Y-41943868D01*
X77464168Y-41939705D01*
X77532634Y-41906006D01*
X77550407Y-41894983D01*
X77569497Y-41886445D01*
X77577772Y-41881648D01*
X77640854Y-41844494D01*
X77657147Y-41832614D01*
X77674908Y-41823065D01*
X77682813Y-41817680D01*
X77741956Y-41776783D01*
X77757222Y-41763853D01*
X77774114Y-41753132D01*
X77781609Y-41747191D01*
X77837895Y-41701931D01*
X77852154Y-41687966D01*
X77868185Y-41676089D01*
X77875233Y-41669624D01*
X77927859Y-41620662D01*
X77940030Y-41606889D01*
X77954026Y-41594977D01*
X77960622Y-41588051D01*
X78003497Y-41542392D01*
X78014710Y-41527831D01*
X78027870Y-41515003D01*
X78033983Y-41507648D01*
X78079791Y-41451744D01*
X78091015Y-41434934D01*
X78104426Y-41419807D01*
X78109988Y-41412026D01*
X78152073Y-41352273D01*
X78162141Y-41334519D01*
X78174524Y-41318294D01*
X78179500Y-41310126D01*
X78217260Y-41247160D01*
X78226111Y-41228479D01*
X78237397Y-41211166D01*
X78241754Y-41202652D01*
X78275363Y-41135829D01*
X78283071Y-41115853D01*
X78293365Y-41097071D01*
X78297060Y-41088249D01*
X78326539Y-41016462D01*
X78332990Y-40994995D01*
X78342172Y-40974547D01*
X78345157Y-40965460D01*
X78369806Y-40888608D01*
X78374783Y-40865555D01*
X78382630Y-40843328D01*
X78384855Y-40834026D01*
X78403893Y-40751862D01*
X78407125Y-40727129D01*
X78413359Y-40702992D01*
X78414770Y-40693532D01*
X78427217Y-40605867D01*
X78428386Y-40578883D01*
X78432690Y-40552220D01*
X78433219Y-40542671D01*
X78437057Y-40463337D01*
X78438681Y-40446845D01*
X78438681Y-28669166D01*
X100225218Y-28669166D01*
X100317407Y-29491046D01*
X100567477Y-30279367D01*
X100965904Y-31004103D01*
X101497511Y-31637648D01*
X102142050Y-32155871D01*
X102874971Y-32539032D01*
X103668356Y-32772538D01*
X104491987Y-32847495D01*
X105314490Y-32761046D01*
X106104538Y-32516485D01*
X106832038Y-32123128D01*
X107469279Y-31595957D01*
X107991988Y-30955051D01*
X108380257Y-30224823D01*
X108619297Y-29433087D01*
X108700001Y-28610000D01*
X108698349Y-28491679D01*
X108594694Y-27671167D01*
X108333641Y-26886414D01*
X107925135Y-26167312D01*
X107384733Y-25541251D01*
X106733022Y-25032078D01*
X105994823Y-24659187D01*
X105198254Y-24436781D01*
X104373657Y-24373331D01*
X103552441Y-24471256D01*
X102765885Y-24726823D01*
X102043948Y-25130300D01*
X101414130Y-25666317D01*
X100900420Y-26314458D01*
X100522384Y-27050036D01*
X100294423Y-27845032D01*
X100225218Y-28669166D01*
X78438681Y-28669166D01*
X78438681Y-23375670D01*
X78437251Y-23361146D01*
X78434452Y-23295394D01*
X78430930Y-23270453D01*
X78430471Y-23245263D01*
X78429298Y-23235771D01*
X78417681Y-23146865D01*
X78412015Y-23122408D01*
X78409377Y-23097457D01*
X78407383Y-23088103D01*
X78389254Y-23005894D01*
X78381956Y-22983482D01*
X78377553Y-22960336D01*
X78374794Y-22951179D01*
X78350961Y-22874049D01*
X78342157Y-22853076D01*
X78336130Y-22831148D01*
X78332646Y-22822241D01*
X78303160Y-22748403D01*
X78293124Y-22729017D01*
X78285726Y-22708481D01*
X78281561Y-22699871D01*
X78248274Y-22632261D01*
X78237305Y-22614578D01*
X78228813Y-22595583D01*
X78224019Y-22587307D01*
X78186685Y-22523891D01*
X78174765Y-22507536D01*
X78165184Y-22489716D01*
X78159799Y-22481812D01*
X78118902Y-22422670D01*
X78105977Y-22407410D01*
X78095262Y-22390527D01*
X78089321Y-22383032D01*
X78044062Y-22326745D01*
X78030075Y-22312463D01*
X78018173Y-22296401D01*
X78011707Y-22289353D01*
X77962746Y-22236736D01*
X77949014Y-22224603D01*
X77937141Y-22210651D01*
X77930215Y-22204055D01*
X77884556Y-22161173D01*
X77870022Y-22149979D01*
X77857222Y-22136843D01*
X77849868Y-22130728D01*
X77794269Y-22085152D01*
X77777628Y-22074036D01*
X77762666Y-22060751D01*
X77754890Y-22055183D01*
X77695793Y-22013491D01*
X77678193Y-22003492D01*
X77662122Y-21991194D01*
X77653961Y-21986207D01*
X77591204Y-21948463D01*
X77572512Y-21939578D01*
X77555190Y-21928256D01*
X77546681Y-21923889D01*
X77479727Y-21890113D01*
X77459740Y-21882373D01*
X77440956Y-21872050D01*
X77432139Y-21868345D01*
X77360385Y-21838783D01*
X77338726Y-21832247D01*
X77318099Y-21822971D01*
X77309014Y-21819981D01*
X77231092Y-21794941D01*
X77207858Y-21789912D01*
X77185451Y-21782001D01*
X77176149Y-21779777D01*
X77093985Y-21760738D01*
X77069246Y-21757505D01*
X77045101Y-21751270D01*
X77035641Y-21749859D01*
X76947977Y-21737414D01*
X76920987Y-21736245D01*
X76894316Y-21731941D01*
X76884766Y-21731413D01*
X76805454Y-21727580D01*
X76788969Y-21725956D01*
X41119357Y-21725956D01*
X41105062Y-21727364D01*
X41040570Y-21730068D01*
X41015807Y-21733549D01*
X40990809Y-21733975D01*
X40981316Y-21735137D01*
X40892675Y-21746613D01*
X40868302Y-21752229D01*
X40843426Y-21754824D01*
X40834069Y-21756804D01*
X40752013Y-21774776D01*
X40729624Y-21782031D01*
X40706507Y-21786392D01*
X40697345Y-21789137D01*
X40620177Y-21812852D01*
X40599544Y-21821476D01*
X40577973Y-21827343D01*
X40569057Y-21830804D01*
X40497262Y-21859253D01*
X40478260Y-21869025D01*
X40458127Y-21876188D01*
X40449500Y-21880318D01*
X40382105Y-21913165D01*
X40363771Y-21924437D01*
X40344105Y-21933183D01*
X40335820Y-21937961D01*
X40268391Y-21977484D01*
X40251375Y-21989836D01*
X40232865Y-21999797D01*
X40224963Y-22005185D01*
X40165833Y-22046106D01*
X40150573Y-22059041D01*
X40133691Y-22069765D01*
X40126198Y-22075709D01*
X40069928Y-22120991D01*
X40055683Y-22134953D01*
X40039662Y-22146831D01*
X40032616Y-22153299D01*
X39980290Y-22202015D01*
X39968066Y-22215858D01*
X39954012Y-22227834D01*
X39947421Y-22234764D01*
X39903519Y-22281573D01*
X39892234Y-22296246D01*
X39878996Y-22309175D01*
X39872889Y-22316536D01*
X39827870Y-22371586D01*
X39816816Y-22388176D01*
X39803595Y-22403094D01*
X39798035Y-22410875D01*
X39756181Y-22470320D01*
X39746148Y-22488019D01*
X39733806Y-22504189D01*
X39728829Y-22512357D01*
X39691067Y-22575321D01*
X39682203Y-22594028D01*
X39670900Y-22611369D01*
X39666543Y-22619884D01*
X39632937Y-22686710D01*
X39625291Y-22706528D01*
X39615074Y-22725150D01*
X39611375Y-22733970D01*
X39582189Y-22804952D01*
X39575721Y-22826440D01*
X39566523Y-22846903D01*
X39563535Y-22855988D01*
X39538594Y-22933647D01*
X39533581Y-22956822D01*
X39525688Y-22979180D01*
X39523464Y-22988482D01*
X39504425Y-23070646D01*
X39501193Y-23095380D01*
X39494956Y-23119532D01*
X39493546Y-23128992D01*
X39481101Y-23216658D01*
X39479932Y-23243646D01*
X39475628Y-23270319D01*
X39475100Y-23279869D01*
X39471266Y-23359203D01*
X39469644Y-23375670D01*
X39469643Y-40446844D01*
X18310124Y-40446844D01*
X18317000Y-40412279D01*
X18317000Y-39991721D01*
X18234953Y-39579244D01*
X18074012Y-39190698D01*
X17840363Y-38841017D01*
X17542983Y-38543637D01*
X17193302Y-38309988D01*
X16804756Y-38149047D01*
X16392279Y-38067000D01*
X15971721Y-38067000D01*
X15559244Y-38149047D01*
X15170698Y-38309988D01*
X14821017Y-38543637D01*
X14523637Y-38841017D01*
X14289988Y-39190698D01*
X14129047Y-39579244D01*
X14047000Y-39991721D01*
X13187992Y-39991721D01*
X13175434Y-28929166D01*
X20775218Y-28929166D01*
X20867407Y-29751046D01*
X21117477Y-30539367D01*
X21515904Y-31264103D01*
X22047511Y-31897648D01*
X22692050Y-32415871D01*
X23424971Y-32799032D01*
X24218356Y-33032538D01*
X25041987Y-33107495D01*
X25864490Y-33021046D01*
X26654538Y-32776485D01*
X27382038Y-32383128D01*
X28019279Y-31855957D01*
X28541988Y-31215051D01*
X28930257Y-30484823D01*
X29169297Y-29693087D01*
X29250001Y-28870000D01*
X29248349Y-28751679D01*
X29144694Y-27931167D01*
X28883641Y-27146414D01*
X28475135Y-26427312D01*
X27934733Y-25801251D01*
X27283022Y-25292078D01*
X26544823Y-24919187D01*
X25748254Y-24696781D01*
X24923657Y-24633331D01*
X24102441Y-24731256D01*
X23315885Y-24986823D01*
X22593948Y-25390300D01*
X21964130Y-25926317D01*
X21450420Y-26574458D01*
X21072384Y-27310036D01*
X20844423Y-28105032D01*
X20775218Y-28929166D01*
X13175434Y-28929166D01*
X13167056Y-21549162D01*
X17488357Y-16812038D01*
X18517332Y-15783063D01*
X18970009Y-15689596D01*
X17198677Y-17460928D01*
X17504859Y-17904503D01*
X18092306Y-18219954D01*
X18730008Y-18414740D01*
X19393457Y-18481372D01*
X20057158Y-18417292D01*
X20695605Y-18224962D01*
X21284262Y-17911772D01*
X21295141Y-17904503D01*
X21601323Y-17460928D01*
X103428677Y-17460928D01*
X103734859Y-17904503D01*
X104322306Y-18219954D01*
X104960008Y-18414740D01*
X105623457Y-18481372D01*
X106287158Y-18417292D01*
X106925605Y-18224962D01*
X107514262Y-17911772D01*
X107525141Y-17904503D01*
X107831323Y-17460928D01*
X105630000Y-15259605D01*
X103428677Y-17460928D01*
X21601323Y-17460928D01*
X19682813Y-15542418D01*
X19980547Y-15480942D01*
X21780928Y-17281323D01*
X22224503Y-16975141D01*
X22539954Y-16387694D01*
X22734740Y-15749992D01*
X22773655Y-15362521D01*
X102257879Y-14782208D01*
X102228628Y-15073457D01*
M02*
