M48
; DRILL file {KiCad (5.1.2)-1} date 8/16/2020 7:37:42 PM
; FORMAT={2:4/ absolute / inch / suppress trailing zeros}
; #@! TF.CreationDate,2020-08-16T19:37:42-07:00
; #@! TF.GenerationSoftware,Kicad,Pcbnew,(5.1.2)-1
; #@! TF.FileFunction,NonPlated,1,2,NPTH
FMAT,2
INCH,LZ
T1C0.1181
T2C0.2087
T3C0.2520
%
G90
G05
T1
X019878Y-023528
X032177Y-023528
X015787Y-023528
X011709Y-029626
X036272Y-023528
X032189Y-029626
X023976Y-023528
X023988Y-029626
X028091Y-029626
X007583Y-029626
X01989Y-029626
X036283Y-029626
X011697Y-023528
X006371Y-015828
X028079Y-023528
X007571Y-023528
X015799Y-029626
T2
X015798Y-03248
X019904Y-03248
X035051Y-047953
X0281Y-026386
X015782Y-026386
X007587Y-03248
X019888Y-026386
X011692Y-03248
X030815Y-041953
X036311Y-026374
X028115Y-03248
X036327Y-032469
X007571Y-026386
X023994Y-026386
X02401Y-03248
X011677Y-026386
X033815Y-041953
X032221Y-03248
X032205Y-026386
T3
X032398Y-019307
X024123Y-019307
X007575Y-019307
X015849Y-019307
T0
M30
