M48
; DRILL file {KiCad (5.1.2)-1} date 7/24/2020 4:32:58 PM
; FORMAT={-:-/ absolute / metric / decimal}
; #@! TF.CreationDate,2020-07-24T16:32:58-07:00
; #@! TF.GenerationSoftware,Kicad,Pcbnew,(5.1.2)-1
; #@! TF.FileFunction,NonPlated,1,2,NPTH
FMAT,2
METRIC
T1C3.000
T2C5.300
T3C6.400
%
G90
G05
T1
X29.74Y-75.25
X40.1Y-59.76
X50.49Y-59.76
X60.93Y-75.25
X40.13Y-75.25
X81.76Y-75.25
X19.23Y-59.76
X92.13Y-59.76
X71.35Y-75.25
X50.52Y-75.25
X60.9Y-59.76
X92.16Y-75.25
X29.71Y-59.76
X16.182Y-40.202
X71.32Y-59.76
X81.73Y-59.76
X19.26Y-75.25
T2
X81.841Y-82.5
X71.373Y-67.02
X29.699Y-82.5
X89.03Y-121.8
X29.659Y-67.02
X40.127Y-82.5
X60.944Y-67.02
X50.556Y-82.5
X85.89Y-106.56
X92.27Y-82.47
X71.413Y-82.5
X81.801Y-67.02
X19.23Y-67.02
X60.984Y-82.5
X78.27Y-106.56
X92.23Y-66.99
X50.516Y-67.02
X19.27Y-82.5
X40.087Y-67.02
T3
X40.257Y-49.04
X19.24Y-49.04
X82.29Y-49.04
X61.273Y-49.04
T0
M30
