G04 #@! TF.GenerationSoftware,KiCad,Pcbnew,(5.1.2)-1*
G04 #@! TF.CreationDate,2020-08-16T19:37:39-07:00*
G04 #@! TF.ProjectId,kicad-panel,6b696361-642d-4706-916e-656c2e6b6963,rev?*
G04 #@! TF.SameCoordinates,Original*
G04 #@! TF.FileFunction,Soldermask,Bot*
G04 #@! TF.FilePolarity,Negative*
%FSLAX46Y46*%
G04 Gerber Fmt 4.6, Leading zero omitted, Abs format (unit mm)*
G04 Created by KiCad (PCBNEW (5.1.2)-1) date 2020-08-16 19:37:39*
%MOMM*%
%LPD*%
G04 APERTURE LIST*
%ADD10C,0.100000*%
G04 APERTURE END LIST*
D10*
G36*
X106447021Y-134786640D02*
G01*
X106956769Y-134997785D01*
X106956771Y-134997786D01*
X107415534Y-135304321D01*
X107805679Y-135694466D01*
X108112214Y-136153229D01*
X108112215Y-136153231D01*
X108323360Y-136662979D01*
X108431000Y-137204124D01*
X108431000Y-137755876D01*
X108323360Y-138297021D01*
X108112215Y-138806769D01*
X108112214Y-138806771D01*
X107805679Y-139265534D01*
X107415534Y-139655679D01*
X106956771Y-139962214D01*
X106956770Y-139962215D01*
X106956769Y-139962215D01*
X106447021Y-140173360D01*
X105905876Y-140281000D01*
X105354124Y-140281000D01*
X104812979Y-140173360D01*
X104303231Y-139962215D01*
X104303230Y-139962215D01*
X104303229Y-139962214D01*
X103844466Y-139655679D01*
X103454321Y-139265534D01*
X103147786Y-138806771D01*
X103147785Y-138806769D01*
X102936640Y-138297021D01*
X102829000Y-137755876D01*
X102829000Y-137204124D01*
X102936640Y-136662979D01*
X103147785Y-136153231D01*
X103147786Y-136153229D01*
X103454321Y-135694466D01*
X103844466Y-135304321D01*
X104303229Y-134997786D01*
X104303231Y-134997785D01*
X104812979Y-134786640D01*
X105354124Y-134679000D01*
X105905876Y-134679000D01*
X106447021Y-134786640D01*
X106447021Y-134786640D01*
G37*
G36*
X20217021Y-134786640D02*
G01*
X20726769Y-134997785D01*
X20726771Y-134997786D01*
X21185534Y-135304321D01*
X21575679Y-135694466D01*
X21882214Y-136153229D01*
X21882215Y-136153231D01*
X22093360Y-136662979D01*
X22201000Y-137204124D01*
X22201000Y-137755876D01*
X22093360Y-138297021D01*
X21882215Y-138806769D01*
X21882214Y-138806771D01*
X21575679Y-139265534D01*
X21185534Y-139655679D01*
X20726771Y-139962214D01*
X20726770Y-139962215D01*
X20726769Y-139962215D01*
X20217021Y-140173360D01*
X19675876Y-140281000D01*
X19124124Y-140281000D01*
X18582979Y-140173360D01*
X18073231Y-139962215D01*
X18073230Y-139962215D01*
X18073229Y-139962214D01*
X17614466Y-139655679D01*
X17224321Y-139265534D01*
X16917786Y-138806771D01*
X16917785Y-138806769D01*
X16706640Y-138297021D01*
X16599000Y-137755876D01*
X16599000Y-137204124D01*
X16706640Y-136662979D01*
X16917785Y-136153231D01*
X16917786Y-136153229D01*
X17224321Y-135694466D01*
X17614466Y-135304321D01*
X18073229Y-134997786D01*
X18073231Y-134997785D01*
X18582979Y-134786640D01*
X19124124Y-134679000D01*
X19675876Y-134679000D01*
X20217021Y-134786640D01*
X20217021Y-134786640D01*
G37*
G36*
X44536244Y-116702714D02*
G01*
X45500963Y-117102314D01*
X45500965Y-117102315D01*
X45719494Y-117248332D01*
X46369190Y-117682444D01*
X47107556Y-118420810D01*
X47541668Y-119070506D01*
X47630063Y-119202797D01*
X47687686Y-119289037D01*
X48087286Y-120253756D01*
X48291000Y-121277896D01*
X48291000Y-122322104D01*
X48087286Y-123346244D01*
X47858739Y-123898004D01*
X47687685Y-124310965D01*
X47541669Y-124529494D01*
X47107556Y-125179190D01*
X46369190Y-125917556D01*
X45719494Y-126351668D01*
X45500965Y-126497685D01*
X45500964Y-126497686D01*
X45500963Y-126497686D01*
X44536244Y-126897286D01*
X43512104Y-127101000D01*
X42467896Y-127101000D01*
X41443756Y-126897286D01*
X40479037Y-126497686D01*
X40479036Y-126497686D01*
X40479035Y-126497685D01*
X40260506Y-126351668D01*
X39610810Y-125917556D01*
X38872444Y-125179190D01*
X38438331Y-124529494D01*
X38292315Y-124310965D01*
X38121261Y-123898004D01*
X37892714Y-123346244D01*
X37689000Y-122322104D01*
X37689000Y-121277896D01*
X37892714Y-120253756D01*
X38292314Y-119289037D01*
X38349938Y-119202797D01*
X38438332Y-119070506D01*
X38872444Y-118420810D01*
X39610810Y-117682444D01*
X40260506Y-117248332D01*
X40479035Y-117102315D01*
X40479037Y-117102314D01*
X41443756Y-116702714D01*
X42467896Y-116499000D01*
X43512104Y-116499000D01*
X44536244Y-116702714D01*
X44536244Y-116702714D01*
G37*
G36*
X80536244Y-116702714D02*
G01*
X81500963Y-117102314D01*
X81500965Y-117102315D01*
X81719494Y-117248332D01*
X82369190Y-117682444D01*
X83107556Y-118420810D01*
X83541668Y-119070506D01*
X83630063Y-119202797D01*
X83687686Y-119289037D01*
X84087286Y-120253756D01*
X84291000Y-121277896D01*
X84291000Y-122322104D01*
X84087286Y-123346244D01*
X83858739Y-123898004D01*
X83687685Y-124310965D01*
X83541669Y-124529494D01*
X83107556Y-125179190D01*
X82369190Y-125917556D01*
X81719494Y-126351668D01*
X81500965Y-126497685D01*
X81500964Y-126497686D01*
X81500963Y-126497686D01*
X80536244Y-126897286D01*
X79512104Y-127101000D01*
X78467896Y-127101000D01*
X77443756Y-126897286D01*
X76479037Y-126497686D01*
X76479036Y-126497686D01*
X76479035Y-126497685D01*
X76260506Y-126351668D01*
X75610810Y-125917556D01*
X74872444Y-125179190D01*
X74438331Y-124529494D01*
X74292315Y-124310965D01*
X74121261Y-123898004D01*
X73892714Y-123346244D01*
X73689000Y-122322104D01*
X73689000Y-121277896D01*
X73892714Y-120253756D01*
X74292314Y-119289037D01*
X74349938Y-119202797D01*
X74438331Y-119070506D01*
X74872444Y-118420810D01*
X75610810Y-117682444D01*
X76260506Y-117248332D01*
X76479035Y-117102315D01*
X76479037Y-117102314D01*
X77443756Y-116702714D01*
X78467896Y-116499000D01*
X79512104Y-116499000D01*
X80536244Y-116702714D01*
X80536244Y-116702714D01*
G37*
G36*
X68536244Y-116702714D02*
G01*
X69500963Y-117102314D01*
X69500965Y-117102315D01*
X69719494Y-117248332D01*
X70369190Y-117682444D01*
X71107556Y-118420810D01*
X71541668Y-119070506D01*
X71630063Y-119202797D01*
X71687686Y-119289037D01*
X72087286Y-120253756D01*
X72291000Y-121277896D01*
X72291000Y-122322104D01*
X72087286Y-123346244D01*
X71858739Y-123898004D01*
X71687685Y-124310965D01*
X71541669Y-124529494D01*
X71107556Y-125179190D01*
X70369190Y-125917556D01*
X69719494Y-126351668D01*
X69500965Y-126497685D01*
X69500964Y-126497686D01*
X69500963Y-126497686D01*
X68536244Y-126897286D01*
X67512104Y-127101000D01*
X66467896Y-127101000D01*
X65443756Y-126897286D01*
X64479037Y-126497686D01*
X64479036Y-126497686D01*
X64479035Y-126497685D01*
X64260506Y-126351668D01*
X63610810Y-125917556D01*
X62872444Y-125179190D01*
X62438331Y-124529494D01*
X62292315Y-124310965D01*
X62121261Y-123898004D01*
X61892714Y-123346244D01*
X61689000Y-122322104D01*
X61689000Y-121277896D01*
X61892714Y-120253756D01*
X62292314Y-119289037D01*
X62349938Y-119202797D01*
X62438331Y-119070506D01*
X62872444Y-118420810D01*
X63610810Y-117682444D01*
X64260506Y-117248332D01*
X64479035Y-117102315D01*
X64479037Y-117102314D01*
X65443756Y-116702714D01*
X66467896Y-116499000D01*
X67512104Y-116499000D01*
X68536244Y-116702714D01*
X68536244Y-116702714D01*
G37*
G36*
X56536244Y-116702714D02*
G01*
X57500963Y-117102314D01*
X57500965Y-117102315D01*
X57719494Y-117248332D01*
X58369190Y-117682444D01*
X59107556Y-118420810D01*
X59541668Y-119070506D01*
X59630063Y-119202797D01*
X59687686Y-119289037D01*
X60087286Y-120253756D01*
X60291000Y-121277896D01*
X60291000Y-122322104D01*
X60087286Y-123346244D01*
X59858739Y-123898004D01*
X59687685Y-124310965D01*
X59541669Y-124529494D01*
X59107556Y-125179190D01*
X58369190Y-125917556D01*
X57719494Y-126351668D01*
X57500965Y-126497685D01*
X57500964Y-126497686D01*
X57500963Y-126497686D01*
X56536244Y-126897286D01*
X55512104Y-127101000D01*
X54467896Y-127101000D01*
X53443756Y-126897286D01*
X52479037Y-126497686D01*
X52479036Y-126497686D01*
X52479035Y-126497685D01*
X52260506Y-126351668D01*
X51610810Y-125917556D01*
X50872444Y-125179190D01*
X50438331Y-124529494D01*
X50292315Y-124310965D01*
X50121261Y-123898004D01*
X49892714Y-123346244D01*
X49689000Y-122322104D01*
X49689000Y-121277896D01*
X49892714Y-120253756D01*
X50292314Y-119289037D01*
X50349938Y-119202797D01*
X50438332Y-119070506D01*
X50872444Y-118420810D01*
X51610810Y-117682444D01*
X52260506Y-117248332D01*
X52479035Y-117102315D01*
X52479037Y-117102314D01*
X53443756Y-116702714D01*
X54467896Y-116499000D01*
X55512104Y-116499000D01*
X56536244Y-116702714D01*
X56536244Y-116702714D01*
G37*
G36*
X32536244Y-116702714D02*
G01*
X33500963Y-117102314D01*
X33500965Y-117102315D01*
X33719494Y-117248332D01*
X34369190Y-117682444D01*
X35107556Y-118420810D01*
X35541668Y-119070506D01*
X35630063Y-119202797D01*
X35687686Y-119289037D01*
X36087286Y-120253756D01*
X36291000Y-121277896D01*
X36291000Y-122322104D01*
X36087286Y-123346244D01*
X35858739Y-123898004D01*
X35687685Y-124310965D01*
X35541669Y-124529494D01*
X35107556Y-125179190D01*
X34369190Y-125917556D01*
X33719494Y-126351668D01*
X33500965Y-126497685D01*
X33500964Y-126497686D01*
X33500963Y-126497686D01*
X32536244Y-126897286D01*
X31512104Y-127101000D01*
X30467896Y-127101000D01*
X29443756Y-126897286D01*
X28479037Y-126497686D01*
X28479036Y-126497686D01*
X28479035Y-126497685D01*
X28260506Y-126351668D01*
X27610810Y-125917556D01*
X26872444Y-125179190D01*
X26438331Y-124529494D01*
X26292315Y-124310965D01*
X26121261Y-123898004D01*
X25892714Y-123346244D01*
X25689000Y-122322104D01*
X25689000Y-121277896D01*
X25892714Y-120253756D01*
X26292314Y-119289037D01*
X26349938Y-119202797D01*
X26438332Y-119070506D01*
X26872444Y-118420810D01*
X27610810Y-117682444D01*
X28260506Y-117248332D01*
X28479035Y-117102315D01*
X28479037Y-117102314D01*
X29443756Y-116702714D01*
X30467896Y-116499000D01*
X31512104Y-116499000D01*
X32536244Y-116702714D01*
X32536244Y-116702714D01*
G37*
G36*
X20536244Y-116702714D02*
G01*
X21500963Y-117102314D01*
X21500965Y-117102315D01*
X21719494Y-117248332D01*
X22369190Y-117682444D01*
X23107556Y-118420810D01*
X23541668Y-119070506D01*
X23630063Y-119202797D01*
X23687686Y-119289037D01*
X24087286Y-120253756D01*
X24291000Y-121277896D01*
X24291000Y-122322104D01*
X24087286Y-123346244D01*
X23858739Y-123898004D01*
X23687685Y-124310965D01*
X23541669Y-124529494D01*
X23107556Y-125179190D01*
X22369190Y-125917556D01*
X21719494Y-126351668D01*
X21500965Y-126497685D01*
X21500964Y-126497686D01*
X21500963Y-126497686D01*
X20536244Y-126897286D01*
X19512104Y-127101000D01*
X18467896Y-127101000D01*
X17443756Y-126897286D01*
X16479037Y-126497686D01*
X16479036Y-126497686D01*
X16479035Y-126497685D01*
X16260506Y-126351668D01*
X15610810Y-125917556D01*
X14872444Y-125179190D01*
X14438331Y-124529494D01*
X14292315Y-124310965D01*
X14121261Y-123898004D01*
X13892714Y-123346244D01*
X13689000Y-122322104D01*
X13689000Y-121277896D01*
X13892714Y-120253756D01*
X14292314Y-119289037D01*
X14349938Y-119202797D01*
X14438332Y-119070506D01*
X14872444Y-118420810D01*
X15610810Y-117682444D01*
X16260506Y-117248332D01*
X16479035Y-117102315D01*
X16479037Y-117102314D01*
X17443756Y-116702714D01*
X18467896Y-116499000D01*
X19512104Y-116499000D01*
X20536244Y-116702714D01*
X20536244Y-116702714D01*
G37*
G36*
X89817849Y-119202797D02*
G01*
X90309399Y-119406404D01*
X90309400Y-119406405D01*
X90751784Y-119701996D01*
X91128001Y-120078213D01*
X91245294Y-120253755D01*
X91423593Y-120520598D01*
X91627200Y-121012148D01*
X91730997Y-121533973D01*
X91730997Y-122066027D01*
X91627200Y-122587852D01*
X91423593Y-123079402D01*
X91423592Y-123079403D01*
X91128001Y-123521787D01*
X90751784Y-123898004D01*
X90456192Y-124095512D01*
X90309399Y-124193596D01*
X89817849Y-124397203D01*
X89296024Y-124501000D01*
X88763970Y-124501000D01*
X88242145Y-124397203D01*
X87750595Y-124193596D01*
X87603802Y-124095512D01*
X87308210Y-123898004D01*
X86931993Y-123521787D01*
X86636402Y-123079403D01*
X86636401Y-123079402D01*
X86432794Y-122587852D01*
X86328997Y-122066027D01*
X86328997Y-121533973D01*
X86432794Y-121012148D01*
X86636401Y-120520598D01*
X86814700Y-120253755D01*
X86931993Y-120078213D01*
X87308210Y-119701996D01*
X87750594Y-119406405D01*
X87750595Y-119406404D01*
X88242145Y-119202797D01*
X88763970Y-119099000D01*
X89296024Y-119099000D01*
X89817849Y-119202797D01*
X89817849Y-119202797D01*
G37*
G36*
X86677852Y-103962797D02*
G01*
X87169402Y-104166404D01*
X87169403Y-104166405D01*
X87611787Y-104461996D01*
X87988004Y-104838213D01*
X88185512Y-105133805D01*
X88283596Y-105280598D01*
X88487203Y-105772148D01*
X88591000Y-106293973D01*
X88591000Y-106826027D01*
X88487203Y-107347852D01*
X88283596Y-107839402D01*
X88283595Y-107839403D01*
X87988004Y-108281787D01*
X87611787Y-108658004D01*
X87316195Y-108855512D01*
X87169402Y-108953596D01*
X86677852Y-109157203D01*
X86156027Y-109261000D01*
X85623973Y-109261000D01*
X85102148Y-109157203D01*
X84610598Y-108953596D01*
X84463805Y-108855512D01*
X84168213Y-108658004D01*
X83791996Y-108281787D01*
X83496405Y-107839403D01*
X83496404Y-107839402D01*
X83292797Y-107347852D01*
X83189000Y-106826027D01*
X83189000Y-106293973D01*
X83292797Y-105772148D01*
X83496404Y-105280598D01*
X83594488Y-105133805D01*
X83791996Y-104838213D01*
X84168213Y-104461996D01*
X84610597Y-104166405D01*
X84610598Y-104166404D01*
X85102148Y-103962797D01*
X85623973Y-103859000D01*
X86156027Y-103859000D01*
X86677852Y-103962797D01*
X86677852Y-103962797D01*
G37*
G36*
X79057852Y-103962797D02*
G01*
X79549402Y-104166404D01*
X79549403Y-104166405D01*
X79991787Y-104461996D01*
X80368004Y-104838213D01*
X80565512Y-105133805D01*
X80663596Y-105280598D01*
X80867203Y-105772148D01*
X80971000Y-106293973D01*
X80971000Y-106826027D01*
X80867203Y-107347852D01*
X80663596Y-107839402D01*
X80663595Y-107839403D01*
X80368004Y-108281787D01*
X79991787Y-108658004D01*
X79696195Y-108855512D01*
X79549402Y-108953596D01*
X79057852Y-109157203D01*
X78536027Y-109261000D01*
X78003973Y-109261000D01*
X77482148Y-109157203D01*
X76990598Y-108953596D01*
X76843805Y-108855512D01*
X76548213Y-108658004D01*
X76171996Y-108281787D01*
X75876405Y-107839403D01*
X75876404Y-107839402D01*
X75672797Y-107347852D01*
X75569000Y-106826027D01*
X75569000Y-106293973D01*
X75672797Y-105772148D01*
X75876404Y-105280598D01*
X75974488Y-105133805D01*
X76171996Y-104838213D01*
X76548213Y-104461996D01*
X76990597Y-104166405D01*
X76990598Y-104166404D01*
X77482148Y-103962797D01*
X78003973Y-103859000D01*
X78536027Y-103859000D01*
X79057852Y-103962797D01*
X79057852Y-103962797D01*
G37*
G36*
X20057852Y-79902797D02*
G01*
X20549402Y-80106404D01*
X20549403Y-80106405D01*
X20991787Y-80401996D01*
X21368004Y-80778213D01*
X21565512Y-81073805D01*
X21663596Y-81220598D01*
X21867203Y-81712148D01*
X21971000Y-82233973D01*
X21971000Y-82766027D01*
X21867203Y-83287852D01*
X21663596Y-83779402D01*
X21663595Y-83779403D01*
X21368004Y-84221787D01*
X20991787Y-84598004D01*
X20696195Y-84795512D01*
X20549402Y-84893596D01*
X20057852Y-85097203D01*
X19536027Y-85201000D01*
X19003973Y-85201000D01*
X18482148Y-85097203D01*
X17990598Y-84893596D01*
X17843805Y-84795512D01*
X17548213Y-84598004D01*
X17171996Y-84221787D01*
X16876405Y-83779403D01*
X16876404Y-83779402D01*
X16672797Y-83287852D01*
X16569000Y-82766027D01*
X16569000Y-82233973D01*
X16672797Y-81712148D01*
X16876404Y-81220598D01*
X16974488Y-81073805D01*
X17171996Y-80778213D01*
X17548213Y-80401996D01*
X17990597Y-80106405D01*
X17990598Y-80106404D01*
X18482148Y-79902797D01*
X19003973Y-79799000D01*
X19536027Y-79799000D01*
X20057852Y-79902797D01*
X20057852Y-79902797D01*
G37*
G36*
X51343565Y-79902797D02*
G01*
X51835115Y-80106404D01*
X51835116Y-80106405D01*
X52277500Y-80401996D01*
X52653717Y-80778213D01*
X52851225Y-81073805D01*
X52949309Y-81220598D01*
X53152916Y-81712148D01*
X53256713Y-82233973D01*
X53256713Y-82766027D01*
X53152916Y-83287852D01*
X52949309Y-83779402D01*
X52949308Y-83779403D01*
X52653717Y-84221787D01*
X52277500Y-84598004D01*
X51981908Y-84795512D01*
X51835115Y-84893596D01*
X51343565Y-85097203D01*
X50821740Y-85201000D01*
X50289686Y-85201000D01*
X49767861Y-85097203D01*
X49276311Y-84893596D01*
X49129518Y-84795512D01*
X48833926Y-84598004D01*
X48457709Y-84221787D01*
X48162118Y-83779403D01*
X48162117Y-83779402D01*
X47958510Y-83287852D01*
X47854713Y-82766027D01*
X47854713Y-82233973D01*
X47958510Y-81712148D01*
X48162117Y-81220598D01*
X48260201Y-81073805D01*
X48457709Y-80778213D01*
X48833926Y-80401996D01*
X49276310Y-80106405D01*
X49276311Y-80106404D01*
X49767861Y-79902797D01*
X50289686Y-79799000D01*
X50821740Y-79799000D01*
X51343565Y-79902797D01*
X51343565Y-79902797D01*
G37*
G36*
X40914994Y-79902797D02*
G01*
X41406544Y-80106404D01*
X41406545Y-80106405D01*
X41848929Y-80401996D01*
X42225146Y-80778213D01*
X42422654Y-81073805D01*
X42520738Y-81220598D01*
X42724345Y-81712148D01*
X42828142Y-82233973D01*
X42828142Y-82766027D01*
X42724345Y-83287852D01*
X42520738Y-83779402D01*
X42520737Y-83779403D01*
X42225146Y-84221787D01*
X41848929Y-84598004D01*
X41553337Y-84795512D01*
X41406544Y-84893596D01*
X40914994Y-85097203D01*
X40393169Y-85201000D01*
X39861115Y-85201000D01*
X39339290Y-85097203D01*
X38847740Y-84893596D01*
X38700947Y-84795512D01*
X38405355Y-84598004D01*
X38029138Y-84221787D01*
X37733547Y-83779403D01*
X37733546Y-83779402D01*
X37529939Y-83287852D01*
X37426142Y-82766027D01*
X37426142Y-82233973D01*
X37529939Y-81712148D01*
X37733546Y-81220598D01*
X37831630Y-81073805D01*
X38029138Y-80778213D01*
X38405355Y-80401996D01*
X38847739Y-80106405D01*
X38847740Y-80106404D01*
X39339290Y-79902797D01*
X39861115Y-79799000D01*
X40393169Y-79799000D01*
X40914994Y-79902797D01*
X40914994Y-79902797D01*
G37*
G36*
X82629278Y-79902797D02*
G01*
X83120828Y-80106404D01*
X83120829Y-80106405D01*
X83563213Y-80401996D01*
X83939430Y-80778213D01*
X84136938Y-81073805D01*
X84235022Y-81220598D01*
X84438629Y-81712148D01*
X84542426Y-82233973D01*
X84542426Y-82766027D01*
X84438629Y-83287852D01*
X84235022Y-83779402D01*
X84235021Y-83779403D01*
X83939430Y-84221787D01*
X83563213Y-84598004D01*
X83267621Y-84795512D01*
X83120828Y-84893596D01*
X82629278Y-85097203D01*
X82107453Y-85201000D01*
X81575399Y-85201000D01*
X81053574Y-85097203D01*
X80562024Y-84893596D01*
X80415231Y-84795512D01*
X80119639Y-84598004D01*
X79743422Y-84221787D01*
X79447831Y-83779403D01*
X79447830Y-83779402D01*
X79244223Y-83287852D01*
X79140426Y-82766027D01*
X79140426Y-82233973D01*
X79244223Y-81712148D01*
X79447830Y-81220598D01*
X79545914Y-81073805D01*
X79743422Y-80778213D01*
X80119639Y-80401996D01*
X80562023Y-80106405D01*
X80562024Y-80106404D01*
X81053574Y-79902797D01*
X81575399Y-79799000D01*
X82107453Y-79799000D01*
X82629278Y-79902797D01*
X82629278Y-79902797D01*
G37*
G36*
X30486423Y-79902797D02*
G01*
X30977973Y-80106404D01*
X30977974Y-80106405D01*
X31420358Y-80401996D01*
X31796575Y-80778213D01*
X31994083Y-81073805D01*
X32092167Y-81220598D01*
X32295774Y-81712148D01*
X32399571Y-82233973D01*
X32399571Y-82766027D01*
X32295774Y-83287852D01*
X32092167Y-83779402D01*
X32092166Y-83779403D01*
X31796575Y-84221787D01*
X31420358Y-84598004D01*
X31124766Y-84795512D01*
X30977973Y-84893596D01*
X30486423Y-85097203D01*
X29964598Y-85201000D01*
X29432544Y-85201000D01*
X28910719Y-85097203D01*
X28419169Y-84893596D01*
X28272376Y-84795512D01*
X27976784Y-84598004D01*
X27600567Y-84221787D01*
X27304976Y-83779403D01*
X27304975Y-83779402D01*
X27101368Y-83287852D01*
X26997571Y-82766027D01*
X26997571Y-82233973D01*
X27101368Y-81712148D01*
X27304975Y-81220598D01*
X27403059Y-81073805D01*
X27600567Y-80778213D01*
X27976784Y-80401996D01*
X28419168Y-80106405D01*
X28419169Y-80106404D01*
X28910719Y-79902797D01*
X29432544Y-79799000D01*
X29964598Y-79799000D01*
X30486423Y-79902797D01*
X30486423Y-79902797D01*
G37*
G36*
X72200707Y-79902797D02*
G01*
X72692257Y-80106404D01*
X72692258Y-80106405D01*
X73134642Y-80401996D01*
X73510859Y-80778213D01*
X73708367Y-81073805D01*
X73806451Y-81220598D01*
X74010058Y-81712148D01*
X74113855Y-82233973D01*
X74113855Y-82766027D01*
X74010058Y-83287852D01*
X73806451Y-83779402D01*
X73806450Y-83779403D01*
X73510859Y-84221787D01*
X73134642Y-84598004D01*
X72839050Y-84795512D01*
X72692257Y-84893596D01*
X72200707Y-85097203D01*
X71678882Y-85201000D01*
X71146828Y-85201000D01*
X70625003Y-85097203D01*
X70133453Y-84893596D01*
X69986660Y-84795512D01*
X69691068Y-84598004D01*
X69314851Y-84221787D01*
X69019260Y-83779403D01*
X69019259Y-83779402D01*
X68815652Y-83287852D01*
X68711855Y-82766027D01*
X68711855Y-82233973D01*
X68815652Y-81712148D01*
X69019259Y-81220598D01*
X69117343Y-81073805D01*
X69314851Y-80778213D01*
X69691068Y-80401996D01*
X70133452Y-80106405D01*
X70133453Y-80106404D01*
X70625003Y-79902797D01*
X71146828Y-79799000D01*
X71678882Y-79799000D01*
X72200707Y-79902797D01*
X72200707Y-79902797D01*
G37*
G36*
X61772136Y-79902797D02*
G01*
X62263686Y-80106404D01*
X62263687Y-80106405D01*
X62706071Y-80401996D01*
X63082288Y-80778213D01*
X63279796Y-81073805D01*
X63377880Y-81220598D01*
X63581487Y-81712148D01*
X63685284Y-82233973D01*
X63685284Y-82766027D01*
X63581487Y-83287852D01*
X63377880Y-83779402D01*
X63377879Y-83779403D01*
X63082288Y-84221787D01*
X62706071Y-84598004D01*
X62410479Y-84795512D01*
X62263686Y-84893596D01*
X61772136Y-85097203D01*
X61250311Y-85201000D01*
X60718257Y-85201000D01*
X60196432Y-85097203D01*
X59704882Y-84893596D01*
X59558089Y-84795512D01*
X59262497Y-84598004D01*
X58886280Y-84221787D01*
X58590689Y-83779403D01*
X58590688Y-83779402D01*
X58387081Y-83287852D01*
X58283284Y-82766027D01*
X58283284Y-82233973D01*
X58387081Y-81712148D01*
X58590688Y-81220598D01*
X58688772Y-81073805D01*
X58886280Y-80778213D01*
X59262497Y-80401996D01*
X59704881Y-80106405D01*
X59704882Y-80106404D01*
X60196432Y-79902797D01*
X60718257Y-79799000D01*
X61250311Y-79799000D01*
X61772136Y-79902797D01*
X61772136Y-79902797D01*
G37*
G36*
X93057849Y-79872797D02*
G01*
X93549399Y-80076404D01*
X93696192Y-80174488D01*
X93991784Y-80371996D01*
X94368001Y-80748213D01*
X94565509Y-81043805D01*
X94663593Y-81190598D01*
X94867200Y-81682148D01*
X94970997Y-82203973D01*
X94970997Y-82736027D01*
X94867200Y-83257852D01*
X94663593Y-83749402D01*
X94643547Y-83779403D01*
X94368001Y-84191787D01*
X93991784Y-84568004D01*
X93696192Y-84765512D01*
X93549399Y-84863596D01*
X93057849Y-85067203D01*
X92536024Y-85171000D01*
X92003970Y-85171000D01*
X91482145Y-85067203D01*
X90990595Y-84863596D01*
X90843802Y-84765512D01*
X90548210Y-84568004D01*
X90171993Y-84191787D01*
X89896447Y-83779403D01*
X89876401Y-83749402D01*
X89672794Y-83257852D01*
X89568997Y-82736027D01*
X89568997Y-82203973D01*
X89672794Y-81682148D01*
X89876401Y-81190598D01*
X89974485Y-81043805D01*
X90171993Y-80748213D01*
X90548210Y-80371996D01*
X90843802Y-80174488D01*
X90990595Y-80076404D01*
X91482145Y-79872797D01*
X92003970Y-79769000D01*
X92536024Y-79769000D01*
X93057849Y-79872797D01*
X93057849Y-79872797D01*
G37*
G36*
X61232585Y-73728802D02*
G01*
X61382410Y-73758604D01*
X61664674Y-73875521D01*
X61918705Y-74045259D01*
X62134741Y-74261295D01*
X62304479Y-74515326D01*
X62421396Y-74797590D01*
X62481000Y-75097240D01*
X62481000Y-75402760D01*
X62421396Y-75702410D01*
X62304479Y-75984674D01*
X62134741Y-76238705D01*
X61918705Y-76454741D01*
X61664674Y-76624479D01*
X61382410Y-76741396D01*
X61232585Y-76771198D01*
X61082761Y-76801000D01*
X60777239Y-76801000D01*
X60627415Y-76771198D01*
X60477590Y-76741396D01*
X60195326Y-76624479D01*
X59941295Y-76454741D01*
X59725259Y-76238705D01*
X59555521Y-75984674D01*
X59438604Y-75702410D01*
X59379000Y-75402760D01*
X59379000Y-75097240D01*
X59438604Y-74797590D01*
X59555521Y-74515326D01*
X59725259Y-74261295D01*
X59941295Y-74045259D01*
X60195326Y-73875521D01*
X60477590Y-73758604D01*
X60627415Y-73728802D01*
X60777239Y-73699000D01*
X61082761Y-73699000D01*
X61232585Y-73728802D01*
X61232585Y-73728802D01*
G37*
G36*
X30042585Y-73728802D02*
G01*
X30192410Y-73758604D01*
X30474674Y-73875521D01*
X30728705Y-74045259D01*
X30944741Y-74261295D01*
X31114479Y-74515326D01*
X31231396Y-74797590D01*
X31291000Y-75097240D01*
X31291000Y-75402760D01*
X31231396Y-75702410D01*
X31114479Y-75984674D01*
X30944741Y-76238705D01*
X30728705Y-76454741D01*
X30474674Y-76624479D01*
X30192410Y-76741396D01*
X30042585Y-76771198D01*
X29892761Y-76801000D01*
X29587239Y-76801000D01*
X29437415Y-76771198D01*
X29287590Y-76741396D01*
X29005326Y-76624479D01*
X28751295Y-76454741D01*
X28535259Y-76238705D01*
X28365521Y-75984674D01*
X28248604Y-75702410D01*
X28189000Y-75402760D01*
X28189000Y-75097240D01*
X28248604Y-74797590D01*
X28365521Y-74515326D01*
X28535259Y-74261295D01*
X28751295Y-74045259D01*
X29005326Y-73875521D01*
X29287590Y-73758604D01*
X29437415Y-73728802D01*
X29587239Y-73699000D01*
X29892761Y-73699000D01*
X30042585Y-73728802D01*
X30042585Y-73728802D01*
G37*
G36*
X40432585Y-73728802D02*
G01*
X40582410Y-73758604D01*
X40864674Y-73875521D01*
X41118705Y-74045259D01*
X41334741Y-74261295D01*
X41504479Y-74515326D01*
X41621396Y-74797590D01*
X41681000Y-75097240D01*
X41681000Y-75402760D01*
X41621396Y-75702410D01*
X41504479Y-75984674D01*
X41334741Y-76238705D01*
X41118705Y-76454741D01*
X40864674Y-76624479D01*
X40582410Y-76741396D01*
X40432585Y-76771198D01*
X40282761Y-76801000D01*
X39977239Y-76801000D01*
X39827415Y-76771198D01*
X39677590Y-76741396D01*
X39395326Y-76624479D01*
X39141295Y-76454741D01*
X38925259Y-76238705D01*
X38755521Y-75984674D01*
X38638604Y-75702410D01*
X38579000Y-75402760D01*
X38579000Y-75097240D01*
X38638604Y-74797590D01*
X38755521Y-74515326D01*
X38925259Y-74261295D01*
X39141295Y-74045259D01*
X39395326Y-73875521D01*
X39677590Y-73758604D01*
X39827415Y-73728802D01*
X39977239Y-73699000D01*
X40282761Y-73699000D01*
X40432585Y-73728802D01*
X40432585Y-73728802D01*
G37*
G36*
X19562585Y-73728802D02*
G01*
X19712410Y-73758604D01*
X19994674Y-73875521D01*
X20248705Y-74045259D01*
X20464741Y-74261295D01*
X20634479Y-74515326D01*
X20751396Y-74797590D01*
X20811000Y-75097240D01*
X20811000Y-75402760D01*
X20751396Y-75702410D01*
X20634479Y-75984674D01*
X20464741Y-76238705D01*
X20248705Y-76454741D01*
X19994674Y-76624479D01*
X19712410Y-76741396D01*
X19562585Y-76771198D01*
X19412761Y-76801000D01*
X19107239Y-76801000D01*
X18957415Y-76771198D01*
X18807590Y-76741396D01*
X18525326Y-76624479D01*
X18271295Y-76454741D01*
X18055259Y-76238705D01*
X17885521Y-75984674D01*
X17768604Y-75702410D01*
X17709000Y-75402760D01*
X17709000Y-75097240D01*
X17768604Y-74797590D01*
X17885521Y-74515326D01*
X18055259Y-74261295D01*
X18271295Y-74045259D01*
X18525326Y-73875521D01*
X18807590Y-73758604D01*
X18957415Y-73728802D01*
X19107239Y-73699000D01*
X19412761Y-73699000D01*
X19562585Y-73728802D01*
X19562585Y-73728802D01*
G37*
G36*
X71652585Y-73728802D02*
G01*
X71802410Y-73758604D01*
X72084674Y-73875521D01*
X72338705Y-74045259D01*
X72554741Y-74261295D01*
X72724479Y-74515326D01*
X72841396Y-74797590D01*
X72901000Y-75097240D01*
X72901000Y-75402760D01*
X72841396Y-75702410D01*
X72724479Y-75984674D01*
X72554741Y-76238705D01*
X72338705Y-76454741D01*
X72084674Y-76624479D01*
X71802410Y-76741396D01*
X71652585Y-76771198D01*
X71502761Y-76801000D01*
X71197239Y-76801000D01*
X71047415Y-76771198D01*
X70897590Y-76741396D01*
X70615326Y-76624479D01*
X70361295Y-76454741D01*
X70145259Y-76238705D01*
X69975521Y-75984674D01*
X69858604Y-75702410D01*
X69799000Y-75402760D01*
X69799000Y-75097240D01*
X69858604Y-74797590D01*
X69975521Y-74515326D01*
X70145259Y-74261295D01*
X70361295Y-74045259D01*
X70615326Y-73875521D01*
X70897590Y-73758604D01*
X71047415Y-73728802D01*
X71197239Y-73699000D01*
X71502761Y-73699000D01*
X71652585Y-73728802D01*
X71652585Y-73728802D01*
G37*
G36*
X82062585Y-73728802D02*
G01*
X82212410Y-73758604D01*
X82494674Y-73875521D01*
X82748705Y-74045259D01*
X82964741Y-74261295D01*
X83134479Y-74515326D01*
X83251396Y-74797590D01*
X83311000Y-75097240D01*
X83311000Y-75402760D01*
X83251396Y-75702410D01*
X83134479Y-75984674D01*
X82964741Y-76238705D01*
X82748705Y-76454741D01*
X82494674Y-76624479D01*
X82212410Y-76741396D01*
X82062585Y-76771198D01*
X81912761Y-76801000D01*
X81607239Y-76801000D01*
X81457415Y-76771198D01*
X81307590Y-76741396D01*
X81025326Y-76624479D01*
X80771295Y-76454741D01*
X80555259Y-76238705D01*
X80385521Y-75984674D01*
X80268604Y-75702410D01*
X80209000Y-75402760D01*
X80209000Y-75097240D01*
X80268604Y-74797590D01*
X80385521Y-74515326D01*
X80555259Y-74261295D01*
X80771295Y-74045259D01*
X81025326Y-73875521D01*
X81307590Y-73758604D01*
X81457415Y-73728802D01*
X81607239Y-73699000D01*
X81912761Y-73699000D01*
X82062585Y-73728802D01*
X82062585Y-73728802D01*
G37*
G36*
X92462585Y-73728802D02*
G01*
X92612410Y-73758604D01*
X92894674Y-73875521D01*
X93148705Y-74045259D01*
X93364741Y-74261295D01*
X93534479Y-74515326D01*
X93651396Y-74797590D01*
X93711000Y-75097240D01*
X93711000Y-75402760D01*
X93651396Y-75702410D01*
X93534479Y-75984674D01*
X93364741Y-76238705D01*
X93148705Y-76454741D01*
X92894674Y-76624479D01*
X92612410Y-76741396D01*
X92462585Y-76771198D01*
X92312761Y-76801000D01*
X92007239Y-76801000D01*
X91857415Y-76771198D01*
X91707590Y-76741396D01*
X91425326Y-76624479D01*
X91171295Y-76454741D01*
X90955259Y-76238705D01*
X90785521Y-75984674D01*
X90668604Y-75702410D01*
X90609000Y-75402760D01*
X90609000Y-75097240D01*
X90668604Y-74797590D01*
X90785521Y-74515326D01*
X90955259Y-74261295D01*
X91171295Y-74045259D01*
X91425326Y-73875521D01*
X91707590Y-73758604D01*
X91857415Y-73728802D01*
X92007239Y-73699000D01*
X92312761Y-73699000D01*
X92462585Y-73728802D01*
X92462585Y-73728802D01*
G37*
G36*
X50822585Y-73728802D02*
G01*
X50972410Y-73758604D01*
X51254674Y-73875521D01*
X51508705Y-74045259D01*
X51724741Y-74261295D01*
X51894479Y-74515326D01*
X52011396Y-74797590D01*
X52071000Y-75097240D01*
X52071000Y-75402760D01*
X52011396Y-75702410D01*
X51894479Y-75984674D01*
X51724741Y-76238705D01*
X51508705Y-76454741D01*
X51254674Y-76624479D01*
X50972410Y-76741396D01*
X50822585Y-76771198D01*
X50672761Y-76801000D01*
X50367239Y-76801000D01*
X50217415Y-76771198D01*
X50067590Y-76741396D01*
X49785326Y-76624479D01*
X49531295Y-76454741D01*
X49315259Y-76238705D01*
X49145521Y-75984674D01*
X49028604Y-75702410D01*
X48969000Y-75402760D01*
X48969000Y-75097240D01*
X49028604Y-74797590D01*
X49145521Y-74515326D01*
X49315259Y-74261295D01*
X49531295Y-74045259D01*
X49785326Y-73875521D01*
X50067590Y-73758604D01*
X50217415Y-73728802D01*
X50367239Y-73699000D01*
X50672761Y-73699000D01*
X50822585Y-73728802D01*
X50822585Y-73728802D01*
G37*
G36*
X51303565Y-64422797D02*
G01*
X51795115Y-64626404D01*
X51795116Y-64626405D01*
X52237500Y-64921996D01*
X52613717Y-65298213D01*
X52811225Y-65593805D01*
X52909309Y-65740598D01*
X53112916Y-66232148D01*
X53216713Y-66753973D01*
X53216713Y-67286027D01*
X53112916Y-67807852D01*
X52909309Y-68299402D01*
X52909308Y-68299403D01*
X52613717Y-68741787D01*
X52237500Y-69118004D01*
X51941908Y-69315512D01*
X51795115Y-69413596D01*
X51303565Y-69617203D01*
X50781740Y-69721000D01*
X50249686Y-69721000D01*
X49727861Y-69617203D01*
X49236311Y-69413596D01*
X49089518Y-69315512D01*
X48793926Y-69118004D01*
X48417709Y-68741787D01*
X48122118Y-68299403D01*
X48122117Y-68299402D01*
X47918510Y-67807852D01*
X47814713Y-67286027D01*
X47814713Y-66753973D01*
X47918510Y-66232148D01*
X48122117Y-65740598D01*
X48220201Y-65593805D01*
X48417709Y-65298213D01*
X48793926Y-64921996D01*
X49236310Y-64626405D01*
X49236311Y-64626404D01*
X49727861Y-64422797D01*
X50249686Y-64319000D01*
X50781740Y-64319000D01*
X51303565Y-64422797D01*
X51303565Y-64422797D01*
G37*
G36*
X82589278Y-64422797D02*
G01*
X83080828Y-64626404D01*
X83080829Y-64626405D01*
X83523213Y-64921996D01*
X83899430Y-65298213D01*
X84096938Y-65593805D01*
X84195022Y-65740598D01*
X84398629Y-66232148D01*
X84502426Y-66753973D01*
X84502426Y-67286027D01*
X84398629Y-67807852D01*
X84195022Y-68299402D01*
X84195021Y-68299403D01*
X83899430Y-68741787D01*
X83523213Y-69118004D01*
X83227621Y-69315512D01*
X83080828Y-69413596D01*
X82589278Y-69617203D01*
X82067453Y-69721000D01*
X81535399Y-69721000D01*
X81013574Y-69617203D01*
X80522024Y-69413596D01*
X80375231Y-69315512D01*
X80079639Y-69118004D01*
X79703422Y-68741787D01*
X79407831Y-68299403D01*
X79407830Y-68299402D01*
X79204223Y-67807852D01*
X79100426Y-67286027D01*
X79100426Y-66753973D01*
X79204223Y-66232148D01*
X79407830Y-65740598D01*
X79505914Y-65593805D01*
X79703422Y-65298213D01*
X80079639Y-64921996D01*
X80522023Y-64626405D01*
X80522024Y-64626404D01*
X81013574Y-64422797D01*
X81535399Y-64319000D01*
X82067453Y-64319000D01*
X82589278Y-64422797D01*
X82589278Y-64422797D01*
G37*
G36*
X72160707Y-64422797D02*
G01*
X72652257Y-64626404D01*
X72652258Y-64626405D01*
X73094642Y-64921996D01*
X73470859Y-65298213D01*
X73668367Y-65593805D01*
X73766451Y-65740598D01*
X73970058Y-66232148D01*
X74073855Y-66753973D01*
X74073855Y-67286027D01*
X73970058Y-67807852D01*
X73766451Y-68299402D01*
X73766450Y-68299403D01*
X73470859Y-68741787D01*
X73094642Y-69118004D01*
X72799050Y-69315512D01*
X72652257Y-69413596D01*
X72160707Y-69617203D01*
X71638882Y-69721000D01*
X71106828Y-69721000D01*
X70585003Y-69617203D01*
X70093453Y-69413596D01*
X69946660Y-69315512D01*
X69651068Y-69118004D01*
X69274851Y-68741787D01*
X68979260Y-68299403D01*
X68979259Y-68299402D01*
X68775652Y-67807852D01*
X68671855Y-67286027D01*
X68671855Y-66753973D01*
X68775652Y-66232148D01*
X68979259Y-65740598D01*
X69077343Y-65593805D01*
X69274851Y-65298213D01*
X69651068Y-64921996D01*
X70093452Y-64626405D01*
X70093453Y-64626404D01*
X70585003Y-64422797D01*
X71106828Y-64319000D01*
X71638882Y-64319000D01*
X72160707Y-64422797D01*
X72160707Y-64422797D01*
G37*
G36*
X61732136Y-64422797D02*
G01*
X62223686Y-64626404D01*
X62223687Y-64626405D01*
X62666071Y-64921996D01*
X63042288Y-65298213D01*
X63239796Y-65593805D01*
X63337880Y-65740598D01*
X63541487Y-66232148D01*
X63645284Y-66753973D01*
X63645284Y-67286027D01*
X63541487Y-67807852D01*
X63337880Y-68299402D01*
X63337879Y-68299403D01*
X63042288Y-68741787D01*
X62666071Y-69118004D01*
X62370479Y-69315512D01*
X62223686Y-69413596D01*
X61732136Y-69617203D01*
X61210311Y-69721000D01*
X60678257Y-69721000D01*
X60156432Y-69617203D01*
X59664882Y-69413596D01*
X59518089Y-69315512D01*
X59222497Y-69118004D01*
X58846280Y-68741787D01*
X58550689Y-68299403D01*
X58550688Y-68299402D01*
X58347081Y-67807852D01*
X58243284Y-67286027D01*
X58243284Y-66753973D01*
X58347081Y-66232148D01*
X58550688Y-65740598D01*
X58648772Y-65593805D01*
X58846280Y-65298213D01*
X59222497Y-64921996D01*
X59664881Y-64626405D01*
X59664882Y-64626404D01*
X60156432Y-64422797D01*
X60678257Y-64319000D01*
X61210311Y-64319000D01*
X61732136Y-64422797D01*
X61732136Y-64422797D01*
G37*
G36*
X40874994Y-64422797D02*
G01*
X41366544Y-64626404D01*
X41366545Y-64626405D01*
X41808929Y-64921996D01*
X42185146Y-65298213D01*
X42382654Y-65593805D01*
X42480738Y-65740598D01*
X42684345Y-66232148D01*
X42788142Y-66753973D01*
X42788142Y-67286027D01*
X42684345Y-67807852D01*
X42480738Y-68299402D01*
X42480737Y-68299403D01*
X42185146Y-68741787D01*
X41808929Y-69118004D01*
X41513337Y-69315512D01*
X41366544Y-69413596D01*
X40874994Y-69617203D01*
X40353169Y-69721000D01*
X39821115Y-69721000D01*
X39299290Y-69617203D01*
X38807740Y-69413596D01*
X38660947Y-69315512D01*
X38365355Y-69118004D01*
X37989138Y-68741787D01*
X37693547Y-68299403D01*
X37693546Y-68299402D01*
X37489939Y-67807852D01*
X37386142Y-67286027D01*
X37386142Y-66753973D01*
X37489939Y-66232148D01*
X37693546Y-65740598D01*
X37791630Y-65593805D01*
X37989138Y-65298213D01*
X38365355Y-64921996D01*
X38807739Y-64626405D01*
X38807740Y-64626404D01*
X39299290Y-64422797D01*
X39821115Y-64319000D01*
X40353169Y-64319000D01*
X40874994Y-64422797D01*
X40874994Y-64422797D01*
G37*
G36*
X30446423Y-64422797D02*
G01*
X30937973Y-64626404D01*
X30937974Y-64626405D01*
X31380358Y-64921996D01*
X31756575Y-65298213D01*
X31954083Y-65593805D01*
X32052167Y-65740598D01*
X32255774Y-66232148D01*
X32359571Y-66753973D01*
X32359571Y-67286027D01*
X32255774Y-67807852D01*
X32052167Y-68299402D01*
X32052166Y-68299403D01*
X31756575Y-68741787D01*
X31380358Y-69118004D01*
X31084766Y-69315512D01*
X30937973Y-69413596D01*
X30446423Y-69617203D01*
X29924598Y-69721000D01*
X29392544Y-69721000D01*
X28870719Y-69617203D01*
X28379169Y-69413596D01*
X28232376Y-69315512D01*
X27936784Y-69118004D01*
X27560567Y-68741787D01*
X27264976Y-68299403D01*
X27264975Y-68299402D01*
X27061368Y-67807852D01*
X26957571Y-67286027D01*
X26957571Y-66753973D01*
X27061368Y-66232148D01*
X27264975Y-65740598D01*
X27363059Y-65593805D01*
X27560567Y-65298213D01*
X27936784Y-64921996D01*
X28379168Y-64626405D01*
X28379169Y-64626404D01*
X28870719Y-64422797D01*
X29392544Y-64319000D01*
X29924598Y-64319000D01*
X30446423Y-64422797D01*
X30446423Y-64422797D01*
G37*
G36*
X20017852Y-64422797D02*
G01*
X20509402Y-64626404D01*
X20509403Y-64626405D01*
X20951787Y-64921996D01*
X21328004Y-65298213D01*
X21525512Y-65593805D01*
X21623596Y-65740598D01*
X21827203Y-66232148D01*
X21931000Y-66753973D01*
X21931000Y-67286027D01*
X21827203Y-67807852D01*
X21623596Y-68299402D01*
X21623595Y-68299403D01*
X21328004Y-68741787D01*
X20951787Y-69118004D01*
X20656195Y-69315512D01*
X20509402Y-69413596D01*
X20017852Y-69617203D01*
X19496027Y-69721000D01*
X18963973Y-69721000D01*
X18442148Y-69617203D01*
X17950598Y-69413596D01*
X17803805Y-69315512D01*
X17508213Y-69118004D01*
X17131996Y-68741787D01*
X16836405Y-68299403D01*
X16836404Y-68299402D01*
X16632797Y-67807852D01*
X16529000Y-67286027D01*
X16529000Y-66753973D01*
X16632797Y-66232148D01*
X16836404Y-65740598D01*
X16934488Y-65593805D01*
X17131996Y-65298213D01*
X17508213Y-64921996D01*
X17950597Y-64626405D01*
X17950598Y-64626404D01*
X18442148Y-64422797D01*
X18963973Y-64319000D01*
X19496027Y-64319000D01*
X20017852Y-64422797D01*
X20017852Y-64422797D01*
G37*
G36*
X93017849Y-64392797D02*
G01*
X93509399Y-64596404D01*
X93656192Y-64694488D01*
X93951784Y-64891996D01*
X94328001Y-65268213D01*
X94525509Y-65563805D01*
X94623593Y-65710598D01*
X94827200Y-66202148D01*
X94930997Y-66723973D01*
X94930997Y-67256027D01*
X94827200Y-67777852D01*
X94623593Y-68269402D01*
X94603547Y-68299403D01*
X94328001Y-68711787D01*
X93951784Y-69088004D01*
X93656192Y-69285512D01*
X93509399Y-69383596D01*
X93017849Y-69587203D01*
X92496024Y-69691000D01*
X91963970Y-69691000D01*
X91442145Y-69587203D01*
X90950595Y-69383596D01*
X90803802Y-69285512D01*
X90508210Y-69088004D01*
X90131993Y-68711787D01*
X89856447Y-68299403D01*
X89836401Y-68269402D01*
X89632794Y-67777852D01*
X89528997Y-67256027D01*
X89528997Y-66723973D01*
X89632794Y-66202148D01*
X89836401Y-65710598D01*
X89934485Y-65563805D01*
X90131993Y-65268213D01*
X90508210Y-64891996D01*
X90803802Y-64694488D01*
X90950595Y-64596404D01*
X91442145Y-64392797D01*
X91963970Y-64289000D01*
X92496024Y-64289000D01*
X93017849Y-64392797D01*
X93017849Y-64392797D01*
G37*
G36*
X40402585Y-58238802D02*
G01*
X40552410Y-58268604D01*
X40834674Y-58385521D01*
X41088705Y-58555259D01*
X41304741Y-58771295D01*
X41474479Y-59025326D01*
X41591396Y-59307590D01*
X41651000Y-59607240D01*
X41651000Y-59912760D01*
X41591396Y-60212410D01*
X41474479Y-60494674D01*
X41304741Y-60748705D01*
X41088705Y-60964741D01*
X40834674Y-61134479D01*
X40552410Y-61251396D01*
X40402585Y-61281198D01*
X40252761Y-61311000D01*
X39947239Y-61311000D01*
X39797415Y-61281198D01*
X39647590Y-61251396D01*
X39365326Y-61134479D01*
X39111295Y-60964741D01*
X38895259Y-60748705D01*
X38725521Y-60494674D01*
X38608604Y-60212410D01*
X38549000Y-59912760D01*
X38549000Y-59607240D01*
X38608604Y-59307590D01*
X38725521Y-59025326D01*
X38895259Y-58771295D01*
X39111295Y-58555259D01*
X39365326Y-58385521D01*
X39647590Y-58268604D01*
X39797415Y-58238802D01*
X39947239Y-58209000D01*
X40252761Y-58209000D01*
X40402585Y-58238802D01*
X40402585Y-58238802D01*
G37*
G36*
X92432585Y-58238802D02*
G01*
X92582410Y-58268604D01*
X92864674Y-58385521D01*
X93118705Y-58555259D01*
X93334741Y-58771295D01*
X93504479Y-59025326D01*
X93621396Y-59307590D01*
X93681000Y-59607240D01*
X93681000Y-59912760D01*
X93621396Y-60212410D01*
X93504479Y-60494674D01*
X93334741Y-60748705D01*
X93118705Y-60964741D01*
X92864674Y-61134479D01*
X92582410Y-61251396D01*
X92432585Y-61281198D01*
X92282761Y-61311000D01*
X91977239Y-61311000D01*
X91827415Y-61281198D01*
X91677590Y-61251396D01*
X91395326Y-61134479D01*
X91141295Y-60964741D01*
X90925259Y-60748705D01*
X90755521Y-60494674D01*
X90638604Y-60212410D01*
X90579000Y-59912760D01*
X90579000Y-59607240D01*
X90638604Y-59307590D01*
X90755521Y-59025326D01*
X90925259Y-58771295D01*
X91141295Y-58555259D01*
X91395326Y-58385521D01*
X91677590Y-58268604D01*
X91827415Y-58238802D01*
X91977239Y-58209000D01*
X92282761Y-58209000D01*
X92432585Y-58238802D01*
X92432585Y-58238802D01*
G37*
G36*
X19532585Y-58238802D02*
G01*
X19682410Y-58268604D01*
X19964674Y-58385521D01*
X20218705Y-58555259D01*
X20434741Y-58771295D01*
X20604479Y-59025326D01*
X20721396Y-59307590D01*
X20781000Y-59607240D01*
X20781000Y-59912760D01*
X20721396Y-60212410D01*
X20604479Y-60494674D01*
X20434741Y-60748705D01*
X20218705Y-60964741D01*
X19964674Y-61134479D01*
X19682410Y-61251396D01*
X19532585Y-61281198D01*
X19382761Y-61311000D01*
X19077239Y-61311000D01*
X18927415Y-61281198D01*
X18777590Y-61251396D01*
X18495326Y-61134479D01*
X18241295Y-60964741D01*
X18025259Y-60748705D01*
X17855521Y-60494674D01*
X17738604Y-60212410D01*
X17679000Y-59912760D01*
X17679000Y-59607240D01*
X17738604Y-59307590D01*
X17855521Y-59025326D01*
X18025259Y-58771295D01*
X18241295Y-58555259D01*
X18495326Y-58385521D01*
X18777590Y-58268604D01*
X18927415Y-58238802D01*
X19077239Y-58209000D01*
X19382761Y-58209000D01*
X19532585Y-58238802D01*
X19532585Y-58238802D01*
G37*
G36*
X82032585Y-58238802D02*
G01*
X82182410Y-58268604D01*
X82464674Y-58385521D01*
X82718705Y-58555259D01*
X82934741Y-58771295D01*
X83104479Y-59025326D01*
X83221396Y-59307590D01*
X83281000Y-59607240D01*
X83281000Y-59912760D01*
X83221396Y-60212410D01*
X83104479Y-60494674D01*
X82934741Y-60748705D01*
X82718705Y-60964741D01*
X82464674Y-61134479D01*
X82182410Y-61251396D01*
X82032585Y-61281198D01*
X81882761Y-61311000D01*
X81577239Y-61311000D01*
X81427415Y-61281198D01*
X81277590Y-61251396D01*
X80995326Y-61134479D01*
X80741295Y-60964741D01*
X80525259Y-60748705D01*
X80355521Y-60494674D01*
X80238604Y-60212410D01*
X80179000Y-59912760D01*
X80179000Y-59607240D01*
X80238604Y-59307590D01*
X80355521Y-59025326D01*
X80525259Y-58771295D01*
X80741295Y-58555259D01*
X80995326Y-58385521D01*
X81277590Y-58268604D01*
X81427415Y-58238802D01*
X81577239Y-58209000D01*
X81882761Y-58209000D01*
X82032585Y-58238802D01*
X82032585Y-58238802D01*
G37*
G36*
X71622585Y-58238802D02*
G01*
X71772410Y-58268604D01*
X72054674Y-58385521D01*
X72308705Y-58555259D01*
X72524741Y-58771295D01*
X72694479Y-59025326D01*
X72811396Y-59307590D01*
X72871000Y-59607240D01*
X72871000Y-59912760D01*
X72811396Y-60212410D01*
X72694479Y-60494674D01*
X72524741Y-60748705D01*
X72308705Y-60964741D01*
X72054674Y-61134479D01*
X71772410Y-61251396D01*
X71622585Y-61281198D01*
X71472761Y-61311000D01*
X71167239Y-61311000D01*
X71017415Y-61281198D01*
X70867590Y-61251396D01*
X70585326Y-61134479D01*
X70331295Y-60964741D01*
X70115259Y-60748705D01*
X69945521Y-60494674D01*
X69828604Y-60212410D01*
X69769000Y-59912760D01*
X69769000Y-59607240D01*
X69828604Y-59307590D01*
X69945521Y-59025326D01*
X70115259Y-58771295D01*
X70331295Y-58555259D01*
X70585326Y-58385521D01*
X70867590Y-58268604D01*
X71017415Y-58238802D01*
X71167239Y-58209000D01*
X71472761Y-58209000D01*
X71622585Y-58238802D01*
X71622585Y-58238802D01*
G37*
G36*
X61202585Y-58238802D02*
G01*
X61352410Y-58268604D01*
X61634674Y-58385521D01*
X61888705Y-58555259D01*
X62104741Y-58771295D01*
X62274479Y-59025326D01*
X62391396Y-59307590D01*
X62451000Y-59607240D01*
X62451000Y-59912760D01*
X62391396Y-60212410D01*
X62274479Y-60494674D01*
X62104741Y-60748705D01*
X61888705Y-60964741D01*
X61634674Y-61134479D01*
X61352410Y-61251396D01*
X61202585Y-61281198D01*
X61052761Y-61311000D01*
X60747239Y-61311000D01*
X60597415Y-61281198D01*
X60447590Y-61251396D01*
X60165326Y-61134479D01*
X59911295Y-60964741D01*
X59695259Y-60748705D01*
X59525521Y-60494674D01*
X59408604Y-60212410D01*
X59349000Y-59912760D01*
X59349000Y-59607240D01*
X59408604Y-59307590D01*
X59525521Y-59025326D01*
X59695259Y-58771295D01*
X59911295Y-58555259D01*
X60165326Y-58385521D01*
X60447590Y-58268604D01*
X60597415Y-58238802D01*
X60747239Y-58209000D01*
X61052761Y-58209000D01*
X61202585Y-58238802D01*
X61202585Y-58238802D01*
G37*
G36*
X50792585Y-58238802D02*
G01*
X50942410Y-58268604D01*
X51224674Y-58385521D01*
X51478705Y-58555259D01*
X51694741Y-58771295D01*
X51864479Y-59025326D01*
X51981396Y-59307590D01*
X52041000Y-59607240D01*
X52041000Y-59912760D01*
X51981396Y-60212410D01*
X51864479Y-60494674D01*
X51694741Y-60748705D01*
X51478705Y-60964741D01*
X51224674Y-61134479D01*
X50942410Y-61251396D01*
X50792585Y-61281198D01*
X50642761Y-61311000D01*
X50337239Y-61311000D01*
X50187415Y-61281198D01*
X50037590Y-61251396D01*
X49755326Y-61134479D01*
X49501295Y-60964741D01*
X49285259Y-60748705D01*
X49115521Y-60494674D01*
X48998604Y-60212410D01*
X48939000Y-59912760D01*
X48939000Y-59607240D01*
X48998604Y-59307590D01*
X49115521Y-59025326D01*
X49285259Y-58771295D01*
X49501295Y-58555259D01*
X49755326Y-58385521D01*
X50037590Y-58268604D01*
X50187415Y-58238802D01*
X50337239Y-58209000D01*
X50642761Y-58209000D01*
X50792585Y-58238802D01*
X50792585Y-58238802D01*
G37*
G36*
X30012585Y-58238802D02*
G01*
X30162410Y-58268604D01*
X30444674Y-58385521D01*
X30698705Y-58555259D01*
X30914741Y-58771295D01*
X31084479Y-59025326D01*
X31201396Y-59307590D01*
X31261000Y-59607240D01*
X31261000Y-59912760D01*
X31201396Y-60212410D01*
X31084479Y-60494674D01*
X30914741Y-60748705D01*
X30698705Y-60964741D01*
X30444674Y-61134479D01*
X30162410Y-61251396D01*
X30012585Y-61281198D01*
X29862761Y-61311000D01*
X29557239Y-61311000D01*
X29407415Y-61281198D01*
X29257590Y-61251396D01*
X28975326Y-61134479D01*
X28721295Y-60964741D01*
X28505259Y-60748705D01*
X28335521Y-60494674D01*
X28218604Y-60212410D01*
X28159000Y-59912760D01*
X28159000Y-59607240D01*
X28218604Y-59307590D01*
X28335521Y-59025326D01*
X28505259Y-58771295D01*
X28721295Y-58555259D01*
X28975326Y-58385521D01*
X29257590Y-58268604D01*
X29407415Y-58238802D01*
X29557239Y-58209000D01*
X29862761Y-58209000D01*
X30012585Y-58238802D01*
X30012585Y-58238802D01*
G37*
G36*
X40890905Y-45851467D02*
G01*
X41204948Y-45913934D01*
X41796592Y-46159001D01*
X42329058Y-46514784D01*
X42781882Y-46967608D01*
X43137665Y-47500074D01*
X43382732Y-48091718D01*
X43507666Y-48719804D01*
X43507666Y-49360196D01*
X43382732Y-49988282D01*
X43137665Y-50579926D01*
X42781882Y-51112392D01*
X42329058Y-51565216D01*
X41796592Y-51920999D01*
X41204948Y-52166066D01*
X40890905Y-52228533D01*
X40576863Y-52291000D01*
X39936469Y-52291000D01*
X39622427Y-52228533D01*
X39308384Y-52166066D01*
X38716740Y-51920999D01*
X38184274Y-51565216D01*
X37731450Y-51112392D01*
X37375667Y-50579926D01*
X37130600Y-49988282D01*
X37005666Y-49360196D01*
X37005666Y-48719804D01*
X37130600Y-48091718D01*
X37375667Y-47500074D01*
X37731450Y-46967608D01*
X38184274Y-46514784D01*
X38716740Y-46159001D01*
X39308384Y-45913934D01*
X39622427Y-45851467D01*
X39936469Y-45789000D01*
X40576863Y-45789000D01*
X40890905Y-45851467D01*
X40890905Y-45851467D01*
G37*
G36*
X82924239Y-45851467D02*
G01*
X83238282Y-45913934D01*
X83829926Y-46159001D01*
X84362392Y-46514784D01*
X84815216Y-46967608D01*
X85170999Y-47500074D01*
X85416066Y-48091718D01*
X85541000Y-48719804D01*
X85541000Y-49360196D01*
X85416066Y-49988282D01*
X85170999Y-50579926D01*
X84815216Y-51112392D01*
X84362392Y-51565216D01*
X83829926Y-51920999D01*
X83238282Y-52166066D01*
X82924239Y-52228533D01*
X82610197Y-52291000D01*
X81969803Y-52291000D01*
X81655761Y-52228533D01*
X81341718Y-52166066D01*
X80750074Y-51920999D01*
X80217608Y-51565216D01*
X79764784Y-51112392D01*
X79409001Y-50579926D01*
X79163934Y-49988282D01*
X79039000Y-49360196D01*
X79039000Y-48719804D01*
X79163934Y-48091718D01*
X79409001Y-47500074D01*
X79764784Y-46967608D01*
X80217608Y-46514784D01*
X80750074Y-46159001D01*
X81341718Y-45913934D01*
X81655761Y-45851467D01*
X81969803Y-45789000D01*
X82610197Y-45789000D01*
X82924239Y-45851467D01*
X82924239Y-45851467D01*
G37*
G36*
X61907571Y-45851467D02*
G01*
X62221614Y-45913934D01*
X62813258Y-46159001D01*
X63345724Y-46514784D01*
X63798548Y-46967608D01*
X64154331Y-47500074D01*
X64399398Y-48091718D01*
X64524332Y-48719804D01*
X64524332Y-49360196D01*
X64399398Y-49988282D01*
X64154331Y-50579926D01*
X63798548Y-51112392D01*
X63345724Y-51565216D01*
X62813258Y-51920999D01*
X62221614Y-52166066D01*
X61907571Y-52228533D01*
X61593529Y-52291000D01*
X60953135Y-52291000D01*
X60639093Y-52228533D01*
X60325050Y-52166066D01*
X59733406Y-51920999D01*
X59200940Y-51565216D01*
X58748116Y-51112392D01*
X58392333Y-50579926D01*
X58147266Y-49988282D01*
X58022332Y-49360196D01*
X58022332Y-48719804D01*
X58147266Y-48091718D01*
X58392333Y-47500074D01*
X58748116Y-46967608D01*
X59200940Y-46514784D01*
X59733406Y-46159001D01*
X60325050Y-45913934D01*
X60639093Y-45851467D01*
X60953135Y-45789000D01*
X61593529Y-45789000D01*
X61907571Y-45851467D01*
X61907571Y-45851467D01*
G37*
G36*
X19874239Y-45851467D02*
G01*
X20188282Y-45913934D01*
X20779926Y-46159001D01*
X21312392Y-46514784D01*
X21765216Y-46967608D01*
X22120999Y-47500074D01*
X22366066Y-48091718D01*
X22491000Y-48719804D01*
X22491000Y-49360196D01*
X22366066Y-49988282D01*
X22120999Y-50579926D01*
X21765216Y-51112392D01*
X21312392Y-51565216D01*
X20779926Y-51920999D01*
X20188282Y-52166066D01*
X19874239Y-52228533D01*
X19560197Y-52291000D01*
X18919803Y-52291000D01*
X18605761Y-52228533D01*
X18291718Y-52166066D01*
X17700074Y-51920999D01*
X17167608Y-51565216D01*
X16714784Y-51112392D01*
X16359001Y-50579926D01*
X16113934Y-49988282D01*
X15989000Y-49360196D01*
X15989000Y-48719804D01*
X16113934Y-48091718D01*
X16359001Y-47500074D01*
X16714784Y-46967608D01*
X17167608Y-46514784D01*
X17700074Y-46159001D01*
X18291718Y-45913934D01*
X18605761Y-45851467D01*
X18919803Y-45789000D01*
X19560197Y-45789000D01*
X19874239Y-45851467D01*
X19874239Y-45851467D01*
G37*
G36*
X16484585Y-38680802D02*
G01*
X16634410Y-38710604D01*
X16916674Y-38827521D01*
X17170705Y-38997259D01*
X17386741Y-39213295D01*
X17556479Y-39467326D01*
X17673396Y-39749590D01*
X17733000Y-40049240D01*
X17733000Y-40354760D01*
X17673396Y-40654410D01*
X17556479Y-40936674D01*
X17386741Y-41190705D01*
X17170705Y-41406741D01*
X16916674Y-41576479D01*
X16634410Y-41693396D01*
X16484585Y-41723198D01*
X16334761Y-41753000D01*
X16029239Y-41753000D01*
X15879415Y-41723198D01*
X15729590Y-41693396D01*
X15447326Y-41576479D01*
X15193295Y-41406741D01*
X14977259Y-41190705D01*
X14807521Y-40936674D01*
X14690604Y-40654410D01*
X14631000Y-40354760D01*
X14631000Y-40049240D01*
X14690604Y-39749590D01*
X14807521Y-39467326D01*
X14977259Y-39213295D01*
X15193295Y-38997259D01*
X15447326Y-38827521D01*
X15729590Y-38710604D01*
X15879415Y-38680802D01*
X16029239Y-38651000D01*
X16334761Y-38651000D01*
X16484585Y-38680802D01*
X16484585Y-38680802D01*
G37*
G36*
X106447021Y-12386640D02*
G01*
X106956769Y-12597785D01*
X106956771Y-12597786D01*
X107415534Y-12904321D01*
X107805679Y-13294466D01*
X108112214Y-13753229D01*
X108112215Y-13753231D01*
X108323360Y-14262979D01*
X108431000Y-14804124D01*
X108431000Y-15355876D01*
X108323360Y-15897021D01*
X108112215Y-16406769D01*
X108112214Y-16406771D01*
X107805679Y-16865534D01*
X107415534Y-17255679D01*
X106956771Y-17562214D01*
X106956770Y-17562215D01*
X106956769Y-17562215D01*
X106447021Y-17773360D01*
X105905876Y-17881000D01*
X105354124Y-17881000D01*
X104812979Y-17773360D01*
X104303231Y-17562215D01*
X104303230Y-17562215D01*
X104303229Y-17562214D01*
X103844466Y-17255679D01*
X103454321Y-16865534D01*
X103147786Y-16406771D01*
X103147785Y-16406769D01*
X102936640Y-15897021D01*
X102829000Y-15355876D01*
X102829000Y-14804124D01*
X102936640Y-14262979D01*
X103147785Y-13753231D01*
X103147786Y-13753229D01*
X103454321Y-13294466D01*
X103844466Y-12904321D01*
X104303229Y-12597786D01*
X104303231Y-12597785D01*
X104812979Y-12386640D01*
X105354124Y-12279000D01*
X105905876Y-12279000D01*
X106447021Y-12386640D01*
X106447021Y-12386640D01*
G37*
G36*
X20217021Y-12386640D02*
G01*
X20726769Y-12597785D01*
X20726771Y-12597786D01*
X21185534Y-12904321D01*
X21575679Y-13294466D01*
X21882214Y-13753229D01*
X21882215Y-13753231D01*
X22093360Y-14262979D01*
X22201000Y-14804124D01*
X22201000Y-15355876D01*
X22093360Y-15897021D01*
X21882215Y-16406769D01*
X21882214Y-16406771D01*
X21575679Y-16865534D01*
X21185534Y-17255679D01*
X20726771Y-17562214D01*
X20726770Y-17562215D01*
X20726769Y-17562215D01*
X20217021Y-17773360D01*
X19675876Y-17881000D01*
X19124124Y-17881000D01*
X18582979Y-17773360D01*
X18073231Y-17562215D01*
X18073230Y-17562215D01*
X18073229Y-17562214D01*
X17614466Y-17255679D01*
X17224321Y-16865534D01*
X16917786Y-16406771D01*
X16917785Y-16406769D01*
X16706640Y-15897021D01*
X16599000Y-15355876D01*
X16599000Y-14804124D01*
X16706640Y-14262979D01*
X16917785Y-13753231D01*
X16917786Y-13753229D01*
X17224321Y-13294466D01*
X17614466Y-12904321D01*
X18073229Y-12597786D01*
X18073231Y-12597785D01*
X18582979Y-12386640D01*
X19124124Y-12279000D01*
X19675876Y-12279000D01*
X20217021Y-12386640D01*
X20217021Y-12386640D01*
G37*
M02*
