M48
; DRILL file {KiCad (5.1.2)-1} date 7/24/2020 10:08:29 PM
; FORMAT={2:4/ absolute / inch / suppress trailing zeros}
; #@! TF.CreationDate,2020-07-24T22:08:29-07:00
; #@! TF.GenerationSoftware,Kicad,Pcbnew,(5.1.2)-1
; #@! TF.FileFunction,Plated,1,2,PTH
FMAT,2
INCH,LZ
T1C0.0157
T2C0.0354
T3C0.0394
T4C0.0433
T5C0.0630
T6C0.0984
T7C0.1260
%
G90
G05
T1
X008268Y-032185
X012008Y-039173
X014961Y-03937
X015354Y-037205
X015945Y-036614
X015945Y-03937
X017323Y-032756
X017913Y-007874
X017913Y-011614
X018898Y-016535
X020079Y-016535
X020079Y-032106
X02126Y-016535
X021654Y-032126
X023031Y-036614
X023819Y-035433
X025787Y-035039
X026063Y-031969
X027646Y-039854
X028543Y-03563
X029528Y-035039
X030782Y-038742
X031004Y-008661
X031102Y-009843
X032067Y-032697
X033779Y-043274
X034744Y-010236
X035611Y-016223
X03563Y-015157
X036024Y-007677
X03622Y-014075
X03622Y-014764
X03622Y-01624
X036811Y-01624
X0375Y-013287
T2
X027367Y-026161
X028367Y-026161
X034343Y-044488
X035343Y-044488
X010963Y-026161
X011963Y-026161
X019165Y-026161
X020165Y-026161
X027367Y-020059
X028367Y-020059
X035569Y-026161
X036569Y-026161
X015064Y-026161
X016064Y-026161
X031468Y-026161
X032468Y-026161
X010963Y-020059
X011963Y-020059
X015064Y-020059
X016064Y-020059
X023266Y-020059
X024266Y-020059
X033142Y-038425
X034142Y-038425
X035569Y-020059
X036569Y-020059
X023266Y-026161
X024266Y-026161
X031468Y-020059
X032468Y-020059
X019165Y-020059
X020165Y-020059
X006862Y-020059
X007862Y-020059
X006862Y-026161
X007862Y-026161
T3
X016394Y-018504
X017394Y-018504
X018394Y-018504
X019394Y-018504
X020394Y-018504
X021394Y-018504
X022394Y-018504
X023394Y-018504
X024394Y-018504
X025394Y-018504
X020531Y-006055
X020531Y-012055
X021531Y-006055
X021531Y-012055
X022531Y-006055
X022531Y-012055
X023531Y-006055
X023531Y-012055
X024531Y-006055
X024531Y-012055
X025531Y-006055
X025531Y-012055
X02378Y-040748
X02478Y-040748
X02578Y-040748
X02678Y-040748
X02778Y-040748
X02878Y-040748
X02978Y-040748
X03078Y-040748
X03178Y-040748
X03278Y-040748
X03378Y-040748
X03478Y-040748
X03578Y-040748
X03678Y-040748
X03778Y-040748
X03878Y-040748
X039961Y-047047
X040945Y-047047
X041929Y-047047
X039961Y-022835
X040945Y-022835
X041929Y-022835
X008661Y-010827
X009646Y-010827
X01063Y-010827
X039961Y-010728
X040945Y-010728
X041929Y-010728
X039961Y-034941
X040945Y-034941
X041929Y-034941
T4
X018387Y-022028
X018387Y-023799
X020946Y-022028
X020946Y-023799
X026589Y-02813
X026589Y-029902
X029148Y-02813
X029148Y-029902
X014286Y-022028
X014286Y-023799
X016846Y-022028
X016846Y-023799
X018387Y-02813
X018387Y-029902
X020946Y-02813
X020946Y-029902
X022488Y-022028
X022488Y-023799
X025047Y-022028
X025047Y-023799
X014286Y-02813
X014286Y-029902
X016846Y-02813
X016846Y-029902
X026589Y-022028
X026589Y-023799
X029148Y-022028
X029148Y-023799
X022488Y-02813
X022488Y-029902
X025047Y-02813
X025047Y-029902
X010186Y-022028
X010186Y-023799
X012745Y-022028
X012745Y-023799
X029331Y-037598
X029331Y-03937
X03189Y-037598
X03189Y-03937
X022638Y-014961
X022638Y-016732
X025197Y-014961
X025197Y-016732
X01437Y-014961
X01437Y-016732
X016929Y-014961
X016929Y-016732
X034791Y-02813
X034791Y-029902
X03735Y-02813
X03735Y-029902
X03069Y-022028
X03069Y-023799
X033249Y-022028
X033249Y-023799
X006085Y-02813
X006085Y-029902
X008644Y-02813
X008644Y-029902
X034791Y-022028
X034791Y-023799
X03735Y-022028
X03735Y-023799
X007283Y-037795
X007283Y-039764
X009252Y-037795
X009252Y-039764
X006085Y-022028
X006085Y-023799
X008644Y-022028
X008644Y-023799
X030906Y-014961
X030906Y-016732
X033465Y-014961
X033465Y-016732
X03069Y-02813
X03069Y-029902
X033249Y-02813
X033249Y-029902
X010186Y-02813
X010186Y-029902
X012745Y-02813
X012745Y-029902
X006102Y-014961
X006102Y-016732
X008661Y-014961
X008661Y-016732
X019882Y-037795
X019882Y-039764
X02185Y-037795
X02185Y-039764
T5
X030906Y-042551
X030906Y-045819
X030906Y-047039
X007283Y-042551
X007283Y-045819
X007283Y-047039
X016732Y-042551
X016732Y-045819
X016732Y-047039
X026181Y-042551
X026181Y-045819
X026181Y-047039
X021457Y-042551
X021457Y-045819
X021457Y-047039
X012008Y-042551
X012008Y-045819
X012008Y-047039
T6
X007441Y-007874
X01185Y-007874
T7
X006161Y-012378
X025422Y-037795
T0
M30
