M48
; DRILL file {KiCad (5.1.2)-1} date 12/13/2019 10:04:49 PM
; FORMAT={-:-/ absolute / inch / decimal}
; #@! TF.CreationDate,2019-12-13T22:04:49-08:00
; #@! TF.GenerationSoftware,Kicad,Pcbnew,(5.1.2)-1
; #@! TF.FileFunction,Plated,1,2,PTH
FMAT,2
INCH
T1C0.0157
T2C0.0354
T3C0.0394
T4C0.0433
T5C0.0630
T6C0.0787
T7C0.1260
%
G90
G05
T1
X0.8268Y-3.2185
X1.2008Y-3.9173
X1.4961Y-3.937
X1.5354Y-3.7205
X1.5945Y-3.6614
X1.5945Y-3.937
X1.7323Y-3.2756
X1.7913Y-0.7874
X1.7913Y-1.1614
X1.8898Y-1.6535
X2.0079Y-1.6535
X2.0079Y-3.2126
X2.126Y-1.6535
X2.1654Y-3.2126
X2.3031Y-3.6614
X2.3819Y-3.5433
X2.5787Y-3.5039
X2.6063Y-3.1969
X2.6424Y-3.9193
X2.8543Y-3.563
X2.9528Y-3.5039
X3.0782Y-3.8742
X3.1004Y-0.8661
X3.1102Y-0.9843
X3.2067Y-3.2697
X3.3779Y-4.3274
X3.4744Y-1.0236
X3.563Y-1.5157
X3.563Y-1.624
X3.6024Y-0.7677
X3.622Y-1.4075
X3.622Y-1.4764
X3.622Y-1.624
X3.6811Y-1.624
X3.75Y-1.3287
X4.0354Y-4.7047
T2
X3.5719Y-2.0472
X3.6719Y-2.0472
X3.1557Y-2.0472
X3.2557Y-2.0472
X3.5719Y-2.6378
X3.6719Y-2.6378
X2.3233Y-2.0472
X2.4233Y-2.0472
X1.0747Y-2.0472
X1.1747Y-2.0472
X2.7395Y-2.0472
X2.8395Y-2.0472
X2.3233Y-2.6378
X2.4233Y-2.6378
X1.0747Y-2.6378
X1.1747Y-2.6378
X1.4909Y-2.6378
X1.5909Y-2.6378
X3.1557Y-2.6378
X3.2557Y-2.6378
X3.4252Y-4.4488
X3.5252Y-4.4488
X3.4242Y-3.8459
X3.5242Y-3.8459
X1.9071Y-2.0472
X2.0071Y-2.0472
X0.6585Y-2.6378
X0.7585Y-2.6378
X2.7395Y-2.6378
X2.8395Y-2.6378
X1.4909Y-2.0472
X1.5909Y-2.0472
X1.9071Y-2.6378
X2.0071Y-2.6378
X0.6585Y-2.0472
X0.7585Y-2.0472
T3
X4.0354Y-3.4941
X4.1339Y-3.4941
X4.2323Y-3.4941
X4.0354Y-4.7047
X4.1339Y-4.7047
X4.2323Y-4.7047
X2.0531Y-0.6055
X2.0531Y-1.2055
X2.1531Y-0.6055
X2.1531Y-1.2055
X2.2531Y-0.6055
X2.2531Y-1.2055
X2.3531Y-0.6055
X2.3531Y-1.2055
X2.4531Y-0.6055
X2.4531Y-1.2055
X2.5531Y-0.6055
X2.5531Y-1.2055
X1.6394Y-1.8504
X1.7394Y-1.8504
X1.8394Y-1.8504
X1.9394Y-1.8504
X2.0394Y-1.8504
X2.1394Y-1.8504
X2.2394Y-1.8504
X2.3394Y-1.8504
X2.4394Y-1.8504
X2.5394Y-1.8504
X2.378Y-4.0748
X2.478Y-4.0748
X2.578Y-4.0748
X2.678Y-4.0748
X2.778Y-4.0748
X2.878Y-4.0748
X2.978Y-4.0748
X3.078Y-4.0748
X3.178Y-4.0748
X3.278Y-4.0748
X3.378Y-4.0748
X3.478Y-4.0748
X3.578Y-4.0748
X3.678Y-4.0748
X3.778Y-4.0748
X3.878Y-4.0748
X4.0354Y-2.2835
X4.1339Y-2.2835
X4.2323Y-2.2835
X0.8071Y-1.0827
X0.9055Y-1.0827
X1.0039Y-1.0827
X4.0354Y-1.0728
X4.1339Y-1.0728
X4.2323Y-1.0728
T4
X0.7283Y-3.7795
X0.7283Y-3.9764
X0.9252Y-3.7795
X0.9252Y-3.9764
X2.2455Y-1.4437
X2.2455Y-1.6209
X2.5014Y-1.4437
X2.5014Y-1.6209
X1.8293Y-2.8248
X1.8293Y-3.002
X2.0852Y-2.8248
X2.0852Y-3.002
X2.6617Y-2.8248
X2.6617Y-3.002
X2.9176Y-2.8248
X2.9176Y-3.002
X1.4131Y-1.4437
X1.4131Y-1.6209
X1.669Y-1.4437
X1.669Y-1.6209
X3.4941Y-2.2343
X3.4941Y-2.4114
X3.75Y-2.2343
X3.75Y-2.4114
X1.4131Y-2.8248
X1.4131Y-3.002
X1.669Y-2.8248
X1.669Y-3.002
X3.0779Y-1.4437
X3.0779Y-1.6209
X3.3338Y-1.4437
X3.3338Y-1.6209
X0.9969Y-2.2343
X0.9969Y-2.4114
X1.2528Y-2.2343
X1.2528Y-2.4114
X0.9969Y-2.8248
X0.9969Y-3.002
X1.2528Y-2.8248
X1.2528Y-3.002
X2.6617Y-2.2343
X2.6617Y-2.4114
X2.9176Y-2.2343
X2.9176Y-2.4114
X0.5807Y-1.4437
X0.5807Y-1.6209
X0.8366Y-1.4437
X0.8366Y-1.6209
X1.8293Y-2.2343
X1.8293Y-2.4114
X2.0852Y-2.2343
X2.0852Y-2.4114
X1.9882Y-3.7795
X1.9882Y-3.9764
X2.185Y-3.7795
X2.185Y-3.9764
X2.2455Y-2.2343
X2.2455Y-2.4114
X2.5014Y-2.2343
X2.5014Y-2.4114
X3.0779Y-2.8248
X3.0779Y-3.002
X3.3338Y-2.8248
X3.3338Y-3.002
X2.2455Y-2.8248
X2.2455Y-3.002
X2.5014Y-2.8248
X2.5014Y-3.002
X0.5807Y-2.2343
X0.5807Y-2.4114
X0.8366Y-2.2343
X0.8366Y-2.4114
X0.5807Y-2.8248
X0.5807Y-3.002
X0.8366Y-2.8248
X0.8366Y-3.002
X3.0779Y-2.2343
X3.0779Y-2.4114
X3.3338Y-2.2343
X3.3338Y-2.4114
X1.4131Y-2.2343
X1.4131Y-2.4114
X1.669Y-2.2343
X1.669Y-2.4114
X3.4941Y-2.8248
X3.4941Y-3.002
X3.75Y-2.8248
X3.75Y-3.002
X2.8621Y-3.7573
X2.8621Y-3.9344
X3.118Y-3.7573
X3.118Y-3.9344
T5
X3.0906Y-4.2551
X3.0906Y-4.5819
X3.0906Y-4.7039
X2.1409Y-4.2551
X2.1409Y-4.5819
X2.1409Y-4.7039
X1.6661Y-4.2551
X1.6661Y-4.5819
X1.6661Y-4.7039
X1.1913Y-4.2551
X1.1913Y-4.5819
X1.1913Y-4.7039
X2.6157Y-4.2551
X2.6157Y-4.5819
X2.6157Y-4.7039
X0.7165Y-4.2551
X0.7165Y-4.5819
X0.7165Y-4.7039
T7
X2.5422Y-3.7795
T6
G00X0.685Y-0.7972
M15
G01X0.685Y-0.7776
M16
G05
G00X1.126Y-0.7972
M15
G01X1.126Y-0.7776
M16
G05
T0
M30
