G04 #@! TF.GenerationSoftware,KiCad,Pcbnew,(5.1.2)-1*
G04 #@! TF.CreationDate,2020-08-21T15:06:39-07:00*
G04 #@! TF.ProjectId,kicad-control-board-smt,6b696361-642d-4636-9f6e-74726f6c2d62,rev?*
G04 #@! TF.SameCoordinates,Original*
G04 #@! TF.FileFunction,Legend,Bot*
G04 #@! TF.FilePolarity,Positive*
%FSLAX46Y46*%
G04 Gerber Fmt 4.6, Leading zero omitted, Abs format (unit mm)*
G04 Created by KiCad (PCBNEW (5.1.2)-1) date 2020-08-21 15:06:39*
%MOMM*%
%LPD*%
G04 APERTURE LIST*
%ADD10C,0.150000*%
%ADD11C,0.010000*%
%ADD12C,0.120000*%
G04 APERTURE END LIST*
D10*
X57890666Y-105214666D02*
X57690666Y-105281333D01*
X57357333Y-105281333D01*
X57224000Y-105214666D01*
X57157333Y-105148000D01*
X57090666Y-105014666D01*
X57090666Y-104881333D01*
X57157333Y-104748000D01*
X57224000Y-104681333D01*
X57357333Y-104614666D01*
X57624000Y-104548000D01*
X57757333Y-104481333D01*
X57824000Y-104414666D01*
X57890666Y-104281333D01*
X57890666Y-104148000D01*
X57824000Y-104014666D01*
X57757333Y-103948000D01*
X57624000Y-103881333D01*
X57290666Y-103881333D01*
X57090666Y-103948000D01*
X56490666Y-103881333D02*
X56490666Y-105014666D01*
X56424000Y-105148000D01*
X56357333Y-105214666D01*
X56224000Y-105281333D01*
X55957333Y-105281333D01*
X55824000Y-105214666D01*
X55757333Y-105148000D01*
X55690666Y-105014666D01*
X55690666Y-103881333D01*
X55024000Y-105281333D02*
X55024000Y-103881333D01*
X54490666Y-103881333D01*
X54357333Y-103948000D01*
X54290666Y-104014666D01*
X54224000Y-104148000D01*
X54224000Y-104348000D01*
X54290666Y-104481333D01*
X54357333Y-104548000D01*
X54490666Y-104614666D01*
X55024000Y-104614666D01*
X53624000Y-104548000D02*
X53157333Y-104548000D01*
X52957333Y-105281333D02*
X53624000Y-105281333D01*
X53624000Y-103881333D01*
X52957333Y-103881333D01*
X51557333Y-105281333D02*
X52024000Y-104614666D01*
X52357333Y-105281333D02*
X52357333Y-103881333D01*
X51824000Y-103881333D01*
X51690666Y-103948000D01*
X51624000Y-104014666D01*
X51557333Y-104148000D01*
X51557333Y-104348000D01*
X51624000Y-104481333D01*
X51690666Y-104548000D01*
X51824000Y-104614666D01*
X52357333Y-104614666D01*
X49957333Y-105214666D02*
X49757333Y-105281333D01*
X49424000Y-105281333D01*
X49290666Y-105214666D01*
X49224000Y-105148000D01*
X49157333Y-105014666D01*
X49157333Y-104881333D01*
X49224000Y-104748000D01*
X49290666Y-104681333D01*
X49424000Y-104614666D01*
X49690666Y-104548000D01*
X49824000Y-104481333D01*
X49890666Y-104414666D01*
X49957333Y-104281333D01*
X49957333Y-104148000D01*
X49890666Y-104014666D01*
X49824000Y-103948000D01*
X49690666Y-103881333D01*
X49357333Y-103881333D01*
X49157333Y-103948000D01*
X48557333Y-105281333D02*
X48557333Y-103881333D01*
X48024000Y-103881333D02*
X47090666Y-105281333D01*
X47090666Y-103881333D02*
X48024000Y-105281333D01*
X46757333Y-103881333D02*
X45957333Y-103881333D01*
X46357333Y-105281333D02*
X46357333Y-103881333D01*
X45490666Y-104548000D02*
X45024000Y-104548000D01*
X44824000Y-105281333D02*
X45490666Y-105281333D01*
X45490666Y-103881333D01*
X44824000Y-103881333D01*
X44224000Y-104548000D02*
X43757333Y-104548000D01*
X43557333Y-105281333D02*
X44224000Y-105281333D01*
X44224000Y-103881333D01*
X43557333Y-103881333D01*
X42957333Y-105281333D02*
X42957333Y-103881333D01*
X42157333Y-105281333D01*
X42157333Y-103881333D01*
X40490666Y-105214666D02*
X40290666Y-105281333D01*
X39957333Y-105281333D01*
X39824000Y-105214666D01*
X39757333Y-105148000D01*
X39690666Y-105014666D01*
X39690666Y-104881333D01*
X39757333Y-104748000D01*
X39824000Y-104681333D01*
X39957333Y-104614666D01*
X40224000Y-104548000D01*
X40357333Y-104481333D01*
X40424000Y-104414666D01*
X40490666Y-104281333D01*
X40490666Y-104148000D01*
X40424000Y-104014666D01*
X40357333Y-103948000D01*
X40224000Y-103881333D01*
X39890666Y-103881333D01*
X39690666Y-103948000D01*
X39090666Y-105281333D02*
X39090666Y-103881333D01*
X38624000Y-104881333D01*
X38157333Y-103881333D01*
X38157333Y-105281333D01*
X37490666Y-105281333D02*
X37490666Y-103881333D01*
X37157333Y-103881333D01*
X36957333Y-103948000D01*
X36824000Y-104081333D01*
X36757333Y-104214666D01*
X36690666Y-104481333D01*
X36690666Y-104681333D01*
X36757333Y-104948000D01*
X36824000Y-105081333D01*
X36957333Y-105214666D01*
X37157333Y-105281333D01*
X37490666Y-105281333D01*
X35157333Y-104348000D02*
X34824000Y-105281333D01*
X34490666Y-104348000D01*
X33224000Y-105281333D02*
X34024000Y-105281333D01*
X33624000Y-105281333D02*
X33624000Y-103881333D01*
X33757333Y-104081333D01*
X33890666Y-104214666D01*
X34024000Y-104281333D01*
X32623999Y-105148000D02*
X32557333Y-105214666D01*
X32623999Y-105281333D01*
X32690666Y-105214666D01*
X32623999Y-105148000D01*
X32623999Y-105281333D01*
X31357333Y-104348000D02*
X31357333Y-105281333D01*
X31690666Y-103814666D02*
X32024000Y-104814666D01*
X31157333Y-104814666D01*
X28424000Y-104214666D02*
X28557333Y-104148000D01*
X28824000Y-104148000D01*
X28957333Y-104214666D01*
X29090666Y-104348000D01*
X29157333Y-104481333D01*
X29157333Y-104748000D01*
X29090666Y-104881333D01*
X28957333Y-105014666D01*
X28824000Y-105081333D01*
X28557333Y-105081333D01*
X28424000Y-105014666D01*
X28690666Y-103681333D02*
X29023999Y-103748000D01*
X29357333Y-103948000D01*
X29557333Y-104281333D01*
X29624000Y-104614666D01*
X29557333Y-104948000D01*
X29357333Y-105281333D01*
X29023999Y-105481333D01*
X28690666Y-105548000D01*
X28357333Y-105481333D01*
X28024000Y-105281333D01*
X27823999Y-104948000D01*
X27757333Y-104614666D01*
X27823999Y-104281333D01*
X28024000Y-103948000D01*
X28357333Y-103748000D01*
X28690666Y-103681333D01*
X26157333Y-104014666D02*
X26090666Y-103948000D01*
X25957333Y-103881333D01*
X25624000Y-103881333D01*
X25490666Y-103948000D01*
X25424000Y-104014666D01*
X25357333Y-104148000D01*
X25357333Y-104281333D01*
X25424000Y-104481333D01*
X26224000Y-105281333D01*
X25357333Y-105281333D01*
X24490666Y-103881333D02*
X24357333Y-103881333D01*
X24224000Y-103948000D01*
X24157333Y-104014666D01*
X24090666Y-104148000D01*
X24024000Y-104414666D01*
X24024000Y-104748000D01*
X24090666Y-105014666D01*
X24157333Y-105148000D01*
X24224000Y-105214666D01*
X24357333Y-105281333D01*
X24490666Y-105281333D01*
X24624000Y-105214666D01*
X24690666Y-105148000D01*
X24757333Y-105014666D01*
X24824000Y-104748000D01*
X24824000Y-104414666D01*
X24757333Y-104148000D01*
X24690666Y-104014666D01*
X24624000Y-103948000D01*
X24490666Y-103881333D01*
X23490666Y-104014666D02*
X23424000Y-103948000D01*
X23290666Y-103881333D01*
X22957333Y-103881333D01*
X22824000Y-103948000D01*
X22757333Y-104014666D01*
X22690666Y-104148000D01*
X22690666Y-104281333D01*
X22757333Y-104481333D01*
X23557333Y-105281333D01*
X22690666Y-105281333D01*
X21824000Y-103881333D02*
X21690666Y-103881333D01*
X21557333Y-103948000D01*
X21490666Y-104014666D01*
X21424000Y-104148000D01*
X21357333Y-104414666D01*
X21357333Y-104748000D01*
X21424000Y-105014666D01*
X21490666Y-105148000D01*
X21557333Y-105214666D01*
X21690666Y-105281333D01*
X21824000Y-105281333D01*
X21957333Y-105214666D01*
X22024000Y-105148000D01*
X22090666Y-105014666D01*
X22157333Y-104748000D01*
X22157333Y-104414666D01*
X22090666Y-104148000D01*
X22024000Y-104014666D01*
X21957333Y-103948000D01*
X21824000Y-103881333D01*
D11*
G36*
X40349237Y-24965526D02*
G01*
X45028184Y-24965526D01*
X45028184Y-23812500D01*
X40349237Y-23812500D01*
X40349237Y-24965526D01*
X40349237Y-24965526D01*
G37*
X40349237Y-24965526D02*
X45028184Y-24965526D01*
X45028184Y-23812500D01*
X40349237Y-23812500D01*
X40349237Y-24965526D01*
G36*
X39848744Y-17054337D02*
G01*
X39849567Y-17170066D01*
X40449885Y-17780000D01*
X41050204Y-18389934D01*
X41050641Y-18669835D01*
X41051079Y-18949737D01*
X41416663Y-18949737D01*
X41426083Y-19020756D01*
X41429650Y-19053127D01*
X41435662Y-19114087D01*
X41443799Y-19199998D01*
X41453738Y-19307226D01*
X41465157Y-19432133D01*
X41477736Y-19571083D01*
X41491153Y-19720441D01*
X41505085Y-19876568D01*
X41519212Y-20035830D01*
X41533212Y-20194590D01*
X41546763Y-20349211D01*
X41559544Y-20496057D01*
X41571233Y-20631493D01*
X41581508Y-20751880D01*
X41590048Y-20853584D01*
X41596531Y-20932967D01*
X41600636Y-20986394D01*
X41602041Y-21010229D01*
X41602040Y-21010342D01*
X41591796Y-21029466D01*
X41561026Y-21068955D01*
X41509311Y-21129266D01*
X41436233Y-21210861D01*
X41341373Y-21314198D01*
X41224313Y-21439738D01*
X41084633Y-21587940D01*
X40921916Y-21759263D01*
X40876179Y-21807237D01*
X40150805Y-22567566D01*
X40209449Y-22626052D01*
X40268092Y-22684539D01*
X40362974Y-22581310D01*
X40397685Y-22544003D01*
X40451906Y-22486311D01*
X40522059Y-22412013D01*
X40604568Y-22324889D01*
X40695855Y-22228718D01*
X40792342Y-22127280D01*
X40850065Y-22066695D01*
X40958434Y-21953197D01*
X41046028Y-21862285D01*
X41115080Y-21792307D01*
X41167824Y-21741610D01*
X41206494Y-21708540D01*
X41233323Y-21691444D01*
X41250544Y-21688669D01*
X41260392Y-21698563D01*
X41265099Y-21719471D01*
X41266899Y-21749741D01*
X41267141Y-21758002D01*
X41279658Y-21814909D01*
X41310497Y-21883693D01*
X41353503Y-21953475D01*
X41402520Y-22013378D01*
X41422134Y-22031882D01*
X41522770Y-22096628D01*
X41640327Y-22132854D01*
X41744262Y-22141447D01*
X41862049Y-22125239D01*
X41970831Y-22077712D01*
X42067110Y-22000511D01*
X42084875Y-21981295D01*
X42149832Y-21907500D01*
X43273579Y-21907500D01*
X43273579Y-22141447D01*
X43574368Y-22141447D01*
X43574368Y-22032152D01*
X43578143Y-21957539D01*
X43590825Y-21905750D01*
X43606237Y-21877580D01*
X43617250Y-21857424D01*
X43626679Y-21828200D01*
X43635151Y-21785575D01*
X43643290Y-21725217D01*
X43651721Y-21642793D01*
X43661068Y-21533972D01*
X43667469Y-21453017D01*
X43696831Y-21073732D01*
X44417659Y-21803938D01*
X44547992Y-21936066D01*
X44673108Y-22063096D01*
X44790721Y-22182695D01*
X44898545Y-22292528D01*
X44994295Y-22390263D01*
X45075683Y-22473566D01*
X45140423Y-22540104D01*
X45186230Y-22587542D01*
X45210792Y-22613520D01*
X45251145Y-22654649D01*
X45284805Y-22683335D01*
X45302910Y-22692895D01*
X45326035Y-22681697D01*
X45359743Y-22653719D01*
X45371169Y-22642326D01*
X45419617Y-22591757D01*
X45152881Y-22320702D01*
X45084831Y-22251652D01*
X44997085Y-22162774D01*
X44893492Y-22057959D01*
X44777900Y-21941097D01*
X44654159Y-21816079D01*
X44526119Y-21686795D01*
X44397628Y-21557136D01*
X44305454Y-21464179D01*
X44165342Y-21322520D01*
X44047632Y-21202591D01*
X43950820Y-21102768D01*
X43873399Y-21021428D01*
X43813864Y-20956948D01*
X43784358Y-20923277D01*
X43547409Y-20923277D01*
X43517743Y-21302592D01*
X43508797Y-21413777D01*
X43500142Y-21515453D01*
X43492271Y-21602304D01*
X43485672Y-21669018D01*
X43480836Y-21710279D01*
X43479280Y-21719506D01*
X43470482Y-21757105D01*
X42208681Y-21757105D01*
X42200258Y-21652173D01*
X42174828Y-21528195D01*
X42121611Y-21418524D01*
X42043963Y-21327156D01*
X41945237Y-21258083D01*
X41834428Y-21216620D01*
X41798480Y-21197171D01*
X41780483Y-21155430D01*
X41780106Y-21153589D01*
X41777947Y-21135967D01*
X41780616Y-21117922D01*
X41790720Y-21096108D01*
X41810863Y-21067177D01*
X41843651Y-21027783D01*
X41891690Y-20974577D01*
X41957584Y-20904214D01*
X42043940Y-20813346D01*
X42049520Y-20807493D01*
X42142405Y-20709956D01*
X42241155Y-20606067D01*
X42338984Y-20502977D01*
X42429107Y-20407839D01*
X42504738Y-20327804D01*
X42521605Y-20309911D01*
X42586265Y-20242444D01*
X42643705Y-20184709D01*
X42689801Y-20140675D01*
X42720431Y-20114314D01*
X42730715Y-20108521D01*
X42746052Y-20120646D01*
X42781917Y-20153910D01*
X42835488Y-20205542D01*
X42903940Y-20272775D01*
X42984447Y-20352837D01*
X43074187Y-20442961D01*
X43147532Y-20517198D01*
X43547409Y-20923277D01*
X43784358Y-20923277D01*
X43770709Y-20907703D01*
X43742429Y-20872071D01*
X43727517Y-20848429D01*
X43724199Y-20837480D01*
X43725456Y-20813586D01*
X43729274Y-20759501D01*
X43735407Y-20678338D01*
X43743607Y-20573210D01*
X43753627Y-20447228D01*
X43765220Y-20303505D01*
X43778140Y-20145154D01*
X43792138Y-19975287D01*
X43803419Y-19839528D01*
X43867250Y-19074106D01*
X43703004Y-19074106D01*
X43702297Y-19090624D01*
X43698969Y-19137145D01*
X43693290Y-19210378D01*
X43685526Y-19307028D01*
X43675943Y-19423805D01*
X43664811Y-19557414D01*
X43652395Y-19704563D01*
X43640480Y-19844271D01*
X43626984Y-20002787D01*
X43614413Y-20152421D01*
X43603055Y-20289602D01*
X43593198Y-20410759D01*
X43585130Y-20512320D01*
X43579140Y-20590712D01*
X43575515Y-20642363D01*
X43574509Y-20662423D01*
X43572940Y-20674908D01*
X43566722Y-20679862D01*
X43553459Y-20675218D01*
X43530753Y-20658909D01*
X43496208Y-20628868D01*
X43447427Y-20583027D01*
X43382013Y-20519320D01*
X43297569Y-20435679D01*
X43207971Y-20346299D01*
X42841574Y-19980186D01*
X42844141Y-19977434D01*
X42601951Y-19977434D01*
X42590913Y-19992550D01*
X42560013Y-20028142D01*
X42512347Y-20080941D01*
X42451013Y-20147673D01*
X42379107Y-20225070D01*
X42299727Y-20309858D01*
X42215969Y-20398767D01*
X42130930Y-20488526D01*
X42047708Y-20575864D01*
X41969399Y-20657509D01*
X41899100Y-20730191D01*
X41839909Y-20790637D01*
X41794922Y-20835578D01*
X41767236Y-20861742D01*
X41759686Y-20867072D01*
X41757197Y-20849867D01*
X41752030Y-20802348D01*
X41744470Y-20727489D01*
X41734800Y-20628264D01*
X41723305Y-20507649D01*
X41710269Y-20368618D01*
X41695976Y-20214145D01*
X41680710Y-20047206D01*
X41668521Y-19912597D01*
X41652929Y-19738054D01*
X41638523Y-19573627D01*
X41625547Y-19422299D01*
X41614241Y-19287053D01*
X41604848Y-19170870D01*
X41597611Y-19076735D01*
X41592772Y-19007630D01*
X41590573Y-18966538D01*
X41590824Y-18955868D01*
X41603970Y-18965372D01*
X41637446Y-18995920D01*
X41688326Y-19044556D01*
X41753683Y-19108323D01*
X41830591Y-19184265D01*
X41916124Y-19269424D01*
X42007354Y-19360845D01*
X42101356Y-19455569D01*
X42195202Y-19550641D01*
X42285967Y-19643103D01*
X42370723Y-19729999D01*
X42446544Y-19808372D01*
X42510503Y-19875265D01*
X42559674Y-19927722D01*
X42591131Y-19962785D01*
X42601951Y-19977434D01*
X42844141Y-19977434D01*
X42978202Y-19833760D01*
X43047784Y-19759448D01*
X43125881Y-19676483D01*
X43209406Y-19588102D01*
X43295270Y-19497541D01*
X43380385Y-19408036D01*
X43461664Y-19322823D01*
X43536019Y-19245139D01*
X43600363Y-19178220D01*
X43651606Y-19125303D01*
X43686663Y-19089623D01*
X43702444Y-19074416D01*
X43703004Y-19074106D01*
X43867250Y-19074106D01*
X43883204Y-18882807D01*
X44681286Y-18043485D01*
X45479368Y-17204164D01*
X45478781Y-17086852D01*
X45478194Y-16969539D01*
X45349275Y-17107253D01*
X45277124Y-17184063D01*
X45191940Y-17274304D01*
X45096021Y-17375575D01*
X44991666Y-17485476D01*
X44881174Y-17601604D01*
X44766844Y-17721558D01*
X44650975Y-17842936D01*
X44535865Y-17963338D01*
X44423814Y-18080362D01*
X44317119Y-18191606D01*
X44218080Y-18294669D01*
X44128997Y-18387150D01*
X44052166Y-18466647D01*
X43989888Y-18530758D01*
X43944462Y-18577083D01*
X43918185Y-18603219D01*
X43912426Y-18608233D01*
X43912030Y-18590791D01*
X43914208Y-18546135D01*
X43918583Y-18480340D01*
X43924775Y-18399483D01*
X43927433Y-18367183D01*
X43947228Y-18130921D01*
X43792242Y-18130921D01*
X43784240Y-18168520D01*
X43780160Y-18198255D01*
X43774425Y-18254203D01*
X43767701Y-18329236D01*
X43760648Y-18416225D01*
X43758207Y-18448421D01*
X43751008Y-18540861D01*
X43743742Y-18626707D01*
X43737136Y-18697847D01*
X43731916Y-18746169D01*
X43730739Y-18754939D01*
X43726298Y-18772942D01*
X43716687Y-18794017D01*
X43699860Y-18820525D01*
X43673775Y-18854828D01*
X43636387Y-18899289D01*
X43585654Y-18956271D01*
X43519530Y-19028136D01*
X43435974Y-19117246D01*
X43332940Y-19225964D01*
X43227833Y-19336275D01*
X43123262Y-19445441D01*
X43025649Y-19546540D01*
X42937422Y-19637115D01*
X42861012Y-19714708D01*
X42798849Y-19776862D01*
X42753363Y-19821118D01*
X42726983Y-19845018D01*
X42721357Y-19848574D01*
X42706557Y-19835681D01*
X42671961Y-19802060D01*
X42620929Y-19751082D01*
X42556817Y-19686120D01*
X42482984Y-19610548D01*
X42429589Y-19555493D01*
X42150827Y-19267237D01*
X42972790Y-19267237D01*
X42972790Y-18949737D01*
X41970158Y-18949737D01*
X41970158Y-19091206D01*
X41786342Y-18907960D01*
X41655948Y-18777971D01*
X41402000Y-18777971D01*
X41399571Y-18798477D01*
X41387276Y-18809902D01*
X41357604Y-18814880D01*
X41303045Y-18816044D01*
X41293382Y-18816052D01*
X41184763Y-18816052D01*
X41184763Y-18524584D01*
X41293382Y-18632237D01*
X41354654Y-18697687D01*
X41391301Y-18747829D01*
X41402000Y-18777971D01*
X41655948Y-18777971D01*
X41602526Y-18724715D01*
X41602526Y-18561502D01*
X41602015Y-18486414D01*
X41599672Y-18438645D01*
X41594289Y-18412098D01*
X41584656Y-18400679D01*
X41570129Y-18398289D01*
X41553973Y-18394780D01*
X41542031Y-18380711D01*
X41532861Y-18350769D01*
X41525018Y-18299642D01*
X41517058Y-18222017D01*
X41514504Y-18193585D01*
X41508974Y-18130921D01*
X43792242Y-18130921D01*
X43947228Y-18130921D01*
X44159237Y-18130921D01*
X44159237Y-17980526D01*
X44069141Y-17980526D01*
X44016445Y-17979083D01*
X43987812Y-17972116D01*
X43984309Y-17967970D01*
X43799766Y-17967970D01*
X43790054Y-17977442D01*
X43756412Y-17980366D01*
X43733706Y-17980526D01*
X43657921Y-17980526D01*
X43375306Y-17980526D01*
X41495481Y-17980526D01*
X41559062Y-17915413D01*
X41657814Y-17835062D01*
X41780032Y-17773089D01*
X41927787Y-17728646D01*
X42074599Y-17704065D01*
X42170684Y-17692596D01*
X42170684Y-17813421D01*
X42939368Y-17813421D01*
X42939368Y-17676345D01*
X43052165Y-17687776D01*
X43130975Y-17697425D01*
X43214943Y-17710214D01*
X43265224Y-17719348D01*
X43365487Y-17739488D01*
X43370397Y-17860007D01*
X43375306Y-17980526D01*
X43657921Y-17980526D01*
X43657921Y-17913684D01*
X43660131Y-17871810D01*
X43665650Y-17848536D01*
X43667874Y-17846842D01*
X43692613Y-17857560D01*
X43728757Y-17883563D01*
X43764990Y-17915623D01*
X43789999Y-17944511D01*
X43792227Y-17948267D01*
X43799766Y-17967970D01*
X43984309Y-17967970D01*
X43973919Y-17955674D01*
X43968311Y-17937762D01*
X43945422Y-17891279D01*
X43901460Y-17835400D01*
X43843989Y-17777960D01*
X43780573Y-17726793D01*
X43738918Y-17700143D01*
X43691466Y-17670972D01*
X43667141Y-17646467D01*
X43658595Y-17617572D01*
X43657938Y-17600362D01*
X43657937Y-17596184D01*
X42805684Y-17596184D01*
X42805684Y-17679737D01*
X42304368Y-17679737D01*
X42304368Y-17596184D01*
X42805684Y-17596184D01*
X43657937Y-17596184D01*
X43657921Y-17546052D01*
X43517274Y-17546052D01*
X43452564Y-17547617D01*
X43402130Y-17551785D01*
X43374094Y-17557773D01*
X43371057Y-17560197D01*
X43353273Y-17563918D01*
X43309992Y-17562394D01*
X43248651Y-17556075D01*
X43206737Y-17550240D01*
X43130737Y-17538778D01*
X43061230Y-17528430D01*
X43008997Y-17520796D01*
X42993678Y-17518627D01*
X42953653Y-17506232D01*
X42939368Y-17486808D01*
X42935025Y-17478898D01*
X42919490Y-17472863D01*
X42889001Y-17468466D01*
X42839800Y-17465469D01*
X42768126Y-17463635D01*
X42670219Y-17462725D01*
X42555026Y-17462500D01*
X42432086Y-17462628D01*
X42338559Y-17463230D01*
X42270440Y-17464639D01*
X42223719Y-17467181D01*
X42194391Y-17471189D01*
X42178449Y-17476991D01*
X42171885Y-17484917D01*
X42170684Y-17494133D01*
X42160460Y-17523385D01*
X42126970Y-17540031D01*
X42065988Y-17545968D01*
X42055017Y-17546052D01*
X41951746Y-17556706D01*
X41834453Y-17586033D01*
X41713715Y-17630084D01*
X41600111Y-17684911D01*
X41504219Y-17746564D01*
X41491799Y-17756332D01*
X41451318Y-17788115D01*
X41427345Y-17800844D01*
X41410604Y-17796729D01*
X41393419Y-17779750D01*
X41342664Y-17746492D01*
X41276607Y-17733725D01*
X41205474Y-17740365D01*
X41139486Y-17765327D01*
X41088868Y-17807529D01*
X41085203Y-17812434D01*
X41047328Y-17891211D01*
X41040281Y-17972754D01*
X41063285Y-18050487D01*
X41115563Y-18117835D01*
X41121956Y-18123396D01*
X41159073Y-18149813D01*
X41196733Y-18161447D01*
X41249676Y-18162287D01*
X41262902Y-18161542D01*
X41314703Y-18159641D01*
X41341386Y-18163996D01*
X41351045Y-18177138D01*
X41352037Y-18189408D01*
X41354061Y-18225002D01*
X41359086Y-18278533D01*
X41362697Y-18310559D01*
X41367934Y-18361427D01*
X41365756Y-18387468D01*
X41353125Y-18396986D01*
X41330625Y-18398289D01*
X41317282Y-18393986D01*
X41295756Y-18380057D01*
X41264452Y-18354977D01*
X41221776Y-18317219D01*
X41166132Y-18265256D01*
X41095925Y-18197562D01*
X41009560Y-18112611D01*
X40905442Y-18008875D01*
X40781975Y-17884828D01*
X40637564Y-17738944D01*
X40567969Y-17668449D01*
X39847921Y-16938610D01*
X39848744Y-17054337D01*
X39848744Y-17054337D01*
G37*
X39848744Y-17054337D02*
X39849567Y-17170066D01*
X40449885Y-17780000D01*
X41050204Y-18389934D01*
X41050641Y-18669835D01*
X41051079Y-18949737D01*
X41416663Y-18949737D01*
X41426083Y-19020756D01*
X41429650Y-19053127D01*
X41435662Y-19114087D01*
X41443799Y-19199998D01*
X41453738Y-19307226D01*
X41465157Y-19432133D01*
X41477736Y-19571083D01*
X41491153Y-19720441D01*
X41505085Y-19876568D01*
X41519212Y-20035830D01*
X41533212Y-20194590D01*
X41546763Y-20349211D01*
X41559544Y-20496057D01*
X41571233Y-20631493D01*
X41581508Y-20751880D01*
X41590048Y-20853584D01*
X41596531Y-20932967D01*
X41600636Y-20986394D01*
X41602041Y-21010229D01*
X41602040Y-21010342D01*
X41591796Y-21029466D01*
X41561026Y-21068955D01*
X41509311Y-21129266D01*
X41436233Y-21210861D01*
X41341373Y-21314198D01*
X41224313Y-21439738D01*
X41084633Y-21587940D01*
X40921916Y-21759263D01*
X40876179Y-21807237D01*
X40150805Y-22567566D01*
X40209449Y-22626052D01*
X40268092Y-22684539D01*
X40362974Y-22581310D01*
X40397685Y-22544003D01*
X40451906Y-22486311D01*
X40522059Y-22412013D01*
X40604568Y-22324889D01*
X40695855Y-22228718D01*
X40792342Y-22127280D01*
X40850065Y-22066695D01*
X40958434Y-21953197D01*
X41046028Y-21862285D01*
X41115080Y-21792307D01*
X41167824Y-21741610D01*
X41206494Y-21708540D01*
X41233323Y-21691444D01*
X41250544Y-21688669D01*
X41260392Y-21698563D01*
X41265099Y-21719471D01*
X41266899Y-21749741D01*
X41267141Y-21758002D01*
X41279658Y-21814909D01*
X41310497Y-21883693D01*
X41353503Y-21953475D01*
X41402520Y-22013378D01*
X41422134Y-22031882D01*
X41522770Y-22096628D01*
X41640327Y-22132854D01*
X41744262Y-22141447D01*
X41862049Y-22125239D01*
X41970831Y-22077712D01*
X42067110Y-22000511D01*
X42084875Y-21981295D01*
X42149832Y-21907500D01*
X43273579Y-21907500D01*
X43273579Y-22141447D01*
X43574368Y-22141447D01*
X43574368Y-22032152D01*
X43578143Y-21957539D01*
X43590825Y-21905750D01*
X43606237Y-21877580D01*
X43617250Y-21857424D01*
X43626679Y-21828200D01*
X43635151Y-21785575D01*
X43643290Y-21725217D01*
X43651721Y-21642793D01*
X43661068Y-21533972D01*
X43667469Y-21453017D01*
X43696831Y-21073732D01*
X44417659Y-21803938D01*
X44547992Y-21936066D01*
X44673108Y-22063096D01*
X44790721Y-22182695D01*
X44898545Y-22292528D01*
X44994295Y-22390263D01*
X45075683Y-22473566D01*
X45140423Y-22540104D01*
X45186230Y-22587542D01*
X45210792Y-22613520D01*
X45251145Y-22654649D01*
X45284805Y-22683335D01*
X45302910Y-22692895D01*
X45326035Y-22681697D01*
X45359743Y-22653719D01*
X45371169Y-22642326D01*
X45419617Y-22591757D01*
X45152881Y-22320702D01*
X45084831Y-22251652D01*
X44997085Y-22162774D01*
X44893492Y-22057959D01*
X44777900Y-21941097D01*
X44654159Y-21816079D01*
X44526119Y-21686795D01*
X44397628Y-21557136D01*
X44305454Y-21464179D01*
X44165342Y-21322520D01*
X44047632Y-21202591D01*
X43950820Y-21102768D01*
X43873399Y-21021428D01*
X43813864Y-20956948D01*
X43784358Y-20923277D01*
X43547409Y-20923277D01*
X43517743Y-21302592D01*
X43508797Y-21413777D01*
X43500142Y-21515453D01*
X43492271Y-21602304D01*
X43485672Y-21669018D01*
X43480836Y-21710279D01*
X43479280Y-21719506D01*
X43470482Y-21757105D01*
X42208681Y-21757105D01*
X42200258Y-21652173D01*
X42174828Y-21528195D01*
X42121611Y-21418524D01*
X42043963Y-21327156D01*
X41945237Y-21258083D01*
X41834428Y-21216620D01*
X41798480Y-21197171D01*
X41780483Y-21155430D01*
X41780106Y-21153589D01*
X41777947Y-21135967D01*
X41780616Y-21117922D01*
X41790720Y-21096108D01*
X41810863Y-21067177D01*
X41843651Y-21027783D01*
X41891690Y-20974577D01*
X41957584Y-20904214D01*
X42043940Y-20813346D01*
X42049520Y-20807493D01*
X42142405Y-20709956D01*
X42241155Y-20606067D01*
X42338984Y-20502977D01*
X42429107Y-20407839D01*
X42504738Y-20327804D01*
X42521605Y-20309911D01*
X42586265Y-20242444D01*
X42643705Y-20184709D01*
X42689801Y-20140675D01*
X42720431Y-20114314D01*
X42730715Y-20108521D01*
X42746052Y-20120646D01*
X42781917Y-20153910D01*
X42835488Y-20205542D01*
X42903940Y-20272775D01*
X42984447Y-20352837D01*
X43074187Y-20442961D01*
X43147532Y-20517198D01*
X43547409Y-20923277D01*
X43784358Y-20923277D01*
X43770709Y-20907703D01*
X43742429Y-20872071D01*
X43727517Y-20848429D01*
X43724199Y-20837480D01*
X43725456Y-20813586D01*
X43729274Y-20759501D01*
X43735407Y-20678338D01*
X43743607Y-20573210D01*
X43753627Y-20447228D01*
X43765220Y-20303505D01*
X43778140Y-20145154D01*
X43792138Y-19975287D01*
X43803419Y-19839528D01*
X43867250Y-19074106D01*
X43703004Y-19074106D01*
X43702297Y-19090624D01*
X43698969Y-19137145D01*
X43693290Y-19210378D01*
X43685526Y-19307028D01*
X43675943Y-19423805D01*
X43664811Y-19557414D01*
X43652395Y-19704563D01*
X43640480Y-19844271D01*
X43626984Y-20002787D01*
X43614413Y-20152421D01*
X43603055Y-20289602D01*
X43593198Y-20410759D01*
X43585130Y-20512320D01*
X43579140Y-20590712D01*
X43575515Y-20642363D01*
X43574509Y-20662423D01*
X43572940Y-20674908D01*
X43566722Y-20679862D01*
X43553459Y-20675218D01*
X43530753Y-20658909D01*
X43496208Y-20628868D01*
X43447427Y-20583027D01*
X43382013Y-20519320D01*
X43297569Y-20435679D01*
X43207971Y-20346299D01*
X42841574Y-19980186D01*
X42844141Y-19977434D01*
X42601951Y-19977434D01*
X42590913Y-19992550D01*
X42560013Y-20028142D01*
X42512347Y-20080941D01*
X42451013Y-20147673D01*
X42379107Y-20225070D01*
X42299727Y-20309858D01*
X42215969Y-20398767D01*
X42130930Y-20488526D01*
X42047708Y-20575864D01*
X41969399Y-20657509D01*
X41899100Y-20730191D01*
X41839909Y-20790637D01*
X41794922Y-20835578D01*
X41767236Y-20861742D01*
X41759686Y-20867072D01*
X41757197Y-20849867D01*
X41752030Y-20802348D01*
X41744470Y-20727489D01*
X41734800Y-20628264D01*
X41723305Y-20507649D01*
X41710269Y-20368618D01*
X41695976Y-20214145D01*
X41680710Y-20047206D01*
X41668521Y-19912597D01*
X41652929Y-19738054D01*
X41638523Y-19573627D01*
X41625547Y-19422299D01*
X41614241Y-19287053D01*
X41604848Y-19170870D01*
X41597611Y-19076735D01*
X41592772Y-19007630D01*
X41590573Y-18966538D01*
X41590824Y-18955868D01*
X41603970Y-18965372D01*
X41637446Y-18995920D01*
X41688326Y-19044556D01*
X41753683Y-19108323D01*
X41830591Y-19184265D01*
X41916124Y-19269424D01*
X42007354Y-19360845D01*
X42101356Y-19455569D01*
X42195202Y-19550641D01*
X42285967Y-19643103D01*
X42370723Y-19729999D01*
X42446544Y-19808372D01*
X42510503Y-19875265D01*
X42559674Y-19927722D01*
X42591131Y-19962785D01*
X42601951Y-19977434D01*
X42844141Y-19977434D01*
X42978202Y-19833760D01*
X43047784Y-19759448D01*
X43125881Y-19676483D01*
X43209406Y-19588102D01*
X43295270Y-19497541D01*
X43380385Y-19408036D01*
X43461664Y-19322823D01*
X43536019Y-19245139D01*
X43600363Y-19178220D01*
X43651606Y-19125303D01*
X43686663Y-19089623D01*
X43702444Y-19074416D01*
X43703004Y-19074106D01*
X43867250Y-19074106D01*
X43883204Y-18882807D01*
X44681286Y-18043485D01*
X45479368Y-17204164D01*
X45478781Y-17086852D01*
X45478194Y-16969539D01*
X45349275Y-17107253D01*
X45277124Y-17184063D01*
X45191940Y-17274304D01*
X45096021Y-17375575D01*
X44991666Y-17485476D01*
X44881174Y-17601604D01*
X44766844Y-17721558D01*
X44650975Y-17842936D01*
X44535865Y-17963338D01*
X44423814Y-18080362D01*
X44317119Y-18191606D01*
X44218080Y-18294669D01*
X44128997Y-18387150D01*
X44052166Y-18466647D01*
X43989888Y-18530758D01*
X43944462Y-18577083D01*
X43918185Y-18603219D01*
X43912426Y-18608233D01*
X43912030Y-18590791D01*
X43914208Y-18546135D01*
X43918583Y-18480340D01*
X43924775Y-18399483D01*
X43927433Y-18367183D01*
X43947228Y-18130921D01*
X43792242Y-18130921D01*
X43784240Y-18168520D01*
X43780160Y-18198255D01*
X43774425Y-18254203D01*
X43767701Y-18329236D01*
X43760648Y-18416225D01*
X43758207Y-18448421D01*
X43751008Y-18540861D01*
X43743742Y-18626707D01*
X43737136Y-18697847D01*
X43731916Y-18746169D01*
X43730739Y-18754939D01*
X43726298Y-18772942D01*
X43716687Y-18794017D01*
X43699860Y-18820525D01*
X43673775Y-18854828D01*
X43636387Y-18899289D01*
X43585654Y-18956271D01*
X43519530Y-19028136D01*
X43435974Y-19117246D01*
X43332940Y-19225964D01*
X43227833Y-19336275D01*
X43123262Y-19445441D01*
X43025649Y-19546540D01*
X42937422Y-19637115D01*
X42861012Y-19714708D01*
X42798849Y-19776862D01*
X42753363Y-19821118D01*
X42726983Y-19845018D01*
X42721357Y-19848574D01*
X42706557Y-19835681D01*
X42671961Y-19802060D01*
X42620929Y-19751082D01*
X42556817Y-19686120D01*
X42482984Y-19610548D01*
X42429589Y-19555493D01*
X42150827Y-19267237D01*
X42972790Y-19267237D01*
X42972790Y-18949737D01*
X41970158Y-18949737D01*
X41970158Y-19091206D01*
X41786342Y-18907960D01*
X41655948Y-18777971D01*
X41402000Y-18777971D01*
X41399571Y-18798477D01*
X41387276Y-18809902D01*
X41357604Y-18814880D01*
X41303045Y-18816044D01*
X41293382Y-18816052D01*
X41184763Y-18816052D01*
X41184763Y-18524584D01*
X41293382Y-18632237D01*
X41354654Y-18697687D01*
X41391301Y-18747829D01*
X41402000Y-18777971D01*
X41655948Y-18777971D01*
X41602526Y-18724715D01*
X41602526Y-18561502D01*
X41602015Y-18486414D01*
X41599672Y-18438645D01*
X41594289Y-18412098D01*
X41584656Y-18400679D01*
X41570129Y-18398289D01*
X41553973Y-18394780D01*
X41542031Y-18380711D01*
X41532861Y-18350769D01*
X41525018Y-18299642D01*
X41517058Y-18222017D01*
X41514504Y-18193585D01*
X41508974Y-18130921D01*
X43792242Y-18130921D01*
X43947228Y-18130921D01*
X44159237Y-18130921D01*
X44159237Y-17980526D01*
X44069141Y-17980526D01*
X44016445Y-17979083D01*
X43987812Y-17972116D01*
X43984309Y-17967970D01*
X43799766Y-17967970D01*
X43790054Y-17977442D01*
X43756412Y-17980366D01*
X43733706Y-17980526D01*
X43657921Y-17980526D01*
X43375306Y-17980526D01*
X41495481Y-17980526D01*
X41559062Y-17915413D01*
X41657814Y-17835062D01*
X41780032Y-17773089D01*
X41927787Y-17728646D01*
X42074599Y-17704065D01*
X42170684Y-17692596D01*
X42170684Y-17813421D01*
X42939368Y-17813421D01*
X42939368Y-17676345D01*
X43052165Y-17687776D01*
X43130975Y-17697425D01*
X43214943Y-17710214D01*
X43265224Y-17719348D01*
X43365487Y-17739488D01*
X43370397Y-17860007D01*
X43375306Y-17980526D01*
X43657921Y-17980526D01*
X43657921Y-17913684D01*
X43660131Y-17871810D01*
X43665650Y-17848536D01*
X43667874Y-17846842D01*
X43692613Y-17857560D01*
X43728757Y-17883563D01*
X43764990Y-17915623D01*
X43789999Y-17944511D01*
X43792227Y-17948267D01*
X43799766Y-17967970D01*
X43984309Y-17967970D01*
X43973919Y-17955674D01*
X43968311Y-17937762D01*
X43945422Y-17891279D01*
X43901460Y-17835400D01*
X43843989Y-17777960D01*
X43780573Y-17726793D01*
X43738918Y-17700143D01*
X43691466Y-17670972D01*
X43667141Y-17646467D01*
X43658595Y-17617572D01*
X43657938Y-17600362D01*
X43657937Y-17596184D01*
X42805684Y-17596184D01*
X42805684Y-17679737D01*
X42304368Y-17679737D01*
X42304368Y-17596184D01*
X42805684Y-17596184D01*
X43657937Y-17596184D01*
X43657921Y-17546052D01*
X43517274Y-17546052D01*
X43452564Y-17547617D01*
X43402130Y-17551785D01*
X43374094Y-17557773D01*
X43371057Y-17560197D01*
X43353273Y-17563918D01*
X43309992Y-17562394D01*
X43248651Y-17556075D01*
X43206737Y-17550240D01*
X43130737Y-17538778D01*
X43061230Y-17528430D01*
X43008997Y-17520796D01*
X42993678Y-17518627D01*
X42953653Y-17506232D01*
X42939368Y-17486808D01*
X42935025Y-17478898D01*
X42919490Y-17472863D01*
X42889001Y-17468466D01*
X42839800Y-17465469D01*
X42768126Y-17463635D01*
X42670219Y-17462725D01*
X42555026Y-17462500D01*
X42432086Y-17462628D01*
X42338559Y-17463230D01*
X42270440Y-17464639D01*
X42223719Y-17467181D01*
X42194391Y-17471189D01*
X42178449Y-17476991D01*
X42171885Y-17484917D01*
X42170684Y-17494133D01*
X42160460Y-17523385D01*
X42126970Y-17540031D01*
X42065988Y-17545968D01*
X42055017Y-17546052D01*
X41951746Y-17556706D01*
X41834453Y-17586033D01*
X41713715Y-17630084D01*
X41600111Y-17684911D01*
X41504219Y-17746564D01*
X41491799Y-17756332D01*
X41451318Y-17788115D01*
X41427345Y-17800844D01*
X41410604Y-17796729D01*
X41393419Y-17779750D01*
X41342664Y-17746492D01*
X41276607Y-17733725D01*
X41205474Y-17740365D01*
X41139486Y-17765327D01*
X41088868Y-17807529D01*
X41085203Y-17812434D01*
X41047328Y-17891211D01*
X41040281Y-17972754D01*
X41063285Y-18050487D01*
X41115563Y-18117835D01*
X41121956Y-18123396D01*
X41159073Y-18149813D01*
X41196733Y-18161447D01*
X41249676Y-18162287D01*
X41262902Y-18161542D01*
X41314703Y-18159641D01*
X41341386Y-18163996D01*
X41351045Y-18177138D01*
X41352037Y-18189408D01*
X41354061Y-18225002D01*
X41359086Y-18278533D01*
X41362697Y-18310559D01*
X41367934Y-18361427D01*
X41365756Y-18387468D01*
X41353125Y-18396986D01*
X41330625Y-18398289D01*
X41317282Y-18393986D01*
X41295756Y-18380057D01*
X41264452Y-18354977D01*
X41221776Y-18317219D01*
X41166132Y-18265256D01*
X41095925Y-18197562D01*
X41009560Y-18112611D01*
X40905442Y-18008875D01*
X40781975Y-17884828D01*
X40637564Y-17738944D01*
X40567969Y-17668449D01*
X39847921Y-16938610D01*
X39848744Y-17054337D01*
G36*
X83284786Y-19331139D02*
G01*
X83133368Y-19332181D01*
X83016683Y-19335145D01*
X82924119Y-19341060D01*
X82845062Y-19350951D01*
X82768896Y-19365847D01*
X82685008Y-19386772D01*
X82671023Y-19390516D01*
X82380869Y-19491250D01*
X82113309Y-19629979D01*
X81871326Y-19804213D01*
X81657905Y-20011467D01*
X81476029Y-20249253D01*
X81333064Y-20505678D01*
X81249969Y-20709601D01*
X81191332Y-20918963D01*
X81154252Y-21146596D01*
X81137143Y-21372394D01*
X81140054Y-21706223D01*
X81179734Y-22014691D01*
X81257026Y-22300125D01*
X81372774Y-22564849D01*
X81527819Y-22811189D01*
X81723004Y-23041472D01*
X81752956Y-23071937D01*
X81974295Y-23267500D01*
X82208889Y-23422647D01*
X82464531Y-23541986D01*
X82653724Y-23604854D01*
X82771995Y-23630662D01*
X82921738Y-23651474D01*
X83089249Y-23666339D01*
X83260822Y-23674310D01*
X83422753Y-23674438D01*
X83550462Y-23666912D01*
X83787147Y-23627899D01*
X84031177Y-23559784D01*
X84270483Y-23467426D01*
X84492996Y-23355685D01*
X84686647Y-23229419D01*
X84738137Y-23188747D01*
X84931802Y-22998838D01*
X85096561Y-22776038D01*
X85230694Y-22523762D01*
X85332481Y-22245424D01*
X85400203Y-21944440D01*
X85414110Y-21846268D01*
X85436669Y-21502926D01*
X85436221Y-21494750D01*
X84287799Y-21494750D01*
X84274071Y-21764973D01*
X84230314Y-22002240D01*
X84155779Y-22208234D01*
X84049718Y-22384638D01*
X83911384Y-22533135D01*
X83783689Y-22628695D01*
X83677493Y-22690022D01*
X83577603Y-22729883D01*
X83469801Y-22751725D01*
X83339871Y-22758998D01*
X83250768Y-22757954D01*
X83134089Y-22752720D01*
X83047679Y-22742662D01*
X82976495Y-22724986D01*
X82905495Y-22696903D01*
X82894305Y-22691793D01*
X82760011Y-22611974D01*
X82628281Y-22502219D01*
X82514385Y-22376136D01*
X82471045Y-22314617D01*
X82394705Y-22162827D01*
X82335553Y-21979326D01*
X82295588Y-21775143D01*
X82276812Y-21561304D01*
X82281223Y-21348838D01*
X82286312Y-21296092D01*
X82323330Y-21066291D01*
X82379592Y-20872242D01*
X82457812Y-20707456D01*
X82560709Y-20565446D01*
X82617103Y-20505955D01*
X82777903Y-20378246D01*
X82954653Y-20289650D01*
X83141394Y-20240164D01*
X83332166Y-20229788D01*
X83521009Y-20258520D01*
X83701965Y-20326358D01*
X83869073Y-20433300D01*
X83950435Y-20506282D01*
X84074616Y-20653991D01*
X84168672Y-20819858D01*
X84234363Y-21009039D01*
X84273450Y-21226694D01*
X84287694Y-21477980D01*
X84287799Y-21494750D01*
X85436221Y-21494750D01*
X85418706Y-21175671D01*
X85360751Y-20866131D01*
X85263329Y-20575933D01*
X85126969Y-20306704D01*
X84952197Y-20060073D01*
X84773358Y-19868967D01*
X84556311Y-19693640D01*
X84308274Y-19546890D01*
X84036293Y-19432595D01*
X83906479Y-19392370D01*
X83819869Y-19369368D01*
X83745258Y-19352863D01*
X83672117Y-19341815D01*
X83589918Y-19335189D01*
X83488132Y-19331947D01*
X83356229Y-19331053D01*
X83284786Y-19331139D01*
X83284786Y-19331139D01*
G37*
X83284786Y-19331139D02*
X83133368Y-19332181D01*
X83016683Y-19335145D01*
X82924119Y-19341060D01*
X82845062Y-19350951D01*
X82768896Y-19365847D01*
X82685008Y-19386772D01*
X82671023Y-19390516D01*
X82380869Y-19491250D01*
X82113309Y-19629979D01*
X81871326Y-19804213D01*
X81657905Y-20011467D01*
X81476029Y-20249253D01*
X81333064Y-20505678D01*
X81249969Y-20709601D01*
X81191332Y-20918963D01*
X81154252Y-21146596D01*
X81137143Y-21372394D01*
X81140054Y-21706223D01*
X81179734Y-22014691D01*
X81257026Y-22300125D01*
X81372774Y-22564849D01*
X81527819Y-22811189D01*
X81723004Y-23041472D01*
X81752956Y-23071937D01*
X81974295Y-23267500D01*
X82208889Y-23422647D01*
X82464531Y-23541986D01*
X82653724Y-23604854D01*
X82771995Y-23630662D01*
X82921738Y-23651474D01*
X83089249Y-23666339D01*
X83260822Y-23674310D01*
X83422753Y-23674438D01*
X83550462Y-23666912D01*
X83787147Y-23627899D01*
X84031177Y-23559784D01*
X84270483Y-23467426D01*
X84492996Y-23355685D01*
X84686647Y-23229419D01*
X84738137Y-23188747D01*
X84931802Y-22998838D01*
X85096561Y-22776038D01*
X85230694Y-22523762D01*
X85332481Y-22245424D01*
X85400203Y-21944440D01*
X85414110Y-21846268D01*
X85436669Y-21502926D01*
X85436221Y-21494750D01*
X84287799Y-21494750D01*
X84274071Y-21764973D01*
X84230314Y-22002240D01*
X84155779Y-22208234D01*
X84049718Y-22384638D01*
X83911384Y-22533135D01*
X83783689Y-22628695D01*
X83677493Y-22690022D01*
X83577603Y-22729883D01*
X83469801Y-22751725D01*
X83339871Y-22758998D01*
X83250768Y-22757954D01*
X83134089Y-22752720D01*
X83047679Y-22742662D01*
X82976495Y-22724986D01*
X82905495Y-22696903D01*
X82894305Y-22691793D01*
X82760011Y-22611974D01*
X82628281Y-22502219D01*
X82514385Y-22376136D01*
X82471045Y-22314617D01*
X82394705Y-22162827D01*
X82335553Y-21979326D01*
X82295588Y-21775143D01*
X82276812Y-21561304D01*
X82281223Y-21348838D01*
X82286312Y-21296092D01*
X82323330Y-21066291D01*
X82379592Y-20872242D01*
X82457812Y-20707456D01*
X82560709Y-20565446D01*
X82617103Y-20505955D01*
X82777903Y-20378246D01*
X82954653Y-20289650D01*
X83141394Y-20240164D01*
X83332166Y-20229788D01*
X83521009Y-20258520D01*
X83701965Y-20326358D01*
X83869073Y-20433300D01*
X83950435Y-20506282D01*
X84074616Y-20653991D01*
X84168672Y-20819858D01*
X84234363Y-21009039D01*
X84273450Y-21226694D01*
X84287694Y-21477980D01*
X84287799Y-21494750D01*
X85436221Y-21494750D01*
X85418706Y-21175671D01*
X85360751Y-20866131D01*
X85263329Y-20575933D01*
X85126969Y-20306704D01*
X84952197Y-20060073D01*
X84773358Y-19868967D01*
X84556311Y-19693640D01*
X84308274Y-19546890D01*
X84036293Y-19432595D01*
X83906479Y-19392370D01*
X83819869Y-19369368D01*
X83745258Y-19352863D01*
X83672117Y-19341815D01*
X83589918Y-19335189D01*
X83488132Y-19331947D01*
X83356229Y-19331053D01*
X83284786Y-19331139D01*
G36*
X72031368Y-17745987D02*
G01*
X71802044Y-17773497D01*
X71592005Y-17817937D01*
X71393167Y-17880711D01*
X71197443Y-17963226D01*
X71154294Y-17984023D01*
X70920692Y-18122313D01*
X70720626Y-18290953D01*
X70553669Y-18490436D01*
X70419395Y-18721254D01*
X70332673Y-18936363D01*
X70296002Y-19064355D01*
X70267305Y-19199596D01*
X70252333Y-19311670D01*
X70238759Y-19487696D01*
X70304050Y-19488926D01*
X70345078Y-19490067D01*
X70424009Y-19492586D01*
X70533421Y-19496232D01*
X70665888Y-19500758D01*
X70813986Y-19505914D01*
X70890947Y-19508628D01*
X71412554Y-19527101D01*
X71453818Y-19366734D01*
X71523413Y-19173995D01*
X71624259Y-19012979D01*
X71755130Y-18885046D01*
X71914796Y-18791559D01*
X72002197Y-18759041D01*
X72107178Y-18735995D01*
X72243136Y-18720055D01*
X72396193Y-18711596D01*
X72552471Y-18710994D01*
X72698091Y-18718626D01*
X72819176Y-18734866D01*
X72827975Y-18736673D01*
X73004166Y-18787343D01*
X73157669Y-18857861D01*
X73281745Y-18944180D01*
X73369654Y-19042252D01*
X73387614Y-19072686D01*
X73410546Y-19149025D01*
X73418469Y-19248458D01*
X73411310Y-19351256D01*
X73388996Y-19437685D01*
X73388968Y-19437752D01*
X73353033Y-19497107D01*
X73297638Y-19562327D01*
X73270593Y-19588116D01*
X73211127Y-19635232D01*
X73141786Y-19679289D01*
X73058107Y-19721901D01*
X72955623Y-19764682D01*
X72829870Y-19809248D01*
X72676382Y-19857213D01*
X72490695Y-19910192D01*
X72268343Y-19969799D01*
X72081572Y-20018103D01*
X71767726Y-20102297D01*
X71494822Y-20184583D01*
X71258622Y-20267098D01*
X71054893Y-20351977D01*
X70879399Y-20441357D01*
X70727904Y-20537375D01*
X70596172Y-20642167D01*
X70479969Y-20757868D01*
X70384353Y-20874166D01*
X70275493Y-21046468D01*
X70185480Y-21243798D01*
X70122603Y-21447074D01*
X70110595Y-21504585D01*
X70092948Y-21646109D01*
X70085452Y-21811686D01*
X70087737Y-21985673D01*
X70099431Y-22152429D01*
X70120161Y-22296314D01*
X70130500Y-22342401D01*
X70194921Y-22533721D01*
X70288890Y-22731214D01*
X70403367Y-22917207D01*
X70469697Y-23005613D01*
X70644931Y-23186408D01*
X70855869Y-23341166D01*
X71100406Y-23468908D01*
X71376439Y-23568654D01*
X71681864Y-23639424D01*
X71895363Y-23669445D01*
X72071568Y-23683327D01*
X72267978Y-23690306D01*
X72470388Y-23690504D01*
X72664591Y-23684046D01*
X72836384Y-23671055D01*
X72920679Y-23660498D01*
X73230659Y-23599740D01*
X73505119Y-23515451D01*
X73748539Y-23405486D01*
X73965396Y-23267698D01*
X74160171Y-23099942D01*
X74219960Y-23038078D01*
X74366421Y-22852526D01*
X74496431Y-22633745D01*
X74605371Y-22392292D01*
X74688625Y-22138725D01*
X74741577Y-21883601D01*
X74748594Y-21829259D01*
X74755909Y-21756101D01*
X74754244Y-21717161D01*
X74740374Y-21701666D01*
X74711072Y-21698842D01*
X74709546Y-21698840D01*
X74671163Y-21696702D01*
X74595371Y-21690746D01*
X74489897Y-21681644D01*
X74362467Y-21670066D01*
X74220807Y-21656683D01*
X74190679Y-21653775D01*
X74016704Y-21636879D01*
X73882576Y-21624213D01*
X73782970Y-21615932D01*
X73712558Y-21612190D01*
X73666015Y-21613139D01*
X73638014Y-21618934D01*
X73623229Y-21629728D01*
X73616334Y-21645676D01*
X73612003Y-21666932D01*
X73611262Y-21670509D01*
X73580098Y-21785752D01*
X73534167Y-21918631D01*
X73480504Y-22051014D01*
X73426146Y-22164769D01*
X73404757Y-22202702D01*
X73281119Y-22364918D01*
X73125584Y-22495475D01*
X72939213Y-22593873D01*
X72723069Y-22659616D01*
X72478211Y-22692205D01*
X72353715Y-22695927D01*
X72100819Y-22681309D01*
X71880672Y-22636989D01*
X71691151Y-22562266D01*
X71530132Y-22456440D01*
X71473691Y-22405697D01*
X71361104Y-22270232D01*
X71287341Y-22125532D01*
X71252985Y-21977086D01*
X71258618Y-21830380D01*
X71304822Y-21690904D01*
X71385211Y-21571925D01*
X71435783Y-21520365D01*
X71494781Y-21473122D01*
X71566371Y-21428619D01*
X71654716Y-21385280D01*
X71763981Y-21341527D01*
X71898331Y-21295785D01*
X72061931Y-21246477D01*
X72258944Y-21192026D01*
X72493535Y-21130856D01*
X72664333Y-21087699D01*
X73016527Y-20990589D01*
X73325895Y-20886409D01*
X73591885Y-20775386D01*
X73813941Y-20657745D01*
X73959813Y-20558843D01*
X74148422Y-20386709D01*
X74302216Y-20189385D01*
X74420167Y-19971946D01*
X74501243Y-19739465D01*
X74544416Y-19497017D01*
X74548654Y-19249677D01*
X74512927Y-19002518D01*
X74436206Y-18760616D01*
X74357930Y-18597799D01*
X74233116Y-18414077D01*
X74072471Y-18242503D01*
X73885341Y-18091164D01*
X73681070Y-17968145D01*
X73573279Y-17918905D01*
X73406646Y-17856619D01*
X73246098Y-17809682D01*
X73080149Y-17775980D01*
X72897311Y-17753400D01*
X72686097Y-17739826D01*
X72580209Y-17736134D01*
X72288061Y-17734001D01*
X72031368Y-17745987D01*
X72031368Y-17745987D01*
G37*
X72031368Y-17745987D02*
X71802044Y-17773497D01*
X71592005Y-17817937D01*
X71393167Y-17880711D01*
X71197443Y-17963226D01*
X71154294Y-17984023D01*
X70920692Y-18122313D01*
X70720626Y-18290953D01*
X70553669Y-18490436D01*
X70419395Y-18721254D01*
X70332673Y-18936363D01*
X70296002Y-19064355D01*
X70267305Y-19199596D01*
X70252333Y-19311670D01*
X70238759Y-19487696D01*
X70304050Y-19488926D01*
X70345078Y-19490067D01*
X70424009Y-19492586D01*
X70533421Y-19496232D01*
X70665888Y-19500758D01*
X70813986Y-19505914D01*
X70890947Y-19508628D01*
X71412554Y-19527101D01*
X71453818Y-19366734D01*
X71523413Y-19173995D01*
X71624259Y-19012979D01*
X71755130Y-18885046D01*
X71914796Y-18791559D01*
X72002197Y-18759041D01*
X72107178Y-18735995D01*
X72243136Y-18720055D01*
X72396193Y-18711596D01*
X72552471Y-18710994D01*
X72698091Y-18718626D01*
X72819176Y-18734866D01*
X72827975Y-18736673D01*
X73004166Y-18787343D01*
X73157669Y-18857861D01*
X73281745Y-18944180D01*
X73369654Y-19042252D01*
X73387614Y-19072686D01*
X73410546Y-19149025D01*
X73418469Y-19248458D01*
X73411310Y-19351256D01*
X73388996Y-19437685D01*
X73388968Y-19437752D01*
X73353033Y-19497107D01*
X73297638Y-19562327D01*
X73270593Y-19588116D01*
X73211127Y-19635232D01*
X73141786Y-19679289D01*
X73058107Y-19721901D01*
X72955623Y-19764682D01*
X72829870Y-19809248D01*
X72676382Y-19857213D01*
X72490695Y-19910192D01*
X72268343Y-19969799D01*
X72081572Y-20018103D01*
X71767726Y-20102297D01*
X71494822Y-20184583D01*
X71258622Y-20267098D01*
X71054893Y-20351977D01*
X70879399Y-20441357D01*
X70727904Y-20537375D01*
X70596172Y-20642167D01*
X70479969Y-20757868D01*
X70384353Y-20874166D01*
X70275493Y-21046468D01*
X70185480Y-21243798D01*
X70122603Y-21447074D01*
X70110595Y-21504585D01*
X70092948Y-21646109D01*
X70085452Y-21811686D01*
X70087737Y-21985673D01*
X70099431Y-22152429D01*
X70120161Y-22296314D01*
X70130500Y-22342401D01*
X70194921Y-22533721D01*
X70288890Y-22731214D01*
X70403367Y-22917207D01*
X70469697Y-23005613D01*
X70644931Y-23186408D01*
X70855869Y-23341166D01*
X71100406Y-23468908D01*
X71376439Y-23568654D01*
X71681864Y-23639424D01*
X71895363Y-23669445D01*
X72071568Y-23683327D01*
X72267978Y-23690306D01*
X72470388Y-23690504D01*
X72664591Y-23684046D01*
X72836384Y-23671055D01*
X72920679Y-23660498D01*
X73230659Y-23599740D01*
X73505119Y-23515451D01*
X73748539Y-23405486D01*
X73965396Y-23267698D01*
X74160171Y-23099942D01*
X74219960Y-23038078D01*
X74366421Y-22852526D01*
X74496431Y-22633745D01*
X74605371Y-22392292D01*
X74688625Y-22138725D01*
X74741577Y-21883601D01*
X74748594Y-21829259D01*
X74755909Y-21756101D01*
X74754244Y-21717161D01*
X74740374Y-21701666D01*
X74711072Y-21698842D01*
X74709546Y-21698840D01*
X74671163Y-21696702D01*
X74595371Y-21690746D01*
X74489897Y-21681644D01*
X74362467Y-21670066D01*
X74220807Y-21656683D01*
X74190679Y-21653775D01*
X74016704Y-21636879D01*
X73882576Y-21624213D01*
X73782970Y-21615932D01*
X73712558Y-21612190D01*
X73666015Y-21613139D01*
X73638014Y-21618934D01*
X73623229Y-21629728D01*
X73616334Y-21645676D01*
X73612003Y-21666932D01*
X73611262Y-21670509D01*
X73580098Y-21785752D01*
X73534167Y-21918631D01*
X73480504Y-22051014D01*
X73426146Y-22164769D01*
X73404757Y-22202702D01*
X73281119Y-22364918D01*
X73125584Y-22495475D01*
X72939213Y-22593873D01*
X72723069Y-22659616D01*
X72478211Y-22692205D01*
X72353715Y-22695927D01*
X72100819Y-22681309D01*
X71880672Y-22636989D01*
X71691151Y-22562266D01*
X71530132Y-22456440D01*
X71473691Y-22405697D01*
X71361104Y-22270232D01*
X71287341Y-22125532D01*
X71252985Y-21977086D01*
X71258618Y-21830380D01*
X71304822Y-21690904D01*
X71385211Y-21571925D01*
X71435783Y-21520365D01*
X71494781Y-21473122D01*
X71566371Y-21428619D01*
X71654716Y-21385280D01*
X71763981Y-21341527D01*
X71898331Y-21295785D01*
X72061931Y-21246477D01*
X72258944Y-21192026D01*
X72493535Y-21130856D01*
X72664333Y-21087699D01*
X73016527Y-20990589D01*
X73325895Y-20886409D01*
X73591885Y-20775386D01*
X73813941Y-20657745D01*
X73959813Y-20558843D01*
X74148422Y-20386709D01*
X74302216Y-20189385D01*
X74420167Y-19971946D01*
X74501243Y-19739465D01*
X74544416Y-19497017D01*
X74548654Y-19249677D01*
X74512927Y-19002518D01*
X74436206Y-18760616D01*
X74357930Y-18597799D01*
X74233116Y-18414077D01*
X74072471Y-18242503D01*
X73885341Y-18091164D01*
X73681070Y-17968145D01*
X73573279Y-17918905D01*
X73406646Y-17856619D01*
X73246098Y-17809682D01*
X73080149Y-17775980D01*
X72897311Y-17753400D01*
X72686097Y-17739826D01*
X72580209Y-17736134D01*
X72288061Y-17734001D01*
X72031368Y-17745987D01*
G36*
X89379652Y-17828046D02*
G01*
X89023405Y-17830765D01*
X88705134Y-17833980D01*
X88425855Y-17837670D01*
X88186584Y-17841814D01*
X87988337Y-17846391D01*
X87832129Y-17851380D01*
X87718976Y-17856760D01*
X87649893Y-17862511D01*
X87639072Y-17864099D01*
X87428570Y-17905224D01*
X87254407Y-17950936D01*
X87107567Y-18005363D01*
X86979035Y-18072632D01*
X86859796Y-18156868D01*
X86740832Y-18262200D01*
X86715601Y-18286833D01*
X86620109Y-18385505D01*
X86549593Y-18470383D01*
X86493450Y-18555807D01*
X86441081Y-18656117D01*
X86438266Y-18662002D01*
X86369130Y-18817744D01*
X86320871Y-18956619D01*
X86290223Y-19093648D01*
X86273921Y-19243856D01*
X86268700Y-19422265D01*
X86268662Y-19442339D01*
X86280560Y-19696293D01*
X86318139Y-19918428D01*
X86384225Y-20116104D01*
X86481644Y-20296679D01*
X86613221Y-20467513D01*
X86695789Y-20554652D01*
X86806577Y-20657558D01*
X86917505Y-20743462D01*
X87036579Y-20816341D01*
X87171806Y-20880170D01*
X87331190Y-20938928D01*
X87522739Y-20996590D01*
X87658572Y-21032866D01*
X87734769Y-21052518D01*
X87567858Y-21165581D01*
X87398055Y-21296003D01*
X87223000Y-21458436D01*
X87053086Y-21642314D01*
X86898705Y-21837076D01*
X86875854Y-21868946D01*
X86836862Y-21926149D01*
X86780238Y-22011945D01*
X86708977Y-22121589D01*
X86626073Y-22250336D01*
X86534522Y-22393441D01*
X86437316Y-22546156D01*
X86337452Y-22703738D01*
X86237923Y-22861440D01*
X86141725Y-23014517D01*
X86051851Y-23158224D01*
X85971297Y-23287814D01*
X85903057Y-23398542D01*
X85850125Y-23485663D01*
X85815497Y-23544431D01*
X85802166Y-23570101D01*
X85802108Y-23570531D01*
X85823875Y-23573164D01*
X85885530Y-23575560D01*
X85981605Y-23577635D01*
X86106631Y-23579308D01*
X86255140Y-23580494D01*
X86421662Y-23581110D01*
X86501188Y-23581179D01*
X87200268Y-23581179D01*
X87779583Y-22713723D01*
X87904485Y-22527423D01*
X88027316Y-22345574D01*
X88144628Y-22173186D01*
X88252972Y-22015272D01*
X88348901Y-21876840D01*
X88428965Y-21762902D01*
X88489718Y-21678469D01*
X88517559Y-21641342D01*
X88637728Y-21498055D01*
X88754606Y-21387516D01*
X88876570Y-21305885D01*
X89011996Y-21249317D01*
X89169261Y-21213969D01*
X89356742Y-21196000D01*
X89497396Y-21191833D01*
X89782197Y-21188589D01*
X89793937Y-23581179D01*
X90972822Y-23581179D01*
X90972822Y-18818679D01*
X89793536Y-18818679D01*
X89793536Y-20247429D01*
X89084831Y-20247242D01*
X88898818Y-20246453D01*
X88717682Y-20244309D01*
X88549074Y-20241006D01*
X88400647Y-20236736D01*
X88280052Y-20231691D01*
X88194939Y-20226066D01*
X88177973Y-20224352D01*
X87999380Y-20196016D01*
X87857586Y-20154701D01*
X87745140Y-20097377D01*
X87654588Y-20021017D01*
X87641031Y-20006147D01*
X87548162Y-19868636D01*
X87492813Y-19708632D01*
X87474080Y-19523452D01*
X87474109Y-19510375D01*
X87493450Y-19325068D01*
X87548341Y-19167920D01*
X87638889Y-19038785D01*
X87765199Y-18937518D01*
X87927381Y-18863974D01*
X87957209Y-18854608D01*
X87995810Y-18845059D01*
X88044016Y-18837305D01*
X88106547Y-18831172D01*
X88188123Y-18826487D01*
X88293465Y-18823077D01*
X88427292Y-18820768D01*
X88594324Y-18819388D01*
X88799282Y-18818763D01*
X88935867Y-18818679D01*
X89793536Y-18818679D01*
X90972822Y-18818679D01*
X90972822Y-17817576D01*
X89379652Y-17828046D01*
X89379652Y-17828046D01*
G37*
X89379652Y-17828046D02*
X89023405Y-17830765D01*
X88705134Y-17833980D01*
X88425855Y-17837670D01*
X88186584Y-17841814D01*
X87988337Y-17846391D01*
X87832129Y-17851380D01*
X87718976Y-17856760D01*
X87649893Y-17862511D01*
X87639072Y-17864099D01*
X87428570Y-17905224D01*
X87254407Y-17950936D01*
X87107567Y-18005363D01*
X86979035Y-18072632D01*
X86859796Y-18156868D01*
X86740832Y-18262200D01*
X86715601Y-18286833D01*
X86620109Y-18385505D01*
X86549593Y-18470383D01*
X86493450Y-18555807D01*
X86441081Y-18656117D01*
X86438266Y-18662002D01*
X86369130Y-18817744D01*
X86320871Y-18956619D01*
X86290223Y-19093648D01*
X86273921Y-19243856D01*
X86268700Y-19422265D01*
X86268662Y-19442339D01*
X86280560Y-19696293D01*
X86318139Y-19918428D01*
X86384225Y-20116104D01*
X86481644Y-20296679D01*
X86613221Y-20467513D01*
X86695789Y-20554652D01*
X86806577Y-20657558D01*
X86917505Y-20743462D01*
X87036579Y-20816341D01*
X87171806Y-20880170D01*
X87331190Y-20938928D01*
X87522739Y-20996590D01*
X87658572Y-21032866D01*
X87734769Y-21052518D01*
X87567858Y-21165581D01*
X87398055Y-21296003D01*
X87223000Y-21458436D01*
X87053086Y-21642314D01*
X86898705Y-21837076D01*
X86875854Y-21868946D01*
X86836862Y-21926149D01*
X86780238Y-22011945D01*
X86708977Y-22121589D01*
X86626073Y-22250336D01*
X86534522Y-22393441D01*
X86437316Y-22546156D01*
X86337452Y-22703738D01*
X86237923Y-22861440D01*
X86141725Y-23014517D01*
X86051851Y-23158224D01*
X85971297Y-23287814D01*
X85903057Y-23398542D01*
X85850125Y-23485663D01*
X85815497Y-23544431D01*
X85802166Y-23570101D01*
X85802108Y-23570531D01*
X85823875Y-23573164D01*
X85885530Y-23575560D01*
X85981605Y-23577635D01*
X86106631Y-23579308D01*
X86255140Y-23580494D01*
X86421662Y-23581110D01*
X86501188Y-23581179D01*
X87200268Y-23581179D01*
X87779583Y-22713723D01*
X87904485Y-22527423D01*
X88027316Y-22345574D01*
X88144628Y-22173186D01*
X88252972Y-22015272D01*
X88348901Y-21876840D01*
X88428965Y-21762902D01*
X88489718Y-21678469D01*
X88517559Y-21641342D01*
X88637728Y-21498055D01*
X88754606Y-21387516D01*
X88876570Y-21305885D01*
X89011996Y-21249317D01*
X89169261Y-21213969D01*
X89356742Y-21196000D01*
X89497396Y-21191833D01*
X89782197Y-21188589D01*
X89793937Y-23581179D01*
X90972822Y-23581179D01*
X90972822Y-18818679D01*
X89793536Y-18818679D01*
X89793536Y-20247429D01*
X89084831Y-20247242D01*
X88898818Y-20246453D01*
X88717682Y-20244309D01*
X88549074Y-20241006D01*
X88400647Y-20236736D01*
X88280052Y-20231691D01*
X88194939Y-20226066D01*
X88177973Y-20224352D01*
X87999380Y-20196016D01*
X87857586Y-20154701D01*
X87745140Y-20097377D01*
X87654588Y-20021017D01*
X87641031Y-20006147D01*
X87548162Y-19868636D01*
X87492813Y-19708632D01*
X87474080Y-19523452D01*
X87474109Y-19510375D01*
X87493450Y-19325068D01*
X87548341Y-19167920D01*
X87638889Y-19038785D01*
X87765199Y-18937518D01*
X87927381Y-18863974D01*
X87957209Y-18854608D01*
X87995810Y-18845059D01*
X88044016Y-18837305D01*
X88106547Y-18831172D01*
X88188123Y-18826487D01*
X88293465Y-18823077D01*
X88427292Y-18820768D01*
X88594324Y-18819388D01*
X88799282Y-18818763D01*
X88935867Y-18818679D01*
X89793536Y-18818679D01*
X90972822Y-18818679D01*
X90972822Y-17817576D01*
X89379652Y-17828046D01*
G36*
X79089250Y-20088679D02*
G01*
X76844072Y-20088679D01*
X76844072Y-17820821D01*
X75664786Y-17820821D01*
X75664786Y-23581179D01*
X76844072Y-23581179D01*
X76844072Y-21063430D01*
X77960992Y-21069313D01*
X79077911Y-21075196D01*
X79083773Y-22328187D01*
X79089635Y-23581179D01*
X80268536Y-23581179D01*
X80268536Y-17820821D01*
X79089250Y-17820821D01*
X79089250Y-20088679D01*
X79089250Y-20088679D01*
G37*
X79089250Y-20088679D02*
X76844072Y-20088679D01*
X76844072Y-17820821D01*
X75664786Y-17820821D01*
X75664786Y-23581179D01*
X76844072Y-23581179D01*
X76844072Y-21063430D01*
X77960992Y-21069313D01*
X79077911Y-21075196D01*
X79083773Y-22328187D01*
X79089635Y-23581179D01*
X80268536Y-23581179D01*
X80268536Y-17820821D01*
X79089250Y-17820821D01*
X79089250Y-20088679D01*
G36*
X58972813Y-17685315D02*
G01*
X58908330Y-17686975D01*
X58861697Y-17689945D01*
X58841349Y-17693088D01*
X58811583Y-17701065D01*
X58811583Y-18621530D01*
X59021119Y-18614259D01*
X59230953Y-18614523D01*
X59425141Y-18631382D01*
X59609580Y-18666075D01*
X59790168Y-18719839D01*
X59972803Y-18793911D01*
X60048511Y-18829879D01*
X60229062Y-18928977D01*
X60391702Y-19040326D01*
X60544099Y-19169408D01*
X60603378Y-19226705D01*
X60760015Y-19401861D01*
X60895527Y-19592520D01*
X61009234Y-19797394D01*
X61100456Y-20015193D01*
X61168515Y-20244629D01*
X61188674Y-20337197D01*
X61200823Y-20421244D01*
X61208934Y-20524234D01*
X61213015Y-20638965D01*
X61213074Y-20758234D01*
X61209116Y-20874837D01*
X61201149Y-20981571D01*
X61189181Y-21071233D01*
X61187943Y-21078031D01*
X61132089Y-21306759D01*
X61052701Y-21524965D01*
X60951069Y-21731177D01*
X60828478Y-21923928D01*
X60686219Y-22101748D01*
X60525579Y-22263168D01*
X60347845Y-22406719D01*
X60154307Y-22530931D01*
X59946252Y-22634336D01*
X59762763Y-22703535D01*
X59659623Y-22735118D01*
X59564893Y-22759129D01*
X59472130Y-22776463D01*
X59374894Y-22788016D01*
X59266742Y-22794680D01*
X59141233Y-22797352D01*
X59086089Y-22797504D01*
X58811583Y-22797186D01*
X58811583Y-23714164D01*
X58841349Y-23722141D01*
X58866749Y-23725138D01*
X58913744Y-23727203D01*
X58977490Y-23728382D01*
X59053142Y-23728723D01*
X59135854Y-23728274D01*
X59220783Y-23727083D01*
X59303083Y-23725197D01*
X59377909Y-23722663D01*
X59440417Y-23719531D01*
X59485762Y-23715847D01*
X59486271Y-23715789D01*
X59599271Y-23699341D01*
X59726872Y-23674706D01*
X59859338Y-23644083D01*
X59986934Y-23609667D01*
X60068016Y-23584536D01*
X60332553Y-23483498D01*
X60583277Y-23360513D01*
X60819195Y-23216777D01*
X61039320Y-23053487D01*
X61242660Y-22871838D01*
X61428227Y-22673026D01*
X61595030Y-22458247D01*
X61742079Y-22228698D01*
X61868385Y-21985573D01*
X61972958Y-21730070D01*
X62054808Y-21463383D01*
X62112945Y-21186709D01*
X62126162Y-21097875D01*
X62134618Y-21013107D01*
X62140437Y-20909118D01*
X62143618Y-20793009D01*
X62144161Y-20671887D01*
X62142066Y-20552854D01*
X62137334Y-20443014D01*
X62129963Y-20349472D01*
X62126162Y-20317354D01*
X62075241Y-20034706D01*
X61999795Y-19761614D01*
X61900081Y-19498714D01*
X61776354Y-19246637D01*
X61628872Y-19006017D01*
X61550048Y-18895218D01*
X61371770Y-18677723D01*
X61175767Y-18479344D01*
X60963402Y-18300882D01*
X60736041Y-18143133D01*
X60495047Y-18006897D01*
X60241787Y-17892971D01*
X59977623Y-17802153D01*
X59703921Y-17735241D01*
X59513120Y-17703813D01*
X59460646Y-17698490D01*
X59391782Y-17693930D01*
X59311419Y-17690212D01*
X59224450Y-17687413D01*
X59135764Y-17685612D01*
X59050255Y-17684887D01*
X58972813Y-17685315D01*
X58972813Y-17685315D01*
G37*
X58972813Y-17685315D02*
X58908330Y-17686975D01*
X58861697Y-17689945D01*
X58841349Y-17693088D01*
X58811583Y-17701065D01*
X58811583Y-18621530D01*
X59021119Y-18614259D01*
X59230953Y-18614523D01*
X59425141Y-18631382D01*
X59609580Y-18666075D01*
X59790168Y-18719839D01*
X59972803Y-18793911D01*
X60048511Y-18829879D01*
X60229062Y-18928977D01*
X60391702Y-19040326D01*
X60544099Y-19169408D01*
X60603378Y-19226705D01*
X60760015Y-19401861D01*
X60895527Y-19592520D01*
X61009234Y-19797394D01*
X61100456Y-20015193D01*
X61168515Y-20244629D01*
X61188674Y-20337197D01*
X61200823Y-20421244D01*
X61208934Y-20524234D01*
X61213015Y-20638965D01*
X61213074Y-20758234D01*
X61209116Y-20874837D01*
X61201149Y-20981571D01*
X61189181Y-21071233D01*
X61187943Y-21078031D01*
X61132089Y-21306759D01*
X61052701Y-21524965D01*
X60951069Y-21731177D01*
X60828478Y-21923928D01*
X60686219Y-22101748D01*
X60525579Y-22263168D01*
X60347845Y-22406719D01*
X60154307Y-22530931D01*
X59946252Y-22634336D01*
X59762763Y-22703535D01*
X59659623Y-22735118D01*
X59564893Y-22759129D01*
X59472130Y-22776463D01*
X59374894Y-22788016D01*
X59266742Y-22794680D01*
X59141233Y-22797352D01*
X59086089Y-22797504D01*
X58811583Y-22797186D01*
X58811583Y-23714164D01*
X58841349Y-23722141D01*
X58866749Y-23725138D01*
X58913744Y-23727203D01*
X58977490Y-23728382D01*
X59053142Y-23728723D01*
X59135854Y-23728274D01*
X59220783Y-23727083D01*
X59303083Y-23725197D01*
X59377909Y-23722663D01*
X59440417Y-23719531D01*
X59485762Y-23715847D01*
X59486271Y-23715789D01*
X59599271Y-23699341D01*
X59726872Y-23674706D01*
X59859338Y-23644083D01*
X59986934Y-23609667D01*
X60068016Y-23584536D01*
X60332553Y-23483498D01*
X60583277Y-23360513D01*
X60819195Y-23216777D01*
X61039320Y-23053487D01*
X61242660Y-22871838D01*
X61428227Y-22673026D01*
X61595030Y-22458247D01*
X61742079Y-22228698D01*
X61868385Y-21985573D01*
X61972958Y-21730070D01*
X62054808Y-21463383D01*
X62112945Y-21186709D01*
X62126162Y-21097875D01*
X62134618Y-21013107D01*
X62140437Y-20909118D01*
X62143618Y-20793009D01*
X62144161Y-20671887D01*
X62142066Y-20552854D01*
X62137334Y-20443014D01*
X62129963Y-20349472D01*
X62126162Y-20317354D01*
X62075241Y-20034706D01*
X61999795Y-19761614D01*
X61900081Y-19498714D01*
X61776354Y-19246637D01*
X61628872Y-19006017D01*
X61550048Y-18895218D01*
X61371770Y-18677723D01*
X61175767Y-18479344D01*
X60963402Y-18300882D01*
X60736041Y-18143133D01*
X60495047Y-18006897D01*
X60241787Y-17892971D01*
X59977623Y-17802153D01*
X59703921Y-17735241D01*
X59513120Y-17703813D01*
X59460646Y-17698490D01*
X59391782Y-17693930D01*
X59311419Y-17690212D01*
X59224450Y-17687413D01*
X59135764Y-17685612D01*
X59050255Y-17684887D01*
X58972813Y-17685315D01*
G36*
X53678665Y-18617406D02*
G01*
X53973015Y-18617695D01*
X54074990Y-18618120D01*
X54155645Y-18619408D01*
X54220112Y-18621914D01*
X54273524Y-18625996D01*
X54321012Y-18632008D01*
X54367711Y-18640308D01*
X54401611Y-18647436D01*
X54631451Y-18710754D01*
X54850768Y-18797012D01*
X55057799Y-18905009D01*
X55250780Y-19033544D01*
X55427951Y-19181418D01*
X55587547Y-19347430D01*
X55727807Y-19530379D01*
X55752446Y-19567449D01*
X55804244Y-19654402D01*
X55857145Y-19755820D01*
X55908164Y-19864866D01*
X55954318Y-19974702D01*
X55992625Y-20078488D01*
X56020102Y-20169388D01*
X56026196Y-20194984D01*
X56035561Y-20237979D01*
X54273979Y-20237979D01*
X54273979Y-21177250D01*
X56035561Y-21177250D01*
X56026196Y-21220244D01*
X56001136Y-21311611D01*
X55963648Y-21417469D01*
X55916815Y-21530878D01*
X55863718Y-21644892D01*
X55807440Y-21752569D01*
X55751064Y-21846967D01*
X55741608Y-21861319D01*
X55597866Y-22052791D01*
X55436667Y-22224630D01*
X55259010Y-22376163D01*
X55065891Y-22506719D01*
X54858309Y-22615624D01*
X54637262Y-22702206D01*
X54403745Y-22765794D01*
X54398044Y-22767021D01*
X54345462Y-22777622D01*
X54297042Y-22785513D01*
X54247391Y-22791078D01*
X54191119Y-22794702D01*
X54122832Y-22796769D01*
X54037141Y-22797664D01*
X53966401Y-22797799D01*
X53678667Y-22797776D01*
X53678667Y-23730479D01*
X53966401Y-23728762D01*
X54058376Y-23727709D01*
X54148109Y-23725766D01*
X54229842Y-23723126D01*
X54297821Y-23719981D01*
X54346289Y-23716526D01*
X54353354Y-23715789D01*
X54578763Y-23679594D01*
X54810614Y-23622376D01*
X55042575Y-23546284D01*
X55268315Y-23453465D01*
X55481501Y-23346068D01*
X55537303Y-23314135D01*
X55700844Y-23208667D01*
X55866786Y-23084545D01*
X56028573Y-22947431D01*
X56179650Y-22802982D01*
X56313460Y-22656859D01*
X56350007Y-22612607D01*
X56511327Y-22391012D01*
X56652652Y-22153378D01*
X56772975Y-21902089D01*
X56871289Y-21639532D01*
X56946588Y-21368092D01*
X56997865Y-21090155D01*
X57000410Y-21071416D01*
X57007359Y-20999751D01*
X57012292Y-20909046D01*
X57015208Y-20805923D01*
X57016105Y-20697009D01*
X57014981Y-20588925D01*
X57011834Y-20488298D01*
X57006662Y-20401752D01*
X57000617Y-20343812D01*
X56948661Y-20058894D01*
X56873431Y-19783354D01*
X56775609Y-19518809D01*
X56655879Y-19266877D01*
X56514924Y-19029177D01*
X56353427Y-18807325D01*
X56350007Y-18803079D01*
X56169720Y-18600121D01*
X55970578Y-18413656D01*
X55755027Y-18245214D01*
X55525515Y-18096325D01*
X55284491Y-17968517D01*
X55034400Y-17863322D01*
X54777691Y-17782267D01*
X54677381Y-17757769D01*
X54553470Y-17731938D01*
X54438300Y-17712592D01*
X54324480Y-17698981D01*
X54204615Y-17690356D01*
X54071313Y-17685968D01*
X53959787Y-17685008D01*
X53678667Y-17684750D01*
X53678665Y-18617406D01*
X53678665Y-18617406D01*
G37*
X53678665Y-18617406D02*
X53973015Y-18617695D01*
X54074990Y-18618120D01*
X54155645Y-18619408D01*
X54220112Y-18621914D01*
X54273524Y-18625996D01*
X54321012Y-18632008D01*
X54367711Y-18640308D01*
X54401611Y-18647436D01*
X54631451Y-18710754D01*
X54850768Y-18797012D01*
X55057799Y-18905009D01*
X55250780Y-19033544D01*
X55427951Y-19181418D01*
X55587547Y-19347430D01*
X55727807Y-19530379D01*
X55752446Y-19567449D01*
X55804244Y-19654402D01*
X55857145Y-19755820D01*
X55908164Y-19864866D01*
X55954318Y-19974702D01*
X55992625Y-20078488D01*
X56020102Y-20169388D01*
X56026196Y-20194984D01*
X56035561Y-20237979D01*
X54273979Y-20237979D01*
X54273979Y-21177250D01*
X56035561Y-21177250D01*
X56026196Y-21220244D01*
X56001136Y-21311611D01*
X55963648Y-21417469D01*
X55916815Y-21530878D01*
X55863718Y-21644892D01*
X55807440Y-21752569D01*
X55751064Y-21846967D01*
X55741608Y-21861319D01*
X55597866Y-22052791D01*
X55436667Y-22224630D01*
X55259010Y-22376163D01*
X55065891Y-22506719D01*
X54858309Y-22615624D01*
X54637262Y-22702206D01*
X54403745Y-22765794D01*
X54398044Y-22767021D01*
X54345462Y-22777622D01*
X54297042Y-22785513D01*
X54247391Y-22791078D01*
X54191119Y-22794702D01*
X54122832Y-22796769D01*
X54037141Y-22797664D01*
X53966401Y-22797799D01*
X53678667Y-22797776D01*
X53678667Y-23730479D01*
X53966401Y-23728762D01*
X54058376Y-23727709D01*
X54148109Y-23725766D01*
X54229842Y-23723126D01*
X54297821Y-23719981D01*
X54346289Y-23716526D01*
X54353354Y-23715789D01*
X54578763Y-23679594D01*
X54810614Y-23622376D01*
X55042575Y-23546284D01*
X55268315Y-23453465D01*
X55481501Y-23346068D01*
X55537303Y-23314135D01*
X55700844Y-23208667D01*
X55866786Y-23084545D01*
X56028573Y-22947431D01*
X56179650Y-22802982D01*
X56313460Y-22656859D01*
X56350007Y-22612607D01*
X56511327Y-22391012D01*
X56652652Y-22153378D01*
X56772975Y-21902089D01*
X56871289Y-21639532D01*
X56946588Y-21368092D01*
X56997865Y-21090155D01*
X57000410Y-21071416D01*
X57007359Y-20999751D01*
X57012292Y-20909046D01*
X57015208Y-20805923D01*
X57016105Y-20697009D01*
X57014981Y-20588925D01*
X57011834Y-20488298D01*
X57006662Y-20401752D01*
X57000617Y-20343812D01*
X56948661Y-20058894D01*
X56873431Y-19783354D01*
X56775609Y-19518809D01*
X56655879Y-19266877D01*
X56514924Y-19029177D01*
X56353427Y-18807325D01*
X56350007Y-18803079D01*
X56169720Y-18600121D01*
X55970578Y-18413656D01*
X55755027Y-18245214D01*
X55525515Y-18096325D01*
X55284491Y-17968517D01*
X55034400Y-17863322D01*
X54777691Y-17782267D01*
X54677381Y-17757769D01*
X54553470Y-17731938D01*
X54438300Y-17712592D01*
X54324480Y-17698981D01*
X54204615Y-17690356D01*
X54071313Y-17685968D01*
X53959787Y-17685008D01*
X53678667Y-17684750D01*
X53678665Y-18617406D01*
G36*
X82606601Y-110079425D02*
G01*
X82522407Y-110273206D01*
X82504799Y-110340561D01*
X82488090Y-110518760D01*
X82582712Y-110618714D01*
X82673653Y-110658061D01*
X82895285Y-110730217D01*
X83012202Y-110721382D01*
X83072142Y-110624258D01*
X83080853Y-110595834D01*
X83151709Y-110383835D01*
X83180581Y-110309591D01*
X83176662Y-110195759D01*
X83037200Y-110103863D01*
X82962698Y-110075646D01*
X82738207Y-110022340D01*
X82606601Y-110079425D01*
X82606601Y-110079425D01*
G37*
X82606601Y-110079425D02*
X82522407Y-110273206D01*
X82504799Y-110340561D01*
X82488090Y-110518760D01*
X82582712Y-110618714D01*
X82673653Y-110658061D01*
X82895285Y-110730217D01*
X83012202Y-110721382D01*
X83072142Y-110624258D01*
X83080853Y-110595834D01*
X83151709Y-110383835D01*
X83180581Y-110309591D01*
X83176662Y-110195759D01*
X83037200Y-110103863D01*
X82962698Y-110075646D01*
X82738207Y-110022340D01*
X82606601Y-110079425D01*
G36*
X21547955Y-111929038D02*
G01*
X21217544Y-112267410D01*
X21509605Y-112570875D01*
X21801667Y-112874340D01*
X21484163Y-113142670D01*
X21248059Y-113391825D01*
X21165842Y-113626940D01*
X21238477Y-113872367D01*
X21466931Y-114152458D01*
X21526500Y-114210158D01*
X21886333Y-114549766D01*
X22736984Y-114551883D01*
X23587634Y-114554000D01*
X23900191Y-114233913D01*
X24212748Y-113913825D01*
X23670565Y-113371642D01*
X23942616Y-113090957D01*
X24166277Y-112780174D01*
X24222835Y-112475398D01*
X24111914Y-112167490D01*
X23893597Y-111904183D01*
X23572527Y-111590667D01*
X21878366Y-111590667D01*
X21547955Y-111929038D01*
X21547955Y-111929038D01*
G37*
X21547955Y-111929038D02*
X21217544Y-112267410D01*
X21509605Y-112570875D01*
X21801667Y-112874340D01*
X21484163Y-113142670D01*
X21248059Y-113391825D01*
X21165842Y-113626940D01*
X21238477Y-113872367D01*
X21466931Y-114152458D01*
X21526500Y-114210158D01*
X21886333Y-114549766D01*
X22736984Y-114551883D01*
X23587634Y-114554000D01*
X23900191Y-114233913D01*
X24212748Y-113913825D01*
X23670565Y-113371642D01*
X23942616Y-113090957D01*
X24166277Y-112780174D01*
X24222835Y-112475398D01*
X24111914Y-112167490D01*
X23893597Y-111904183D01*
X23572527Y-111590667D01*
X21878366Y-111590667D01*
X21547955Y-111929038D01*
G36*
X25497458Y-110546228D02*
G01*
X25329383Y-110688272D01*
X25247276Y-110769198D01*
X25102544Y-110932381D01*
X25021276Y-111083871D01*
X24985372Y-111281446D01*
X24976732Y-111582886D01*
X24976667Y-111633000D01*
X24970252Y-111952288D01*
X24938941Y-112160158D01*
X24864632Y-112314389D01*
X24729225Y-112472761D01*
X24706058Y-112496803D01*
X24435449Y-112776000D01*
X24977969Y-113335738D01*
X24723318Y-113579710D01*
X24563715Y-113753632D01*
X24475077Y-113891031D01*
X24468667Y-113918232D01*
X24525091Y-114029745D01*
X24667575Y-114201563D01*
X24747864Y-114283391D01*
X25058252Y-114506273D01*
X25363170Y-114561994D01*
X25671429Y-114450178D01*
X25933151Y-114232930D01*
X26246667Y-113911861D01*
X26246667Y-111031218D01*
X25967469Y-110760609D01*
X25782676Y-110598147D01*
X25639683Y-110501603D01*
X25603078Y-110490000D01*
X25497458Y-110546228D01*
X25497458Y-110546228D01*
G37*
X25497458Y-110546228D02*
X25329383Y-110688272D01*
X25247276Y-110769198D01*
X25102544Y-110932381D01*
X25021276Y-111083871D01*
X24985372Y-111281446D01*
X24976732Y-111582886D01*
X24976667Y-111633000D01*
X24970252Y-111952288D01*
X24938941Y-112160158D01*
X24864632Y-112314389D01*
X24729225Y-112472761D01*
X24706058Y-112496803D01*
X24435449Y-112776000D01*
X24977969Y-113335738D01*
X24723318Y-113579710D01*
X24563715Y-113753632D01*
X24475077Y-113891031D01*
X24468667Y-113918232D01*
X24525091Y-114029745D01*
X24667575Y-114201563D01*
X24747864Y-114283391D01*
X25058252Y-114506273D01*
X25363170Y-114561994D01*
X25671429Y-114450178D01*
X25933151Y-114232930D01*
X26246667Y-113911861D01*
X26246667Y-111031218D01*
X25967469Y-110760609D01*
X25782676Y-110598147D01*
X25639683Y-110501603D01*
X25603078Y-110490000D01*
X25497458Y-110546228D01*
G36*
X26814183Y-111911737D02*
G01*
X26500667Y-112232806D01*
X26500667Y-114012783D01*
X26779864Y-114283391D01*
X26959140Y-114445199D01*
X27090097Y-114541906D01*
X27120787Y-114554000D01*
X27214896Y-114501638D01*
X27382859Y-114368939D01*
X27476590Y-114286396D01*
X27633072Y-114133318D01*
X27721159Y-113995417D01*
X27760424Y-113816345D01*
X27770439Y-113539749D01*
X27770667Y-113439729D01*
X27773956Y-113134477D01*
X27792920Y-112961226D01*
X27841199Y-112882657D01*
X27932434Y-112861449D01*
X27982333Y-112860667D01*
X28096341Y-112870385D01*
X28159718Y-112925107D01*
X28187292Y-113063184D01*
X28193891Y-113322969D01*
X28194000Y-113408178D01*
X28201055Y-113714946D01*
X28236946Y-113915038D01*
X28323764Y-114070974D01*
X28483601Y-114245276D01*
X28493156Y-114254845D01*
X28677716Y-114427381D01*
X28816475Y-114535474D01*
X28857547Y-114554000D01*
X28950657Y-114498189D01*
X29110736Y-114357081D01*
X29193391Y-114274803D01*
X29313866Y-114145102D01*
X29391927Y-114028201D01*
X29436777Y-113884374D01*
X29457619Y-113673893D01*
X29463656Y-113357032D01*
X29464000Y-113106652D01*
X29464000Y-112217699D01*
X29142930Y-111904183D01*
X28821861Y-111590667D01*
X27127699Y-111590667D01*
X26814183Y-111911737D01*
X26814183Y-111911737D01*
G37*
X26814183Y-111911737D02*
X26500667Y-112232806D01*
X26500667Y-114012783D01*
X26779864Y-114283391D01*
X26959140Y-114445199D01*
X27090097Y-114541906D01*
X27120787Y-114554000D01*
X27214896Y-114501638D01*
X27382859Y-114368939D01*
X27476590Y-114286396D01*
X27633072Y-114133318D01*
X27721159Y-113995417D01*
X27760424Y-113816345D01*
X27770439Y-113539749D01*
X27770667Y-113439729D01*
X27773956Y-113134477D01*
X27792920Y-112961226D01*
X27841199Y-112882657D01*
X27932434Y-112861449D01*
X27982333Y-112860667D01*
X28096341Y-112870385D01*
X28159718Y-112925107D01*
X28187292Y-113063184D01*
X28193891Y-113322969D01*
X28194000Y-113408178D01*
X28201055Y-113714946D01*
X28236946Y-113915038D01*
X28323764Y-114070974D01*
X28483601Y-114245276D01*
X28493156Y-114254845D01*
X28677716Y-114427381D01*
X28816475Y-114535474D01*
X28857547Y-114554000D01*
X28950657Y-114498189D01*
X29110736Y-114357081D01*
X29193391Y-114274803D01*
X29313866Y-114145102D01*
X29391927Y-114028201D01*
X29436777Y-113884374D01*
X29457619Y-113673893D01*
X29463656Y-113357032D01*
X29464000Y-113106652D01*
X29464000Y-112217699D01*
X29142930Y-111904183D01*
X28821861Y-111590667D01*
X27127699Y-111590667D01*
X26814183Y-111911737D01*
G36*
X30020931Y-111944573D02*
G01*
X29791781Y-112277045D01*
X29719425Y-112571461D01*
X29803178Y-112852017D01*
X29988609Y-113089469D01*
X30259218Y-113368667D01*
X29988632Y-113647840D01*
X29718047Y-113927013D01*
X30039093Y-114240507D01*
X30360140Y-114554000D01*
X32140116Y-114554000D01*
X32410725Y-114274803D01*
X32531199Y-114145102D01*
X32609260Y-114028201D01*
X32654110Y-113884374D01*
X32674952Y-113673893D01*
X32680989Y-113357032D01*
X32681333Y-113106652D01*
X32681333Y-112217699D01*
X32360264Y-111904183D01*
X32039194Y-111590667D01*
X30323862Y-111590667D01*
X30020931Y-111944573D01*
X30020931Y-111944573D01*
G37*
X30020931Y-111944573D02*
X29791781Y-112277045D01*
X29719425Y-112571461D01*
X29803178Y-112852017D01*
X29988609Y-113089469D01*
X30259218Y-113368667D01*
X29988632Y-113647840D01*
X29718047Y-113927013D01*
X30039093Y-114240507D01*
X30360140Y-114554000D01*
X32140116Y-114554000D01*
X32410725Y-114274803D01*
X32531199Y-114145102D01*
X32609260Y-114028201D01*
X32654110Y-113884374D01*
X32674952Y-113673893D01*
X32680989Y-113357032D01*
X32681333Y-113106652D01*
X32681333Y-112217699D01*
X32360264Y-111904183D01*
X32039194Y-111590667D01*
X30323862Y-111590667D01*
X30020931Y-111944573D01*
G36*
X33248850Y-111911737D02*
G01*
X32935333Y-112232806D01*
X32939915Y-113919000D01*
X33235097Y-114236500D01*
X33415561Y-114417656D01*
X33553225Y-114532609D01*
X33597197Y-114554000D01*
X33691360Y-114498154D01*
X33852113Y-114356967D01*
X33934725Y-114274803D01*
X34081484Y-114108629D01*
X34162813Y-113953834D01*
X34197749Y-113750854D01*
X34205330Y-113440126D01*
X34205333Y-113428136D01*
X34205333Y-112860667D01*
X34713333Y-112860667D01*
X34713333Y-113436725D01*
X34719053Y-113749799D01*
X34749767Y-113952081D01*
X34825808Y-114102049D01*
X34967511Y-114258182D01*
X35015090Y-114304558D01*
X35316846Y-114596334D01*
X35656083Y-114233354D01*
X35847688Y-114016401D01*
X35946058Y-113846422D01*
X35978196Y-113651155D01*
X35972459Y-113386688D01*
X35964074Y-113113355D01*
X35983635Y-112965933D01*
X36048506Y-112901330D01*
X36176047Y-112876455D01*
X36178133Y-112876210D01*
X36406667Y-112849419D01*
X36406667Y-113431101D01*
X36412630Y-113747269D01*
X36442952Y-113951123D01*
X36516280Y-114099588D01*
X36651260Y-114249586D01*
X36685864Y-114283391D01*
X36869320Y-114444081D01*
X37009910Y-114537074D01*
X37045698Y-114546833D01*
X37143435Y-114483166D01*
X37302733Y-114328888D01*
X37401500Y-114219040D01*
X37527117Y-114065927D01*
X37607168Y-113931530D01*
X37651915Y-113772556D01*
X37671619Y-113545715D01*
X37676539Y-113207716D01*
X37676667Y-113058057D01*
X37676667Y-112217699D01*
X37034527Y-111590667D01*
X33562366Y-111590667D01*
X33248850Y-111911737D01*
X33248850Y-111911737D01*
G37*
X33248850Y-111911737D02*
X32935333Y-112232806D01*
X32939915Y-113919000D01*
X33235097Y-114236500D01*
X33415561Y-114417656D01*
X33553225Y-114532609D01*
X33597197Y-114554000D01*
X33691360Y-114498154D01*
X33852113Y-114356967D01*
X33934725Y-114274803D01*
X34081484Y-114108629D01*
X34162813Y-113953834D01*
X34197749Y-113750854D01*
X34205330Y-113440126D01*
X34205333Y-113428136D01*
X34205333Y-112860667D01*
X34713333Y-112860667D01*
X34713333Y-113436725D01*
X34719053Y-113749799D01*
X34749767Y-113952081D01*
X34825808Y-114102049D01*
X34967511Y-114258182D01*
X35015090Y-114304558D01*
X35316846Y-114596334D01*
X35656083Y-114233354D01*
X35847688Y-114016401D01*
X35946058Y-113846422D01*
X35978196Y-113651155D01*
X35972459Y-113386688D01*
X35964074Y-113113355D01*
X35983635Y-112965933D01*
X36048506Y-112901330D01*
X36176047Y-112876455D01*
X36178133Y-112876210D01*
X36406667Y-112849419D01*
X36406667Y-113431101D01*
X36412630Y-113747269D01*
X36442952Y-113951123D01*
X36516280Y-114099588D01*
X36651260Y-114249586D01*
X36685864Y-114283391D01*
X36869320Y-114444081D01*
X37009910Y-114537074D01*
X37045698Y-114546833D01*
X37143435Y-114483166D01*
X37302733Y-114328888D01*
X37401500Y-114219040D01*
X37527117Y-114065927D01*
X37607168Y-113931530D01*
X37651915Y-113772556D01*
X37671619Y-113545715D01*
X37676539Y-113207716D01*
X37676667Y-113058057D01*
X37676667Y-112217699D01*
X37034527Y-111590667D01*
X33562366Y-111590667D01*
X33248850Y-111911737D01*
G36*
X40010423Y-111840109D02*
G01*
X39850019Y-112005881D01*
X39759636Y-112151005D01*
X39719268Y-112333384D01*
X39708913Y-112610923D01*
X39708667Y-112713566D01*
X39708667Y-113295248D01*
X39475833Y-113268457D01*
X39350876Y-113244648D01*
X39278786Y-113182806D01*
X39242002Y-113043035D01*
X39222961Y-112785436D01*
X39218265Y-112683317D01*
X39196370Y-112369322D01*
X39149682Y-112163347D01*
X39055073Y-112004086D01*
X38900470Y-111840922D01*
X38607410Y-111556877D01*
X38269038Y-111887288D01*
X37930667Y-112217699D01*
X37930667Y-113876179D01*
X38236852Y-114215090D01*
X38543038Y-114554000D01*
X40351634Y-114554000D01*
X40665151Y-114232930D01*
X40978667Y-113911861D01*
X40978667Y-112261443D01*
X40645423Y-111904888D01*
X40312180Y-111548334D01*
X40010423Y-111840109D01*
X40010423Y-111840109D01*
G37*
X40010423Y-111840109D02*
X39850019Y-112005881D01*
X39759636Y-112151005D01*
X39719268Y-112333384D01*
X39708913Y-112610923D01*
X39708667Y-112713566D01*
X39708667Y-113295248D01*
X39475833Y-113268457D01*
X39350876Y-113244648D01*
X39278786Y-113182806D01*
X39242002Y-113043035D01*
X39222961Y-112785436D01*
X39218265Y-112683317D01*
X39196370Y-112369322D01*
X39149682Y-112163347D01*
X39055073Y-112004086D01*
X38900470Y-111840922D01*
X38607410Y-111556877D01*
X38269038Y-111887288D01*
X37930667Y-112217699D01*
X37930667Y-113876179D01*
X38236852Y-114215090D01*
X38543038Y-114554000D01*
X40351634Y-114554000D01*
X40665151Y-114232930D01*
X40978667Y-113911861D01*
X40978667Y-112261443D01*
X40645423Y-111904888D01*
X40312180Y-111548334D01*
X40010423Y-111840109D01*
G36*
X41847545Y-111597728D02*
G01*
X41648311Y-111632517D01*
X41498091Y-111715443D01*
X41336803Y-111866915D01*
X41333942Y-111869864D01*
X41171481Y-112054658D01*
X41074936Y-112197651D01*
X41063333Y-112234255D01*
X41131138Y-112378802D01*
X41299840Y-112554547D01*
X41517371Y-112720057D01*
X41731664Y-112833901D01*
X41850531Y-112860667D01*
X41973902Y-112868569D01*
X42042355Y-112917954D01*
X42072059Y-113047334D01*
X42079182Y-113295224D01*
X42079333Y-113405668D01*
X42085801Y-113709154D01*
X42120755Y-113905529D01*
X42207518Y-114056939D01*
X42369416Y-114225526D01*
X42396833Y-114251600D01*
X42585173Y-114422354D01*
X42721541Y-114531745D01*
X42761225Y-114553266D01*
X42842890Y-114498290D01*
X42995567Y-114358339D01*
X43078725Y-114274803D01*
X43199199Y-114145102D01*
X43277260Y-114028201D01*
X43322110Y-113884374D01*
X43342952Y-113673893D01*
X43348989Y-113357032D01*
X43349333Y-113106652D01*
X43349333Y-112217699D01*
X43028264Y-111904183D01*
X42841280Y-111733314D01*
X42682267Y-111639342D01*
X42487650Y-111599421D01*
X42193855Y-111590702D01*
X42155873Y-111590667D01*
X41847545Y-111597728D01*
X41847545Y-111597728D01*
G37*
X41847545Y-111597728D02*
X41648311Y-111632517D01*
X41498091Y-111715443D01*
X41336803Y-111866915D01*
X41333942Y-111869864D01*
X41171481Y-112054658D01*
X41074936Y-112197651D01*
X41063333Y-112234255D01*
X41131138Y-112378802D01*
X41299840Y-112554547D01*
X41517371Y-112720057D01*
X41731664Y-112833901D01*
X41850531Y-112860667D01*
X41973902Y-112868569D01*
X42042355Y-112917954D01*
X42072059Y-113047334D01*
X42079182Y-113295224D01*
X42079333Y-113405668D01*
X42085801Y-113709154D01*
X42120755Y-113905529D01*
X42207518Y-114056939D01*
X42369416Y-114225526D01*
X42396833Y-114251600D01*
X42585173Y-114422354D01*
X42721541Y-114531745D01*
X42761225Y-114553266D01*
X42842890Y-114498290D01*
X42995567Y-114358339D01*
X43078725Y-114274803D01*
X43199199Y-114145102D01*
X43277260Y-114028201D01*
X43322110Y-113884374D01*
X43342952Y-113673893D01*
X43348989Y-113357032D01*
X43349333Y-113106652D01*
X43349333Y-112217699D01*
X43028264Y-111904183D01*
X42841280Y-111733314D01*
X42682267Y-111639342D01*
X42487650Y-111599421D01*
X42193855Y-111590702D01*
X42155873Y-111590667D01*
X41847545Y-111597728D01*
G36*
X44622888Y-110548937D02*
G01*
X44458509Y-110698195D01*
X44374104Y-110789280D01*
X44230005Y-110970819D01*
X44150843Y-111140430D01*
X44117631Y-111360536D01*
X44111333Y-111653082D01*
X44104181Y-111967372D01*
X44069920Y-112172399D01*
X43989343Y-112328048D01*
X43843242Y-112494204D01*
X43840725Y-112496803D01*
X43570116Y-112776000D01*
X43852791Y-113067647D01*
X44135466Y-113359293D01*
X43869400Y-113583173D01*
X43701620Y-113747531D01*
X43609437Y-113882894D01*
X43603333Y-113909918D01*
X43659932Y-114026682D01*
X43802808Y-114201822D01*
X43882531Y-114283391D01*
X44192919Y-114506273D01*
X44497836Y-114561994D01*
X44806096Y-114450178D01*
X45067817Y-114232930D01*
X45381333Y-113911861D01*
X45381333Y-111031218D01*
X45102136Y-110760609D01*
X44915480Y-110597928D01*
X44768426Y-110501441D01*
X44729907Y-110490000D01*
X44622888Y-110548937D01*
X44622888Y-110548937D01*
G37*
X44622888Y-110548937D02*
X44458509Y-110698195D01*
X44374104Y-110789280D01*
X44230005Y-110970819D01*
X44150843Y-111140430D01*
X44117631Y-111360536D01*
X44111333Y-111653082D01*
X44104181Y-111967372D01*
X44069920Y-112172399D01*
X43989343Y-112328048D01*
X43843242Y-112494204D01*
X43840725Y-112496803D01*
X43570116Y-112776000D01*
X43852791Y-113067647D01*
X44135466Y-113359293D01*
X43869400Y-113583173D01*
X43701620Y-113747531D01*
X43609437Y-113882894D01*
X43603333Y-113909918D01*
X43659932Y-114026682D01*
X43802808Y-114201822D01*
X43882531Y-114283391D01*
X44192919Y-114506273D01*
X44497836Y-114561994D01*
X44806096Y-114450178D01*
X45067817Y-114232930D01*
X45381333Y-113911861D01*
X45381333Y-111031218D01*
X45102136Y-110760609D01*
X44915480Y-110597928D01*
X44768426Y-110501441D01*
X44729907Y-110490000D01*
X44622888Y-110548937D01*
G36*
X46016622Y-111929038D02*
G01*
X45686211Y-112267410D01*
X45978272Y-112571253D01*
X46270333Y-112875097D01*
X45995167Y-113106881D01*
X45767770Y-113377885D01*
X45708848Y-113665873D01*
X45818401Y-113970814D01*
X46041070Y-114240484D01*
X46362140Y-114554000D01*
X48056301Y-114554000D01*
X48368858Y-114233913D01*
X48681415Y-113913825D01*
X48139232Y-113371642D01*
X48411283Y-113090957D01*
X48634943Y-112780174D01*
X48691502Y-112475398D01*
X48580580Y-112167490D01*
X48362264Y-111904183D01*
X48041194Y-111590667D01*
X46347033Y-111590667D01*
X46016622Y-111929038D01*
X46016622Y-111929038D01*
G37*
X46016622Y-111929038D02*
X45686211Y-112267410D01*
X45978272Y-112571253D01*
X46270333Y-112875097D01*
X45995167Y-113106881D01*
X45767770Y-113377885D01*
X45708848Y-113665873D01*
X45818401Y-113970814D01*
X46041070Y-114240484D01*
X46362140Y-114554000D01*
X48056301Y-114554000D01*
X48368858Y-114233913D01*
X48681415Y-113913825D01*
X48139232Y-113371642D01*
X48411283Y-113090957D01*
X48634943Y-112780174D01*
X48691502Y-112475398D01*
X48580580Y-112167490D01*
X48362264Y-111904183D01*
X48041194Y-111590667D01*
X46347033Y-111590667D01*
X46016622Y-111929038D01*
G36*
X49250850Y-111911737D02*
G01*
X48937333Y-112232806D01*
X48937333Y-114012783D01*
X49216531Y-114283391D01*
X49401325Y-114445853D01*
X49544318Y-114542397D01*
X49580922Y-114554000D01*
X49686542Y-114497772D01*
X49854617Y-114355728D01*
X49936725Y-114274803D01*
X50083484Y-114108629D01*
X50164813Y-113953834D01*
X50199749Y-113750854D01*
X50207330Y-113440126D01*
X50207333Y-113428136D01*
X50210785Y-113126658D01*
X50230512Y-112956808D01*
X50280573Y-112880897D01*
X50375026Y-112861235D01*
X50419000Y-112860667D01*
X50534171Y-112870743D01*
X50597548Y-112926869D01*
X50624553Y-113067894D01*
X50630611Y-113332665D01*
X50630667Y-113393817D01*
X50637803Y-113694838D01*
X50675591Y-113891415D01*
X50768594Y-114048329D01*
X50941379Y-114230358D01*
X50951737Y-114240484D01*
X51139122Y-114416148D01*
X51274856Y-114529915D01*
X51316128Y-114554000D01*
X51395597Y-114498644D01*
X51546874Y-114358560D01*
X51630058Y-114274803D01*
X51750533Y-114145102D01*
X51828593Y-114028201D01*
X51873443Y-113884374D01*
X51894285Y-113673893D01*
X51900322Y-113357032D01*
X51900667Y-113106652D01*
X51900667Y-112217699D01*
X51258527Y-111590667D01*
X49564366Y-111590667D01*
X49250850Y-111911737D01*
X49250850Y-111911737D01*
G37*
X49250850Y-111911737D02*
X48937333Y-112232806D01*
X48937333Y-114012783D01*
X49216531Y-114283391D01*
X49401325Y-114445853D01*
X49544318Y-114542397D01*
X49580922Y-114554000D01*
X49686542Y-114497772D01*
X49854617Y-114355728D01*
X49936725Y-114274803D01*
X50083484Y-114108629D01*
X50164813Y-113953834D01*
X50199749Y-113750854D01*
X50207330Y-113440126D01*
X50207333Y-113428136D01*
X50210785Y-113126658D01*
X50230512Y-112956808D01*
X50280573Y-112880897D01*
X50375026Y-112861235D01*
X50419000Y-112860667D01*
X50534171Y-112870743D01*
X50597548Y-112926869D01*
X50624553Y-113067894D01*
X50630611Y-113332665D01*
X50630667Y-113393817D01*
X50637803Y-113694838D01*
X50675591Y-113891415D01*
X50768594Y-114048329D01*
X50941379Y-114230358D01*
X50951737Y-114240484D01*
X51139122Y-114416148D01*
X51274856Y-114529915D01*
X51316128Y-114554000D01*
X51395597Y-114498644D01*
X51546874Y-114358560D01*
X51630058Y-114274803D01*
X51750533Y-114145102D01*
X51828593Y-114028201D01*
X51873443Y-113884374D01*
X51894285Y-113673893D01*
X51900322Y-113357032D01*
X51900667Y-113106652D01*
X51900667Y-112217699D01*
X51258527Y-111590667D01*
X49564366Y-111590667D01*
X49250850Y-111911737D01*
G36*
X52408667Y-111971667D02*
G01*
X52070000Y-112302366D01*
X52070000Y-113926968D01*
X52391070Y-114240484D01*
X52578339Y-114416132D01*
X52713816Y-114529901D01*
X52754887Y-114554000D01*
X52833003Y-114498524D01*
X52987582Y-114356108D01*
X53111151Y-114232930D01*
X53424667Y-113911861D01*
X53424667Y-112302366D01*
X52747333Y-111640968D01*
X52408667Y-111971667D01*
X52408667Y-111971667D01*
G37*
X52408667Y-111971667D02*
X52070000Y-112302366D01*
X52070000Y-113926968D01*
X52391070Y-114240484D01*
X52578339Y-114416132D01*
X52713816Y-114529901D01*
X52754887Y-114554000D01*
X52833003Y-114498524D01*
X52987582Y-114356108D01*
X53111151Y-114232930D01*
X53424667Y-113911861D01*
X53424667Y-112302366D01*
X52747333Y-111640968D01*
X52408667Y-111971667D01*
G36*
X55262183Y-111911737D02*
G01*
X55018246Y-112234827D01*
X54940840Y-112541518D01*
X55029536Y-112843642D01*
X55219276Y-113089469D01*
X55489884Y-113368667D01*
X55198801Y-113668988D01*
X54907718Y-113969310D01*
X55245693Y-114258476D01*
X55404839Y-114389652D01*
X55541171Y-114473734D01*
X55697994Y-114521374D01*
X55918610Y-114543222D01*
X56246323Y-114549928D01*
X56434317Y-114550821D01*
X57284968Y-114554000D01*
X57598484Y-114232930D01*
X57912000Y-113911861D01*
X57912000Y-112268488D01*
X57605815Y-111929577D01*
X57299629Y-111590667D01*
X55575699Y-111590667D01*
X55262183Y-111911737D01*
X55262183Y-111911737D01*
G37*
X55262183Y-111911737D02*
X55018246Y-112234827D01*
X54940840Y-112541518D01*
X55029536Y-112843642D01*
X55219276Y-113089469D01*
X55489884Y-113368667D01*
X55198801Y-113668988D01*
X54907718Y-113969310D01*
X55245693Y-114258476D01*
X55404839Y-114389652D01*
X55541171Y-114473734D01*
X55697994Y-114521374D01*
X55918610Y-114543222D01*
X56246323Y-114549928D01*
X56434317Y-114550821D01*
X57284968Y-114554000D01*
X57598484Y-114232930D01*
X57912000Y-113911861D01*
X57912000Y-112268488D01*
X57605815Y-111929577D01*
X57299629Y-111590667D01*
X55575699Y-111590667D01*
X55262183Y-111911737D01*
G36*
X58669153Y-110585679D02*
G01*
X58420000Y-110786334D01*
X58132783Y-111082667D01*
X58420000Y-111379000D01*
X58707218Y-111675334D01*
X58436346Y-111954803D01*
X58165473Y-112234272D01*
X58462070Y-112521745D01*
X58617506Y-112682629D01*
X58706269Y-112824528D01*
X58746974Y-113003256D01*
X58758235Y-113274623D01*
X58758667Y-113411000D01*
X58764023Y-113732444D01*
X58791842Y-113939687D01*
X58859744Y-114087795D01*
X58985354Y-114231831D01*
X59037864Y-114283391D01*
X59212767Y-114444674D01*
X59334183Y-114541505D01*
X59359922Y-114554000D01*
X59439105Y-114498654D01*
X59590197Y-114358591D01*
X59673391Y-114274803D01*
X59944000Y-113995605D01*
X59944000Y-111031218D01*
X59664803Y-110760609D01*
X59337062Y-110534259D01*
X59001622Y-110476023D01*
X58669153Y-110585679D01*
X58669153Y-110585679D01*
G37*
X58669153Y-110585679D02*
X58420000Y-110786334D01*
X58132783Y-111082667D01*
X58420000Y-111379000D01*
X58707218Y-111675334D01*
X58436346Y-111954803D01*
X58165473Y-112234272D01*
X58462070Y-112521745D01*
X58617506Y-112682629D01*
X58706269Y-112824528D01*
X58746974Y-113003256D01*
X58758235Y-113274623D01*
X58758667Y-113411000D01*
X58764023Y-113732444D01*
X58791842Y-113939687D01*
X58859744Y-114087795D01*
X58985354Y-114231831D01*
X59037864Y-114283391D01*
X59212767Y-114444674D01*
X59334183Y-114541505D01*
X59359922Y-114554000D01*
X59439105Y-114498654D01*
X59590197Y-114358591D01*
X59673391Y-114274803D01*
X59944000Y-113995605D01*
X59944000Y-111031218D01*
X59664803Y-110760609D01*
X59337062Y-110534259D01*
X59001622Y-110476023D01*
X58669153Y-110585679D01*
G36*
X60507577Y-111915771D02*
G01*
X60198000Y-112232806D01*
X60198000Y-114012783D01*
X60477198Y-114283391D01*
X60651968Y-114444658D01*
X60773095Y-114541493D01*
X60798681Y-114554000D01*
X60876530Y-114498533D01*
X61030922Y-114356135D01*
X61154484Y-114232930D01*
X61468000Y-113911861D01*
X61464528Y-113111097D01*
X61461055Y-112310334D01*
X60817153Y-111598736D01*
X60507577Y-111915771D01*
X60507577Y-111915771D01*
G37*
X60507577Y-111915771D02*
X60198000Y-112232806D01*
X60198000Y-114012783D01*
X60477198Y-114283391D01*
X60651968Y-114444658D01*
X60773095Y-114541493D01*
X60798681Y-114554000D01*
X60876530Y-114498533D01*
X61030922Y-114356135D01*
X61154484Y-114232930D01*
X61468000Y-113911861D01*
X61464528Y-113111097D01*
X61461055Y-112310334D01*
X60817153Y-111598736D01*
X60507577Y-111915771D01*
G36*
X62018629Y-110743714D02*
G01*
X61722000Y-111031218D01*
X61722000Y-114012783D01*
X62001198Y-114283391D01*
X62175968Y-114444658D01*
X62297095Y-114541493D01*
X62322681Y-114554000D01*
X62400530Y-114498533D01*
X62554922Y-114356135D01*
X62678484Y-114232930D01*
X62992000Y-113911861D01*
X62992000Y-111117033D01*
X62653629Y-110786622D01*
X62315257Y-110456211D01*
X62018629Y-110743714D01*
X62018629Y-110743714D01*
G37*
X62018629Y-110743714D02*
X61722000Y-111031218D01*
X61722000Y-114012783D01*
X62001198Y-114283391D01*
X62175968Y-114444658D01*
X62297095Y-114541493D01*
X62322681Y-114554000D01*
X62400530Y-114498533D01*
X62554922Y-114356135D01*
X62678484Y-114232930D01*
X62992000Y-113911861D01*
X62992000Y-111117033D01*
X62653629Y-110786622D01*
X62315257Y-110456211D01*
X62018629Y-110743714D01*
G36*
X63559516Y-111911737D02*
G01*
X63246000Y-112232806D01*
X63246000Y-114014843D01*
X63550494Y-114284422D01*
X63694378Y-114406070D01*
X63822634Y-114484201D01*
X63976997Y-114528444D01*
X64199198Y-114548431D01*
X64530970Y-114553793D01*
X64718645Y-114554000D01*
X65582301Y-114554000D01*
X65895817Y-114232930D01*
X66132505Y-113930792D01*
X66208949Y-113656063D01*
X66125529Y-113382550D01*
X65912114Y-113113759D01*
X65614895Y-112809379D01*
X65869781Y-112565182D01*
X66028802Y-112397197D01*
X66117812Y-112272827D01*
X66124667Y-112249903D01*
X66072113Y-112149972D01*
X65938981Y-111978192D01*
X65857063Y-111884744D01*
X65589459Y-111590667D01*
X63873033Y-111590667D01*
X63559516Y-111911737D01*
X63559516Y-111911737D01*
G37*
X63559516Y-111911737D02*
X63246000Y-112232806D01*
X63246000Y-114014843D01*
X63550494Y-114284422D01*
X63694378Y-114406070D01*
X63822634Y-114484201D01*
X63976997Y-114528444D01*
X64199198Y-114548431D01*
X64530970Y-114553793D01*
X64718645Y-114554000D01*
X65582301Y-114554000D01*
X65895817Y-114232930D01*
X66132505Y-113930792D01*
X66208949Y-113656063D01*
X66125529Y-113382550D01*
X65912114Y-113113759D01*
X65614895Y-112809379D01*
X65869781Y-112565182D01*
X66028802Y-112397197D01*
X66117812Y-112272827D01*
X66124667Y-112249903D01*
X66072113Y-112149972D01*
X65938981Y-111978192D01*
X65857063Y-111884744D01*
X65589459Y-111590667D01*
X63873033Y-111590667D01*
X63559516Y-111911737D01*
G36*
X67166262Y-111597047D02*
G01*
X66967469Y-111631681D01*
X66812871Y-111717809D01*
X66639932Y-111878672D01*
X66607309Y-111911949D01*
X66293586Y-112233230D01*
X66614863Y-112546949D01*
X66909862Y-112779230D01*
X67160730Y-112860632D01*
X67165403Y-112860667D01*
X67286355Y-112867830D01*
X67354910Y-112914281D01*
X67385940Y-113037458D01*
X67394322Y-113274801D01*
X67394667Y-113437755D01*
X67399832Y-113749153D01*
X67428837Y-113947598D01*
X67501944Y-114089431D01*
X67639416Y-114230994D01*
X67699161Y-114284422D01*
X67889227Y-114442545D01*
X68027897Y-114539534D01*
X68063552Y-114554000D01*
X68153330Y-114498300D01*
X68311266Y-114357442D01*
X68394058Y-114274803D01*
X68514533Y-114145102D01*
X68592593Y-114028201D01*
X68637443Y-113884374D01*
X68658285Y-113673893D01*
X68664322Y-113357032D01*
X68664667Y-113106652D01*
X68664667Y-112217699D01*
X68343597Y-111904183D01*
X68156499Y-111733232D01*
X67997375Y-111639260D01*
X67802578Y-111599378D01*
X67508460Y-111590700D01*
X67471780Y-111590667D01*
X67166262Y-111597047D01*
X67166262Y-111597047D01*
G37*
X67166262Y-111597047D02*
X66967469Y-111631681D01*
X66812871Y-111717809D01*
X66639932Y-111878672D01*
X66607309Y-111911949D01*
X66293586Y-112233230D01*
X66614863Y-112546949D01*
X66909862Y-112779230D01*
X67160730Y-112860632D01*
X67165403Y-112860667D01*
X67286355Y-112867830D01*
X67354910Y-112914281D01*
X67385940Y-113037458D01*
X67394322Y-113274801D01*
X67394667Y-113437755D01*
X67399832Y-113749153D01*
X67428837Y-113947598D01*
X67501944Y-114089431D01*
X67639416Y-114230994D01*
X67699161Y-114284422D01*
X67889227Y-114442545D01*
X68027897Y-114539534D01*
X68063552Y-114554000D01*
X68153330Y-114498300D01*
X68311266Y-114357442D01*
X68394058Y-114274803D01*
X68514533Y-114145102D01*
X68592593Y-114028201D01*
X68637443Y-113884374D01*
X68658285Y-113673893D01*
X68664322Y-113357032D01*
X68664667Y-113106652D01*
X68664667Y-112217699D01*
X68343597Y-111904183D01*
X68156499Y-111733232D01*
X67997375Y-111639260D01*
X67802578Y-111599378D01*
X67508460Y-111590700D01*
X67471780Y-111590667D01*
X67166262Y-111597047D01*
G36*
X69854159Y-110548979D02*
G01*
X69689184Y-110698767D01*
X69597631Y-110797412D01*
X69449100Y-110981049D01*
X69371663Y-111141582D01*
X69346762Y-111343546D01*
X69355251Y-111640176D01*
X69364388Y-111940003D01*
X69340167Y-112133800D01*
X69262798Y-112284326D01*
X69112493Y-112454339D01*
X69091782Y-112475765D01*
X68800783Y-112776000D01*
X69092558Y-113078235D01*
X69384333Y-113380469D01*
X69109167Y-113627374D01*
X68941645Y-113787058D01*
X68844121Y-113898143D01*
X68834000Y-113919302D01*
X68889533Y-113999110D01*
X69031279Y-114153043D01*
X69137602Y-114259163D01*
X69442859Y-114488112D01*
X69733380Y-114554035D01*
X70030275Y-114456840D01*
X70294500Y-114254237D01*
X70612000Y-113959055D01*
X70612000Y-111031218D01*
X70332803Y-110760609D01*
X70146146Y-110597928D01*
X69999092Y-110501441D01*
X69960574Y-110490000D01*
X69854159Y-110548979D01*
X69854159Y-110548979D01*
G37*
X69854159Y-110548979D02*
X69689184Y-110698767D01*
X69597631Y-110797412D01*
X69449100Y-110981049D01*
X69371663Y-111141582D01*
X69346762Y-111343546D01*
X69355251Y-111640176D01*
X69364388Y-111940003D01*
X69340167Y-112133800D01*
X69262798Y-112284326D01*
X69112493Y-112454339D01*
X69091782Y-112475765D01*
X68800783Y-112776000D01*
X69092558Y-113078235D01*
X69384333Y-113380469D01*
X69109167Y-113627374D01*
X68941645Y-113787058D01*
X68844121Y-113898143D01*
X68834000Y-113919302D01*
X68889533Y-113999110D01*
X69031279Y-114153043D01*
X69137602Y-114259163D01*
X69442859Y-114488112D01*
X69733380Y-114554035D01*
X70030275Y-114456840D01*
X70294500Y-114254237D01*
X70612000Y-113959055D01*
X70612000Y-111031218D01*
X70332803Y-110760609D01*
X70146146Y-110597928D01*
X69999092Y-110501441D01*
X69960574Y-110490000D01*
X69854159Y-110548979D01*
G36*
X73176923Y-111600699D02*
G01*
X72998787Y-111651099D01*
X72850485Y-111772320D01*
X72735794Y-111905123D01*
X72476592Y-112219579D01*
X72154560Y-111905123D01*
X71940258Y-111715299D01*
X71754037Y-111622094D01*
X71515286Y-111592284D01*
X71391597Y-111590667D01*
X70950667Y-111590667D01*
X70950667Y-112031597D01*
X70964939Y-112312780D01*
X71029961Y-112510005D01*
X71179040Y-112704227D01*
X71264183Y-112793597D01*
X71577699Y-113114667D01*
X71264183Y-113435737D01*
X71072109Y-113654907D01*
X70979050Y-113846152D01*
X70951338Y-114086755D01*
X70950667Y-114155403D01*
X70950667Y-114554000D01*
X71399725Y-114554000D01*
X71682871Y-114540800D01*
X71874517Y-114480500D01*
X72051731Y-114342050D01*
X72136481Y-114257171D01*
X72424179Y-113960342D01*
X72728159Y-114257171D01*
X72936330Y-114438717D01*
X73125266Y-114526473D01*
X73376857Y-114553068D01*
X73473070Y-114554000D01*
X73914000Y-114554000D01*
X73914000Y-114104942D01*
X73900800Y-113821796D01*
X73840500Y-113630150D01*
X73702050Y-113452936D01*
X73617171Y-113368186D01*
X73320342Y-113080488D01*
X73617171Y-112776508D01*
X73798717Y-112568337D01*
X73886473Y-112379401D01*
X73913068Y-112127810D01*
X73914000Y-112031597D01*
X73914000Y-111590667D01*
X73454498Y-111590667D01*
X73176923Y-111600699D01*
X73176923Y-111600699D01*
G37*
X73176923Y-111600699D02*
X72998787Y-111651099D01*
X72850485Y-111772320D01*
X72735794Y-111905123D01*
X72476592Y-112219579D01*
X72154560Y-111905123D01*
X71940258Y-111715299D01*
X71754037Y-111622094D01*
X71515286Y-111592284D01*
X71391597Y-111590667D01*
X70950667Y-111590667D01*
X70950667Y-112031597D01*
X70964939Y-112312780D01*
X71029961Y-112510005D01*
X71179040Y-112704227D01*
X71264183Y-112793597D01*
X71577699Y-113114667D01*
X71264183Y-113435737D01*
X71072109Y-113654907D01*
X70979050Y-113846152D01*
X70951338Y-114086755D01*
X70950667Y-114155403D01*
X70950667Y-114554000D01*
X71399725Y-114554000D01*
X71682871Y-114540800D01*
X71874517Y-114480500D01*
X72051731Y-114342050D01*
X72136481Y-114257171D01*
X72424179Y-113960342D01*
X72728159Y-114257171D01*
X72936330Y-114438717D01*
X73125266Y-114526473D01*
X73376857Y-114553068D01*
X73473070Y-114554000D01*
X73914000Y-114554000D01*
X73914000Y-114104942D01*
X73900800Y-113821796D01*
X73840500Y-113630150D01*
X73702050Y-113452936D01*
X73617171Y-113368186D01*
X73320342Y-113080488D01*
X73617171Y-112776508D01*
X73798717Y-112568337D01*
X73886473Y-112379401D01*
X73913068Y-112127810D01*
X73914000Y-112031597D01*
X73914000Y-111590667D01*
X73454498Y-111590667D01*
X73176923Y-111600699D01*
G36*
X74470931Y-111944573D02*
G01*
X74241781Y-112277045D01*
X74169425Y-112571461D01*
X74253178Y-112852017D01*
X74438609Y-113089469D01*
X74709218Y-113368667D01*
X74438632Y-113647840D01*
X74168047Y-113927013D01*
X74489093Y-114240507D01*
X74810140Y-114554000D01*
X76590116Y-114554000D01*
X76860725Y-114274803D01*
X76981199Y-114145102D01*
X77059260Y-114028201D01*
X77104110Y-113884374D01*
X77124952Y-113673893D01*
X77130989Y-113357032D01*
X77131333Y-113106652D01*
X77131333Y-112217699D01*
X76810264Y-111904183D01*
X76489194Y-111590667D01*
X74773862Y-111590667D01*
X74470931Y-111944573D01*
X74470931Y-111944573D01*
G37*
X74470931Y-111944573D02*
X74241781Y-112277045D01*
X74169425Y-112571461D01*
X74253178Y-112852017D01*
X74438609Y-113089469D01*
X74709218Y-113368667D01*
X74438632Y-113647840D01*
X74168047Y-113927013D01*
X74489093Y-114240507D01*
X74810140Y-114554000D01*
X76590116Y-114554000D01*
X76860725Y-114274803D01*
X76981199Y-114145102D01*
X77059260Y-114028201D01*
X77104110Y-113884374D01*
X77124952Y-113673893D01*
X77130989Y-113357032D01*
X77131333Y-113106652D01*
X77131333Y-112217699D01*
X76810264Y-111904183D01*
X76489194Y-111590667D01*
X74773862Y-111590667D01*
X74470931Y-111944573D01*
G36*
X83686705Y-107980974D02*
G01*
X83491632Y-108061808D01*
X83252683Y-108164160D01*
X82976431Y-108293158D01*
X82805800Y-108415915D01*
X82688400Y-108586926D01*
X82571842Y-108860689D01*
X82564222Y-108880306D01*
X82369572Y-109382292D01*
X81407000Y-108954470D01*
X80941333Y-109141769D01*
X80680293Y-109251584D01*
X80484891Y-109342654D01*
X80411490Y-109385277D01*
X80410004Y-109485373D01*
X80467991Y-109693446D01*
X80571617Y-109961336D01*
X80712481Y-110258614D01*
X80842271Y-110441477D01*
X81000938Y-110556972D01*
X81124830Y-110612788D01*
X81453739Y-110744392D01*
X81026842Y-111301365D01*
X80569256Y-111968711D01*
X80248662Y-112611158D01*
X80047044Y-113271974D01*
X79956564Y-113871671D01*
X79969058Y-114511872D01*
X80107353Y-115185743D01*
X80354149Y-115836423D01*
X80692145Y-116407055D01*
X80751677Y-116484795D01*
X80868573Y-116614767D01*
X80951069Y-116618024D01*
X81044587Y-116527129D01*
X81112389Y-116433217D01*
X81119648Y-116332003D01*
X81055836Y-116179878D01*
X80910427Y-115933232D01*
X80895297Y-115908667D01*
X80661470Y-115446325D01*
X80479002Y-114924827D01*
X80369873Y-114415662D01*
X80348667Y-114130667D01*
X80414395Y-113566279D01*
X80602510Y-112938169D01*
X80899409Y-112283516D01*
X81223783Y-111738997D01*
X81394276Y-111503305D01*
X81517237Y-111369851D01*
X81577507Y-111347263D01*
X81559927Y-111444174D01*
X81494727Y-111584749D01*
X81432730Y-111724976D01*
X81419118Y-111854600D01*
X81461301Y-112022718D01*
X81566691Y-112278427D01*
X81616198Y-112389498D01*
X81865958Y-112946165D01*
X82345514Y-112734083D01*
X82600222Y-112623228D01*
X82784313Y-112546473D01*
X82852320Y-112522000D01*
X82892869Y-112449218D01*
X82972015Y-112259124D01*
X83064797Y-112014000D01*
X83164137Y-111752780D01*
X83241678Y-111569446D01*
X83278597Y-111506000D01*
X83364813Y-111537493D01*
X83560414Y-111619421D01*
X83782038Y-111716009D01*
X84256905Y-111926017D01*
X84736953Y-111721398D01*
X85006596Y-111593479D01*
X85154445Y-111468630D01*
X85190481Y-111308282D01*
X85124684Y-111073866D01*
X84984776Y-110763769D01*
X84845636Y-110514148D01*
X84686932Y-110356091D01*
X84445317Y-110232920D01*
X84349167Y-110195050D01*
X84153570Y-110107843D01*
X83529891Y-110107843D01*
X83484033Y-110231525D01*
X83405582Y-110457692D01*
X83344710Y-110638167D01*
X83253202Y-110881955D01*
X83173106Y-111043408D01*
X83134739Y-111082667D01*
X83028179Y-111054492D01*
X82814904Y-110981439D01*
X82599867Y-110901583D01*
X82348799Y-110794807D01*
X82177216Y-110701372D01*
X82126667Y-110650759D01*
X82158420Y-110487983D01*
X82238641Y-110261069D01*
X82344773Y-110018932D01*
X82454256Y-109810490D01*
X82544535Y-109684660D01*
X82579450Y-109668896D01*
X82709525Y-109716566D01*
X82939760Y-109799262D01*
X83121886Y-109864119D01*
X83357806Y-109963859D01*
X83503966Y-110057085D01*
X83529891Y-110107843D01*
X84153570Y-110107843D01*
X84106313Y-110086774D01*
X83944862Y-109984816D01*
X83904667Y-109929849D01*
X83936903Y-109801980D01*
X84019178Y-109581397D01*
X84080800Y-109436014D01*
X84256933Y-109037836D01*
X84025765Y-108493918D01*
X83908326Y-108225041D01*
X83817367Y-108030612D01*
X83771514Y-107950323D01*
X83770546Y-107950000D01*
X83686705Y-107980974D01*
X83686705Y-107980974D01*
G37*
X83686705Y-107980974D02*
X83491632Y-108061808D01*
X83252683Y-108164160D01*
X82976431Y-108293158D01*
X82805800Y-108415915D01*
X82688400Y-108586926D01*
X82571842Y-108860689D01*
X82564222Y-108880306D01*
X82369572Y-109382292D01*
X81407000Y-108954470D01*
X80941333Y-109141769D01*
X80680293Y-109251584D01*
X80484891Y-109342654D01*
X80411490Y-109385277D01*
X80410004Y-109485373D01*
X80467991Y-109693446D01*
X80571617Y-109961336D01*
X80712481Y-110258614D01*
X80842271Y-110441477D01*
X81000938Y-110556972D01*
X81124830Y-110612788D01*
X81453739Y-110744392D01*
X81026842Y-111301365D01*
X80569256Y-111968711D01*
X80248662Y-112611158D01*
X80047044Y-113271974D01*
X79956564Y-113871671D01*
X79969058Y-114511872D01*
X80107353Y-115185743D01*
X80354149Y-115836423D01*
X80692145Y-116407055D01*
X80751677Y-116484795D01*
X80868573Y-116614767D01*
X80951069Y-116618024D01*
X81044587Y-116527129D01*
X81112389Y-116433217D01*
X81119648Y-116332003D01*
X81055836Y-116179878D01*
X80910427Y-115933232D01*
X80895297Y-115908667D01*
X80661470Y-115446325D01*
X80479002Y-114924827D01*
X80369873Y-114415662D01*
X80348667Y-114130667D01*
X80414395Y-113566279D01*
X80602510Y-112938169D01*
X80899409Y-112283516D01*
X81223783Y-111738997D01*
X81394276Y-111503305D01*
X81517237Y-111369851D01*
X81577507Y-111347263D01*
X81559927Y-111444174D01*
X81494727Y-111584749D01*
X81432730Y-111724976D01*
X81419118Y-111854600D01*
X81461301Y-112022718D01*
X81566691Y-112278427D01*
X81616198Y-112389498D01*
X81865958Y-112946165D01*
X82345514Y-112734083D01*
X82600222Y-112623228D01*
X82784313Y-112546473D01*
X82852320Y-112522000D01*
X82892869Y-112449218D01*
X82972015Y-112259124D01*
X83064797Y-112014000D01*
X83164137Y-111752780D01*
X83241678Y-111569446D01*
X83278597Y-111506000D01*
X83364813Y-111537493D01*
X83560414Y-111619421D01*
X83782038Y-111716009D01*
X84256905Y-111926017D01*
X84736953Y-111721398D01*
X85006596Y-111593479D01*
X85154445Y-111468630D01*
X85190481Y-111308282D01*
X85124684Y-111073866D01*
X84984776Y-110763769D01*
X84845636Y-110514148D01*
X84686932Y-110356091D01*
X84445317Y-110232920D01*
X84349167Y-110195050D01*
X84153570Y-110107843D01*
X83529891Y-110107843D01*
X83484033Y-110231525D01*
X83405582Y-110457692D01*
X83344710Y-110638167D01*
X83253202Y-110881955D01*
X83173106Y-111043408D01*
X83134739Y-111082667D01*
X83028179Y-111054492D01*
X82814904Y-110981439D01*
X82599867Y-110901583D01*
X82348799Y-110794807D01*
X82177216Y-110701372D01*
X82126667Y-110650759D01*
X82158420Y-110487983D01*
X82238641Y-110261069D01*
X82344773Y-110018932D01*
X82454256Y-109810490D01*
X82544535Y-109684660D01*
X82579450Y-109668896D01*
X82709525Y-109716566D01*
X82939760Y-109799262D01*
X83121886Y-109864119D01*
X83357806Y-109963859D01*
X83503966Y-110057085D01*
X83529891Y-110107843D01*
X84153570Y-110107843D01*
X84106313Y-110086774D01*
X83944862Y-109984816D01*
X83904667Y-109929849D01*
X83936903Y-109801980D01*
X84019178Y-109581397D01*
X84080800Y-109436014D01*
X84256933Y-109037836D01*
X84025765Y-108493918D01*
X83908326Y-108225041D01*
X83817367Y-108030612D01*
X83771514Y-107950323D01*
X83770546Y-107950000D01*
X83686705Y-107980974D01*
D12*
X65830000Y-48330000D02*
X65830000Y-47000000D01*
X64500000Y-48330000D02*
X65830000Y-48330000D01*
X63230000Y-48330000D02*
X63230000Y-45670000D01*
X63230000Y-45670000D02*
X40310000Y-45670000D01*
X63230000Y-48330000D02*
X40310000Y-48330000D01*
X40310000Y-48330000D02*
X40310000Y-45670000D01*
X99830000Y-104830000D02*
X99830000Y-103500000D01*
X98500000Y-104830000D02*
X99830000Y-104830000D01*
X97230000Y-104830000D02*
X97230000Y-102170000D01*
X97230000Y-102170000D02*
X59070000Y-102170000D01*
X97230000Y-104830000D02*
X59070000Y-104830000D01*
X59070000Y-104830000D02*
X59070000Y-102170000D01*
D10*
X67377619Y-48285714D02*
X66663333Y-48285714D01*
X66520476Y-48333333D01*
X66425238Y-48428571D01*
X66377619Y-48571428D01*
X66377619Y-48666666D01*
X66377619Y-47285714D02*
X66377619Y-47857142D01*
X66377619Y-47571428D02*
X67377619Y-47571428D01*
X67234761Y-47666666D01*
X67139523Y-47761904D01*
X67091904Y-47857142D01*
X67377619Y-46666666D02*
X67377619Y-46571428D01*
X67330000Y-46476190D01*
X67282380Y-46428571D01*
X67187142Y-46380952D01*
X66996666Y-46333333D01*
X66758571Y-46333333D01*
X66568095Y-46380952D01*
X66472857Y-46428571D01*
X66425238Y-46476190D01*
X66377619Y-46571428D01*
X66377619Y-46666666D01*
X66425238Y-46761904D01*
X66472857Y-46809523D01*
X66568095Y-46857142D01*
X66758571Y-46904761D01*
X66996666Y-46904761D01*
X67187142Y-46857142D01*
X67282380Y-46809523D01*
X67330000Y-46761904D01*
X67377619Y-46666666D01*
X66377619Y-45380952D02*
X66377619Y-45952380D01*
X66377619Y-45666666D02*
X67377619Y-45666666D01*
X67234761Y-45761904D01*
X67139523Y-45857142D01*
X67091904Y-45952380D01*
X101377619Y-104785714D02*
X100663333Y-104785714D01*
X100520476Y-104833333D01*
X100425238Y-104928571D01*
X100377619Y-105071428D01*
X100377619Y-105166666D01*
X100377619Y-103785714D02*
X100377619Y-104357142D01*
X100377619Y-104071428D02*
X101377619Y-104071428D01*
X101234761Y-104166666D01*
X101139523Y-104261904D01*
X101091904Y-104357142D01*
X101377619Y-103166666D02*
X101377619Y-103071428D01*
X101330000Y-102976190D01*
X101282380Y-102928571D01*
X101187142Y-102880952D01*
X100996666Y-102833333D01*
X100758571Y-102833333D01*
X100568095Y-102880952D01*
X100472857Y-102928571D01*
X100425238Y-102976190D01*
X100377619Y-103071428D01*
X100377619Y-103166666D01*
X100425238Y-103261904D01*
X100472857Y-103309523D01*
X100568095Y-103357142D01*
X100758571Y-103404761D01*
X100996666Y-103404761D01*
X101187142Y-103357142D01*
X101282380Y-103309523D01*
X101330000Y-103261904D01*
X101377619Y-103166666D01*
X101282380Y-102452380D02*
X101330000Y-102404761D01*
X101377619Y-102309523D01*
X101377619Y-102071428D01*
X101330000Y-101976190D01*
X101282380Y-101928571D01*
X101187142Y-101880952D01*
X101091904Y-101880952D01*
X100949047Y-101928571D01*
X100377619Y-102500000D01*
X100377619Y-101880952D01*
M02*
