G04 #@! TF.GenerationSoftware,KiCad,Pcbnew,(5.1.2)-1*
G04 #@! TF.CreationDate,2019-12-13T22:04:46-08:00*
G04 #@! TF.ProjectId,kicad-control-board-smt,6b696361-642d-4636-9f6e-74726f6c2d62,rev?*
G04 #@! TF.SameCoordinates,Original*
G04 #@! TF.FileFunction,Copper,L1,Top*
G04 #@! TF.FilePolarity,Positive*
%FSLAX46Y46*%
G04 Gerber Fmt 4.6, Leading zero omitted, Abs format (unit mm)*
G04 Created by KiCad (PCBNEW (5.1.2)-1) date 2019-12-13 22:04:46*
%MOMM*%
%LPD*%
G04 APERTURE LIST*
%ADD10C,1.800000*%
%ADD11R,1.800000X1.800000*%
%ADD12C,2.000000*%
%ADD13R,1.800000X3.500000*%
%ADD14C,4.000000*%
%ADD15R,1.600000X3.500000*%
%ADD16R,0.750000X1.200000*%
%ADD17R,1.200000X0.750000*%
%ADD18O,1.700000X1.700000*%
%ADD19R,1.700000X1.700000*%
%ADD20C,1.524000*%
%ADD21R,1.900000X0.800000*%
%ADD22R,0.900000X1.200000*%
%ADD23R,1.200000X0.900000*%
%ADD24R,2.000000X2.000000*%
%ADD25R,2.500000X3.000000*%
%ADD26R,0.600000X1.500000*%
%ADD27R,0.600000X2.000000*%
%ADD28R,1.500000X0.600000*%
%ADD29C,0.800000*%
%ADD30C,0.500000*%
%ADD31C,0.250000*%
%ADD32C,1.000000*%
%ADD33C,0.800000*%
%ADD34C,0.600000*%
G04 APERTURE END LIST*
D10*
X89514600Y-97684942D03*
D11*
X86974600Y-97684942D03*
D12*
X57035712Y-76250000D03*
X57035712Y-71750000D03*
X63535712Y-76250000D03*
X63535712Y-71750000D03*
X67607140Y-76250000D03*
X67607140Y-71750000D03*
X74107140Y-76250000D03*
X74107140Y-71750000D03*
X78178568Y-76250000D03*
X78178568Y-71750000D03*
X84678568Y-76250000D03*
X84678568Y-71750000D03*
X88750000Y-76250000D03*
X88750000Y-71750000D03*
X95250000Y-76250000D03*
X95250000Y-71750000D03*
X46464284Y-76250000D03*
X46464284Y-71750000D03*
X52964284Y-76250000D03*
X52964284Y-71750000D03*
X35892856Y-76250000D03*
X35892856Y-71750000D03*
X42392856Y-76250000D03*
X42392856Y-71750000D03*
X25321428Y-76250000D03*
X25321428Y-71750000D03*
X31821428Y-76250000D03*
X31821428Y-71750000D03*
X14750000Y-76250000D03*
X14750000Y-71750000D03*
X21250000Y-76250000D03*
X21250000Y-71750000D03*
X57035712Y-61250000D03*
X57035712Y-56750000D03*
X63535712Y-61250000D03*
X63535712Y-56750000D03*
X67607140Y-61250000D03*
X67607140Y-56750000D03*
X74107140Y-61250000D03*
X74107140Y-56750000D03*
X78178568Y-61250000D03*
X78178568Y-56750000D03*
X84678568Y-61250000D03*
X84678568Y-56750000D03*
X88750000Y-61250000D03*
X88750000Y-56750000D03*
X95250000Y-61250000D03*
X95250000Y-56750000D03*
X46464284Y-61250000D03*
X46464284Y-56750000D03*
X52964284Y-61250000D03*
X52964284Y-56750000D03*
X35892856Y-61250000D03*
X35892856Y-56750000D03*
X42392856Y-61250000D03*
X42392856Y-56750000D03*
X25321428Y-61250000D03*
X25321428Y-56750000D03*
X31821428Y-61250000D03*
X31821428Y-56750000D03*
X14750000Y-61250000D03*
X14750000Y-56750000D03*
X21250000Y-61250000D03*
X21250000Y-56750000D03*
X72697340Y-99934942D03*
X72697340Y-95434942D03*
X79197340Y-99934942D03*
X79197340Y-95434942D03*
X78178568Y-41169980D03*
X78178568Y-36669980D03*
X84678568Y-41169980D03*
X84678568Y-36669980D03*
X57035712Y-41169980D03*
X57035712Y-36669980D03*
X63535712Y-41169980D03*
X63535712Y-36669980D03*
X35892856Y-41169980D03*
X35892856Y-36669980D03*
X42392856Y-41169980D03*
X42392856Y-36669980D03*
X14750000Y-41169980D03*
X14750000Y-36669980D03*
X21250000Y-41169980D03*
X21250000Y-36669980D03*
D13*
X94040960Y-112100360D03*
X94040960Y-117100360D03*
D14*
X109400000Y-112500000D03*
X100600000Y-112500000D03*
D10*
X107500000Y-119500000D03*
X105000000Y-119500000D03*
X102500000Y-119500000D03*
D14*
X109400000Y-81750000D03*
X100600000Y-81750000D03*
D10*
X107500000Y-88750000D03*
X105000000Y-88750000D03*
X102500000Y-88750000D03*
D14*
X109400000Y-51000000D03*
X100600000Y-51000000D03*
D10*
X107500000Y-58000000D03*
X105000000Y-58000000D03*
X102500000Y-58000000D03*
D14*
X109400000Y-20250000D03*
X100600000Y-20250000D03*
D10*
X107500000Y-27250000D03*
X105000000Y-27250000D03*
X102500000Y-27250000D03*
D15*
X88000000Y-81300000D03*
X88000000Y-86700000D03*
D16*
X83000000Y-83050000D03*
X83000000Y-84950000D03*
X80000000Y-84950000D03*
X80000000Y-83050000D03*
D15*
X17000000Y-82300000D03*
X17000000Y-87700000D03*
D16*
X23000000Y-85950000D03*
X23000000Y-84050000D03*
X25000000Y-84050000D03*
X25000000Y-85950000D03*
D15*
X105000000Y-37700000D03*
X105000000Y-32300000D03*
D17*
X97200000Y-30750000D03*
X95300000Y-30750000D03*
X95300000Y-28000000D03*
X97200000Y-28000000D03*
D10*
X19265000Y-52000000D03*
D11*
X16725000Y-52000000D03*
X27296428Y-52000000D03*
D10*
X29836428Y-52000000D03*
X40407856Y-52000000D03*
D11*
X37867856Y-52000000D03*
X48439284Y-52000000D03*
D10*
X50979284Y-52000000D03*
X93265000Y-52000000D03*
D11*
X90725000Y-52000000D03*
X80153568Y-52000000D03*
D10*
X82693568Y-52000000D03*
D11*
X69582140Y-52000000D03*
D10*
X72122140Y-52000000D03*
D11*
X59010712Y-52000000D03*
D10*
X61550712Y-52000000D03*
D11*
X16725000Y-67000000D03*
D10*
X19265000Y-67000000D03*
X29836428Y-67000000D03*
D11*
X27296428Y-67000000D03*
X37867856Y-67000000D03*
D10*
X40407856Y-67000000D03*
X50979284Y-67000000D03*
D11*
X48439284Y-67000000D03*
D10*
X93265000Y-67000000D03*
D11*
X90725000Y-67000000D03*
X80153568Y-67000000D03*
D10*
X82693568Y-67000000D03*
X72122140Y-67000000D03*
D11*
X69582140Y-67000000D03*
X59010712Y-67000000D03*
D10*
X61550712Y-67000000D03*
X89540000Y-113000000D03*
D11*
X87000000Y-113000000D03*
D18*
X41640000Y-47000000D03*
X44180000Y-47000000D03*
X46720000Y-47000000D03*
X49260000Y-47000000D03*
X51800000Y-47000000D03*
X54340000Y-47000000D03*
X56880000Y-47000000D03*
X59420000Y-47000000D03*
X61960000Y-47000000D03*
D19*
X64500000Y-47000000D03*
D18*
X60400000Y-103500000D03*
X62940000Y-103500000D03*
X65480000Y-103500000D03*
X68020000Y-103500000D03*
X70560000Y-103500000D03*
X73100000Y-103500000D03*
X75640000Y-103500000D03*
X78180000Y-103500000D03*
X80720000Y-103500000D03*
X83260000Y-103500000D03*
X85800000Y-103500000D03*
X88340000Y-103500000D03*
X90880000Y-103500000D03*
X93420000Y-103500000D03*
X95960000Y-103500000D03*
D19*
X98500000Y-103500000D03*
D20*
X52150000Y-15380000D03*
X54690000Y-15380000D03*
X57230000Y-15380000D03*
X59770000Y-15380000D03*
X62310000Y-15380000D03*
X64850000Y-15380000D03*
X64850000Y-30620000D03*
X62310000Y-30620000D03*
X59770000Y-30620000D03*
X57230000Y-30620000D03*
X54690000Y-30620000D03*
X52150000Y-30620000D03*
D10*
X78500000Y-116380000D03*
X78500000Y-119480000D03*
X78500000Y-108080000D03*
X66440000Y-116380000D03*
X66440000Y-119480000D03*
X66440000Y-108080000D03*
X18200000Y-108080000D03*
X18200000Y-119480000D03*
X18200000Y-116380000D03*
X54380000Y-108080000D03*
X54380000Y-119480000D03*
X54380000Y-116380000D03*
X42320000Y-108080000D03*
X42320000Y-119480000D03*
X42320000Y-116380000D03*
X30260000Y-116380000D03*
X30260000Y-119480000D03*
X30260000Y-108080000D03*
D21*
X34500000Y-17000000D03*
X37500000Y-16050000D03*
X37500000Y-17950000D03*
X37500000Y-23950000D03*
X37500000Y-22050000D03*
X34500000Y-23000000D03*
X34500000Y-29000000D03*
X37500000Y-28050000D03*
X37500000Y-29950000D03*
X39500000Y-96050000D03*
X39500000Y-97950000D03*
X42500000Y-97000000D03*
X34500000Y-97000000D03*
X31500000Y-97950000D03*
X31500000Y-96050000D03*
D22*
X51000000Y-83900000D03*
X51000000Y-86100000D03*
X55000000Y-83900000D03*
X55000000Y-86100000D03*
D23*
X96327140Y-98110040D03*
X94127140Y-98110040D03*
D22*
X59000000Y-86100000D03*
X59000000Y-83900000D03*
X63000000Y-83900000D03*
X63000000Y-86100000D03*
D23*
X80900000Y-15800000D03*
X83100000Y-15800000D03*
X80900000Y-19000000D03*
X83100000Y-19000000D03*
X83100000Y-22000000D03*
X80900000Y-22000000D03*
X83100000Y-25000000D03*
X80900000Y-25000000D03*
X83100000Y-28000000D03*
X80900000Y-28000000D03*
X80900000Y-31000000D03*
X83100000Y-31000000D03*
X88400000Y-28000000D03*
X90600000Y-28000000D03*
X90600000Y-31000000D03*
X88400000Y-31000000D03*
X89362460Y-107919520D03*
X87162460Y-107919520D03*
D22*
X54000000Y-40100000D03*
X54000000Y-37900000D03*
X51000000Y-37900000D03*
X51000000Y-40100000D03*
X48000000Y-40100000D03*
X48000000Y-37900000D03*
D23*
X92768240Y-107919520D03*
X94968240Y-107919520D03*
D22*
X45000000Y-101900000D03*
X45000000Y-104100000D03*
X41900000Y-104110000D03*
X41900000Y-101910000D03*
X38800000Y-104100000D03*
X38800000Y-101900000D03*
X35700000Y-101900000D03*
X35700000Y-104100000D03*
X32600000Y-104100000D03*
X32600000Y-101900000D03*
X29500000Y-104100000D03*
X29500000Y-101900000D03*
D12*
X18500000Y-96000000D03*
X23500000Y-96000000D03*
X23500000Y-101000000D03*
X18500000Y-101000000D03*
X50500000Y-101000000D03*
X55500000Y-101000000D03*
X55500000Y-96000000D03*
X50500000Y-96000000D03*
D24*
X20500000Y-27500000D03*
D12*
X23000000Y-27500000D03*
X25500000Y-27500000D03*
D25*
X17400000Y-20000000D03*
X28600000Y-20000000D03*
D26*
X76445000Y-86700000D03*
X75175000Y-86700000D03*
X73905000Y-86700000D03*
X72635000Y-86700000D03*
X71365000Y-86700000D03*
X70095000Y-86700000D03*
X68825000Y-86700000D03*
X67555000Y-86700000D03*
X67555000Y-81300000D03*
X68825000Y-81300000D03*
X70095000Y-81300000D03*
X71365000Y-81300000D03*
X72635000Y-81300000D03*
X73905000Y-81300000D03*
X75175000Y-81300000D03*
X76445000Y-81300000D03*
D27*
X28745000Y-90700000D03*
X30015000Y-90700000D03*
X31285000Y-90700000D03*
X32555000Y-90700000D03*
X33825000Y-90700000D03*
X35095000Y-90700000D03*
X36365000Y-90700000D03*
X37635000Y-90700000D03*
X38905000Y-90700000D03*
X40175000Y-90700000D03*
X41445000Y-90700000D03*
X42715000Y-90700000D03*
X43985000Y-90700000D03*
X45255000Y-90700000D03*
X45255000Y-81300000D03*
X43985000Y-81300000D03*
X42715000Y-81300000D03*
X41445000Y-81300000D03*
X40175000Y-81300000D03*
X38905000Y-81300000D03*
X37635000Y-81300000D03*
X36365000Y-81300000D03*
X35095000Y-81300000D03*
X33825000Y-81300000D03*
X32555000Y-81300000D03*
X31285000Y-81300000D03*
X30015000Y-81300000D03*
X28745000Y-81300000D03*
D28*
X93700000Y-15555000D03*
X93700000Y-16825000D03*
X93700000Y-18095000D03*
X93700000Y-19365000D03*
X93700000Y-20635000D03*
X93700000Y-21905000D03*
X93700000Y-23175000D03*
X93700000Y-24445000D03*
X88300000Y-24445000D03*
X88300000Y-23175000D03*
X88300000Y-21905000D03*
X88300000Y-20635000D03*
X88300000Y-19365000D03*
X88300000Y-18095000D03*
X88300000Y-16825000D03*
X88300000Y-15555000D03*
D14*
X64571880Y-96000000D03*
D29*
X81450000Y-83050000D03*
X66200000Y-81200000D03*
X44000000Y-83200000D03*
X88250000Y-26000000D03*
X91500000Y-19500000D03*
X30500000Y-99500000D03*
X38000000Y-100000000D03*
X40500000Y-100000000D03*
X40500000Y-93000000D03*
X21000000Y-81750000D03*
X95250000Y-33750000D03*
X85798660Y-109915960D03*
X102500000Y-119500000D03*
X72500000Y-90500000D03*
X58500000Y-93000000D03*
X39000000Y-94500000D03*
X51000000Y-81600000D03*
X55000000Y-81600000D03*
X48000000Y-42000000D03*
X51000000Y-42000000D03*
X54000000Y-42000000D03*
X92000000Y-41250000D03*
X92000000Y-37500000D03*
X90500000Y-38500000D03*
X90500000Y-41250000D03*
X60500000Y-90000000D03*
X79000000Y-25000000D03*
X78750000Y-22000000D03*
X45500000Y-29500000D03*
X45500000Y-20000000D03*
X75000000Y-89000000D03*
X65500000Y-89000000D03*
X78187442Y-98405842D03*
X67117120Y-99550651D03*
X92000000Y-35750000D03*
X93500000Y-41250000D03*
D30*
X42715000Y-81300000D02*
X43985000Y-81300000D01*
X43985000Y-81300000D02*
X45255000Y-81300000D01*
X86250000Y-83050000D02*
X88000000Y-81300000D01*
X83000000Y-83050000D02*
X86250000Y-83050000D01*
D31*
X83000000Y-83050000D02*
X81450000Y-83050000D01*
D30*
X80000000Y-83050000D02*
X81450000Y-83050000D01*
X67555000Y-81300000D02*
X66300000Y-81300000D01*
X66300000Y-81300000D02*
X66200000Y-81200000D01*
X88300000Y-24445000D02*
X88300000Y-25800000D01*
X88300000Y-25800000D02*
X88500000Y-26000000D01*
X93700000Y-19365000D02*
X91635000Y-19365000D01*
X91635000Y-19365000D02*
X91500000Y-19500000D01*
D31*
X30950000Y-97950000D02*
X31500000Y-97950000D01*
X29500000Y-99400000D02*
X30950000Y-97950000D01*
X29500000Y-101900000D02*
X29500000Y-99400000D01*
X29500000Y-99400000D02*
X30400000Y-99400000D01*
X30400000Y-99400000D02*
X30500000Y-99500000D01*
X38800000Y-101900000D02*
X38800000Y-100800000D01*
X38800000Y-100800000D02*
X38000000Y-100000000D01*
X39500000Y-97950000D02*
X39500000Y-99000000D01*
X39500000Y-99000000D02*
X40500000Y-100000000D01*
D30*
X57561666Y-36750000D02*
X55311666Y-39000000D01*
X44438333Y-36750000D02*
X44313333Y-36750000D01*
X46688333Y-39000000D02*
X44438333Y-36750000D01*
X55311666Y-39000000D02*
X46688333Y-39000000D01*
D31*
X25000000Y-84050000D02*
X25000000Y-84275000D01*
D32*
X18750000Y-84050000D02*
X17000000Y-82300000D01*
X21050000Y-81800000D02*
X21000000Y-81750000D01*
X21050000Y-84050000D02*
X21050000Y-81800000D01*
X25000000Y-84050000D02*
X21050000Y-84050000D01*
X21050000Y-84050000D02*
X18750000Y-84050000D01*
X43985000Y-83185000D02*
X44000000Y-83200000D01*
X43985000Y-81300000D02*
X43985000Y-83185000D01*
X42715000Y-81300000D02*
X45255000Y-81300000D01*
D31*
X40175000Y-92675000D02*
X40500000Y-93000000D01*
X40175000Y-90700000D02*
X40175000Y-92675000D01*
X95300000Y-28625000D02*
X95300000Y-30750000D01*
X95300000Y-28000000D02*
X95300000Y-28625000D01*
X95300000Y-30750000D02*
X95300000Y-33700000D01*
D30*
X95300000Y-33700000D02*
X95250000Y-33750000D01*
X95300000Y-28000000D02*
X95300000Y-33700000D01*
D33*
X102300000Y-27450000D02*
X102500000Y-27250000D01*
D31*
X103950000Y-32300000D02*
X105000000Y-32300000D01*
X102500000Y-30850000D02*
X103950000Y-32300000D01*
X102500000Y-27250000D02*
X102500000Y-30850000D01*
X85866020Y-109915960D02*
X85798660Y-109915960D01*
X87162460Y-107919520D02*
X87162460Y-108619520D01*
X87162460Y-108619520D02*
X85866020Y-109915960D01*
X94040960Y-117100360D02*
X100100360Y-117100360D01*
X100100360Y-117100360D02*
X102500000Y-119500000D01*
X73020000Y-91020000D02*
X72500000Y-90500000D01*
X72635000Y-86700000D02*
X72635000Y-90365000D01*
X72635000Y-90365000D02*
X72500000Y-90500000D01*
D30*
X107700000Y-27450000D02*
X107500000Y-27250000D01*
D31*
X25150000Y-85950000D02*
X25400000Y-86200000D01*
X25000000Y-85950000D02*
X25150000Y-85950000D01*
D33*
X84750000Y-86700000D02*
X83000000Y-84950000D01*
X88000000Y-86700000D02*
X84750000Y-86700000D01*
X76445000Y-86700000D02*
X78250000Y-86700000D01*
X83000000Y-84950000D02*
X80000000Y-84950000D01*
X102300000Y-36600000D02*
X102300000Y-35000000D01*
X97899999Y-41000001D02*
X102300000Y-36600000D01*
X97899999Y-41699999D02*
X97899999Y-41000001D01*
X102300000Y-33400000D02*
X97000000Y-28100000D01*
X102300000Y-35000000D02*
X102300000Y-33400000D01*
X95250000Y-15555000D02*
X93700000Y-15555000D01*
X97000000Y-17305000D02*
X95250000Y-15555000D01*
X97000000Y-25434998D02*
X97000000Y-25600000D01*
X94740002Y-23175000D02*
X97000000Y-25434998D01*
X93700000Y-23175000D02*
X94740002Y-23175000D01*
X97000000Y-25600000D02*
X97000000Y-17305000D01*
X78250000Y-86700000D02*
X79175000Y-85775000D01*
X79175000Y-85775000D02*
X80000000Y-84950000D01*
X38800000Y-86000000D02*
X38905000Y-86105000D01*
X34500000Y-23000000D02*
X34500000Y-29000000D01*
X34500000Y-17000000D02*
X34500000Y-23000000D01*
X96099999Y-39899999D02*
X97899999Y-41699999D01*
X64500000Y-47000000D02*
X64500000Y-45350000D01*
X38800000Y-86000000D02*
X46333260Y-86000000D01*
X46333260Y-86000000D02*
X51633250Y-91299990D01*
D30*
X38905000Y-92200000D02*
X38905000Y-90700000D01*
X36700001Y-94404999D02*
X38905000Y-92200000D01*
X36700001Y-102949999D02*
X36700001Y-94404999D01*
X35700000Y-103950000D02*
X36700001Y-102949999D01*
X35700000Y-104100000D02*
X35700000Y-103950000D01*
X38905000Y-93114998D02*
X41000000Y-95209998D01*
X38905000Y-92200000D02*
X38905000Y-93114998D01*
X41000000Y-98969998D02*
X43500000Y-101469998D01*
X41000000Y-95209998D02*
X41000000Y-98969998D01*
X45000000Y-103950000D02*
X45000000Y-104100000D01*
X43500000Y-102450000D02*
X45000000Y-103950000D01*
X43500000Y-101469998D02*
X43500000Y-102450000D01*
D34*
X68825000Y-85350000D02*
X68825000Y-86700000D01*
X78625001Y-85349999D02*
X68825000Y-85350000D01*
X79025000Y-84950000D02*
X78625001Y-85349999D01*
X80000000Y-84950000D02*
X79025000Y-84950000D01*
X68825000Y-88050000D02*
X65575010Y-91299990D01*
X68825000Y-86700000D02*
X68825000Y-88050000D01*
D33*
X59700010Y-91799990D02*
X58500000Y-93000000D01*
X59700010Y-91299990D02*
X59700010Y-91799990D01*
D34*
X65575010Y-91299990D02*
X59700010Y-91299990D01*
X59700010Y-91299990D02*
X51633250Y-91299990D01*
D33*
X20300000Y-86000000D02*
X28750000Y-86000000D01*
X18600000Y-87700000D02*
X20300000Y-86000000D01*
X17000000Y-87700000D02*
X18600000Y-87700000D01*
X28125000Y-86000000D02*
X28750000Y-86000000D01*
X28750000Y-86000000D02*
X38800000Y-86000000D01*
X39000000Y-90795000D02*
X38905000Y-90700000D01*
X39000000Y-94500000D02*
X39000000Y-90795000D01*
X102300000Y-35000000D02*
X105000000Y-37700000D01*
X97000000Y-28100000D02*
X97000000Y-26000000D01*
X97000000Y-26000000D02*
X97000000Y-25600000D01*
X97200000Y-28000000D02*
X97200000Y-30750000D01*
X107500000Y-28522792D02*
X107500000Y-27250000D01*
X107500000Y-34250000D02*
X107500000Y-28522792D01*
X105000000Y-36750000D02*
X107500000Y-34250000D01*
X105000000Y-37700000D02*
X105000000Y-36750000D01*
X100899999Y-65777739D02*
X102500000Y-67377740D01*
X97899999Y-41699999D02*
X97899999Y-55493256D01*
X97899999Y-55493256D02*
X100899999Y-58493256D01*
X100899999Y-58493256D02*
X100899999Y-65777739D01*
X106600001Y-62751959D02*
X102500000Y-66851960D01*
X106600001Y-58899999D02*
X106600001Y-62751959D01*
X107500000Y-58000000D02*
X106600001Y-58899999D01*
X102500000Y-67377740D02*
X102500000Y-66851960D01*
X99580340Y-86700000D02*
X100450000Y-86700000D01*
X97000000Y-85404180D02*
X98295820Y-86700000D01*
X97000000Y-78406743D02*
X97000000Y-85404180D01*
X102500000Y-72906743D02*
X97000000Y-78406743D01*
X102500000Y-67377740D02*
X102500000Y-72906743D01*
X88000000Y-86700000D02*
X98295820Y-86700000D01*
X98295820Y-86700000D02*
X99580340Y-86700000D01*
X105450000Y-86700000D02*
X107500000Y-88750000D01*
X99580340Y-86700000D02*
X105450000Y-86700000D01*
X41576855Y-38369981D02*
X34500000Y-31293126D01*
X34500000Y-30200000D02*
X34500000Y-29000000D01*
X42108859Y-38369981D02*
X41576855Y-38369981D01*
X48238878Y-44500000D02*
X42108859Y-38369981D01*
X55000000Y-44500000D02*
X48238878Y-44500000D01*
X55150001Y-44349999D02*
X55000000Y-44500000D01*
X55150001Y-40539689D02*
X55150001Y-44349999D01*
X89606981Y-39899999D02*
X96099999Y-39899999D01*
X88806741Y-39899999D02*
X89606981Y-39899999D01*
X89606981Y-39899999D02*
X86536330Y-39899999D01*
X86536330Y-39899999D02*
X85206284Y-38569954D01*
X34500000Y-31293126D02*
X34500000Y-30200000D01*
X57119736Y-38569954D02*
X55150001Y-40539689D01*
X71280046Y-38569954D02*
X69107090Y-40742910D01*
X73860714Y-38569954D02*
X71280046Y-38569954D01*
X69107090Y-40742910D02*
X69950001Y-39899999D01*
X64500000Y-45350000D02*
X69107090Y-40742910D01*
X85206284Y-38569954D02*
X73860714Y-38569954D01*
X73860714Y-38569954D02*
X57119736Y-38569954D01*
D31*
X93141320Y-113000000D02*
X94040960Y-112100360D01*
X89540000Y-113000000D02*
X93141320Y-113000000D01*
X94818240Y-107894120D02*
X94968240Y-107894120D01*
X94818240Y-107894120D02*
X92824340Y-105900220D01*
X90740220Y-105900220D02*
X88340000Y-103500000D01*
X92824340Y-105900220D02*
X90740220Y-105900220D01*
X94040960Y-110100360D02*
X94040960Y-112100360D01*
X94040960Y-108696800D02*
X94040960Y-110100360D01*
X94818240Y-107919520D02*
X94040960Y-108696800D01*
X94968240Y-107919520D02*
X94818240Y-107919520D01*
D30*
X51000000Y-83900000D02*
X51000000Y-81600000D01*
X18075001Y-50649999D02*
X16725000Y-52000000D01*
X87974999Y-50649999D02*
X18075001Y-50649999D01*
X89325000Y-52000000D02*
X87974999Y-50649999D01*
X90725000Y-52000000D02*
X89325000Y-52000000D01*
X72635000Y-80850000D02*
X72635000Y-81300000D01*
X90725000Y-67000000D02*
X90725000Y-76346040D01*
X90725000Y-76346040D02*
X88896051Y-78174989D01*
X88896051Y-78174989D02*
X82011823Y-78174989D01*
X82011823Y-78174989D02*
X80136812Y-80050000D01*
X80136812Y-80050000D02*
X73435000Y-80050000D01*
X73435000Y-80050000D02*
X72635000Y-80850000D01*
X16725000Y-65428184D02*
X16725000Y-67000000D01*
X18864579Y-55725061D02*
X18864579Y-63288605D01*
X16725000Y-52000000D02*
X16725000Y-53585482D01*
X16725000Y-53585482D02*
X18864579Y-55725061D01*
X18864579Y-63288605D02*
X16725000Y-65428184D01*
X71365000Y-78635000D02*
X71365000Y-81300000D01*
X72000000Y-78000000D02*
X71365000Y-78635000D01*
X79000000Y-78000000D02*
X72000000Y-78000000D01*
X80153568Y-67000000D02*
X80153568Y-76846432D01*
X80153568Y-76846432D02*
X79000000Y-78000000D01*
X27296428Y-53400000D02*
X28896428Y-55000000D01*
X27296428Y-52000000D02*
X27296428Y-53400000D01*
X78753568Y-52000000D02*
X80153568Y-52000000D01*
X75753568Y-55000000D02*
X78753568Y-52000000D01*
X28896428Y-55000000D02*
X75753568Y-55000000D01*
X69582140Y-67000000D02*
X69582140Y-79582140D01*
X70095000Y-80050000D02*
X70095000Y-81300000D01*
X69627140Y-79582140D02*
X70095000Y-80050000D01*
X69582140Y-79582140D02*
X69627140Y-79582140D01*
X68182140Y-52000000D02*
X65982140Y-54200000D01*
X69582140Y-52000000D02*
X68182140Y-52000000D01*
X37867856Y-53400000D02*
X37867856Y-52000000D01*
X38667856Y-54200000D02*
X37867856Y-53400000D01*
X65982140Y-54200000D02*
X38667856Y-54200000D01*
X57610712Y-52000000D02*
X59010712Y-52000000D01*
X56260711Y-53350001D02*
X57610712Y-52000000D01*
X49789285Y-53350001D02*
X56260711Y-53350001D01*
X48439284Y-52000000D02*
X49789285Y-53350001D01*
X65490714Y-77515714D02*
X68825000Y-80850000D01*
X62085711Y-72393189D02*
X65490714Y-75798191D01*
X65490714Y-75798191D02*
X65490714Y-77515714D01*
X68825000Y-80850000D02*
X68825000Y-81300000D01*
X62085711Y-70074999D02*
X62085711Y-72393189D01*
X59010712Y-67000000D02*
X62085711Y-70074999D01*
X55000000Y-83900000D02*
X55000000Y-81600000D01*
D31*
X90414599Y-98584941D02*
X89514600Y-97684942D01*
X90714699Y-98885041D02*
X90414599Y-98584941D01*
X96252139Y-98885041D02*
X90714699Y-98885041D01*
X96327140Y-98810040D02*
X96252139Y-98885041D01*
X96327140Y-98110040D02*
X96327140Y-98810040D01*
D30*
X60685689Y-72237221D02*
X60685689Y-79960951D01*
X55448468Y-67000000D02*
X60685689Y-72237221D01*
X60685689Y-79960951D02*
X59000000Y-81646640D01*
X59000000Y-81646640D02*
X59000000Y-82800000D01*
X50979284Y-67000000D02*
X55448468Y-67000000D01*
X59000000Y-82800000D02*
X59000000Y-83900000D01*
X60200711Y-65649999D02*
X57750711Y-65649999D01*
X61550712Y-67000000D02*
X60200711Y-65649999D01*
X61385700Y-71947267D02*
X61385700Y-76245990D01*
X63000000Y-82800000D02*
X63000000Y-83900000D01*
X63000000Y-77860290D02*
X63000000Y-82800000D01*
X57660711Y-68222278D02*
X61385700Y-71947267D01*
X61385700Y-76245990D02*
X63000000Y-77860290D01*
X57660711Y-65739999D02*
X57660711Y-68222278D01*
X57750711Y-65649999D02*
X57660711Y-65739999D01*
D31*
X89362460Y-107919520D02*
X89212460Y-107919520D01*
X89362460Y-110637540D02*
X87000000Y-113000000D01*
X89362460Y-107919520D02*
X89362460Y-110637540D01*
X31324988Y-39574988D02*
X20500000Y-28750000D01*
X41640000Y-43488477D02*
X37726511Y-39574988D01*
X37726511Y-39574988D02*
X31324988Y-39574988D01*
X20500000Y-28750000D02*
X20500000Y-27500000D01*
X41640000Y-47000000D02*
X41640000Y-43488477D01*
X44180000Y-44968410D02*
X44180000Y-45797919D01*
X44180000Y-45797919D02*
X44180000Y-47000000D01*
X38336567Y-39124977D02*
X44180000Y-44968410D01*
X35710764Y-39124977D02*
X38336567Y-39124977D01*
X25500000Y-28914213D02*
X35710764Y-39124977D01*
X25500000Y-27500000D02*
X25500000Y-28914213D01*
X48000000Y-40100000D02*
X48000000Y-42000000D01*
X51000000Y-42000000D02*
X51000000Y-40100000D01*
X54000000Y-40100000D02*
X54000000Y-42000000D01*
X92174988Y-25191401D02*
X93475012Y-26491425D01*
X92074988Y-21810012D02*
X92074988Y-24001401D01*
X92074988Y-24001401D02*
X92174988Y-24101401D01*
X92174988Y-24101401D02*
X92174988Y-25191401D01*
X93700000Y-20635000D02*
X93250000Y-20635000D01*
X93250000Y-20635000D02*
X92074988Y-21810012D01*
X93475012Y-26491425D02*
X93475012Y-36024988D01*
X60269999Y-47849999D02*
X59420000Y-47000000D01*
X61145012Y-48725012D02*
X60269999Y-47849999D01*
X65876402Y-48725012D02*
X61145012Y-48725012D01*
X91407843Y-41842157D02*
X92000000Y-41250000D01*
X93475012Y-36024988D02*
X92000000Y-37500000D01*
X66167846Y-48433566D02*
X65876402Y-48725012D01*
X90574988Y-42675012D02*
X92000000Y-41250000D01*
X82455014Y-42675012D02*
X90574988Y-42675012D01*
X79624981Y-39844979D02*
X82455014Y-42675012D01*
X74756433Y-39844979D02*
X79624981Y-39844979D01*
X66167846Y-48433566D02*
X74756433Y-39844979D01*
X93250000Y-21905000D02*
X93700000Y-21905000D01*
X92524999Y-22630001D02*
X93250000Y-21905000D01*
X92524999Y-23815001D02*
X92524999Y-22630001D01*
X90500000Y-38500000D02*
X92500000Y-38500000D01*
X92500000Y-38500000D02*
X93925023Y-37074977D01*
X93925023Y-37074977D02*
X93925023Y-26305025D01*
X93925023Y-26305025D02*
X92624999Y-25005001D01*
X92624999Y-25005001D02*
X92624999Y-23915001D01*
X92624999Y-23915001D02*
X92524999Y-23815001D01*
X62809999Y-47849999D02*
X61960000Y-47000000D01*
X90500000Y-41250000D02*
X86719590Y-41250000D01*
X86719590Y-41250000D02*
X84864558Y-39394968D01*
X84864558Y-39394968D02*
X74570033Y-39394968D01*
X74570033Y-39394968D02*
X65690001Y-48275001D01*
X65690001Y-48275001D02*
X63235001Y-48275001D01*
X63235001Y-48275001D02*
X62809999Y-47849999D01*
X41445000Y-82000000D02*
X41445000Y-81300000D01*
X43945000Y-84500000D02*
X41445000Y-82000000D01*
X46000000Y-84500000D02*
X43945000Y-84500000D01*
X51500000Y-90000000D02*
X46000000Y-84500000D01*
X60500000Y-90000000D02*
X51500000Y-90000000D01*
X61764999Y-102324999D02*
X62090001Y-102650001D01*
X52213999Y-104675001D02*
X57485997Y-104675001D01*
X62090001Y-102650001D02*
X62940000Y-103500000D01*
X41445000Y-90700000D02*
X41445000Y-93906002D01*
X41445000Y-93906002D02*
X52213999Y-104675001D01*
X57485997Y-104675001D02*
X59835999Y-102324999D01*
X59835999Y-102324999D02*
X61764999Y-102324999D01*
X64630001Y-102650001D02*
X65480000Y-103500000D01*
X62680011Y-100700011D02*
X64630001Y-102650001D01*
X58200011Y-100700011D02*
X62680011Y-100700011D01*
X58063600Y-100700011D02*
X58200011Y-100700011D01*
X45255000Y-92716002D02*
X51038998Y-98500000D01*
X51038998Y-98500000D02*
X53863590Y-98500000D01*
X53863590Y-98500000D02*
X54588581Y-99224991D01*
X56588581Y-99224991D02*
X58063601Y-100700011D01*
X45255000Y-90700000D02*
X45255000Y-92716002D01*
X58063601Y-100700011D02*
X58200011Y-100700011D01*
X54588581Y-99224991D02*
X56588581Y-99224991D01*
X64115001Y-102935999D02*
X62329025Y-101150022D01*
X62329025Y-101150022D02*
X57877200Y-101150022D01*
X64915999Y-104675001D02*
X64115001Y-103874003D01*
X66844999Y-104675001D02*
X64915999Y-104675001D01*
X68020000Y-103500000D02*
X66844999Y-104675001D01*
X64115001Y-103874003D02*
X64115001Y-102935999D01*
X57877200Y-101150022D02*
X56613589Y-99886411D01*
X56613589Y-99886411D02*
X56402179Y-99674999D01*
X43985000Y-91950000D02*
X43985000Y-90700000D01*
X43985000Y-92082413D02*
X43985000Y-91950000D01*
X51577586Y-99674999D02*
X43985000Y-92082413D01*
X56402177Y-99674999D02*
X51577586Y-99674999D01*
X56613589Y-99886411D02*
X56402177Y-99674999D01*
X68869999Y-104349999D02*
X68020000Y-103500000D01*
X69195001Y-104675001D02*
X68869999Y-104349999D01*
X74275001Y-104064001D02*
X73664001Y-104675001D01*
X74275001Y-103125997D02*
X74275001Y-104064001D01*
X75020019Y-102380979D02*
X74275001Y-103125997D01*
X75020019Y-94467198D02*
X75020019Y-102380979D01*
X73905000Y-86700000D02*
X73905000Y-93352177D01*
X73664001Y-104675001D02*
X69195001Y-104675001D01*
X73905000Y-93352177D02*
X75020019Y-94467198D01*
X74120001Y-99256411D02*
X74120001Y-101160001D01*
X74120001Y-101160001D02*
X72955003Y-102324999D01*
X72955003Y-102324999D02*
X71735001Y-102324999D01*
X71409999Y-102650001D02*
X70560000Y-103500000D01*
X71735001Y-102324999D02*
X71409999Y-102650001D01*
X71798599Y-97175012D02*
X72038602Y-97175012D01*
X70095000Y-95471413D02*
X71798599Y-97175012D01*
X70095000Y-86700000D02*
X70095000Y-95471413D01*
X72038602Y-97175012D02*
X74120001Y-99256411D01*
X53274979Y-97054701D02*
X54994801Y-98774522D01*
X58287796Y-100236176D02*
X66729641Y-100236176D01*
X56826142Y-98774522D02*
X58287796Y-100236176D01*
X67335653Y-100275653D02*
X69710001Y-102650001D01*
X66729641Y-100236176D02*
X66769118Y-100275653D01*
X66769118Y-100275653D02*
X67335653Y-100275653D01*
X69710001Y-102650001D02*
X70560000Y-103500000D01*
X42715000Y-90000000D02*
X43340001Y-89374999D01*
X54994801Y-98774522D02*
X56826142Y-98774522D01*
X53274979Y-96813975D02*
X53274979Y-97054701D01*
X45836003Y-89374999D02*
X53274979Y-96813975D01*
X43340001Y-89374999D02*
X45836003Y-89374999D01*
X42715000Y-90700000D02*
X42715000Y-90000000D01*
X71365000Y-87700000D02*
X71365000Y-86700000D01*
X71365000Y-96105002D02*
X71365000Y-87700000D01*
X71984999Y-96725001D02*
X71365000Y-96105002D01*
X72225001Y-96725001D02*
X71984999Y-96725001D01*
X74570008Y-99070008D02*
X72225001Y-96725001D01*
X74570008Y-102029992D02*
X74570008Y-99070008D01*
X73100000Y-103500000D02*
X74570008Y-102029992D01*
X43050000Y-97000000D02*
X42500000Y-97000000D01*
X45000000Y-98950000D02*
X43050000Y-97000000D01*
X45000000Y-101900000D02*
X45000000Y-98950000D01*
D30*
X75640000Y-103500000D02*
X74790001Y-104349999D01*
X49300012Y-105250012D02*
X45950000Y-101900000D01*
X73902178Y-105250012D02*
X49300012Y-105250012D01*
X74790001Y-104362189D02*
X73902178Y-105250012D01*
X74790001Y-104349999D02*
X74790001Y-104362189D01*
X45950000Y-101900000D02*
X45000000Y-101900000D01*
D31*
X35050000Y-97000000D02*
X34500000Y-97000000D01*
X35700000Y-97650000D02*
X35050000Y-97000000D01*
X35700000Y-101900000D02*
X35700000Y-97650000D01*
X86975001Y-102935999D02*
X86975001Y-105024999D01*
X86364001Y-102324999D02*
X86975001Y-102935999D01*
X80155999Y-102324999D02*
X86364001Y-102324999D01*
X78180000Y-103500000D02*
X78980998Y-103500000D01*
X78980998Y-103500000D02*
X80155999Y-102324999D01*
X85145001Y-106854999D02*
X77645001Y-106854999D01*
X86975001Y-105024999D02*
X85145001Y-106854999D01*
X30848001Y-109305001D02*
X27805001Y-109305001D01*
X34824999Y-105328003D02*
X30848001Y-109305001D01*
X34824999Y-102925001D02*
X34824999Y-105328003D01*
X35700000Y-102050000D02*
X34824999Y-102925001D01*
X35700000Y-101900000D02*
X35700000Y-102050000D01*
X16974999Y-108668001D02*
X18806998Y-110500000D01*
X16974999Y-107491999D02*
X16974999Y-108668001D01*
X17611999Y-106854999D02*
X16974999Y-107491999D01*
X27805001Y-109305001D02*
X25354999Y-106854999D01*
X25354999Y-106854999D02*
X17611999Y-106854999D01*
X74000000Y-110500000D02*
X77645001Y-106854999D01*
X18806998Y-110500000D02*
X74000000Y-110500000D01*
D30*
X43219999Y-107180001D02*
X42320000Y-108080000D01*
X79340032Y-104879968D02*
X75262187Y-104879968D01*
X80720000Y-103500000D02*
X79340032Y-104879968D01*
X44449977Y-105950023D02*
X43219999Y-107180001D01*
X74192132Y-105950023D02*
X44449977Y-105950023D01*
X75262187Y-104879968D02*
X74192132Y-105950023D01*
X55809966Y-106650034D02*
X55279999Y-107180001D01*
X74482086Y-106650034D02*
X55809966Y-106650034D01*
X75552141Y-105579979D02*
X74482086Y-106650034D01*
X81180021Y-105579979D02*
X75552141Y-105579979D01*
X83260000Y-103500000D02*
X81180021Y-105579979D01*
X55279999Y-107180001D02*
X54380000Y-108080000D01*
X83020012Y-106279988D02*
X75842096Y-106279988D01*
X67712792Y-108080000D02*
X66440000Y-108080000D01*
X74042084Y-108080000D02*
X67712792Y-108080000D01*
X75842096Y-106279988D02*
X74042084Y-108080000D01*
X85800000Y-103500000D02*
X83020012Y-106279988D01*
D31*
X91729999Y-104349999D02*
X90880000Y-103500000D01*
X92055001Y-104675001D02*
X91729999Y-104349999D01*
X96216003Y-104675001D02*
X92055001Y-104675001D01*
X105000000Y-113458998D02*
X96216003Y-104675001D01*
X105000000Y-119500000D02*
X105000000Y-113458998D01*
X105000000Y-91920000D02*
X93420000Y-103500000D01*
X105000000Y-88750000D02*
X105000000Y-91920000D01*
X108136001Y-56674999D02*
X109000000Y-57538998D01*
X105000000Y-58000000D02*
X106325001Y-56674999D01*
X109000000Y-57538998D02*
X109000000Y-78072587D01*
X109750000Y-86500000D02*
X109750000Y-89710000D01*
X96809999Y-102650001D02*
X95960000Y-103500000D01*
X106325001Y-56674999D02*
X108136001Y-56674999D01*
X106624988Y-83374988D02*
X109750000Y-86500000D01*
X109750000Y-89710000D02*
X96809999Y-102650001D01*
X106624988Y-80447598D02*
X106624988Y-83374988D01*
X109000000Y-78072587D02*
X106624988Y-80447598D01*
X98500000Y-102400000D02*
X98500000Y-103500000D01*
X110354499Y-90545501D02*
X98500000Y-102400000D01*
X110354499Y-86145501D02*
X110354499Y-90545501D01*
X110354499Y-86145501D02*
X110458998Y-86250000D01*
X107074999Y-82866001D02*
X110354499Y-86145501D01*
X107074999Y-80633999D02*
X107074999Y-82866001D01*
X109750000Y-77958998D02*
X107074999Y-80633999D01*
X109750000Y-56250000D02*
X109750000Y-77958998D01*
X105000000Y-27250000D02*
X106325001Y-25924999D01*
X107074999Y-53574999D02*
X109750000Y-56250000D01*
X106325001Y-25924999D02*
X108136001Y-25924999D01*
X108136001Y-25924999D02*
X109775001Y-27563999D01*
X109775001Y-27563999D02*
X109775001Y-47183997D01*
X109775001Y-47183997D02*
X107074999Y-49883999D01*
X107074999Y-49883999D02*
X107074999Y-53574999D01*
D30*
X65431761Y-29407999D02*
X53362001Y-29407999D01*
X67923763Y-31900001D02*
X65431761Y-29407999D01*
X81849999Y-31900001D02*
X67923763Y-31900001D01*
X81950001Y-31799999D02*
X81849999Y-31900001D01*
X81950001Y-30000001D02*
X81950001Y-31799999D01*
X52911999Y-29858001D02*
X52150000Y-30620000D01*
X80900000Y-28000000D02*
X80900000Y-28950000D01*
X53362001Y-29407999D02*
X52911999Y-29858001D01*
X80900000Y-28950000D02*
X81950001Y-30000001D01*
D31*
X80900000Y-25000000D02*
X79000000Y-25000000D01*
D30*
X67343855Y-33300023D02*
X67243843Y-33200011D01*
X57991999Y-31381999D02*
X57230000Y-30620000D01*
X59810011Y-33200011D02*
X57991999Y-31381999D01*
X67243843Y-33200011D02*
X59810011Y-33200011D01*
X87300000Y-31000000D02*
X88400000Y-31000000D01*
X84999977Y-33300023D02*
X87300000Y-31000000D01*
X82300023Y-33300023D02*
X84999977Y-33300023D01*
X82300023Y-33300023D02*
X67343855Y-33300023D01*
X80900000Y-22000000D02*
X78750000Y-22000000D01*
X66933799Y-31900001D02*
X63590001Y-31900001D01*
X63590001Y-31900001D02*
X63071999Y-31381999D01*
X63071999Y-31381999D02*
X62310000Y-30620000D01*
X67633809Y-32600012D02*
X66933799Y-31900001D01*
X88250000Y-28000000D02*
X88400000Y-28000000D01*
X83649988Y-32600012D02*
X88250000Y-28000000D01*
X80399988Y-32600012D02*
X83649988Y-32600012D01*
X80399988Y-32600012D02*
X67633809Y-32600012D01*
X68470000Y-19000000D02*
X64850000Y-15380000D01*
X80900000Y-19000000D02*
X68470000Y-19000000D01*
D32*
X62310000Y-15380000D02*
X62310000Y-16457630D01*
X62310000Y-16457630D02*
X50717630Y-28050000D01*
X50717630Y-28050000D02*
X39450000Y-28050000D01*
X39450000Y-28050000D02*
X37500000Y-28050000D01*
X53100000Y-22050000D02*
X59770000Y-15380000D01*
X37500000Y-22050000D02*
X53100000Y-22050000D01*
D30*
X57230000Y-15380000D02*
X58442001Y-14167999D01*
X62891761Y-14167999D02*
X63522001Y-14798239D01*
X63522001Y-14798239D02*
X63522001Y-15772001D01*
X58442001Y-14167999D02*
X62891761Y-14167999D01*
X78750000Y-31000000D02*
X79800000Y-31000000D01*
X63522001Y-15772001D02*
X78750000Y-31000000D01*
X79800000Y-31000000D02*
X80900000Y-31000000D01*
X80900000Y-15800000D02*
X80750000Y-15800000D01*
X56602012Y-13467988D02*
X55451999Y-14618001D01*
X55451999Y-14618001D02*
X54690000Y-15380000D01*
X63181715Y-13467988D02*
X56602012Y-13467988D01*
X63881726Y-14167999D02*
X63181715Y-13467988D01*
X79117999Y-14167999D02*
X63881726Y-14167999D01*
X80750000Y-15800000D02*
X79117999Y-14167999D01*
D32*
X38170000Y-15380000D02*
X37500000Y-16050000D01*
X52150000Y-15380000D02*
X38170000Y-15380000D01*
D31*
X91168639Y-107144519D02*
X86390781Y-107144519D01*
X92768240Y-107894120D02*
X91918240Y-107894120D01*
X91918240Y-107894120D02*
X91168639Y-107144519D01*
X85455300Y-108080000D02*
X78500000Y-108080000D01*
X86390781Y-107144519D02*
X85455300Y-108080000D01*
X19875012Y-109755012D02*
X19099999Y-108979999D01*
X19099999Y-108979999D02*
X18200000Y-108080000D01*
X35554988Y-109755012D02*
X19875012Y-109755012D01*
X41200000Y-104110000D02*
X35554988Y-109755012D01*
X41900000Y-104110000D02*
X41200000Y-104110000D01*
X31159999Y-107180001D02*
X30260000Y-108080000D01*
X33375001Y-104964999D02*
X31159999Y-107180001D01*
X33375001Y-101975001D02*
X33375001Y-104964999D01*
X33300000Y-101900000D02*
X33375001Y-101975001D01*
X32600000Y-101900000D02*
X33300000Y-101900000D01*
X45750000Y-29500000D02*
X45500000Y-29500000D01*
X54000000Y-37900000D02*
X54000000Y-37750000D01*
X54000000Y-37750000D02*
X45750000Y-29500000D01*
X37500000Y-18600000D02*
X37500000Y-17950000D01*
X38900000Y-20000000D02*
X37500000Y-18600000D01*
X45500000Y-20000000D02*
X38900000Y-20000000D01*
X51000000Y-37750000D02*
X42250000Y-29000000D01*
X51000000Y-37900000D02*
X51000000Y-37750000D01*
X37500000Y-24600000D02*
X37500000Y-23950000D01*
X36224999Y-25875001D02*
X37500000Y-24600000D01*
X36224999Y-28710001D02*
X36224999Y-25875001D01*
X36514998Y-29000000D02*
X36224999Y-28710001D01*
X42250000Y-29000000D02*
X36514998Y-29000000D01*
X38700000Y-29950000D02*
X37500000Y-29950000D01*
X40200000Y-29950000D02*
X38700000Y-29950000D01*
X48000000Y-37750000D02*
X40200000Y-29950000D01*
X48000000Y-37900000D02*
X48000000Y-37750000D01*
X40840000Y-101910000D02*
X41200000Y-101910000D01*
X38800000Y-103950000D02*
X40840000Y-101910000D01*
X38800000Y-104100000D02*
X38800000Y-103950000D01*
X38950000Y-96050000D02*
X39500000Y-96050000D01*
X38224999Y-96775001D02*
X38950000Y-96050000D01*
X38224999Y-98934999D02*
X38224999Y-96775001D01*
X41200000Y-101910000D02*
X38224999Y-98934999D01*
X41900000Y-101910000D02*
X41200000Y-101910000D01*
X30300000Y-96050000D02*
X28000000Y-98350000D01*
X31500000Y-96050000D02*
X30300000Y-96050000D01*
X29500000Y-103950000D02*
X29500000Y-104100000D01*
X28000000Y-102450000D02*
X29500000Y-103950000D01*
X28000000Y-98350000D02*
X28000000Y-102450000D01*
X29500000Y-104100000D02*
X32600000Y-104100000D01*
D30*
X75175000Y-86700000D02*
X75175000Y-88825000D01*
X75175000Y-88825000D02*
X75000000Y-89000000D01*
X51000000Y-86250000D02*
X51000000Y-86100000D01*
X53750000Y-89000000D02*
X51000000Y-86250000D01*
X65500000Y-89000000D02*
X53750000Y-89000000D01*
X66860048Y-83949987D02*
X65499989Y-85310046D01*
X76445000Y-81750000D02*
X74245013Y-83949987D01*
X57700011Y-87850011D02*
X55950000Y-86100000D01*
X65499989Y-85310046D02*
X65499989Y-86449977D01*
X65499989Y-86449977D02*
X64099955Y-87850011D01*
X55950000Y-86100000D02*
X55000000Y-86100000D01*
X64099955Y-87850011D02*
X57700011Y-87850011D01*
X76445000Y-81300000D02*
X76445000Y-81750000D01*
X74245013Y-83949987D02*
X66860048Y-83949987D01*
D31*
X93977140Y-98110040D02*
X94127140Y-98110040D01*
X93977140Y-98110040D02*
X91714000Y-95846900D01*
X91714000Y-95846900D02*
X80746384Y-95846900D01*
X80746384Y-95846900D02*
X78187442Y-98405842D01*
X57012541Y-98324511D02*
X58238681Y-99550651D01*
X53724990Y-96627576D02*
X53724990Y-96868301D01*
X37635000Y-90700000D02*
X37635000Y-90000000D01*
X37635000Y-90000000D02*
X39135000Y-88500000D01*
X45597415Y-88500000D02*
X53724990Y-96627576D01*
X55181201Y-98324511D02*
X57012541Y-98324511D01*
X53724990Y-96868301D02*
X55181201Y-98324511D01*
X66551435Y-99550651D02*
X67117120Y-99550651D01*
X39135000Y-88500000D02*
X45597415Y-88500000D01*
X58238681Y-99550651D02*
X66551435Y-99550651D01*
D30*
X59950000Y-86100000D02*
X59000000Y-86100000D01*
X64799978Y-84820092D02*
X64799978Y-86160024D01*
X63810002Y-87150000D02*
X61000000Y-87150000D01*
X73724989Y-83200011D02*
X66420059Y-83200011D01*
X66420059Y-83200011D02*
X64799978Y-84820092D01*
X75175000Y-81300000D02*
X75175000Y-81750000D01*
X61000000Y-87150000D02*
X59950000Y-86100000D01*
X75175000Y-81750000D02*
X73724989Y-83200011D01*
X64799978Y-86160024D02*
X63810002Y-87150000D01*
X63950000Y-84680105D02*
X66130105Y-82500000D01*
X63000000Y-86100000D02*
X63000000Y-85950000D01*
X66130105Y-82500000D02*
X73295002Y-82500000D01*
X73295002Y-82500000D02*
X73905000Y-81890002D01*
X63000000Y-85950000D02*
X63950000Y-85000000D01*
X63950000Y-85000000D02*
X63950000Y-84680105D01*
X73905000Y-81890002D02*
X73905000Y-81300000D01*
X92450000Y-16825000D02*
X93700000Y-16825000D01*
X90429999Y-14804999D02*
X92450000Y-16825000D01*
X85195001Y-14804999D02*
X90429999Y-14804999D01*
X84200000Y-15800000D02*
X85195001Y-14804999D01*
X83100000Y-15800000D02*
X84200000Y-15800000D01*
X83100000Y-18050000D02*
X83100000Y-19000000D01*
X85595000Y-15555000D02*
X83100000Y-18050000D01*
X88300000Y-15555000D02*
X85595000Y-15555000D01*
X87325000Y-16825000D02*
X88300000Y-16825000D01*
X83100000Y-21050000D02*
X87325000Y-16825000D01*
X83100000Y-22000000D02*
X83100000Y-21050000D01*
X83100000Y-24050000D02*
X83100000Y-25000000D01*
X84150001Y-22999999D02*
X83100000Y-24050000D01*
X84150001Y-21794999D02*
X84150001Y-22999999D01*
X87850000Y-18095000D02*
X84150001Y-21794999D01*
X88300000Y-18095000D02*
X87850000Y-18095000D01*
X83100000Y-27050000D02*
X83100000Y-28000000D01*
X85000000Y-25150000D02*
X83100000Y-27050000D01*
X85000000Y-22215000D02*
X85000000Y-25150000D01*
X87850000Y-19365000D02*
X85000000Y-22215000D01*
X88300000Y-19365000D02*
X87850000Y-19365000D01*
X84200000Y-31000000D02*
X83100000Y-31000000D01*
X86500000Y-28700000D02*
X84200000Y-31000000D01*
X86500000Y-21985000D02*
X86500000Y-28700000D01*
X87850000Y-20635000D02*
X86500000Y-21985000D01*
X88300000Y-20635000D02*
X87850000Y-20635000D01*
X90600000Y-27050000D02*
X90600000Y-28000000D01*
X90600000Y-23755000D02*
X90600000Y-27050000D01*
X88750000Y-21905000D02*
X90600000Y-23755000D01*
X88300000Y-21905000D02*
X88750000Y-21905000D01*
X90189953Y-30299990D02*
X90600010Y-30710047D01*
X88300000Y-23694999D02*
X89410001Y-23694999D01*
X89410001Y-23694999D02*
X89549999Y-23834997D01*
X89549999Y-29949999D02*
X89899990Y-30299990D01*
X89899990Y-30299990D02*
X90189953Y-30299990D01*
X89549999Y-23834997D02*
X89549999Y-29949999D01*
X90600010Y-30710047D02*
X90600010Y-31000000D01*
X88300000Y-23175000D02*
X88300000Y-23694999D01*
D31*
X16164213Y-41169980D02*
X21250000Y-41169980D01*
X14750000Y-41169980D02*
X16164213Y-41169980D01*
X14750000Y-41169980D02*
X13750001Y-42169979D01*
X14112241Y-65318523D02*
X14112241Y-69151239D01*
X13750001Y-42169979D02*
X13750001Y-53399401D01*
X16939536Y-62491228D02*
X14112241Y-65318523D01*
X16075001Y-71113999D02*
X16075001Y-77470659D01*
X13750001Y-53399401D02*
X16939536Y-56588936D01*
X19030080Y-91664813D02*
X19994893Y-90700000D01*
X16075001Y-77470659D02*
X13574375Y-79971285D01*
X13574375Y-79971285D02*
X13574375Y-91210785D01*
X14028403Y-91664813D02*
X19030080Y-91664813D01*
X19994893Y-90700000D02*
X28195000Y-90700000D01*
X28195000Y-90700000D02*
X28745000Y-90700000D01*
X13574375Y-91210785D02*
X14028403Y-91664813D01*
X16939536Y-56588936D02*
X16939536Y-62491228D01*
X14112241Y-69151239D02*
X16075001Y-71113999D01*
X14599977Y-50467199D02*
X18517185Y-46549991D01*
X15255820Y-91214802D02*
X14210870Y-90169851D01*
X16817769Y-70750719D02*
X14562252Y-68495202D01*
X16817769Y-77602780D02*
X16817769Y-70750719D01*
X14210869Y-80209680D02*
X16817769Y-77602780D01*
X18843680Y-91214802D02*
X15255820Y-91214802D01*
X35328333Y-41250000D02*
X36353333Y-41250000D01*
X30015000Y-90000000D02*
X29015000Y-89000000D01*
X21058482Y-89000000D02*
X18843680Y-91214802D01*
X30015000Y-90700000D02*
X30015000Y-90000000D01*
X29015000Y-89000000D02*
X21058482Y-89000000D01*
X14562252Y-68495202D02*
X14562252Y-65504923D01*
X17389547Y-62677628D02*
X17389547Y-56336037D01*
X17389547Y-56336037D02*
X14599977Y-53546467D01*
X30028342Y-46549991D02*
X35328333Y-41250000D01*
X14599977Y-53546467D02*
X14599977Y-50467199D01*
X14210870Y-90169851D02*
X14210869Y-80209680D01*
X18517185Y-46549991D02*
X30028342Y-46549991D01*
X14562252Y-65504923D02*
X17389547Y-62677628D01*
X18657280Y-90764791D02*
X20872082Y-88549989D01*
X31285000Y-90000000D02*
X31285000Y-90700000D01*
X29834989Y-88549989D02*
X31285000Y-90000000D01*
X20872082Y-88549989D02*
X29834989Y-88549989D01*
X14660880Y-89983450D02*
X15442220Y-90764791D01*
X14660880Y-80396080D02*
X14660880Y-89983450D01*
X15442220Y-90764791D02*
X18657280Y-90764791D01*
X15461183Y-68757597D02*
X15570012Y-68866425D01*
X15049988Y-68346401D02*
X15461183Y-68757597D01*
X15570012Y-79486948D02*
X15293340Y-79763620D01*
X15293340Y-79763620D02*
X14660880Y-80396080D01*
X63535712Y-41169980D02*
X57035712Y-41169980D01*
X15293340Y-79763620D02*
X17267780Y-77789180D01*
X17267780Y-70564193D02*
X15049988Y-68346401D01*
X17267780Y-77789180D02*
X17267780Y-70564193D01*
X15049988Y-65653599D02*
X15049988Y-68346401D01*
X15049988Y-50653599D02*
X15049988Y-53360067D01*
X17839558Y-62864029D02*
X15049988Y-65653599D01*
X58244999Y-47374003D02*
X57344055Y-48274947D01*
X58244999Y-46435999D02*
X58244999Y-47374003D01*
X57344055Y-48274947D02*
X46258241Y-48274947D01*
X63430998Y-41250000D02*
X58244999Y-46435999D01*
X46258241Y-48274947D02*
X45458178Y-49075010D01*
X17839558Y-56149637D02*
X17839558Y-62864029D01*
X16628577Y-49075010D02*
X15049988Y-50653599D01*
X45458178Y-49075010D02*
X16628577Y-49075010D01*
X15049988Y-53360067D02*
X17839558Y-56149637D01*
X31104989Y-88549989D02*
X32555000Y-90000000D01*
X32555000Y-90000000D02*
X32555000Y-90700000D01*
X30654978Y-88099978D02*
X32555000Y-90000000D01*
X20263608Y-88099978D02*
X30654978Y-88099978D01*
X15628620Y-90314780D02*
X18048806Y-90314780D01*
X18048806Y-90314780D02*
X20263608Y-88099978D01*
X15163800Y-89849960D02*
X15628620Y-90314780D01*
X15163800Y-81001198D02*
X15163800Y-81224120D01*
X17881600Y-78283398D02*
X15163800Y-81001198D01*
X17881600Y-76885800D02*
X17881600Y-77226160D01*
X17881600Y-76885800D02*
X17881600Y-78283398D01*
X15163800Y-81224120D02*
X15163800Y-89849960D01*
X17881600Y-70541602D02*
X17881600Y-76885800D01*
X15499999Y-68160001D02*
X17881600Y-70541602D01*
X78895000Y-41250000D02*
X77995000Y-41250000D01*
X66990324Y-48247500D02*
X65712803Y-49525021D01*
X70997500Y-48247500D02*
X66990324Y-48247500D01*
X18289569Y-55963237D02*
X18289569Y-63050429D01*
X15499999Y-53173667D02*
X18289569Y-55963237D01*
X65712803Y-49525021D02*
X16814977Y-49525021D01*
X77995000Y-41250000D02*
X70997500Y-48247500D01*
X18289569Y-63050429D02*
X15499999Y-65839999D01*
X16814977Y-49525021D02*
X15499999Y-50839999D01*
X15499999Y-50839999D02*
X15499999Y-53173667D01*
X15499999Y-65839999D02*
X15499999Y-68160001D01*
X27474999Y-92025001D02*
X23500000Y-96000000D01*
X33749999Y-92025001D02*
X27474999Y-92025001D01*
X33825000Y-90700000D02*
X33825000Y-91950000D01*
X33825000Y-91950000D02*
X33749999Y-92025001D01*
X35095000Y-90700000D02*
X35095000Y-90000000D01*
X54166521Y-95000001D02*
X54500001Y-95000001D01*
X46666520Y-87500000D02*
X54166521Y-95000001D01*
X54500001Y-95000001D02*
X55500000Y-96000000D01*
X37595000Y-87500000D02*
X46666520Y-87500000D01*
X35095000Y-90000000D02*
X37595000Y-87500000D01*
X58155071Y-98830631D02*
X57198941Y-97874501D01*
X71588039Y-98825641D02*
X64041871Y-98825641D01*
X64036881Y-98830631D02*
X58155071Y-98830631D01*
X72697340Y-99934942D02*
X71588039Y-98825641D01*
X57198941Y-97874501D02*
X55367600Y-97874501D01*
X64041871Y-98825641D02*
X64036881Y-98830631D01*
X52911798Y-95138974D02*
X52872800Y-95138974D01*
X36365000Y-90000000D02*
X36365000Y-90700000D01*
X52872800Y-95138974D02*
X45733826Y-88000000D01*
X54174999Y-96636001D02*
X54174999Y-96402176D01*
X55413498Y-97874500D02*
X54174999Y-96636001D01*
X54174999Y-96402176D02*
X52911798Y-95138974D01*
X45733826Y-88000000D02*
X38365000Y-88000000D01*
X38365000Y-88000000D02*
X36365000Y-90000000D01*
X22105000Y-76250000D02*
X23855000Y-78000000D01*
X33825000Y-80600000D02*
X33825000Y-81300000D01*
X31225000Y-78000000D02*
X33825000Y-80600000D01*
X23855000Y-78000000D02*
X31225000Y-78000000D01*
X22105000Y-76250000D02*
X21980000Y-76250000D01*
X88020000Y-61250000D02*
X95980000Y-61250000D01*
X19474988Y-70036022D02*
X21390022Y-68120988D01*
X21390022Y-61310013D02*
X21330009Y-61250000D01*
X19474988Y-72572401D02*
X19474988Y-70036022D01*
X21390022Y-68120988D02*
X21390022Y-61310013D01*
X33915035Y-59374982D02*
X23980018Y-59374982D01*
X23980018Y-59374982D02*
X22105000Y-61250000D01*
X87895000Y-61250000D02*
X86019982Y-59374982D01*
X86019982Y-59374982D02*
X76084961Y-59374982D01*
X22105000Y-61250000D02*
X21980000Y-61250000D01*
X34265040Y-59024977D02*
X33915035Y-59374982D01*
X88020000Y-61250000D02*
X87895000Y-61250000D01*
X75734956Y-59024977D02*
X34265040Y-59024977D01*
X76084961Y-59374982D02*
X75734956Y-59024977D01*
X88750000Y-62664213D02*
X88750000Y-61250000D01*
X83353567Y-71113999D02*
X88750000Y-65717566D01*
X87217566Y-76250000D02*
X83353567Y-72386001D01*
X88750000Y-65717566D02*
X88750000Y-62664213D01*
X83353567Y-72386001D02*
X83353567Y-71113999D01*
X88750000Y-76250000D02*
X87217566Y-76250000D01*
X19474988Y-74474988D02*
X21250000Y-76250000D01*
X19474988Y-72572401D02*
X19474988Y-74474988D01*
X21980000Y-56750000D02*
X46759284Y-56750000D01*
X46759284Y-56750000D02*
X53694284Y-56750000D01*
X18574966Y-76586026D02*
X18574966Y-69503036D01*
X28745000Y-81300000D02*
X23288940Y-81300000D01*
X23288940Y-81300000D02*
X18574966Y-76586026D01*
X18574966Y-69503036D02*
X20490000Y-67588002D01*
X20490000Y-67588002D02*
X20490000Y-63087413D01*
X20490000Y-63087413D02*
X19474988Y-62072401D01*
X21250000Y-58164213D02*
X21250000Y-56750000D01*
X19474988Y-60427599D02*
X21250000Y-58652587D01*
X19474988Y-62072401D02*
X19474988Y-60427599D01*
X21250000Y-58652587D02*
X21250000Y-58164213D01*
X85408568Y-61250000D02*
X77448568Y-61250000D01*
X77448568Y-61250000D02*
X77323568Y-61250000D01*
X77323568Y-61250000D02*
X75548556Y-59474988D01*
X75548556Y-59474988D02*
X34451440Y-59474988D01*
X34451440Y-59474988D02*
X32676428Y-61250000D01*
X32676428Y-61250000D02*
X24591428Y-61250000D01*
X24591428Y-61250000D02*
X24591428Y-67128569D01*
X24591428Y-67128569D02*
X21294998Y-70424999D01*
X19924999Y-72386001D02*
X20613999Y-73075001D01*
X35095000Y-78668572D02*
X35095000Y-80849990D01*
X19924999Y-71113999D02*
X19924999Y-72386001D01*
X20613999Y-73075001D02*
X21291429Y-73075001D01*
X32676428Y-76250000D02*
X35095000Y-78668572D01*
X24466428Y-76250000D02*
X32676428Y-76250000D01*
X21291429Y-73075001D02*
X24466428Y-76250000D01*
X20613999Y-70424999D02*
X19924999Y-71113999D01*
X21294998Y-70424999D02*
X20613999Y-70424999D01*
X79178567Y-75250001D02*
X78178568Y-76250000D01*
X79503569Y-74924999D02*
X79178567Y-75250001D01*
X79503569Y-71113999D02*
X79503569Y-74924999D01*
X77178569Y-68788999D02*
X79503569Y-71113999D01*
X77178569Y-62249999D02*
X77178569Y-68788999D01*
X78178568Y-61250000D02*
X77178569Y-62249999D01*
X74837140Y-61250000D02*
X66877140Y-61250000D01*
X35162856Y-76250000D02*
X35162856Y-77150000D01*
X35162856Y-77150000D02*
X36365000Y-78352144D01*
X36365000Y-78352144D02*
X36365000Y-80050000D01*
X36365000Y-80050000D02*
X36365000Y-81300000D01*
X40978643Y-61250000D02*
X35892856Y-61250000D01*
X42392856Y-61250000D02*
X40978643Y-61250000D01*
X34478643Y-76250000D02*
X35892856Y-76250000D01*
X34360426Y-76250000D02*
X34478643Y-76250000D01*
X30496427Y-72386001D02*
X34360426Y-76250000D01*
X30496427Y-71113999D02*
X30496427Y-72386001D01*
X40360426Y-61250000D02*
X30496427Y-71113999D01*
X42392856Y-61250000D02*
X40360426Y-61250000D01*
X66607141Y-60250001D02*
X67607140Y-61250000D01*
X66282139Y-59924999D02*
X66607141Y-60250001D01*
X43717857Y-59924999D02*
X66282139Y-59924999D01*
X42392856Y-61250000D02*
X43717857Y-59924999D01*
X67607140Y-62664213D02*
X67607140Y-61250000D01*
X67607140Y-67410002D02*
X67607140Y-62664213D01*
X68932141Y-68735003D02*
X67607140Y-67410002D01*
X68932141Y-74924999D02*
X68932141Y-68735003D01*
X67607140Y-76250000D02*
X68932141Y-74924999D01*
X40978643Y-76250000D02*
X35892856Y-76250000D01*
X42392856Y-76250000D02*
X40978643Y-76250000D01*
X63240712Y-61250000D02*
X56305712Y-61250000D01*
X64265712Y-61250000D02*
X63240712Y-61250000D01*
X53694284Y-76250000D02*
X56305713Y-76250000D01*
X56305712Y-61250000D02*
X45734284Y-61250000D01*
X46464284Y-62664213D02*
X46464284Y-61250000D01*
X46464284Y-62756574D02*
X46464284Y-62664213D01*
X41067855Y-68153003D02*
X46464284Y-62756574D01*
X41067855Y-72386001D02*
X41067855Y-68153003D01*
X43606853Y-74924999D02*
X41067855Y-72386001D01*
X45139283Y-74924999D02*
X43606853Y-74924999D01*
X46464284Y-76250000D02*
X45139283Y-74924999D01*
X51550071Y-76250000D02*
X46464284Y-76250000D01*
X52964284Y-76250000D02*
X51550071Y-76250000D01*
X45464285Y-77249999D02*
X46464284Y-76250000D01*
X45139283Y-77575001D02*
X45464285Y-77249999D01*
X40659999Y-77575001D02*
X45139283Y-77575001D01*
X37635000Y-80600000D02*
X40659999Y-77575001D01*
X37635000Y-81300000D02*
X37635000Y-80600000D01*
X19024977Y-69849623D02*
X20940011Y-67934589D01*
X30015000Y-80600000D02*
X27949260Y-78534260D01*
X19024977Y-75985979D02*
X19024977Y-69849623D01*
X19924999Y-61886001D02*
X19924999Y-60613999D01*
X19924999Y-60613999D02*
X21614027Y-58924971D01*
X20940011Y-62901013D02*
X19924999Y-61886001D01*
X21614027Y-58924971D02*
X33728635Y-58924971D01*
X30015000Y-81300000D02*
X30015000Y-80600000D01*
X20940011Y-67934589D02*
X20940011Y-62901013D01*
X27949260Y-78534260D02*
X21573258Y-78534260D01*
X33728635Y-58924971D02*
X34078640Y-58574966D01*
X88020000Y-56750000D02*
X95980000Y-56750000D01*
X56180712Y-56750000D02*
X88020000Y-56750000D01*
X54355746Y-58574966D02*
X56180712Y-56750000D01*
X34078640Y-58574966D02*
X54355746Y-58574966D01*
X21573258Y-78534260D02*
X19024977Y-75985979D01*
X21980000Y-71750000D02*
X24591428Y-71750000D01*
X31285000Y-82000000D02*
X33285000Y-84000000D01*
X33285000Y-84000000D02*
X39360002Y-84000000D01*
X39360002Y-84000000D02*
X40819999Y-82540003D01*
X40819999Y-80039999D02*
X40884999Y-79974999D01*
X31285000Y-81300000D02*
X31285000Y-82000000D01*
X40819999Y-82540003D02*
X40819999Y-80039999D01*
X45734284Y-71750000D02*
X43122856Y-71750000D01*
X35162856Y-71750000D02*
X32551428Y-71750000D01*
X23907215Y-71750000D02*
X21250000Y-71750000D01*
X25321428Y-71750000D02*
X23907215Y-71750000D01*
X35892856Y-71750000D02*
X31821428Y-71750000D01*
X46464284Y-71750000D02*
X42392856Y-71750000D01*
X52964284Y-71750000D02*
X54289285Y-70424999D01*
X54289285Y-70424999D02*
X58060279Y-70424999D01*
X60110678Y-72475398D02*
X60110678Y-78527602D01*
X58060279Y-70424999D02*
X60110678Y-72475398D01*
X58663281Y-79974999D02*
X54618179Y-79974999D01*
X60110678Y-78527602D02*
X58663281Y-79974999D01*
X40884999Y-79974999D02*
X54618179Y-79974999D01*
X52964284Y-71750000D02*
X46464284Y-71750000D01*
X65290713Y-71750000D02*
X66877142Y-71750000D01*
X64265713Y-71750000D02*
X65290713Y-71750000D01*
X75862142Y-71750000D02*
X77448571Y-71750000D01*
X74837142Y-71750000D02*
X75862142Y-71750000D01*
X78178568Y-71750000D02*
X74107140Y-71750000D01*
X87335787Y-71750000D02*
X87325707Y-71760080D01*
X88750000Y-71750000D02*
X87335787Y-71750000D01*
X87315627Y-71750000D02*
X84678568Y-71750000D01*
X87325707Y-71760080D02*
X87315627Y-71750000D01*
X33555000Y-83000000D02*
X39090002Y-83000000D01*
X32555000Y-81300000D02*
X32555000Y-82000000D01*
X39549999Y-80039999D02*
X40589998Y-79000000D01*
X39090002Y-83000000D02*
X39549999Y-82540003D01*
X39549999Y-82540003D02*
X39549999Y-80039999D01*
X32555000Y-82000000D02*
X33555000Y-83000000D01*
X57215120Y-79000000D02*
X55073200Y-79000000D01*
X40589998Y-79000000D02*
X55073200Y-79000000D01*
X57035712Y-71750000D02*
X58035711Y-72749999D01*
X59075320Y-77139800D02*
X57215120Y-79000000D01*
X58035711Y-72749999D02*
X58043399Y-72749999D01*
X58043399Y-72749999D02*
X59075320Y-73781920D01*
X59075320Y-73781920D02*
X59075320Y-77139800D01*
X67555000Y-86700000D02*
X67555000Y-86250000D01*
X69524998Y-84524998D02*
X68475002Y-84524998D01*
X69280002Y-84524998D02*
X69524998Y-84524998D01*
X67555000Y-85445000D02*
X67555000Y-86700000D01*
X68475002Y-84524998D02*
X67555000Y-85445000D01*
X93025001Y-34724999D02*
X92399999Y-35350001D01*
X90250000Y-22591812D02*
X91175011Y-23516823D01*
X93700000Y-18095000D02*
X90905000Y-18095000D01*
X93025001Y-26677825D02*
X93025001Y-34724999D01*
X92399999Y-35350001D02*
X92000000Y-35750000D01*
X91175011Y-24827835D02*
X93025001Y-26677825D01*
X91175011Y-23516823D02*
X91175011Y-24827835D01*
X90250000Y-18750000D02*
X90250000Y-22591812D01*
X90905000Y-18095000D02*
X90250000Y-18750000D01*
X97240002Y-56000000D02*
X97074988Y-55834986D01*
X69524998Y-84524998D02*
X76965000Y-84524998D01*
X82489998Y-79000000D02*
X95240002Y-79000000D01*
X97074988Y-55834986D02*
X97074988Y-44824988D01*
X97074988Y-44824988D02*
X93899999Y-41649999D01*
X97240002Y-77000000D02*
X97240002Y-56000000D01*
X93899999Y-41649999D02*
X93500000Y-41250000D01*
X95240002Y-79000000D02*
X97240002Y-77000000D01*
X76965000Y-84524998D02*
X82489998Y-79000000D01*
M02*
