G04 #@! TF.GenerationSoftware,KiCad,Pcbnew,(5.1.2)-1*
G04 #@! TF.CreationDate,2021-04-14T20:01:43-07:00*
G04 #@! TF.ProjectId,kicad-control-board-smt,6b696361-642d-4636-9f6e-74726f6c2d62,rev?*
G04 #@! TF.SameCoordinates,Original*
G04 #@! TF.FileFunction,Legend,Bot*
G04 #@! TF.FilePolarity,Positive*
%FSLAX46Y46*%
G04 Gerber Fmt 4.6, Leading zero omitted, Abs format (unit mm)*
G04 Created by KiCad (PCBNEW (5.1.2)-1) date 2021-04-14 20:01:43*
%MOMM*%
%LPD*%
G04 APERTURE LIST*
%ADD10C,0.150000*%
%ADD11C,0.120000*%
G04 APERTURE END LIST*
D10*
X57890666Y-105214666D02*
X57690666Y-105281333D01*
X57357333Y-105281333D01*
X57224000Y-105214666D01*
X57157333Y-105148000D01*
X57090666Y-105014666D01*
X57090666Y-104881333D01*
X57157333Y-104748000D01*
X57224000Y-104681333D01*
X57357333Y-104614666D01*
X57624000Y-104548000D01*
X57757333Y-104481333D01*
X57824000Y-104414666D01*
X57890666Y-104281333D01*
X57890666Y-104148000D01*
X57824000Y-104014666D01*
X57757333Y-103948000D01*
X57624000Y-103881333D01*
X57290666Y-103881333D01*
X57090666Y-103948000D01*
X56490666Y-103881333D02*
X56490666Y-105014666D01*
X56424000Y-105148000D01*
X56357333Y-105214666D01*
X56224000Y-105281333D01*
X55957333Y-105281333D01*
X55824000Y-105214666D01*
X55757333Y-105148000D01*
X55690666Y-105014666D01*
X55690666Y-103881333D01*
X55024000Y-105281333D02*
X55024000Y-103881333D01*
X54490666Y-103881333D01*
X54357333Y-103948000D01*
X54290666Y-104014666D01*
X54224000Y-104148000D01*
X54224000Y-104348000D01*
X54290666Y-104481333D01*
X54357333Y-104548000D01*
X54490666Y-104614666D01*
X55024000Y-104614666D01*
X53624000Y-104548000D02*
X53157333Y-104548000D01*
X52957333Y-105281333D02*
X53624000Y-105281333D01*
X53624000Y-103881333D01*
X52957333Y-103881333D01*
X51557333Y-105281333D02*
X52024000Y-104614666D01*
X52357333Y-105281333D02*
X52357333Y-103881333D01*
X51824000Y-103881333D01*
X51690666Y-103948000D01*
X51624000Y-104014666D01*
X51557333Y-104148000D01*
X51557333Y-104348000D01*
X51624000Y-104481333D01*
X51690666Y-104548000D01*
X51824000Y-104614666D01*
X52357333Y-104614666D01*
X49957333Y-105214666D02*
X49757333Y-105281333D01*
X49424000Y-105281333D01*
X49290666Y-105214666D01*
X49224000Y-105148000D01*
X49157333Y-105014666D01*
X49157333Y-104881333D01*
X49224000Y-104748000D01*
X49290666Y-104681333D01*
X49424000Y-104614666D01*
X49690666Y-104548000D01*
X49824000Y-104481333D01*
X49890666Y-104414666D01*
X49957333Y-104281333D01*
X49957333Y-104148000D01*
X49890666Y-104014666D01*
X49824000Y-103948000D01*
X49690666Y-103881333D01*
X49357333Y-103881333D01*
X49157333Y-103948000D01*
X48557333Y-105281333D02*
X48557333Y-103881333D01*
X48024000Y-103881333D02*
X47090666Y-105281333D01*
X47090666Y-103881333D02*
X48024000Y-105281333D01*
X46757333Y-103881333D02*
X45957333Y-103881333D01*
X46357333Y-105281333D02*
X46357333Y-103881333D01*
X45490666Y-104548000D02*
X45024000Y-104548000D01*
X44824000Y-105281333D02*
X45490666Y-105281333D01*
X45490666Y-103881333D01*
X44824000Y-103881333D01*
X44224000Y-104548000D02*
X43757333Y-104548000D01*
X43557333Y-105281333D02*
X44224000Y-105281333D01*
X44224000Y-103881333D01*
X43557333Y-103881333D01*
X42957333Y-105281333D02*
X42957333Y-103881333D01*
X42157333Y-105281333D01*
X42157333Y-103881333D01*
X40490666Y-105214666D02*
X40290666Y-105281333D01*
X39957333Y-105281333D01*
X39824000Y-105214666D01*
X39757333Y-105148000D01*
X39690666Y-105014666D01*
X39690666Y-104881333D01*
X39757333Y-104748000D01*
X39824000Y-104681333D01*
X39957333Y-104614666D01*
X40224000Y-104548000D01*
X40357333Y-104481333D01*
X40424000Y-104414666D01*
X40490666Y-104281333D01*
X40490666Y-104148000D01*
X40424000Y-104014666D01*
X40357333Y-103948000D01*
X40224000Y-103881333D01*
X39890666Y-103881333D01*
X39690666Y-103948000D01*
X39090666Y-105281333D02*
X39090666Y-103881333D01*
X38624000Y-104881333D01*
X38157333Y-103881333D01*
X38157333Y-105281333D01*
X37490666Y-105281333D02*
X37490666Y-103881333D01*
X37157333Y-103881333D01*
X36957333Y-103948000D01*
X36824000Y-104081333D01*
X36757333Y-104214666D01*
X36690666Y-104481333D01*
X36690666Y-104681333D01*
X36757333Y-104948000D01*
X36824000Y-105081333D01*
X36957333Y-105214666D01*
X37157333Y-105281333D01*
X37490666Y-105281333D01*
X35157333Y-104348000D02*
X34824000Y-105281333D01*
X34490666Y-104348000D01*
X33224000Y-105281333D02*
X34024000Y-105281333D01*
X33624000Y-105281333D02*
X33624000Y-103881333D01*
X33757333Y-104081333D01*
X33890666Y-104214666D01*
X34024000Y-104281333D01*
X32623999Y-105148000D02*
X32557333Y-105214666D01*
X32623999Y-105281333D01*
X32690666Y-105214666D01*
X32623999Y-105148000D01*
X32623999Y-105281333D01*
X31357333Y-104348000D02*
X31357333Y-105281333D01*
X31690666Y-103814666D02*
X32024000Y-104814666D01*
X31157333Y-104814666D01*
X28424000Y-104214666D02*
X28557333Y-104148000D01*
X28824000Y-104148000D01*
X28957333Y-104214666D01*
X29090666Y-104348000D01*
X29157333Y-104481333D01*
X29157333Y-104748000D01*
X29090666Y-104881333D01*
X28957333Y-105014666D01*
X28824000Y-105081333D01*
X28557333Y-105081333D01*
X28424000Y-105014666D01*
X28690666Y-103681333D02*
X29023999Y-103748000D01*
X29357333Y-103948000D01*
X29557333Y-104281333D01*
X29624000Y-104614666D01*
X29557333Y-104948000D01*
X29357333Y-105281333D01*
X29023999Y-105481333D01*
X28690666Y-105548000D01*
X28357333Y-105481333D01*
X28024000Y-105281333D01*
X27823999Y-104948000D01*
X27757333Y-104614666D01*
X27823999Y-104281333D01*
X28024000Y-103948000D01*
X28357333Y-103748000D01*
X28690666Y-103681333D01*
X26157333Y-104014666D02*
X26090666Y-103948000D01*
X25957333Y-103881333D01*
X25624000Y-103881333D01*
X25490666Y-103948000D01*
X25424000Y-104014666D01*
X25357333Y-104148000D01*
X25357333Y-104281333D01*
X25424000Y-104481333D01*
X26224000Y-105281333D01*
X25357333Y-105281333D01*
X24490666Y-103881333D02*
X24357333Y-103881333D01*
X24224000Y-103948000D01*
X24157333Y-104014666D01*
X24090666Y-104148000D01*
X24024000Y-104414666D01*
X24024000Y-104748000D01*
X24090666Y-105014666D01*
X24157333Y-105148000D01*
X24224000Y-105214666D01*
X24357333Y-105281333D01*
X24490666Y-105281333D01*
X24624000Y-105214666D01*
X24690666Y-105148000D01*
X24757333Y-105014666D01*
X24824000Y-104748000D01*
X24824000Y-104414666D01*
X24757333Y-104148000D01*
X24690666Y-104014666D01*
X24624000Y-103948000D01*
X24490666Y-103881333D01*
X23490666Y-104014666D02*
X23424000Y-103948000D01*
X23290666Y-103881333D01*
X22957333Y-103881333D01*
X22824000Y-103948000D01*
X22757333Y-104014666D01*
X22690666Y-104148000D01*
X22690666Y-104281333D01*
X22757333Y-104481333D01*
X23557333Y-105281333D01*
X22690666Y-105281333D01*
X21824000Y-103881333D02*
X21690666Y-103881333D01*
X21557333Y-103948000D01*
X21490666Y-104014666D01*
X21424000Y-104148000D01*
X21357333Y-104414666D01*
X21357333Y-104748000D01*
X21424000Y-105014666D01*
X21490666Y-105148000D01*
X21557333Y-105214666D01*
X21690666Y-105281333D01*
X21824000Y-105281333D01*
X21957333Y-105214666D01*
X22024000Y-105148000D01*
X22090666Y-105014666D01*
X22157333Y-104748000D01*
X22157333Y-104414666D01*
X22090666Y-104148000D01*
X22024000Y-104014666D01*
X21957333Y-103948000D01*
X21824000Y-103881333D01*
D11*
X65830000Y-48330000D02*
X65830000Y-47000000D01*
X64500000Y-48330000D02*
X65830000Y-48330000D01*
X63230000Y-48330000D02*
X63230000Y-45670000D01*
X63230000Y-45670000D02*
X40310000Y-45670000D01*
X63230000Y-48330000D02*
X40310000Y-48330000D01*
X40310000Y-48330000D02*
X40310000Y-45670000D01*
X99830000Y-104830000D02*
X99830000Y-103500000D01*
X98500000Y-104830000D02*
X99830000Y-104830000D01*
X97230000Y-104830000D02*
X97230000Y-102170000D01*
X97230000Y-102170000D02*
X59070000Y-102170000D01*
X97230000Y-104830000D02*
X59070000Y-104830000D01*
X59070000Y-104830000D02*
X59070000Y-102170000D01*
D10*
X67377619Y-48285714D02*
X66663333Y-48285714D01*
X66520476Y-48333333D01*
X66425238Y-48428571D01*
X66377619Y-48571428D01*
X66377619Y-48666666D01*
X66377619Y-47285714D02*
X66377619Y-47857142D01*
X66377619Y-47571428D02*
X67377619Y-47571428D01*
X67234761Y-47666666D01*
X67139523Y-47761904D01*
X67091904Y-47857142D01*
X67377619Y-46666666D02*
X67377619Y-46571428D01*
X67330000Y-46476190D01*
X67282380Y-46428571D01*
X67187142Y-46380952D01*
X66996666Y-46333333D01*
X66758571Y-46333333D01*
X66568095Y-46380952D01*
X66472857Y-46428571D01*
X66425238Y-46476190D01*
X66377619Y-46571428D01*
X66377619Y-46666666D01*
X66425238Y-46761904D01*
X66472857Y-46809523D01*
X66568095Y-46857142D01*
X66758571Y-46904761D01*
X66996666Y-46904761D01*
X67187142Y-46857142D01*
X67282380Y-46809523D01*
X67330000Y-46761904D01*
X67377619Y-46666666D01*
X66377619Y-45380952D02*
X66377619Y-45952380D01*
X66377619Y-45666666D02*
X67377619Y-45666666D01*
X67234761Y-45761904D01*
X67139523Y-45857142D01*
X67091904Y-45952380D01*
X101377619Y-104785714D02*
X100663333Y-104785714D01*
X100520476Y-104833333D01*
X100425238Y-104928571D01*
X100377619Y-105071428D01*
X100377619Y-105166666D01*
X100377619Y-103785714D02*
X100377619Y-104357142D01*
X100377619Y-104071428D02*
X101377619Y-104071428D01*
X101234761Y-104166666D01*
X101139523Y-104261904D01*
X101091904Y-104357142D01*
X101377619Y-103166666D02*
X101377619Y-103071428D01*
X101330000Y-102976190D01*
X101282380Y-102928571D01*
X101187142Y-102880952D01*
X100996666Y-102833333D01*
X100758571Y-102833333D01*
X100568095Y-102880952D01*
X100472857Y-102928571D01*
X100425238Y-102976190D01*
X100377619Y-103071428D01*
X100377619Y-103166666D01*
X100425238Y-103261904D01*
X100472857Y-103309523D01*
X100568095Y-103357142D01*
X100758571Y-103404761D01*
X100996666Y-103404761D01*
X101187142Y-103357142D01*
X101282380Y-103309523D01*
X101330000Y-103261904D01*
X101377619Y-103166666D01*
X101282380Y-102452380D02*
X101330000Y-102404761D01*
X101377619Y-102309523D01*
X101377619Y-102071428D01*
X101330000Y-101976190D01*
X101282380Y-101928571D01*
X101187142Y-101880952D01*
X101091904Y-101880952D01*
X100949047Y-101928571D01*
X100377619Y-102500000D01*
X100377619Y-101880952D01*
M02*
