G04 #@! TF.GenerationSoftware,KiCad,Pcbnew,(5.1.2)-1*
G04 #@! TF.CreationDate,2019-12-13T22:04:46-08:00*
G04 #@! TF.ProjectId,kicad-control-board-smt,6b696361-642d-4636-9f6e-74726f6c2d62,rev?*
G04 #@! TF.SameCoordinates,Original*
G04 #@! TF.FileFunction,Paste,Top*
G04 #@! TF.FilePolarity,Positive*
%FSLAX46Y46*%
G04 Gerber Fmt 4.6, Leading zero omitted, Abs format (unit mm)*
G04 Created by KiCad (PCBNEW (5.1.2)-1) date 2019-12-13 22:04:46*
%MOMM*%
%LPD*%
G04 APERTURE LIST*
%ADD10R,1.800000X3.500000*%
%ADD11R,1.600000X3.500000*%
%ADD12R,0.750000X1.200000*%
%ADD13R,1.200000X0.750000*%
%ADD14R,1.900000X0.800000*%
%ADD15R,0.900000X1.200000*%
%ADD16R,1.200000X0.900000*%
%ADD17R,0.600000X1.500000*%
%ADD18R,0.600000X2.000000*%
%ADD19R,1.500000X0.600000*%
G04 APERTURE END LIST*
D10*
X94040960Y-112100360D03*
X94040960Y-117100360D03*
D11*
X88000000Y-81300000D03*
X88000000Y-86700000D03*
D12*
X83000000Y-83050000D03*
X83000000Y-84950000D03*
X80000000Y-84950000D03*
X80000000Y-83050000D03*
D11*
X17000000Y-82300000D03*
X17000000Y-87700000D03*
D12*
X23000000Y-85950000D03*
X23000000Y-84050000D03*
X25000000Y-84050000D03*
X25000000Y-85950000D03*
D11*
X105000000Y-37700000D03*
X105000000Y-32300000D03*
D13*
X97200000Y-30750000D03*
X95300000Y-30750000D03*
X95300000Y-28000000D03*
X97200000Y-28000000D03*
D14*
X34500000Y-17000000D03*
X37500000Y-16050000D03*
X37500000Y-17950000D03*
X37500000Y-23950000D03*
X37500000Y-22050000D03*
X34500000Y-23000000D03*
X34500000Y-29000000D03*
X37500000Y-28050000D03*
X37500000Y-29950000D03*
X39500000Y-96050000D03*
X39500000Y-97950000D03*
X42500000Y-97000000D03*
X34500000Y-97000000D03*
X31500000Y-97950000D03*
X31500000Y-96050000D03*
D15*
X51000000Y-83900000D03*
X51000000Y-86100000D03*
X55000000Y-83900000D03*
X55000000Y-86100000D03*
D16*
X96327140Y-98110040D03*
X94127140Y-98110040D03*
D15*
X59000000Y-86100000D03*
X59000000Y-83900000D03*
X63000000Y-83900000D03*
X63000000Y-86100000D03*
D16*
X80900000Y-15800000D03*
X83100000Y-15800000D03*
X80900000Y-19000000D03*
X83100000Y-19000000D03*
X83100000Y-22000000D03*
X80900000Y-22000000D03*
X83100000Y-25000000D03*
X80900000Y-25000000D03*
X83100000Y-28000000D03*
X80900000Y-28000000D03*
X80900000Y-31000000D03*
X83100000Y-31000000D03*
X88400000Y-28000000D03*
X90600000Y-28000000D03*
X90600000Y-31000000D03*
X88400000Y-31000000D03*
X89362460Y-107919520D03*
X87162460Y-107919520D03*
D15*
X54000000Y-40100000D03*
X54000000Y-37900000D03*
X51000000Y-37900000D03*
X51000000Y-40100000D03*
X48000000Y-40100000D03*
X48000000Y-37900000D03*
D16*
X92768240Y-107919520D03*
X94968240Y-107919520D03*
D15*
X45000000Y-101900000D03*
X45000000Y-104100000D03*
X41900000Y-104110000D03*
X41900000Y-101910000D03*
X38800000Y-104100000D03*
X38800000Y-101900000D03*
X35700000Y-101900000D03*
X35700000Y-104100000D03*
X32600000Y-104100000D03*
X32600000Y-101900000D03*
X29500000Y-104100000D03*
X29500000Y-101900000D03*
D17*
X76445000Y-86700000D03*
X75175000Y-86700000D03*
X73905000Y-86700000D03*
X72635000Y-86700000D03*
X71365000Y-86700000D03*
X70095000Y-86700000D03*
X68825000Y-86700000D03*
X67555000Y-86700000D03*
X67555000Y-81300000D03*
X68825000Y-81300000D03*
X70095000Y-81300000D03*
X71365000Y-81300000D03*
X72635000Y-81300000D03*
X73905000Y-81300000D03*
X75175000Y-81300000D03*
X76445000Y-81300000D03*
D18*
X28745000Y-90700000D03*
X30015000Y-90700000D03*
X31285000Y-90700000D03*
X32555000Y-90700000D03*
X33825000Y-90700000D03*
X35095000Y-90700000D03*
X36365000Y-90700000D03*
X37635000Y-90700000D03*
X38905000Y-90700000D03*
X40175000Y-90700000D03*
X41445000Y-90700000D03*
X42715000Y-90700000D03*
X43985000Y-90700000D03*
X45255000Y-90700000D03*
X45255000Y-81300000D03*
X43985000Y-81300000D03*
X42715000Y-81300000D03*
X41445000Y-81300000D03*
X40175000Y-81300000D03*
X38905000Y-81300000D03*
X37635000Y-81300000D03*
X36365000Y-81300000D03*
X35095000Y-81300000D03*
X33825000Y-81300000D03*
X32555000Y-81300000D03*
X31285000Y-81300000D03*
X30015000Y-81300000D03*
X28745000Y-81300000D03*
D19*
X93700000Y-15555000D03*
X93700000Y-16825000D03*
X93700000Y-18095000D03*
X93700000Y-19365000D03*
X93700000Y-20635000D03*
X93700000Y-21905000D03*
X93700000Y-23175000D03*
X93700000Y-24445000D03*
X88300000Y-24445000D03*
X88300000Y-23175000D03*
X88300000Y-21905000D03*
X88300000Y-20635000D03*
X88300000Y-19365000D03*
X88300000Y-18095000D03*
X88300000Y-16825000D03*
X88300000Y-15555000D03*
M02*
