M48
; DRILL file {KiCad (5.1.2)-1} date 8/21/2020 1:57:11 PM
; FORMAT={2:4/ absolute / inch / suppress trailing zeros}
; #@! TF.CreationDate,2020-08-21T13:57:11-07:00
; #@! TF.GenerationSoftware,Kicad,Pcbnew,(5.1.2)-1
; #@! TF.FileFunction,Plated,1,2,PTH
FMAT,2
INCH,LZ
T1C0.0157
T2C0.0394
T3C0.1260
%
G90
G05
T1
X005709Y-010276
X006299Y-012598
X007362Y-015079
X00748Y-020079
X007874Y-011024
X008071Y-00748
X008268Y-00689
X009488Y-010276
X009764Y-017087
X010057Y-018414
X010178Y-010688
X010236Y-005906
X010315Y-024016
X010433Y-022047
X010827Y-00748
X010925Y-010276
X01122Y-00689
X012402Y-011024
X0125Y-021791
X012598Y-005512
X012598Y-016142
X013386Y-010276
X013563Y-01687
X013583Y-00748
X013622Y-019075
X01376Y-011634
X014242Y-016132
X014488Y-02063
X014532Y-021732
X015089Y-015059
X015354Y-011024
X015414Y-016861
X015472Y-014744
X015624Y-015395
X015752Y-023301
X015918Y-016498
X016339Y-00748
X016401Y-025392
X016535Y-011024
X017219Y-015386
X017244Y-010276
X017264Y-018445
X017894Y-017165
X017913Y-019075
X018248Y-01752
X018386Y-020394
X018444Y-019065
X019016Y-018287
X019295Y-01501
X019449Y-008366
X019557Y-025307
X020602Y-012875
X021246Y-021126
X02126Y-017106
X021558Y-020695
X021778Y-015219
X021911Y-021147
X022736Y-019803
X022809Y-019326
X023106Y-01903
X023245Y-015053
X023425Y-007874
X023819Y-017835
X024213Y-020079
X02437Y-016122
X024557Y-013583
X024557Y-013583
X027566Y-021181
X029528Y-015748
X030248Y-021181
X033465Y-020276
X033661Y-011811
T2
X026346Y-013386
X026346Y-014386
X027346Y-013386
X027346Y-014386
X028346Y-013386
X028346Y-014386
X022244Y-007087
X023244Y-007087
X024244Y-007087
X025244Y-007087
X026244Y-007087
X027244Y-007087
X028244Y-007087
X029244Y-007087
X030244Y-007087
X031244Y-007087
X008858Y-02937
X009858Y-02937
X010858Y-02937
X011858Y-02937
X012858Y-02937
X013858Y-02937
X014858Y-02937
X015858Y-02937
X016858Y-02937
X017858Y-02937
X018858Y-02937
X019858Y-02937
X020858Y-02937
X021858Y-02937
X022858Y-02937
X023858Y-02937
X028677Y-02874
X028677Y-02974
X029677Y-02874
X029677Y-02974
X030677Y-02874
X030677Y-02974
X031677Y-02874
X031677Y-02974
X032677Y-02874
X032677Y-02974
T3
X022224Y-026417
T0
M30
