M48
; DRILL file {KiCad (5.1.2)-1} date 1/8/2020 10:12:00 PM
; FORMAT={-:-/ absolute / inch / decimal}
; #@! TF.CreationDate,2020-01-08T22:12:00-08:00
; #@! TF.GenerationSoftware,Kicad,Pcbnew,(5.1.2)-1
; #@! TF.FileFunction,Plated,1,2,PTH
FMAT,2
INCH
T1C0.0157
T2C0.0394
T3C0.1260
%
G90
G05
T1
X0.5709Y-1.0276
X0.6299Y-1.2598
X0.7362Y-1.5079
X0.748Y-2.0079
X0.7874Y-1.1024
X0.8071Y-0.748
X0.8268Y-0.689
X0.9488Y-1.0276
X0.9764Y-1.7087
X1.0057Y-1.8414
X1.0178Y-1.0688
X1.0236Y-0.5906
X1.0315Y-2.4016
X1.0433Y-2.2047
X1.0827Y-0.748
X1.0925Y-1.0276
X1.122Y-0.689
X1.2402Y-1.1024
X1.25Y-2.1791
X1.2598Y-0.5512
X1.2598Y-1.6142
X1.3386Y-1.0276
X1.3563Y-1.687
X1.3583Y-0.748
X1.3622Y-1.9075
X1.376Y-1.1634
X1.4242Y-1.6132
X1.4488Y-2.063
X1.4532Y-2.1732
X1.5089Y-1.5059
X1.5354Y-1.1024
X1.5414Y-1.6861
X1.5472Y-1.4744
X1.5624Y-1.5395
X1.5752Y-2.3301
X1.5918Y-1.6498
X1.6339Y-0.748
X1.6401Y-2.5392
X1.6535Y-1.1024
X1.7219Y-1.5386
X1.7244Y-1.0276
X1.7264Y-1.8445
X1.7894Y-1.7165
X1.7913Y-1.9075
X1.8248Y-1.752
X1.8386Y-2.0394
X1.8444Y-1.9065
X1.9016Y-1.8287
X1.9295Y-1.501
X1.9449Y-0.8366
X1.9557Y-2.5307
X2.0602Y-1.2875
X2.1246Y-2.1126
X2.126Y-1.7106
X2.1558Y-2.0695
X2.1778Y-1.5219
X2.1911Y-2.1147
X2.2736Y-1.9803
X2.2809Y-1.9326
X2.3106Y-1.903
X2.3245Y-1.5053
X2.3425Y-0.7874
X2.3819Y-1.7835
X2.4213Y-2.0079
X2.437Y-1.6122
X2.4557Y-1.3583
X2.4557Y-1.3583
X2.7566Y-2.1181
X2.9528Y-1.5748
X3.0248Y-2.1181
X3.3465Y-2.0276
X3.3661Y-1.1811
T2
X0.8858Y-2.937
X0.9858Y-2.937
X1.0858Y-2.937
X1.1858Y-2.937
X1.2858Y-2.937
X1.3858Y-2.937
X1.4858Y-2.937
X1.5858Y-2.937
X1.6858Y-2.937
X1.7858Y-2.937
X1.8858Y-2.937
X1.9858Y-2.937
X2.0858Y-2.937
X2.1858Y-2.937
X2.2858Y-2.937
X2.3858Y-2.937
X2.8677Y-2.874
X2.8677Y-2.974
X2.9677Y-2.874
X2.9677Y-2.974
X3.0677Y-2.874
X3.0677Y-2.974
X3.1677Y-2.874
X3.1677Y-2.974
X3.2677Y-2.874
X3.2677Y-2.974
X2.6346Y-1.3386
X2.6346Y-1.4386
X2.7346Y-1.3386
X2.7346Y-1.4386
X2.8346Y-1.3386
X2.8346Y-1.4386
X2.2244Y-0.7087
X2.3244Y-0.7087
X2.4244Y-0.7087
X2.5244Y-0.7087
X2.6244Y-0.7087
X2.7244Y-0.7087
X2.8244Y-0.7087
X2.9244Y-0.7087
X3.0244Y-0.7087
X3.1244Y-0.7087
T3
X2.2224Y-2.6417
T0
M30
