G04 #@! TF.GenerationSoftware,KiCad,Pcbnew,(5.1.2)-1*
G04 #@! TF.CreationDate,2020-05-25T21:05:15-07:00*
G04 #@! TF.ProjectId,kicad-cpu-board-smt,6b696361-642d-4637-9075-2d626f617264,rev?*
G04 #@! TF.SameCoordinates,Original*
G04 #@! TF.FileFunction,Copper,L1,Top*
G04 #@! TF.FilePolarity,Positive*
%FSLAX46Y46*%
G04 Gerber Fmt 4.6, Leading zero omitted, Abs format (unit mm)*
G04 Created by KiCad (PCBNEW (5.1.2)-1) date 2020-05-25 21:05:15*
%MOMM*%
%LPD*%
G04 APERTURE LIST*
%ADD10C,1.676868*%
%ADD11C,0.100000*%
%ADD12R,1.600000X0.550000*%
%ADD13R,0.550000X1.600000*%
%ADD14R,0.600000X1.550000*%
%ADD15R,2.500000X4.000000*%
%ADD16R,2.100000X1.800000*%
%ADD17R,2.500000X2.000000*%
%ADD18R,1.600000X3.500000*%
%ADD19R,1.700000X1.700000*%
%ADD20O,1.700000X1.700000*%
%ADD21R,3.800000X2.000000*%
%ADD22R,1.500000X2.000000*%
%ADD23R,0.900000X1.200000*%
%ADD24R,1.200000X0.900000*%
%ADD25R,0.800000X1.900000*%
%ADD26R,0.750000X1.200000*%
%ADD27R,1.600000X2.600000*%
%ADD28C,4.000000*%
%ADD29C,0.800000*%
%ADD30C,1.000000*%
%ADD31C,0.250000*%
%ADD32C,0.500000*%
G04 APERTURE END LIST*
D10*
X80000000Y-63900000D03*
D11*
G36*
X81150000Y-65700000D02*
G01*
X78850000Y-65700000D01*
X79450000Y-62100000D01*
X80550000Y-62100000D01*
X81150000Y-65700000D01*
X81150000Y-65700000D01*
G37*
D10*
X80000000Y-58100000D03*
D11*
G36*
X78850000Y-56300000D02*
G01*
X81150000Y-56300000D01*
X80550000Y-59900000D01*
X79450000Y-59900000D01*
X78850000Y-56300000D01*
X78850000Y-56300000D01*
G37*
D10*
X85600540Y-58087940D03*
D11*
G36*
X84450540Y-56287940D02*
G01*
X86750540Y-56287940D01*
X86150540Y-59887940D01*
X85050540Y-59887940D01*
X84450540Y-56287940D01*
X84450540Y-56287940D01*
G37*
D10*
X85600540Y-63887940D03*
D11*
G36*
X86750540Y-65687940D02*
G01*
X84450540Y-65687940D01*
X85050540Y-62087940D01*
X86150540Y-62087940D01*
X86750540Y-65687940D01*
X86750540Y-65687940D01*
G37*
D10*
X50678080Y-56038160D03*
D11*
G36*
X49528080Y-54238160D02*
G01*
X51828080Y-54238160D01*
X51228080Y-57838160D01*
X50128080Y-57838160D01*
X49528080Y-54238160D01*
X49528080Y-54238160D01*
G37*
D10*
X50678080Y-61838160D03*
D11*
G36*
X51828080Y-63638160D02*
G01*
X49528080Y-63638160D01*
X50128080Y-60038160D01*
X51228080Y-60038160D01*
X51828080Y-63638160D01*
X51828080Y-63638160D01*
G37*
D10*
X42445940Y-56127060D03*
D11*
G36*
X41295940Y-54327060D02*
G01*
X43595940Y-54327060D01*
X42995940Y-57927060D01*
X41895940Y-57927060D01*
X41295940Y-54327060D01*
X41295940Y-54327060D01*
G37*
D10*
X42445940Y-61927060D03*
D11*
G36*
X43595940Y-63727060D02*
G01*
X41295940Y-63727060D01*
X41895940Y-60127060D01*
X42995940Y-60127060D01*
X43595940Y-63727060D01*
X43595940Y-63727060D01*
G37*
D12*
X50600000Y-48800000D03*
X50600000Y-48000000D03*
X50600000Y-47200000D03*
X50600000Y-46400000D03*
X50600000Y-45600000D03*
X50600000Y-44800000D03*
X50600000Y-44000000D03*
X50600000Y-43200000D03*
D13*
X49150000Y-41750000D03*
X48350000Y-41750000D03*
X47550000Y-41750000D03*
X46750000Y-41750000D03*
X45950000Y-41750000D03*
X45150000Y-41750000D03*
X44350000Y-41750000D03*
X43550000Y-41750000D03*
D12*
X42100000Y-43200000D03*
X42100000Y-44000000D03*
X42100000Y-44800000D03*
X42100000Y-45600000D03*
X42100000Y-46400000D03*
X42100000Y-47200000D03*
X42100000Y-48000000D03*
X42100000Y-48800000D03*
D13*
X43550000Y-50250000D03*
X44350000Y-50250000D03*
X45150000Y-50250000D03*
X45950000Y-50250000D03*
X46750000Y-50250000D03*
X47550000Y-50250000D03*
X48350000Y-50250000D03*
X49150000Y-50250000D03*
D14*
X16095000Y-48700000D03*
X17365000Y-48700000D03*
X18635000Y-48700000D03*
X19905000Y-48700000D03*
X19905000Y-43300000D03*
X18635000Y-43300000D03*
X17365000Y-43300000D03*
X16095000Y-43300000D03*
D15*
X83000000Y-38000000D03*
X83000000Y-30000000D03*
D16*
X55272600Y-34491280D03*
X52372600Y-34491280D03*
X52372600Y-36791280D03*
X55272600Y-36791280D03*
D17*
X64800000Y-58400000D03*
X64800000Y-62400000D03*
X71600000Y-58400000D03*
X71600000Y-62400000D03*
X58000000Y-62400000D03*
X58000000Y-58400000D03*
D18*
X35000000Y-37700000D03*
X35000000Y-32300000D03*
D19*
X72000000Y-34000000D03*
D20*
X72000000Y-36540000D03*
X69460000Y-34000000D03*
X69460000Y-36540000D03*
X66920000Y-34000000D03*
X66920000Y-36540000D03*
D14*
X29095000Y-48700000D03*
X30365000Y-48700000D03*
X31635000Y-48700000D03*
X32905000Y-48700000D03*
X32905000Y-43300000D03*
X31635000Y-43300000D03*
X30365000Y-43300000D03*
X29095000Y-43300000D03*
X44095000Y-22700000D03*
X45365000Y-22700000D03*
X46635000Y-22700000D03*
X47905000Y-22700000D03*
X47905000Y-17300000D03*
X46635000Y-17300000D03*
X45365000Y-17300000D03*
X44095000Y-17300000D03*
D21*
X23000000Y-31850000D03*
D22*
X23000000Y-38150000D03*
X25300000Y-38150000D03*
X20700000Y-38150000D03*
D21*
X64000000Y-42850000D03*
D22*
X64000000Y-49150000D03*
X66300000Y-49150000D03*
X61700000Y-49150000D03*
D23*
X29000000Y-58200000D03*
X29000000Y-56000000D03*
X25000000Y-58200000D03*
X25000000Y-56000000D03*
X21000000Y-58200000D03*
X21000000Y-56000000D03*
X29000000Y-63100000D03*
X29000000Y-60900000D03*
X25000000Y-63200000D03*
X25000000Y-61000000D03*
X21000000Y-63200000D03*
X21000000Y-61000000D03*
X39035000Y-26100000D03*
X39035000Y-23900000D03*
X35739284Y-26100000D03*
X35739284Y-23900000D03*
X32443570Y-26100000D03*
X32443570Y-23900000D03*
X29147856Y-26100000D03*
X29147856Y-23900000D03*
X25852142Y-26100000D03*
X25852142Y-23900000D03*
X22556428Y-26100000D03*
X22556428Y-23900000D03*
X19260714Y-26100000D03*
X19260714Y-23900000D03*
X15965000Y-26100000D03*
X15965000Y-23900000D03*
X47500000Y-58250000D03*
X47500000Y-56050000D03*
X45689520Y-58196660D03*
X45689520Y-55996660D03*
X56575960Y-44848600D03*
X56575960Y-47048600D03*
D24*
X52768320Y-30853380D03*
X54968320Y-30853380D03*
D25*
X38950000Y-17500000D03*
X37050000Y-17500000D03*
X38000000Y-20500000D03*
X31950000Y-17500000D03*
X30050000Y-17500000D03*
X31000000Y-20500000D03*
X24950000Y-17500000D03*
X23050000Y-17500000D03*
X24000000Y-20500000D03*
X17950000Y-17500000D03*
X16050000Y-17500000D03*
X17000000Y-20500000D03*
D19*
X83000000Y-73000000D03*
D20*
X83000000Y-75540000D03*
X80460000Y-73000000D03*
X80460000Y-75540000D03*
X77920000Y-73000000D03*
X77920000Y-75540000D03*
X75380000Y-73000000D03*
X75380000Y-75540000D03*
X72840000Y-73000000D03*
X72840000Y-75540000D03*
D19*
X22500000Y-74600000D03*
D20*
X25040000Y-74600000D03*
X27580000Y-74600000D03*
X30120000Y-74600000D03*
X32660000Y-74600000D03*
X35200000Y-74600000D03*
X37740000Y-74600000D03*
X40280000Y-74600000D03*
X42820000Y-74600000D03*
X45360000Y-74600000D03*
X47900000Y-74600000D03*
X50440000Y-74600000D03*
X52980000Y-74600000D03*
X55520000Y-74600000D03*
X58060000Y-74600000D03*
X60600000Y-74600000D03*
D19*
X56500000Y-18000000D03*
D20*
X59040000Y-18000000D03*
X61580000Y-18000000D03*
X64120000Y-18000000D03*
X66660000Y-18000000D03*
X69200000Y-18000000D03*
X71740000Y-18000000D03*
X74280000Y-18000000D03*
X76820000Y-18000000D03*
X79360000Y-18000000D03*
D26*
X17000000Y-57900000D03*
X17000000Y-56000000D03*
X17000000Y-62900000D03*
X17000000Y-61000000D03*
X37500000Y-46900000D03*
X37500000Y-45000000D03*
X42000000Y-24050000D03*
X42000000Y-25950000D03*
D18*
X85000000Y-48700000D03*
X85000000Y-43300000D03*
D26*
X16000000Y-35900000D03*
X16000000Y-34000000D03*
X48991520Y-36548100D03*
X48991520Y-34648100D03*
X58963560Y-36751340D03*
X58963560Y-34851340D03*
X39500000Y-46900000D03*
X39500000Y-45000000D03*
X35500000Y-46950000D03*
X35500000Y-45050000D03*
X53990240Y-46900000D03*
X53990240Y-45000000D03*
D27*
X34100000Y-61350000D03*
X34100000Y-57750000D03*
D18*
X75000000Y-48700000D03*
X75000000Y-43300000D03*
D26*
X24000000Y-46900000D03*
X24000000Y-45000000D03*
D28*
X56450000Y-67100000D03*
D29*
X32000000Y-41000000D03*
X16000000Y-32000000D03*
X42000000Y-28000000D03*
X61500000Y-51000000D03*
X26200000Y-61000000D03*
X26500000Y-56000000D03*
X18700000Y-38300000D03*
X24800000Y-43400000D03*
X85000000Y-51500000D03*
X75000000Y-40000000D03*
X34600000Y-48450000D03*
X49400000Y-21250000D03*
X34950000Y-29550000D03*
X31750000Y-55350000D03*
X49674780Y-64279780D03*
X41658540Y-64495680D03*
X59042300Y-38234620D03*
X49009300Y-38125400D03*
X52329080Y-32702500D03*
X55316120Y-38656260D03*
X85500000Y-30000000D03*
X43850000Y-46850000D03*
X54000000Y-43450000D03*
X48300000Y-46450000D03*
X39000000Y-28000000D03*
X20000000Y-28000000D03*
X31500000Y-28000000D03*
X25852142Y-27147858D03*
X36800000Y-52400000D03*
X55653940Y-53713380D03*
X41500000Y-19000000D03*
X34500000Y-19000000D03*
X27500000Y-19000000D03*
X20500000Y-19000000D03*
X14500000Y-26100000D03*
X43800000Y-26100000D03*
X34000000Y-26100000D03*
X24100000Y-26100000D03*
X27750000Y-26100000D03*
X76830180Y-53800000D03*
X70017900Y-53800000D03*
X57750000Y-50300000D03*
X46700000Y-51800000D03*
X34450000Y-42850000D03*
X38325010Y-38250000D03*
X61900000Y-40950000D03*
X40431764Y-41904876D03*
X62374968Y-34500000D03*
X39300000Y-37450000D03*
X36174990Y-40974999D03*
X62374968Y-34500000D03*
X60500000Y-45300000D03*
X46350000Y-44500000D03*
X45500000Y-48450000D03*
X58689691Y-48334990D03*
X57935373Y-49089308D03*
X46848346Y-48425010D03*
X59500000Y-20000000D03*
X39150723Y-42826064D03*
X53964659Y-53659833D03*
X54757320Y-52565300D03*
X45450000Y-43600000D03*
X26000000Y-15000000D03*
X21000000Y-17500000D03*
X28500000Y-17500000D03*
X32000000Y-14000000D03*
X43736260Y-39080440D03*
X39684960Y-39103300D03*
X40010080Y-59184540D03*
X36910969Y-55200009D03*
X19000000Y-51000000D03*
X25544780Y-46771560D03*
D30*
X66900000Y-49150000D02*
X66300000Y-49150000D01*
X17375000Y-35900000D02*
X16000000Y-35900000D01*
X25050000Y-35900000D02*
X17375000Y-35900000D01*
X25300000Y-36150000D02*
X25050000Y-35900000D01*
X25300000Y-38150000D02*
X25300000Y-36150000D01*
X16000000Y-43205000D02*
X16095000Y-43300000D01*
X23664998Y-46900000D02*
X24000000Y-46900000D01*
X22924999Y-46160001D02*
X23664998Y-46900000D01*
X22924999Y-43984997D02*
X22924999Y-46160001D01*
X19940002Y-41000000D02*
X22924999Y-43984997D01*
X16000000Y-41000000D02*
X19940002Y-41000000D01*
X16000000Y-41000000D02*
X16000000Y-43205000D01*
X16000000Y-40000000D02*
X16000000Y-41000000D01*
X16000000Y-35900000D02*
X16000000Y-40000000D01*
X71600000Y-52700000D02*
X71600000Y-56049990D01*
X66300000Y-49150000D02*
X68050000Y-49150000D01*
X68050000Y-49150000D02*
X71600000Y-52700000D01*
X13649989Y-42350011D02*
X13649990Y-77193508D01*
X13649990Y-77193508D02*
X16206493Y-79750011D01*
X16000000Y-40000000D02*
X13649989Y-42350011D01*
X64300000Y-78800022D02*
X63350011Y-79750011D01*
X62349999Y-61489999D02*
X62349999Y-71449999D01*
X64300000Y-73400000D02*
X64300000Y-78800022D01*
X16206493Y-79750011D02*
X63350011Y-79750011D01*
X62349999Y-71449999D02*
X64300000Y-73400000D01*
X71600000Y-56049990D02*
X71600000Y-58400000D01*
X63139999Y-60699999D02*
X62349999Y-61489999D01*
X67050001Y-60699999D02*
X63139999Y-60699999D01*
X69350000Y-58400000D02*
X67050001Y-60699999D01*
X71600000Y-58400000D02*
X69350000Y-58400000D01*
X71600000Y-56400000D02*
X71600000Y-58400000D01*
X78983840Y-49016160D02*
X71600000Y-56400000D01*
X78983840Y-45016160D02*
X78983840Y-49016160D01*
X83000000Y-38000000D02*
X83000000Y-41000000D01*
X83000000Y-41000000D02*
X78983840Y-45016160D01*
X75380000Y-73000000D02*
X80460000Y-73000000D01*
X80460000Y-75540000D02*
X75380000Y-75540000D01*
X77920000Y-75540000D02*
X77920000Y-73000000D01*
D31*
X32000000Y-41190000D02*
X32000000Y-41000000D01*
X30365000Y-42825000D02*
X32000000Y-41190000D01*
X30365000Y-43300000D02*
X30365000Y-42825000D01*
X16000000Y-34000000D02*
X16000000Y-32000000D01*
X42000000Y-25950000D02*
X42000000Y-28000000D01*
X61700000Y-49150000D02*
X61700000Y-50800000D01*
X61700000Y-50800000D02*
X61500000Y-51000000D01*
X25000000Y-61000000D02*
X26200000Y-61000000D01*
X25000000Y-56000000D02*
X26500000Y-56000000D01*
D30*
X74550000Y-42850000D02*
X75000000Y-43300000D01*
D31*
X20700000Y-38150000D02*
X18850000Y-38150000D01*
X18850000Y-38150000D02*
X18700000Y-38300000D01*
X24000000Y-45000000D02*
X24000000Y-44200000D01*
X24000000Y-44200000D02*
X24800000Y-43400000D01*
X85000000Y-48700000D02*
X85000000Y-51300000D01*
X85000000Y-51300000D02*
X85000000Y-51500000D01*
X75000000Y-43300000D02*
X75000000Y-40000000D01*
X32905000Y-41905000D02*
X32000000Y-41000000D01*
X32905000Y-43300000D02*
X32905000Y-41905000D01*
X34600000Y-46175000D02*
X34600000Y-48450000D01*
X35500000Y-45050000D02*
X35500000Y-45275000D01*
X35500000Y-45275000D02*
X34600000Y-46175000D01*
X35550000Y-45000000D02*
X35500000Y-45050000D01*
X39500000Y-45000000D02*
X35550000Y-45000000D01*
X47950000Y-22700000D02*
X49400000Y-21250000D01*
X47905000Y-22700000D02*
X47950000Y-22700000D01*
X35000000Y-32300000D02*
X35000000Y-29600000D01*
X35000000Y-29600000D02*
X34950000Y-29550000D01*
X32200000Y-55350000D02*
X31750000Y-55350000D01*
X34100000Y-57750000D02*
X34100000Y-57250000D01*
X34100000Y-57250000D02*
X32200000Y-55350000D01*
X49836460Y-64279780D02*
X49674780Y-64279780D01*
X50678080Y-61438160D02*
X50678080Y-63438160D01*
X50678080Y-63438160D02*
X49836460Y-64279780D01*
X42445940Y-61527060D02*
X42445940Y-63708280D01*
X42445940Y-63708280D02*
X41658540Y-64495680D01*
X58963560Y-36751340D02*
X58963560Y-38155880D01*
X58963560Y-38155880D02*
X59042300Y-38234620D01*
X48991520Y-36548100D02*
X48991520Y-38107620D01*
X48991520Y-38107620D02*
X49009300Y-38125400D01*
X52215780Y-34648100D02*
X52372600Y-34491280D01*
X55272600Y-36791280D02*
X55272600Y-38265440D01*
X55272600Y-38265440D02*
X55260240Y-38277800D01*
X52372600Y-34491280D02*
X52372600Y-32746020D01*
X52372600Y-32746020D02*
X52329080Y-32702500D01*
X55272600Y-36791280D02*
X55272600Y-38612740D01*
X55272600Y-38612740D02*
X55316120Y-38656260D01*
X83000000Y-30000000D02*
X85500000Y-30000000D01*
X42100000Y-46400000D02*
X43400000Y-46400000D01*
X43400000Y-46400000D02*
X43850000Y-46850000D01*
X53990240Y-45000000D02*
X53990240Y-43459760D01*
X53990240Y-43459760D02*
X54000000Y-43450000D01*
X50600000Y-45600000D02*
X49550000Y-45600000D01*
X50600000Y-47200000D02*
X49125010Y-47200000D01*
X48525000Y-46225000D02*
X48300000Y-46450000D01*
X48925000Y-46225000D02*
X48525000Y-46225000D01*
X49550000Y-45600000D02*
X48925000Y-46225000D01*
X49050000Y-47200000D02*
X48300000Y-46450000D01*
X49125010Y-47200000D02*
X49050000Y-47200000D01*
D30*
X73200000Y-48700000D02*
X70500000Y-46000000D01*
X70500000Y-46000000D02*
X65000000Y-46000000D01*
X64000000Y-45000000D02*
X64000000Y-42850000D01*
X65000000Y-46000000D02*
X64000000Y-45000000D01*
X64000000Y-47000000D02*
X65000000Y-46000000D01*
X64000000Y-49150000D02*
X64000000Y-47000000D01*
D32*
X39035000Y-26100000D02*
X39035000Y-27965000D01*
X39035000Y-27965000D02*
X39000000Y-28000000D01*
X19260714Y-26100000D02*
X19260714Y-27260714D01*
X19260714Y-27260714D02*
X20000000Y-28000000D01*
X32443570Y-27056430D02*
X31500000Y-28000000D01*
X32443570Y-26100000D02*
X32443570Y-27056430D01*
X25852142Y-26100000D02*
X25852142Y-27147858D01*
X25852142Y-27147858D02*
X25852142Y-27147858D01*
X38250001Y-49250001D02*
X37750000Y-48750000D01*
X55150000Y-18000000D02*
X43650000Y-29500000D01*
X56500000Y-18000000D02*
X55150000Y-18000000D01*
X40500000Y-29500000D02*
X39000000Y-28000000D01*
X43650000Y-29500000D02*
X40500000Y-29500000D01*
D30*
X73200000Y-48700000D02*
X75000000Y-48700000D01*
X72000000Y-47500000D02*
X73200000Y-48700000D01*
X72000000Y-36540000D02*
X72000000Y-47500000D01*
D32*
X38250001Y-54349999D02*
X34269999Y-54349999D01*
X34269999Y-54349999D02*
X29095000Y-49175000D01*
X38250001Y-54349999D02*
X38250001Y-49250001D01*
X29095000Y-49175000D02*
X29095000Y-48700000D01*
X37500000Y-48500000D02*
X38250001Y-49250001D01*
X37500000Y-46900000D02*
X37500000Y-48500000D01*
X37500000Y-46900000D02*
X39500000Y-46900000D01*
X39638753Y-46761247D02*
X39500000Y-46900000D01*
X34100000Y-60850000D02*
X34100000Y-61350000D01*
X38250001Y-56699999D02*
X34100000Y-60850000D01*
X38250001Y-56100001D02*
X38250001Y-56699999D01*
X38250001Y-56100001D02*
X38250001Y-54349999D01*
D30*
X56500000Y-16150000D02*
X56500000Y-18000000D01*
X81250000Y-14500000D02*
X58150000Y-14500000D01*
X72000000Y-36540000D02*
X73202081Y-36540000D01*
X77746041Y-31996041D02*
X77746041Y-24773961D01*
X58150000Y-14500000D02*
X56500000Y-16150000D01*
X77746041Y-24773961D02*
X83700000Y-18820002D01*
X83700000Y-18820002D02*
X83700000Y-16950000D01*
X83700000Y-16950000D02*
X81250000Y-14500000D01*
X75371040Y-34371040D02*
X77746041Y-31996041D01*
X73202081Y-36540000D02*
X75371040Y-34371040D01*
D32*
X39874977Y-46525023D02*
X40714976Y-46525022D01*
X39500000Y-46900000D02*
X39874977Y-46525023D01*
X40714976Y-46525022D02*
X40839998Y-46400000D01*
D30*
X64000000Y-51150000D02*
X64000000Y-49150000D01*
X58250000Y-58400000D02*
X58000000Y-58400000D01*
X64000000Y-52650000D02*
X58250000Y-58400000D01*
X64000000Y-49150000D02*
X64000000Y-52650000D01*
X58000000Y-56400000D02*
X58051700Y-56348300D01*
X58000000Y-58400000D02*
X58000000Y-56400000D01*
X58051700Y-56348300D02*
X58051700Y-52966620D01*
X58051700Y-52966620D02*
X53990240Y-48905160D01*
D32*
X56560720Y-44787030D02*
X56560720Y-44700000D01*
X56322544Y-44787030D02*
X56560720Y-44787030D01*
X55985710Y-45123864D02*
X56322544Y-44787030D01*
X55985710Y-45779530D02*
X55985710Y-45123864D01*
X54865240Y-46900000D02*
X55985710Y-45779530D01*
X53990240Y-46900000D02*
X54865240Y-46900000D01*
X53990240Y-46900000D02*
X53990240Y-46675000D01*
D30*
X53990240Y-48905160D02*
X53990240Y-46900000D01*
D32*
X53990240Y-46877054D02*
X53990240Y-46900000D01*
X53403405Y-46290219D02*
X53990240Y-46877054D01*
X53390219Y-46290219D02*
X53403405Y-46290219D01*
X51900000Y-44800000D02*
X53390219Y-46290219D01*
X50600000Y-44800000D02*
X51900000Y-44800000D01*
X43400000Y-45600000D02*
X42100000Y-45600000D01*
X48500000Y-45600000D02*
X43400000Y-45600000D01*
X49300000Y-44800000D02*
X48500000Y-45600000D01*
X50600000Y-44800000D02*
X49300000Y-44800000D01*
X42025001Y-45674999D02*
X42100000Y-45600000D01*
X40939999Y-45674999D02*
X42025001Y-45674999D01*
X40849999Y-45764999D02*
X40939999Y-45674999D01*
X40849999Y-46296817D02*
X40849999Y-45764999D01*
X40246816Y-46900000D02*
X40849999Y-46296817D01*
X39500000Y-46900000D02*
X40246816Y-46900000D01*
X53490240Y-46400000D02*
X53990240Y-46900000D01*
X50600000Y-46400000D02*
X53490240Y-46400000D01*
D31*
X35500000Y-47800000D02*
X35500000Y-46950000D01*
X35500000Y-50534315D02*
X35500000Y-47800000D01*
X36800000Y-51834315D02*
X35500000Y-50534315D01*
X36800000Y-52400000D02*
X36800000Y-51834315D01*
X35500000Y-46725000D02*
X35500000Y-46950000D01*
X36274988Y-45950012D02*
X35500000Y-46725000D01*
X39869252Y-45950012D02*
X36274988Y-45950012D01*
X40051689Y-45950012D02*
X39869252Y-45950012D01*
X55653940Y-58803940D02*
X55653940Y-53713380D01*
X58000000Y-61150000D02*
X55653940Y-58803940D01*
X58000000Y-62400000D02*
X58000000Y-61150000D01*
X41050000Y-44000000D02*
X42100000Y-44000000D01*
X40200001Y-44849999D02*
X41050000Y-44000000D01*
X40200001Y-45801700D02*
X40200001Y-44849999D01*
X40051689Y-45950012D02*
X40200001Y-45801700D01*
X55632660Y-34851340D02*
X55272600Y-34491280D01*
X55272600Y-31157660D02*
X54968320Y-30853380D01*
X55272600Y-34491280D02*
X55272600Y-31157660D01*
X57541900Y-38108100D02*
X57541900Y-37008100D01*
X51650000Y-44000000D02*
X57541900Y-38108100D01*
X50600000Y-44000000D02*
X51650000Y-44000000D01*
X57541900Y-37008100D02*
X57541900Y-36498000D01*
X57541900Y-36498000D02*
X57541900Y-35641900D01*
X56751340Y-34851340D02*
X56398660Y-34851340D01*
X57541900Y-35641900D02*
X56751340Y-34851340D01*
X56398660Y-34851340D02*
X55632660Y-34851340D01*
X58332460Y-34851340D02*
X58963560Y-34851340D01*
X57541900Y-35641900D02*
X58332460Y-34851340D01*
X48991520Y-34873100D02*
X48000000Y-35864620D01*
X48991520Y-34648100D02*
X48991520Y-34873100D01*
X52372600Y-31249100D02*
X52768320Y-30853380D01*
X48991520Y-33798100D02*
X48991520Y-34648100D01*
X48991520Y-33780180D02*
X48991520Y-33798100D01*
X51918320Y-30853380D02*
X48991520Y-33780180D01*
X52768320Y-30853380D02*
X51918320Y-30853380D01*
X52222600Y-36791280D02*
X52372600Y-36791280D01*
X48991520Y-34648100D02*
X50079420Y-34648100D01*
X52222600Y-36791280D02*
X51731320Y-36300000D01*
X51731320Y-36300000D02*
X50900000Y-36300000D01*
X50340660Y-35740660D02*
X50340660Y-34909340D01*
X50900000Y-36300000D02*
X50340660Y-35740660D01*
X50079420Y-34648100D02*
X50340660Y-34909340D01*
X51125000Y-43200000D02*
X50600000Y-43200000D01*
X52372600Y-41952400D02*
X51125000Y-43200000D01*
X52372600Y-36791280D02*
X52372600Y-41952400D01*
X45365000Y-18325000D02*
X45365000Y-17300000D01*
X45365000Y-20405000D02*
X45365000Y-18325000D01*
X46635000Y-21675000D02*
X45365000Y-20405000D01*
X46635000Y-22700000D02*
X46635000Y-21675000D01*
X44095000Y-17300000D02*
X45365000Y-17300000D01*
D30*
X23000000Y-38860002D02*
X23000000Y-38150000D01*
X23989999Y-39850001D02*
X23000000Y-38860002D01*
X31049999Y-39850001D02*
X23989999Y-39850001D01*
X33200000Y-37700000D02*
X31049999Y-39850001D01*
X35000000Y-37700000D02*
X33800000Y-37700000D01*
X33800000Y-37700000D02*
X33200000Y-37700000D01*
X22100000Y-31850000D02*
X16350000Y-26100000D01*
X16350000Y-26100000D02*
X15965000Y-26100000D01*
X23000000Y-31850000D02*
X22100000Y-31850000D01*
D31*
X40000000Y-17500000D02*
X41500000Y-19000000D01*
X38950000Y-17500000D02*
X40000000Y-17500000D01*
X31950000Y-17500000D02*
X33000000Y-17500000D01*
X33000000Y-17500000D02*
X34500000Y-19000000D01*
X26000000Y-17500000D02*
X27500000Y-19000000D01*
X24950000Y-17500000D02*
X26000000Y-17500000D01*
X17950000Y-17500000D02*
X19000000Y-17500000D01*
X19000000Y-17500000D02*
X20500000Y-19000000D01*
X44815000Y-17300000D02*
X45365000Y-17300000D01*
X42000000Y-20115000D02*
X44815000Y-17300000D01*
X42000000Y-24050000D02*
X42000000Y-20115000D01*
D30*
X15965000Y-26100000D02*
X14500000Y-26100000D01*
D31*
X42000000Y-24300000D02*
X42000000Y-24050000D01*
X43800000Y-26100000D02*
X42000000Y-24300000D01*
X35739284Y-26100000D02*
X34000000Y-26100000D01*
X22556428Y-26100000D02*
X24100000Y-26100000D01*
X29147856Y-26100000D02*
X27750000Y-26100000D01*
D30*
X29750000Y-37700000D02*
X23900000Y-31850000D01*
X33800000Y-37700000D02*
X29750000Y-37700000D01*
X23900000Y-31850000D02*
X23000000Y-31850000D01*
D31*
X85000000Y-43300000D02*
X85000000Y-44250000D01*
D32*
X19905000Y-48700000D02*
X19905000Y-48084998D01*
X19905000Y-48084998D02*
X19020002Y-47200000D01*
X19020002Y-47200000D02*
X15709998Y-47200000D01*
X15709998Y-47200000D02*
X14600000Y-48309998D01*
X14600000Y-48309998D02*
X14600000Y-76800000D01*
X14600000Y-76800000D02*
X16600000Y-78800000D01*
X16600000Y-78800000D02*
X58324002Y-78800000D01*
X58324002Y-78800000D02*
X58424002Y-78700000D01*
X61399988Y-61096492D02*
X61399988Y-72199988D01*
X64800000Y-57696480D02*
X61399988Y-61096492D01*
X58324002Y-78800000D02*
X62500000Y-78800000D01*
X63050000Y-78250000D02*
X63050000Y-73850000D01*
X62500000Y-78800000D02*
X63050000Y-78250000D01*
X61399988Y-72199988D02*
X63050000Y-73850000D01*
X83700000Y-43300000D02*
X85000000Y-43300000D01*
X80824070Y-46175930D02*
X83700000Y-43300000D01*
X80824070Y-46175930D02*
X80824070Y-49806110D01*
X80824070Y-49806110D02*
X76830180Y-53800000D01*
X64800000Y-56900000D02*
X64800000Y-58400000D01*
X67900000Y-53800000D02*
X64800000Y-56900000D01*
X70017900Y-53800000D02*
X67900000Y-53800000D01*
D31*
X15849988Y-58999988D02*
X17000000Y-60150000D01*
X17000000Y-60150000D02*
X17000000Y-61000000D01*
X15849988Y-51240012D02*
X15849988Y-58999988D01*
X17365000Y-49725000D02*
X15849988Y-51240012D01*
X17365000Y-48700000D02*
X17365000Y-49725000D01*
X25700000Y-63200000D02*
X25000000Y-63200000D01*
X26850000Y-63200000D02*
X25700000Y-63200000D01*
X29000000Y-61050000D02*
X26850000Y-63200000D01*
X29000000Y-60900000D02*
X29000000Y-61050000D01*
X17625000Y-61000000D02*
X17000000Y-61000000D01*
X18550001Y-60074999D02*
X17625000Y-61000000D01*
X22024999Y-60074999D02*
X18550001Y-60074999D01*
X25000000Y-63050000D02*
X22024999Y-60074999D01*
X25000000Y-63200000D02*
X25000000Y-63050000D01*
X21000000Y-61150000D02*
X21000000Y-61000000D01*
X19250000Y-62900000D02*
X21000000Y-61150000D01*
X17000000Y-62900000D02*
X19250000Y-62900000D01*
X16095000Y-48700000D02*
X16095000Y-49818188D01*
X15399977Y-50513211D02*
X15399977Y-61074977D01*
X16095000Y-49818188D02*
X15399977Y-50513211D01*
X15399977Y-61074977D02*
X17000000Y-62675000D01*
X17000000Y-62675000D02*
X17000000Y-62900000D01*
X18635000Y-43775000D02*
X18635000Y-43300000D01*
X20980012Y-54030012D02*
X20980012Y-46120012D01*
X20980012Y-46120012D02*
X18635000Y-43775000D01*
X25000000Y-58050000D02*
X20980012Y-54030012D01*
X25000000Y-58200000D02*
X25000000Y-58050000D01*
X17000000Y-56225000D02*
X16299999Y-56925001D01*
X16299999Y-56925001D02*
X16299999Y-58760001D01*
X24300000Y-58200000D02*
X25000000Y-58200000D01*
X23374999Y-57274999D02*
X24300000Y-58200000D01*
X20289999Y-57274999D02*
X23374999Y-57274999D01*
X18439997Y-59125001D02*
X20289999Y-57274999D01*
X17000000Y-56000000D02*
X17000000Y-56225000D01*
X16664999Y-59125001D02*
X18439997Y-59125001D01*
X16299999Y-58760001D02*
X16664999Y-59125001D01*
X29000000Y-56150000D02*
X29000000Y-56000000D01*
X26950000Y-58200000D02*
X29000000Y-56150000D01*
X25000000Y-58200000D02*
X26950000Y-58200000D01*
X17000000Y-57675000D02*
X17000000Y-57900000D01*
X18675000Y-56000000D02*
X17000000Y-57675000D01*
X21000000Y-56000000D02*
X18675000Y-56000000D01*
X21000000Y-55150000D02*
X21000000Y-56000000D01*
X17365000Y-43300000D02*
X17365000Y-43775000D01*
X20530001Y-46940001D02*
X20530001Y-54680001D01*
X20530001Y-54680001D02*
X21000000Y-55150000D01*
X17365000Y-43775000D02*
X20530001Y-46940001D01*
X45350000Y-55850000D02*
X45500000Y-56000000D01*
X43000000Y-55850000D02*
X45350000Y-55850000D01*
X45689520Y-55846660D02*
X45689520Y-55996660D01*
X45689520Y-54360480D02*
X45689520Y-55996660D01*
X47550000Y-52500000D02*
X45689520Y-54360480D01*
X47550000Y-50250000D02*
X47550000Y-52500000D01*
X49150000Y-54510080D02*
X50678080Y-56038160D01*
X49150000Y-53700000D02*
X49150000Y-54510080D01*
X49150000Y-50250000D02*
X49150000Y-53700000D01*
X49150000Y-55100000D02*
X49150000Y-53700000D01*
X48200000Y-56050000D02*
X49150000Y-55100000D01*
X47500000Y-56050000D02*
X48200000Y-56050000D01*
X66920000Y-34000000D02*
X59449987Y-41470013D01*
X59449987Y-41470013D02*
X59449987Y-44449987D01*
X59449987Y-44449987D02*
X59449987Y-44823013D01*
X56560720Y-49046824D02*
X57096515Y-49582619D01*
X56560720Y-47899320D02*
X56560720Y-46900000D01*
X56560720Y-47899320D02*
X56560720Y-49046824D01*
X57356948Y-49906948D02*
X57750000Y-50300000D01*
X57356948Y-49843052D02*
X57356948Y-49906948D01*
X57496514Y-49982618D02*
X57356948Y-49843052D01*
X57356948Y-49843052D02*
X57096515Y-49582619D01*
X46700000Y-50300000D02*
X46750000Y-50250000D01*
X46700000Y-51800000D02*
X46700000Y-50300000D01*
X59449987Y-44449987D02*
X59449987Y-48600013D01*
X59449987Y-48600013D02*
X57750000Y-50300000D01*
X38335000Y-23900000D02*
X39035000Y-23900000D01*
X38000000Y-23565000D02*
X38335000Y-23900000D01*
X38000000Y-20500000D02*
X38000000Y-23565000D01*
X39035000Y-23900000D02*
X39035000Y-24050000D01*
X39035000Y-24050000D02*
X38259999Y-24825001D01*
X32905000Y-45448587D02*
X32905000Y-47675000D01*
X32905000Y-47675000D02*
X32905000Y-48700000D01*
X34401794Y-43463891D02*
X34401794Y-43951794D01*
X34450000Y-43415685D02*
X34401794Y-43463891D01*
X34450000Y-42850000D02*
X34450000Y-43415685D01*
X34401794Y-43951794D02*
X32905000Y-45448587D01*
X38259999Y-24825001D02*
X38259999Y-34340001D01*
X38259999Y-34340001D02*
X38259999Y-34759999D01*
X38325010Y-37684315D02*
X38325010Y-38250000D01*
X38325010Y-34405012D02*
X38325010Y-37684315D01*
X38259999Y-34340001D02*
X38325010Y-34405012D01*
X32905000Y-45448587D02*
X29501413Y-45448587D01*
X62825000Y-40025000D02*
X61900000Y-40950000D01*
X65975000Y-40025000D02*
X62825000Y-40025000D01*
X69460000Y-36540000D02*
X65975000Y-40025000D01*
X40831763Y-41504877D02*
X40431764Y-41904876D01*
X41711641Y-40624999D02*
X40831763Y-41504877D01*
X44274999Y-40624999D02*
X41711641Y-40624999D01*
X44350000Y-40700000D02*
X44274999Y-40624999D01*
X44350000Y-41750000D02*
X44350000Y-40700000D01*
X17650000Y-20500000D02*
X17000000Y-20500000D01*
X19260714Y-22110714D02*
X17650000Y-20500000D01*
X19260714Y-23900000D02*
X19260714Y-22110714D01*
X19260714Y-23900000D02*
X19260714Y-24439288D01*
X58785002Y-18000000D02*
X57610001Y-19175001D01*
X57610001Y-19175001D02*
X54819354Y-19175003D01*
X59040000Y-18000000D02*
X58785002Y-18000000D01*
X39300000Y-34694356D02*
X40722178Y-33272178D01*
X39300000Y-37450000D02*
X39300000Y-34694356D01*
X54819354Y-19175003D02*
X40722178Y-33272178D01*
X36449990Y-35699990D02*
X36374999Y-35624999D01*
X35989287Y-35239287D02*
X36449990Y-35699990D01*
X30060713Y-35239287D02*
X35989287Y-35239287D01*
X19260714Y-24439288D02*
X30060713Y-35239287D01*
X36174990Y-40409314D02*
X36174990Y-40974999D01*
X36449990Y-35699990D02*
X36174990Y-35974990D01*
X36174990Y-35974990D02*
X36174990Y-40409314D01*
X36125001Y-41509757D02*
X36125001Y-40974999D01*
X63249967Y-33625001D02*
X62374968Y-34500000D01*
X65992198Y-25099978D02*
X63249967Y-27842209D01*
X66379024Y-25099978D02*
X65992198Y-25099978D01*
X59040000Y-18000000D02*
X61040000Y-16000000D01*
X61040000Y-16000000D02*
X71479002Y-16000000D01*
X71479002Y-16000000D02*
X72915001Y-17435999D01*
X63249967Y-27842209D02*
X63249967Y-33625001D01*
X72915001Y-17435999D02*
X72915001Y-18564001D01*
X72915001Y-18564001D02*
X66379024Y-25099978D01*
X31635000Y-49175000D02*
X31635000Y-48700000D01*
X32260000Y-49800000D02*
X31635000Y-49175000D01*
X33465002Y-49800000D02*
X32260000Y-49800000D01*
X42100000Y-43200000D02*
X40950000Y-43200000D01*
X40950000Y-43200000D02*
X40148924Y-44001076D01*
X34988922Y-44001076D02*
X33699999Y-45289999D01*
X33699999Y-45289999D02*
X33699999Y-49565003D01*
X33699999Y-49565003D02*
X33465002Y-49800000D01*
X36174990Y-41574990D02*
X38601076Y-44001076D01*
X36174990Y-40974999D02*
X36174990Y-41574990D01*
X40148924Y-44001076D02*
X38601076Y-44001076D01*
X38601076Y-44001076D02*
X34988922Y-44001076D01*
X24650000Y-20500000D02*
X24000000Y-20500000D01*
X25852142Y-21702142D02*
X24650000Y-20500000D01*
X25852142Y-23900000D02*
X25852142Y-21702142D01*
X36900000Y-39900000D02*
X36900000Y-39700000D01*
X25852142Y-24050000D02*
X26627143Y-24825001D01*
X26627143Y-24825001D02*
X26627143Y-27062145D01*
X26627143Y-27062145D02*
X33939999Y-34375001D01*
X36900000Y-34650000D02*
X36900000Y-39700000D01*
X33939999Y-34375001D02*
X36625001Y-34375001D01*
X36625001Y-34375001D02*
X36900000Y-34650000D01*
X25852142Y-23900000D02*
X25852142Y-24050000D01*
X72000000Y-35100000D02*
X71735001Y-35364999D01*
X71735001Y-35364999D02*
X66198590Y-35364999D01*
X72000000Y-34000000D02*
X72000000Y-35100000D01*
X36900000Y-41648345D02*
X38802721Y-43551066D01*
X36900000Y-39700000D02*
X36900000Y-41648345D01*
X60500000Y-41063588D02*
X60781794Y-40781794D01*
X60500000Y-45300000D02*
X60500000Y-41063588D01*
X66198590Y-35364999D02*
X60781794Y-40781794D01*
X38802721Y-43551066D02*
X39517094Y-43551066D01*
X39946354Y-43551066D02*
X39517094Y-43551066D01*
X41763590Y-41750000D02*
X43025000Y-41750000D01*
X43025000Y-41750000D02*
X43550000Y-41750000D01*
X39962524Y-43551066D02*
X41763590Y-41750000D01*
X38802721Y-43551066D02*
X39962524Y-43551066D01*
X43550000Y-42800000D02*
X43550000Y-41750000D01*
X45250000Y-44500000D02*
X43550000Y-42800000D01*
X46350000Y-44500000D02*
X45250000Y-44500000D01*
X45150000Y-48800000D02*
X45150000Y-50250000D01*
X45500000Y-48450000D02*
X45150000Y-48800000D01*
X71360000Y-26000000D02*
X66364998Y-26000000D01*
X66364998Y-26000000D02*
X64149989Y-28215009D01*
X58689691Y-47769305D02*
X58689691Y-48334990D01*
X58689691Y-41301076D02*
X58689691Y-47769305D01*
X64149989Y-28215009D02*
X64149989Y-35840778D01*
X79360000Y-18000000D02*
X71360000Y-26000000D01*
X64149989Y-35840778D02*
X58689691Y-41301076D01*
X63699978Y-35654378D02*
X57935373Y-41418983D01*
X76820000Y-18000000D02*
X69270011Y-25549989D01*
X69270011Y-25549989D02*
X66178598Y-25549989D01*
X66178598Y-25549989D02*
X63699978Y-28028609D01*
X57935373Y-41418983D02*
X57935373Y-48523623D01*
X63699978Y-28028609D02*
X63699978Y-35654378D01*
X57935373Y-48523623D02*
X57935373Y-49089308D01*
X45950000Y-49200000D02*
X46724990Y-48425010D01*
X45950000Y-50250000D02*
X45950000Y-49200000D01*
X46724990Y-48425010D02*
X46848346Y-48425010D01*
X54867179Y-20399999D02*
X44490640Y-30776537D01*
X59500000Y-20000000D02*
X59100001Y-20399999D01*
X59100001Y-20399999D02*
X54867179Y-20399999D01*
X44490640Y-37890640D02*
X44490640Y-37090640D01*
X47500000Y-40900000D02*
X44490640Y-37890640D01*
X47500000Y-41950000D02*
X47500000Y-40900000D01*
X44490640Y-30776537D02*
X44490640Y-37090640D01*
X62944999Y-17435999D02*
X62944999Y-18538590D01*
X60483587Y-21000002D02*
X54903588Y-21000002D01*
X62944999Y-18538590D02*
X60483587Y-21000002D01*
X66660000Y-18000000D02*
X65484999Y-16824999D01*
X63555999Y-16824999D02*
X62944999Y-17435999D01*
X65484999Y-16824999D02*
X63555999Y-16824999D01*
X54903588Y-21000002D02*
X45171745Y-30731845D01*
X45171745Y-37771745D02*
X45171745Y-34928255D01*
X48300000Y-40900000D02*
X45171745Y-37771745D01*
X48300000Y-41950000D02*
X48300000Y-40900000D01*
X45171745Y-34928255D02*
X45171745Y-30731845D01*
X45841920Y-36891920D02*
X49100000Y-40150000D01*
X49100000Y-40150000D02*
X49100000Y-41299990D01*
X45841920Y-30904180D02*
X45841920Y-36891920D01*
X55296089Y-21450011D02*
X45841920Y-30904180D01*
X60669989Y-21450011D02*
X55296089Y-21450011D01*
X64120000Y-18000000D02*
X60669989Y-21450011D01*
X55005755Y-19625012D02*
X40449969Y-34180798D01*
X60312820Y-19267180D02*
X58154232Y-19267180D01*
X40449969Y-34180798D02*
X40449969Y-38947150D01*
X61580000Y-18000000D02*
X60312820Y-19267180D01*
X57796401Y-19625012D02*
X55005755Y-19625012D01*
X58154232Y-19267180D02*
X57796401Y-19625012D01*
X39150723Y-41484117D02*
X39150723Y-42826064D01*
X40733980Y-39900860D02*
X39150723Y-41484117D01*
X41403679Y-39900860D02*
X40449969Y-38947150D01*
X41836340Y-39900860D02*
X41403679Y-39900860D01*
X40733980Y-39900860D02*
X41836340Y-39900860D01*
X53964659Y-64448931D02*
X53964659Y-54225518D01*
X47900000Y-70513589D02*
X53964659Y-64448931D01*
X47900000Y-74600000D02*
X47900000Y-70513589D01*
X53964659Y-54225518D02*
X53964659Y-53659833D01*
X44900860Y-39900860D02*
X42800860Y-39900860D01*
X45900000Y-40900000D02*
X44900860Y-39900860D01*
X45900000Y-41950000D02*
X45900000Y-40900000D01*
X41836340Y-39900860D02*
X42800860Y-39900860D01*
X42800860Y-39900860D02*
X43000860Y-39900860D01*
X58060000Y-74600000D02*
X55227460Y-71767460D01*
X55227460Y-71767460D02*
X55125002Y-71665002D01*
X54725010Y-71265010D02*
X55227460Y-71767460D01*
X54725010Y-54002006D02*
X54725010Y-53600038D01*
X54757320Y-53256180D02*
X54725010Y-53288490D01*
X54757320Y-52565300D02*
X54757320Y-53256180D01*
X54725010Y-53600038D02*
X54725010Y-53288490D01*
X54725010Y-53288490D02*
X54725010Y-53034353D01*
X58060000Y-74600000D02*
X52810000Y-69350000D01*
X52810000Y-66240000D02*
X54725010Y-64324990D01*
X52810000Y-69350000D02*
X52810000Y-66240000D01*
X54725010Y-53034353D02*
X54725010Y-64324990D01*
X45150000Y-43300000D02*
X45150000Y-41750000D01*
X45450000Y-43600000D02*
X45150000Y-43300000D01*
X52525030Y-54084444D02*
X53000000Y-54559415D01*
X52525031Y-50200031D02*
X52525031Y-50474969D01*
X51125000Y-48800000D02*
X52525031Y-50200031D01*
X50600000Y-48800000D02*
X51125000Y-48800000D01*
X52525031Y-50474969D02*
X52525030Y-54084444D01*
X53000000Y-62500000D02*
X53000000Y-62680998D01*
X45360000Y-74600000D02*
X44184999Y-75775001D01*
X53000000Y-62925876D02*
X53000000Y-62500000D01*
X44184999Y-75775001D02*
X42255999Y-75775001D01*
X42255999Y-75775001D02*
X41644999Y-75164001D01*
X41644999Y-75164001D02*
X41644999Y-74035999D01*
X42860377Y-73065499D02*
X42615499Y-73065499D01*
X53000000Y-62925876D02*
X42860377Y-73065499D01*
X53000000Y-62150000D02*
X53000000Y-62925876D01*
X53000000Y-62150000D02*
X53000000Y-62500000D01*
X53000000Y-54559415D02*
X53000000Y-62150000D01*
X41644999Y-74035999D02*
X42615499Y-73065499D01*
X53450011Y-63969989D02*
X53450011Y-54218187D01*
X42820000Y-74600000D02*
X53450011Y-63969989D01*
X53450011Y-54218187D02*
X53165229Y-53933405D01*
X53165229Y-49515229D02*
X53165229Y-50815229D01*
X51650000Y-48000000D02*
X53165229Y-49515229D01*
X50600000Y-48000000D02*
X51650000Y-48000000D01*
X53165229Y-53933405D02*
X53165229Y-50815229D01*
X28300000Y-58200000D02*
X29000000Y-58200000D01*
X27374999Y-59125001D02*
X28300000Y-58200000D01*
X22625001Y-59125001D02*
X27374999Y-59125001D01*
X21700000Y-58200000D02*
X22625001Y-59125001D01*
X21000000Y-58200000D02*
X21700000Y-58200000D01*
X29000000Y-58350000D02*
X29000000Y-58200000D01*
X29775001Y-59125001D02*
X29000000Y-58350000D01*
X21324999Y-73489999D02*
X29775001Y-65039997D01*
X29775001Y-65039997D02*
X29775001Y-59125001D01*
X21324999Y-75710001D02*
X21324999Y-73489999D01*
X35764001Y-75775001D02*
X21389999Y-75775001D01*
X36375001Y-75164001D02*
X35764001Y-75775001D01*
X21389999Y-75775001D02*
X21324999Y-75710001D01*
X36375001Y-74225997D02*
X36375001Y-75164001D01*
X37175999Y-73424999D02*
X36375001Y-74225997D01*
X39104999Y-73424999D02*
X37175999Y-73424999D01*
X40280000Y-74600000D02*
X39104999Y-73424999D01*
X22625001Y-64125001D02*
X28874999Y-64125001D01*
X21000000Y-63200000D02*
X21700000Y-63200000D01*
X21700000Y-63200000D02*
X22625001Y-64125001D01*
X29000000Y-64000000D02*
X29000000Y-63100000D01*
X28874999Y-64125001D02*
X29000000Y-64000000D01*
X20874988Y-72075012D02*
X29000000Y-63950000D01*
X20874988Y-75896401D02*
X20874988Y-72075012D01*
X21203599Y-76225012D02*
X20874988Y-75896401D01*
X35950401Y-76225012D02*
X21203599Y-76225012D01*
X29000000Y-63950000D02*
X29000000Y-63100000D01*
X37575413Y-74600000D02*
X35950401Y-76225012D01*
X37740000Y-74600000D02*
X37575413Y-74600000D01*
X36049999Y-73750001D02*
X35200000Y-74600000D01*
X47500000Y-62300000D02*
X47500000Y-58250000D01*
X46950000Y-62850000D02*
X47500000Y-62300000D01*
X46950000Y-62850000D02*
X36049999Y-73750001D01*
X32660000Y-74600000D02*
X33509999Y-73750001D01*
X33509999Y-67829979D02*
X33509999Y-70804819D01*
X33509999Y-73750001D02*
X33509999Y-70804819D01*
X33509999Y-70804819D02*
X33509999Y-70204999D01*
X38874229Y-61863769D02*
X38874229Y-62465749D01*
X41285939Y-59452059D02*
X38874229Y-61863769D01*
X43734121Y-59452059D02*
X41285939Y-59452059D01*
X44989520Y-58196660D02*
X43734121Y-59452059D01*
X45689520Y-58196660D02*
X44989520Y-58196660D01*
X38874229Y-62465749D02*
X33509999Y-67829979D01*
X40549991Y-57571627D02*
X38424218Y-59697400D01*
X33059988Y-71660012D02*
X30969999Y-73750001D01*
X30969999Y-73750001D02*
X30120000Y-74600000D01*
X33059988Y-67643579D02*
X33059988Y-71660012D01*
X38424218Y-62279349D02*
X33059988Y-67643579D01*
X38424218Y-59697400D02*
X38424218Y-62279349D01*
X44350000Y-50250000D02*
X44350000Y-51300000D01*
X40549991Y-55399991D02*
X40549991Y-57571627D01*
X44274999Y-51375001D02*
X42974999Y-51375001D01*
X44350000Y-51300000D02*
X44274999Y-51375001D01*
X40549991Y-53800009D02*
X40549991Y-55200009D01*
X42974999Y-51375001D02*
X40549991Y-53800009D01*
X40549991Y-55100009D02*
X40549991Y-55200009D01*
X40549991Y-55200009D02*
X40549991Y-55399991D01*
X40099980Y-57385227D02*
X37974207Y-59511000D01*
X37974207Y-62092949D02*
X32609977Y-67457179D01*
X28429999Y-73750001D02*
X27580000Y-74600000D01*
X32609977Y-67457179D02*
X32609977Y-69570023D01*
X37974207Y-59511000D02*
X37974207Y-62092949D01*
X32609977Y-69570023D02*
X28429999Y-73750001D01*
X40099980Y-53525020D02*
X40099980Y-54024800D01*
X40099980Y-54024800D02*
X40099980Y-57385227D01*
X40099980Y-53175020D02*
X40099980Y-53350020D01*
X43025000Y-50250000D02*
X40099980Y-53175020D01*
X43550000Y-50250000D02*
X43025000Y-50250000D01*
X40099980Y-53350020D02*
X40099980Y-54024800D01*
X26215001Y-73424999D02*
X25889999Y-73750001D01*
X32159966Y-68961447D02*
X27696414Y-73424999D01*
X32159966Y-67270779D02*
X32159966Y-68961447D01*
X25889999Y-73750001D02*
X25040000Y-74600000D01*
X27696414Y-73424999D02*
X26215001Y-73424999D01*
X39649970Y-51450030D02*
X39649969Y-57183587D01*
X39649969Y-57183587D02*
X37524196Y-59309360D01*
X37524196Y-59309360D02*
X37524196Y-61906549D01*
X37524196Y-61906549D02*
X32159966Y-67270779D01*
X39649970Y-50200030D02*
X39649970Y-51450030D01*
X41050000Y-48800000D02*
X39649970Y-50200030D01*
X42100000Y-48800000D02*
X41050000Y-48800000D01*
X37074185Y-59122960D02*
X39199958Y-56997187D01*
X27650000Y-72550000D02*
X31709955Y-68490045D01*
X31709955Y-68490045D02*
X31709955Y-67084379D01*
X31709955Y-67084379D02*
X37074185Y-61720149D01*
X37074185Y-61720149D02*
X37074185Y-59122960D01*
X22500000Y-74600000D02*
X22500000Y-73500000D01*
X39199958Y-56997187D02*
X39199960Y-50525040D01*
X22500000Y-73500000D02*
X23450000Y-72550000D01*
X23450000Y-72550000D02*
X27650000Y-72550000D01*
X40900000Y-48000000D02*
X39199960Y-49700040D01*
X39199960Y-49850040D02*
X39199960Y-50150040D01*
X41050000Y-48000000D02*
X39199960Y-49850040D01*
X42100000Y-48000000D02*
X41050000Y-48000000D01*
X39199960Y-49700040D02*
X39199960Y-50150040D01*
X39199960Y-50150040D02*
X39199960Y-50525040D01*
D30*
X72840000Y-75540000D02*
X72840000Y-73000000D01*
X72840000Y-71060000D02*
X80000000Y-63900000D01*
X72840000Y-73000000D02*
X72840000Y-71060000D01*
X83000000Y-75540000D02*
X83000000Y-73000000D01*
X85600540Y-66287220D02*
X85600540Y-63487940D01*
X83000000Y-68887760D02*
X85600540Y-66287220D01*
X83000000Y-73000000D02*
X83000000Y-68887760D01*
X83700540Y-58487940D02*
X85600540Y-58487940D01*
X81238479Y-60950001D02*
X83700540Y-58487940D01*
X75299999Y-60950001D02*
X81238479Y-60950001D01*
X73850000Y-62400000D02*
X75299999Y-60950001D01*
X71600000Y-62400000D02*
X73850000Y-62400000D01*
X75744350Y-58100000D02*
X80000000Y-58100000D01*
X67050000Y-62400000D02*
X64800000Y-62400000D01*
X69349999Y-60100001D02*
X67050000Y-62400000D01*
X73744349Y-60100001D02*
X69349999Y-60100001D01*
X75744350Y-58100000D02*
X73744349Y-60100001D01*
D31*
X16050000Y-23815000D02*
X15965000Y-23900000D01*
X16050000Y-17500000D02*
X16050000Y-23815000D01*
X46111401Y-15749988D02*
X46635000Y-16273587D01*
X38163601Y-15749988D02*
X46111401Y-15749988D01*
X37713591Y-16199999D02*
X38163601Y-15749988D01*
X46635000Y-16275000D02*
X46635000Y-17300000D01*
X16800001Y-16199999D02*
X37713591Y-16199999D01*
X16050000Y-16950000D02*
X16800001Y-16199999D01*
X16050000Y-17500000D02*
X16050000Y-16950000D01*
X46635000Y-16273587D02*
X46635000Y-16275000D01*
X22556428Y-17993572D02*
X23050000Y-17500000D01*
X22556428Y-23900000D02*
X22556428Y-17993572D01*
X21000000Y-17500000D02*
X23050000Y-17500000D01*
X47214999Y-23800001D02*
X47279999Y-23735001D01*
X47279999Y-19169991D02*
X48049989Y-18400001D01*
X48049989Y-18400001D02*
X48465001Y-18400001D01*
X45365000Y-23175000D02*
X45990001Y-23800001D01*
X46849990Y-15000000D02*
X26565685Y-15000000D01*
X45365000Y-22700000D02*
X45365000Y-23175000D01*
X48465001Y-18400001D02*
X48530001Y-18335001D01*
X26565685Y-15000000D02*
X26000000Y-15000000D01*
X48049989Y-16199999D02*
X46849990Y-15000000D01*
X45990001Y-23800001D02*
X47214999Y-23800001D01*
X48530001Y-16264999D02*
X48465001Y-16199999D01*
X48465001Y-16199999D02*
X48049989Y-16199999D01*
X48530001Y-18335001D02*
X48530001Y-16264999D01*
X47279999Y-23735001D02*
X47279999Y-19169991D01*
X29847856Y-23900000D02*
X29147856Y-23900000D01*
X30050000Y-23697856D02*
X29847856Y-23900000D01*
X30050000Y-17500000D02*
X30050000Y-23697856D01*
X30050000Y-17500000D02*
X28500000Y-17500000D01*
X45170012Y-24250012D02*
X44095000Y-23175000D01*
X32000000Y-14000000D02*
X46901413Y-14000000D01*
X46901413Y-14000000D02*
X49000000Y-16098587D01*
X48086800Y-24250012D02*
X45170012Y-24250012D01*
X44095000Y-23175000D02*
X44095000Y-22700000D01*
X50125002Y-20901998D02*
X50125002Y-22211810D01*
X49000000Y-19776996D02*
X50125002Y-20901998D01*
X50125002Y-22211810D02*
X48086800Y-24250012D01*
X49000000Y-16098587D02*
X49000000Y-19776996D01*
X31743570Y-23900000D02*
X32443570Y-23900000D01*
X31000000Y-23156430D02*
X31743570Y-23900000D01*
X31000000Y-20500000D02*
X31000000Y-23156430D01*
X34418569Y-25174999D02*
X36974999Y-25174999D01*
X36974999Y-25174999D02*
X37550000Y-25750000D01*
X32443570Y-23900000D02*
X33143570Y-23900000D01*
X33143570Y-23900000D02*
X34418569Y-25174999D01*
X37550000Y-38573620D02*
X37550000Y-38804760D01*
X37550000Y-25750000D02*
X37550000Y-38573620D01*
X37848540Y-39103300D02*
X39684960Y-39103300D01*
X37550000Y-38804760D02*
X37848540Y-39103300D01*
X44030440Y-39080440D02*
X43736260Y-39080440D01*
X44301945Y-39080440D02*
X43736260Y-39080440D01*
X44880440Y-39080440D02*
X44301945Y-39080440D01*
X46700000Y-40900000D02*
X44880440Y-39080440D01*
X46700000Y-41950000D02*
X46700000Y-40900000D01*
X36439284Y-23900000D02*
X35739284Y-23900000D01*
X37050000Y-23289284D02*
X36439284Y-23900000D01*
X37050000Y-17500000D02*
X37050000Y-23289284D01*
X47279999Y-18400001D02*
X47905000Y-17775000D01*
X46074999Y-18400001D02*
X47279999Y-18400001D01*
X46009999Y-18335001D02*
X46074999Y-18400001D01*
X38350001Y-16199999D02*
X45925001Y-16199999D01*
X37050000Y-17500000D02*
X38350001Y-16199999D01*
X45925001Y-16199999D02*
X46009999Y-16284997D01*
X46009999Y-16284997D02*
X46009999Y-18335001D01*
X47905000Y-17775000D02*
X47905000Y-17300000D01*
X28469999Y-49735001D02*
X33935007Y-55200009D01*
X28469999Y-47664999D02*
X28469999Y-49735001D01*
X30365000Y-48700000D02*
X30365000Y-48225000D01*
X36345284Y-55200009D02*
X36910969Y-55200009D01*
X29739999Y-47599999D02*
X28534999Y-47599999D01*
X28534999Y-47599999D02*
X28469999Y-47664999D01*
X33935007Y-55200009D02*
X36345284Y-55200009D01*
X30365000Y-48225000D02*
X29739999Y-47599999D01*
X43649117Y-58602061D02*
X40592559Y-58602061D01*
X40410079Y-58784541D02*
X40010080Y-59184540D01*
X40592559Y-58602061D02*
X40410079Y-58784541D01*
X45329517Y-56921661D02*
X43649117Y-58602061D01*
X46399521Y-56921661D02*
X45329517Y-56921661D01*
X46464521Y-56856661D02*
X46399521Y-56921661D01*
X46464521Y-55450477D02*
X46464521Y-56856661D01*
X48350000Y-53564998D02*
X46464521Y-55450477D01*
X48350000Y-52000000D02*
X48350000Y-53564998D01*
X48350000Y-50250000D02*
X48350000Y-52000000D01*
X18635000Y-48700000D02*
X18635000Y-50635000D01*
X18635000Y-50635000D02*
X19000000Y-51000000D01*
X28795000Y-43000000D02*
X29095000Y-43300000D01*
X27807580Y-44508760D02*
X25544780Y-46771560D01*
X27807580Y-43000000D02*
X27807580Y-44508760D01*
X27807580Y-43000000D02*
X28795000Y-43000000D01*
X29315013Y-44998576D02*
X30411424Y-44998576D01*
X26488588Y-47825001D02*
X29315013Y-44998576D01*
X30411424Y-44998576D02*
X31635000Y-43775000D01*
X23405001Y-47825001D02*
X26488588Y-47825001D01*
X19905000Y-44325000D02*
X23405001Y-47825001D01*
X31635000Y-43775000D02*
X31635000Y-43300000D01*
X19905000Y-43300000D02*
X19905000Y-44325000D01*
M02*
