G04 #@! TF.GenerationSoftware,KiCad,Pcbnew,(5.1.2)-1*
G04 #@! TF.CreationDate,2020-05-25T21:05:15-07:00*
G04 #@! TF.ProjectId,kicad-cpu-board-smt,6b696361-642d-4637-9075-2d626f617264,rev?*
G04 #@! TF.SameCoordinates,Original*
G04 #@! TF.FileFunction,Legend,Top*
G04 #@! TF.FilePolarity,Positive*
%FSLAX46Y46*%
G04 Gerber Fmt 4.6, Leading zero omitted, Abs format (unit mm)*
G04 Created by KiCad (PCBNEW (5.1.2)-1) date 2020-05-25 21:05:15*
%MOMM*%
%LPD*%
G04 APERTURE LIST*
%ADD10C,0.150000*%
%ADD11C,0.120000*%
G04 APERTURE END LIST*
D10*
X42753280Y-22630402D02*
X42800899Y-22678021D01*
X42753280Y-22725640D01*
X42705660Y-22678021D01*
X42753280Y-22630402D01*
X42753280Y-22725640D01*
X51841400Y-50085262D02*
X51889019Y-50132881D01*
X51841400Y-50180500D01*
X51793780Y-50132881D01*
X51841400Y-50085262D01*
X51841400Y-50180500D01*
X14660880Y-48883842D02*
X14708499Y-48931461D01*
X14660880Y-48979080D01*
X14613260Y-48931461D01*
X14660880Y-48883842D01*
X14660880Y-48979080D01*
X27795220Y-48721282D02*
X27842839Y-48768901D01*
X27795220Y-48816520D01*
X27747600Y-48768901D01*
X27795220Y-48721282D01*
X27795220Y-48816520D01*
X67923809Y-39752380D02*
X67923809Y-38752380D01*
X68971428Y-39657142D02*
X68923809Y-39704761D01*
X68780952Y-39752380D01*
X68685714Y-39752380D01*
X68542857Y-39704761D01*
X68447619Y-39609523D01*
X68400000Y-39514285D01*
X68352380Y-39323809D01*
X68352380Y-39180952D01*
X68400000Y-38990476D01*
X68447619Y-38895238D01*
X68542857Y-38800000D01*
X68685714Y-38752380D01*
X68780952Y-38752380D01*
X68923809Y-38800000D01*
X68971428Y-38847619D01*
X69352380Y-39704761D02*
X69495238Y-39752380D01*
X69733333Y-39752380D01*
X69828571Y-39704761D01*
X69876190Y-39657142D01*
X69923809Y-39561904D01*
X69923809Y-39466666D01*
X69876190Y-39371428D01*
X69828571Y-39323809D01*
X69733333Y-39276190D01*
X69542857Y-39228571D01*
X69447619Y-39180952D01*
X69400000Y-39133333D01*
X69352380Y-39038095D01*
X69352380Y-38942857D01*
X69400000Y-38847619D01*
X69447619Y-38800000D01*
X69542857Y-38752380D01*
X69780952Y-38752380D01*
X69923809Y-38800000D01*
X70352380Y-39752380D02*
X70352380Y-38752380D01*
X70733333Y-38752380D01*
X70828571Y-38800000D01*
X70876190Y-38847619D01*
X70923809Y-38942857D01*
X70923809Y-39085714D01*
X70876190Y-39180952D01*
X70828571Y-39228571D01*
X70733333Y-39276190D01*
X70352380Y-39276190D01*
X73764285Y-36571428D02*
X74526190Y-36571428D01*
X74145238Y-36952380D02*
X74145238Y-36190476D01*
X75478571Y-35952380D02*
X75002380Y-35952380D01*
X74954761Y-36428571D01*
X75002380Y-36380952D01*
X75097619Y-36333333D01*
X75335714Y-36333333D01*
X75430952Y-36380952D01*
X75478571Y-36428571D01*
X75526190Y-36523809D01*
X75526190Y-36761904D01*
X75478571Y-36857142D01*
X75430952Y-36904761D01*
X75335714Y-36952380D01*
X75097619Y-36952380D01*
X75002380Y-36904761D01*
X74954761Y-36857142D01*
X75811904Y-35952380D02*
X76145238Y-36952380D01*
X76478571Y-35952380D01*
X66340595Y-72671428D02*
X67102500Y-72671428D01*
X68102500Y-73052380D02*
X67531071Y-73052380D01*
X67816785Y-73052380D02*
X67816785Y-72052380D01*
X67721547Y-72195238D01*
X67626309Y-72290476D01*
X67531071Y-72338095D01*
X68483452Y-72147619D02*
X68531071Y-72100000D01*
X68626309Y-72052380D01*
X68864404Y-72052380D01*
X68959642Y-72100000D01*
X69007261Y-72147619D01*
X69054880Y-72242857D01*
X69054880Y-72338095D01*
X69007261Y-72480952D01*
X68435833Y-73052380D01*
X69054880Y-73052380D01*
X69340595Y-72052380D02*
X69673928Y-73052380D01*
X70007261Y-72052380D01*
X68007261Y-74702380D02*
X67673928Y-74226190D01*
X67435833Y-74702380D02*
X67435833Y-73702380D01*
X67816785Y-73702380D01*
X67912023Y-73750000D01*
X67959642Y-73797619D01*
X68007261Y-73892857D01*
X68007261Y-74035714D01*
X67959642Y-74130952D01*
X67912023Y-74178571D01*
X67816785Y-74226190D01*
X67435833Y-74226190D01*
X68435833Y-74178571D02*
X68769166Y-74178571D01*
X68912023Y-74702380D02*
X68435833Y-74702380D01*
X68435833Y-73702380D01*
X68912023Y-73702380D01*
X69340595Y-74702380D02*
X69340595Y-73702380D01*
X69578690Y-73702380D01*
X69721547Y-73750000D01*
X69816785Y-73845238D01*
X69864404Y-73940476D01*
X69912023Y-74130952D01*
X69912023Y-74273809D01*
X69864404Y-74464285D01*
X69816785Y-74559523D01*
X69721547Y-74654761D01*
X69578690Y-74702380D01*
X69340595Y-74702380D01*
X65197738Y-76304761D02*
X65340595Y-76352380D01*
X65578690Y-76352380D01*
X65673928Y-76304761D01*
X65721547Y-76257142D01*
X65769166Y-76161904D01*
X65769166Y-76066666D01*
X65721547Y-75971428D01*
X65673928Y-75923809D01*
X65578690Y-75876190D01*
X65388214Y-75828571D01*
X65292976Y-75780952D01*
X65245357Y-75733333D01*
X65197738Y-75638095D01*
X65197738Y-75542857D01*
X65245357Y-75447619D01*
X65292976Y-75400000D01*
X65388214Y-75352380D01*
X65626309Y-75352380D01*
X65769166Y-75400000D01*
X66054880Y-75352380D02*
X66626309Y-75352380D01*
X66340595Y-76352380D02*
X66340595Y-75352380D01*
X67531071Y-76352380D02*
X67197738Y-75876190D01*
X66959642Y-76352380D02*
X66959642Y-75352380D01*
X67340595Y-75352380D01*
X67435833Y-75400000D01*
X67483452Y-75447619D01*
X67531071Y-75542857D01*
X67531071Y-75685714D01*
X67483452Y-75780952D01*
X67435833Y-75828571D01*
X67340595Y-75876190D01*
X66959642Y-75876190D01*
X67959642Y-76352380D02*
X67959642Y-75352380D01*
X68435833Y-76352380D02*
X68435833Y-75352380D01*
X68816785Y-75352380D01*
X68912023Y-75400000D01*
X68959642Y-75447619D01*
X69007261Y-75542857D01*
X69007261Y-75685714D01*
X68959642Y-75780952D01*
X68912023Y-75828571D01*
X68816785Y-75876190D01*
X68435833Y-75876190D01*
X69435833Y-75828571D02*
X69769166Y-75828571D01*
X69912023Y-76352380D02*
X69435833Y-76352380D01*
X69435833Y-75352380D01*
X69912023Y-75352380D01*
X21347619Y-69554761D02*
X21490476Y-69602380D01*
X21728571Y-69602380D01*
X21823809Y-69554761D01*
X21871428Y-69507142D01*
X21919047Y-69411904D01*
X21919047Y-69316666D01*
X21871428Y-69221428D01*
X21823809Y-69173809D01*
X21728571Y-69126190D01*
X21538095Y-69078571D01*
X21442857Y-69030952D01*
X21395238Y-68983333D01*
X21347619Y-68888095D01*
X21347619Y-68792857D01*
X21395238Y-68697619D01*
X21442857Y-68650000D01*
X21538095Y-68602380D01*
X21776190Y-68602380D01*
X21919047Y-68650000D01*
X22347619Y-68602380D02*
X22347619Y-69411904D01*
X22395238Y-69507142D01*
X22442857Y-69554761D01*
X22538095Y-69602380D01*
X22728571Y-69602380D01*
X22823809Y-69554761D01*
X22871428Y-69507142D01*
X22919047Y-69411904D01*
X22919047Y-68602380D01*
X23395238Y-69602380D02*
X23395238Y-68602380D01*
X23776190Y-68602380D01*
X23871428Y-68650000D01*
X23919047Y-68697619D01*
X23966666Y-68792857D01*
X23966666Y-68935714D01*
X23919047Y-69030952D01*
X23871428Y-69078571D01*
X23776190Y-69126190D01*
X23395238Y-69126190D01*
X24395238Y-69078571D02*
X24728571Y-69078571D01*
X24871428Y-69602380D02*
X24395238Y-69602380D01*
X24395238Y-68602380D01*
X24871428Y-68602380D01*
X25871428Y-69602380D02*
X25538095Y-69126190D01*
X25300000Y-69602380D02*
X25300000Y-68602380D01*
X25680952Y-68602380D01*
X25776190Y-68650000D01*
X25823809Y-68697619D01*
X25871428Y-68792857D01*
X25871428Y-68935714D01*
X25823809Y-69030952D01*
X25776190Y-69078571D01*
X25680952Y-69126190D01*
X25300000Y-69126190D01*
X27014285Y-69554761D02*
X27157142Y-69602380D01*
X27395238Y-69602380D01*
X27490476Y-69554761D01*
X27538095Y-69507142D01*
X27585714Y-69411904D01*
X27585714Y-69316666D01*
X27538095Y-69221428D01*
X27490476Y-69173809D01*
X27395238Y-69126190D01*
X27204761Y-69078571D01*
X27109523Y-69030952D01*
X27061904Y-68983333D01*
X27014285Y-68888095D01*
X27014285Y-68792857D01*
X27061904Y-68697619D01*
X27109523Y-68650000D01*
X27204761Y-68602380D01*
X27442857Y-68602380D01*
X27585714Y-68650000D01*
X28014285Y-69602380D02*
X28014285Y-68602380D01*
X28395238Y-68602380D02*
X29061904Y-69602380D01*
X29061904Y-68602380D02*
X28395238Y-69602380D01*
X29300000Y-68602380D02*
X29871428Y-68602380D01*
X29585714Y-69602380D02*
X29585714Y-68602380D01*
X30204761Y-69078571D02*
X30538095Y-69078571D01*
X30680952Y-69602380D02*
X30204761Y-69602380D01*
X30204761Y-68602380D01*
X30680952Y-68602380D01*
X31109523Y-69078571D02*
X31442857Y-69078571D01*
X31585714Y-69602380D02*
X31109523Y-69602380D01*
X31109523Y-68602380D01*
X31585714Y-68602380D01*
X32014285Y-69602380D02*
X32014285Y-68602380D01*
X32585714Y-69602380D01*
X32585714Y-68602380D01*
X33680952Y-68602380D02*
X34014285Y-69602380D01*
X34347619Y-68602380D01*
X35204761Y-69602380D02*
X34633333Y-69602380D01*
X34919047Y-69602380D02*
X34919047Y-68602380D01*
X34823809Y-68745238D01*
X34728571Y-68840476D01*
X34633333Y-68888095D01*
X35633333Y-69507142D02*
X35680952Y-69554761D01*
X35633333Y-69602380D01*
X35585714Y-69554761D01*
X35633333Y-69507142D01*
X35633333Y-69602380D01*
X36014285Y-68602380D02*
X36633333Y-68602380D01*
X36300000Y-68983333D01*
X36442857Y-68983333D01*
X36538095Y-69030952D01*
X36585714Y-69078571D01*
X36633333Y-69173809D01*
X36633333Y-69411904D01*
X36585714Y-69507142D01*
X36538095Y-69554761D01*
X36442857Y-69602380D01*
X36157142Y-69602380D01*
X36061904Y-69554761D01*
X36014285Y-69507142D01*
X37776190Y-69554761D02*
X37919047Y-69602380D01*
X38157142Y-69602380D01*
X38252380Y-69554761D01*
X38299999Y-69507142D01*
X38347619Y-69411904D01*
X38347619Y-69316666D01*
X38299999Y-69221428D01*
X38252380Y-69173809D01*
X38157142Y-69126190D01*
X37966666Y-69078571D01*
X37871428Y-69030952D01*
X37823809Y-68983333D01*
X37776190Y-68888095D01*
X37776190Y-68792857D01*
X37823809Y-68697619D01*
X37871428Y-68650000D01*
X37966666Y-68602380D01*
X38204761Y-68602380D01*
X38347619Y-68650000D01*
X38776190Y-69602380D02*
X38776190Y-68602380D01*
X39109523Y-69316666D01*
X39442857Y-68602380D01*
X39442857Y-69602380D01*
X39776190Y-68602380D02*
X40347619Y-68602380D01*
X40061904Y-69602380D02*
X40061904Y-68602380D01*
X21297619Y-67128571D02*
X21630952Y-67128571D01*
X21773809Y-67652380D02*
X21297619Y-67652380D01*
X21297619Y-66652380D01*
X21773809Y-66652380D01*
X22107142Y-66652380D02*
X22773809Y-67652380D01*
X22773809Y-66652380D02*
X22107142Y-67652380D01*
X23011904Y-66652380D02*
X23583333Y-66652380D01*
X23297619Y-67652380D02*
X23297619Y-66652380D01*
X24488095Y-67652380D02*
X24154761Y-67176190D01*
X23916666Y-67652380D02*
X23916666Y-66652380D01*
X24297619Y-66652380D01*
X24392857Y-66700000D01*
X24440476Y-66747619D01*
X24488095Y-66842857D01*
X24488095Y-66985714D01*
X24440476Y-67080952D01*
X24392857Y-67128571D01*
X24297619Y-67176190D01*
X23916666Y-67176190D01*
X24869047Y-67366666D02*
X25345238Y-67366666D01*
X24773809Y-67652380D02*
X25107142Y-66652380D01*
X25440476Y-67652380D01*
X26250000Y-67652380D02*
X25773809Y-67652380D01*
X25773809Y-66652380D01*
X26583333Y-67652380D02*
X26583333Y-66652380D01*
X27392857Y-67128571D02*
X27059523Y-67128571D01*
X27059523Y-67652380D02*
X27059523Y-66652380D01*
X27535714Y-66652380D01*
X27916666Y-67128571D02*
X28250000Y-67128571D01*
X28392857Y-67652380D02*
X27916666Y-67652380D01*
X27916666Y-66652380D01*
X28392857Y-66652380D01*
X29583333Y-67652380D02*
X29583333Y-66652380D01*
X30059523Y-67652380D02*
X30059523Y-66652380D01*
X30630952Y-67652380D01*
X30630952Y-66652380D01*
X31059523Y-67604761D02*
X31202380Y-67652380D01*
X31440476Y-67652380D01*
X31535714Y-67604761D01*
X31583333Y-67557142D01*
X31630952Y-67461904D01*
X31630952Y-67366666D01*
X31583333Y-67271428D01*
X31535714Y-67223809D01*
X31440476Y-67176190D01*
X31250000Y-67128571D01*
X31154761Y-67080952D01*
X31107142Y-67033333D01*
X31059523Y-66938095D01*
X31059523Y-66842857D01*
X31107142Y-66747619D01*
X31154761Y-66700000D01*
X31250000Y-66652380D01*
X31488095Y-66652380D01*
X31630952Y-66700000D01*
X31916666Y-66652380D02*
X32488095Y-66652380D01*
X32202380Y-67652380D02*
X32202380Y-66652380D01*
X33392857Y-67652380D02*
X33059523Y-67176190D01*
X32821428Y-67652380D02*
X32821428Y-66652380D01*
X33202380Y-66652380D01*
X33297619Y-66700000D01*
X33345238Y-66747619D01*
X33392857Y-66842857D01*
X33392857Y-66985714D01*
X33345238Y-67080952D01*
X33297619Y-67128571D01*
X33202380Y-67176190D01*
X32821428Y-67176190D01*
X33821428Y-66652380D02*
X33821428Y-67461904D01*
X33869047Y-67557142D01*
X33916666Y-67604761D01*
X34011904Y-67652380D01*
X34202380Y-67652380D01*
X34297619Y-67604761D01*
X34345238Y-67557142D01*
X34392857Y-67461904D01*
X34392857Y-66652380D01*
X34869047Y-67652380D02*
X34869047Y-66652380D01*
X35202380Y-67366666D01*
X35535714Y-66652380D01*
X35535714Y-67652380D01*
X36011904Y-67128571D02*
X36345238Y-67128571D01*
X36488095Y-67652380D02*
X36011904Y-67652380D01*
X36011904Y-66652380D01*
X36488095Y-66652380D01*
X36916666Y-67652380D02*
X36916666Y-66652380D01*
X37488095Y-67652380D01*
X37488095Y-66652380D01*
X37821428Y-66652380D02*
X38392857Y-66652380D01*
X38107142Y-67652380D02*
X38107142Y-66652380D01*
X38678571Y-67604761D02*
X38821428Y-67652380D01*
X39059523Y-67652380D01*
X39154761Y-67604761D01*
X39202380Y-67557142D01*
X39249999Y-67461904D01*
X39249999Y-67366666D01*
X39202380Y-67271428D01*
X39154761Y-67223809D01*
X39059523Y-67176190D01*
X38869047Y-67128571D01*
X38773809Y-67080952D01*
X38726190Y-67033333D01*
X38678571Y-66938095D01*
X38678571Y-66842857D01*
X38726190Y-66747619D01*
X38773809Y-66700000D01*
X38869047Y-66652380D01*
X39107142Y-66652380D01*
X39249999Y-66700000D01*
D11*
X77850000Y-65850000D02*
X82150000Y-65850000D01*
X82150000Y-65850000D02*
X82150000Y-58300000D01*
X77850000Y-65850000D02*
X77850000Y-58300000D01*
X87750540Y-56137940D02*
X83450540Y-56137940D01*
X83450540Y-56137940D02*
X83450540Y-63687940D01*
X87750540Y-56137940D02*
X87750540Y-63687940D01*
X52828080Y-54088160D02*
X48528080Y-54088160D01*
X48528080Y-54088160D02*
X48528080Y-61638160D01*
X52828080Y-54088160D02*
X52828080Y-61638160D01*
X44595940Y-54177060D02*
X40295940Y-54177060D01*
X40295940Y-54177060D02*
X40295940Y-61727060D01*
X44595940Y-54177060D02*
X44595940Y-61727060D01*
D10*
X49975000Y-49625000D02*
X49975000Y-49400000D01*
X42725000Y-49625000D02*
X42725000Y-49300000D01*
X42725000Y-42375000D02*
X42725000Y-42700000D01*
X49975000Y-42375000D02*
X49975000Y-42700000D01*
X49975000Y-49625000D02*
X49650000Y-49625000D01*
X49975000Y-42375000D02*
X49650000Y-42375000D01*
X42725000Y-42375000D02*
X43050000Y-42375000D01*
X42725000Y-49625000D02*
X43050000Y-49625000D01*
X49975000Y-49400000D02*
X51400000Y-49400000D01*
X15425000Y-48075000D02*
X15475000Y-48075000D01*
X15425000Y-43925000D02*
X15570000Y-43925000D01*
X20575000Y-43925000D02*
X20430000Y-43925000D01*
X20575000Y-48075000D02*
X20430000Y-48075000D01*
X15425000Y-48075000D02*
X15425000Y-43925000D01*
X20575000Y-48075000D02*
X20575000Y-43925000D01*
X15475000Y-48075000D02*
X15475000Y-49475000D01*
D11*
X78550000Y-39210000D02*
X81440000Y-39210000D01*
X87450000Y-39210000D02*
X84560000Y-39210000D01*
X88210000Y-28790000D02*
X84560000Y-28790000D01*
X77790000Y-28790000D02*
X81440000Y-28790000D01*
X88210000Y-28790000D02*
X88210000Y-38450000D01*
X88210000Y-38450000D02*
X87450000Y-39210000D01*
X78550000Y-39210000D02*
X77790000Y-38450000D01*
X77790000Y-38450000D02*
X77790000Y-28790000D01*
X56522600Y-37891280D02*
X56522600Y-33391280D01*
X56522600Y-33391280D02*
X51122600Y-33391280D01*
X63320000Y-61400000D02*
X63320000Y-59400000D01*
X66280000Y-59400000D02*
X66280000Y-61400000D01*
X70120000Y-61400000D02*
X70120000Y-59400000D01*
X73080000Y-59400000D02*
X73080000Y-61400000D01*
X59480000Y-59400000D02*
X59480000Y-61400000D01*
X56520000Y-61400000D02*
X56520000Y-59400000D01*
X37540000Y-38300000D02*
X36120000Y-38300000D01*
X38300000Y-31700000D02*
X36120000Y-31700000D01*
X31700000Y-31700000D02*
X33880000Y-31700000D01*
X32460000Y-38300000D02*
X33880000Y-38300000D01*
X38300000Y-31700000D02*
X38300000Y-37540000D01*
X38300000Y-37540000D02*
X37540000Y-38300000D01*
X32460000Y-38300000D02*
X31700000Y-37540000D01*
X31700000Y-37540000D02*
X31700000Y-31700000D01*
X65590000Y-32670000D02*
X65590000Y-37870000D01*
X70730000Y-32670000D02*
X65590000Y-32670000D01*
X73330000Y-37870000D02*
X65590000Y-37870000D01*
X70730000Y-32670000D02*
X70730000Y-35270000D01*
X70730000Y-35270000D02*
X73330000Y-35270000D01*
X73330000Y-35270000D02*
X73330000Y-37870000D01*
X72000000Y-32670000D02*
X73330000Y-32670000D01*
X73330000Y-32670000D02*
X73330000Y-34000000D01*
D10*
X28425000Y-48075000D02*
X28475000Y-48075000D01*
X28425000Y-43925000D02*
X28570000Y-43925000D01*
X33575000Y-43925000D02*
X33430000Y-43925000D01*
X33575000Y-48075000D02*
X33430000Y-48075000D01*
X28425000Y-48075000D02*
X28425000Y-43925000D01*
X33575000Y-48075000D02*
X33575000Y-43925000D01*
X28475000Y-48075000D02*
X28475000Y-49475000D01*
X43425000Y-22075000D02*
X43475000Y-22075000D01*
X43425000Y-17925000D02*
X43570000Y-17925000D01*
X48575000Y-17925000D02*
X48430000Y-17925000D01*
X48575000Y-22075000D02*
X48430000Y-22075000D01*
X43425000Y-22075000D02*
X43425000Y-17925000D01*
X48575000Y-22075000D02*
X48575000Y-17925000D01*
X43475000Y-22075000D02*
X43475000Y-23475000D01*
D11*
X26410000Y-33090000D02*
X25150000Y-33090000D01*
X19590000Y-33090000D02*
X20850000Y-33090000D01*
X26410000Y-36850000D02*
X26410000Y-33090000D01*
X19590000Y-39100000D02*
X19590000Y-33090000D01*
X67410000Y-44090000D02*
X66150000Y-44090000D01*
X60590000Y-44090000D02*
X61850000Y-44090000D01*
X67410000Y-47850000D02*
X67410000Y-44090000D01*
X60590000Y-50100000D02*
X60590000Y-44090000D01*
X29680000Y-56600000D02*
X29680000Y-57600000D01*
X28320000Y-57600000D02*
X28320000Y-56600000D01*
X25680000Y-56600000D02*
X25680000Y-57600000D01*
X24320000Y-57600000D02*
X24320000Y-56600000D01*
X21680000Y-56600000D02*
X21680000Y-57600000D01*
X20320000Y-57600000D02*
X20320000Y-56600000D01*
X29680000Y-61500000D02*
X29680000Y-62500000D01*
X28320000Y-62500000D02*
X28320000Y-61500000D01*
X25680000Y-61600000D02*
X25680000Y-62600000D01*
X24320000Y-62600000D02*
X24320000Y-61600000D01*
X21680000Y-61600000D02*
X21680000Y-62600000D01*
X20320000Y-62600000D02*
X20320000Y-61600000D01*
X39715000Y-24500000D02*
X39715000Y-25500000D01*
X38355000Y-25500000D02*
X38355000Y-24500000D01*
X36419284Y-24500000D02*
X36419284Y-25500000D01*
X35059284Y-25500000D02*
X35059284Y-24500000D01*
X33123570Y-24500000D02*
X33123570Y-25500000D01*
X31763570Y-25500000D02*
X31763570Y-24500000D01*
X29827856Y-24500000D02*
X29827856Y-25500000D01*
X28467856Y-25500000D02*
X28467856Y-24500000D01*
X26532142Y-24500000D02*
X26532142Y-25500000D01*
X25172142Y-25500000D02*
X25172142Y-24500000D01*
X23236428Y-24500000D02*
X23236428Y-25500000D01*
X21876428Y-25500000D02*
X21876428Y-24500000D01*
X19940714Y-24500000D02*
X19940714Y-25500000D01*
X18580714Y-25500000D02*
X18580714Y-24500000D01*
X16645000Y-24500000D02*
X16645000Y-25500000D01*
X15285000Y-25500000D02*
X15285000Y-24500000D01*
X48180000Y-56650000D02*
X48180000Y-57650000D01*
X46820000Y-57650000D02*
X46820000Y-56650000D01*
X46369520Y-56596660D02*
X46369520Y-57596660D01*
X45009520Y-57596660D02*
X45009520Y-56596660D01*
X55895960Y-46448600D02*
X55895960Y-45448600D01*
X57255960Y-45448600D02*
X57255960Y-46448600D01*
X54368320Y-31533380D02*
X53368320Y-31533380D01*
X53368320Y-30173380D02*
X54368320Y-30173380D01*
X36420000Y-19760000D02*
X37350000Y-19760000D01*
X39580000Y-19760000D02*
X38650000Y-19760000D01*
X39580000Y-19760000D02*
X39580000Y-16600000D01*
X36420000Y-19760000D02*
X36420000Y-18300000D01*
X29420000Y-19760000D02*
X30350000Y-19760000D01*
X32580000Y-19760000D02*
X31650000Y-19760000D01*
X32580000Y-19760000D02*
X32580000Y-16600000D01*
X29420000Y-19760000D02*
X29420000Y-18300000D01*
X22420000Y-19760000D02*
X23350000Y-19760000D01*
X25580000Y-19760000D02*
X24650000Y-19760000D01*
X25580000Y-19760000D02*
X25580000Y-16600000D01*
X22420000Y-19760000D02*
X22420000Y-18300000D01*
X15420000Y-19760000D02*
X16350000Y-19760000D01*
X18580000Y-19760000D02*
X17650000Y-19760000D01*
X18580000Y-19760000D02*
X18580000Y-16600000D01*
X15420000Y-19760000D02*
X15420000Y-18300000D01*
X71510000Y-71670000D02*
X71510000Y-76870000D01*
X81730000Y-71670000D02*
X71510000Y-71670000D01*
X84330000Y-76870000D02*
X71510000Y-76870000D01*
X81730000Y-71670000D02*
X81730000Y-74270000D01*
X81730000Y-74270000D02*
X84330000Y-74270000D01*
X84330000Y-74270000D02*
X84330000Y-76870000D01*
X83000000Y-71670000D02*
X84330000Y-71670000D01*
X84330000Y-71670000D02*
X84330000Y-73000000D01*
X16400000Y-57300000D02*
X16400000Y-56600000D01*
X17600000Y-56600000D02*
X17600000Y-57300000D01*
X16400000Y-62300000D02*
X16400000Y-61600000D01*
X17600000Y-61600000D02*
X17600000Y-62300000D01*
X36900000Y-46300000D02*
X36900000Y-45600000D01*
X38100000Y-45600000D02*
X38100000Y-46300000D01*
X42600000Y-24650000D02*
X42600000Y-25350000D01*
X41400000Y-25350000D02*
X41400000Y-24650000D01*
X87540000Y-49300000D02*
X86120000Y-49300000D01*
X88300000Y-42700000D02*
X86120000Y-42700000D01*
X81700000Y-42700000D02*
X83880000Y-42700000D01*
X82460000Y-49300000D02*
X83880000Y-49300000D01*
X88300000Y-42700000D02*
X88300000Y-48540000D01*
X88300000Y-48540000D02*
X87540000Y-49300000D01*
X82460000Y-49300000D02*
X81700000Y-48540000D01*
X81700000Y-48540000D02*
X81700000Y-42700000D01*
X15400000Y-35300000D02*
X15400000Y-34600000D01*
X16600000Y-34600000D02*
X16600000Y-35300000D01*
X48391520Y-35948100D02*
X48391520Y-35248100D01*
X49591520Y-35248100D02*
X49591520Y-35948100D01*
X58363560Y-36151340D02*
X58363560Y-35451340D01*
X59563560Y-35451340D02*
X59563560Y-36151340D01*
X38900000Y-46300000D02*
X38900000Y-45600000D01*
X40100000Y-45600000D02*
X40100000Y-46300000D01*
X34900000Y-46350000D02*
X34900000Y-45650000D01*
X36100000Y-45650000D02*
X36100000Y-46350000D01*
X53390240Y-46300000D02*
X53390240Y-45600000D01*
X54590240Y-45600000D02*
X54590240Y-46300000D01*
X32580000Y-61840000D02*
X32980000Y-61840000D01*
X31810000Y-57260000D02*
X32980000Y-57260000D01*
X36390000Y-57260000D02*
X35220000Y-57260000D01*
X35620000Y-61840000D02*
X35220000Y-61840000D01*
X36390000Y-61070000D02*
X36390000Y-57260000D01*
X36390000Y-61070000D02*
X35620000Y-61840000D01*
X31810000Y-61070000D02*
X31810000Y-57260000D01*
X31810000Y-61070000D02*
X32580000Y-61840000D01*
X77540000Y-49300000D02*
X76120000Y-49300000D01*
X78300000Y-42700000D02*
X76120000Y-42700000D01*
X71700000Y-42700000D02*
X73880000Y-42700000D01*
X72460000Y-49300000D02*
X73880000Y-49300000D01*
X78300000Y-42700000D02*
X78300000Y-48540000D01*
X78300000Y-48540000D02*
X77540000Y-49300000D01*
X72460000Y-49300000D02*
X71700000Y-48540000D01*
X71700000Y-48540000D02*
X71700000Y-42700000D01*
X23400000Y-46300000D02*
X23400000Y-45600000D01*
X24600000Y-45600000D02*
X24600000Y-46300000D01*
D10*
X77452380Y-61738095D02*
X76452380Y-61738095D01*
X76452380Y-61500000D01*
X76500000Y-61357142D01*
X76595238Y-61261904D01*
X76690476Y-61214285D01*
X76880952Y-61166666D01*
X77023809Y-61166666D01*
X77214285Y-61214285D01*
X77309523Y-61261904D01*
X77404761Y-61357142D01*
X77452380Y-61500000D01*
X77452380Y-61738095D01*
X76785714Y-60309523D02*
X77452380Y-60309523D01*
X76404761Y-60547619D02*
X77119047Y-60785714D01*
X77119047Y-60166666D01*
X89052920Y-61726035D02*
X88052920Y-61726035D01*
X88052920Y-61487940D01*
X88100540Y-61345082D01*
X88195778Y-61249844D01*
X88291016Y-61202225D01*
X88481492Y-61154606D01*
X88624349Y-61154606D01*
X88814825Y-61202225D01*
X88910063Y-61249844D01*
X89005301Y-61345082D01*
X89052920Y-61487940D01*
X89052920Y-61726035D01*
X88052920Y-60821273D02*
X88052920Y-60202225D01*
X88433873Y-60535559D01*
X88433873Y-60392701D01*
X88481492Y-60297463D01*
X88529111Y-60249844D01*
X88624349Y-60202225D01*
X88862444Y-60202225D01*
X88957682Y-60249844D01*
X89005301Y-60297463D01*
X89052920Y-60392701D01*
X89052920Y-60678416D01*
X89005301Y-60773654D01*
X88957682Y-60821273D01*
X54130460Y-59676255D02*
X53130460Y-59676255D01*
X53130460Y-59438160D01*
X53178080Y-59295302D01*
X53273318Y-59200064D01*
X53368556Y-59152445D01*
X53559032Y-59104826D01*
X53701889Y-59104826D01*
X53892365Y-59152445D01*
X53987603Y-59200064D01*
X54082841Y-59295302D01*
X54130460Y-59438160D01*
X54130460Y-59676255D01*
X53225699Y-58723874D02*
X53178080Y-58676255D01*
X53130460Y-58581017D01*
X53130460Y-58342921D01*
X53178080Y-58247683D01*
X53225699Y-58200064D01*
X53320937Y-58152445D01*
X53416175Y-58152445D01*
X53559032Y-58200064D01*
X54130460Y-58771493D01*
X54130460Y-58152445D01*
X45898320Y-59765155D02*
X44898320Y-59765155D01*
X44898320Y-59527060D01*
X44945940Y-59384202D01*
X45041178Y-59288964D01*
X45136416Y-59241345D01*
X45326892Y-59193726D01*
X45469749Y-59193726D01*
X45660225Y-59241345D01*
X45755463Y-59288964D01*
X45850701Y-59384202D01*
X45898320Y-59527060D01*
X45898320Y-59765155D01*
X45898320Y-58241345D02*
X45898320Y-58812774D01*
X45898320Y-58527060D02*
X44898320Y-58527060D01*
X45041178Y-58622298D01*
X45136416Y-58717536D01*
X45184035Y-58812774D01*
X45588095Y-51502380D02*
X45588095Y-52311904D01*
X45635714Y-52407142D01*
X45683333Y-52454761D01*
X45778571Y-52502380D01*
X45969047Y-52502380D01*
X46064285Y-52454761D01*
X46111904Y-52407142D01*
X46159523Y-52311904D01*
X46159523Y-51502380D01*
X46540476Y-51502380D02*
X47159523Y-51502380D01*
X46826190Y-51883333D01*
X46969047Y-51883333D01*
X47064285Y-51930952D01*
X47111904Y-51978571D01*
X47159523Y-52073809D01*
X47159523Y-52311904D01*
X47111904Y-52407142D01*
X47064285Y-52454761D01*
X46969047Y-52502380D01*
X46683333Y-52502380D01*
X46588095Y-52454761D01*
X46540476Y-52407142D01*
X13952380Y-46761904D02*
X14761904Y-46761904D01*
X14857142Y-46714285D01*
X14904761Y-46666666D01*
X14952380Y-46571428D01*
X14952380Y-46380952D01*
X14904761Y-46285714D01*
X14857142Y-46238095D01*
X14761904Y-46190476D01*
X13952380Y-46190476D01*
X13952380Y-45238095D02*
X13952380Y-45714285D01*
X14428571Y-45761904D01*
X14380952Y-45714285D01*
X14333333Y-45619047D01*
X14333333Y-45380952D01*
X14380952Y-45285714D01*
X14428571Y-45238095D01*
X14523809Y-45190476D01*
X14761904Y-45190476D01*
X14857142Y-45238095D01*
X14904761Y-45285714D01*
X14952380Y-45380952D01*
X14952380Y-45619047D01*
X14904761Y-45714285D01*
X14857142Y-45761904D01*
X89817142Y-34642857D02*
X89864761Y-34690476D01*
X89912380Y-34833333D01*
X89912380Y-34928571D01*
X89864761Y-35071428D01*
X89769523Y-35166666D01*
X89674285Y-35214285D01*
X89483809Y-35261904D01*
X89340952Y-35261904D01*
X89150476Y-35214285D01*
X89055238Y-35166666D01*
X88960000Y-35071428D01*
X88912380Y-34928571D01*
X88912380Y-34833333D01*
X88960000Y-34690476D01*
X89007619Y-34642857D01*
X89912380Y-33690476D02*
X89912380Y-34261904D01*
X89912380Y-33976190D02*
X88912380Y-33976190D01*
X89055238Y-34071428D01*
X89150476Y-34166666D01*
X89198095Y-34261904D01*
X89912380Y-32738095D02*
X89912380Y-33309523D01*
X89912380Y-33023809D02*
X88912380Y-33023809D01*
X89055238Y-33119047D01*
X89150476Y-33214285D01*
X89198095Y-33309523D01*
X88041428Y-40160952D02*
X88041428Y-39399047D01*
X88422380Y-39780000D02*
X87660476Y-39780000D01*
X53346409Y-38667470D02*
X53346409Y-39143660D01*
X53013076Y-38143660D02*
X53346409Y-38667470D01*
X53679742Y-38143660D01*
X54536885Y-39143660D02*
X53965457Y-39143660D01*
X54251171Y-39143660D02*
X54251171Y-38143660D01*
X54155933Y-38286518D01*
X54060695Y-38381756D01*
X53965457Y-38429375D01*
X67952380Y-60566666D02*
X67952380Y-61042857D01*
X66952380Y-61042857D01*
X66952380Y-60328571D02*
X66952380Y-59709523D01*
X67333333Y-60042857D01*
X67333333Y-59900000D01*
X67380952Y-59804761D01*
X67428571Y-59757142D01*
X67523809Y-59709523D01*
X67761904Y-59709523D01*
X67857142Y-59757142D01*
X67904761Y-59804761D01*
X67952380Y-59900000D01*
X67952380Y-60185714D01*
X67904761Y-60280952D01*
X67857142Y-60328571D01*
X74752380Y-60566666D02*
X74752380Y-61042857D01*
X73752380Y-61042857D01*
X73847619Y-60280952D02*
X73800000Y-60233333D01*
X73752380Y-60138095D01*
X73752380Y-59900000D01*
X73800000Y-59804761D01*
X73847619Y-59757142D01*
X73942857Y-59709523D01*
X74038095Y-59709523D01*
X74180952Y-59757142D01*
X74752380Y-60328571D01*
X74752380Y-59709523D01*
X55752380Y-60566666D02*
X55752380Y-61042857D01*
X54752380Y-61042857D01*
X55752380Y-59709523D02*
X55752380Y-60280952D01*
X55752380Y-59995238D02*
X54752380Y-59995238D01*
X54895238Y-60090476D01*
X54990476Y-60185714D01*
X55038095Y-60280952D01*
X31057142Y-35642857D02*
X31104761Y-35690476D01*
X31152380Y-35833333D01*
X31152380Y-35928571D01*
X31104761Y-36071428D01*
X31009523Y-36166666D01*
X30914285Y-36214285D01*
X30723809Y-36261904D01*
X30580952Y-36261904D01*
X30390476Y-36214285D01*
X30295238Y-36166666D01*
X30200000Y-36071428D01*
X30152380Y-35928571D01*
X30152380Y-35833333D01*
X30200000Y-35690476D01*
X30247619Y-35642857D01*
X31152380Y-34690476D02*
X31152380Y-35261904D01*
X31152380Y-34976190D02*
X30152380Y-34976190D01*
X30295238Y-35071428D01*
X30390476Y-35166666D01*
X30438095Y-35261904D01*
X30152380Y-34071428D02*
X30152380Y-33976190D01*
X30200000Y-33880952D01*
X30247619Y-33833333D01*
X30342857Y-33785714D01*
X30533333Y-33738095D01*
X30771428Y-33738095D01*
X30961904Y-33785714D01*
X31057142Y-33833333D01*
X31104761Y-33880952D01*
X31152380Y-33976190D01*
X31152380Y-34071428D01*
X31104761Y-34166666D01*
X31057142Y-34214285D01*
X30961904Y-34261904D01*
X30771428Y-34309523D01*
X30533333Y-34309523D01*
X30342857Y-34261904D01*
X30247619Y-34214285D01*
X30200000Y-34166666D01*
X30152380Y-34071428D01*
X37981428Y-39660952D02*
X37981428Y-38899047D01*
X38362380Y-39280000D02*
X37600476Y-39280000D01*
X63802380Y-35483333D02*
X64516666Y-35483333D01*
X64659523Y-35530952D01*
X64754761Y-35626190D01*
X64802380Y-35769047D01*
X64802380Y-35864285D01*
X64802380Y-34483333D02*
X64802380Y-35054761D01*
X64802380Y-34769047D02*
X63802380Y-34769047D01*
X63945238Y-34864285D01*
X64040476Y-34959523D01*
X64088095Y-35054761D01*
X26952380Y-46761904D02*
X27761904Y-46761904D01*
X27857142Y-46714285D01*
X27904761Y-46666666D01*
X27952380Y-46571428D01*
X27952380Y-46380952D01*
X27904761Y-46285714D01*
X27857142Y-46238095D01*
X27761904Y-46190476D01*
X26952380Y-46190476D01*
X26952380Y-45285714D02*
X26952380Y-45476190D01*
X27000000Y-45571428D01*
X27047619Y-45619047D01*
X27190476Y-45714285D01*
X27380952Y-45761904D01*
X27761904Y-45761904D01*
X27857142Y-45714285D01*
X27904761Y-45666666D01*
X27952380Y-45571428D01*
X27952380Y-45380952D01*
X27904761Y-45285714D01*
X27857142Y-45238095D01*
X27761904Y-45190476D01*
X27523809Y-45190476D01*
X27428571Y-45238095D01*
X27380952Y-45285714D01*
X27333333Y-45380952D01*
X27333333Y-45571428D01*
X27380952Y-45666666D01*
X27428571Y-45714285D01*
X27523809Y-45761904D01*
X41952380Y-20761904D02*
X42761904Y-20761904D01*
X42857142Y-20714285D01*
X42904761Y-20666666D01*
X42952380Y-20571428D01*
X42952380Y-20380952D01*
X42904761Y-20285714D01*
X42857142Y-20238095D01*
X42761904Y-20190476D01*
X41952380Y-20190476D01*
X42285714Y-19285714D02*
X42952380Y-19285714D01*
X41904761Y-19523809D02*
X42619047Y-19761904D01*
X42619047Y-19142857D01*
X17952380Y-35761904D02*
X18761904Y-35761904D01*
X18857142Y-35714285D01*
X18904761Y-35666666D01*
X18952380Y-35571428D01*
X18952380Y-35380952D01*
X18904761Y-35285714D01*
X18857142Y-35238095D01*
X18761904Y-35190476D01*
X17952380Y-35190476D01*
X18047619Y-34761904D02*
X18000000Y-34714285D01*
X17952380Y-34619047D01*
X17952380Y-34380952D01*
X18000000Y-34285714D01*
X18047619Y-34238095D01*
X18142857Y-34190476D01*
X18238095Y-34190476D01*
X18380952Y-34238095D01*
X18952380Y-34809523D01*
X18952380Y-34190476D01*
X58952380Y-46761904D02*
X59761904Y-46761904D01*
X59857142Y-46714285D01*
X59904761Y-46666666D01*
X59952380Y-46571428D01*
X59952380Y-46380952D01*
X59904761Y-46285714D01*
X59857142Y-46238095D01*
X59761904Y-46190476D01*
X58952380Y-46190476D01*
X59952380Y-45190476D02*
X59952380Y-45761904D01*
X59952380Y-45476190D02*
X58952380Y-45476190D01*
X59095238Y-45571428D01*
X59190476Y-45666666D01*
X59238095Y-45761904D01*
X28002380Y-57742857D02*
X27526190Y-58076190D01*
X28002380Y-58314285D02*
X27002380Y-58314285D01*
X27002380Y-57933333D01*
X27050000Y-57838095D01*
X27097619Y-57790476D01*
X27192857Y-57742857D01*
X27335714Y-57742857D01*
X27430952Y-57790476D01*
X27478571Y-57838095D01*
X27526190Y-57933333D01*
X27526190Y-58314285D01*
X28002380Y-56790476D02*
X28002380Y-57361904D01*
X28002380Y-57076190D02*
X27002380Y-57076190D01*
X27145238Y-57171428D01*
X27240476Y-57266666D01*
X27288095Y-57361904D01*
X27430952Y-56219047D02*
X27383333Y-56314285D01*
X27335714Y-56361904D01*
X27240476Y-56409523D01*
X27192857Y-56409523D01*
X27097619Y-56361904D01*
X27050000Y-56314285D01*
X27002380Y-56219047D01*
X27002380Y-56028571D01*
X27050000Y-55933333D01*
X27097619Y-55885714D01*
X27192857Y-55838095D01*
X27240476Y-55838095D01*
X27335714Y-55885714D01*
X27383333Y-55933333D01*
X27430952Y-56028571D01*
X27430952Y-56219047D01*
X27478571Y-56314285D01*
X27526190Y-56361904D01*
X27621428Y-56409523D01*
X27811904Y-56409523D01*
X27907142Y-56361904D01*
X27954761Y-56314285D01*
X28002380Y-56219047D01*
X28002380Y-56028571D01*
X27954761Y-55933333D01*
X27907142Y-55885714D01*
X27811904Y-55838095D01*
X27621428Y-55838095D01*
X27526190Y-55885714D01*
X27478571Y-55933333D01*
X27430952Y-56028571D01*
X24002380Y-57742857D02*
X23526190Y-58076190D01*
X24002380Y-58314285D02*
X23002380Y-58314285D01*
X23002380Y-57933333D01*
X23050000Y-57838095D01*
X23097619Y-57790476D01*
X23192857Y-57742857D01*
X23335714Y-57742857D01*
X23430952Y-57790476D01*
X23478571Y-57838095D01*
X23526190Y-57933333D01*
X23526190Y-58314285D01*
X24002380Y-56790476D02*
X24002380Y-57361904D01*
X24002380Y-57076190D02*
X23002380Y-57076190D01*
X23145238Y-57171428D01*
X23240476Y-57266666D01*
X23288095Y-57361904D01*
X23002380Y-56457142D02*
X23002380Y-55790476D01*
X24002380Y-56219047D01*
X20002380Y-57742857D02*
X19526190Y-58076190D01*
X20002380Y-58314285D02*
X19002380Y-58314285D01*
X19002380Y-57933333D01*
X19050000Y-57838095D01*
X19097619Y-57790476D01*
X19192857Y-57742857D01*
X19335714Y-57742857D01*
X19430952Y-57790476D01*
X19478571Y-57838095D01*
X19526190Y-57933333D01*
X19526190Y-58314285D01*
X20002380Y-56790476D02*
X20002380Y-57361904D01*
X20002380Y-57076190D02*
X19002380Y-57076190D01*
X19145238Y-57171428D01*
X19240476Y-57266666D01*
X19288095Y-57361904D01*
X19002380Y-55933333D02*
X19002380Y-56123809D01*
X19050000Y-56219047D01*
X19097619Y-56266666D01*
X19240476Y-56361904D01*
X19430952Y-56409523D01*
X19811904Y-56409523D01*
X19907142Y-56361904D01*
X19954761Y-56314285D01*
X20002380Y-56219047D01*
X20002380Y-56028571D01*
X19954761Y-55933333D01*
X19907142Y-55885714D01*
X19811904Y-55838095D01*
X19573809Y-55838095D01*
X19478571Y-55885714D01*
X19430952Y-55933333D01*
X19383333Y-56028571D01*
X19383333Y-56219047D01*
X19430952Y-56314285D01*
X19478571Y-56361904D01*
X19573809Y-56409523D01*
X28002380Y-62642857D02*
X27526190Y-62976190D01*
X28002380Y-63214285D02*
X27002380Y-63214285D01*
X27002380Y-62833333D01*
X27050000Y-62738095D01*
X27097619Y-62690476D01*
X27192857Y-62642857D01*
X27335714Y-62642857D01*
X27430952Y-62690476D01*
X27478571Y-62738095D01*
X27526190Y-62833333D01*
X27526190Y-63214285D01*
X28002380Y-61690476D02*
X28002380Y-62261904D01*
X28002380Y-61976190D02*
X27002380Y-61976190D01*
X27145238Y-62071428D01*
X27240476Y-62166666D01*
X27288095Y-62261904D01*
X27002380Y-60785714D02*
X27002380Y-61261904D01*
X27478571Y-61309523D01*
X27430952Y-61261904D01*
X27383333Y-61166666D01*
X27383333Y-60928571D01*
X27430952Y-60833333D01*
X27478571Y-60785714D01*
X27573809Y-60738095D01*
X27811904Y-60738095D01*
X27907142Y-60785714D01*
X27954761Y-60833333D01*
X28002380Y-60928571D01*
X28002380Y-61166666D01*
X27954761Y-61261904D01*
X27907142Y-61309523D01*
X24002380Y-62742857D02*
X23526190Y-63076190D01*
X24002380Y-63314285D02*
X23002380Y-63314285D01*
X23002380Y-62933333D01*
X23050000Y-62838095D01*
X23097619Y-62790476D01*
X23192857Y-62742857D01*
X23335714Y-62742857D01*
X23430952Y-62790476D01*
X23478571Y-62838095D01*
X23526190Y-62933333D01*
X23526190Y-63314285D01*
X24002380Y-61790476D02*
X24002380Y-62361904D01*
X24002380Y-62076190D02*
X23002380Y-62076190D01*
X23145238Y-62171428D01*
X23240476Y-62266666D01*
X23288095Y-62361904D01*
X23335714Y-60933333D02*
X24002380Y-60933333D01*
X22954761Y-61171428D02*
X23669047Y-61409523D01*
X23669047Y-60790476D01*
X19647380Y-62742857D02*
X19171190Y-63076190D01*
X19647380Y-63314285D02*
X18647380Y-63314285D01*
X18647380Y-62933333D01*
X18695000Y-62838095D01*
X18742619Y-62790476D01*
X18837857Y-62742857D01*
X18980714Y-62742857D01*
X19075952Y-62790476D01*
X19123571Y-62838095D01*
X19171190Y-62933333D01*
X19171190Y-63314285D01*
X19647380Y-61790476D02*
X19647380Y-62361904D01*
X19647380Y-62076190D02*
X18647380Y-62076190D01*
X18790238Y-62171428D01*
X18885476Y-62266666D01*
X18933095Y-62361904D01*
X18647380Y-61457142D02*
X18647380Y-60838095D01*
X19028333Y-61171428D01*
X19028333Y-61028571D01*
X19075952Y-60933333D01*
X19123571Y-60885714D01*
X19218809Y-60838095D01*
X19456904Y-60838095D01*
X19552142Y-60885714D01*
X19599761Y-60933333D01*
X19647380Y-61028571D01*
X19647380Y-61314285D01*
X19599761Y-61409523D01*
X19552142Y-61457142D01*
X38037380Y-25642857D02*
X37561190Y-25976190D01*
X38037380Y-26214285D02*
X37037380Y-26214285D01*
X37037380Y-25833333D01*
X37085000Y-25738095D01*
X37132619Y-25690476D01*
X37227857Y-25642857D01*
X37370714Y-25642857D01*
X37465952Y-25690476D01*
X37513571Y-25738095D01*
X37561190Y-25833333D01*
X37561190Y-26214285D01*
X38037380Y-24690476D02*
X38037380Y-25261904D01*
X38037380Y-24976190D02*
X37037380Y-24976190D01*
X37180238Y-25071428D01*
X37275476Y-25166666D01*
X37323095Y-25261904D01*
X37132619Y-24309523D02*
X37085000Y-24261904D01*
X37037380Y-24166666D01*
X37037380Y-23928571D01*
X37085000Y-23833333D01*
X37132619Y-23785714D01*
X37227857Y-23738095D01*
X37323095Y-23738095D01*
X37465952Y-23785714D01*
X38037380Y-24357142D01*
X38037380Y-23738095D01*
X34741664Y-25642857D02*
X34265474Y-25976190D01*
X34741664Y-26214285D02*
X33741664Y-26214285D01*
X33741664Y-25833333D01*
X33789284Y-25738095D01*
X33836903Y-25690476D01*
X33932141Y-25642857D01*
X34074998Y-25642857D01*
X34170236Y-25690476D01*
X34217855Y-25738095D01*
X34265474Y-25833333D01*
X34265474Y-26214285D01*
X34741664Y-24690476D02*
X34741664Y-25261904D01*
X34741664Y-24976190D02*
X33741664Y-24976190D01*
X33884522Y-25071428D01*
X33979760Y-25166666D01*
X34027379Y-25261904D01*
X34741664Y-23738095D02*
X34741664Y-24309523D01*
X34741664Y-24023809D02*
X33741664Y-24023809D01*
X33884522Y-24119047D01*
X33979760Y-24214285D01*
X34027379Y-24309523D01*
X31445950Y-25642857D02*
X30969760Y-25976190D01*
X31445950Y-26214285D02*
X30445950Y-26214285D01*
X30445950Y-25833333D01*
X30493570Y-25738095D01*
X30541189Y-25690476D01*
X30636427Y-25642857D01*
X30779284Y-25642857D01*
X30874522Y-25690476D01*
X30922141Y-25738095D01*
X30969760Y-25833333D01*
X30969760Y-26214285D01*
X31445950Y-24690476D02*
X31445950Y-25261904D01*
X31445950Y-24976190D02*
X30445950Y-24976190D01*
X30588808Y-25071428D01*
X30684046Y-25166666D01*
X30731665Y-25261904D01*
X30445950Y-24071428D02*
X30445950Y-23976190D01*
X30493570Y-23880952D01*
X30541189Y-23833333D01*
X30636427Y-23785714D01*
X30826903Y-23738095D01*
X31064998Y-23738095D01*
X31255474Y-23785714D01*
X31350712Y-23833333D01*
X31398331Y-23880952D01*
X31445950Y-23976190D01*
X31445950Y-24071428D01*
X31398331Y-24166666D01*
X31350712Y-24214285D01*
X31255474Y-24261904D01*
X31064998Y-24309523D01*
X30826903Y-24309523D01*
X30636427Y-24261904D01*
X30541189Y-24214285D01*
X30493570Y-24166666D01*
X30445950Y-24071428D01*
X28150236Y-25166666D02*
X27674046Y-25500000D01*
X28150236Y-25738095D02*
X27150236Y-25738095D01*
X27150236Y-25357142D01*
X27197856Y-25261904D01*
X27245475Y-25214285D01*
X27340713Y-25166666D01*
X27483570Y-25166666D01*
X27578808Y-25214285D01*
X27626427Y-25261904D01*
X27674046Y-25357142D01*
X27674046Y-25738095D01*
X28150236Y-24690476D02*
X28150236Y-24500000D01*
X28102617Y-24404761D01*
X28054998Y-24357142D01*
X27912141Y-24261904D01*
X27721665Y-24214285D01*
X27340713Y-24214285D01*
X27245475Y-24261904D01*
X27197856Y-24309523D01*
X27150236Y-24404761D01*
X27150236Y-24595238D01*
X27197856Y-24690476D01*
X27245475Y-24738095D01*
X27340713Y-24785714D01*
X27578808Y-24785714D01*
X27674046Y-24738095D01*
X27721665Y-24690476D01*
X27769284Y-24595238D01*
X27769284Y-24404761D01*
X27721665Y-24309523D01*
X27674046Y-24261904D01*
X27578808Y-24214285D01*
X24854522Y-25166666D02*
X24378332Y-25500000D01*
X24854522Y-25738095D02*
X23854522Y-25738095D01*
X23854522Y-25357142D01*
X23902142Y-25261904D01*
X23949761Y-25214285D01*
X24044999Y-25166666D01*
X24187856Y-25166666D01*
X24283094Y-25214285D01*
X24330713Y-25261904D01*
X24378332Y-25357142D01*
X24378332Y-25738095D01*
X24283094Y-24595238D02*
X24235475Y-24690476D01*
X24187856Y-24738095D01*
X24092618Y-24785714D01*
X24044999Y-24785714D01*
X23949761Y-24738095D01*
X23902142Y-24690476D01*
X23854522Y-24595238D01*
X23854522Y-24404761D01*
X23902142Y-24309523D01*
X23949761Y-24261904D01*
X24044999Y-24214285D01*
X24092618Y-24214285D01*
X24187856Y-24261904D01*
X24235475Y-24309523D01*
X24283094Y-24404761D01*
X24283094Y-24595238D01*
X24330713Y-24690476D01*
X24378332Y-24738095D01*
X24473570Y-24785714D01*
X24664046Y-24785714D01*
X24759284Y-24738095D01*
X24806903Y-24690476D01*
X24854522Y-24595238D01*
X24854522Y-24404761D01*
X24806903Y-24309523D01*
X24759284Y-24261904D01*
X24664046Y-24214285D01*
X24473570Y-24214285D01*
X24378332Y-24261904D01*
X24330713Y-24309523D01*
X24283094Y-24404761D01*
X21558808Y-25166666D02*
X21082618Y-25500000D01*
X21558808Y-25738095D02*
X20558808Y-25738095D01*
X20558808Y-25357142D01*
X20606428Y-25261904D01*
X20654047Y-25214285D01*
X20749285Y-25166666D01*
X20892142Y-25166666D01*
X20987380Y-25214285D01*
X21034999Y-25261904D01*
X21082618Y-25357142D01*
X21082618Y-25738095D01*
X20558808Y-24833333D02*
X20558808Y-24166666D01*
X21558808Y-24595238D01*
X18263094Y-25166666D02*
X17786904Y-25500000D01*
X18263094Y-25738095D02*
X17263094Y-25738095D01*
X17263094Y-25357142D01*
X17310714Y-25261904D01*
X17358333Y-25214285D01*
X17453571Y-25166666D01*
X17596428Y-25166666D01*
X17691666Y-25214285D01*
X17739285Y-25261904D01*
X17786904Y-25357142D01*
X17786904Y-25738095D01*
X17263094Y-24309523D02*
X17263094Y-24500000D01*
X17310714Y-24595238D01*
X17358333Y-24642857D01*
X17501190Y-24738095D01*
X17691666Y-24785714D01*
X18072618Y-24785714D01*
X18167856Y-24738095D01*
X18215475Y-24690476D01*
X18263094Y-24595238D01*
X18263094Y-24404761D01*
X18215475Y-24309523D01*
X18167856Y-24261904D01*
X18072618Y-24214285D01*
X17834523Y-24214285D01*
X17739285Y-24261904D01*
X17691666Y-24309523D01*
X17644047Y-24404761D01*
X17644047Y-24595238D01*
X17691666Y-24690476D01*
X17739285Y-24738095D01*
X17834523Y-24785714D01*
X14967380Y-25166666D02*
X14491190Y-25500000D01*
X14967380Y-25738095D02*
X13967380Y-25738095D01*
X13967380Y-25357142D01*
X14015000Y-25261904D01*
X14062619Y-25214285D01*
X14157857Y-25166666D01*
X14300714Y-25166666D01*
X14395952Y-25214285D01*
X14443571Y-25261904D01*
X14491190Y-25357142D01*
X14491190Y-25738095D01*
X13967380Y-24261904D02*
X13967380Y-24738095D01*
X14443571Y-24785714D01*
X14395952Y-24738095D01*
X14348333Y-24642857D01*
X14348333Y-24404761D01*
X14395952Y-24309523D01*
X14443571Y-24261904D01*
X14538809Y-24214285D01*
X14776904Y-24214285D01*
X14872142Y-24261904D01*
X14919761Y-24309523D01*
X14967380Y-24404761D01*
X14967380Y-24642857D01*
X14919761Y-24738095D01*
X14872142Y-24785714D01*
X47952380Y-60666666D02*
X47476190Y-61000000D01*
X47952380Y-61238095D02*
X46952380Y-61238095D01*
X46952380Y-60857142D01*
X47000000Y-60761904D01*
X47047619Y-60714285D01*
X47142857Y-60666666D01*
X47285714Y-60666666D01*
X47380952Y-60714285D01*
X47428571Y-60761904D01*
X47476190Y-60857142D01*
X47476190Y-61238095D01*
X47285714Y-59809523D02*
X47952380Y-59809523D01*
X46904761Y-60047619D02*
X47619047Y-60285714D01*
X47619047Y-59666666D01*
X46191900Y-60763326D02*
X45715710Y-61096660D01*
X46191900Y-61334755D02*
X45191900Y-61334755D01*
X45191900Y-60953802D01*
X45239520Y-60858564D01*
X45287139Y-60810945D01*
X45382377Y-60763326D01*
X45525234Y-60763326D01*
X45620472Y-60810945D01*
X45668091Y-60858564D01*
X45715710Y-60953802D01*
X45715710Y-61334755D01*
X45191900Y-60429993D02*
X45191900Y-59810945D01*
X45572853Y-60144279D01*
X45572853Y-60001421D01*
X45620472Y-59906183D01*
X45668091Y-59858564D01*
X45763329Y-59810945D01*
X46001424Y-59810945D01*
X46096662Y-59858564D01*
X46144281Y-59906183D01*
X46191900Y-60001421D01*
X46191900Y-60287136D01*
X46144281Y-60382374D01*
X46096662Y-60429993D01*
X57157880Y-49158186D02*
X56681690Y-49491520D01*
X57157880Y-49729615D02*
X56157880Y-49729615D01*
X56157880Y-49348662D01*
X56205500Y-49253424D01*
X56253119Y-49205805D01*
X56348357Y-49158186D01*
X56491214Y-49158186D01*
X56586452Y-49205805D01*
X56634071Y-49253424D01*
X56681690Y-49348662D01*
X56681690Y-49729615D01*
X56253119Y-48777234D02*
X56205500Y-48729615D01*
X56157880Y-48634377D01*
X56157880Y-48396281D01*
X56205500Y-48301043D01*
X56253119Y-48253424D01*
X56348357Y-48205805D01*
X56443595Y-48205805D01*
X56586452Y-48253424D01*
X57157880Y-48824853D01*
X57157880Y-48205805D01*
X53701653Y-29855760D02*
X53368320Y-29379570D01*
X53130224Y-29855760D02*
X53130224Y-28855760D01*
X53511177Y-28855760D01*
X53606415Y-28903380D01*
X53654034Y-28950999D01*
X53701653Y-29046237D01*
X53701653Y-29189094D01*
X53654034Y-29284332D01*
X53606415Y-29331951D01*
X53511177Y-29379570D01*
X53130224Y-29379570D01*
X54654034Y-29855760D02*
X54082605Y-29855760D01*
X54368320Y-29855760D02*
X54368320Y-28855760D01*
X54273081Y-28998618D01*
X54177843Y-29093856D01*
X54082605Y-29141475D01*
X41047619Y-19095238D02*
X41000000Y-19190476D01*
X40904761Y-19285714D01*
X40761904Y-19428571D01*
X40714285Y-19523809D01*
X40714285Y-19619047D01*
X40952380Y-19571428D02*
X40904761Y-19666666D01*
X40809523Y-19761904D01*
X40619047Y-19809523D01*
X40285714Y-19809523D01*
X40095238Y-19761904D01*
X40000000Y-19666666D01*
X39952380Y-19571428D01*
X39952380Y-19380952D01*
X40000000Y-19285714D01*
X40095238Y-19190476D01*
X40285714Y-19142857D01*
X40619047Y-19142857D01*
X40809523Y-19190476D01*
X40904761Y-19285714D01*
X40952380Y-19380952D01*
X40952380Y-19571428D01*
X40285714Y-18285714D02*
X40952380Y-18285714D01*
X39904761Y-18523809D02*
X40619047Y-18761904D01*
X40619047Y-18142857D01*
X34047619Y-19095238D02*
X34000000Y-19190476D01*
X33904761Y-19285714D01*
X33761904Y-19428571D01*
X33714285Y-19523809D01*
X33714285Y-19619047D01*
X33952380Y-19571428D02*
X33904761Y-19666666D01*
X33809523Y-19761904D01*
X33619047Y-19809523D01*
X33285714Y-19809523D01*
X33095238Y-19761904D01*
X33000000Y-19666666D01*
X32952380Y-19571428D01*
X32952380Y-19380952D01*
X33000000Y-19285714D01*
X33095238Y-19190476D01*
X33285714Y-19142857D01*
X33619047Y-19142857D01*
X33809523Y-19190476D01*
X33904761Y-19285714D01*
X33952380Y-19380952D01*
X33952380Y-19571428D01*
X32952380Y-18809523D02*
X32952380Y-18190476D01*
X33333333Y-18523809D01*
X33333333Y-18380952D01*
X33380952Y-18285714D01*
X33428571Y-18238095D01*
X33523809Y-18190476D01*
X33761904Y-18190476D01*
X33857142Y-18238095D01*
X33904761Y-18285714D01*
X33952380Y-18380952D01*
X33952380Y-18666666D01*
X33904761Y-18761904D01*
X33857142Y-18809523D01*
X27047619Y-19095238D02*
X27000000Y-19190476D01*
X26904761Y-19285714D01*
X26761904Y-19428571D01*
X26714285Y-19523809D01*
X26714285Y-19619047D01*
X26952380Y-19571428D02*
X26904761Y-19666666D01*
X26809523Y-19761904D01*
X26619047Y-19809523D01*
X26285714Y-19809523D01*
X26095238Y-19761904D01*
X26000000Y-19666666D01*
X25952380Y-19571428D01*
X25952380Y-19380952D01*
X26000000Y-19285714D01*
X26095238Y-19190476D01*
X26285714Y-19142857D01*
X26619047Y-19142857D01*
X26809523Y-19190476D01*
X26904761Y-19285714D01*
X26952380Y-19380952D01*
X26952380Y-19571428D01*
X26047619Y-18761904D02*
X26000000Y-18714285D01*
X25952380Y-18619047D01*
X25952380Y-18380952D01*
X26000000Y-18285714D01*
X26047619Y-18238095D01*
X26142857Y-18190476D01*
X26238095Y-18190476D01*
X26380952Y-18238095D01*
X26952380Y-18809523D01*
X26952380Y-18190476D01*
X20047619Y-19095238D02*
X20000000Y-19190476D01*
X19904761Y-19285714D01*
X19761904Y-19428571D01*
X19714285Y-19523809D01*
X19714285Y-19619047D01*
X19952380Y-19571428D02*
X19904761Y-19666666D01*
X19809523Y-19761904D01*
X19619047Y-19809523D01*
X19285714Y-19809523D01*
X19095238Y-19761904D01*
X19000000Y-19666666D01*
X18952380Y-19571428D01*
X18952380Y-19380952D01*
X19000000Y-19285714D01*
X19095238Y-19190476D01*
X19285714Y-19142857D01*
X19619047Y-19142857D01*
X19809523Y-19190476D01*
X19904761Y-19285714D01*
X19952380Y-19380952D01*
X19952380Y-19571428D01*
X19952380Y-18190476D02*
X19952380Y-18761904D01*
X19952380Y-18476190D02*
X18952380Y-18476190D01*
X19095238Y-18571428D01*
X19190476Y-18666666D01*
X19238095Y-18761904D01*
X84782380Y-74603333D02*
X85496666Y-74603333D01*
X85639523Y-74650952D01*
X85734761Y-74746190D01*
X85782380Y-74889047D01*
X85782380Y-74984285D01*
X85115714Y-73698571D02*
X85782380Y-73698571D01*
X84734761Y-73936666D02*
X85449047Y-74174761D01*
X85449047Y-73555714D01*
X16107142Y-57592857D02*
X16154761Y-57640476D01*
X16202380Y-57783333D01*
X16202380Y-57878571D01*
X16154761Y-58021428D01*
X16059523Y-58116666D01*
X15964285Y-58164285D01*
X15773809Y-58211904D01*
X15630952Y-58211904D01*
X15440476Y-58164285D01*
X15345238Y-58116666D01*
X15250000Y-58021428D01*
X15202380Y-57878571D01*
X15202380Y-57783333D01*
X15250000Y-57640476D01*
X15297619Y-57592857D01*
X16202380Y-56640476D02*
X16202380Y-57211904D01*
X16202380Y-56926190D02*
X15202380Y-56926190D01*
X15345238Y-57021428D01*
X15440476Y-57116666D01*
X15488095Y-57211904D01*
X15202380Y-55783333D02*
X15202380Y-55973809D01*
X15250000Y-56069047D01*
X15297619Y-56116666D01*
X15440476Y-56211904D01*
X15630952Y-56259523D01*
X16011904Y-56259523D01*
X16107142Y-56211904D01*
X16154761Y-56164285D01*
X16202380Y-56069047D01*
X16202380Y-55878571D01*
X16154761Y-55783333D01*
X16107142Y-55735714D01*
X16011904Y-55688095D01*
X15773809Y-55688095D01*
X15678571Y-55735714D01*
X15630952Y-55783333D01*
X15583333Y-55878571D01*
X15583333Y-56069047D01*
X15630952Y-56164285D01*
X15678571Y-56211904D01*
X15773809Y-56259523D01*
X16107142Y-62592857D02*
X16154761Y-62640476D01*
X16202380Y-62783333D01*
X16202380Y-62878571D01*
X16154761Y-63021428D01*
X16059523Y-63116666D01*
X15964285Y-63164285D01*
X15773809Y-63211904D01*
X15630952Y-63211904D01*
X15440476Y-63164285D01*
X15345238Y-63116666D01*
X15250000Y-63021428D01*
X15202380Y-62878571D01*
X15202380Y-62783333D01*
X15250000Y-62640476D01*
X15297619Y-62592857D01*
X16202380Y-61640476D02*
X16202380Y-62211904D01*
X16202380Y-61926190D02*
X15202380Y-61926190D01*
X15345238Y-62021428D01*
X15440476Y-62116666D01*
X15488095Y-62211904D01*
X15202380Y-60735714D02*
X15202380Y-61211904D01*
X15678571Y-61259523D01*
X15630952Y-61211904D01*
X15583333Y-61116666D01*
X15583333Y-60878571D01*
X15630952Y-60783333D01*
X15678571Y-60735714D01*
X15773809Y-60688095D01*
X16011904Y-60688095D01*
X16107142Y-60735714D01*
X16154761Y-60783333D01*
X16202380Y-60878571D01*
X16202380Y-61116666D01*
X16154761Y-61211904D01*
X16107142Y-61259523D01*
X37957142Y-49792857D02*
X38004761Y-49840476D01*
X38052380Y-49983333D01*
X38052380Y-50078571D01*
X38004761Y-50221428D01*
X37909523Y-50316666D01*
X37814285Y-50364285D01*
X37623809Y-50411904D01*
X37480952Y-50411904D01*
X37290476Y-50364285D01*
X37195238Y-50316666D01*
X37100000Y-50221428D01*
X37052380Y-50078571D01*
X37052380Y-49983333D01*
X37100000Y-49840476D01*
X37147619Y-49792857D01*
X38052380Y-48840476D02*
X38052380Y-49411904D01*
X38052380Y-49126190D02*
X37052380Y-49126190D01*
X37195238Y-49221428D01*
X37290476Y-49316666D01*
X37338095Y-49411904D01*
X37385714Y-47983333D02*
X38052380Y-47983333D01*
X37004761Y-48221428D02*
X37719047Y-48459523D01*
X37719047Y-47840476D01*
X40857142Y-25642857D02*
X40904761Y-25690476D01*
X40952380Y-25833333D01*
X40952380Y-25928571D01*
X40904761Y-26071428D01*
X40809523Y-26166666D01*
X40714285Y-26214285D01*
X40523809Y-26261904D01*
X40380952Y-26261904D01*
X40190476Y-26214285D01*
X40095238Y-26166666D01*
X40000000Y-26071428D01*
X39952380Y-25928571D01*
X39952380Y-25833333D01*
X40000000Y-25690476D01*
X40047619Y-25642857D01*
X40952380Y-24690476D02*
X40952380Y-25261904D01*
X40952380Y-24976190D02*
X39952380Y-24976190D01*
X40095238Y-25071428D01*
X40190476Y-25166666D01*
X40238095Y-25261904D01*
X39952380Y-24357142D02*
X39952380Y-23738095D01*
X40333333Y-24071428D01*
X40333333Y-23928571D01*
X40380952Y-23833333D01*
X40428571Y-23785714D01*
X40523809Y-23738095D01*
X40761904Y-23738095D01*
X40857142Y-23785714D01*
X40904761Y-23833333D01*
X40952380Y-23928571D01*
X40952380Y-24214285D01*
X40904761Y-24309523D01*
X40857142Y-24357142D01*
X89787142Y-46642857D02*
X89834761Y-46690476D01*
X89882380Y-46833333D01*
X89882380Y-46928571D01*
X89834761Y-47071428D01*
X89739523Y-47166666D01*
X89644285Y-47214285D01*
X89453809Y-47261904D01*
X89310952Y-47261904D01*
X89120476Y-47214285D01*
X89025238Y-47166666D01*
X88930000Y-47071428D01*
X88882380Y-46928571D01*
X88882380Y-46833333D01*
X88930000Y-46690476D01*
X88977619Y-46642857D01*
X89882380Y-45690476D02*
X89882380Y-46261904D01*
X89882380Y-45976190D02*
X88882380Y-45976190D01*
X89025238Y-46071428D01*
X89120476Y-46166666D01*
X89168095Y-46261904D01*
X88977619Y-45309523D02*
X88930000Y-45261904D01*
X88882380Y-45166666D01*
X88882380Y-44928571D01*
X88930000Y-44833333D01*
X88977619Y-44785714D01*
X89072857Y-44738095D01*
X89168095Y-44738095D01*
X89310952Y-44785714D01*
X89882380Y-45357142D01*
X89882380Y-44738095D01*
X87981428Y-50660952D02*
X87981428Y-49899047D01*
X88362380Y-50280000D02*
X87600476Y-50280000D01*
X15107142Y-35116666D02*
X15154761Y-35164285D01*
X15202380Y-35307142D01*
X15202380Y-35402380D01*
X15154761Y-35545238D01*
X15059523Y-35640476D01*
X14964285Y-35688095D01*
X14773809Y-35735714D01*
X14630952Y-35735714D01*
X14440476Y-35688095D01*
X14345238Y-35640476D01*
X14250000Y-35545238D01*
X14202380Y-35402380D01*
X14202380Y-35307142D01*
X14250000Y-35164285D01*
X14297619Y-35116666D01*
X15202380Y-34640476D02*
X15202380Y-34450000D01*
X15154761Y-34354761D01*
X15107142Y-34307142D01*
X14964285Y-34211904D01*
X14773809Y-34164285D01*
X14392857Y-34164285D01*
X14297619Y-34211904D01*
X14250000Y-34259523D01*
X14202380Y-34354761D01*
X14202380Y-34545238D01*
X14250000Y-34640476D01*
X14297619Y-34688095D01*
X14392857Y-34735714D01*
X14630952Y-34735714D01*
X14726190Y-34688095D01*
X14773809Y-34640476D01*
X14821428Y-34545238D01*
X14821428Y-34354761D01*
X14773809Y-34259523D01*
X14726190Y-34211904D01*
X14630952Y-34164285D01*
X48098662Y-35764766D02*
X48146281Y-35812385D01*
X48193900Y-35955242D01*
X48193900Y-36050480D01*
X48146281Y-36193338D01*
X48051043Y-36288576D01*
X47955805Y-36336195D01*
X47765329Y-36383814D01*
X47622472Y-36383814D01*
X47431996Y-36336195D01*
X47336758Y-36288576D01*
X47241520Y-36193338D01*
X47193900Y-36050480D01*
X47193900Y-35955242D01*
X47241520Y-35812385D01*
X47289139Y-35764766D01*
X47622472Y-35193338D02*
X47574853Y-35288576D01*
X47527234Y-35336195D01*
X47431996Y-35383814D01*
X47384377Y-35383814D01*
X47289139Y-35336195D01*
X47241520Y-35288576D01*
X47193900Y-35193338D01*
X47193900Y-35002861D01*
X47241520Y-34907623D01*
X47289139Y-34860004D01*
X47384377Y-34812385D01*
X47431996Y-34812385D01*
X47527234Y-34860004D01*
X47574853Y-34907623D01*
X47622472Y-35002861D01*
X47622472Y-35193338D01*
X47670091Y-35288576D01*
X47717710Y-35336195D01*
X47812948Y-35383814D01*
X48003424Y-35383814D01*
X48098662Y-35336195D01*
X48146281Y-35288576D01*
X48193900Y-35193338D01*
X48193900Y-35002861D01*
X48146281Y-34907623D01*
X48098662Y-34860004D01*
X48003424Y-34812385D01*
X47812948Y-34812385D01*
X47717710Y-34860004D01*
X47670091Y-34907623D01*
X47622472Y-35002861D01*
X58070702Y-35968006D02*
X58118321Y-36015625D01*
X58165940Y-36158482D01*
X58165940Y-36253720D01*
X58118321Y-36396578D01*
X58023083Y-36491816D01*
X57927845Y-36539435D01*
X57737369Y-36587054D01*
X57594512Y-36587054D01*
X57404036Y-36539435D01*
X57308798Y-36491816D01*
X57213560Y-36396578D01*
X57165940Y-36253720D01*
X57165940Y-36158482D01*
X57213560Y-36015625D01*
X57261179Y-35968006D01*
X57165940Y-35634673D02*
X57165940Y-34968006D01*
X58165940Y-35396578D01*
X40057142Y-49066666D02*
X40104761Y-49114285D01*
X40152380Y-49257142D01*
X40152380Y-49352380D01*
X40104761Y-49495238D01*
X40009523Y-49590476D01*
X39914285Y-49638095D01*
X39723809Y-49685714D01*
X39580952Y-49685714D01*
X39390476Y-49638095D01*
X39295238Y-49590476D01*
X39200000Y-49495238D01*
X39152380Y-49352380D01*
X39152380Y-49257142D01*
X39200000Y-49114285D01*
X39247619Y-49066666D01*
X39152380Y-48209523D02*
X39152380Y-48400000D01*
X39200000Y-48495238D01*
X39247619Y-48542857D01*
X39390476Y-48638095D01*
X39580952Y-48685714D01*
X39961904Y-48685714D01*
X40057142Y-48638095D01*
X40104761Y-48590476D01*
X40152380Y-48495238D01*
X40152380Y-48304761D01*
X40104761Y-48209523D01*
X40057142Y-48161904D01*
X39961904Y-48114285D01*
X39723809Y-48114285D01*
X39628571Y-48161904D01*
X39580952Y-48209523D01*
X39533333Y-48304761D01*
X39533333Y-48495238D01*
X39580952Y-48590476D01*
X39628571Y-48638095D01*
X39723809Y-48685714D01*
X36007142Y-48966666D02*
X36054761Y-49014285D01*
X36102380Y-49157142D01*
X36102380Y-49252380D01*
X36054761Y-49395238D01*
X35959523Y-49490476D01*
X35864285Y-49538095D01*
X35673809Y-49585714D01*
X35530952Y-49585714D01*
X35340476Y-49538095D01*
X35245238Y-49490476D01*
X35150000Y-49395238D01*
X35102380Y-49252380D01*
X35102380Y-49157142D01*
X35150000Y-49014285D01*
X35197619Y-48966666D01*
X35102380Y-48061904D02*
X35102380Y-48538095D01*
X35578571Y-48585714D01*
X35530952Y-48538095D01*
X35483333Y-48442857D01*
X35483333Y-48204761D01*
X35530952Y-48109523D01*
X35578571Y-48061904D01*
X35673809Y-48014285D01*
X35911904Y-48014285D01*
X36007142Y-48061904D01*
X36054761Y-48109523D01*
X36102380Y-48204761D01*
X36102380Y-48442857D01*
X36054761Y-48538095D01*
X36007142Y-48585714D01*
X54497382Y-49116666D02*
X54545001Y-49164285D01*
X54592620Y-49307142D01*
X54592620Y-49402380D01*
X54545001Y-49545238D01*
X54449763Y-49640476D01*
X54354525Y-49688095D01*
X54164049Y-49735714D01*
X54021192Y-49735714D01*
X53830716Y-49688095D01*
X53735478Y-49640476D01*
X53640240Y-49545238D01*
X53592620Y-49402380D01*
X53592620Y-49307142D01*
X53640240Y-49164285D01*
X53687859Y-49116666D01*
X53925954Y-48259523D02*
X54592620Y-48259523D01*
X53545001Y-48497619D02*
X54259287Y-48735714D01*
X54259287Y-48116666D01*
X37997142Y-59716666D02*
X38044761Y-59764285D01*
X38092380Y-59907142D01*
X38092380Y-60002380D01*
X38044761Y-60145238D01*
X37949523Y-60240476D01*
X37854285Y-60288095D01*
X37663809Y-60335714D01*
X37520952Y-60335714D01*
X37330476Y-60288095D01*
X37235238Y-60240476D01*
X37140000Y-60145238D01*
X37092380Y-60002380D01*
X37092380Y-59907142D01*
X37140000Y-59764285D01*
X37187619Y-59716666D01*
X37092380Y-59383333D02*
X37092380Y-58764285D01*
X37473333Y-59097619D01*
X37473333Y-58954761D01*
X37520952Y-58859523D01*
X37568571Y-58811904D01*
X37663809Y-58764285D01*
X37901904Y-58764285D01*
X37997142Y-58811904D01*
X38044761Y-58859523D01*
X38092380Y-58954761D01*
X38092380Y-59240476D01*
X38044761Y-59335714D01*
X37997142Y-59383333D01*
X36181428Y-62700952D02*
X36181428Y-61939047D01*
X36562380Y-62320000D02*
X35800476Y-62320000D01*
X79787142Y-46166666D02*
X79834761Y-46214285D01*
X79882380Y-46357142D01*
X79882380Y-46452380D01*
X79834761Y-46595238D01*
X79739523Y-46690476D01*
X79644285Y-46738095D01*
X79453809Y-46785714D01*
X79310952Y-46785714D01*
X79120476Y-46738095D01*
X79025238Y-46690476D01*
X78930000Y-46595238D01*
X78882380Y-46452380D01*
X78882380Y-46357142D01*
X78930000Y-46214285D01*
X78977619Y-46166666D01*
X78977619Y-45785714D02*
X78930000Y-45738095D01*
X78882380Y-45642857D01*
X78882380Y-45404761D01*
X78930000Y-45309523D01*
X78977619Y-45261904D01*
X79072857Y-45214285D01*
X79168095Y-45214285D01*
X79310952Y-45261904D01*
X79882380Y-45833333D01*
X79882380Y-45214285D01*
X77981428Y-50660952D02*
X77981428Y-49899047D01*
X78362380Y-50280000D02*
X77600476Y-50280000D01*
X24257142Y-49066666D02*
X24304761Y-49114285D01*
X24352380Y-49257142D01*
X24352380Y-49352380D01*
X24304761Y-49495238D01*
X24209523Y-49590476D01*
X24114285Y-49638095D01*
X23923809Y-49685714D01*
X23780952Y-49685714D01*
X23590476Y-49638095D01*
X23495238Y-49590476D01*
X23400000Y-49495238D01*
X23352380Y-49352380D01*
X23352380Y-49257142D01*
X23400000Y-49114285D01*
X23447619Y-49066666D01*
X24352380Y-48114285D02*
X24352380Y-48685714D01*
X24352380Y-48400000D02*
X23352380Y-48400000D01*
X23495238Y-48495238D01*
X23590476Y-48590476D01*
X23638095Y-48685714D01*
M02*
