G04 #@! TF.GenerationSoftware,KiCad,Pcbnew,(5.1.2)-1*
G04 #@! TF.CreationDate,2020-08-21T14:49:15-07:00*
G04 #@! TF.ProjectId,kicad-cpu-board-smt,6b696361-642d-4637-9075-2d626f617264,rev?*
G04 #@! TF.SameCoordinates,Original*
G04 #@! TF.FileFunction,Paste,Top*
G04 #@! TF.FilePolarity,Positive*
%FSLAX46Y46*%
G04 Gerber Fmt 4.6, Leading zero omitted, Abs format (unit mm)*
G04 Created by KiCad (PCBNEW (5.1.2)-1) date 2020-08-21 14:49:15*
%MOMM*%
%LPD*%
G04 APERTURE LIST*
%ADD10C,1.676868*%
%ADD11C,0.100000*%
%ADD12R,1.600000X0.550000*%
%ADD13R,0.550000X1.600000*%
%ADD14R,0.600000X1.550000*%
%ADD15R,2.500000X4.000000*%
%ADD16R,2.100000X1.800000*%
%ADD17R,2.500000X2.000000*%
%ADD18R,1.600000X3.500000*%
%ADD19R,3.800000X2.000000*%
%ADD20R,1.500000X2.000000*%
%ADD21R,0.900000X1.200000*%
%ADD22R,1.200000X0.900000*%
%ADD23R,0.800000X1.900000*%
%ADD24R,0.750000X1.200000*%
%ADD25R,1.600000X2.600000*%
G04 APERTURE END LIST*
D10*
X42445940Y-56127060D03*
D11*
G36*
X41295940Y-54327060D02*
G01*
X43595940Y-54327060D01*
X42995940Y-57927060D01*
X41895940Y-57927060D01*
X41295940Y-54327060D01*
X41295940Y-54327060D01*
G37*
D10*
X42445940Y-61927060D03*
D11*
G36*
X43595940Y-63727060D02*
G01*
X41295940Y-63727060D01*
X41895940Y-60127060D01*
X42995940Y-60127060D01*
X43595940Y-63727060D01*
X43595940Y-63727060D01*
G37*
D10*
X80000000Y-63900000D03*
D11*
G36*
X81150000Y-65700000D02*
G01*
X78850000Y-65700000D01*
X79450000Y-62100000D01*
X80550000Y-62100000D01*
X81150000Y-65700000D01*
X81150000Y-65700000D01*
G37*
D10*
X80000000Y-58100000D03*
D11*
G36*
X78850000Y-56300000D02*
G01*
X81150000Y-56300000D01*
X80550000Y-59900000D01*
X79450000Y-59900000D01*
X78850000Y-56300000D01*
X78850000Y-56300000D01*
G37*
D10*
X85600540Y-58087940D03*
D11*
G36*
X84450540Y-56287940D02*
G01*
X86750540Y-56287940D01*
X86150540Y-59887940D01*
X85050540Y-59887940D01*
X84450540Y-56287940D01*
X84450540Y-56287940D01*
G37*
D10*
X85600540Y-63887940D03*
D11*
G36*
X86750540Y-65687940D02*
G01*
X84450540Y-65687940D01*
X85050540Y-62087940D01*
X86150540Y-62087940D01*
X86750540Y-65687940D01*
X86750540Y-65687940D01*
G37*
D10*
X50678080Y-56038160D03*
D11*
G36*
X49528080Y-54238160D02*
G01*
X51828080Y-54238160D01*
X51228080Y-57838160D01*
X50128080Y-57838160D01*
X49528080Y-54238160D01*
X49528080Y-54238160D01*
G37*
D10*
X50678080Y-61838160D03*
D11*
G36*
X51828080Y-63638160D02*
G01*
X49528080Y-63638160D01*
X50128080Y-60038160D01*
X51228080Y-60038160D01*
X51828080Y-63638160D01*
X51828080Y-63638160D01*
G37*
D12*
X50600000Y-48800000D03*
X50600000Y-48000000D03*
X50600000Y-47200000D03*
X50600000Y-46400000D03*
X50600000Y-45600000D03*
X50600000Y-44800000D03*
X50600000Y-44000000D03*
X50600000Y-43200000D03*
D13*
X49150000Y-41750000D03*
X48350000Y-41750000D03*
X47550000Y-41750000D03*
X46750000Y-41750000D03*
X45950000Y-41750000D03*
X45150000Y-41750000D03*
X44350000Y-41750000D03*
X43550000Y-41750000D03*
D12*
X42100000Y-43200000D03*
X42100000Y-44000000D03*
X42100000Y-44800000D03*
X42100000Y-45600000D03*
X42100000Y-46400000D03*
X42100000Y-47200000D03*
X42100000Y-48000000D03*
X42100000Y-48800000D03*
D13*
X43550000Y-50250000D03*
X44350000Y-50250000D03*
X45150000Y-50250000D03*
X45950000Y-50250000D03*
X46750000Y-50250000D03*
X47550000Y-50250000D03*
X48350000Y-50250000D03*
X49150000Y-50250000D03*
D14*
X16095000Y-48700000D03*
X17365000Y-48700000D03*
X18635000Y-48700000D03*
X19905000Y-48700000D03*
X19905000Y-43300000D03*
X18635000Y-43300000D03*
X17365000Y-43300000D03*
X16095000Y-43300000D03*
D15*
X83000000Y-38000000D03*
X83000000Y-30000000D03*
D16*
X55272600Y-34491280D03*
X52372600Y-34491280D03*
X52372600Y-36791280D03*
X55272600Y-36791280D03*
D17*
X64800000Y-58400000D03*
X64800000Y-62400000D03*
X71600000Y-58400000D03*
X71600000Y-62400000D03*
X58000000Y-62400000D03*
X58000000Y-58400000D03*
D18*
X35000000Y-37700000D03*
X35000000Y-32300000D03*
D14*
X29095000Y-48700000D03*
X30365000Y-48700000D03*
X31635000Y-48700000D03*
X32905000Y-48700000D03*
X32905000Y-43300000D03*
X31635000Y-43300000D03*
X30365000Y-43300000D03*
X29095000Y-43300000D03*
X44095000Y-22700000D03*
X45365000Y-22700000D03*
X46635000Y-22700000D03*
X47905000Y-22700000D03*
X47905000Y-17300000D03*
X46635000Y-17300000D03*
X45365000Y-17300000D03*
X44095000Y-17300000D03*
D19*
X23000000Y-31850000D03*
D20*
X23000000Y-38150000D03*
X25300000Y-38150000D03*
X20700000Y-38150000D03*
D19*
X64000000Y-42850000D03*
D20*
X64000000Y-49150000D03*
X66300000Y-49150000D03*
X61700000Y-49150000D03*
D21*
X29000000Y-58200000D03*
X29000000Y-56000000D03*
X25000000Y-58200000D03*
X25000000Y-56000000D03*
X21000000Y-58200000D03*
X21000000Y-56000000D03*
X29000000Y-63100000D03*
X29000000Y-60900000D03*
X25000000Y-63200000D03*
X25000000Y-61000000D03*
X21000000Y-63200000D03*
X21000000Y-61000000D03*
X39035000Y-26100000D03*
X39035000Y-23900000D03*
X35739284Y-26100000D03*
X35739284Y-23900000D03*
X32443570Y-26100000D03*
X32443570Y-23900000D03*
X29147856Y-26100000D03*
X29147856Y-23900000D03*
X25852142Y-26100000D03*
X25852142Y-23900000D03*
X22556428Y-26100000D03*
X22556428Y-23900000D03*
X19260714Y-26100000D03*
X19260714Y-23900000D03*
X15965000Y-26100000D03*
X15965000Y-23900000D03*
X47500000Y-58250000D03*
X47500000Y-56050000D03*
X45689520Y-58196660D03*
X45689520Y-55996660D03*
X56575960Y-44848600D03*
X56575960Y-47048600D03*
D22*
X52768320Y-30853380D03*
X54968320Y-30853380D03*
D23*
X38950000Y-17500000D03*
X37050000Y-17500000D03*
X38000000Y-20500000D03*
X31950000Y-17500000D03*
X30050000Y-17500000D03*
X31000000Y-20500000D03*
X24950000Y-17500000D03*
X23050000Y-17500000D03*
X24000000Y-20500000D03*
X17950000Y-17500000D03*
X16050000Y-17500000D03*
X17000000Y-20500000D03*
D24*
X17000000Y-57900000D03*
X17000000Y-56000000D03*
X17000000Y-62900000D03*
X17000000Y-61000000D03*
X37500000Y-46900000D03*
X37500000Y-45000000D03*
X42000000Y-24050000D03*
X42000000Y-25950000D03*
D18*
X85000000Y-48700000D03*
X85000000Y-43300000D03*
D24*
X16000000Y-35900000D03*
X16000000Y-34000000D03*
X48991520Y-36548100D03*
X48991520Y-34648100D03*
X58963560Y-36751340D03*
X58963560Y-34851340D03*
X39500000Y-46900000D03*
X39500000Y-45000000D03*
X35500000Y-46950000D03*
X35500000Y-45050000D03*
X53990240Y-46900000D03*
X53990240Y-45000000D03*
D25*
X34100000Y-61350000D03*
X34100000Y-57750000D03*
D18*
X75000000Y-48700000D03*
X75000000Y-43300000D03*
D24*
X24000000Y-46900000D03*
X24000000Y-45000000D03*
M02*
