M48
;DRILL file {KiCad (5.0.0)} date 08/16/18 22:16:30
;FORMAT={-:-/ absolute / inch / decimal}
FMAT,2
INCH,TZ
T1C0.0157
T2C0.0236
T3C0.0315
T4C0.0320
T5C0.0354
T6C0.0394
T7C0.0472
T8C0.0630
T9C0.0709
%
G90
G05
M72
T1
X5.89Y-2.802
X5.8921Y-2.8847
X5.938Y-2.934
X5.9392Y-2.83
X6.4Y-2.61
X6.5Y-2.61
X6.745Y-2.6613
T2
X3.95Y-5.55
X4.Y-5.55
X4.05Y-5.55
X6.245Y-2.295
X6.295Y-2.295
X6.345Y-2.295
X3.525Y-2.1
X3.525Y-2.15
X3.525Y-2.2
X6.22Y-1.72
X6.27Y-1.72
X6.32Y-1.72
X6.3Y-2.525
X6.3787Y-2.525
X6.51Y-2.295
X6.56Y-2.295
X6.61Y-2.295
X4.665Y-2.085
X4.665Y-2.135
X4.665Y-2.185
X6.525Y-1.715
X6.575Y-1.715
X6.625Y-1.715
X4.1Y-2.09
X4.1Y-2.14
X4.1Y-2.19
X6.66Y-5.06
X6.71Y-5.06
X6.76Y-5.06
T3
X6.51Y-1.9
X6.51Y-2.2
X5.47Y-5.8
X5.47Y-5.8984
X6.61Y-3.5
X6.61Y-3.8
X3.11Y-3.25
X3.41Y-3.25
X5.6Y-4.22
X5.6Y-4.52
X5.075Y-2.825
X5.075Y-2.9234
X6.22Y-1.895
X6.22Y-2.195
X3.255Y-5.1
X3.255Y-5.2
X3.255Y-5.3
X3.255Y-5.4
X3.555Y-5.1
X3.555Y-5.2
X3.555Y-5.3
X3.555Y-5.4
X5.15Y-1.7
X5.45Y-1.7
X6.7Y-3.5766
X6.7Y-3.675
X3.415Y-2.82
X3.415Y-3.12
X3.515Y-2.82
X3.515Y-3.12
X3.615Y-2.82
X3.615Y-3.12
X3.715Y-2.82
X3.715Y-3.12
X3.815Y-2.82
X3.815Y-3.12
X3.915Y-2.82
X3.915Y-3.12
X4.015Y-2.82
X4.015Y-3.12
X4.115Y-2.82
X4.115Y-3.12
X4.215Y-2.82
X4.215Y-3.12
X4.315Y-2.82
X4.315Y-3.12
X4.415Y-2.82
X4.415Y-3.12
X4.515Y-2.82
X4.515Y-3.12
X4.615Y-2.82
X4.615Y-3.12
X4.715Y-2.82
X4.715Y-3.12
X3.575Y-3.245
X3.875Y-3.245
X3.Y-1.3
X3.3Y-1.3
X5.5Y-2.375
X5.5Y-2.675
X6.56Y-2.825
X6.6584Y-2.825
X3.59Y-5.64
X3.59Y-6.04
X5.6Y-5.05
X6.Y-5.05
X5.275Y-3.1
X5.275Y-3.1984
X6.65Y-1.9
X6.65Y-2.2
X5.2Y-2.375
X5.2Y-2.675
X4.255Y-4.14
X4.555Y-4.14
X6.52Y-1.29
X6.52Y-1.59
X5.05Y-2.375
X5.05Y-2.675
X5.275Y-2.825
X5.275Y-2.9234
X5.54Y-5.3
X5.54Y-5.6
X4.95Y-3.1
X4.95Y-3.1984
X6.05Y-4.475
X6.1484Y-4.475
X5.175Y-2.05
X5.475Y-2.05
X6.62Y-3.98
X6.62Y-4.28
X2.98Y-5.74
X3.0784Y-5.74
X3.81Y-5.085
X3.81Y-5.185
X3.81Y-5.285
X3.81Y-5.385
X4.11Y-5.085
X4.11Y-5.185
X4.11Y-5.285
X4.11Y-5.385
X3.715Y-4.14
X4.015Y-4.14
X5.59Y-4.905
X5.99Y-4.905
X6.045Y-3.235
X6.045Y-3.3334
X3.445Y-5.57
X3.745Y-5.57
X5.995Y-3.4866
X5.995Y-3.585
X5.35Y-2.375
X5.35Y-2.675
X6.14Y-5.4
X6.14Y-5.7
X6.46Y-5.08
X6.46Y-5.1784
X6.64Y-1.285
X6.64Y-1.585
X3.525Y-1.675
X3.525Y-1.975
X4.96Y-5.57
X5.26Y-5.57
X5.15Y-1.275
X5.45Y-1.275
X4.95Y-2.825
X4.95Y-2.9234
X5.1Y-5.67
X5.1Y-5.97
X6.61Y-3.0271
X6.61Y-3.22
X6.265Y-4.985
X6.265Y-5.285
X6.33Y-4.545
X6.4284Y-4.545
X6.215Y-1.285
X6.215Y-1.585
X6.15Y-2.7
X6.15Y-2.8
X6.15Y-2.9
X6.15Y-3.
X6.15Y-3.1
X6.15Y-3.2
X6.15Y-3.3
X6.15Y-3.4
X6.15Y-3.5
X6.15Y-3.6
X6.15Y-3.7
X6.15Y-3.8
X6.15Y-3.9
X6.15Y-4.
X6.45Y-2.7
X6.45Y-2.8
X6.45Y-2.9
X6.45Y-3.
X6.45Y-3.1
X6.45Y-3.2
X6.45Y-3.3
X6.45Y-3.4
X6.45Y-3.5
X6.45Y-3.6
X6.45Y-3.7
X6.45Y-3.8
X6.45Y-3.9
X6.45Y-4.
X5.15Y-1.55
X5.45Y-1.55
X4.455Y-5.575
X4.755Y-5.575
X3.Y-5.21
X3.Y-5.51
X5.075Y-3.1
X5.075Y-3.1984
X6.345Y-1.895
X6.345Y-2.195
X5.6Y-5.2
X6.Y-5.2
X4.1Y-5.74
X4.1Y-5.9369
X5.5Y-3.04
X5.5Y-3.34
X6.335Y-1.285
X6.335Y-1.585
X4.15Y-5.575
X4.2484Y-5.575
X3.685Y-5.05
X3.685Y-5.45
X3.Y-2.
X3.Y-2.3
X4.9Y-2.375
X4.9Y-2.675
X5.68Y-5.3
X5.68Y-5.6
X5.15Y-1.4
X5.45Y-1.4
X4.6Y-5.7
X4.6Y-6.
X6.59Y-4.455
X6.6884Y-4.455
X3.14Y-5.21
X3.14Y-5.51
X6.565Y-3.415
X6.6634Y-3.415
X3.425Y-2.375
X3.425Y-2.675
X3.525Y-2.375
X3.525Y-2.675
X3.625Y-2.375
X3.625Y-2.675
X3.725Y-2.375
X3.725Y-2.675
X3.825Y-2.375
X3.825Y-2.675
X3.925Y-2.375
X3.925Y-2.675
X4.025Y-2.375
X4.025Y-2.675
X4.125Y-2.375
X4.125Y-2.675
X4.225Y-2.375
X4.225Y-2.675
X4.325Y-2.375
X4.325Y-2.675
X4.425Y-2.375
X4.425Y-2.675
X4.525Y-2.375
X4.525Y-2.675
X4.625Y-2.375
X4.625Y-2.675
X4.725Y-2.375
X4.725Y-2.675
T4
X4.88Y-5.13
X4.88Y-5.3269
X5.3721Y-5.13
X5.3721Y-5.3269
X4.2429Y-5.1281
X4.2429Y-5.325
X4.735Y-5.1281
X4.735Y-5.325
T5
X5.745Y-4.43
X5.845Y-4.43
X4.85Y-4.34
X4.95Y-4.34
X5.13Y-4.34
X5.23Y-4.34
X3.31Y-3.46
X3.41Y-3.46
X4.57Y-4.34
X4.67Y-4.34
X3.595Y-4.34
X3.695Y-4.34
X4.29Y-3.46
X4.39Y-3.46
X3.595Y-3.46
X3.695Y-3.46
X4.85Y-3.46
X4.95Y-3.46
X3.035Y-4.34
X3.135Y-4.34
X3.875Y-4.34
X3.975Y-4.34
X4.29Y-4.34
X4.39Y-4.34
X5.13Y-3.46
X5.23Y-3.46
X3.035Y-3.46
X3.135Y-3.46
X3.31Y-4.34
X3.41Y-4.34
X4.575Y-3.46
X4.675Y-3.46
X5.88Y-5.33
X5.88Y-5.43
X3.875Y-3.46
X3.975Y-3.46
T6
X4.1Y-1.3
X4.1Y-1.9
X4.2Y-1.3
X4.2Y-1.9
X4.3Y-1.3
X4.3Y-1.9
X4.4Y-1.3
X4.4Y-1.9
X4.5Y-1.3
X4.5Y-1.9
X4.6Y-1.3
X4.6Y-1.9
X6.075Y-4.725
X6.175Y-4.725
X6.275Y-4.725
X3.5528Y-4.57
X3.5528Y-4.8259
X3.73Y-4.57
X3.73Y-4.8259
X5.655Y-4.615
X5.655Y-4.7922
X5.9109Y-4.615
X5.9109Y-4.7922
X3.2728Y-4.57
X3.2728Y-4.8259
X3.45Y-4.57
X3.45Y-4.8259
X5.7016Y-1.9453
X5.8Y-1.9453
X5.8984Y-1.9453
X4.5328Y-4.57
X4.5328Y-4.8259
X4.71Y-4.57
X4.71Y-4.8259
X4.2528Y-3.69
X4.2528Y-3.9459
X4.43Y-3.69
X4.43Y-3.9459
X6.2Y-4.15
X6.2Y-4.25
X6.3Y-4.15
X6.3Y-4.25
X6.4Y-4.15
X6.4Y-4.25
X5.7016Y-2.7453
X5.8Y-2.7453
X5.8984Y-2.7453
X4.2441Y-2.0478
X4.2441Y-2.225
X4.5Y-2.0478
X4.5Y-2.225
X5.7016Y-3.4453
X5.8Y-3.4453
X5.8984Y-3.4453
X4.5328Y-3.69
X4.5328Y-3.9459
X4.71Y-3.69
X4.71Y-3.9459
X4.2528Y-4.57
X4.2528Y-4.8259
X4.43Y-4.57
X4.43Y-4.8259
X4.8128Y-4.57
X4.8128Y-4.8259
X4.99Y-4.57
X4.99Y-4.8259
X3.6691Y-2.0478
X3.6691Y-2.225
X3.925Y-2.0478
X3.925Y-2.225
X3.1141Y-2.0478
X3.1141Y-2.225
X3.37Y-2.0478
X3.37Y-2.225
X3.8328Y-3.69
X3.8328Y-3.9459
X4.01Y-3.69
X4.01Y-3.9459
X2.9928Y-4.57
X2.9928Y-4.8259
X3.17Y-4.57
X3.17Y-4.8259
X3.2728Y-3.69
X3.2728Y-3.9459
X3.45Y-3.69
X3.45Y-3.9459
X3.5528Y-3.69
X3.5528Y-3.9459
X3.73Y-3.69
X3.73Y-3.9459
X5.0928Y-4.57
X5.0928Y-4.8259
X5.27Y-4.57
X5.27Y-4.8259
X4.8191Y-2.0478
X4.8191Y-2.225
X5.075Y-2.0478
X5.075Y-2.225
X2.9928Y-3.69
X2.9928Y-3.9459
X3.17Y-3.69
X3.17Y-3.9459
X6.485Y-4.725
X6.585Y-4.725
X6.685Y-4.725
X4.8128Y-3.69
X4.8128Y-3.9459
X4.99Y-3.69
X4.99Y-3.9459
X6.64Y-5.39
X6.64Y-5.49
X6.64Y-5.59
X6.64Y-5.69
X6.64Y-5.79
X6.74Y-5.39
X6.74Y-5.49
X6.74Y-5.59
X6.74Y-5.69
X6.74Y-5.79
X3.0781Y-1.9
X3.1766Y-1.9
X3.275Y-1.9
X5.0928Y-3.69
X5.0928Y-3.9459
X5.27Y-3.69
X5.27Y-3.9459
X5.7016Y-4.1453
X5.8Y-4.1453
X5.8984Y-4.1453
X3.8428Y-4.57
X3.8428Y-4.8259
X4.02Y-4.57
X4.02Y-4.8259
T7
X6.12Y-5.975
X6.52Y-5.975
X6.475Y-5.4
X6.475Y-5.8
X6.29Y-5.405
X6.29Y-5.805
T8
X4.35Y-5.5699
X4.35Y-5.6919
X4.35Y-6.0187
X5.875Y-5.5699
X5.875Y-5.6919
X5.875Y-6.0187
X3.85Y-5.5699
X3.85Y-5.6919
X3.85Y-6.0187
X4.85Y-5.5699
X4.85Y-5.6919
X4.85Y-6.0187
X5.35Y-5.5699
X5.35Y-5.6919
X5.35Y-6.0187
X3.32Y-5.5649
X3.32Y-5.6869
X3.32Y-6.0137
T9
X5.611Y-3.85
X5.989Y-3.85
X5.611Y-1.65
X5.989Y-1.65
X5.611Y-2.45
X5.989Y-2.45
X5.611Y-3.15
X5.989Y-3.15
T0
M30
